<?xml version="1.0" encoding="UTF-8"?>
<svg xmlns="http://www.w3.org/2000/svg" xmlns:xlink="http://www.w3.org/1999/xlink" width="1760" height="1360" viewBox="-80 -1280 1760 1360">
<defs>
<style type="text/css">
.l1d22 {stroke: #0067A5; fill: #0067A5; fill-opacity: 0.5;}
.l5d22 {stroke: #B3446C; fill: #B3446C; fill-opacity: 0.5;}
.l126d0 {stroke: #E68FAC; fill: #E68FAC; fill-opacity: 0.5;}
.l189d4 {stroke: #A1CAF1; fill: #A1CAF1; fill-opacity: 0.5;}
</style>
</defs>
<rect x="-80" y="-1280" width="1760" height="1360" fill="#222222" stroke="none"/>
<g id="my_logo" transform="scale(1 -1)">
<polygon id="0x22d3f40" class="l126d0" points="0,20 480,20 480,60 0,60"/>
<polygon id="0x2326750" class="l126d0" points="640,20 720,20 720,60 640,60"/>
<polygon id="0x230d3a0" class="l126d0" points="800,20 960,20 960,60 800,60"/>
<polygon id="0x213ea00" class="l126d0" points="1040,20 1360,20 1360,60 1040,60"/>
<polygon id="0x21adec0" class="l126d0" points="1440,20 1600,20 1600,60 1440,60"/>
<polygon id="0x2430f90" class="l126d0" points="160,100 400,100 400,140 160,140"/>
<polygon id="0x2481f20" class="l126d0" points="640,100 880,100 880,140 640,140"/>
<polygon id="0x23f6570" class="l126d0" points="960,100 1120,100 1120,140 960,140"/>
<polygon id="0x23f8580" class="l126d0" points="1200,100 1360,100 1360,140 1200,140"/>
<polygon id="0x242d040" class="l126d0" points="1440,100 1600,100 1600,140 1440,140"/>
<polygon id="0x24100d0" class="l126d0" points="80,180 160,180 160,220 80,220"/>
<polygon id="0x2453220" class="l126d0" points="320,180 640,180 640,220 320,220"/>
<polygon id="0x2472f40" class="l126d0" points="800,180 1040,180 1040,220 800,220"/>
<polygon id="0x24acb00" class="l126d0" points="1120,180 1280,180 1280,220 1120,220"/>
<polygon id="0x246b7f0" class="l126d0" points="1360,180 1600,180 1600,220 1360,220"/>
<polygon id="0x24564c0" class="l126d0" points="0,260 80,260 80,300 0,300"/>
<polygon id="0x24473b0" class="l126d0" points="160,260 240,260 240,300 160,300"/>
<polygon id="0x227eda0" class="l126d0" points="320,260 400,260 400,300 320,300"/>
<polygon id="0x2471860" class="l126d0" points="560,260 640,260 640,300 560,300"/>
<polygon id="0x2314f90" class="l126d0" points="720,260 800,260 800,300 720,300"/>
<polygon id="0x2303200" class="l126d0" points="1120,260 1200,260 1200,300 1120,300"/>
<polygon id="0x238f4f0" class="l126d0" points="1280,260 1360,260 1360,300 1280,300"/>
<polygon id="0x23fa440" class="l126d0" points="80,340 320,340 320,380 80,380"/>
<polygon id="0x23ffb40" class="l126d0" points="400,340 640,340 640,380 400,380"/>
<polygon id="0x2441900" class="l126d0" points="720,340 960,340 960,380 720,380"/>
<polygon id="0x2452070" class="l126d0" points="1040,340 1200,340 1200,380 1040,380"/>
<polygon id="0x2445740" class="l126d0" points="1280,340 1360,340 1360,380 1280,380"/>
<polygon id="0x21e36a0" class="l126d0" points="1440,340 1600,340 1600,380 1440,380"/>
<polygon id="0x22857e0" class="l126d0" points="80,420 160,420 160,460 80,460"/>
<polygon id="0x22c1bc0" class="l126d0" points="400,420 480,420 480,460 400,460"/>
<polygon id="0x2316440" class="l126d0" points="560,420 720,420 720,460 560,460"/>
<polygon id="0x2377b40" class="l126d0" points="800,420 960,420 960,460 800,460"/>
<polygon id="0x220e1b0" class="l126d0" points="1040,420 1280,420 1280,460 1040,460"/>
<polygon id="0x24a4390" class="l126d0" points="1360,420 1520,420 1520,460 1360,460"/>
<polygon id="0x24a4450" class="l126d0" points="160,500 400,500 400,540 160,540"/>
<polygon id="0x24a4510" class="l126d0" points="480,500 560,500 560,540 480,540"/>
<polygon id="0x24a45d0" class="l126d0" points="640,500 960,500 960,540 640,540"/>
<polygon id="0x24a4690" class="l126d0" points="1040,500 1200,500 1200,540 1040,540"/>
<polygon id="0x24a4750" class="l126d0" points="1440,500 1600,500 1600,540 1440,540"/>
<polygon id="0x24a4810" class="l126d0" points="0,580 160,580 160,620 0,620"/>
<polygon id="0x24a48d0" class="l126d0" points="320,580 800,580 800,620 320,620"/>
<polygon id="0x24a4990" class="l126d0" points="1040,580 1120,580 1120,620 1040,620"/>
<polygon id="0x24a4a50" class="l126d0" points="1200,580 1360,580 1360,620 1200,620"/>
<polygon id="0x24a4b10" class="l126d0" points="1440,580 1520,580 1520,620 1440,620"/>
<polygon id="0x24a4bd0" class="l126d0" points="0,660 320,660 320,700 0,700"/>
<polygon id="0x24a4c90" class="l126d0" points="400,660 480,660 480,700 400,700"/>
<polygon id="0x24a4d50" class="l126d0" points="560,660 640,660 640,700 560,700"/>
<polygon id="0x24a4e10" class="l126d0" points="960,660 1360,660 1360,700 960,700"/>
<polygon id="0x24a4ed0" class="l126d0" points="1440,660 1600,660 1600,700 1440,700"/>
<polygon id="0x24a4f90" class="l126d0" points="0,740 80,740 80,780 0,780"/>
<polygon id="0x24a5050" class="l126d0" points="240,740 320,740 320,780 240,780"/>
<polygon id="0x24a5110" class="l126d0" points="400,740 720,740 720,780 400,780"/>
<polygon id="0x24a51d0" class="l126d0" points="800,740 960,740 960,780 800,780"/>
<polygon id="0x24a5290" class="l126d0" points="1040,740 1120,740 1120,780 1040,780"/>
<polygon id="0x24a5350" class="l126d0" points="1200,740 1360,740 1360,780 1200,780"/>
<polygon id="0x24a5410" class="l126d0" points="1520,740 1600,740 1600,780 1520,780"/>
<polygon id="0x24a54d0" class="l126d0" points="80,820 160,820 160,860 80,860"/>
<polygon id="0x24a5590" class="l126d0" points="240,820 320,820 320,860 240,860"/>
<polygon id="0x24a5650" class="l126d0" points="400,820 480,820 480,860 400,860"/>
<polygon id="0x24a5710" class="l126d0" points="800,820 1120,820 1120,860 800,860"/>
<polygon id="0x24a57d0" class="l126d0" points="1200,820 1280,820 1280,860 1200,860"/>
<polygon id="0x24a5890" class="l126d0" points="1360,820 1520,820 1520,860 1360,860"/>
<polygon id="0x24a5950" class="l126d0" points="0,900 160,900 160,940 0,940"/>
<polygon id="0x24a5a10" class="l126d0" points="240,900 640,900 640,940 240,940"/>
<polygon id="0x24a5ad0" class="l126d0" points="800,900 880,900 880,940 800,940"/>
<polygon id="0x23dea00" class="l126d0" points="1040,900 1280,900 1280,940 1040,940"/>
<polygon id="0x24112a0" class="l126d0" points="1360,900 1440,900 1440,940 1360,940"/>
<polygon id="0x2418f30" class="l126d0" points="1520,900 1600,900 1600,940 1520,940"/>
<polygon id="0x2418fa0" class="l126d0" points="80,980 560,980 560,1020 80,1020"/>
<polygon id="0x243fbe0" class="l126d0" points="640,980 800,980 800,1020 640,1020"/>
<polygon id="0x2486880" class="l126d0" points="1120,980 1280,980 1280,1020 1120,1020"/>
<polygon id="0x2256380" class="l126d0" points="0,1060 480,1060 480,1100 0,1100"/>
<polygon id="0x22bf4c0" class="l126d0" points="800,1060 880,1060 880,1100 800,1100"/>
<polygon id="0x23869d0" class="l126d0" points="1120,1060 1600,1060 1600,1100 1120,1100"/>
<polygon id="0x238d570" class="l126d0" points="80,1140 160,1140 160,1180 80,1180"/>
<polygon id="0x2455190" class="l126d0" points="320,1140 400,1140 400,1180 320,1180"/>
<polygon id="0x240a290" class="l126d0" points="480,1140 560,1140 560,1180 480,1180"/>
<polygon id="0x2276000" class="l126d0" points="640,1140 720,1140 720,1180 640,1180"/>
<polygon id="0x23cfb40" class="l126d0" points="800,1140 880,1140 880,1180 800,1180"/>
<polygon id="0x23d25b0" class="l126d0" points="1040,1140 1280,1140 1280,1180 1040,1180"/>
<polygon id="0x23eb2a0" class="l126d0" points="1440,1140 1600,1140 1600,1180 1440,1180"/>
<polygon id="0x2401310" class="l126d0" points="20,80 60,80 60,240 20,240"/>
<polygon id="0x247cd10" class="l126d0" points="20,320 60,320 60,560 20,560"/>
<polygon id="0x228f280" class="l126d0" points="20,800 60,800 60,880 20,880"/>
<polygon id="0x22a5430" class="l126d0" points="20,960 60,960 60,1040 20,1040"/>
<polygon id="0x22f0f80" class="l126d0" points="20,1120 60,1120 60,1200 20,1200"/>
<polygon id="0x22f0ff0" class="l126d0" points="100,80 140,80 140,160 100,160"/>
<polygon id="0x23062a0" class="l126d0" points="100,240 140,240 140,320 100,320"/>
<polygon id="0x2380180" class="l126d0" points="100,480 140,480 140,560 100,560"/>
<polygon id="0x23ea330" class="l126d0" points="100,720 140,720 140,800 100,800"/>
<polygon id="0x23ea3a0" class="l126d0" points="180,160 220,160 220,240 180,240"/>
<polygon id="0x2404440" class="l126d0" points="180,400 220,400 220,480 180,480"/>
<polygon id="0x2451690" class="l126d0" points="180,560 220,560 220,640 180,640"/>
<polygon id="0x2447a00" class="l126d0" points="180,720 220,720 220,960 180,960"/>
<polygon id="0x2447a70" class="l126d0" points="180,1120 220,1120 220,1200 180,1200"/>
<polygon id="0x2485f90" class="l126d0" points="260,160 300,160 300,320 260,320"/>
<polygon id="0x220fb80" class="l126d0" points="260,400 300,400 300,480 260,480"/>
<polygon id="0x226c550" class="l126d0" points="260,560 300,560 300,640 260,640"/>
<polygon id="0x226c5c0" class="l126d0" points="260,1120 300,1120 300,1200 260,1200"/>
<polygon id="0x22a7c10" class="l126d0" points="340,320 380,320 380,480 340,480"/>
<polygon id="0x22ad720" class="l126d0" points="340,640 380,640 380,880 340,880"/>
<polygon id="0x2317190" class="l126d0" points="420,80 460,80 460,160 420,160"/>
<polygon id="0x2308380" class="l126d0" points="420,240 460,240 460,320 420,320"/>
<polygon id="0x22f0920" class="l126d0" points="420,480 460,480 460,560 420,560"/>
<polygon id="0x22ef030" class="l126d0" points="420,1120 460,1120 460,1200 420,1200"/>
<polygon id="0x23bf3b0" class="l126d0" points="500,0 540,0 540,160 500,160"/>
<polygon id="0x24321a0" class="l126d0" points="500,240 540,240 540,320 500,320"/>
<polygon id="0x23f1510" class="l126d0" points="500,400 540,400 540,480 500,480"/>
<polygon id="0x245f970" class="l126d0" points="500,640 540,640 540,720 500,720"/>
<polygon id="0x2475cf0" class="l126d0" points="500,800 540,800 540,880 500,880"/>
<polygon id="0x22592a0" class="l126d0" points="500,1040 540,1040 540,1120 500,1120"/>
<polygon id="0x2259360" class="l126d0" points="580,0 620,0 620,160 580,160"/>
<polygon id="0x2271380" class="l126d0" points="580,480 620,480 620,560 580,560"/>
<polygon id="0x2271440" class="l126d0" points="580,800 620,800 620,880 580,880"/>
<polygon id="0x22ae0b0" class="l126d0" points="580,960 620,960 620,1200 580,1200"/>
<polygon id="0x22ae170" class="l126d0" points="660,160 700,160 700,400 660,400"/>
<polygon id="0x230db10" class="l126d0" points="660,640 700,640 700,720 660,720"/>
<polygon id="0x230dbd0" class="l126d0" points="660,800 700,800 700,960 660,960"/>
<polygon id="0x23065f0" class="l126d0" points="660,1040 700,1040 700,1120 660,1120"/>
<polygon id="0x23066b0" class="l126d0" points="740,0 780,0 780,80 740,80"/>
<polygon id="0x23ce680" class="l126d0" points="740,160 780,160 780,240 740,240"/>
<polygon id="0x23ce740" class="l126d0" points="740,400 780,400 780,480 740,480"/>
<polygon id="0x21820e0" class="l126d0" points="740,640 780,640 780,960 740,960"/>
<polygon id="0x21821a0" class="l126d0" points="740,1040 780,1040 780,1200 740,1200"/>
<polygon id="0x2412bd0" class="l126d0" points="820,240 860,240 860,320 820,320"/>
<polygon id="0x2412c90" class="l126d0" points="820,560 860,560 860,720 820,720"/>
<polygon id="0x2416ae0" class="l126d0" points="820,960 860,960 860,1040 820,1040"/>
<polygon id="0x2416ba0" class="l126d0" points="900,80 940,80 940,160 900,160"/>
<polygon id="0x2222280" class="l126d0" points="900,240 940,240 940,320 900,320"/>
<polygon id="0x2222340" class="l126d0" points="900,560 940,560 940,720 900,720"/>
<polygon id="0x2243760" class="l126d0" points="900,880 940,880 940,1200 900,1200"/>
<polygon id="0x2243820" class="l126d0" points="980,0 1020,0 1020,80 980,80"/>
<polygon id="0x224db40" class="l126d0" points="980,240 1020,240 1020,640 980,640"/>
<polygon id="0x2388990" class="l126d0" points="980,720 1020,720 1020,800 980,800"/>
<polygon id="0x2388a00" class="l126d0" points="980,880 1020,880 1020,1200 980,1200"/>
<polygon id="0x239e130" class="l126d0" points="1060,160 1100,160 1100,320 1060,320"/>
<polygon id="0x239e1f0" class="l126d0" points="1060,960 1100,960 1100,1120 1060,1120"/>
<polygon id="0x24502b0" class="l126d0" points="1140,80 1180,80 1180,160 1140,160"/>
<polygon id="0x24488e0" class="l126d0" points="1140,560 1180,560 1180,640 1140,640"/>
<polygon id="0x2448950" class="l126d0" points="1140,720 1180,720 1180,880 1140,880"/>
<polygon id="0x2282930" class="l126d0" points="1220,240 1260,240 1260,400 1220,400"/>
<polygon id="0x22829f0" class="l126d0" points="1220,480 1260,480 1260,560 1220,560"/>
<polygon id="0x2233ce0" class="l126d0" points="1300,160 1340,160 1340,240 1300,240"/>
<polygon id="0x23179f0" class="l126d0" points="1300,400 1340,400 1340,560 1300,560"/>
<polygon id="0x2317ab0" class="l126d0" points="1300,800 1340,800 1340,1040 1300,1040"/>
<polygon id="0x23103f0" class="l126d0" points="1300,1120 1340,1120 1340,1200 1300,1200"/>
<polygon id="0x23104b0" class="l126d0" points="1380,0 1420,0 1420,160 1380,160"/>
<polygon id="0x237e600" class="l126d0" points="1380,240 1420,240 1420,400 1380,400"/>
<polygon id="0x238c4e0" class="l126d0" points="1380,480 1420,480 1420,800 1380,800"/>
<polygon id="0x238c5a0" class="l126d0" points="1380,960 1420,960 1420,1040 1380,1040"/>
<polygon id="0x227c160" class="l126d0" points="1380,1120 1420,1120 1420,1200 1380,1200"/>
<polygon id="0x227c220" class="l126d0" points="1460,240 1500,240 1500,320 1460,320"/>
<polygon id="0x22bef30" class="l126d0" points="1460,720 1500,720 1500,800 1460,800"/>
<polygon id="0x22beff0" class="l126d0" points="1460,880 1500,880 1500,1040 1460,1040"/>
<polygon id="0x22c81c0" class="l126d0" points="1540,240 1580,240 1580,320 1540,320"/>
<polygon id="0x22c8280" class="l126d0" points="1540,400 1580,400 1580,480 1540,480"/>
<polygon id="0x235c160" class="l126d0" points="1540,560 1580,560 1580,640 1540,640"/>
<polygon id="0x235c220" class="l126d0" points="1540,800 1580,800 1580,880 1540,880"/>
<polygon id="0x244d7d0" class="l126d0" points="1540,960 1580,960 1580,1040 1540,1040"/>
<polygon id="0x244d890" class="l189d4" points="0,0 300,0 300,300 0,300"/>
<polygon id="0x247d250" class="l1d22" points="10,10 70,10 70,70 10,70"/>
<polygon id="0x247d310" class="l1d22" points="10,90 70,90 70,150 10,150"/>
<polygon id="0x2483110" class="l1d22" points="10,170 70,170 70,230 10,230"/>
<polygon id="0x24831d0" class="l1d22" points="10,250 70,250 70,310 10,310"/>
<polygon id="0x2281940" class="l1d22" points="10,330 70,330 70,390 10,390"/>
<polygon id="0x2281a00" class="l1d22" points="10,410 70,410 70,470 10,470"/>
<polygon id="0x22caba0" class="l1d22" points="10,490 70,490 70,550 10,550"/>
<polygon id="0x22cac60" class="l1d22" points="10,570 70,570 70,630 10,630"/>
<polygon id="0x230f600" class="l1d22" points="10,650 70,650 70,710 10,710"/>
<polygon id="0x230f6c0" class="l1d22" points="10,730 70,730 70,790 10,790"/>
<polygon id="0x231b660" class="l1d22" points="10,810 70,810 70,870 10,870"/>
<polygon id="0x231b720" class="l1d22" points="10,890 70,890 70,950 10,950"/>
<polygon id="0x2392fa0" class="l1d22" points="10,970 70,970 70,1030 10,1030"/>
<polygon id="0x2393060" class="l1d22" points="10,1050 70,1050 70,1110 10,1110"/>
<polygon id="0x23d6e80" class="l1d22" points="10,1130 70,1130 70,1190 10,1190"/>
<polygon id="0x23d6f40" class="l1d22" points="90,10 150,10 150,70 90,70"/>
<polygon id="0x223e9a0" class="l1d22" points="90,90 150,90 150,150 90,150"/>
<polygon id="0x223ea60" class="l1d22" points="90,170 150,170 150,230 90,230"/>
<polygon id="0x22c28a0" class="l1d22" points="90,250 150,250 150,310 90,310"/>
<polygon id="0x22c2960" class="l1d22" points="90,330 150,330 150,390 90,390"/>
<polygon id="0x22d9600" class="l1d22" points="90,410 150,410 150,470 90,470"/>
<polygon id="0x22d96c0" class="l1d22" points="90,490 150,490 150,550 90,550"/>
<polygon id="0x22d0470" class="l1d22" points="90,570 150,570 150,630 90,630"/>
<polygon id="0x22d0530" class="l1d22" points="90,650 150,650 150,710 90,710"/>
<polygon id="0x245e310" class="l1d22" points="90,730 150,730 150,790 90,790"/>
<polygon id="0x245e3d0" class="l1d22" points="90,810 150,810 150,870 90,870"/>
<polygon id="0x2473ad0" class="l1d22" points="90,890 150,890 150,950 90,950"/>
<polygon id="0x2473b90" class="l1d22" points="90,970 150,970 150,1030 90,1030"/>
<polygon id="0x21e2dd0" class="l1d22" points="90,1050 150,1050 150,1110 90,1110"/>
<polygon id="0x21e2e90" class="l1d22" points="90,1130 150,1130 150,1190 90,1190"/>
<polygon id="0x22ac4b0" class="l1d22" points="170,10 230,10 230,70 170,70"/>
<polygon id="0x22ac570" class="l1d22" points="170,90 230,90 230,150 170,150"/>
<polygon id="0x22c13c0" class="l1d22" points="170,170 230,170 230,230 170,230"/>
<polygon id="0x22c1480" class="l1d22" points="170,250 230,250 230,310 170,310"/>
<polygon id="0x2356920" class="l1d22" points="170,330 230,330 230,390 170,390"/>
<polygon id="0x23569e0" class="l1d22" points="170,410 230,410 230,470 170,470"/>
<polygon id="0x23c7ca0" class="l1d22" points="170,490 230,490 230,550 170,550"/>
<polygon id="0x23c7d60" class="l1d22" points="170,570 230,570 230,630 170,630"/>
<polygon id="0x235e8b0" class="l1d22" points="170,650 230,650 230,710 170,710"/>
<polygon id="0x235e970" class="l1d22" points="170,730 230,730 230,790 170,790"/>
<polygon id="0x23b0d70" class="l1d22" points="170,810 230,810 230,870 170,870"/>
<polygon id="0x23b0e30" class="l1d22" points="170,890 230,890 230,950 170,950"/>
<polygon id="0x23955e0" class="l1d22" points="170,970 230,970 230,1030 170,1030"/>
<polygon id="0x23956a0" class="l1d22" points="170,1050 230,1050 230,1110 170,1110"/>
<polygon id="0x23d7780" class="l1d22" points="170,1130 230,1130 230,1190 170,1190"/>
<polygon id="0x23d7840" class="l1d22" points="250,10 310,10 310,70 250,70"/>
<polygon id="0x24614b0" class="l1d22" points="250,90 310,90 310,150 250,150"/>
<polygon id="0x2461570" class="l1d22" points="250,170 310,170 310,230 250,230"/>
<polygon id="0x227e4c0" class="l1d22" points="250,250 310,250 310,310 250,310"/>
<polygon id="0x227e580" class="l1d22" points="250,330 310,330 310,390 250,390"/>
<polygon id="0x23e1280" class="l1d22" points="250,410 310,410 310,470 250,470"/>
<polygon id="0x23e12f0" class="l1d22" points="250,490 310,490 310,550 250,550"/>
<polygon id="0x23e13b0" class="l1d22" points="250,570 310,570 310,630 250,630"/>
<polygon id="0x23f9d30" class="l1d22" points="250,650 310,650 310,710 250,710"/>
<polygon id="0x23f9df0" class="l1d22" points="250,730 310,730 310,790 250,790"/>
<polygon id="0x243d220" class="l1d22" points="250,810 310,810 310,870 250,870"/>
<polygon id="0x243d2e0" class="l1d22" points="250,890 310,890 310,950 250,950"/>
<polygon id="0x22975d0" class="l1d22" points="250,970 310,970 310,1030 250,1030"/>
<polygon id="0x2297640" class="l1d22" points="250,1050 310,1050 310,1110 250,1110"/>
<polygon id="0x2297700" class="l1d22" points="250,1130 310,1130 310,1190 250,1190"/>
<polygon id="0x2323f90" class="l1d22" points="330,10 390,10 390,70 330,70"/>
<polygon id="0x2324050" class="l1d22" points="330,90 390,90 390,150 330,150"/>
<polygon id="0x238a260" class="l1d22" points="330,170 390,170 390,230 330,230"/>
<polygon id="0x238a320" class="l1d22" points="330,250 390,250 390,310 330,310"/>
<polygon id="0x23f1c00" class="l1d22" points="330,330 390,330 390,390 330,390"/>
<polygon id="0x23f1cc0" class="l1d22" points="330,410 390,410 390,470 330,470"/>
<polygon id="0x23f97a0" class="l1d22" points="330,490 390,490 390,550 330,550"/>
<polygon id="0x23f9860" class="l1d22" points="330,570 390,570 390,630 330,630"/>
<polygon id="0x2461bb0" class="l1d22" points="330,650 390,650 390,710 330,710"/>
<polygon id="0x2461c70" class="l1d22" points="330,730 390,730 390,790 330,790"/>
<polygon id="0x21e3fd0" class="l1d22" points="330,810 390,810 390,870 330,870"/>
<polygon id="0x21e4090" class="l1d22" points="330,890 390,890 390,950 330,950"/>
<polygon id="0x2241de0" class="l1d22" points="330,970 390,970 390,1030 330,1030"/>
<polygon id="0x2241ea0" class="l1d22" points="330,1050 390,1050 390,1110 330,1110"/>
<polygon id="0x2241f60" class="l1d22" points="330,1130 390,1130 390,1190 330,1190"/>
<polygon id="0x2284960" class="l1d22" points="410,10 470,10 470,70 410,70"/>
<polygon id="0x2284a20" class="l1d22" points="410,90 470,90 470,150 410,150"/>
<polygon id="0x2284ae0" class="l1d22" points="410,170 470,170 470,230 410,230"/>
<polygon id="0x2287430" class="l1d22" points="410,250 470,250 470,310 410,310"/>
<polygon id="0x22874f0" class="l1d22" points="410,330 470,330 470,390 410,390"/>
<polygon id="0x22875b0" class="l1d22" points="410,410 470,410 470,470 410,470"/>
<polygon id="0x22d8500" class="l1d22" points="410,490 470,490 470,550 410,550"/>
<polygon id="0x22d85c0" class="l1d22" points="410,570 470,570 470,630 410,630"/>
<polygon id="0x22d8680" class="l1d22" points="410,650 470,650 470,710 410,710"/>
<polygon id="0x22e7180" class="l1d22" points="410,730 470,730 470,790 410,790"/>
<polygon id="0x22e7240" class="l1d22" points="410,810 470,810 470,870 410,870"/>
<polygon id="0x22e7300" class="l1d22" points="410,890 470,890 470,950 410,950"/>
<polygon id="0x239ead0" class="l1d22" points="410,970 470,970 470,1030 410,1030"/>
<polygon id="0x239eb90" class="l1d22" points="410,1050 470,1050 470,1110 410,1110"/>
<polygon id="0x239ec50" class="l1d22" points="410,1130 470,1130 470,1190 410,1190"/>
<polygon id="0x240dba0" class="l1d22" points="490,10 550,10 550,70 490,70"/>
<polygon id="0x240dc60" class="l1d22" points="490,90 550,90 550,150 490,150"/>
<polygon id="0x226d360" class="l1d22" points="490,170 550,170 550,230 490,230"/>
<polygon id="0x226d420" class="l1d22" points="490,250 550,250 550,310 490,310"/>
<polygon id="0x226d4e0" class="l1d22" points="490,330 550,330 550,390 490,390"/>
<polygon id="0x22a06e0" class="l1d22" points="490,410 550,410 550,470 490,470"/>
<polygon id="0x22a07a0" class="l1d22" points="490,490 550,490 550,550 490,550"/>
<polygon id="0x22f4610" class="l1d22" points="490,570 550,570 550,630 490,630"/>
<polygon id="0x22f46d0" class="l1d22" points="490,650 550,650 550,710 490,710"/>
<polygon id="0x22f4790" class="l1d22" points="490,730 550,730 550,790 490,790"/>
<polygon id="0x220e830" class="l1d22" points="490,810 550,810 550,870 490,870"/>
<polygon id="0x220e8f0" class="l1d22" points="490,890 550,890 550,950 490,950"/>
<polygon id="0x24360c0" class="l1d22" points="490,970 550,970 550,1030 490,1030"/>
<polygon id="0x2436180" class="l1d22" points="490,1050 550,1050 550,1110 490,1110"/>
<polygon id="0x2436240" class="l1d22" points="490,1130 550,1130 550,1190 490,1190"/>
<polygon id="0x23eeaa0" class="l1d22" points="570,10 630,10 630,70 570,70"/>
<polygon id="0x23eeb60" class="l1d22" points="570,90 630,90 630,150 570,150"/>
<polygon id="0x2454390" class="l1d22" points="570,170 630,170 630,230 570,230"/>
<polygon id="0x2454450" class="l1d22" points="570,250 630,250 630,310 570,310"/>
<polygon id="0x2454510" class="l1d22" points="570,330 630,330 630,390 570,390"/>
<polygon id="0x24a6bf0" class="l1d22" points="570,410 630,410 630,470 570,470"/>
<polygon id="0x24a6cb0" class="l1d22" points="570,490 630,490 630,550 570,550"/>
<polygon id="0x24a6d70" class="l1d22" points="570,570 630,570 630,630 570,630"/>
<polygon id="0x24a6e30" class="l1d22" points="570,650 630,650 630,710 570,710"/>
<polygon id="0x24a6ef0" class="l1d22" points="570,730 630,730 630,790 570,790"/>
<polygon id="0x24a6fb0" class="l1d22" points="570,810 630,810 630,870 570,870"/>
<polygon id="0x24a7070" class="l1d22" points="570,890 630,890 630,950 570,950"/>
<polygon id="0x24a7130" class="l1d22" points="570,970 630,970 630,1030 570,1030"/>
<polygon id="0x24a71f0" class="l1d22" points="570,1050 630,1050 630,1110 570,1110"/>
<polygon id="0x24a72b0" class="l1d22" points="570,1130 630,1130 630,1190 570,1190"/>
<polygon id="0x24a7370" class="l1d22" points="650,10 710,10 710,70 650,70"/>
<polygon id="0x24a7430" class="l1d22" points="650,90 710,90 710,150 650,150"/>
<polygon id="0x24a74f0" class="l1d22" points="650,170 710,170 710,230 650,230"/>
<polygon id="0x24a75b0" class="l1d22" points="650,250 710,250 710,310 650,310"/>
<polygon id="0x24a7670" class="l1d22" points="650,330 710,330 710,390 650,390"/>
<polygon id="0x24a7730" class="l1d22" points="650,410 710,410 710,470 650,470"/>
<polygon id="0x24a77f0" class="l1d22" points="650,490 710,490 710,550 650,550"/>
<polygon id="0x24a78b0" class="l1d22" points="650,570 710,570 710,630 650,630"/>
<polygon id="0x24a7970" class="l1d22" points="650,650 710,650 710,710 650,710"/>
<polygon id="0x24a7a30" class="l1d22" points="650,730 710,730 710,790 650,790"/>
<polygon id="0x24a7af0" class="l1d22" points="650,810 710,810 710,870 650,870"/>
<polygon id="0x24a7bb0" class="l1d22" points="650,890 710,890 710,950 650,950"/>
<polygon id="0x24a7c70" class="l1d22" points="650,970 710,970 710,1030 650,1030"/>
<polygon id="0x24a7d30" class="l1d22" points="650,1050 710,1050 710,1110 650,1110"/>
<polygon id="0x24a7df0" class="l1d22" points="650,1130 710,1130 710,1190 650,1190"/>
<polygon id="0x24a7eb0" class="l1d22" points="730,10 790,10 790,70 730,70"/>
<polygon id="0x24a7f70" class="l1d22" points="730,90 790,90 790,150 730,150"/>
<polygon id="0x24a8030" class="l1d22" points="730,170 790,170 790,230 730,230"/>
<polygon id="0x24a80f0" class="l1d22" points="730,250 790,250 790,310 730,310"/>
<polygon id="0x24a81b0" class="l1d22" points="730,330 790,330 790,390 730,390"/>
<polygon id="0x24a8270" class="l1d22" points="730,410 790,410 790,470 730,470"/>
<polygon id="0x24a8330" class="l1d22" points="730,490 790,490 790,550 730,550"/>
<polygon id="0x24a83f0" class="l1d22" points="730,570 790,570 790,630 730,630"/>
<polygon id="0x24a84b0" class="l1d22" points="730,650 790,650 790,710 730,710"/>
<polygon id="0x24a8570" class="l1d22" points="730,730 790,730 790,790 730,790"/>
<polygon id="0x24a8630" class="l1d22" points="730,810 790,810 790,870 730,870"/>
<polygon id="0x24a86f0" class="l1d22" points="730,890 790,890 790,950 730,950"/>
<polygon id="0x24a87b0" class="l1d22" points="730,970 790,970 790,1030 730,1030"/>
<polygon id="0x24a8870" class="l1d22" points="730,1050 790,1050 790,1110 730,1110"/>
<polygon id="0x24a8930" class="l1d22" points="730,1130 790,1130 790,1190 730,1190"/>
<polygon id="0x24a89f0" class="l1d22" points="810,10 870,10 870,70 810,70"/>
<polygon id="0x24a8ab0" class="l1d22" points="810,90 870,90 870,150 810,150"/>
<polygon id="0x24a8b70" class="l1d22" points="810,170 870,170 870,230 810,230"/>
<polygon id="0x24a8c30" class="l1d22" points="810,250 870,250 870,310 810,310"/>
<polygon id="0x24a8cf0" class="l1d22" points="810,330 870,330 870,390 810,390"/>
<polygon id="0x24a8db0" class="l1d22" points="810,410 870,410 870,470 810,470"/>
<polygon id="0x24a8e70" class="l1d22" points="810,490 870,490 870,550 810,550"/>
<polygon id="0x24a8f30" class="l1d22" points="810,570 870,570 870,630 810,630"/>
<polygon id="0x24a8ff0" class="l1d22" points="810,650 870,650 870,710 810,710"/>
<polygon id="0x24a90b0" class="l1d22" points="810,730 870,730 870,790 810,790"/>
<polygon id="0x24a9170" class="l1d22" points="810,810 870,810 870,870 810,870"/>
<polygon id="0x24a9230" class="l1d22" points="810,890 870,890 870,950 810,950"/>
<polygon id="0x24a92f0" class="l1d22" points="810,970 870,970 870,1030 810,1030"/>
<polygon id="0x24a93b0" class="l1d22" points="810,1050 870,1050 870,1110 810,1110"/>
<polygon id="0x24a9470" class="l1d22" points="810,1130 870,1130 870,1190 810,1190"/>
<polygon id="0x24a9530" class="l1d22" points="890,10 950,10 950,70 890,70"/>
<polygon id="0x24a95f0" class="l1d22" points="890,90 950,90 950,150 890,150"/>
<polygon id="0x24a96b0" class="l1d22" points="890,170 950,170 950,230 890,230"/>
<polygon id="0x24a9770" class="l1d22" points="890,250 950,250 950,310 890,310"/>
<polygon id="0x24a9830" class="l1d22" points="890,330 950,330 950,390 890,390"/>
<polygon id="0x24a98f0" class="l1d22" points="890,410 950,410 950,470 890,470"/>
<polygon id="0x24a99b0" class="l1d22" points="890,490 950,490 950,550 890,550"/>
<polygon id="0x24a9a70" class="l1d22" points="890,570 950,570 950,630 890,630"/>
<polygon id="0x24a9b30" class="l1d22" points="890,650 950,650 950,710 890,710"/>
<polygon id="0x24a9bf0" class="l1d22" points="890,730 950,730 950,790 890,790"/>
<polygon id="0x24a9cb0" class="l1d22" points="890,810 950,810 950,870 890,870"/>
<polygon id="0x24a9d70" class="l1d22" points="890,890 950,890 950,950 890,950"/>
<polygon id="0x24a9e30" class="l1d22" points="890,970 950,970 950,1030 890,1030"/>
<polygon id="0x24a9ef0" class="l1d22" points="890,1050 950,1050 950,1110 890,1110"/>
<polygon id="0x24a9fb0" class="l1d22" points="890,1130 950,1130 950,1190 890,1190"/>
<polygon id="0x24aa070" class="l1d22" points="970,10 1030,10 1030,70 970,70"/>
<polygon id="0x24aa130" class="l1d22" points="970,90 1030,90 1030,150 970,150"/>
<polygon id="0x24aa1f0" class="l1d22" points="970,170 1030,170 1030,230 970,230"/>
<polygon id="0x24aa2b0" class="l1d22" points="970,250 1030,250 1030,310 970,310"/>
<polygon id="0x24aa370" class="l1d22" points="970,330 1030,330 1030,390 970,390"/>
<polygon id="0x24aa430" class="l1d22" points="970,410 1030,410 1030,470 970,470"/>
<polygon id="0x24aa4f0" class="l1d22" points="970,490 1030,490 1030,550 970,550"/>
<polygon id="0x24aa5b0" class="l1d22" points="970,570 1030,570 1030,630 970,630"/>
<polygon id="0x24aa670" class="l1d22" points="970,650 1030,650 1030,710 970,710"/>
<polygon id="0x24aa730" class="l1d22" points="970,730 1030,730 1030,790 970,790"/>
<polygon id="0x24aa7f0" class="l1d22" points="970,810 1030,810 1030,870 970,870"/>
<polygon id="0x24aa8b0" class="l1d22" points="970,890 1030,890 1030,950 970,950"/>
<polygon id="0x24aa970" class="l1d22" points="970,970 1030,970 1030,1030 970,1030"/>
<polygon id="0x24aaa30" class="l1d22" points="970,1050 1030,1050 1030,1110 970,1110"/>
<polygon id="0x24aaaf0" class="l1d22" points="970,1130 1030,1130 1030,1190 970,1190"/>
<polygon id="0x24aabb0" class="l1d22" points="1050,10 1110,10 1110,70 1050,70"/>
<polygon id="0x24aac70" class="l1d22" points="1050,90 1110,90 1110,150 1050,150"/>
<polygon id="0x24aad30" class="l1d22" points="1050,170 1110,170 1110,230 1050,230"/>
<polygon id="0x24aadf0" class="l1d22" points="1050,250 1110,250 1110,310 1050,310"/>
<polygon id="0x24aaeb0" class="l1d22" points="1050,330 1110,330 1110,390 1050,390"/>
<polygon id="0x24aaf70" class="l1d22" points="1050,410 1110,410 1110,470 1050,470"/>
<polygon id="0x24ab030" class="l1d22" points="1050,490 1110,490 1110,550 1050,550"/>
<polygon id="0x24ab0f0" class="l1d22" points="1050,570 1110,570 1110,630 1050,630"/>
<polygon id="0x24ab1b0" class="l1d22" points="1050,650 1110,650 1110,710 1050,710"/>
<polygon id="0x24ab270" class="l1d22" points="1050,730 1110,730 1110,790 1050,790"/>
<polygon id="0x24ab330" class="l1d22" points="1050,810 1110,810 1110,870 1050,870"/>
<polygon id="0x24ab3f0" class="l1d22" points="1050,890 1110,890 1110,950 1050,950"/>
<polygon id="0x24add80" class="l1d22" points="1050,970 1110,970 1110,1030 1050,1030"/>
<polygon id="0x24ade40" class="l1d22" points="1050,1050 1110,1050 1110,1110 1050,1110"/>
<polygon id="0x24adf00" class="l1d22" points="1050,1130 1110,1130 1110,1190 1050,1190"/>
<polygon id="0x24adfc0" class="l1d22" points="1130,10 1190,10 1190,70 1130,70"/>
<polygon id="0x24ae080" class="l1d22" points="1130,90 1190,90 1190,150 1130,150"/>
<polygon id="0x24ae140" class="l1d22" points="1130,170 1190,170 1190,230 1130,230"/>
<polygon id="0x24ae200" class="l1d22" points="1130,250 1190,250 1190,310 1130,310"/>
<polygon id="0x24ae2c0" class="l1d22" points="1130,330 1190,330 1190,390 1130,390"/>
<polygon id="0x24ae380" class="l1d22" points="1130,410 1190,410 1190,470 1130,470"/>
<polygon id="0x24ae440" class="l1d22" points="1130,490 1190,490 1190,550 1130,550"/>
<polygon id="0x24ae500" class="l1d22" points="1130,570 1190,570 1190,630 1130,630"/>
<polygon id="0x24ae5c0" class="l1d22" points="1130,650 1190,650 1190,710 1130,710"/>
<polygon id="0x24ae680" class="l1d22" points="1130,730 1190,730 1190,790 1130,790"/>
<polygon id="0x24ae740" class="l1d22" points="1130,810 1190,810 1190,870 1130,870"/>
<polygon id="0x24ae800" class="l1d22" points="1130,890 1190,890 1190,950 1130,950"/>
<polygon id="0x24ae8c0" class="l1d22" points="1130,970 1190,970 1190,1030 1130,1030"/>
<polygon id="0x24ae980" class="l1d22" points="1130,1050 1190,1050 1190,1110 1130,1110"/>
<polygon id="0x24aea40" class="l1d22" points="1130,1130 1190,1130 1190,1190 1130,1190"/>
<polygon id="0x24aeb00" class="l1d22" points="1210,10 1270,10 1270,70 1210,70"/>
<polygon id="0x24aebc0" class="l1d22" points="1210,90 1270,90 1270,150 1210,150"/>
<polygon id="0x24aec80" class="l1d22" points="1210,170 1270,170 1270,230 1210,230"/>
<polygon id="0x24aed40" class="l1d22" points="1210,250 1270,250 1270,310 1210,310"/>
<polygon id="0x24aee00" class="l1d22" points="1210,330 1270,330 1270,390 1210,390"/>
<polygon id="0x24aeec0" class="l1d22" points="1210,410 1270,410 1270,470 1210,470"/>
<polygon id="0x24aef80" class="l1d22" points="1210,490 1270,490 1270,550 1210,550"/>
<polygon id="0x24af040" class="l1d22" points="1210,570 1270,570 1270,630 1210,630"/>
<polygon id="0x24af100" class="l1d22" points="1210,650 1270,650 1270,710 1210,710"/>
<polygon id="0x24af1c0" class="l1d22" points="1210,730 1270,730 1270,790 1210,790"/>
<polygon id="0x24af280" class="l1d22" points="1210,810 1270,810 1270,870 1210,870"/>
<polygon id="0x24af340" class="l1d22" points="1210,890 1270,890 1270,950 1210,950"/>
<polygon id="0x24af400" class="l1d22" points="1210,970 1270,970 1270,1030 1210,1030"/>
<polygon id="0x24af4c0" class="l1d22" points="1210,1050 1270,1050 1270,1110 1210,1110"/>
<polygon id="0x24af580" class="l1d22" points="1210,1130 1270,1130 1270,1190 1210,1190"/>
<polygon id="0x24af640" class="l1d22" points="1290,10 1350,10 1350,70 1290,70"/>
<polygon id="0x24af700" class="l1d22" points="1290,90 1350,90 1350,150 1290,150"/>
<polygon id="0x24af7c0" class="l1d22" points="1290,170 1350,170 1350,230 1290,230"/>
<polygon id="0x24af880" class="l1d22" points="1290,250 1350,250 1350,310 1290,310"/>
<polygon id="0x24af940" class="l1d22" points="1290,330 1350,330 1350,390 1290,390"/>
<polygon id="0x24afa00" class="l1d22" points="1290,410 1350,410 1350,470 1290,470"/>
<polygon id="0x24afac0" class="l1d22" points="1290,490 1350,490 1350,550 1290,550"/>
<polygon id="0x24afb80" class="l1d22" points="1290,570 1350,570 1350,630 1290,630"/>
<polygon id="0x24afc40" class="l1d22" points="1290,650 1350,650 1350,710 1290,710"/>
<polygon id="0x24afd00" class="l1d22" points="1290,730 1350,730 1350,790 1290,790"/>
<polygon id="0x24afdc0" class="l1d22" points="1290,810 1350,810 1350,870 1290,870"/>
<polygon id="0x24afe80" class="l1d22" points="1290,890 1350,890 1350,950 1290,950"/>
<polygon id="0x24aff40" class="l1d22" points="1290,970 1350,970 1350,1030 1290,1030"/>
<polygon id="0x24b0000" class="l1d22" points="1290,1050 1350,1050 1350,1110 1290,1110"/>
<polygon id="0x24b00c0" class="l1d22" points="1290,1130 1350,1130 1350,1190 1290,1190"/>
<polygon id="0x24b0180" class="l1d22" points="1370,10 1430,10 1430,70 1370,70"/>
<polygon id="0x24b0240" class="l1d22" points="1370,90 1430,90 1430,150 1370,150"/>
<polygon id="0x24b0300" class="l1d22" points="1370,170 1430,170 1430,230 1370,230"/>
<polygon id="0x24b03c0" class="l1d22" points="1370,250 1430,250 1430,310 1370,310"/>
<polygon id="0x24b0480" class="l1d22" points="1370,330 1430,330 1430,390 1370,390"/>
<polygon id="0x24b0540" class="l1d22" points="1370,410 1430,410 1430,470 1370,470"/>
<polygon id="0x24b0600" class="l1d22" points="1370,490 1430,490 1430,550 1370,550"/>
<polygon id="0x24b06c0" class="l1d22" points="1370,570 1430,570 1430,630 1370,630"/>
<polygon id="0x24b0780" class="l1d22" points="1370,650 1430,650 1430,710 1370,710"/>
<polygon id="0x24b0840" class="l1d22" points="1370,730 1430,730 1430,790 1370,790"/>
<polygon id="0x24b0900" class="l1d22" points="1370,810 1430,810 1430,870 1370,870"/>
<polygon id="0x24b09c0" class="l1d22" points="1370,890 1430,890 1430,950 1370,950"/>
<polygon id="0x24b0a80" class="l1d22" points="1370,970 1430,970 1430,1030 1370,1030"/>
<polygon id="0x24b0b40" class="l1d22" points="1370,1050 1430,1050 1430,1110 1370,1110"/>
<polygon id="0x24b0c00" class="l1d22" points="1370,1130 1430,1130 1430,1190 1370,1190"/>
<polygon id="0x24b0cc0" class="l1d22" points="1450,10 1510,10 1510,70 1450,70"/>
<polygon id="0x24b0d80" class="l1d22" points="1450,90 1510,90 1510,150 1450,150"/>
<polygon id="0x24b0e40" class="l1d22" points="1450,170 1510,170 1510,230 1450,230"/>
<polygon id="0x24b0f00" class="l1d22" points="1450,250 1510,250 1510,310 1450,310"/>
<polygon id="0x24b0fc0" class="l1d22" points="1450,330 1510,330 1510,390 1450,390"/>
<polygon id="0x24b1080" class="l1d22" points="1450,410 1510,410 1510,470 1450,470"/>
<polygon id="0x24b1140" class="l1d22" points="1450,490 1510,490 1510,550 1450,550"/>
<polygon id="0x24b1200" class="l1d22" points="1450,570 1510,570 1510,630 1450,630"/>
<polygon id="0x24b12c0" class="l1d22" points="1450,650 1510,650 1510,710 1450,710"/>
<polygon id="0x24b1380" class="l1d22" points="1450,730 1510,730 1510,790 1450,790"/>
<polygon id="0x24b1440" class="l1d22" points="1450,810 1510,810 1510,870 1450,870"/>
<polygon id="0x24b1500" class="l1d22" points="1450,890 1510,890 1510,950 1450,950"/>
<polygon id="0x24b15c0" class="l1d22" points="1450,970 1510,970 1510,1030 1450,1030"/>
<polygon id="0x24b1680" class="l1d22" points="1450,1050 1510,1050 1510,1110 1450,1110"/>
<polygon id="0x24b1740" class="l1d22" points="1450,1130 1510,1130 1510,1190 1450,1190"/>
<polygon id="0x24b1800" class="l1d22" points="1530,10 1590,10 1590,70 1530,70"/>
<polygon id="0x24b18c0" class="l1d22" points="1530,90 1590,90 1590,150 1530,150"/>
<polygon id="0x24b1980" class="l1d22" points="1530,170 1590,170 1590,230 1530,230"/>
<polygon id="0x24b1a40" class="l1d22" points="1530,250 1590,250 1590,310 1530,310"/>
<polygon id="0x24b1b00" class="l1d22" points="1530,330 1590,330 1590,390 1530,390"/>
<polygon id="0x24b1bc0" class="l1d22" points="1530,410 1590,410 1590,470 1530,470"/>
<polygon id="0x24b1c80" class="l1d22" points="1530,490 1590,490 1590,550 1530,550"/>
<polygon id="0x24b1d40" class="l1d22" points="1530,570 1590,570 1590,630 1530,630"/>
<polygon id="0x24b1e00" class="l1d22" points="1530,650 1590,650 1590,710 1530,710"/>
<polygon id="0x24b1ec0" class="l1d22" points="1530,730 1590,730 1590,790 1530,790"/>
<polygon id="0x24b1f80" class="l1d22" points="1530,810 1590,810 1590,870 1530,870"/>
<polygon id="0x24b2040" class="l1d22" points="1530,890 1590,890 1590,950 1530,950"/>
<polygon id="0x24b2100" class="l1d22" points="1530,970 1590,970 1590,1030 1530,1030"/>
<polygon id="0x24b21c0" class="l1d22" points="1530,1050 1590,1050 1590,1110 1530,1110"/>
<polygon id="0x24b2280" class="l1d22" points="1530,1130 1590,1130 1590,1190 1530,1190"/>
<polygon id="0x24b2340" class="l5d22" points="10,10 70,10 70,70 10,70"/>
<polygon id="0x24b2400" class="l5d22" points="10,90 70,90 70,150 10,150"/>
<polygon id="0x24b24c0" class="l5d22" points="10,170 70,170 70,230 10,230"/>
<polygon id="0x24b2580" class="l5d22" points="10,250 70,250 70,310 10,310"/>
<polygon id="0x24b2640" class="l5d22" points="10,330 70,330 70,390 10,390"/>
<polygon id="0x24b2700" class="l5d22" points="10,410 70,410 70,470 10,470"/>
<polygon id="0x24b27c0" class="l5d22" points="10,490 70,490 70,550 10,550"/>
<polygon id="0x24b2880" class="l5d22" points="10,570 70,570 70,630 10,630"/>
<polygon id="0x24b2940" class="l5d22" points="10,650 70,650 70,710 10,710"/>
<polygon id="0x24b2a00" class="l5d22" points="10,730 70,730 70,790 10,790"/>
<polygon id="0x24b2ac0" class="l5d22" points="10,810 70,810 70,870 10,870"/>
<polygon id="0x24b2b80" class="l5d22" points="10,890 70,890 70,950 10,950"/>
<polygon id="0x24b2c40" class="l5d22" points="10,970 70,970 70,1030 10,1030"/>
<polygon id="0x24b2d00" class="l5d22" points="10,1050 70,1050 70,1110 10,1110"/>
<polygon id="0x24b2dc0" class="l5d22" points="10,1130 70,1130 70,1190 10,1190"/>
<polygon id="0x24b2e80" class="l5d22" points="90,10 150,10 150,70 90,70"/>
<polygon id="0x24b2f40" class="l5d22" points="90,90 150,90 150,150 90,150"/>
<polygon id="0x24b3000" class="l5d22" points="90,170 150,170 150,230 90,230"/>
<polygon id="0x24b30c0" class="l5d22" points="90,250 150,250 150,310 90,310"/>
<polygon id="0x24b3180" class="l5d22" points="90,330 150,330 150,390 90,390"/>
<polygon id="0x24b3240" class="l5d22" points="90,410 150,410 150,470 90,470"/>
<polygon id="0x24b3300" class="l5d22" points="90,490 150,490 150,550 90,550"/>
<polygon id="0x24b33c0" class="l5d22" points="90,570 150,570 150,630 90,630"/>
<polygon id="0x24b3480" class="l5d22" points="90,650 150,650 150,710 90,710"/>
<polygon id="0x24b3540" class="l5d22" points="90,730 150,730 150,790 90,790"/>
<polygon id="0x24b3600" class="l5d22" points="90,810 150,810 150,870 90,870"/>
<polygon id="0x24b36c0" class="l5d22" points="90,890 150,890 150,950 90,950"/>
<polygon id="0x24b3780" class="l5d22" points="90,970 150,970 150,1030 90,1030"/>
<polygon id="0x24b3840" class="l5d22" points="90,1050 150,1050 150,1110 90,1110"/>
<polygon id="0x24b3900" class="l5d22" points="90,1130 150,1130 150,1190 90,1190"/>
<polygon id="0x24b39c0" class="l5d22" points="170,10 230,10 230,70 170,70"/>
<polygon id="0x24b3a80" class="l5d22" points="170,90 230,90 230,150 170,150"/>
<polygon id="0x24b3b40" class="l5d22" points="170,170 230,170 230,230 170,230"/>
<polygon id="0x24b3c00" class="l5d22" points="170,250 230,250 230,310 170,310"/>
<polygon id="0x24b3cc0" class="l5d22" points="170,330 230,330 230,390 170,390"/>
<polygon id="0x24b3d80" class="l5d22" points="170,410 230,410 230,470 170,470"/>
<polygon id="0x24b3e40" class="l5d22" points="170,490 230,490 230,550 170,550"/>
<polygon id="0x24b3f00" class="l5d22" points="170,570 230,570 230,630 170,630"/>
<polygon id="0x24b3fc0" class="l5d22" points="170,650 230,650 230,710 170,710"/>
<polygon id="0x24b4080" class="l5d22" points="170,730 230,730 230,790 170,790"/>
<polygon id="0x24b4140" class="l5d22" points="170,810 230,810 230,870 170,870"/>
<polygon id="0x24b4200" class="l5d22" points="170,890 230,890 230,950 170,950"/>
<polygon id="0x24b42c0" class="l5d22" points="170,970 230,970 230,1030 170,1030"/>
<polygon id="0x24b4380" class="l5d22" points="170,1050 230,1050 230,1110 170,1110"/>
<polygon id="0x24b4440" class="l5d22" points="170,1130 230,1130 230,1190 170,1190"/>
<polygon id="0x24b4500" class="l5d22" points="250,10 310,10 310,70 250,70"/>
<polygon id="0x24b45c0" class="l5d22" points="250,90 310,90 310,150 250,150"/>
<polygon id="0x24b4680" class="l5d22" points="250,170 310,170 310,230 250,230"/>
<polygon id="0x24b4740" class="l5d22" points="250,250 310,250 310,310 250,310"/>
<polygon id="0x24b4800" class="l5d22" points="250,330 310,330 310,390 250,390"/>
<polygon id="0x24b48c0" class="l5d22" points="250,410 310,410 310,470 250,470"/>
<polygon id="0x24b4980" class="l5d22" points="250,490 310,490 310,550 250,550"/>
<polygon id="0x24b4a40" class="l5d22" points="250,570 310,570 310,630 250,630"/>
<polygon id="0x24a5b90" class="l5d22" points="250,650 310,650 310,710 250,710"/>
<polygon id="0x24a5c50" class="l5d22" points="250,730 310,730 310,790 250,790"/>
<polygon id="0x24a5d10" class="l5d22" points="250,810 310,810 310,870 250,870"/>
<polygon id="0x24a5dd0" class="l5d22" points="250,890 310,890 310,950 250,950"/>
<polygon id="0x24a5e90" class="l5d22" points="250,970 310,970 310,1030 250,1030"/>
<polygon id="0x24a5f50" class="l5d22" points="250,1050 310,1050 310,1110 250,1110"/>
<polygon id="0x24a6010" class="l5d22" points="250,1130 310,1130 310,1190 250,1190"/>
<polygon id="0x24a60d0" class="l5d22" points="330,10 390,10 390,70 330,70"/>
<polygon id="0x24a6190" class="l5d22" points="330,90 390,90 390,150 330,150"/>
<polygon id="0x24a6250" class="l5d22" points="330,170 390,170 390,230 330,230"/>
<polygon id="0x24a6310" class="l5d22" points="330,250 390,250 390,310 330,310"/>
<polygon id="0x24a63d0" class="l5d22" points="330,330 390,330 390,390 330,390"/>
<polygon id="0x24a6490" class="l5d22" points="330,410 390,410 390,470 330,470"/>
<polygon id="0x24a6550" class="l5d22" points="330,490 390,490 390,550 330,550"/>
<polygon id="0x24a6610" class="l5d22" points="330,570 390,570 390,630 330,630"/>
<polygon id="0x24a66d0" class="l5d22" points="330,650 390,650 390,710 330,710"/>
<polygon id="0x24a6790" class="l5d22" points="330,730 390,730 390,790 330,790"/>
<polygon id="0x24a6850" class="l5d22" points="330,810 390,810 390,870 330,870"/>
<polygon id="0x24a6910" class="l5d22" points="330,890 390,890 390,950 330,950"/>
<polygon id="0x24a69d0" class="l5d22" points="330,970 390,970 390,1030 330,1030"/>
<polygon id="0x24a6a90" class="l5d22" points="330,1050 390,1050 390,1110 330,1110"/>
<polygon id="0x24b6b10" class="l5d22" points="330,1130 390,1130 390,1190 330,1190"/>
<polygon id="0x24b6b80" class="l5d22" points="410,10 470,10 470,70 410,70"/>
<polygon id="0x24b6c40" class="l5d22" points="410,90 470,90 470,150 410,150"/>
<polygon id="0x24b6d00" class="l5d22" points="410,170 470,170 470,230 410,230"/>
<polygon id="0x24b6dc0" class="l5d22" points="410,250 470,250 470,310 410,310"/>
<polygon id="0x24b6e80" class="l5d22" points="410,330 470,330 470,390 410,390"/>
<polygon id="0x24b6f40" class="l5d22" points="410,410 470,410 470,470 410,470"/>
<polygon id="0x24b7000" class="l5d22" points="410,490 470,490 470,550 410,550"/>
<polygon id="0x24b70c0" class="l5d22" points="410,570 470,570 470,630 410,630"/>
<polygon id="0x24b7180" class="l5d22" points="410,650 470,650 470,710 410,710"/>
<polygon id="0x24b7240" class="l5d22" points="410,730 470,730 470,790 410,790"/>
<polygon id="0x24b7300" class="l5d22" points="410,810 470,810 470,870 410,870"/>
<polygon id="0x24b73c0" class="l5d22" points="410,890 470,890 470,950 410,950"/>
<polygon id="0x24b7480" class="l5d22" points="410,970 470,970 470,1030 410,1030"/>
<polygon id="0x24b7540" class="l5d22" points="410,1050 470,1050 470,1110 410,1110"/>
<polygon id="0x24b7600" class="l5d22" points="410,1130 470,1130 470,1190 410,1190"/>
<polygon id="0x24b76c0" class="l5d22" points="490,10 550,10 550,70 490,70"/>
<polygon id="0x24b7780" class="l5d22" points="490,90 550,90 550,150 490,150"/>
<polygon id="0x24b7840" class="l5d22" points="490,170 550,170 550,230 490,230"/>
<polygon id="0x24b7900" class="l5d22" points="490,250 550,250 550,310 490,310"/>
<polygon id="0x24b79c0" class="l5d22" points="490,330 550,330 550,390 490,390"/>
<polygon id="0x24b7a80" class="l5d22" points="490,410 550,410 550,470 490,470"/>
<polygon id="0x24b7b40" class="l5d22" points="490,490 550,490 550,550 490,550"/>
<polygon id="0x24b7c00" class="l5d22" points="490,570 550,570 550,630 490,630"/>
<polygon id="0x24b7cc0" class="l5d22" points="490,650 550,650 550,710 490,710"/>
<polygon id="0x24b7d80" class="l5d22" points="490,730 550,730 550,790 490,790"/>
<polygon id="0x24b7e40" class="l5d22" points="490,810 550,810 550,870 490,870"/>
<polygon id="0x24b7f00" class="l5d22" points="490,890 550,890 550,950 490,950"/>
<polygon id="0x24b7fc0" class="l5d22" points="490,970 550,970 550,1030 490,1030"/>
<polygon id="0x24b8080" class="l5d22" points="490,1050 550,1050 550,1110 490,1110"/>
<polygon id="0x24b8140" class="l5d22" points="490,1130 550,1130 550,1190 490,1190"/>
<polygon id="0x24b8200" class="l5d22" points="570,10 630,10 630,70 570,70"/>
<polygon id="0x24b82c0" class="l5d22" points="570,90 630,90 630,150 570,150"/>
<polygon id="0x24b8380" class="l5d22" points="570,170 630,170 630,230 570,230"/>
<polygon id="0x24b8440" class="l5d22" points="570,250 630,250 630,310 570,310"/>
<polygon id="0x24b8500" class="l5d22" points="570,330 630,330 630,390 570,390"/>
<polygon id="0x24b85c0" class="l5d22" points="570,410 630,410 630,470 570,470"/>
<polygon id="0x24b8680" class="l5d22" points="570,490 630,490 630,550 570,550"/>
<polygon id="0x24b8740" class="l5d22" points="570,570 630,570 630,630 570,630"/>
<polygon id="0x24b8800" class="l5d22" points="570,650 630,650 630,710 570,710"/>
<polygon id="0x24b88c0" class="l5d22" points="570,730 630,730 630,790 570,790"/>
<polygon id="0x24b8980" class="l5d22" points="570,810 630,810 630,870 570,870"/>
<polygon id="0x24b8a40" class="l5d22" points="570,890 630,890 630,950 570,950"/>
<polygon id="0x24b8b00" class="l5d22" points="570,970 630,970 630,1030 570,1030"/>
<polygon id="0x24b8bc0" class="l5d22" points="570,1050 630,1050 630,1110 570,1110"/>
<polygon id="0x24b8c80" class="l5d22" points="570,1130 630,1130 630,1190 570,1190"/>
<polygon id="0x24b8d40" class="l5d22" points="650,10 710,10 710,70 650,70"/>
<polygon id="0x24b8e00" class="l5d22" points="650,90 710,90 710,150 650,150"/>
<polygon id="0x24b8ec0" class="l5d22" points="650,170 710,170 710,230 650,230"/>
<polygon id="0x24b8f80" class="l5d22" points="650,250 710,250 710,310 650,310"/>
<polygon id="0x24b9040" class="l5d22" points="650,330 710,330 710,390 650,390"/>
<polygon id="0x24b9100" class="l5d22" points="650,410 710,410 710,470 650,470"/>
<polygon id="0x24b91c0" class="l5d22" points="650,490 710,490 710,550 650,550"/>
<polygon id="0x24b9280" class="l5d22" points="650,570 710,570 710,630 650,630"/>
<polygon id="0x24b9340" class="l5d22" points="650,650 710,650 710,710 650,710"/>
<polygon id="0x24b9400" class="l5d22" points="650,730 710,730 710,790 650,790"/>
<polygon id="0x24b94c0" class="l5d22" points="650,810 710,810 710,870 650,870"/>
<polygon id="0x24b9580" class="l5d22" points="650,890 710,890 710,950 650,950"/>
<polygon id="0x24b9640" class="l5d22" points="650,970 710,970 710,1030 650,1030"/>
<polygon id="0x24b9700" class="l5d22" points="650,1050 710,1050 710,1110 650,1110"/>
<polygon id="0x24b97c0" class="l5d22" points="650,1130 710,1130 710,1190 650,1190"/>
<polygon id="0x24b9880" class="l5d22" points="730,10 790,10 790,70 730,70"/>
<polygon id="0x24b9940" class="l5d22" points="730,90 790,90 790,150 730,150"/>
<polygon id="0x24b9a00" class="l5d22" points="730,170 790,170 790,230 730,230"/>
<polygon id="0x24b9ac0" class="l5d22" points="730,250 790,250 790,310 730,310"/>
<polygon id="0x24b9b80" class="l5d22" points="730,330 790,330 790,390 730,390"/>
<polygon id="0x24b9c40" class="l5d22" points="730,410 790,410 790,470 730,470"/>
<polygon id="0x24b9d00" class="l5d22" points="730,490 790,490 790,550 730,550"/>
<polygon id="0x24b9dc0" class="l5d22" points="730,570 790,570 790,630 730,630"/>
<polygon id="0x24b9e80" class="l5d22" points="730,650 790,650 790,710 730,710"/>
<polygon id="0x24b9f40" class="l5d22" points="730,730 790,730 790,790 730,790"/>
<polygon id="0x24ba000" class="l5d22" points="730,810 790,810 790,870 730,870"/>
<polygon id="0x24ba0c0" class="l5d22" points="730,890 790,890 790,950 730,950"/>
<polygon id="0x24ba180" class="l5d22" points="730,970 790,970 790,1030 730,1030"/>
<polygon id="0x24ba240" class="l5d22" points="730,1050 790,1050 790,1110 730,1110"/>
<polygon id="0x24ba300" class="l5d22" points="730,1130 790,1130 790,1190 730,1190"/>
<polygon id="0x24ba3c0" class="l5d22" points="810,10 870,10 870,70 810,70"/>
<polygon id="0x24ba480" class="l5d22" points="810,90 870,90 870,150 810,150"/>
<polygon id="0x24ba540" class="l5d22" points="810,170 870,170 870,230 810,230"/>
<polygon id="0x24ba600" class="l5d22" points="810,250 870,250 870,310 810,310"/>
<polygon id="0x24ba6c0" class="l5d22" points="810,330 870,330 870,390 810,390"/>
<polygon id="0x24ba780" class="l5d22" points="810,410 870,410 870,470 810,470"/>
<polygon id="0x24ba840" class="l5d22" points="810,490 870,490 870,550 810,550"/>
<polygon id="0x24ba900" class="l5d22" points="810,570 870,570 870,630 810,630"/>
<polygon id="0x24ba9c0" class="l5d22" points="810,650 870,650 870,710 810,710"/>
<polygon id="0x24baa80" class="l5d22" points="810,730 870,730 870,790 810,790"/>
<polygon id="0x24bab40" class="l5d22" points="810,810 870,810 870,870 810,870"/>
<polygon id="0x24bac00" class="l5d22" points="810,890 870,890 870,950 810,950"/>
<polygon id="0x24bacc0" class="l5d22" points="810,970 870,970 870,1030 810,1030"/>
<polygon id="0x24bad80" class="l5d22" points="810,1050 870,1050 870,1110 810,1110"/>
<polygon id="0x24bae40" class="l5d22" points="810,1130 870,1130 870,1190 810,1190"/>
<polygon id="0x24baf00" class="l5d22" points="890,10 950,10 950,70 890,70"/>
<polygon id="0x24bafc0" class="l5d22" points="890,90 950,90 950,150 890,150"/>
<polygon id="0x24bb080" class="l5d22" points="890,170 950,170 950,230 890,230"/>
<polygon id="0x24bb140" class="l5d22" points="890,250 950,250 950,310 890,310"/>
<polygon id="0x24bb200" class="l5d22" points="890,330 950,330 950,390 890,390"/>
<polygon id="0x24bb2c0" class="l5d22" points="890,410 950,410 950,470 890,470"/>
<polygon id="0x24bb380" class="l5d22" points="890,490 950,490 950,550 890,550"/>
<polygon id="0x24bb440" class="l5d22" points="890,570 950,570 950,630 890,630"/>
<polygon id="0x24bb500" class="l5d22" points="890,650 950,650 950,710 890,710"/>
<polygon id="0x24bb5c0" class="l5d22" points="890,730 950,730 950,790 890,790"/>
<polygon id="0x24bb680" class="l5d22" points="890,810 950,810 950,870 890,870"/>
<polygon id="0x24bb740" class="l5d22" points="890,890 950,890 950,950 890,950"/>
<polygon id="0x24bb800" class="l5d22" points="890,970 950,970 950,1030 890,1030"/>
<polygon id="0x24bb8c0" class="l5d22" points="890,1050 950,1050 950,1110 890,1110"/>
<polygon id="0x24bb980" class="l5d22" points="890,1130 950,1130 950,1190 890,1190"/>
<polygon id="0x24bba40" class="l5d22" points="970,10 1030,10 1030,70 970,70"/>
<polygon id="0x24bbb00" class="l5d22" points="970,90 1030,90 1030,150 970,150"/>
<polygon id="0x24bbbc0" class="l5d22" points="970,170 1030,170 1030,230 970,230"/>
<polygon id="0x24bbc80" class="l5d22" points="970,250 1030,250 1030,310 970,310"/>
<polygon id="0x24bbd40" class="l5d22" points="970,330 1030,330 1030,390 970,390"/>
<polygon id="0x24bbe00" class="l5d22" points="970,410 1030,410 1030,470 970,470"/>
<polygon id="0x24bbec0" class="l5d22" points="970,490 1030,490 1030,550 970,550"/>
<polygon id="0x24bbf80" class="l5d22" points="970,570 1030,570 1030,630 970,630"/>
<polygon id="0x24bc040" class="l5d22" points="970,650 1030,650 1030,710 970,710"/>
<polygon id="0x24bc100" class="l5d22" points="970,730 1030,730 1030,790 970,790"/>
<polygon id="0x24bc1c0" class="l5d22" points="970,810 1030,810 1030,870 970,870"/>
<polygon id="0x24bc280" class="l5d22" points="970,890 1030,890 1030,950 970,950"/>
<polygon id="0x24bc340" class="l5d22" points="970,970 1030,970 1030,1030 970,1030"/>
<polygon id="0x24bc400" class="l5d22" points="970,1050 1030,1050 1030,1110 970,1110"/>
<polygon id="0x24bc4c0" class="l5d22" points="970,1130 1030,1130 1030,1190 970,1190"/>
<polygon id="0x24bc580" class="l5d22" points="1050,10 1110,10 1110,70 1050,70"/>
<polygon id="0x24bc640" class="l5d22" points="1050,90 1110,90 1110,150 1050,150"/>
<polygon id="0x24bc700" class="l5d22" points="1050,170 1110,170 1110,230 1050,230"/>
<polygon id="0x24bc7c0" class="l5d22" points="1050,250 1110,250 1110,310 1050,310"/>
<polygon id="0x24bc880" class="l5d22" points="1050,330 1110,330 1110,390 1050,390"/>
<polygon id="0x24bc940" class="l5d22" points="1050,410 1110,410 1110,470 1050,470"/>
<polygon id="0x24bca00" class="l5d22" points="1050,490 1110,490 1110,550 1050,550"/>
<polygon id="0x24bcac0" class="l5d22" points="1050,570 1110,570 1110,630 1050,630"/>
<polygon id="0x24bcb80" class="l5d22" points="1050,650 1110,650 1110,710 1050,710"/>
<polygon id="0x24bcc40" class="l5d22" points="1050,730 1110,730 1110,790 1050,790"/>
<polygon id="0x24bcd00" class="l5d22" points="1050,810 1110,810 1110,870 1050,870"/>
<polygon id="0x24bcdc0" class="l5d22" points="1050,890 1110,890 1110,950 1050,950"/>
<polygon id="0x24bce80" class="l5d22" points="1050,970 1110,970 1110,1030 1050,1030"/>
<polygon id="0x24bcf40" class="l5d22" points="1050,1050 1110,1050 1110,1110 1050,1110"/>
<polygon id="0x24bd000" class="l5d22" points="1050,1130 1110,1130 1110,1190 1050,1190"/>
<polygon id="0x24bd0c0" class="l5d22" points="1130,10 1190,10 1190,70 1130,70"/>
<polygon id="0x24bd180" class="l5d22" points="1130,90 1190,90 1190,150 1130,150"/>
<polygon id="0x24bd240" class="l5d22" points="1130,170 1190,170 1190,230 1130,230"/>
<polygon id="0x24bd300" class="l5d22" points="1130,250 1190,250 1190,310 1130,310"/>
<polygon id="0x24bd3c0" class="l5d22" points="1130,330 1190,330 1190,390 1130,390"/>
<polygon id="0x24bd480" class="l5d22" points="1130,410 1190,410 1190,470 1130,470"/>
<polygon id="0x24bd540" class="l5d22" points="1130,490 1190,490 1190,550 1130,550"/>
<polygon id="0x24bd600" class="l5d22" points="1130,570 1190,570 1190,630 1130,630"/>
<polygon id="0x24bd6c0" class="l5d22" points="1130,650 1190,650 1190,710 1130,710"/>
<polygon id="0x24bd780" class="l5d22" points="1130,730 1190,730 1190,790 1130,790"/>
<polygon id="0x24bd840" class="l5d22" points="1130,810 1190,810 1190,870 1130,870"/>
<polygon id="0x24bd900" class="l5d22" points="1130,890 1190,890 1190,950 1130,950"/>
<polygon id="0x24bd9c0" class="l5d22" points="1130,970 1190,970 1190,1030 1130,1030"/>
<polygon id="0x24bda80" class="l5d22" points="1130,1050 1190,1050 1190,1110 1130,1110"/>
<polygon id="0x24bdb40" class="l5d22" points="1130,1130 1190,1130 1190,1190 1130,1190"/>
<polygon id="0x24bdc00" class="l5d22" points="1210,10 1270,10 1270,70 1210,70"/>
<polygon id="0x24bdcc0" class="l5d22" points="1210,90 1270,90 1270,150 1210,150"/>
<polygon id="0x24bdd80" class="l5d22" points="1210,170 1270,170 1270,230 1210,230"/>
<polygon id="0x24bde40" class="l5d22" points="1210,250 1270,250 1270,310 1210,310"/>
<polygon id="0x24bdf00" class="l5d22" points="1210,330 1270,330 1270,390 1210,390"/>
<polygon id="0x24bdfc0" class="l5d22" points="1210,410 1270,410 1270,470 1210,470"/>
<polygon id="0x24be080" class="l5d22" points="1210,490 1270,490 1270,550 1210,550"/>
<polygon id="0x24be140" class="l5d22" points="1210,570 1270,570 1270,630 1210,630"/>
<polygon id="0x24be200" class="l5d22" points="1210,650 1270,650 1270,710 1210,710"/>
<polygon id="0x24be2c0" class="l5d22" points="1210,730 1270,730 1270,790 1210,790"/>
<polygon id="0x24be380" class="l5d22" points="1210,810 1270,810 1270,870 1210,870"/>
<polygon id="0x24be440" class="l5d22" points="1210,890 1270,890 1270,950 1210,950"/>
<polygon id="0x24be500" class="l5d22" points="1210,970 1270,970 1270,1030 1210,1030"/>
<polygon id="0x24be5c0" class="l5d22" points="1210,1050 1270,1050 1270,1110 1210,1110"/>
<polygon id="0x24be680" class="l5d22" points="1210,1130 1270,1130 1270,1190 1210,1190"/>
<polygon id="0x24be740" class="l5d22" points="1290,10 1350,10 1350,70 1290,70"/>
<polygon id="0x24be800" class="l5d22" points="1290,90 1350,90 1350,150 1290,150"/>
<polygon id="0x24be8c0" class="l5d22" points="1290,170 1350,170 1350,230 1290,230"/>
<polygon id="0x24be980" class="l5d22" points="1290,250 1350,250 1350,310 1290,310"/>
<polygon id="0x24bea40" class="l5d22" points="1290,330 1350,330 1350,390 1290,390"/>
<polygon id="0x24beb00" class="l5d22" points="1290,410 1350,410 1350,470 1290,470"/>
<polygon id="0x24bebc0" class="l5d22" points="1290,490 1350,490 1350,550 1290,550"/>
<polygon id="0x24bec80" class="l5d22" points="1290,570 1350,570 1350,630 1290,630"/>
<polygon id="0x24bed40" class="l5d22" points="1290,650 1350,650 1350,710 1290,710"/>
<polygon id="0x24bee00" class="l5d22" points="1290,730 1350,730 1350,790 1290,790"/>
<polygon id="0x24beec0" class="l5d22" points="1290,810 1350,810 1350,870 1290,870"/>
<polygon id="0x24bef80" class="l5d22" points="1290,890 1350,890 1350,950 1290,950"/>
<polygon id="0x24bf040" class="l5d22" points="1290,970 1350,970 1350,1030 1290,1030"/>
<polygon id="0x24bf100" class="l5d22" points="1290,1050 1350,1050 1350,1110 1290,1110"/>
<polygon id="0x24bf1c0" class="l5d22" points="1290,1130 1350,1130 1350,1190 1290,1190"/>
<polygon id="0x24bf280" class="l5d22" points="1370,10 1430,10 1430,70 1370,70"/>
<polygon id="0x24bf340" class="l5d22" points="1370,90 1430,90 1430,150 1370,150"/>
<polygon id="0x24bf400" class="l5d22" points="1370,170 1430,170 1430,230 1370,230"/>
<polygon id="0x24bf4c0" class="l5d22" points="1370,250 1430,250 1430,310 1370,310"/>
<polygon id="0x24bf580" class="l5d22" points="1370,330 1430,330 1430,390 1370,390"/>
<polygon id="0x24bf640" class="l5d22" points="1370,410 1430,410 1430,470 1370,470"/>
<polygon id="0x24bf700" class="l5d22" points="1370,490 1430,490 1430,550 1370,550"/>
<polygon id="0x24bf7c0" class="l5d22" points="1370,570 1430,570 1430,630 1370,630"/>
<polygon id="0x24bf880" class="l5d22" points="1370,650 1430,650 1430,710 1370,710"/>
<polygon id="0x24bf940" class="l5d22" points="1370,730 1430,730 1430,790 1370,790"/>
<polygon id="0x24bfa00" class="l5d22" points="1370,810 1430,810 1430,870 1370,870"/>
<polygon id="0x24bfac0" class="l5d22" points="1370,890 1430,890 1430,950 1370,950"/>
<polygon id="0x24bfb80" class="l5d22" points="1370,970 1430,970 1430,1030 1370,1030"/>
<polygon id="0x24bfc40" class="l5d22" points="1370,1050 1430,1050 1430,1110 1370,1110"/>
<polygon id="0x24bfd00" class="l5d22" points="1370,1130 1430,1130 1430,1190 1370,1190"/>
<polygon id="0x24bfdc0" class="l5d22" points="1450,10 1510,10 1510,70 1450,70"/>
<polygon id="0x24bfe80" class="l5d22" points="1450,90 1510,90 1510,150 1450,150"/>
<polygon id="0x24bff40" class="l5d22" points="1450,170 1510,170 1510,230 1450,230"/>
<polygon id="0x24c0000" class="l5d22" points="1450,250 1510,250 1510,310 1450,310"/>
<polygon id="0x24c00c0" class="l5d22" points="1450,330 1510,330 1510,390 1450,390"/>
<polygon id="0x24c0180" class="l5d22" points="1450,410 1510,410 1510,470 1450,470"/>
<polygon id="0x24c0240" class="l5d22" points="1450,490 1510,490 1510,550 1450,550"/>
<polygon id="0x24c0300" class="l5d22" points="1450,570 1510,570 1510,630 1450,630"/>
<polygon id="0x24c03c0" class="l5d22" points="1450,650 1510,650 1510,710 1450,710"/>
<polygon id="0x24c0480" class="l5d22" points="1450,730 1510,730 1510,790 1450,790"/>
<polygon id="0x24c0540" class="l5d22" points="1450,810 1510,810 1510,870 1450,870"/>
<polygon id="0x24c0600" class="l5d22" points="1450,890 1510,890 1510,950 1450,950"/>
<polygon id="0x24c06c0" class="l5d22" points="1450,970 1510,970 1510,1030 1450,1030"/>
<polygon id="0x24c0780" class="l5d22" points="1450,1050 1510,1050 1510,1110 1450,1110"/>
<polygon id="0x24c0840" class="l5d22" points="1450,1130 1510,1130 1510,1190 1450,1190"/>
<polygon id="0x24c0900" class="l5d22" points="1530,10 1590,10 1590,70 1530,70"/>
<polygon id="0x24c09c0" class="l5d22" points="1530,90 1590,90 1590,150 1530,150"/>
<polygon id="0x24c0a80" class="l5d22" points="1530,170 1590,170 1590,230 1530,230"/>
<polygon id="0x24c0b40" class="l5d22" points="1530,250 1590,250 1590,310 1530,310"/>
<polygon id="0x24c0c00" class="l5d22" points="1530,330 1590,330 1590,390 1530,390"/>
<polygon id="0x24c0cc0" class="l5d22" points="1530,410 1590,410 1590,470 1530,470"/>
<polygon id="0x24c0d80" class="l5d22" points="1530,490 1590,490 1590,550 1530,550"/>
<polygon id="0x24c0e40" class="l5d22" points="1530,570 1590,570 1590,630 1530,630"/>
<polygon id="0x24c0f00" class="l5d22" points="1530,650 1590,650 1590,710 1530,710"/>
<polygon id="0x24c0fc0" class="l5d22" points="1530,730 1590,730 1590,790 1530,790"/>
<polygon id="0x24c1080" class="l5d22" points="1530,810 1590,810 1590,870 1530,870"/>
<polygon id="0x24c1140" class="l5d22" points="1530,890 1590,890 1590,950 1530,950"/>
<polygon id="0x24c1200" class="l5d22" points="1530,970 1590,970 1590,1030 1530,1030"/>
<polygon id="0x24c12c0" class="l5d22" points="1530,1050 1590,1050 1590,1110 1530,1110"/>
<polygon id="0x24c1380" class="l5d22" points="1530,1130 1590,1130 1590,1190 1530,1190"/>
</g>
</svg>