<?xml version="1.0" encoding="UTF-8"?>
<svg xmlns="http://www.w3.org/2000/svg" xmlns:xlink="http://www.w3.org/1999/xlink" width="1496" height="1336" viewBox="-68 -1268 1496 1336">
<defs>
<style type="text/css">
.l5d0 {stroke: #008856; fill: #008856; fill-opacity: 0.5;}
.l1d0 {stroke: #A1CAF1; fill: #A1CAF1; fill-opacity: 0.5;}
.l126d0 {stroke: #E68FAC; fill: #E68FAC; fill-opacity: 0.5;}
.l189d4 {stroke: #A1CAF1; fill: #A1CAF1; fill-opacity: 0.5;}
</style>
</defs>
<rect x="-68" y="-1268" width="1496" height="1336" fill="#222222" stroke="none"/>
<g id="my_logo" transform="scale(1 -1)">
<polygon id="0x1c2cec0" class="l126d0" points="80,20 240,20 240,60 80,60"/>
<polygon id="0x1c22d90" class="l126d0" points="400,20 800,20 800,60 400,60"/>
<polygon id="0x1c86a90" class="l126d0" points="880,20 960,20 960,60 880,60"/>
<polygon id="0x1cf2850" class="l126d0" points="1040,20 1200,20 1200,60 1040,60"/>
<polygon id="0x1d37f80" class="l126d0" points="1280,20 1360,20 1360,60 1280,60"/>
<polygon id="0x1de21f0" class="l126d0" points="80,100 240,100 240,140 80,140"/>
<polygon id="0x1be4d50" class="l126d0" points="320,100 560,100 560,140 320,140"/>
<polygon id="0x1d8d6f0" class="l126d0" points="720,100 880,100 880,140 720,140"/>
<polygon id="0x1dd4760" class="l126d0" points="1040,100 1120,100 1120,140 1040,140"/>
<polygon id="0x1de59b0" class="l126d0" points="1200,100 1360,100 1360,140 1200,140"/>
<polygon id="0x1e0be10" class="l126d0" points="0,180 160,180 160,220 0,220"/>
<polygon id="0x1db6790" class="l126d0" points="240,180 400,180 400,220 240,220"/>
<polygon id="0x1da7680" class="l126d0" points="560,180 640,180 640,220 560,220"/>
<polygon id="0x1dd1b30" class="l126d0" points="720,180 800,180 800,220 720,220"/>
<polygon id="0x1dedca0" class="l126d0" points="880,180 1040,180 1040,220 880,220"/>
<polygon id="0x1d4f290" class="l126d0" points="1200,180 1360,180 1360,220 1200,220"/>
<polygon id="0x1d5fbf0" class="l126d0" points="0,260 80,260 80,300 0,300"/>
<polygon id="0x1da1c20" class="l126d0" points="320,260 480,260 480,300 320,300"/>
<polygon id="0x1db2340" class="l126d0" points="640,260 1040,260 1040,300 640,300"/>
<polygon id="0x1da5a10" class="l126d0" points="1120,260 1200,260 1200,300 1120,300"/>
<polygon id="0x1b40e60" class="l126d0" points="1280,260 1360,260 1360,300 1280,300"/>
<polygon id="0x1bde280" class="l126d0" points="160,340 400,340 400,380 160,380"/>
<polygon id="0x1b6eac0" class="l126d0" points="480,340 720,340 720,380 480,380"/>
<polygon id="0x1d117c0" class="l126d0" points="880,340 960,340 960,380 880,380"/>
<polygon id="0x1d3f0b0" class="l126d0" points="1280,340 1360,340 1360,380 1280,380"/>
<polygon id="0x1d710b0" class="l126d0" points="160,420 240,420 240,460 160,460"/>
<polygon id="0x1bbcd60" class="l126d0" points="400,420 480,420 480,460 400,460"/>
<polygon id="0x1baaaa0" class="l126d0" points="720,420 800,420 800,460 720,460"/>
<polygon id="0x1c22970" class="l126d0" points="1120,420 1280,420 1280,460 1120,460"/>
<polygon id="0x1c46690" class="l126d0" points="0,500 80,500 80,540 0,540"/>
<polygon id="0x1c71a10" class="l126d0" points="160,500 240,500 240,540 160,540"/>
<polygon id="0x1cefea0" class="l126d0" points="560,500 720,500 720,540 560,540"/>
<polygon id="0x1d04560" class="l126d0" points="880,500 960,500 960,540 880,540"/>
<polygon id="0x1e04660" class="l126d0" points="1040,500 1120,500 1120,540 1040,540"/>
<polygon id="0x1e04720" class="l126d0" points="1200,500 1280,500 1280,540 1200,540"/>
<polygon id="0x1e047e0" class="l126d0" points="0,580 160,580 160,620 0,620"/>
<polygon id="0x1e048a0" class="l126d0" points="240,580 320,580 320,620 240,620"/>
<polygon id="0x1e04960" class="l126d0" points="400,580 480,580 480,620 400,620"/>
<polygon id="0x1e04a20" class="l126d0" points="560,580 720,580 720,620 560,620"/>
<polygon id="0x1e04ae0" class="l126d0" points="960,580 1280,580 1280,620 960,620"/>
<polygon id="0x1e04ba0" class="l126d0" points="320,660 400,660 400,700 320,700"/>
<polygon id="0x1e04c60" class="l126d0" points="800,660 1040,660 1040,700 800,700"/>
<polygon id="0x1e04d20" class="l126d0" points="1120,660 1200,660 1200,700 1120,700"/>
<polygon id="0x1e04de0" class="l126d0" points="1280,660 1360,660 1360,700 1280,700"/>
<polygon id="0x1e04ea0" class="l126d0" points="80,740 160,740 160,780 80,780"/>
<polygon id="0x1e04f60" class="l126d0" points="240,740 320,740 320,780 240,780"/>
<polygon id="0x1e05020" class="l126d0" points="640,740 1040,740 1040,780 640,780"/>
<polygon id="0x1e050e0" class="l126d0" points="1120,740 1280,740 1280,780 1120,780"/>
<polygon id="0x1e051a0" class="l126d0" points="0,820 80,820 80,860 0,860"/>
<polygon id="0x1e05260" class="l126d0" points="240,820 320,820 320,860 240,860"/>
<polygon id="0x1e05320" class="l126d0" points="480,820 560,820 560,860 480,860"/>
<polygon id="0x1e053e0" class="l126d0" points="640,820 720,820 720,860 640,860"/>
<polygon id="0x1e054a0" class="l126d0" points="1280,820 1360,820 1360,860 1280,860"/>
<polygon id="0x1e05560" class="l126d0" points="0,900 80,900 80,940 0,940"/>
<polygon id="0x1e05620" class="l126d0" points="320,900 400,900 400,940 320,940"/>
<polygon id="0x1e056e0" class="l126d0" points="480,900 560,900 560,940 480,940"/>
<polygon id="0x1e057a0" class="l126d0" points="720,900 880,900 880,940 720,940"/>
<polygon id="0x1e05860" class="l126d0" points="960,900 1040,900 1040,940 960,940"/>
<polygon id="0x1e05920" class="l126d0" points="1120,900 1280,900 1280,940 1120,940"/>
<polygon id="0x1e059e0" class="l126d0" points="0,980 80,980 80,1020 0,1020"/>
<polygon id="0x1e05aa0" class="l126d0" points="160,980 320,980 320,1020 160,1020"/>
<polygon id="0x1e05b60" class="l126d0" points="480,980 720,980 720,1020 480,1020"/>
<polygon id="0x1e05c20" class="l126d0" points="800,980 960,980 960,1020 800,1020"/>
<polygon id="0x1e05ce0" class="l126d0" points="1040,980 1200,980 1200,1020 1040,1020"/>
<polygon id="0x1e05da0" class="l126d0" points="0,1060 80,1060 80,1100 0,1100"/>
<polygon id="0x1d2d4d0" class="l126d0" points="240,1060 320,1060 320,1100 240,1100"/>
<polygon id="0x1d795e0" class="l126d0" points="400,1060 480,1060 480,1100 400,1100"/>
<polygon id="0x1d5ecf0" class="l126d0" points="880,1060 1040,1060 1040,1100 880,1100"/>
<polygon id="0x1d9fe60" class="l126d0" points="1120,1060 1360,1060 1360,1100 1120,1100"/>
<polygon id="0x1de6b00" class="l126d0" points="0,1140 80,1140 80,1180 0,1180"/>
<polygon id="0x1b8a9d0" class="l126d0" points="160,1140 240,1140 240,1180 160,1180"/>
<polygon id="0x1bb5850" class="l126d0" points="480,1140 720,1140 720,1180 480,1180"/>
<polygon id="0x1c2b6a0" class="l126d0" points="960,1140 1120,1140 1120,1180 960,1180"/>
<polygon id="0x1c1f830" class="l126d0" points="20,0 60,0 60,160 20,160"/>
<polygon id="0x1ce7330" class="l126d0" points="20,320 60,320 60,480 20,480"/>
<polygon id="0x1db5410" class="l126d0" points="20,640 60,640 60,800 20,800"/>
<polygon id="0x1d6a2a0" class="l126d0" points="100,240 140,240 140,560 100,560"/>
<polygon id="0x1c30750" class="l126d0" points="100,640 140,640 140,720 100,720"/>
<polygon id="0x1d301a0" class="l126d0" points="100,800 140,800 140,1200 100,1200"/>
<polygon id="0x1d32c10" class="l126d0" points="180,160 220,160 220,320 180,320"/>
<polygon id="0x1d61320" class="l126d0" points="180,560 220,560 220,960 180,960"/>
<polygon id="0x1ddcf90" class="l126d0" points="180,1040 220,1040 220,1120 180,1120"/>
<polygon id="0x1cddd60" class="l126d0" points="260,0 300,0 300,160 260,160"/>
<polygon id="0x1d4a130" class="l126d0" points="260,240 300,240 300,320 260,320"/>
<polygon id="0x1d4a1a0" class="l126d0" points="260,400 300,400 300,560 260,560"/>
<polygon id="0x1d644a0" class="l126d0" points="260,640 300,640 300,720 260,720"/>
<polygon id="0x1db1960" class="l126d0" points="260,880 300,880 300,960 260,960"/>
<polygon id="0x1da7cd0" class="l126d0" points="260,1120 300,1120 300,1200 260,1200"/>
<polygon id="0x1da7d40" class="l126d0" points="340,0 380,0 380,80 340,80"/>
<polygon id="0x1de6260" class="l126d0" points="340,400 380,400 380,640 340,640"/>
<polygon id="0x1bb0e20" class="l126d0" points="340,720 380,720 380,880 340,880"/>
<polygon id="0x1bcbc80" class="l126d0" points="340,960 380,960 380,1200 340,1200"/>
<polygon id="0x1bcbcf0" class="l126d0" points="420,160 460,160 460,240 420,240"/>
<polygon id="0x1be6a70" class="l126d0" points="420,320 460,320 460,400 420,400"/>
<polygon id="0x1c0fe50" class="l126d0" points="420,480 460,480 460,560 420,560"/>
<polygon id="0x1c33d30" class="l126d0" points="420,640 460,640 460,1040 420,1040"/>
<polygon id="0x1c774d0" class="l126d0" points="420,1120 460,1120 460,1200 420,1200"/>
<polygon id="0x1c686c0" class="l126d0" points="500,160 540,160 540,320 500,320"/>
<polygon id="0x1c4f0a0" class="l126d0" points="500,400 540,400 540,800 500,800"/>
<polygon id="0x1d1fa80" class="l126d0" points="500,1040 540,1040 540,1120 500,1120"/>
<polygon id="0x1d92850" class="l126d0" points="580,80 620,80 620,160 580,160"/>
<polygon id="0x1d51bc0" class="l126d0" points="580,240 620,240 620,320 580,320"/>
<polygon id="0x1dbfc40" class="l126d0" points="580,400 620,400 620,480 580,480"/>
<polygon id="0x1dd5fc0" class="l126d0" points="580,640 620,640 620,960 580,960"/>
<polygon id="0x1b97910" class="l126d0" points="580,1040 620,1040 620,1120 580,1120"/>
<polygon id="0x1b979d0" class="l126d0" points="660,80 700,80 700,240 660,240"/>
<polygon id="0x1bb87c0" class="l126d0" points="660,400 700,400 700,480 660,480"/>
<polygon id="0x1bb8880" class="l126d0" points="660,640 700,640 700,720 660,720"/>
<polygon id="0x1bd0ab0" class="l126d0" points="660,880 700,880 700,960 660,960"/>
<polygon id="0x1bd0b70" class="l126d0" points="660,1040 700,1040 700,1120 660,1120"/>
<polygon id="0x1c6de50" class="l126d0" points="740,320 780,320 780,400 740,400"/>
<polygon id="0x1c6df10" class="l126d0" points="740,480 780,480 780,720 740,720"/>
<polygon id="0x1c66560" class="l126d0" points="740,800 780,800 780,880 740,880"/>
<polygon id="0x1c66620" class="l126d0" points="740,960 780,960 780,1200 740,1200"/>
<polygon id="0x1c75260" class="l126d0" points="820,0 860,0 860,80 820,80"/>
<polygon id="0x1c75320" class="l126d0" points="820,160 860,160 860,240 820,240"/>
<polygon id="0x1ce0830" class="l126d0" points="820,320 860,320 860,640 820,640"/>
<polygon id="0x1ce08f0" class="l126d0" points="820,800 860,800 860,880 820,880"/>
<polygon id="0x1cde2b0" class="l126d0" points="820,1040 860,1040 860,1200 820,1200"/>
<polygon id="0x1cde370" class="l126d0" points="900,80 940,80 940,160 900,160"/>
<polygon id="0x1c295f0" class="l126d0" points="900,400 940,400 940,480 900,480"/>
<polygon id="0x1c296b0" class="l126d0" points="900,560 940,560 940,640 900,640"/>
<polygon id="0x1d2ed30" class="l126d0" points="900,800 940,800 940,960 900,960"/>
<polygon id="0x1d2edf0" class="l126d0" points="900,1120 940,1120 940,1200 900,1200"/>
<polygon id="0x1ae0d90" class="l126d0" points="980,0 1020,0 1020,160 980,160"/>
<polygon id="0x1ae0e50" class="l126d0" points="980,320 1020,320 1020,560 980,560"/>
<polygon id="0x1d732d0" class="l126d0" points="980,800 1020,800 1020,880 980,880"/>
<polygon id="0x1d77190" class="l126d0" points="980,960 1020,960 1020,1040 980,1040"/>
<polygon id="0x1d77250" class="l126d0" points="1060,160 1100,160 1100,480 1060,480"/>
<polygon id="0x1b821c0" class="l126d0" points="1060,640 1100,640 1100,960 1060,960"/>
<polygon id="0x1ba2c80" class="l126d0" points="1060,1040 1100,1040 1100,1120 1060,1120"/>
<polygon id="0x1ba2cf0" class="l126d0" points="1140,80 1180,80 1180,240 1140,240"/>
<polygon id="0x1bad010" class="l126d0" points="1140,320 1180,320 1180,400 1140,400"/>
<polygon id="0x1bad0d0" class="l126d0" points="1140,480 1180,480 1180,560 1140,560"/>
<polygon id="0x1bccef0" class="l126d0" points="1140,800 1180,800 1180,880 1140,880"/>
<polygon id="0x1c6d5f0" class="l126d0" points="1140,1120 1180,1120 1180,1200 1140,1200"/>
<polygon id="0x1c6d660" class="l126d0" points="1220,0 1260,0 1260,80 1220,80"/>
<polygon id="0x1c747a0" class="l126d0" points="1220,240 1260,240 1260,400 1220,400"/>
<polygon id="0x1c74860" class="l126d0" points="1220,640 1260,640 1260,720 1220,720"/>
<polygon id="0x1ce9390" class="l126d0" points="1220,800 1260,800 1260,880 1220,880"/>
<polygon id="0x1cfeca0" class="l126d0" points="1220,960 1260,960 1260,1040 1220,1040"/>
<polygon id="0x1cfed10" class="l126d0" points="1220,1120 1260,1120 1260,1200 1220,1200"/>
<polygon id="0x1db0530" class="l126d0" points="1300,400 1340,400 1340,640 1300,640"/>
<polygon id="0x1db05f0" class="l126d0" points="1300,720 1340,720 1340,800 1300,800"/>
<polygon id="0x1da8c00" class="l126d0" points="1300,880 1340,880 1340,1040 1300,1040"/>
<polygon id="0x1be1e50" class="l126d0" points="1300,1120 1340,1120 1340,1200 1300,1200"/>
<polygon id="0x1be1ec0" class="l189d4" points="0,0 300,0 300,300 0,300"/>
<polygon id="0x1b93610" class="l1d0" points="20,20 60,20 60,60 20,60"/>
<polygon id="0x1b936d0" class="l1d0" points="20,100 60,100 60,140 20,140"/>
<polygon id="0x1c77d80" class="l1d0" points="20,180 60,180 60,220 20,220"/>
<polygon id="0x1c70a40" class="l1d0" points="20,260 60,260 60,300 20,300"/>
<polygon id="0x1c70b00" class="l1d0" points="20,340 60,340 60,380 20,380"/>
<polygon id="0x1cde8c0" class="l1d0" points="20,420 60,420 60,460 20,460"/>
<polygon id="0x1cde980" class="l1d0" points="20,500 60,500 60,540 20,540"/>
<polygon id="0x1cecee0" class="l1d0" points="20,580 60,580 60,620 20,620"/>
<polygon id="0x1d94bf0" class="l1d0" points="20,660 60,660 60,700 20,700"/>
<polygon id="0x1d94cb0" class="l1d0" points="20,740 60,740 60,780 20,780"/>
<polygon id="0x1d47970" class="l1d0" points="20,820 60,820 60,860 20,860"/>
<polygon id="0x1d47a30" class="l1d0" points="20,900 60,900 60,940 20,940"/>
<polygon id="0x1bdb8e0" class="l1d0" points="20,980 60,980 60,1020 20,1020"/>
<polygon id="0x1bdb9a0" class="l1d0" points="20,1060 60,1060 60,1100 20,1100"/>
<polygon id="0x1c285d0" class="l1d0" points="20,1140 60,1140 60,1180 20,1180"/>
<polygon id="0x1c28690" class="l1d0" points="100,20 140,20 140,60 100,60"/>
<polygon id="0x1c4dda0" class="l1d0" points="100,100 140,100 140,140 100,140"/>
<polygon id="0x1c4de60" class="l1d0" points="100,180 140,180 140,220 100,220"/>
<polygon id="0x1cbc280" class="l1d0" points="100,260 140,260 140,300 100,300"/>
<polygon id="0x1cbc340" class="l1d0" points="100,340 140,340 140,380 100,380"/>
<polygon id="0x1dadaf0" class="l1d0" points="100,420 140,420 140,460 100,460"/>
<polygon id="0x1dadbb0" class="l1d0" points="100,500 140,500 140,540 100,540"/>
<polygon id="0x1ddd570" class="l1d0" points="100,580 140,580 140,620 100,620"/>
<polygon id="0x1ddd630" class="l1d0" points="100,660 140,660 140,700 100,700"/>
<polygon id="0x1de3430" class="l1d0" points="100,740 140,740 140,780 100,780"/>
<polygon id="0x1de34f0" class="l1d0" points="100,820 140,820 140,860 100,860"/>
<polygon id="0x1be0eb0" class="l1d0" points="100,900 140,900 140,940 100,940"/>
<polygon id="0x1be0f70" class="l1d0" points="100,980 140,980 140,1020 100,1020"/>
<polygon id="0x1bdd880" class="l1d0" points="100,1060 140,1060 140,1100 100,1100"/>
<polygon id="0x1bdd940" class="l1d0" points="100,1140 140,1140 140,1180 100,1180"/>
<polygon id="0x1c20210" class="l1d0" points="180,20 220,20 220,60 180,60"/>
<polygon id="0x1c202d0" class="l1d0" points="180,100 220,100 220,140 180,140"/>
<polygon id="0x1c1a050" class="l1d0" points="180,180 220,180 220,220 180,220"/>
<polygon id="0x1c1a110" class="l1d0" points="180,260 220,260 220,300 180,300"/>
<polygon id="0x1d0d880" class="l1d0" points="180,340 220,340 220,380 180,380"/>
<polygon id="0x1d0d940" class="l1d0" points="180,420 220,420 220,460 180,460"/>
<polygon id="0x1d835d0" class="l1d0" points="180,500 220,500 220,540 180,540"/>
<polygon id="0x1d83690" class="l1d0" points="180,580 220,580 220,620 180,620"/>
<polygon id="0x1bd9a40" class="l1d0" points="180,660 220,660 220,700 180,700"/>
<polygon id="0x1bd9b00" class="l1d0" points="180,740 220,740 220,780 180,780"/>
<polygon id="0x1c39180" class="l1d0" points="180,820 220,820 220,860 180,860"/>
<polygon id="0x1c39240" class="l1d0" points="180,900 220,900 220,940 180,940"/>
<polygon id="0x1c30390" class="l1d0" points="180,980 220,980 220,1020 180,1020"/>
<polygon id="0x1c30450" class="l1d0" points="180,1060 220,1060 220,1100 180,1100"/>
<polygon id="0x1dbe630" class="l1d0" points="180,1140 220,1140 220,1180 180,1180"/>
<polygon id="0x1dbe6f0" class="l1d0" points="260,20 300,20 300,60 260,60"/>
<polygon id="0x1dd3df0" class="l1d0" points="260,100 300,100 300,140 260,140"/>
<polygon id="0x1dd3eb0" class="l1d0" points="260,180 300,180 300,220 260,220"/>
<polygon id="0x1b405e0" class="l1d0" points="260,260 300,260 300,300 260,300"/>
<polygon id="0x1b406a0" class="l1d0" points="260,340 300,340 300,380 260,380"/>
<polygon id="0x1cb6a40" class="l1d0" points="260,420 300,420 300,460 260,460"/>
<polygon id="0x1cb6b00" class="l1d0" points="260,500 300,500 300,540 260,540"/>
<polygon id="0x1d286d0" class="l1d0" points="260,580 300,580 300,620 260,620"/>
<polygon id="0x1d28790" class="l1d0" points="260,660 300,660 300,700 260,700"/>
<polygon id="0x1aa7170" class="l1d0" points="260,740 300,740 300,780 260,780"/>
<polygon id="0x1aa7230" class="l1d0" points="260,820 300,820 300,860 260,860"/>
<polygon id="0x1bd6180" class="l1d0" points="260,900 300,900 300,940 260,940"/>
<polygon id="0x1bd6240" class="l1d0" points="260,980 300,980 300,1020 260,1020"/>
<polygon id="0x1c64590" class="l1d0" points="260,1060 300,1060 300,1100 260,1100"/>
<polygon id="0x1c64650" class="l1d0" points="260,1140 300,1140 300,1180 260,1180"/>
<polygon id="0x1c7b9c0" class="l1d0" points="340,20 380,20 380,60 340,60"/>
<polygon id="0x1c7ba80" class="l1d0" points="340,100 380,100 380,140 340,140"/>
<polygon id="0x1cbe9d0" class="l1d0" points="340,180 380,180 380,220 340,220"/>
<polygon id="0x1cbea90" class="l1d0" points="340,260 380,260 380,300 340,300"/>
<polygon id="0x1d18ba0" class="l1d0" points="340,340 380,340 380,380 340,380"/>
<polygon id="0x1d18c60" class="l1d0" points="340,420 380,420 380,460 340,460"/>
<polygon id="0x1dc17d0" class="l1d0" points="340,500 380,500 380,540 340,540"/>
<polygon id="0x1dc1890" class="l1d0" points="340,580 380,580 380,620 340,620"/>
<polygon id="0x1d41980" class="l1d0" points="340,660 380,660 380,700 340,700"/>
<polygon id="0x1d41a40" class="l1d0" points="340,740 380,740 380,780 340,780"/>
<polygon id="0x1d38390" class="l1d0" points="340,820 380,820 380,860 340,860"/>
<polygon id="0x1d38450" class="l1d0" points="340,900 380,900 380,940 340,940"/>
<polygon id="0x1d9d4f0" class="l1d0" points="340,980 380,980 380,1020 340,1020"/>
<polygon id="0x1d9d560" class="l1d0" points="340,1060 380,1060 380,1100 340,1100"/>
<polygon id="0x1d9d620" class="l1d0" points="340,1140 380,1140 380,1180 340,1180"/>
<polygon id="0x1bf7500" class="l1d0" points="420,20 460,20 460,60 420,60"/>
<polygon id="0x1bf75c0" class="l1d0" points="420,100 460,100 460,140 420,140"/>
<polygon id="0x1c84280" class="l1d0" points="420,180 460,180 460,220 420,220"/>
<polygon id="0x1c84340" class="l1d0" points="420,260 460,260 460,300 420,300"/>
<polygon id="0x1ceac10" class="l1d0" points="420,340 460,340 460,380 420,380"/>
<polygon id="0x1ceacd0" class="l1d0" points="420,420 460,420 460,460 420,460"/>
<polygon id="0x1d522b0" class="l1d0" points="420,500 460,500 460,540 420,540"/>
<polygon id="0x1d52370" class="l1d0" points="420,580 460,580 460,620 420,620"/>
<polygon id="0x1d599d0" class="l1d0" points="420,660 460,660 460,700 420,700"/>
<polygon id="0x1d59a90" class="l1d0" points="420,740 460,740 460,780 420,780"/>
<polygon id="0x1dc1e80" class="l1d0" points="420,820 460,820 460,860 420,860"/>
<polygon id="0x1dc1f40" class="l1d0" points="420,900 460,900 460,940 420,940"/>
<polygon id="0x1b41790" class="l1d0" points="420,980 460,980 460,1020 420,1020"/>
<polygon id="0x1b41850" class="l1d0" points="420,1060 460,1060 460,1100 420,1100"/>
<polygon id="0x1ba1300" class="l1d0" points="420,1140 460,1140 460,1180 420,1180"/>
<polygon id="0x1ba13c0" class="l1d0" points="500,20 540,20 540,60 500,60"/>
<polygon id="0x1ba1480" class="l1d0" points="500,100 540,100 540,140 500,140"/>
<polygon id="0x1c00fc0" class="l1d0" points="500,180 540,180 540,220 500,220"/>
<polygon id="0x1c01080" class="l1d0" points="500,260 540,260 540,300 500,300"/>
<polygon id="0x1c01140" class="l1d0" points="500,340 540,340 540,380 500,380"/>
<polygon id="0x1c03c00" class="l1d0" points="500,420 540,420 540,460 500,460"/>
<polygon id="0x1c03cc0" class="l1d0" points="500,500 540,500 540,540 500,540"/>
<polygon id="0x1c03d80" class="l1d0" points="500,580 540,580 540,620 500,620"/>
<polygon id="0x1c38030" class="l1d0" points="500,660 540,660 540,700 500,700"/>
<polygon id="0x1c380f0" class="l1d0" points="500,740 540,740 540,780 500,780"/>
<polygon id="0x1c381b0" class="l1d0" points="500,820 540,820 540,860 500,860"/>
<polygon id="0x1c47330" class="l1d0" points="500,900 540,900 540,940 500,940"/>
<polygon id="0x1c473f0" class="l1d0" points="500,980 540,980 540,1020 500,1020"/>
<polygon id="0x1c474b0" class="l1d0" points="500,1060 540,1060 540,1100 500,1100"/>
<polygon id="0x1cff640" class="l1d0" points="500,1140 540,1140 540,1180 500,1180"/>
<polygon id="0x1cff700" class="l1d0" points="580,20 620,20 620,60 580,60"/>
<polygon id="0x1cff7c0" class="l1d0" points="580,100 620,100 620,140 580,140"/>
<polygon id="0x1d6dbb0" class="l1d0" points="580,180 620,180 620,220 580,220"/>
<polygon id="0x1d6dc70" class="l1d0" points="580,260 620,260 620,300 580,300"/>
<polygon id="0x1d6dd30" class="l1d0" points="580,340 620,340 620,380 580,380"/>
<polygon id="0x1bccae0" class="l1d0" points="580,420 620,420 620,460 580,460"/>
<polygon id="0x1bccba0" class="l1d0" points="580,500 620,500 620,540 580,540"/>
<polygon id="0x1c547c0" class="l1d0" points="580,580 620,580 620,620 580,620"/>
<polygon id="0x1c54880" class="l1d0" points="580,660 620,660 620,700 580,700"/>
<polygon id="0x1c54940" class="l1d0" points="580,740 620,740 620,780 580,780"/>
<polygon id="0x1cf5d10" class="l1d0" points="580,820 620,820 620,860 580,860"/>
<polygon id="0x1cf5dd0" class="l1d0" points="580,900 620,900 620,940 580,940"/>
<polygon id="0x1db4660" class="l1d0" points="580,980 620,980 620,1020 580,1020"/>
<polygon id="0x1db4720" class="l1d0" points="580,1060 620,1060 620,1100 580,1100"/>
<polygon id="0x1db47e0" class="l1d0" points="580,1140 620,1140 620,1180 580,1180"/>
<polygon id="0x1e06ec0" class="l1d0" points="660,20 700,20 700,60 660,60"/>
<polygon id="0x1e06f80" class="l1d0" points="660,100 700,100 700,140 660,140"/>
<polygon id="0x1e07040" class="l1d0" points="660,180 700,180 700,220 660,220"/>
<polygon id="0x1e07100" class="l1d0" points="660,260 700,260 700,300 660,300"/>
<polygon id="0x1e071c0" class="l1d0" points="660,340 700,340 700,380 660,380"/>
<polygon id="0x1e07280" class="l1d0" points="660,420 700,420 700,460 660,460"/>
<polygon id="0x1e07340" class="l1d0" points="660,500 700,500 700,540 660,540"/>
<polygon id="0x1e07400" class="l1d0" points="660,580 700,580 700,620 660,620"/>
<polygon id="0x1e074c0" class="l1d0" points="660,660 700,660 700,700 660,700"/>
<polygon id="0x1e07580" class="l1d0" points="660,740 700,740 700,780 660,780"/>
<polygon id="0x1e07640" class="l1d0" points="660,820 700,820 700,860 660,860"/>
<polygon id="0x1e07700" class="l1d0" points="660,900 700,900 700,940 660,940"/>
<polygon id="0x1e077c0" class="l1d0" points="660,980 700,980 700,1020 660,1020"/>
<polygon id="0x1e07880" class="l1d0" points="660,1060 700,1060 700,1100 660,1100"/>
<polygon id="0x1e07940" class="l1d0" points="660,1140 700,1140 700,1180 660,1180"/>
<polygon id="0x1e07a00" class="l1d0" points="740,20 780,20 780,60 740,60"/>
<polygon id="0x1e07ac0" class="l1d0" points="740,100 780,100 780,140 740,140"/>
<polygon id="0x1e07b80" class="l1d0" points="740,180 780,180 780,220 740,220"/>
<polygon id="0x1e07c40" class="l1d0" points="740,260 780,260 780,300 740,300"/>
<polygon id="0x1e07d00" class="l1d0" points="740,340 780,340 780,380 740,380"/>
<polygon id="0x1e07dc0" class="l1d0" points="740,420 780,420 780,460 740,460"/>
<polygon id="0x1e07e80" class="l1d0" points="740,500 780,500 780,540 740,540"/>
<polygon id="0x1e07f40" class="l1d0" points="740,580 780,580 780,620 740,620"/>
<polygon id="0x1e08000" class="l1d0" points="740,660 780,660 780,700 740,700"/>
<polygon id="0x1e080c0" class="l1d0" points="740,740 780,740 780,780 740,780"/>
<polygon id="0x1e08180" class="l1d0" points="740,820 780,820 780,860 740,860"/>
<polygon id="0x1e08240" class="l1d0" points="740,900 780,900 780,940 740,940"/>
<polygon id="0x1e08300" class="l1d0" points="740,980 780,980 780,1020 740,1020"/>
<polygon id="0x1e083c0" class="l1d0" points="740,1060 780,1060 780,1100 740,1100"/>
<polygon id="0x1e08480" class="l1d0" points="740,1140 780,1140 780,1180 740,1180"/>
<polygon id="0x1e08540" class="l1d0" points="820,20 860,20 860,60 820,60"/>
<polygon id="0x1e08600" class="l1d0" points="820,100 860,100 860,140 820,140"/>
<polygon id="0x1e086c0" class="l1d0" points="820,180 860,180 860,220 820,220"/>
<polygon id="0x1e08780" class="l1d0" points="820,260 860,260 860,300 820,300"/>
<polygon id="0x1e08840" class="l1d0" points="820,340 860,340 860,380 820,380"/>
<polygon id="0x1e08900" class="l1d0" points="820,420 860,420 860,460 820,460"/>
<polygon id="0x1e089c0" class="l1d0" points="820,500 860,500 860,540 820,540"/>
<polygon id="0x1e08a80" class="l1d0" points="820,580 860,580 860,620 820,620"/>
<polygon id="0x1e08b40" class="l1d0" points="820,660 860,660 860,700 820,700"/>
<polygon id="0x1e08c00" class="l1d0" points="820,740 860,740 860,780 820,780"/>
<polygon id="0x1e08cc0" class="l1d0" points="820,820 860,820 860,860 820,860"/>
<polygon id="0x1e08d80" class="l1d0" points="820,900 860,900 860,940 820,940"/>
<polygon id="0x1e08e40" class="l1d0" points="820,980 860,980 860,1020 820,1020"/>
<polygon id="0x1e08f00" class="l1d0" points="820,1060 860,1060 860,1100 820,1100"/>
<polygon id="0x1e08fc0" class="l1d0" points="820,1140 860,1140 860,1180 820,1180"/>
<polygon id="0x1e09080" class="l1d0" points="900,20 940,20 940,60 900,60"/>
<polygon id="0x1e09140" class="l1d0" points="900,100 940,100 940,140 900,140"/>
<polygon id="0x1e09200" class="l1d0" points="900,180 940,180 940,220 900,220"/>
<polygon id="0x1e092c0" class="l1d0" points="900,260 940,260 940,300 900,300"/>
<polygon id="0x1e09380" class="l1d0" points="900,340 940,340 940,380 900,380"/>
<polygon id="0x1e09440" class="l1d0" points="900,420 940,420 940,460 900,460"/>
<polygon id="0x1e09500" class="l1d0" points="900,500 940,500 940,540 900,540"/>
<polygon id="0x1e095c0" class="l1d0" points="900,580 940,580 940,620 900,620"/>
<polygon id="0x1e09680" class="l1d0" points="900,660 940,660 940,700 900,700"/>
<polygon id="0x1e09740" class="l1d0" points="900,740 940,740 940,780 900,780"/>
<polygon id="0x1e09800" class="l1d0" points="900,820 940,820 940,860 900,860"/>
<polygon id="0x1e098c0" class="l1d0" points="900,900 940,900 940,940 900,940"/>
<polygon id="0x1e09980" class="l1d0" points="900,980 940,980 940,1020 900,1020"/>
<polygon id="0x1e09a40" class="l1d0" points="900,1060 940,1060 940,1100 900,1100"/>
<polygon id="0x1e09b00" class="l1d0" points="900,1140 940,1140 940,1180 900,1180"/>
<polygon id="0x1e09bc0" class="l1d0" points="980,20 1020,20 1020,60 980,60"/>
<polygon id="0x1e09c80" class="l1d0" points="980,100 1020,100 1020,140 980,140"/>
<polygon id="0x1e09d40" class="l1d0" points="980,180 1020,180 1020,220 980,220"/>
<polygon id="0x1e09e00" class="l1d0" points="980,260 1020,260 1020,300 980,300"/>
<polygon id="0x1e09ec0" class="l1d0" points="980,340 1020,340 1020,380 980,380"/>
<polygon id="0x1e09f80" class="l1d0" points="980,420 1020,420 1020,460 980,460"/>
<polygon id="0x1e0a040" class="l1d0" points="980,500 1020,500 1020,540 980,540"/>
<polygon id="0x1e0a100" class="l1d0" points="980,580 1020,580 1020,620 980,620"/>
<polygon id="0x1e0a1c0" class="l1d0" points="980,660 1020,660 1020,700 980,700"/>
<polygon id="0x1e0a280" class="l1d0" points="980,740 1020,740 1020,780 980,780"/>
<polygon id="0x1e0a340" class="l1d0" points="980,820 1020,820 1020,860 980,860"/>
<polygon id="0x1e0a400" class="l1d0" points="980,900 1020,900 1020,940 980,940"/>
<polygon id="0x1e0a4c0" class="l1d0" points="980,980 1020,980 1020,1020 980,1020"/>
<polygon id="0x1e0a580" class="l1d0" points="980,1060 1020,1060 1020,1100 980,1100"/>
<polygon id="0x1e0a640" class="l1d0" points="980,1140 1020,1140 1020,1180 980,1180"/>
<polygon id="0x1e0a700" class="l1d0" points="1060,20 1100,20 1100,60 1060,60"/>
<polygon id="0x1e0a7c0" class="l1d0" points="1060,100 1100,100 1100,140 1060,140"/>
<polygon id="0x1e0a880" class="l1d0" points="1060,180 1100,180 1100,220 1060,220"/>
<polygon id="0x1e0a940" class="l1d0" points="1060,260 1100,260 1100,300 1060,300"/>
<polygon id="0x1e0aa00" class="l1d0" points="1060,340 1100,340 1100,380 1060,380"/>
<polygon id="0x1e0aac0" class="l1d0" points="1060,420 1100,420 1100,460 1060,460"/>
<polygon id="0x1e0ab80" class="l1d0" points="1060,500 1100,500 1100,540 1060,540"/>
<polygon id="0x1e0ac40" class="l1d0" points="1060,580 1100,580 1100,620 1060,620"/>
<polygon id="0x1e0ad00" class="l1d0" points="1060,660 1100,660 1100,700 1060,700"/>
<polygon id="0x1e0adc0" class="l1d0" points="1060,740 1100,740 1100,780 1060,780"/>
<polygon id="0x1e0ae80" class="l1d0" points="1060,820 1100,820 1100,860 1060,860"/>
<polygon id="0x1e0af40" class="l1d0" points="1060,900 1100,900 1100,940 1060,940"/>
<polygon id="0x1e0b000" class="l1d0" points="1060,980 1100,980 1100,1020 1060,1020"/>
<polygon id="0x1e0b0c0" class="l1d0" points="1060,1060 1100,1060 1100,1100 1060,1100"/>
<polygon id="0x1e0b180" class="l1d0" points="1060,1140 1100,1140 1100,1180 1060,1180"/>
<polygon id="0x1e0b240" class="l1d0" points="1140,20 1180,20 1180,60 1140,60"/>
<polygon id="0x1e0b300" class="l1d0" points="1140,100 1180,100 1180,140 1140,140"/>
<polygon id="0x1e0b3c0" class="l1d0" points="1140,180 1180,180 1180,220 1140,220"/>
<polygon id="0x1e0b480" class="l1d0" points="1140,260 1180,260 1180,300 1140,300"/>
<polygon id="0x1e0b540" class="l1d0" points="1140,340 1180,340 1180,380 1140,380"/>
<polygon id="0x1e0b600" class="l1d0" points="1140,420 1180,420 1180,460 1140,460"/>
<polygon id="0x1e0b6c0" class="l1d0" points="1140,500 1180,500 1180,540 1140,540"/>
<polygon id="0x1e0e050" class="l1d0" points="1140,580 1180,580 1180,620 1140,620"/>
<polygon id="0x1e0e110" class="l1d0" points="1140,660 1180,660 1180,700 1140,700"/>
<polygon id="0x1e0e1d0" class="l1d0" points="1140,740 1180,740 1180,780 1140,780"/>
<polygon id="0x1e0e290" class="l1d0" points="1140,820 1180,820 1180,860 1140,860"/>
<polygon id="0x1e0e350" class="l1d0" points="1140,900 1180,900 1180,940 1140,940"/>
<polygon id="0x1e0e410" class="l1d0" points="1140,980 1180,980 1180,1020 1140,1020"/>
<polygon id="0x1e0e4d0" class="l1d0" points="1140,1060 1180,1060 1180,1100 1140,1100"/>
<polygon id="0x1e0e590" class="l1d0" points="1140,1140 1180,1140 1180,1180 1140,1180"/>
<polygon id="0x1e0e650" class="l1d0" points="1220,20 1260,20 1260,60 1220,60"/>
<polygon id="0x1e0e710" class="l1d0" points="1220,100 1260,100 1260,140 1220,140"/>
<polygon id="0x1e0e7d0" class="l1d0" points="1220,180 1260,180 1260,220 1220,220"/>
<polygon id="0x1e0e890" class="l1d0" points="1220,260 1260,260 1260,300 1220,300"/>
<polygon id="0x1e0e950" class="l1d0" points="1220,340 1260,340 1260,380 1220,380"/>
<polygon id="0x1e0ea10" class="l1d0" points="1220,420 1260,420 1260,460 1220,460"/>
<polygon id="0x1e0ead0" class="l1d0" points="1220,500 1260,500 1260,540 1220,540"/>
<polygon id="0x1e0eb90" class="l1d0" points="1220,580 1260,580 1260,620 1220,620"/>
<polygon id="0x1e0ec50" class="l1d0" points="1220,660 1260,660 1260,700 1220,700"/>
<polygon id="0x1e0ed10" class="l1d0" points="1220,740 1260,740 1260,780 1220,780"/>
<polygon id="0x1e0edd0" class="l1d0" points="1220,820 1260,820 1260,860 1220,860"/>
<polygon id="0x1e0ee90" class="l1d0" points="1220,900 1260,900 1260,940 1220,940"/>
<polygon id="0x1e0ef50" class="l1d0" points="1220,980 1260,980 1260,1020 1220,1020"/>
<polygon id="0x1e0f010" class="l1d0" points="1220,1060 1260,1060 1260,1100 1220,1100"/>
<polygon id="0x1e0f0d0" class="l1d0" points="1220,1140 1260,1140 1260,1180 1220,1180"/>
<polygon id="0x1e0f190" class="l1d0" points="1300,20 1340,20 1340,60 1300,60"/>
<polygon id="0x1e0f250" class="l1d0" points="1300,100 1340,100 1340,140 1300,140"/>
<polygon id="0x1e0f310" class="l1d0" points="1300,180 1340,180 1340,220 1300,220"/>
<polygon id="0x1e0f3d0" class="l1d0" points="1300,260 1340,260 1340,300 1300,300"/>
<polygon id="0x1e0f490" class="l1d0" points="1300,340 1340,340 1340,380 1300,380"/>
<polygon id="0x1e0f550" class="l1d0" points="1300,420 1340,420 1340,460 1300,460"/>
<polygon id="0x1e0f610" class="l1d0" points="1300,500 1340,500 1340,540 1300,540"/>
<polygon id="0x1e0f6d0" class="l1d0" points="1300,580 1340,580 1340,620 1300,620"/>
<polygon id="0x1e0f790" class="l1d0" points="1300,660 1340,660 1340,700 1300,700"/>
<polygon id="0x1e0f850" class="l1d0" points="1300,740 1340,740 1340,780 1300,780"/>
<polygon id="0x1e0f910" class="l1d0" points="1300,820 1340,820 1340,860 1300,860"/>
<polygon id="0x1e0f9d0" class="l1d0" points="1300,900 1340,900 1340,940 1300,940"/>
<polygon id="0x1e0fa90" class="l1d0" points="1300,980 1340,980 1340,1020 1300,1020"/>
<polygon id="0x1e0fb50" class="l1d0" points="1300,1060 1340,1060 1340,1100 1300,1100"/>
<polygon id="0x1e0fc10" class="l1d0" points="1300,1140 1340,1140 1340,1180 1300,1180"/>
<polygon id="0x1e0fcd0" class="l5d0" points="30,30 50,30 50,50 30,50"/>
<polygon id="0x1e0fd90" class="l5d0" points="30,110 50,110 50,130 30,130"/>
<polygon id="0x1e0fe50" class="l5d0" points="30,190 50,190 50,210 30,210"/>
<polygon id="0x1e0ff10" class="l5d0" points="30,270 50,270 50,290 30,290"/>
<polygon id="0x1e0ffd0" class="l5d0" points="30,350 50,350 50,370 30,370"/>
<polygon id="0x1e10090" class="l5d0" points="30,430 50,430 50,450 30,450"/>
<polygon id="0x1e10150" class="l5d0" points="30,510 50,510 50,530 30,530"/>
<polygon id="0x1e10210" class="l5d0" points="30,590 50,590 50,610 30,610"/>
<polygon id="0x1e102d0" class="l5d0" points="30,670 50,670 50,690 30,690"/>
<polygon id="0x1e10390" class="l5d0" points="30,750 50,750 50,770 30,770"/>
<polygon id="0x1e10450" class="l5d0" points="30,830 50,830 50,850 30,850"/>
<polygon id="0x1e10510" class="l5d0" points="30,910 50,910 50,930 30,930"/>
<polygon id="0x1e105d0" class="l5d0" points="30,990 50,990 50,1010 30,1010"/>
<polygon id="0x1e10690" class="l5d0" points="30,1070 50,1070 50,1090 30,1090"/>
<polygon id="0x1e10750" class="l5d0" points="30,1150 50,1150 50,1170 30,1170"/>
<polygon id="0x1e10810" class="l5d0" points="110,30 130,30 130,50 110,50"/>
<polygon id="0x1e108d0" class="l5d0" points="110,110 130,110 130,130 110,130"/>
<polygon id="0x1e10990" class="l5d0" points="110,190 130,190 130,210 110,210"/>
<polygon id="0x1e10a50" class="l5d0" points="110,270 130,270 130,290 110,290"/>
<polygon id="0x1e10b10" class="l5d0" points="110,350 130,350 130,370 110,370"/>
<polygon id="0x1e10bd0" class="l5d0" points="110,430 130,430 130,450 110,450"/>
<polygon id="0x1e10c90" class="l5d0" points="110,510 130,510 130,530 110,530"/>
<polygon id="0x1e10d50" class="l5d0" points="110,590 130,590 130,610 110,610"/>
<polygon id="0x1e10e10" class="l5d0" points="110,670 130,670 130,690 110,690"/>
<polygon id="0x1e10ed0" class="l5d0" points="110,750 130,750 130,770 110,770"/>
<polygon id="0x1e10f90" class="l5d0" points="110,830 130,830 130,850 110,850"/>
<polygon id="0x1e11050" class="l5d0" points="110,910 130,910 130,930 110,930"/>
<polygon id="0x1e11110" class="l5d0" points="110,990 130,990 130,1010 110,1010"/>
<polygon id="0x1e111d0" class="l5d0" points="110,1070 130,1070 130,1090 110,1090"/>
<polygon id="0x1e11290" class="l5d0" points="110,1150 130,1150 130,1170 110,1170"/>
<polygon id="0x1e11350" class="l5d0" points="190,30 210,30 210,50 190,50"/>
<polygon id="0x1e11410" class="l5d0" points="190,110 210,110 210,130 190,130"/>
<polygon id="0x1e114d0" class="l5d0" points="190,190 210,190 210,210 190,210"/>
<polygon id="0x1e11590" class="l5d0" points="190,270 210,270 210,290 190,290"/>
<polygon id="0x1e11650" class="l5d0" points="190,350 210,350 210,370 190,370"/>
<polygon id="0x1e11710" class="l5d0" points="190,430 210,430 210,450 190,450"/>
<polygon id="0x1e117d0" class="l5d0" points="190,510 210,510 210,530 190,530"/>
<polygon id="0x1e11890" class="l5d0" points="190,590 210,590 210,610 190,610"/>
<polygon id="0x1e11950" class="l5d0" points="190,670 210,670 210,690 190,690"/>
<polygon id="0x1e11a10" class="l5d0" points="190,750 210,750 210,770 190,770"/>
<polygon id="0x1e11ad0" class="l5d0" points="190,830 210,830 210,850 190,850"/>
<polygon id="0x1e11b90" class="l5d0" points="190,910 210,910 210,930 190,930"/>
<polygon id="0x1e11c50" class="l5d0" points="190,990 210,990 210,1010 190,1010"/>
<polygon id="0x1e11d10" class="l5d0" points="190,1070 210,1070 210,1090 190,1090"/>
<polygon id="0x1e11dd0" class="l5d0" points="190,1150 210,1150 210,1170 190,1170"/>
<polygon id="0x1e11e90" class="l5d0" points="270,30 290,30 290,50 270,50"/>
<polygon id="0x1e11f50" class="l5d0" points="270,110 290,110 290,130 270,130"/>
<polygon id="0x1e12010" class="l5d0" points="270,190 290,190 290,210 270,210"/>
<polygon id="0x1e120d0" class="l5d0" points="270,270 290,270 290,290 270,290"/>
<polygon id="0x1e12190" class="l5d0" points="270,350 290,350 290,370 270,370"/>
<polygon id="0x1e12250" class="l5d0" points="270,430 290,430 290,450 270,450"/>
<polygon id="0x1e12310" class="l5d0" points="270,510 290,510 290,530 270,530"/>
<polygon id="0x1e123d0" class="l5d0" points="270,590 290,590 290,610 270,610"/>
<polygon id="0x1e12490" class="l5d0" points="270,670 290,670 290,690 270,690"/>
<polygon id="0x1e12550" class="l5d0" points="270,750 290,750 290,770 270,770"/>
<polygon id="0x1e12610" class="l5d0" points="270,830 290,830 290,850 270,850"/>
<polygon id="0x1e126d0" class="l5d0" points="270,910 290,910 290,930 270,930"/>
<polygon id="0x1e12790" class="l5d0" points="270,990 290,990 290,1010 270,1010"/>
<polygon id="0x1e12850" class="l5d0" points="270,1070 290,1070 290,1090 270,1090"/>
<polygon id="0x1e12910" class="l5d0" points="270,1150 290,1150 290,1170 270,1170"/>
<polygon id="0x1e129d0" class="l5d0" points="350,30 370,30 370,50 350,50"/>
<polygon id="0x1e12a90" class="l5d0" points="350,110 370,110 370,130 350,130"/>
<polygon id="0x1e12b50" class="l5d0" points="350,190 370,190 370,210 350,210"/>
<polygon id="0x1e12c10" class="l5d0" points="350,270 370,270 370,290 350,290"/>
<polygon id="0x1e12cd0" class="l5d0" points="350,350 370,350 370,370 350,370"/>
<polygon id="0x1e12d90" class="l5d0" points="350,430 370,430 370,450 350,450"/>
<polygon id="0x1e12e50" class="l5d0" points="350,510 370,510 370,530 350,530"/>
<polygon id="0x1e12f10" class="l5d0" points="350,590 370,590 370,610 350,610"/>
<polygon id="0x1e12fd0" class="l5d0" points="350,670 370,670 370,690 350,690"/>
<polygon id="0x1e13090" class="l5d0" points="350,750 370,750 370,770 350,770"/>
<polygon id="0x1e13150" class="l5d0" points="350,830 370,830 370,850 350,850"/>
<polygon id="0x1e13210" class="l5d0" points="350,910 370,910 370,930 350,930"/>
<polygon id="0x1e132d0" class="l5d0" points="350,990 370,990 370,1010 350,1010"/>
<polygon id="0x1e13390" class="l5d0" points="350,1070 370,1070 370,1090 350,1090"/>
<polygon id="0x1e13450" class="l5d0" points="350,1150 370,1150 370,1170 350,1170"/>
<polygon id="0x1e13510" class="l5d0" points="430,30 450,30 450,50 430,50"/>
<polygon id="0x1e135d0" class="l5d0" points="430,110 450,110 450,130 430,130"/>
<polygon id="0x1e13690" class="l5d0" points="430,190 450,190 450,210 430,210"/>
<polygon id="0x1e13750" class="l5d0" points="430,270 450,270 450,290 430,290"/>
<polygon id="0x1e13810" class="l5d0" points="430,350 450,350 450,370 430,370"/>
<polygon id="0x1e138d0" class="l5d0" points="430,430 450,430 450,450 430,450"/>
<polygon id="0x1e13990" class="l5d0" points="430,510 450,510 450,530 430,530"/>
<polygon id="0x1e13a50" class="l5d0" points="430,590 450,590 450,610 430,610"/>
<polygon id="0x1e13b10" class="l5d0" points="430,670 450,670 450,690 430,690"/>
<polygon id="0x1e13bd0" class="l5d0" points="430,750 450,750 450,770 430,770"/>
<polygon id="0x1e13c90" class="l5d0" points="430,830 450,830 450,850 430,850"/>
<polygon id="0x1e13d50" class="l5d0" points="430,910 450,910 450,930 430,930"/>
<polygon id="0x1e13e10" class="l5d0" points="430,990 450,990 450,1010 430,1010"/>
<polygon id="0x1e13ed0" class="l5d0" points="430,1070 450,1070 450,1090 430,1090"/>
<polygon id="0x1e13f90" class="l5d0" points="430,1150 450,1150 450,1170 430,1170"/>
<polygon id="0x1e14050" class="l5d0" points="510,30 530,30 530,50 510,50"/>
<polygon id="0x1e14110" class="l5d0" points="510,110 530,110 530,130 510,130"/>
<polygon id="0x1e141d0" class="l5d0" points="510,190 530,190 530,210 510,210"/>
<polygon id="0x1e14290" class="l5d0" points="510,270 530,270 530,290 510,290"/>
<polygon id="0x1e14350" class="l5d0" points="510,350 530,350 530,370 510,370"/>
<polygon id="0x1e14410" class="l5d0" points="510,430 530,430 530,450 510,450"/>
<polygon id="0x1e144d0" class="l5d0" points="510,510 530,510 530,530 510,530"/>
<polygon id="0x1e14590" class="l5d0" points="510,590 530,590 530,610 510,610"/>
<polygon id="0x1e14650" class="l5d0" points="510,670 530,670 530,690 510,690"/>
<polygon id="0x1e14710" class="l5d0" points="510,750 530,750 530,770 510,770"/>
<polygon id="0x1e147d0" class="l5d0" points="510,830 530,830 530,850 510,850"/>
<polygon id="0x1e14890" class="l5d0" points="510,910 530,910 530,930 510,930"/>
<polygon id="0x1e14950" class="l5d0" points="510,990 530,990 530,1010 510,1010"/>
<polygon id="0x1e14a10" class="l5d0" points="510,1070 530,1070 530,1090 510,1090"/>
<polygon id="0x1e14ad0" class="l5d0" points="510,1150 530,1150 530,1170 510,1170"/>
<polygon id="0x1e14b90" class="l5d0" points="590,30 610,30 610,50 590,50"/>
<polygon id="0x1e14c50" class="l5d0" points="590,110 610,110 610,130 590,130"/>
<polygon id="0x1e14d10" class="l5d0" points="590,190 610,190 610,210 590,210"/>
<polygon id="0x1e14dd0" class="l5d0" points="590,270 610,270 610,290 590,290"/>
<polygon id="0x1e14e90" class="l5d0" points="590,350 610,350 610,370 590,370"/>
<polygon id="0x1e14f50" class="l5d0" points="590,430 610,430 610,450 590,450"/>
<polygon id="0x1e05e60" class="l5d0" points="590,510 610,510 610,530 590,530"/>
<polygon id="0x1e05f20" class="l5d0" points="590,590 610,590 610,610 590,610"/>
<polygon id="0x1e05fe0" class="l5d0" points="590,670 610,670 610,690 590,690"/>
<polygon id="0x1e060a0" class="l5d0" points="590,750 610,750 610,770 590,770"/>
<polygon id="0x1e06160" class="l5d0" points="590,830 610,830 610,850 590,850"/>
<polygon id="0x1e06220" class="l5d0" points="590,910 610,910 610,930 590,930"/>
<polygon id="0x1e062e0" class="l5d0" points="590,990 610,990 610,1010 590,1010"/>
<polygon id="0x1e063a0" class="l5d0" points="590,1070 610,1070 610,1090 590,1090"/>
<polygon id="0x1e06460" class="l5d0" points="590,1150 610,1150 610,1170 590,1170"/>
<polygon id="0x1e06520" class="l5d0" points="670,30 690,30 690,50 670,50"/>
<polygon id="0x1e065e0" class="l5d0" points="670,110 690,110 690,130 670,130"/>
<polygon id="0x1e066a0" class="l5d0" points="670,190 690,190 690,210 670,210"/>
<polygon id="0x1e06760" class="l5d0" points="670,270 690,270 690,290 670,290"/>
<polygon id="0x1e06820" class="l5d0" points="670,350 690,350 690,370 670,370"/>
<polygon id="0x1e068e0" class="l5d0" points="670,430 690,430 690,450 670,450"/>
<polygon id="0x1e069a0" class="l5d0" points="670,510 690,510 690,530 670,530"/>
<polygon id="0x1e06a60" class="l5d0" points="670,590 690,590 690,610 670,610"/>
<polygon id="0x1e06b20" class="l5d0" points="670,670 690,670 690,690 670,690"/>
<polygon id="0x1e06be0" class="l5d0" points="670,750 690,750 690,770 670,770"/>
<polygon id="0x1e06ca0" class="l5d0" points="670,830 690,830 690,850 670,850"/>
<polygon id="0x1e06d60" class="l5d0" points="670,910 690,910 690,930 670,930"/>
<polygon id="0x1e17020" class="l5d0" points="670,990 690,990 690,1010 670,1010"/>
<polygon id="0x1e17090" class="l5d0" points="670,1070 690,1070 690,1090 670,1090"/>
<polygon id="0x1e17150" class="l5d0" points="670,1150 690,1150 690,1170 670,1170"/>
<polygon id="0x1e17210" class="l5d0" points="750,30 770,30 770,50 750,50"/>
<polygon id="0x1e172d0" class="l5d0" points="750,110 770,110 770,130 750,130"/>
<polygon id="0x1e17390" class="l5d0" points="750,190 770,190 770,210 750,210"/>
<polygon id="0x1e17450" class="l5d0" points="750,270 770,270 770,290 750,290"/>
<polygon id="0x1e17510" class="l5d0" points="750,350 770,350 770,370 750,370"/>
<polygon id="0x1e175d0" class="l5d0" points="750,430 770,430 770,450 750,450"/>
<polygon id="0x1e17690" class="l5d0" points="750,510 770,510 770,530 750,530"/>
<polygon id="0x1e17750" class="l5d0" points="750,590 770,590 770,610 750,610"/>
<polygon id="0x1e17810" class="l5d0" points="750,670 770,670 770,690 750,690"/>
<polygon id="0x1e178d0" class="l5d0" points="750,750 770,750 770,770 750,770"/>
<polygon id="0x1e17990" class="l5d0" points="750,830 770,830 770,850 750,850"/>
<polygon id="0x1e17a50" class="l5d0" points="750,910 770,910 770,930 750,930"/>
<polygon id="0x1e17b10" class="l5d0" points="750,990 770,990 770,1010 750,1010"/>
<polygon id="0x1e17bd0" class="l5d0" points="750,1070 770,1070 770,1090 750,1090"/>
<polygon id="0x1e17c90" class="l5d0" points="750,1150 770,1150 770,1170 750,1170"/>
<polygon id="0x1e17d50" class="l5d0" points="830,30 850,30 850,50 830,50"/>
<polygon id="0x1e17e10" class="l5d0" points="830,110 850,110 850,130 830,130"/>
<polygon id="0x1e17ed0" class="l5d0" points="830,190 850,190 850,210 830,210"/>
<polygon id="0x1e17f90" class="l5d0" points="830,270 850,270 850,290 830,290"/>
<polygon id="0x1e18050" class="l5d0" points="830,350 850,350 850,370 830,370"/>
<polygon id="0x1e18110" class="l5d0" points="830,430 850,430 850,450 830,450"/>
<polygon id="0x1e181d0" class="l5d0" points="830,510 850,510 850,530 830,530"/>
<polygon id="0x1e18290" class="l5d0" points="830,590 850,590 850,610 830,610"/>
<polygon id="0x1e18350" class="l5d0" points="830,670 850,670 850,690 830,690"/>
<polygon id="0x1e18410" class="l5d0" points="830,750 850,750 850,770 830,770"/>
<polygon id="0x1e184d0" class="l5d0" points="830,830 850,830 850,850 830,850"/>
<polygon id="0x1e18590" class="l5d0" points="830,910 850,910 850,930 830,930"/>
<polygon id="0x1e18650" class="l5d0" points="830,990 850,990 850,1010 830,1010"/>
<polygon id="0x1e18710" class="l5d0" points="830,1070 850,1070 850,1090 830,1090"/>
<polygon id="0x1e187d0" class="l5d0" points="830,1150 850,1150 850,1170 830,1170"/>
<polygon id="0x1e18890" class="l5d0" points="910,30 930,30 930,50 910,50"/>
<polygon id="0x1e18950" class="l5d0" points="910,110 930,110 930,130 910,130"/>
<polygon id="0x1e18a10" class="l5d0" points="910,190 930,190 930,210 910,210"/>
<polygon id="0x1e18ad0" class="l5d0" points="910,270 930,270 930,290 910,290"/>
<polygon id="0x1e18b90" class="l5d0" points="910,350 930,350 930,370 910,370"/>
<polygon id="0x1e18c50" class="l5d0" points="910,430 930,430 930,450 910,450"/>
<polygon id="0x1e18d10" class="l5d0" points="910,510 930,510 930,530 910,530"/>
<polygon id="0x1e18dd0" class="l5d0" points="910,590 930,590 930,610 910,610"/>
<polygon id="0x1e18e90" class="l5d0" points="910,670 930,670 930,690 910,690"/>
<polygon id="0x1e18f50" class="l5d0" points="910,750 930,750 930,770 910,770"/>
<polygon id="0x1e19010" class="l5d0" points="910,830 930,830 930,850 910,850"/>
<polygon id="0x1e190d0" class="l5d0" points="910,910 930,910 930,930 910,930"/>
<polygon id="0x1e19190" class="l5d0" points="910,990 930,990 930,1010 910,1010"/>
<polygon id="0x1e19250" class="l5d0" points="910,1070 930,1070 930,1090 910,1090"/>
<polygon id="0x1e19310" class="l5d0" points="910,1150 930,1150 930,1170 910,1170"/>
<polygon id="0x1e193d0" class="l5d0" points="990,30 1010,30 1010,50 990,50"/>
<polygon id="0x1e19490" class="l5d0" points="990,110 1010,110 1010,130 990,130"/>
<polygon id="0x1e19550" class="l5d0" points="990,190 1010,190 1010,210 990,210"/>
<polygon id="0x1e19610" class="l5d0" points="990,270 1010,270 1010,290 990,290"/>
<polygon id="0x1e196d0" class="l5d0" points="990,350 1010,350 1010,370 990,370"/>
<polygon id="0x1e19790" class="l5d0" points="990,430 1010,430 1010,450 990,450"/>
<polygon id="0x1e19850" class="l5d0" points="990,510 1010,510 1010,530 990,530"/>
<polygon id="0x1e19910" class="l5d0" points="990,590 1010,590 1010,610 990,610"/>
<polygon id="0x1e199d0" class="l5d0" points="990,670 1010,670 1010,690 990,690"/>
<polygon id="0x1e19a90" class="l5d0" points="990,750 1010,750 1010,770 990,770"/>
<polygon id="0x1e19b50" class="l5d0" points="990,830 1010,830 1010,850 990,850"/>
<polygon id="0x1e19c10" class="l5d0" points="990,910 1010,910 1010,930 990,930"/>
<polygon id="0x1e19cd0" class="l5d0" points="990,990 1010,990 1010,1010 990,1010"/>
<polygon id="0x1e19d90" class="l5d0" points="990,1070 1010,1070 1010,1090 990,1090"/>
<polygon id="0x1e19e50" class="l5d0" points="990,1150 1010,1150 1010,1170 990,1170"/>
<polygon id="0x1e19f10" class="l5d0" points="1070,30 1090,30 1090,50 1070,50"/>
<polygon id="0x1e19fd0" class="l5d0" points="1070,110 1090,110 1090,130 1070,130"/>
<polygon id="0x1e1a090" class="l5d0" points="1070,190 1090,190 1090,210 1070,210"/>
<polygon id="0x1e1a150" class="l5d0" points="1070,270 1090,270 1090,290 1070,290"/>
<polygon id="0x1e1a210" class="l5d0" points="1070,350 1090,350 1090,370 1070,370"/>
<polygon id="0x1e1a2d0" class="l5d0" points="1070,430 1090,430 1090,450 1070,450"/>
<polygon id="0x1e1a390" class="l5d0" points="1070,510 1090,510 1090,530 1070,530"/>
<polygon id="0x1e1a450" class="l5d0" points="1070,590 1090,590 1090,610 1070,610"/>
<polygon id="0x1e1a510" class="l5d0" points="1070,670 1090,670 1090,690 1070,690"/>
<polygon id="0x1e1a5d0" class="l5d0" points="1070,750 1090,750 1090,770 1070,770"/>
<polygon id="0x1e1a690" class="l5d0" points="1070,830 1090,830 1090,850 1070,850"/>
<polygon id="0x1e1a750" class="l5d0" points="1070,910 1090,910 1090,930 1070,930"/>
<polygon id="0x1e1a810" class="l5d0" points="1070,990 1090,990 1090,1010 1070,1010"/>
<polygon id="0x1e1a8d0" class="l5d0" points="1070,1070 1090,1070 1090,1090 1070,1090"/>
<polygon id="0x1e1a990" class="l5d0" points="1070,1150 1090,1150 1090,1170 1070,1170"/>
<polygon id="0x1e1aa50" class="l5d0" points="1150,30 1170,30 1170,50 1150,50"/>
<polygon id="0x1e1ab10" class="l5d0" points="1150,110 1170,110 1170,130 1150,130"/>
<polygon id="0x1e1abd0" class="l5d0" points="1150,190 1170,190 1170,210 1150,210"/>
<polygon id="0x1e1ac90" class="l5d0" points="1150,270 1170,270 1170,290 1150,290"/>
<polygon id="0x1e1ad50" class="l5d0" points="1150,350 1170,350 1170,370 1150,370"/>
<polygon id="0x1e1ae10" class="l5d0" points="1150,430 1170,430 1170,450 1150,450"/>
<polygon id="0x1e1aed0" class="l5d0" points="1150,510 1170,510 1170,530 1150,530"/>
<polygon id="0x1e1af90" class="l5d0" points="1150,590 1170,590 1170,610 1150,610"/>
<polygon id="0x1e1b050" class="l5d0" points="1150,670 1170,670 1170,690 1150,690"/>
<polygon id="0x1e1b110" class="l5d0" points="1150,750 1170,750 1170,770 1150,770"/>
<polygon id="0x1e1b1d0" class="l5d0" points="1150,830 1170,830 1170,850 1150,850"/>
<polygon id="0x1e1b290" class="l5d0" points="1150,910 1170,910 1170,930 1150,930"/>
<polygon id="0x1e1b350" class="l5d0" points="1150,990 1170,990 1170,1010 1150,1010"/>
<polygon id="0x1e1b410" class="l5d0" points="1150,1070 1170,1070 1170,1090 1150,1090"/>
<polygon id="0x1e1b4d0" class="l5d0" points="1150,1150 1170,1150 1170,1170 1150,1170"/>
<polygon id="0x1e1b590" class="l5d0" points="1230,30 1250,30 1250,50 1230,50"/>
<polygon id="0x1e1b650" class="l5d0" points="1230,110 1250,110 1250,130 1230,130"/>
<polygon id="0x1e1b710" class="l5d0" points="1230,190 1250,190 1250,210 1230,210"/>
<polygon id="0x1e1b7d0" class="l5d0" points="1230,270 1250,270 1250,290 1230,290"/>
<polygon id="0x1e1b890" class="l5d0" points="1230,350 1250,350 1250,370 1230,370"/>
<polygon id="0x1e1b950" class="l5d0" points="1230,430 1250,430 1250,450 1230,450"/>
<polygon id="0x1e1ba10" class="l5d0" points="1230,510 1250,510 1250,530 1230,530"/>
<polygon id="0x1e1bad0" class="l5d0" points="1230,590 1250,590 1250,610 1230,610"/>
<polygon id="0x1e1bb90" class="l5d0" points="1230,670 1250,670 1250,690 1230,690"/>
<polygon id="0x1e1bc50" class="l5d0" points="1230,750 1250,750 1250,770 1230,770"/>
<polygon id="0x1e1bd10" class="l5d0" points="1230,830 1250,830 1250,850 1230,850"/>
<polygon id="0x1e1bdd0" class="l5d0" points="1230,910 1250,910 1250,930 1230,930"/>
<polygon id="0x1e1be90" class="l5d0" points="1230,990 1250,990 1250,1010 1230,1010"/>
<polygon id="0x1e1bf50" class="l5d0" points="1230,1070 1250,1070 1250,1090 1230,1090"/>
<polygon id="0x1e1c010" class="l5d0" points="1230,1150 1250,1150 1250,1170 1230,1170"/>
<polygon id="0x1e1c0d0" class="l5d0" points="1310,30 1330,30 1330,50 1310,50"/>
<polygon id="0x1e1c190" class="l5d0" points="1310,110 1330,110 1330,130 1310,130"/>
<polygon id="0x1e1c250" class="l5d0" points="1310,190 1330,190 1330,210 1310,210"/>
<polygon id="0x1e1c310" class="l5d0" points="1310,270 1330,270 1330,290 1310,290"/>
<polygon id="0x1e1c3d0" class="l5d0" points="1310,350 1330,350 1330,370 1310,370"/>
<polygon id="0x1e1c490" class="l5d0" points="1310,430 1330,430 1330,450 1310,450"/>
<polygon id="0x1e1c550" class="l5d0" points="1310,510 1330,510 1330,530 1310,530"/>
<polygon id="0x1e1c610" class="l5d0" points="1310,590 1330,590 1330,610 1310,610"/>
<polygon id="0x1e1c6d0" class="l5d0" points="1310,670 1330,670 1330,690 1310,690"/>
<polygon id="0x1e1c790" class="l5d0" points="1310,750 1330,750 1330,770 1310,770"/>
<polygon id="0x1e1c850" class="l5d0" points="1310,830 1330,830 1330,850 1310,850"/>
<polygon id="0x1e1c910" class="l5d0" points="1310,910 1330,910 1330,930 1310,930"/>
<polygon id="0x1e1c9d0" class="l5d0" points="1310,990 1330,990 1330,1010 1310,1010"/>
<polygon id="0x1e1ca90" class="l5d0" points="1310,1070 1330,1070 1330,1090 1310,1090"/>
<polygon id="0x1e1cb50" class="l5d0" points="1310,1150 1330,1150 1330,1170 1310,1170"/>
</g>
</svg>