<?xml version="1.0" encoding="UTF-8"?>
<svg xmlns="http://www.w3.org/2000/svg" xmlns:xlink="http://www.w3.org/1999/xlink" width="1760" height="1360" viewBox="-80 -1280 1760 1360">
<defs>
<style type="text/css">
.l5d0 {stroke: #008856; fill: #008856; fill-opacity: 0.5;}
.l1d0 {stroke: #A1CAF1; fill: #A1CAF1; fill-opacity: 0.5;}
.l126d0 {stroke: #E68FAC; fill: #E68FAC; fill-opacity: 0.5;}
.l189d4 {stroke: #A1CAF1; fill: #A1CAF1; fill-opacity: 0.5;}
</style>
</defs>
<rect x="-80" y="-1280" width="1760" height="1360" fill="#222222" stroke="none"/>
<g id="my_logo" transform="scale(1 -1)">
<polygon id="0xd46a60" class="l126d0" points="160,20 320,20 320,60 160,60"/>
<polygon id="0xd98e00" class="l126d0" points="400,20 560,20 560,60 400,60"/>
<polygon id="0xbb2050" class="l126d0" points="800,20 1120,20 1120,60 800,60"/>
<polygon id="0xc81040" class="l126d0" points="1360,20 1440,20 1440,60 1360,60"/>
<polygon id="0xd77b90" class="l126d0" points="0,100 160,100 160,140 0,140"/>
<polygon id="0xd948f0" class="l126d0" points="240,100 320,100 320,140 240,140"/>
<polygon id="0xd20450" class="l126d0" points="400,100 640,100 640,140 400,140"/>
<polygon id="0xd35310" class="l126d0" points="720,100 800,100 800,140 720,140"/>
<polygon id="0xef1a20" class="l126d0" points="1120,100 1200,100 1200,140 1120,140"/>
<polygon id="0xef3110" class="l126d0" points="1280,100 1440,100 1440,140 1280,140"/>
<polygon id="0xec45a0" class="l126d0" points="80,180 240,180 240,220 80,220"/>
<polygon id="0xe71df0" class="l126d0" points="560,180 640,180 640,220 560,220"/>
<polygon id="0xe6a3a0" class="l126d0" points="800,180 880,180 880,220 800,220"/>
<polygon id="0xe48d90" class="l126d0" points="960,180 1120,180 1120,220 960,220"/>
<polygon id="0xe1f320" class="l126d0" points="1360,180 1600,180 1600,220 1360,220"/>
<polygon id="0xe487f0" class="l126d0" points="0,260 320,260 320,300 0,300"/>
<polygon id="0xeecd40" class="l126d0" points="480,260 560,260 560,300 480,300"/>
<polygon id="0xc64f40" class="l126d0" points="800,260 880,260 880,300 800,300"/>
<polygon id="0xe70790" class="l126d0" points="960,260 1200,260 1200,300 960,300"/>
<polygon id="0xec2320" class="l126d0" points="160,340 320,340 320,380 160,380"/>
<polygon id="0xefebb0" class="l126d0" points="560,340 720,340 720,380 560,380"/>
<polygon id="0xbf59e0" class="l126d0" points="880,340 960,340 960,380 880,380"/>
<polygon id="0xc52000" class="l126d0" points="1040,340 1200,340 1200,380 1040,380"/>
<polygon id="0xce14a0" class="l126d0" points="1280,340 1360,340 1360,380 1280,380"/>
<polygon id="0xc7fa30" class="l126d0" points="480,420 560,420 560,460 480,460"/>
<polygon id="0xe23190" class="l126d0" points="640,420 800,420 800,460 640,460"/>
<polygon id="0xe81ed0" class="l126d0" points="880,420 960,420 960,460 880,460"/>
<polygon id="0xeb4e70" class="l126d0" points="1200,420 1440,420 1440,460 1200,460"/>
<polygon id="0xe01870" class="l126d0" points="1520,420 1600,420 1600,460 1520,460"/>
<polygon id="0xe15d20" class="l126d0" points="320,500 480,500 480,540 320,540"/>
<polygon id="0xe3eb90" class="l126d0" points="640,500 720,500 720,540 640,540"/>
<polygon id="0xe8b000" class="l126d0" points="800,500 880,500 880,540 800,540"/>
<polygon id="0xeb1390" class="l126d0" points="960,500 1040,500 1040,540 960,540"/>
<polygon id="0xeb2b30" class="l126d0" points="1280,500 1520,500 1520,540 1280,540"/>
<polygon id="0xec7d00" class="l126d0" points="80,580 160,580 160,620 80,620"/>
<polygon id="0xeb3b80" class="l126d0" points="320,580 400,580 400,620 320,620"/>
<polygon id="0xef7ee0" class="l126d0" points="560,580 640,580 640,620 560,620"/>
<polygon id="0xcb6260" class="l126d0" points="720,580 800,580 800,620 720,620"/>
<polygon id="0xcc6ee0" class="l126d0" points="880,580 960,580 960,620 880,620"/>
<polygon id="0xd3d890" class="l126d0" points="1120,580 1280,580 1280,620 1120,620"/>
<polygon id="0xd31a20" class="l126d0" points="1520,580 1600,580 1600,620 1520,620"/>
<polygon id="0xdf8d00" class="l126d0" points="240,660 720,660 720,700 240,700"/>
<polygon id="0xe8e9a0" class="l126d0" points="800,660 1040,660 1040,700 800,700"/>
<polygon id="0xe84b10" class="l126d0" points="1360,660 1600,660 1600,700 1360,700"/>
<polygon id="0xe7c4a0" class="l126d0" points="0,740 320,740 320,780 0,780"/>
<polygon id="0xee78e0" class="l126d0" points="720,740 800,740 800,780 720,780"/>
<polygon id="0xcc24c0" class="l126d0" points="880,740 1200,740 1200,780 880,780"/>
<polygon id="0xd76c30" class="l126d0" points="1360,740 1440,740 1440,780 1360,780"/>
<polygon id="0xe41860" class="l126d0" points="1520,740 1600,740 1600,780 1520,780"/>
<polygon id="0xd3cd60" class="l126d0" points="80,820 480,820 480,860 80,860"/>
<polygon id="0xd63aa0" class="l126d0" points="640,820 720,820 720,860 640,860"/>
<polygon id="0xd63b10" class="l126d0" points="880,820 960,820 960,860 880,860"/>
<polygon id="0xd78840" class="l126d0" points="1120,820 1200,820 1200,860 1120,860"/>
<polygon id="0xdef730" class="l126d0" points="1360,820 1600,820 1600,860 1360,860"/>
<polygon id="0xe4f230" class="l126d0" points="0,900 160,900 160,940 0,940"/>
<polygon id="0xe4f2a0" class="l126d0" points="480,900 560,900 560,940 480,940"/>
<polygon id="0xe5bc50" class="l126d0" points="720,900 800,900 800,940 720,940"/>
<polygon id="0xe76650" class="l126d0" points="960,900 1040,900 1040,940 960,940"/>
<polygon id="0xec1940" class="l126d0" points="1120,900 1200,900 1200,940 1120,940"/>
<polygon id="0xec19b0" class="l126d0" points="1280,900 1520,900 1520,940 1280,940"/>
<polygon id="0xedcbe0" class="l126d0" points="0,980 80,980 80,1020 0,1020"/>
<polygon id="0xef75f0" class="l126d0" points="240,980 400,980 400,1020 240,1020"/>
<polygon id="0xf1dee0" class="l126d0" points="560,980 640,980 640,1020 560,1020"/>
<polygon id="0xf1df50" class="l126d0" points="720,980 800,980 800,1020 720,1020"/>
<polygon id="0xd02120" class="l126d0" points="960,980 1120,980 1120,1020 960,1020"/>
<polygon id="0xbc53b0" class="l126d0" points="1200,980 1280,980 1280,1020 1200,1020"/>
<polygon id="0xce3650" class="l126d0" points="1440,980 1600,980 1600,1020 1440,1020"/>
<polygon id="0xcf8ce0" class="l126d0" points="0,1060 560,1060 560,1100 0,1100"/>
<polygon id="0xd22040" class="l126d0" points="640,1060 720,1060 720,1100 640,1100"/>
<polygon id="0xd7acf0" class="l126d0" points="800,1060 960,1060 960,1100 800,1100"/>
<polygon id="0xd76100" class="l126d0" points="1120,1060 1280,1060 1280,1100 1120,1100"/>
<polygon id="0xd61a10" class="l126d0" points="1360,1060 1440,1060 1440,1100 1360,1100"/>
<polygon id="0xe31450" class="l126d0" points="240,1140 320,1140 320,1180 240,1180"/>
<polygon id="0xea4ee0" class="l126d0" points="400,1140 560,1140 560,1180 400,1180"/>
<polygon id="0xe643f0" class="l126d0" points="880,1140 1040,1140 1040,1180 880,1180"/>
<polygon id="0xebe800" class="l126d0" points="1280,1140 1360,1140 1360,1180 1280,1180"/>
<polygon id="0xed1300" class="l126d0" points="20,0 60,0 60,80 20,80"/>
<polygon id="0xca89b0" class="l126d0" points="20,160 60,160 60,240 20,240"/>
<polygon id="0xca8a70" class="l126d0" points="20,320 60,320 60,720 20,720"/>
<polygon id="0xcc9e50" class="l126d0" points="20,800 60,800 60,880 20,880"/>
<polygon id="0xcc9f10" class="l126d0" points="20,1120 60,1120 60,1200 20,1200"/>
<polygon id="0xcee210" class="l126d0" points="100,0 140,0 140,80 100,80"/>
<polygon id="0xcee2d0" class="l126d0" points="100,320 140,320 140,560 100,560"/>
<polygon id="0xd78b90" class="l126d0" points="100,640 140,640 140,720 100,720"/>
<polygon id="0xd78c50" class="l126d0" points="100,960 140,960 140,1040 100,1040"/>
<polygon id="0xd875d0" class="l126d0" points="100,1120 140,1120 140,1200 100,1200"/>
<polygon id="0xd87690" class="l126d0" points="180,80 220,80 220,160 180,160"/>
<polygon id="0xdf2200" class="l126d0" points="180,400 220,400 220,720 180,720"/>
<polygon id="0xdf22c0" class="l126d0" points="180,880 220,880 220,1040 180,1040"/>
<polygon id="0xdefc80" class="l126d0" points="180,1120 220,1120 220,1200 180,1200"/>
<polygon id="0xdefd40" class="l126d0" points="260,160 300,160 300,240 260,240"/>
<polygon id="0xef4320" class="l126d0" points="260,400 300,400 300,640 260,640"/>
<polygon id="0xef43e0" class="l126d0" points="260,880 300,880 300,960 260,960"/>
<polygon id="0xce4d90" class="l126d0" points="340,0 380,0 380,480 340,480"/>
<polygon id="0xce4e50" class="l126d0" points="340,720 380,720 380,800 340,800"/>
<polygon id="0xe403f0" class="l126d0" points="340,880 380,880 380,960 340,960"/>
<polygon id="0xe404b0" class="l126d0" points="340,1120 380,1120 380,1200 340,1200"/>
<polygon id="0xe96b50" class="l126d0" points="420,160 460,160 460,480 420,480"/>
<polygon id="0xe96c10" class="l126d0" points="420,560 460,560 460,640 420,640"/>
<polygon id="0xbf1e70" class="l126d0" points="420,720 460,720 460,800 420,800"/>
<polygon id="0xbf1f30" class="l126d0" points="420,880 460,880 460,1040 420,1040"/>
<polygon id="0xe85c70" class="l126d0" points="500,160 540,160 540,240 500,240"/>
<polygon id="0xe85d30" class="l126d0" points="500,320 540,320 540,400 500,400"/>
<polygon id="0xebcdd0" class="l126d0" points="500,480 540,480 540,640 500,640"/>
<polygon id="0xc92eb0" class="l126d0" points="500,720 540,720 540,880 500,880"/>
<polygon id="0xc92f70" class="l126d0" points="500,960 540,960 540,1040 500,1040"/>
<polygon id="0xcb4690" class="l126d0" points="580,0 620,0 620,80 580,80"/>
<polygon id="0xcbe6a0" class="l126d0" points="580,240 620,240 620,320 580,320"/>
<polygon id="0xcbe710" class="l126d0" points="580,400 620,400 620,560 580,560"/>
<polygon id="0xcf70f0" class="l126d0" points="580,720 620,720 620,960 580,960"/>
<polygon id="0xcf71b0" class="l126d0" points="580,1040 620,1040 620,1200 580,1200"/>
<polygon id="0xce10f0" class="l126d0" points="660,0 700,0 700,320 660,320"/>
<polygon id="0xd13240" class="l126d0" points="660,560 700,560 700,640 660,640"/>
<polygon id="0xd132b0" class="l126d0" points="660,720 700,720 700,800 660,800"/>
<polygon id="0xdfad10" class="l126d0" points="660,880 700,880 700,1040 660,1040"/>
<polygon id="0xdfadd0" class="l126d0" points="660,1120 700,1120 700,1200 660,1200"/>
<polygon id="0xe4abc0" class="l126d0" points="740,0 780,0 780,80 740,80"/>
<polygon id="0xec0220" class="l126d0" points="740,160 780,160 780,400 740,400"/>
<polygon id="0xec0290" class="l126d0" points="740,480 780,480 780,560 740,560"/>
<polygon id="0xeff840" class="l126d0" points="740,640 780,640 780,720 740,720"/>
<polygon id="0xeff900" class="l126d0" points="740,800 780,800 780,880 740,880"/>
<polygon id="0xcb28f0" class="l126d0" points="740,1040 780,1040 780,1200 740,1200"/>
<polygon id="0xca46b0" class="l126d0" points="820,80 860,80 860,160 820,160"/>
<polygon id="0xca4770" class="l126d0" points="820,320 860,320 860,480 820,480"/>
<polygon id="0xd82aa0" class="l126d0" points="820,560 860,560 860,640 820,640"/>
<polygon id="0xd82b60" class="l126d0" points="820,720 860,720 860,1040 820,1040"/>
<polygon id="0xdf02e0" class="l126d0" points="820,1120 860,1120 860,1200 820,1200"/>
<polygon id="0xdfe860" class="l126d0" points="900,80 940,80 940,320 900,320"/>
<polygon id="0xdfe920" class="l126d0" points="900,480 940,480 940,560 900,560"/>
<polygon id="0xe59440" class="l126d0" points="900,880 940,880 940,1040 900,1040"/>
<polygon id="0xe59500" class="l126d0" points="980,80 1020,80 1020,160 980,160"/>
<polygon id="0xe73500" class="l126d0" points="980,320 1020,320 1020,480 980,480"/>
<polygon id="0xcb0ad0" class="l126d0" points="980,560 1020,560 1020,640 980,640"/>
<polygon id="0xcb0b90" class="l126d0" points="980,800 1020,800 1020,880 980,880"/>
<polygon id="0xcf0040" class="l126d0" points="980,1040 1020,1040 1020,1120 980,1120"/>
<polygon id="0xcf0100" class="l126d0" points="1060,80 1100,80 1100,160 1060,160"/>
<polygon id="0xd3b2f0" class="l126d0" points="1060,400 1100,400 1100,720 1060,720"/>
<polygon id="0xd3b3b0" class="l126d0" points="1060,800 1100,800 1100,960 1060,960"/>
<polygon id="0xd606c0" class="l126d0" points="1060,1040 1100,1040 1100,1200 1060,1200"/>
<polygon id="0xd60780" class="l126d0" points="1140,0 1180,0 1180,80 1140,80"/>
<polygon id="0xdcdc00" class="l126d0" points="1140,160 1180,160 1180,240 1140,240"/>
<polygon id="0xdcdcc0" class="l126d0" points="1140,400 1180,400 1180,560 1140,560"/>
<polygon id="0xe506c0" class="l126d0" points="1140,640 1180,640 1180,720 1140,720"/>
<polygon id="0xe50780" class="l126d0" points="1140,960 1180,960 1180,1040 1140,1040"/>
<polygon id="0xe5e2b0" class="l126d0" points="1140,1120 1180,1120 1180,1200 1140,1200"/>
<polygon id="0xe5e370" class="l126d0" points="1220,0 1260,0 1260,400 1220,400"/>
<polygon id="0xe81ab0" class="l126d0" points="1220,480 1260,480 1260,560 1220,560"/>
<polygon id="0xe81b70" class="l126d0" points="1220,640 1260,640 1260,960 1220,960"/>
<polygon id="0xeee710" class="l126d0" points="1220,1120 1260,1120 1260,1200 1220,1200"/>
<polygon id="0xeee7d0" class="l126d0" points="1300,0 1340,0 1340,80 1300,80"/>
<polygon id="0xcdfe20" class="l126d0" points="1300,160 1340,160 1340,320 1300,320"/>
<polygon id="0xcdfee0" class="l126d0" points="1300,560 1340,560 1340,880 1300,880"/>
<polygon id="0xd1a8d0" class="l126d0" points="1300,960 1340,960 1340,1120 1300,1120"/>
<polygon id="0xd1a990" class="l126d0" points="1380,240 1420,240 1420,400 1380,400"/>
<polygon id="0xd33a40" class="l126d0" points="1380,560 1420,560 1420,640 1380,640"/>
<polygon id="0xd33b00" class="l126d0" points="1380,960 1420,960 1420,1040 1380,1040"/>
<polygon id="0xd81cb0" class="l126d0" points="1380,1120 1420,1120 1420,1200 1380,1200"/>
<polygon id="0xd81d70" class="l126d0" points="1460,0 1500,0 1500,160 1460,160"/>
<polygon id="0xd85220" class="l126d0" points="1460,240 1500,240 1500,480 1460,480"/>
<polygon id="0xd852e0" class="l126d0" points="1460,560 1500,560 1500,640 1460,640"/>
<polygon id="0xd62910" class="l126d0" points="1460,720 1500,720 1500,800 1460,800"/>
<polygon id="0xd629d0" class="l126d0" points="1460,1040 1500,1040 1500,1200 1460,1200"/>
<polygon id="0xe052d0" class="l126d0" points="1540,0 1580,0 1580,160 1540,160"/>
<polygon id="0xe05390" class="l126d0" points="1540,240 1580,240 1580,400 1540,400"/>
<polygon id="0xe10430" class="l126d0" points="1540,480 1580,480 1580,560 1540,560"/>
<polygon id="0xe104f0" class="l126d0" points="1540,880 1580,880 1580,960 1540,960"/>
<polygon id="0xcdd640" class="l126d0" points="1540,1040 1580,1040 1580,1200 1540,1200"/>
<polygon id="0xcdd700" class="l189d4" points="0,0 300,0 300,300 0,300"/>
<polygon id="0xcdd770" class="l1d0" points="10,10 70,10 70,70 10,70"/>
<polygon id="0xcf3450" class="l1d0" points="10,90 70,90 70,150 10,150"/>
<polygon id="0xcf3510" class="l1d0" points="10,170 70,170 70,230 10,230"/>
<polygon id="0xcf1830" class="l1d0" points="10,250 70,250 70,310 10,310"/>
<polygon id="0xcf18f0" class="l1d0" points="10,330 70,330 70,390 10,390"/>
<polygon id="0xd03e30" class="l1d0" points="10,410 70,410 70,470 10,470"/>
<polygon id="0xd03ef0" class="l1d0" points="10,490 70,490 70,550 10,550"/>
<polygon id="0xd4c170" class="l1d0" points="10,570 70,570 70,630 10,630"/>
<polygon id="0xd4c230" class="l1d0" points="10,650 70,650 70,710 10,710"/>
<polygon id="0xd42cd0" class="l1d0" points="10,730 70,730 70,790 10,790"/>
<polygon id="0xd42d90" class="l1d0" points="10,810 70,810 70,870 10,870"/>
<polygon id="0xee48a0" class="l1d0" points="10,890 70,890 70,950 10,950"/>
<polygon id="0xee4960" class="l1d0" points="10,970 70,970 70,1030 10,1030"/>
<polygon id="0xc51780" class="l1d0" points="10,1050 70,1050 70,1110 10,1110"/>
<polygon id="0xc51840" class="l1d0" points="10,1130 70,1130 70,1190 10,1190"/>
<polygon id="0xc9b8d0" class="l1d0" points="90,10 150,10 150,70 90,70"/>
<polygon id="0xc9b990" class="l1d0" points="90,90 150,90 150,150 90,150"/>
<polygon id="0xcde180" class="l1d0" points="90,170 150,170 150,230 90,230"/>
<polygon id="0xcde240" class="l1d0" points="90,250 150,250 150,310 90,310"/>
<polygon id="0xced970" class="l1d0" points="90,330 150,330 150,390 90,390"/>
<polygon id="0xceda30" class="l1d0" points="90,410 150,410 150,470 90,470"/>
<polygon id="0xdc8410" class="l1d0" points="90,490 150,490 150,550 90,550"/>
<polygon id="0xdc84d0" class="l1d0" points="90,570 150,570 150,630 90,630"/>
<polygon id="0xe39d90" class="l1d0" points="90,650 150,650 150,710 90,710"/>
<polygon id="0xe39e50" class="l1d0" points="90,730 150,730 150,790 90,790"/>
<polygon id="0xcb2420" class="l1d0" points="90,810 150,810 150,870 90,870"/>
<polygon id="0xcb24e0" class="l1d0" points="90,890 150,890 150,950 90,950"/>
<polygon id="0xd8dd30" class="l1d0" points="90,970 150,970 150,1030 90,1030"/>
<polygon id="0xd8ddf0" class="l1d0" points="90,1050 150,1050 150,1110 90,1110"/>
<polygon id="0xdd03a0" class="l1d0" points="90,1130 150,1130 150,1190 90,1190"/>
<polygon id="0xdd0460" class="l1d0" points="170,10 230,10 230,70 170,70"/>
<polygon id="0xe2a570" class="l1d0" points="170,90 230,90 230,150 170,150"/>
<polygon id="0xe2a630" class="l1d0" points="170,170 230,170 230,230 170,230"/>
<polygon id="0xe07960" class="l1d0" points="170,250 230,250 230,310 170,310"/>
<polygon id="0xe07a20" class="l1d0" points="170,330 230,330 230,390 170,390"/>
<polygon id="0xe6c270" class="l1d0" points="170,410 230,410 230,470 170,470"/>
<polygon id="0xe6c330" class="l1d0" points="170,490 230,490 230,550 170,550"/>
<polygon id="0xcb3060" class="l1d0" points="170,570 230,570 230,630 170,630"/>
<polygon id="0xcb3120" class="l1d0" points="170,650 230,650 230,710 170,710"/>
<polygon id="0xe52ff0" class="l1d0" points="170,730 230,730 230,790 170,790"/>
<polygon id="0xe530b0" class="l1d0" points="170,810 230,810 230,870 170,870"/>
<polygon id="0xe956e0" class="l1d0" points="170,890 230,890 230,950 170,950"/>
<polygon id="0xe95750" class="l1d0" points="170,970 230,970 230,1030 170,1030"/>
<polygon id="0xe95810" class="l1d0" points="170,1050 230,1050 230,1110 170,1110"/>
<polygon id="0xeaed90" class="l1d0" points="170,1130 230,1130 230,1190 170,1190"/>
<polygon id="0xeaee50" class="l1d0" points="250,10 310,10 310,70 250,70"/>
<polygon id="0xd965f0" class="l1d0" points="250,90 310,90 310,150 250,150"/>
<polygon id="0xd966b0" class="l1d0" points="250,170 310,170 310,230 250,230"/>
<polygon id="0xdfc5e0" class="l1d0" points="250,250 310,250 310,310 250,310"/>
<polygon id="0xdfc6a0" class="l1d0" points="250,330 310,330 310,390 250,390"/>
<polygon id="0xeab7b0" class="l1d0" points="250,410 310,410 310,470 250,470"/>
<polygon id="0xeab870" class="l1d0" points="250,490 310,490 310,550 250,550"/>
<polygon id="0xecc900" class="l1d0" points="250,570 310,570 310,630 250,630"/>
<polygon id="0xecc9c0" class="l1d0" points="250,650 310,650 310,710 250,710"/>
<polygon id="0xc52930" class="l1d0" points="250,730 310,730 310,790 250,790"/>
<polygon id="0xc529f0" class="l1d0" points="250,810 310,810 310,870 250,870"/>
<polygon id="0xd31000" class="l1d0" points="250,890 310,890 310,950 250,950"/>
<polygon id="0xd310c0" class="l1d0" points="250,970 310,970 310,1030 250,1030"/>
<polygon id="0xd31180" class="l1d0" points="250,1050 310,1050 310,1110 250,1110"/>
<polygon id="0xd4b020" class="l1d0" points="250,1130 310,1130 310,1190 250,1190"/>
<polygon id="0xd4b0e0" class="l1d0" points="330,10 390,10 390,70 330,70"/>
<polygon id="0xd4b1a0" class="l1d0" points="330,90 390,90 390,150 330,150"/>
<polygon id="0xd59ca0" class="l1d0" points="330,170 390,170 390,230 330,230"/>
<polygon id="0xd59d60" class="l1d0" points="330,250 390,250 390,310 330,310"/>
<polygon id="0xd59e20" class="l1d0" points="330,330 390,330 390,390 330,390"/>
<polygon id="0xe10e00" class="l1d0" points="330,410 390,410 390,470 330,470"/>
<polygon id="0xe10ec0" class="l1d0" points="330,490 390,490 390,550 330,550"/>
<polygon id="0xe10f80" class="l1d0" points="330,570 390,570 390,630 330,630"/>
<polygon id="0xe7f6c0" class="l1d0" points="330,650 390,650 390,710 330,710"/>
<polygon id="0xe7f780" class="l1d0" points="330,730 390,730 390,790 330,790"/>
<polygon id="0xe7f840" class="l1d0" points="330,810 390,810 390,870 330,870"/>
<polygon id="0xbb8950" class="l1d0" points="330,890 390,890 390,950 330,950"/>
<polygon id="0xbb8a10" class="l1d0" points="330,970 390,970 390,1030 330,1030"/>
<polygon id="0xbb8ad0" class="l1d0" points="330,1050 390,1050 390,1110 330,1110"/>
<polygon id="0xd67180" class="l1d0" points="330,1130 390,1130 390,1190 330,1190"/>
<polygon id="0xd67240" class="l1d0" points="410,10 470,10 470,70 410,70"/>
<polygon id="0xe66350" class="l1d0" points="410,90 470,90 470,150 410,150"/>
<polygon id="0xe66410" class="l1d0" points="410,170 470,170 470,230 410,230"/>
<polygon id="0xe664d0" class="l1d0" points="410,250 470,250 470,310 410,310"/>
<polygon id="0xf02c10" class="l1d0" points="410,330 470,330 470,390 410,390"/>
<polygon id="0xf02cd0" class="l1d0" points="410,410 470,410 470,470 410,470"/>
<polygon id="0xf1f190" class="l1d0" points="410,490 470,490 470,550 410,550"/>
<polygon id="0xf1f200" class="l1d0" points="410,570 470,570 470,630 410,630"/>
<polygon id="0xf1f2c0" class="l1d0" points="410,650 470,650 470,710 410,710"/>
<polygon id="0xf1f380" class="l1d0" points="410,730 470,730 470,790 410,790"/>
<polygon id="0xf15e40" class="l1d0" points="410,810 470,810 470,870 410,870"/>
<polygon id="0xf15f00" class="l1d0" points="410,890 470,890 470,950 410,950"/>
<polygon id="0xf15fc0" class="l1d0" points="410,970 470,970 470,1030 410,1030"/>
<polygon id="0xf16080" class="l1d0" points="410,1050 470,1050 470,1110 410,1110"/>
<polygon id="0xf155e0" class="l1d0" points="410,1130 470,1130 470,1190 410,1190"/>
<polygon id="0xf156a0" class="l1d0" points="490,10 550,10 550,70 490,70"/>
<polygon id="0xf15760" class="l1d0" points="490,90 550,90 550,150 490,150"/>
<polygon id="0xf15820" class="l1d0" points="490,170 550,170 550,230 490,230"/>
<polygon id="0xf158e0" class="l1d0" points="490,250 550,250 550,310 490,310"/>
<polygon id="0xf159a0" class="l1d0" points="490,330 550,330 550,390 490,390"/>
<polygon id="0xf15a60" class="l1d0" points="490,410 550,410 550,470 490,470"/>
<polygon id="0xf15b20" class="l1d0" points="490,490 550,490 550,550 490,550"/>
<polygon id="0xf15be0" class="l1d0" points="490,570 550,570 550,630 490,630"/>
<polygon id="0xf15ca0" class="l1d0" points="490,650 550,650 550,710 490,710"/>
<polygon id="0xf15d60" class="l1d0" points="490,730 550,730 550,790 490,790"/>
<polygon id="0xf171a0" class="l1d0" points="490,810 550,810 550,870 490,870"/>
<polygon id="0xf17260" class="l1d0" points="490,890 550,890 550,950 490,950"/>
<polygon id="0xf17320" class="l1d0" points="490,970 550,970 550,1030 490,1030"/>
<polygon id="0xf173e0" class="l1d0" points="490,1050 550,1050 550,1110 490,1110"/>
<polygon id="0xf174a0" class="l1d0" points="490,1130 550,1130 550,1190 490,1190"/>
<polygon id="0xf17560" class="l1d0" points="570,10 630,10 630,70 570,70"/>
<polygon id="0xf17620" class="l1d0" points="570,90 630,90 630,150 570,150"/>
<polygon id="0xf176e0" class="l1d0" points="570,170 630,170 630,230 570,230"/>
<polygon id="0xf177a0" class="l1d0" points="570,250 630,250 630,310 570,310"/>
<polygon id="0xf17860" class="l1d0" points="570,330 630,330 630,390 570,390"/>
<polygon id="0xf17920" class="l1d0" points="570,410 630,410 630,470 570,470"/>
<polygon id="0xf179e0" class="l1d0" points="570,490 630,490 630,550 570,550"/>
<polygon id="0xf17aa0" class="l1d0" points="570,570 630,570 630,630 570,630"/>
<polygon id="0xf17b60" class="l1d0" points="570,650 630,650 630,710 570,710"/>
<polygon id="0xf17c20" class="l1d0" points="570,730 630,730 630,790 570,790"/>
<polygon id="0xf17ce0" class="l1d0" points="570,810 630,810 630,870 570,870"/>
<polygon id="0xf17da0" class="l1d0" points="570,890 630,890 630,950 570,950"/>
<polygon id="0xf17e60" class="l1d0" points="570,970 630,970 630,1030 570,1030"/>
<polygon id="0xf17f20" class="l1d0" points="570,1050 630,1050 630,1110 570,1110"/>
<polygon id="0xf17fe0" class="l1d0" points="570,1130 630,1130 630,1190 570,1190"/>
<polygon id="0xf180a0" class="l1d0" points="650,10 710,10 710,70 650,70"/>
<polygon id="0xf18160" class="l1d0" points="650,90 710,90 710,150 650,150"/>
<polygon id="0xf18220" class="l1d0" points="650,170 710,170 710,230 650,230"/>
<polygon id="0xf182e0" class="l1d0" points="650,250 710,250 710,310 650,310"/>
<polygon id="0xf183a0" class="l1d0" points="650,330 710,330 710,390 650,390"/>
<polygon id="0xf18460" class="l1d0" points="650,410 710,410 710,470 650,470"/>
<polygon id="0xf18520" class="l1d0" points="650,490 710,490 710,550 650,550"/>
<polygon id="0xf185e0" class="l1d0" points="650,570 710,570 710,630 650,630"/>
<polygon id="0xf186a0" class="l1d0" points="650,650 710,650 710,710 650,710"/>
<polygon id="0xf18760" class="l1d0" points="650,730 710,730 710,790 650,790"/>
<polygon id="0xf18820" class="l1d0" points="650,810 710,810 710,870 650,870"/>
<polygon id="0xf188e0" class="l1d0" points="650,890 710,890 710,950 650,950"/>
<polygon id="0xf189a0" class="l1d0" points="650,970 710,970 710,1030 650,1030"/>
<polygon id="0xf18a60" class="l1d0" points="650,1050 710,1050 710,1110 650,1110"/>
<polygon id="0xf18b20" class="l1d0" points="650,1130 710,1130 710,1190 650,1190"/>
<polygon id="0xf18be0" class="l1d0" points="730,10 790,10 790,70 730,70"/>
<polygon id="0xf18ca0" class="l1d0" points="730,90 790,90 790,150 730,150"/>
<polygon id="0xf18d60" class="l1d0" points="730,170 790,170 790,230 730,230"/>
<polygon id="0xf18e20" class="l1d0" points="730,250 790,250 790,310 730,310"/>
<polygon id="0xf18ee0" class="l1d0" points="730,330 790,330 790,390 730,390"/>
<polygon id="0xf18fa0" class="l1d0" points="730,410 790,410 790,470 730,470"/>
<polygon id="0xf19060" class="l1d0" points="730,490 790,490 790,550 730,550"/>
<polygon id="0xf19120" class="l1d0" points="730,570 790,570 790,630 730,630"/>
<polygon id="0xf191e0" class="l1d0" points="730,650 790,650 790,710 730,710"/>
<polygon id="0xf192a0" class="l1d0" points="730,730 790,730 790,790 730,790"/>
<polygon id="0xf19360" class="l1d0" points="730,810 790,810 790,870 730,870"/>
<polygon id="0xf19420" class="l1d0" points="730,890 790,890 790,950 730,950"/>
<polygon id="0xf194e0" class="l1d0" points="730,970 790,970 790,1030 730,1030"/>
<polygon id="0xf195a0" class="l1d0" points="730,1050 790,1050 790,1110 730,1110"/>
<polygon id="0xf19660" class="l1d0" points="730,1130 790,1130 790,1190 730,1190"/>
<polygon id="0xf19720" class="l1d0" points="810,10 870,10 870,70 810,70"/>
<polygon id="0xf197e0" class="l1d0" points="810,90 870,90 870,150 810,150"/>
<polygon id="0xf198a0" class="l1d0" points="810,170 870,170 870,230 810,230"/>
<polygon id="0xf19960" class="l1d0" points="810,250 870,250 870,310 810,310"/>
<polygon id="0xf19a20" class="l1d0" points="810,330 870,330 870,390 810,390"/>
<polygon id="0xf19ae0" class="l1d0" points="810,410 870,410 870,470 810,470"/>
<polygon id="0xf19ba0" class="l1d0" points="810,490 870,490 870,550 810,550"/>
<polygon id="0xf19c60" class="l1d0" points="810,570 870,570 870,630 810,630"/>
<polygon id="0xf19d20" class="l1d0" points="810,650 870,650 870,710 810,710"/>
<polygon id="0xf19de0" class="l1d0" points="810,730 870,730 870,790 810,790"/>
<polygon id="0xf19ea0" class="l1d0" points="810,810 870,810 870,870 810,870"/>
<polygon id="0xf19f60" class="l1d0" points="810,890 870,890 870,950 810,950"/>
<polygon id="0xf1a020" class="l1d0" points="810,970 870,970 870,1030 810,1030"/>
<polygon id="0xf1a0e0" class="l1d0" points="810,1050 870,1050 870,1110 810,1110"/>
<polygon id="0xf1a1a0" class="l1d0" points="810,1130 870,1130 870,1190 810,1190"/>
<polygon id="0xf1a260" class="l1d0" points="890,10 950,10 950,70 890,70"/>
<polygon id="0xf1a320" class="l1d0" points="890,90 950,90 950,150 890,150"/>
<polygon id="0xf1a3e0" class="l1d0" points="890,170 950,170 950,230 890,230"/>
<polygon id="0xf1a4a0" class="l1d0" points="890,250 950,250 950,310 890,310"/>
<polygon id="0xf1a560" class="l1d0" points="890,330 950,330 950,390 890,390"/>
<polygon id="0xf1a620" class="l1d0" points="890,410 950,410 950,470 890,470"/>
<polygon id="0xf1a6e0" class="l1d0" points="890,490 950,490 950,550 890,550"/>
<polygon id="0xf1a7a0" class="l1d0" points="890,570 950,570 950,630 890,630"/>
<polygon id="0xf1a860" class="l1d0" points="890,650 950,650 950,710 890,710"/>
<polygon id="0xf1a920" class="l1d0" points="890,730 950,730 950,790 890,790"/>
<polygon id="0xf1a9e0" class="l1d0" points="890,810 950,810 950,870 890,870"/>
<polygon id="0xf1aaa0" class="l1d0" points="890,890 950,890 950,950 890,950"/>
<polygon id="0xf1ab60" class="l1d0" points="890,970 950,970 950,1030 890,1030"/>
<polygon id="0xf1ac20" class="l1d0" points="890,1050 950,1050 950,1110 890,1110"/>
<polygon id="0xf1ace0" class="l1d0" points="890,1130 950,1130 950,1190 890,1190"/>
<polygon id="0xf1ada0" class="l1d0" points="970,10 1030,10 1030,70 970,70"/>
<polygon id="0xf1ae60" class="l1d0" points="970,90 1030,90 1030,150 970,150"/>
<polygon id="0xf1af20" class="l1d0" points="970,170 1030,170 1030,230 970,230"/>
<polygon id="0xf1afe0" class="l1d0" points="970,250 1030,250 1030,310 970,310"/>
<polygon id="0xf1b0a0" class="l1d0" points="970,330 1030,330 1030,390 970,390"/>
<polygon id="0xf1b160" class="l1d0" points="970,410 1030,410 1030,470 970,470"/>
<polygon id="0xf1b220" class="l1d0" points="970,490 1030,490 1030,550 970,550"/>
<polygon id="0xf1b2e0" class="l1d0" points="970,570 1030,570 1030,630 970,630"/>
<polygon id="0xf1b3a0" class="l1d0" points="970,650 1030,650 1030,710 970,710"/>
<polygon id="0xf1b460" class="l1d0" points="970,730 1030,730 1030,790 970,790"/>
<polygon id="0xf1b520" class="l1d0" points="970,810 1030,810 1030,870 970,870"/>
<polygon id="0xf1b5e0" class="l1d0" points="970,890 1030,890 1030,950 970,950"/>
<polygon id="0xf1b6a0" class="l1d0" points="970,970 1030,970 1030,1030 970,1030"/>
<polygon id="0xf1b760" class="l1d0" points="970,1050 1030,1050 1030,1110 970,1110"/>
<polygon id="0xf1b820" class="l1d0" points="970,1130 1030,1130 1030,1190 970,1190"/>
<polygon id="0xf1b8e0" class="l1d0" points="1050,10 1110,10 1110,70 1050,70"/>
<polygon id="0xf1b9a0" class="l1d0" points="1050,90 1110,90 1110,150 1050,150"/>
<polygon id="0xf1ba60" class="l1d0" points="1050,170 1110,170 1110,230 1050,230"/>
<polygon id="0xf1bb20" class="l1d0" points="1050,250 1110,250 1110,310 1050,310"/>
<polygon id="0xf1bbe0" class="l1d0" points="1050,330 1110,330 1110,390 1050,390"/>
<polygon id="0xf1bca0" class="l1d0" points="1050,410 1110,410 1110,470 1050,470"/>
<polygon id="0xf1bd60" class="l1d0" points="1050,490 1110,490 1110,550 1050,550"/>
<polygon id="0xf1be20" class="l1d0" points="1050,570 1110,570 1110,630 1050,630"/>
<polygon id="0xf1bee0" class="l1d0" points="1050,650 1110,650 1110,710 1050,710"/>
<polygon id="0xf1bfa0" class="l1d0" points="1050,730 1110,730 1110,790 1050,790"/>
<polygon id="0xf1c060" class="l1d0" points="1050,810 1110,810 1110,870 1050,870"/>
<polygon id="0xf1c120" class="l1d0" points="1050,890 1110,890 1110,950 1050,950"/>
<polygon id="0xf1c1e0" class="l1d0" points="1050,970 1110,970 1110,1030 1050,1030"/>
<polygon id="0xf1c2a0" class="l1d0" points="1050,1050 1110,1050 1110,1110 1050,1110"/>
<polygon id="0xf1c360" class="l1d0" points="1050,1130 1110,1130 1110,1190 1050,1190"/>
<polygon id="0xf1c420" class="l1d0" points="1130,10 1190,10 1190,70 1130,70"/>
<polygon id="0xf1c4e0" class="l1d0" points="1130,90 1190,90 1190,150 1130,150"/>
<polygon id="0xf1c5a0" class="l1d0" points="1130,170 1190,170 1190,230 1130,230"/>
<polygon id="0xf1c660" class="l1d0" points="1130,250 1190,250 1190,310 1130,310"/>
<polygon id="0xf1c720" class="l1d0" points="1130,330 1190,330 1190,390 1130,390"/>
<polygon id="0xf1c7e0" class="l1d0" points="1130,410 1190,410 1190,470 1130,470"/>
<polygon id="0xf1f750" class="l1d0" points="1130,490 1190,490 1190,550 1130,550"/>
<polygon id="0xf1f810" class="l1d0" points="1130,570 1190,570 1190,630 1130,630"/>
<polygon id="0xf1f8d0" class="l1d0" points="1130,650 1190,650 1190,710 1130,710"/>
<polygon id="0xf1f990" class="l1d0" points="1130,730 1190,730 1190,790 1130,790"/>
<polygon id="0xf1fa50" class="l1d0" points="1130,810 1190,810 1190,870 1130,870"/>
<polygon id="0xf1fb10" class="l1d0" points="1130,890 1190,890 1190,950 1130,950"/>
<polygon id="0xf1fbd0" class="l1d0" points="1130,970 1190,970 1190,1030 1130,1030"/>
<polygon id="0xf1fc90" class="l1d0" points="1130,1050 1190,1050 1190,1110 1130,1110"/>
<polygon id="0xf1fd50" class="l1d0" points="1130,1130 1190,1130 1190,1190 1130,1190"/>
<polygon id="0xf1fe10" class="l1d0" points="1210,10 1270,10 1270,70 1210,70"/>
<polygon id="0xf1fed0" class="l1d0" points="1210,90 1270,90 1270,150 1210,150"/>
<polygon id="0xf1ff90" class="l1d0" points="1210,170 1270,170 1270,230 1210,230"/>
<polygon id="0xf20050" class="l1d0" points="1210,250 1270,250 1270,310 1210,310"/>
<polygon id="0xf20110" class="l1d0" points="1210,330 1270,330 1270,390 1210,390"/>
<polygon id="0xf201d0" class="l1d0" points="1210,410 1270,410 1270,470 1210,470"/>
<polygon id="0xf20290" class="l1d0" points="1210,490 1270,490 1270,550 1210,550"/>
<polygon id="0xf20350" class="l1d0" points="1210,570 1270,570 1270,630 1210,630"/>
<polygon id="0xf20410" class="l1d0" points="1210,650 1270,650 1270,710 1210,710"/>
<polygon id="0xf204d0" class="l1d0" points="1210,730 1270,730 1270,790 1210,790"/>
<polygon id="0xf20590" class="l1d0" points="1210,810 1270,810 1270,870 1210,870"/>
<polygon id="0xf20650" class="l1d0" points="1210,890 1270,890 1270,950 1210,950"/>
<polygon id="0xf20710" class="l1d0" points="1210,970 1270,970 1270,1030 1210,1030"/>
<polygon id="0xf207d0" class="l1d0" points="1210,1050 1270,1050 1270,1110 1210,1110"/>
<polygon id="0xf20890" class="l1d0" points="1210,1130 1270,1130 1270,1190 1210,1190"/>
<polygon id="0xf20950" class="l1d0" points="1290,10 1350,10 1350,70 1290,70"/>
<polygon id="0xf20a10" class="l1d0" points="1290,90 1350,90 1350,150 1290,150"/>
<polygon id="0xf20ad0" class="l1d0" points="1290,170 1350,170 1350,230 1290,230"/>
<polygon id="0xf20b90" class="l1d0" points="1290,250 1350,250 1350,310 1290,310"/>
<polygon id="0xf20c50" class="l1d0" points="1290,330 1350,330 1350,390 1290,390"/>
<polygon id="0xf20d10" class="l1d0" points="1290,410 1350,410 1350,470 1290,470"/>
<polygon id="0xf20dd0" class="l1d0" points="1290,490 1350,490 1350,550 1290,550"/>
<polygon id="0xf20e90" class="l1d0" points="1290,570 1350,570 1350,630 1290,630"/>
<polygon id="0xf20f50" class="l1d0" points="1290,650 1350,650 1350,710 1290,710"/>
<polygon id="0xf21010" class="l1d0" points="1290,730 1350,730 1350,790 1290,790"/>
<polygon id="0xf210d0" class="l1d0" points="1290,810 1350,810 1350,870 1290,870"/>
<polygon id="0xf21190" class="l1d0" points="1290,890 1350,890 1350,950 1290,950"/>
<polygon id="0xf21250" class="l1d0" points="1290,970 1350,970 1350,1030 1290,1030"/>
<polygon id="0xf21310" class="l1d0" points="1290,1050 1350,1050 1350,1110 1290,1110"/>
<polygon id="0xf213d0" class="l1d0" points="1290,1130 1350,1130 1350,1190 1290,1190"/>
<polygon id="0xf21490" class="l1d0" points="1370,10 1430,10 1430,70 1370,70"/>
<polygon id="0xf21550" class="l1d0" points="1370,90 1430,90 1430,150 1370,150"/>
<polygon id="0xf21610" class="l1d0" points="1370,170 1430,170 1430,230 1370,230"/>
<polygon id="0xf216d0" class="l1d0" points="1370,250 1430,250 1430,310 1370,310"/>
<polygon id="0xf21790" class="l1d0" points="1370,330 1430,330 1430,390 1370,390"/>
<polygon id="0xf21850" class="l1d0" points="1370,410 1430,410 1430,470 1370,470"/>
<polygon id="0xf21910" class="l1d0" points="1370,490 1430,490 1430,550 1370,550"/>
<polygon id="0xf219d0" class="l1d0" points="1370,570 1430,570 1430,630 1370,630"/>
<polygon id="0xf21a90" class="l1d0" points="1370,650 1430,650 1430,710 1370,710"/>
<polygon id="0xf21b50" class="l1d0" points="1370,730 1430,730 1430,790 1370,790"/>
<polygon id="0xf21c10" class="l1d0" points="1370,810 1430,810 1430,870 1370,870"/>
<polygon id="0xf21cd0" class="l1d0" points="1370,890 1430,890 1430,950 1370,950"/>
<polygon id="0xf21d90" class="l1d0" points="1370,970 1430,970 1430,1030 1370,1030"/>
<polygon id="0xf21e50" class="l1d0" points="1370,1050 1430,1050 1430,1110 1370,1110"/>
<polygon id="0xf21f10" class="l1d0" points="1370,1130 1430,1130 1430,1190 1370,1190"/>
<polygon id="0xf21fd0" class="l1d0" points="1450,10 1510,10 1510,70 1450,70"/>
<polygon id="0xf22090" class="l1d0" points="1450,90 1510,90 1510,150 1450,150"/>
<polygon id="0xf22150" class="l1d0" points="1450,170 1510,170 1510,230 1450,230"/>
<polygon id="0xf22210" class="l1d0" points="1450,250 1510,250 1510,310 1450,310"/>
<polygon id="0xf222d0" class="l1d0" points="1450,330 1510,330 1510,390 1450,390"/>
<polygon id="0xf22390" class="l1d0" points="1450,410 1510,410 1510,470 1450,470"/>
<polygon id="0xf22450" class="l1d0" points="1450,490 1510,490 1510,550 1450,550"/>
<polygon id="0xf22510" class="l1d0" points="1450,570 1510,570 1510,630 1450,630"/>
<polygon id="0xf225d0" class="l1d0" points="1450,650 1510,650 1510,710 1450,710"/>
<polygon id="0xf22690" class="l1d0" points="1450,730 1510,730 1510,790 1450,790"/>
<polygon id="0xf22750" class="l1d0" points="1450,810 1510,810 1510,870 1450,870"/>
<polygon id="0xf22810" class="l1d0" points="1450,890 1510,890 1510,950 1450,950"/>
<polygon id="0xf228d0" class="l1d0" points="1450,970 1510,970 1510,1030 1450,1030"/>
<polygon id="0xf22990" class="l1d0" points="1450,1050 1510,1050 1510,1110 1450,1110"/>
<polygon id="0xf22a50" class="l1d0" points="1450,1130 1510,1130 1510,1190 1450,1190"/>
<polygon id="0xf22b10" class="l1d0" points="1530,10 1590,10 1590,70 1530,70"/>
<polygon id="0xf22bd0" class="l1d0" points="1530,90 1590,90 1590,150 1530,150"/>
<polygon id="0xf22c90" class="l1d0" points="1530,170 1590,170 1590,230 1530,230"/>
<polygon id="0xf22d50" class="l1d0" points="1530,250 1590,250 1590,310 1530,310"/>
<polygon id="0xf22e10" class="l1d0" points="1530,330 1590,330 1590,390 1530,390"/>
<polygon id="0xf22ed0" class="l1d0" points="1530,410 1590,410 1590,470 1530,470"/>
<polygon id="0xf22f90" class="l1d0" points="1530,490 1590,490 1590,550 1530,550"/>
<polygon id="0xf23050" class="l1d0" points="1530,570 1590,570 1590,630 1530,630"/>
<polygon id="0xf23110" class="l1d0" points="1530,650 1590,650 1590,710 1530,710"/>
<polygon id="0xf231d0" class="l1d0" points="1530,730 1590,730 1590,790 1530,790"/>
<polygon id="0xf23290" class="l1d0" points="1530,810 1590,810 1590,870 1530,870"/>
<polygon id="0xf23350" class="l1d0" points="1530,890 1590,890 1590,950 1530,950"/>
<polygon id="0xf23410" class="l1d0" points="1530,970 1590,970 1590,1030 1530,1030"/>
<polygon id="0xf234d0" class="l1d0" points="1530,1050 1590,1050 1590,1110 1530,1110"/>
<polygon id="0xf23590" class="l1d0" points="1530,1130 1590,1130 1590,1190 1530,1190"/>
<polygon id="0xf23650" class="l5d0" points="10,10 70,10 70,70 10,70"/>
<polygon id="0xf23710" class="l5d0" points="10,90 70,90 70,150 10,150"/>
<polygon id="0xf237d0" class="l5d0" points="10,170 70,170 70,230 10,230"/>
<polygon id="0xf23890" class="l5d0" points="10,250 70,250 70,310 10,310"/>
<polygon id="0xf23950" class="l5d0" points="10,330 70,330 70,390 10,390"/>
<polygon id="0xf23a10" class="l5d0" points="10,410 70,410 70,470 10,470"/>
<polygon id="0xf23ad0" class="l5d0" points="10,490 70,490 70,550 10,550"/>
<polygon id="0xf23b90" class="l5d0" points="10,570 70,570 70,630 10,630"/>
<polygon id="0xf23c50" class="l5d0" points="10,650 70,650 70,710 10,710"/>
<polygon id="0xf23d10" class="l5d0" points="10,730 70,730 70,790 10,790"/>
<polygon id="0xf23dd0" class="l5d0" points="10,810 70,810 70,870 10,870"/>
<polygon id="0xf23e90" class="l5d0" points="10,890 70,890 70,950 10,950"/>
<polygon id="0xf23f50" class="l5d0" points="10,970 70,970 70,1030 10,1030"/>
<polygon id="0xf24010" class="l5d0" points="10,1050 70,1050 70,1110 10,1110"/>
<polygon id="0xf240d0" class="l5d0" points="10,1130 70,1130 70,1190 10,1190"/>
<polygon id="0xf24190" class="l5d0" points="90,10 150,10 150,70 90,70"/>
<polygon id="0xf24250" class="l5d0" points="90,90 150,90 150,150 90,150"/>
<polygon id="0xf24310" class="l5d0" points="90,170 150,170 150,230 90,230"/>
<polygon id="0xf243d0" class="l5d0" points="90,250 150,250 150,310 90,310"/>
<polygon id="0xf24490" class="l5d0" points="90,330 150,330 150,390 90,390"/>
<polygon id="0xf24550" class="l5d0" points="90,410 150,410 150,470 90,470"/>
<polygon id="0xf24610" class="l5d0" points="90,490 150,490 150,550 90,550"/>
<polygon id="0xf246d0" class="l5d0" points="90,570 150,570 150,630 90,630"/>
<polygon id="0xf24790" class="l5d0" points="90,650 150,650 150,710 90,710"/>
<polygon id="0xf24850" class="l5d0" points="90,730 150,730 150,790 90,790"/>
<polygon id="0xf24910" class="l5d0" points="90,810 150,810 150,870 90,870"/>
<polygon id="0xf249d0" class="l5d0" points="90,890 150,890 150,950 90,950"/>
<polygon id="0xf24a90" class="l5d0" points="90,970 150,970 150,1030 90,1030"/>
<polygon id="0xf24b50" class="l5d0" points="90,1050 150,1050 150,1110 90,1110"/>
<polygon id="0xf24c10" class="l5d0" points="90,1130 150,1130 150,1190 90,1190"/>
<polygon id="0xf24cd0" class="l5d0" points="170,10 230,10 230,70 170,70"/>
<polygon id="0xf24d90" class="l5d0" points="170,90 230,90 230,150 170,150"/>
<polygon id="0xf24e50" class="l5d0" points="170,170 230,170 230,230 170,230"/>
<polygon id="0xf24f10" class="l5d0" points="170,250 230,250 230,310 170,310"/>
<polygon id="0xf24fd0" class="l5d0" points="170,330 230,330 230,390 170,390"/>
<polygon id="0xf25090" class="l5d0" points="170,410 230,410 230,470 170,470"/>
<polygon id="0xf25150" class="l5d0" points="170,490 230,490 230,550 170,550"/>
<polygon id="0xf25210" class="l5d0" points="170,570 230,570 230,630 170,630"/>
<polygon id="0xf252d0" class="l5d0" points="170,650 230,650 230,710 170,710"/>
<polygon id="0xf25390" class="l5d0" points="170,730 230,730 230,790 170,790"/>
<polygon id="0xf25450" class="l5d0" points="170,810 230,810 230,870 170,870"/>
<polygon id="0xf25510" class="l5d0" points="170,890 230,890 230,950 170,950"/>
<polygon id="0xf255d0" class="l5d0" points="170,970 230,970 230,1030 170,1030"/>
<polygon id="0xf25690" class="l5d0" points="170,1050 230,1050 230,1110 170,1110"/>
<polygon id="0xf25750" class="l5d0" points="170,1130 230,1130 230,1190 170,1190"/>
<polygon id="0xf16140" class="l5d0" points="250,10 310,10 310,70 250,70"/>
<polygon id="0xf16200" class="l5d0" points="250,90 310,90 310,150 250,150"/>
<polygon id="0xf162c0" class="l5d0" points="250,170 310,170 310,230 250,230"/>
<polygon id="0xf16380" class="l5d0" points="250,250 310,250 310,310 250,310"/>
<polygon id="0xf16440" class="l5d0" points="250,330 310,330 310,390 250,390"/>
<polygon id="0xf16500" class="l5d0" points="250,410 310,410 310,470 250,470"/>
<polygon id="0xf165c0" class="l5d0" points="250,490 310,490 310,550 250,550"/>
<polygon id="0xf16680" class="l5d0" points="250,570 310,570 310,630 250,630"/>
<polygon id="0xf16740" class="l5d0" points="250,650 310,650 310,710 250,710"/>
<polygon id="0xf16800" class="l5d0" points="250,730 310,730 310,790 250,790"/>
<polygon id="0xf168c0" class="l5d0" points="250,810 310,810 310,870 250,870"/>
<polygon id="0xf16980" class="l5d0" points="250,890 310,890 310,950 250,950"/>
<polygon id="0xf16a40" class="l5d0" points="250,970 310,970 310,1030 250,1030"/>
<polygon id="0xf16b00" class="l5d0" points="250,1050 310,1050 310,1110 250,1110"/>
<polygon id="0xf16bc0" class="l5d0" points="250,1130 310,1130 310,1190 250,1190"/>
<polygon id="0xf16c80" class="l5d0" points="330,10 390,10 390,70 330,70"/>
<polygon id="0xf16d40" class="l5d0" points="330,90 390,90 390,150 330,150"/>
<polygon id="0xf16e00" class="l5d0" points="330,170 390,170 390,230 330,230"/>
<polygon id="0xf16ec0" class="l5d0" points="330,250 390,250 390,310 330,310"/>
<polygon id="0xf16f80" class="l5d0" points="330,330 390,330 390,390 330,390"/>
<polygon id="0xf17040" class="l5d0" points="330,410 390,410 390,470 330,470"/>
<polygon id="0xf27820" class="l5d0" points="330,490 390,490 390,550 330,550"/>
<polygon id="0xf27890" class="l5d0" points="330,570 390,570 390,630 330,630"/>
<polygon id="0xf27950" class="l5d0" points="330,650 390,650 390,710 330,710"/>
<polygon id="0xf27a10" class="l5d0" points="330,730 390,730 390,790 330,790"/>
<polygon id="0xf27ad0" class="l5d0" points="330,810 390,810 390,870 330,870"/>
<polygon id="0xf27b90" class="l5d0" points="330,890 390,890 390,950 330,950"/>
<polygon id="0xf27c50" class="l5d0" points="330,970 390,970 390,1030 330,1030"/>
<polygon id="0xf27d10" class="l5d0" points="330,1050 390,1050 390,1110 330,1110"/>
<polygon id="0xf27dd0" class="l5d0" points="330,1130 390,1130 390,1190 330,1190"/>
<polygon id="0xf27e90" class="l5d0" points="410,10 470,10 470,70 410,70"/>
<polygon id="0xf27f50" class="l5d0" points="410,90 470,90 470,150 410,150"/>
<polygon id="0xf28010" class="l5d0" points="410,170 470,170 470,230 410,230"/>
<polygon id="0xf280d0" class="l5d0" points="410,250 470,250 470,310 410,310"/>
<polygon id="0xf28190" class="l5d0" points="410,330 470,330 470,390 410,390"/>
<polygon id="0xf28250" class="l5d0" points="410,410 470,410 470,470 410,470"/>
<polygon id="0xf28310" class="l5d0" points="410,490 470,490 470,550 410,550"/>
<polygon id="0xf283d0" class="l5d0" points="410,570 470,570 470,630 410,630"/>
<polygon id="0xf28490" class="l5d0" points="410,650 470,650 470,710 410,710"/>
<polygon id="0xf28550" class="l5d0" points="410,730 470,730 470,790 410,790"/>
<polygon id="0xf28610" class="l5d0" points="410,810 470,810 470,870 410,870"/>
<polygon id="0xf286d0" class="l5d0" points="410,890 470,890 470,950 410,950"/>
<polygon id="0xf28790" class="l5d0" points="410,970 470,970 470,1030 410,1030"/>
<polygon id="0xf28850" class="l5d0" points="410,1050 470,1050 470,1110 410,1110"/>
<polygon id="0xf28910" class="l5d0" points="410,1130 470,1130 470,1190 410,1190"/>
<polygon id="0xf289d0" class="l5d0" points="490,10 550,10 550,70 490,70"/>
<polygon id="0xf28a90" class="l5d0" points="490,90 550,90 550,150 490,150"/>
<polygon id="0xf28b50" class="l5d0" points="490,170 550,170 550,230 490,230"/>
<polygon id="0xf28c10" class="l5d0" points="490,250 550,250 550,310 490,310"/>
<polygon id="0xf28cd0" class="l5d0" points="490,330 550,330 550,390 490,390"/>
<polygon id="0xf28d90" class="l5d0" points="490,410 550,410 550,470 490,470"/>
<polygon id="0xf28e50" class="l5d0" points="490,490 550,490 550,550 490,550"/>
<polygon id="0xf28f10" class="l5d0" points="490,570 550,570 550,630 490,630"/>
<polygon id="0xf28fd0" class="l5d0" points="490,650 550,650 550,710 490,710"/>
<polygon id="0xf29090" class="l5d0" points="490,730 550,730 550,790 490,790"/>
<polygon id="0xf29150" class="l5d0" points="490,810 550,810 550,870 490,870"/>
<polygon id="0xf29210" class="l5d0" points="490,890 550,890 550,950 490,950"/>
<polygon id="0xf292d0" class="l5d0" points="490,970 550,970 550,1030 490,1030"/>
<polygon id="0xf29390" class="l5d0" points="490,1050 550,1050 550,1110 490,1110"/>
<polygon id="0xf29450" class="l5d0" points="490,1130 550,1130 550,1190 490,1190"/>
<polygon id="0xf29510" class="l5d0" points="570,10 630,10 630,70 570,70"/>
<polygon id="0xf295d0" class="l5d0" points="570,90 630,90 630,150 570,150"/>
<polygon id="0xf29690" class="l5d0" points="570,170 630,170 630,230 570,230"/>
<polygon id="0xf29750" class="l5d0" points="570,250 630,250 630,310 570,310"/>
<polygon id="0xf29810" class="l5d0" points="570,330 630,330 630,390 570,390"/>
<polygon id="0xf298d0" class="l5d0" points="570,410 630,410 630,470 570,470"/>
<polygon id="0xf29990" class="l5d0" points="570,490 630,490 630,550 570,550"/>
<polygon id="0xf29a50" class="l5d0" points="570,570 630,570 630,630 570,630"/>
<polygon id="0xf29b10" class="l5d0" points="570,650 630,650 630,710 570,710"/>
<polygon id="0xf29bd0" class="l5d0" points="570,730 630,730 630,790 570,790"/>
<polygon id="0xf29c90" class="l5d0" points="570,810 630,810 630,870 570,870"/>
<polygon id="0xf29d50" class="l5d0" points="570,890 630,890 630,950 570,950"/>
<polygon id="0xf29e10" class="l5d0" points="570,970 630,970 630,1030 570,1030"/>
<polygon id="0xf29ed0" class="l5d0" points="570,1050 630,1050 630,1110 570,1110"/>
<polygon id="0xf29f90" class="l5d0" points="570,1130 630,1130 630,1190 570,1190"/>
<polygon id="0xf2a050" class="l5d0" points="650,10 710,10 710,70 650,70"/>
<polygon id="0xf2a110" class="l5d0" points="650,90 710,90 710,150 650,150"/>
<polygon id="0xf2a1d0" class="l5d0" points="650,170 710,170 710,230 650,230"/>
<polygon id="0xf2a290" class="l5d0" points="650,250 710,250 710,310 650,310"/>
<polygon id="0xf2a350" class="l5d0" points="650,330 710,330 710,390 650,390"/>
<polygon id="0xf2a410" class="l5d0" points="650,410 710,410 710,470 650,470"/>
<polygon id="0xf2a4d0" class="l5d0" points="650,490 710,490 710,550 650,550"/>
<polygon id="0xf2a590" class="l5d0" points="650,570 710,570 710,630 650,630"/>
<polygon id="0xf2a650" class="l5d0" points="650,650 710,650 710,710 650,710"/>
<polygon id="0xf2a710" class="l5d0" points="650,730 710,730 710,790 650,790"/>
<polygon id="0xf2a7d0" class="l5d0" points="650,810 710,810 710,870 650,870"/>
<polygon id="0xf2a890" class="l5d0" points="650,890 710,890 710,950 650,950"/>
<polygon id="0xf2a950" class="l5d0" points="650,970 710,970 710,1030 650,1030"/>
<polygon id="0xf2aa10" class="l5d0" points="650,1050 710,1050 710,1110 650,1110"/>
<polygon id="0xf2aad0" class="l5d0" points="650,1130 710,1130 710,1190 650,1190"/>
<polygon id="0xf2ab90" class="l5d0" points="730,10 790,10 790,70 730,70"/>
<polygon id="0xf2ac50" class="l5d0" points="730,90 790,90 790,150 730,150"/>
<polygon id="0xf2ad10" class="l5d0" points="730,170 790,170 790,230 730,230"/>
<polygon id="0xf2add0" class="l5d0" points="730,250 790,250 790,310 730,310"/>
<polygon id="0xf2ae90" class="l5d0" points="730,330 790,330 790,390 730,390"/>
<polygon id="0xf2af50" class="l5d0" points="730,410 790,410 790,470 730,470"/>
<polygon id="0xf2b010" class="l5d0" points="730,490 790,490 790,550 730,550"/>
<polygon id="0xf2b0d0" class="l5d0" points="730,570 790,570 790,630 730,630"/>
<polygon id="0xf2b190" class="l5d0" points="730,650 790,650 790,710 730,710"/>
<polygon id="0xf2b250" class="l5d0" points="730,730 790,730 790,790 730,790"/>
<polygon id="0xf2b310" class="l5d0" points="730,810 790,810 790,870 730,870"/>
<polygon id="0xf2b3d0" class="l5d0" points="730,890 790,890 790,950 730,950"/>
<polygon id="0xf2b490" class="l5d0" points="730,970 790,970 790,1030 730,1030"/>
<polygon id="0xf2b550" class="l5d0" points="730,1050 790,1050 790,1110 730,1110"/>
<polygon id="0xf2b610" class="l5d0" points="730,1130 790,1130 790,1190 730,1190"/>
<polygon id="0xf2b6d0" class="l5d0" points="810,10 870,10 870,70 810,70"/>
<polygon id="0xf2b790" class="l5d0" points="810,90 870,90 870,150 810,150"/>
<polygon id="0xf2b850" class="l5d0" points="810,170 870,170 870,230 810,230"/>
<polygon id="0xf2b910" class="l5d0" points="810,250 870,250 870,310 810,310"/>
<polygon id="0xf2b9d0" class="l5d0" points="810,330 870,330 870,390 810,390"/>
<polygon id="0xf2ba90" class="l5d0" points="810,410 870,410 870,470 810,470"/>
<polygon id="0xf2bb50" class="l5d0" points="810,490 870,490 870,550 810,550"/>
<polygon id="0xf2bc10" class="l5d0" points="810,570 870,570 870,630 810,630"/>
<polygon id="0xf2bcd0" class="l5d0" points="810,650 870,650 870,710 810,710"/>
<polygon id="0xf2bd90" class="l5d0" points="810,730 870,730 870,790 810,790"/>
<polygon id="0xf2be50" class="l5d0" points="810,810 870,810 870,870 810,870"/>
<polygon id="0xf2bf10" class="l5d0" points="810,890 870,890 870,950 810,950"/>
<polygon id="0xf2bfd0" class="l5d0" points="810,970 870,970 870,1030 810,1030"/>
<polygon id="0xf2c090" class="l5d0" points="810,1050 870,1050 870,1110 810,1110"/>
<polygon id="0xf2c150" class="l5d0" points="810,1130 870,1130 870,1190 810,1190"/>
<polygon id="0xf2c210" class="l5d0" points="890,10 950,10 950,70 890,70"/>
<polygon id="0xf2c2d0" class="l5d0" points="890,90 950,90 950,150 890,150"/>
<polygon id="0xf2c390" class="l5d0" points="890,170 950,170 950,230 890,230"/>
<polygon id="0xf2c450" class="l5d0" points="890,250 950,250 950,310 890,310"/>
<polygon id="0xf2c510" class="l5d0" points="890,330 950,330 950,390 890,390"/>
<polygon id="0xf2c5d0" class="l5d0" points="890,410 950,410 950,470 890,470"/>
<polygon id="0xf2c690" class="l5d0" points="890,490 950,490 950,550 890,550"/>
<polygon id="0xf2c750" class="l5d0" points="890,570 950,570 950,630 890,630"/>
<polygon id="0xf2c810" class="l5d0" points="890,650 950,650 950,710 890,710"/>
<polygon id="0xf2c8d0" class="l5d0" points="890,730 950,730 950,790 890,790"/>
<polygon id="0xf2c990" class="l5d0" points="890,810 950,810 950,870 890,870"/>
<polygon id="0xf2ca50" class="l5d0" points="890,890 950,890 950,950 890,950"/>
<polygon id="0xf2cb10" class="l5d0" points="890,970 950,970 950,1030 890,1030"/>
<polygon id="0xf2cbd0" class="l5d0" points="890,1050 950,1050 950,1110 890,1110"/>
<polygon id="0xf2cc90" class="l5d0" points="890,1130 950,1130 950,1190 890,1190"/>
<polygon id="0xf2cd50" class="l5d0" points="970,10 1030,10 1030,70 970,70"/>
<polygon id="0xf2ce10" class="l5d0" points="970,90 1030,90 1030,150 970,150"/>
<polygon id="0xf2ced0" class="l5d0" points="970,170 1030,170 1030,230 970,230"/>
<polygon id="0xf2cf90" class="l5d0" points="970,250 1030,250 1030,310 970,310"/>
<polygon id="0xf2d050" class="l5d0" points="970,330 1030,330 1030,390 970,390"/>
<polygon id="0xf2d110" class="l5d0" points="970,410 1030,410 1030,470 970,470"/>
<polygon id="0xf2d1d0" class="l5d0" points="970,490 1030,490 1030,550 970,550"/>
<polygon id="0xf2d290" class="l5d0" points="970,570 1030,570 1030,630 970,630"/>
<polygon id="0xf2d350" class="l5d0" points="970,650 1030,650 1030,710 970,710"/>
<polygon id="0xf2d410" class="l5d0" points="970,730 1030,730 1030,790 970,790"/>
<polygon id="0xf2d4d0" class="l5d0" points="970,810 1030,810 1030,870 970,870"/>
<polygon id="0xf2d590" class="l5d0" points="970,890 1030,890 1030,950 970,950"/>
<polygon id="0xf2d650" class="l5d0" points="970,970 1030,970 1030,1030 970,1030"/>
<polygon id="0xf2d710" class="l5d0" points="970,1050 1030,1050 1030,1110 970,1110"/>
<polygon id="0xf2d7d0" class="l5d0" points="970,1130 1030,1130 1030,1190 970,1190"/>
<polygon id="0xf2d890" class="l5d0" points="1050,10 1110,10 1110,70 1050,70"/>
<polygon id="0xf2d950" class="l5d0" points="1050,90 1110,90 1110,150 1050,150"/>
<polygon id="0xf2da10" class="l5d0" points="1050,170 1110,170 1110,230 1050,230"/>
<polygon id="0xf2dad0" class="l5d0" points="1050,250 1110,250 1110,310 1050,310"/>
<polygon id="0xf2db90" class="l5d0" points="1050,330 1110,330 1110,390 1050,390"/>
<polygon id="0xf2dc50" class="l5d0" points="1050,410 1110,410 1110,470 1050,470"/>
<polygon id="0xf2dd10" class="l5d0" points="1050,490 1110,490 1110,550 1050,550"/>
<polygon id="0xf2ddd0" class="l5d0" points="1050,570 1110,570 1110,630 1050,630"/>
<polygon id="0xf2de90" class="l5d0" points="1050,650 1110,650 1110,710 1050,710"/>
<polygon id="0xf2df50" class="l5d0" points="1050,730 1110,730 1110,790 1050,790"/>
<polygon id="0xf2e010" class="l5d0" points="1050,810 1110,810 1110,870 1050,870"/>
<polygon id="0xf2e0d0" class="l5d0" points="1050,890 1110,890 1110,950 1050,950"/>
<polygon id="0xf2e190" class="l5d0" points="1050,970 1110,970 1110,1030 1050,1030"/>
<polygon id="0xf2e250" class="l5d0" points="1050,1050 1110,1050 1110,1110 1050,1110"/>
<polygon id="0xf2e310" class="l5d0" points="1050,1130 1110,1130 1110,1190 1050,1190"/>
<polygon id="0xf2e3d0" class="l5d0" points="1130,10 1190,10 1190,70 1130,70"/>
<polygon id="0xf2e490" class="l5d0" points="1130,90 1190,90 1190,150 1130,150"/>
<polygon id="0xf2e550" class="l5d0" points="1130,170 1190,170 1190,230 1130,230"/>
<polygon id="0xf2e610" class="l5d0" points="1130,250 1190,250 1190,310 1130,310"/>
<polygon id="0xf2e6d0" class="l5d0" points="1130,330 1190,330 1190,390 1130,390"/>
<polygon id="0xf2e790" class="l5d0" points="1130,410 1190,410 1190,470 1130,470"/>
<polygon id="0xf2e850" class="l5d0" points="1130,490 1190,490 1190,550 1130,550"/>
<polygon id="0xf2e910" class="l5d0" points="1130,570 1190,570 1190,630 1130,630"/>
<polygon id="0xf2e9d0" class="l5d0" points="1130,650 1190,650 1190,710 1130,710"/>
<polygon id="0xf2ea90" class="l5d0" points="1130,730 1190,730 1190,790 1130,790"/>
<polygon id="0xf2eb50" class="l5d0" points="1130,810 1190,810 1190,870 1130,870"/>
<polygon id="0xf2ec10" class="l5d0" points="1130,890 1190,890 1190,950 1130,950"/>
<polygon id="0xf2ecd0" class="l5d0" points="1130,970 1190,970 1190,1030 1130,1030"/>
<polygon id="0xf2ed90" class="l5d0" points="1130,1050 1190,1050 1190,1110 1130,1110"/>
<polygon id="0xf2ee50" class="l5d0" points="1130,1130 1190,1130 1190,1190 1130,1190"/>
<polygon id="0xf2ef10" class="l5d0" points="1210,10 1270,10 1270,70 1210,70"/>
<polygon id="0xf2efd0" class="l5d0" points="1210,90 1270,90 1270,150 1210,150"/>
<polygon id="0xf2f090" class="l5d0" points="1210,170 1270,170 1270,230 1210,230"/>
<polygon id="0xf2f150" class="l5d0" points="1210,250 1270,250 1270,310 1210,310"/>
<polygon id="0xf2f210" class="l5d0" points="1210,330 1270,330 1270,390 1210,390"/>
<polygon id="0xf2f2d0" class="l5d0" points="1210,410 1270,410 1270,470 1210,470"/>
<polygon id="0xf2f390" class="l5d0" points="1210,490 1270,490 1270,550 1210,550"/>
<polygon id="0xf2f450" class="l5d0" points="1210,570 1270,570 1270,630 1210,630"/>
<polygon id="0xf2f510" class="l5d0" points="1210,650 1270,650 1270,710 1210,710"/>
<polygon id="0xf2f5d0" class="l5d0" points="1210,730 1270,730 1270,790 1210,790"/>
<polygon id="0xf2f690" class="l5d0" points="1210,810 1270,810 1270,870 1210,870"/>
<polygon id="0xf2f750" class="l5d0" points="1210,890 1270,890 1270,950 1210,950"/>
<polygon id="0xf2f810" class="l5d0" points="1210,970 1270,970 1270,1030 1210,1030"/>
<polygon id="0xf2f8d0" class="l5d0" points="1210,1050 1270,1050 1270,1110 1210,1110"/>
<polygon id="0xf2f990" class="l5d0" points="1210,1130 1270,1130 1270,1190 1210,1190"/>
<polygon id="0xf2fa50" class="l5d0" points="1290,10 1350,10 1350,70 1290,70"/>
<polygon id="0xf2fb10" class="l5d0" points="1290,90 1350,90 1350,150 1290,150"/>
<polygon id="0xf2fbd0" class="l5d0" points="1290,170 1350,170 1350,230 1290,230"/>
<polygon id="0xf2fc90" class="l5d0" points="1290,250 1350,250 1350,310 1290,310"/>
<polygon id="0xf2fd50" class="l5d0" points="1290,330 1350,330 1350,390 1290,390"/>
<polygon id="0xf2fe10" class="l5d0" points="1290,410 1350,410 1350,470 1290,470"/>
<polygon id="0xf2fed0" class="l5d0" points="1290,490 1350,490 1350,550 1290,550"/>
<polygon id="0xf2ff90" class="l5d0" points="1290,570 1350,570 1350,630 1290,630"/>
<polygon id="0xf30050" class="l5d0" points="1290,650 1350,650 1350,710 1290,710"/>
<polygon id="0xf30110" class="l5d0" points="1290,730 1350,730 1350,790 1290,790"/>
<polygon id="0xf301d0" class="l5d0" points="1290,810 1350,810 1350,870 1290,870"/>
<polygon id="0xf30290" class="l5d0" points="1290,890 1350,890 1350,950 1290,950"/>
<polygon id="0xf30350" class="l5d0" points="1290,970 1350,970 1350,1030 1290,1030"/>
<polygon id="0xf30410" class="l5d0" points="1290,1050 1350,1050 1350,1110 1290,1110"/>
<polygon id="0xf304d0" class="l5d0" points="1290,1130 1350,1130 1350,1190 1290,1190"/>
<polygon id="0xf30590" class="l5d0" points="1370,10 1430,10 1430,70 1370,70"/>
<polygon id="0xf30650" class="l5d0" points="1370,90 1430,90 1430,150 1370,150"/>
<polygon id="0xf30710" class="l5d0" points="1370,170 1430,170 1430,230 1370,230"/>
<polygon id="0xf307d0" class="l5d0" points="1370,250 1430,250 1430,310 1370,310"/>
<polygon id="0xf30890" class="l5d0" points="1370,330 1430,330 1430,390 1370,390"/>
<polygon id="0xf30950" class="l5d0" points="1370,410 1430,410 1430,470 1370,470"/>
<polygon id="0xf30a10" class="l5d0" points="1370,490 1430,490 1430,550 1370,550"/>
<polygon id="0xf30ad0" class="l5d0" points="1370,570 1430,570 1430,630 1370,630"/>
<polygon id="0xf30b90" class="l5d0" points="1370,650 1430,650 1430,710 1370,710"/>
<polygon id="0xf30c50" class="l5d0" points="1370,730 1430,730 1430,790 1370,790"/>
<polygon id="0xf30d10" class="l5d0" points="1370,810 1430,810 1430,870 1370,870"/>
<polygon id="0xf30dd0" class="l5d0" points="1370,890 1430,890 1430,950 1370,950"/>
<polygon id="0xf30e90" class="l5d0" points="1370,970 1430,970 1430,1030 1370,1030"/>
<polygon id="0xf30f50" class="l5d0" points="1370,1050 1430,1050 1430,1110 1370,1110"/>
<polygon id="0xf31010" class="l5d0" points="1370,1130 1430,1130 1430,1190 1370,1190"/>
<polygon id="0xf310d0" class="l5d0" points="1450,10 1510,10 1510,70 1450,70"/>
<polygon id="0xf31190" class="l5d0" points="1450,90 1510,90 1510,150 1450,150"/>
<polygon id="0xf31250" class="l5d0" points="1450,170 1510,170 1510,230 1450,230"/>
<polygon id="0xf31310" class="l5d0" points="1450,250 1510,250 1510,310 1450,310"/>
<polygon id="0xf313d0" class="l5d0" points="1450,330 1510,330 1510,390 1450,390"/>
<polygon id="0xf31490" class="l5d0" points="1450,410 1510,410 1510,470 1450,470"/>
<polygon id="0xf31550" class="l5d0" points="1450,490 1510,490 1510,550 1450,550"/>
<polygon id="0xf31610" class="l5d0" points="1450,570 1510,570 1510,630 1450,630"/>
<polygon id="0xf316d0" class="l5d0" points="1450,650 1510,650 1510,710 1450,710"/>
<polygon id="0xf31790" class="l5d0" points="1450,730 1510,730 1510,790 1450,790"/>
<polygon id="0xf31850" class="l5d0" points="1450,810 1510,810 1510,870 1450,870"/>
<polygon id="0xf31910" class="l5d0" points="1450,890 1510,890 1510,950 1450,950"/>
<polygon id="0xf319d0" class="l5d0" points="1450,970 1510,970 1510,1030 1450,1030"/>
<polygon id="0xf31a90" class="l5d0" points="1450,1050 1510,1050 1510,1110 1450,1110"/>
<polygon id="0xf31b50" class="l5d0" points="1450,1130 1510,1130 1510,1190 1450,1190"/>
<polygon id="0xf31c10" class="l5d0" points="1530,10 1590,10 1590,70 1530,70"/>
<polygon id="0xf31cd0" class="l5d0" points="1530,90 1590,90 1590,150 1530,150"/>
<polygon id="0xf31d90" class="l5d0" points="1530,170 1590,170 1590,230 1530,230"/>
<polygon id="0xf31e50" class="l5d0" points="1530,250 1590,250 1590,310 1530,310"/>
<polygon id="0xf31f10" class="l5d0" points="1530,330 1590,330 1590,390 1530,390"/>
<polygon id="0xf31fd0" class="l5d0" points="1530,410 1590,410 1590,470 1530,470"/>
<polygon id="0xf32090" class="l5d0" points="1530,490 1590,490 1590,550 1530,550"/>
<polygon id="0xf32150" class="l5d0" points="1530,570 1590,570 1590,630 1530,630"/>
<polygon id="0xf32210" class="l5d0" points="1530,650 1590,650 1590,710 1530,710"/>
<polygon id="0xf322d0" class="l5d0" points="1530,730 1590,730 1590,790 1530,790"/>
<polygon id="0xf32390" class="l5d0" points="1530,810 1590,810 1590,870 1530,870"/>
<polygon id="0xf32450" class="l5d0" points="1530,890 1590,890 1590,950 1530,950"/>
<polygon id="0xf32510" class="l5d0" points="1530,970 1590,970 1590,1030 1530,1030"/>
<polygon id="0xf325d0" class="l5d0" points="1530,1050 1590,1050 1590,1110 1530,1110"/>
<polygon id="0xf32690" class="l5d0" points="1530,1130 1590,1130 1590,1190 1530,1190"/>
</g>
</svg>