<?xml version="1.0" encoding="UTF-8"?>
<svg xmlns="http://www.w3.org/2000/svg" xmlns:xlink="http://www.w3.org/1999/xlink" width="1672" height="1352" viewBox="-76 -1276 1672 1352">
<defs>
<style type="text/css">
.l5d0 {stroke: #008856; fill: #008856; fill-opacity: 0.5;}
.l1d0 {stroke: #A1CAF1; fill: #A1CAF1; fill-opacity: 0.5;}
.l126d0 {stroke: #E68FAC; fill: #E68FAC; fill-opacity: 0.5;}
.l189d4 {stroke: #A1CAF1; fill: #A1CAF1; fill-opacity: 0.5;}
</style>
</defs>
<rect x="-76" y="-1276" width="1672" height="1352" fill="#222222" stroke="none"/>
<g id="my_logo" transform="scale(1 -1)">
<polygon id="0x1e767d0" class="l126d0" points="160,20 240,20 240,60 160,60"/>
<polygon id="0x1e86120" class="l126d0" points="320,20 400,20 400,60 320,60"/>
<polygon id="0x1ce2230" class="l126d0" points="480,20 560,20 560,60 480,60"/>
<polygon id="0x1db00e0" class="l126d0" points="880,20 960,20 960,60 880,60"/>
<polygon id="0x1db0f30" class="l126d0" points="1360,20 1440,20 1440,60 1360,60"/>
<polygon id="0x1ec48a0" class="l126d0" points="80,100 320,100 320,140 80,140"/>
<polygon id="0x1e4fe90" class="l126d0" points="480,100 560,100 560,140 480,140"/>
<polygon id="0x1e649c0" class="l126d0" points="640,100 800,100 800,140 640,140"/>
<polygon id="0x20213b0" class="l126d0" points="960,100 1280,100 1280,140 960,140"/>
<polygon id="0x2022aa0" class="l126d0" points="1360,100 1520,100 1520,140 1360,140"/>
<polygon id="0x1ff3f30" class="l126d0" points="80,180 320,180 320,220 80,220"/>
<polygon id="0x1fa1780" class="l126d0" points="400,180 480,180 480,220 400,220"/>
<polygon id="0x1f99d30" class="l126d0" points="560,180 720,180 720,220 560,220"/>
<polygon id="0x1f78720" class="l126d0" points="800,180 1040,180 1040,220 800,220"/>
<polygon id="0x1ec8db0" class="l126d0" points="1120,180 1520,180 1520,220 1120,220"/>
<polygon id="0x1f78180" class="l126d0" points="80,260 160,260 160,300 80,300"/>
<polygon id="0x201c6d0" class="l126d0" points="240,260 480,260 480,300 240,300"/>
<polygon id="0x1fb9610" class="l126d0" points="640,260 720,260 720,300 640,300"/>
<polygon id="0x1e5e7d0" class="l126d0" points="800,260 960,260 960,300 800,300"/>
<polygon id="0x1f54650" class="l126d0" points="1120,260 1200,260 1200,300 1120,300"/>
<polygon id="0x1fa0120" class="l126d0" points="1360,260 1520,260 1520,300 1360,300"/>
<polygon id="0x1ff1cb0" class="l126d0" points="160,340 320,340 320,380 160,380"/>
<polygon id="0x202e540" class="l126d0" points="560,340 1040,340 1040,380 560,380"/>
<polygon id="0x1d258d0" class="l126d0" points="1280,340 1520,340 1520,380 1280,380"/>
<polygon id="0x1d81ef0" class="l126d0" points="0,420 80,420 80,460 0,460"/>
<polygon id="0x1dfe370" class="l126d0" points="320,420 480,420 480,460 320,460"/>
<polygon id="0x1e11410" class="l126d0" points="1120,420 1280,420 1280,460 1120,460"/>
<polygon id="0x1ea80b0" class="l126d0" points="1440,420 1520,420 1520,460 1440,460"/>
<polygon id="0x1fb1860" class="l126d0" points="0,500 160,500 160,540 0,540"/>
<polygon id="0x1fe4800" class="l126d0" points="240,500 320,500 320,540 240,540"/>
<polygon id="0x1f452d0" class="l126d0" points="480,500 720,500 720,540 480,540"/>
<polygon id="0x1f6e5a0" class="l126d0" points="800,500 1040,500 1040,540 800,540"/>
<polygon id="0x1fba990" class="l126d0" points="1120,500 1200,500 1200,540 1120,540"/>
<polygon id="0x1fe0d20" class="l126d0" points="1360,500 1520,500 1520,540 1360,540"/>
<polygon id="0x1fe24c0" class="l126d0" points="0,580 400,580 400,620 0,620"/>
<polygon id="0x1ff7690" class="l126d0" points="480,580 560,580 560,620 480,620"/>
<polygon id="0x1fe3510" class="l126d0" points="720,580 880,580 880,620 720,620"/>
<polygon id="0x2027870" class="l126d0" points="960,580 1120,580 1120,620 960,620"/>
<polygon id="0x1de61d0" class="l126d0" points="1280,580 1360,580 1360,620 1280,620"/>
<polygon id="0x1df6e50" class="l126d0" points="160,660 480,660 480,700 160,700"/>
<polygon id="0x1e494e0" class="l126d0" points="720,660 800,660 800,700 720,700"/>
<polygon id="0x1e6d2d0" class="l126d0" points="1040,660 1360,660 1360,700 1040,700"/>
<polygon id="0x1e61460" class="l126d0" points="1440,660 1520,660 1520,700 1440,700"/>
<polygon id="0x1f23910" class="l126d0" points="0,740 80,740 80,780 0,780"/>
<polygon id="0x1f2f5b0" class="l126d0" points="400,740 480,740 480,780 400,780"/>
<polygon id="0x1fbe330" class="l126d0" points="560,740 640,740 640,780 560,780"/>
<polygon id="0x1fb44a0" class="l126d0" points="800,740 880,740 880,780 800,780"/>
<polygon id="0x1fea010" class="l126d0" points="960,740 1280,740 1280,780 960,780"/>
<polygon id="0x1fabe30" class="l126d0" points="1360,740 1520,740 1520,780 1360,780"/>
<polygon id="0x2017270" class="l126d0" points="80,820 320,820 320,860 80,860"/>
<polygon id="0x1df2430" class="l126d0" points="400,820 560,820 560,860 400,860"/>
<polygon id="0x1e94610" class="l126d0" points="720,820 800,820 800,860 720,860"/>
<polygon id="0x1ea6be0" class="l126d0" points="880,820 1040,820 1040,860 880,860"/>
<polygon id="0x1f711f0" class="l126d0" points="1280,820 1360,820 1360,860 1280,860"/>
<polygon id="0x1f19740" class="l126d0" points="1440,820 1520,820 1520,860 1440,860"/>
<polygon id="0x1f7ebc0" class="l126d0" points="0,900 160,900 160,940 0,940"/>
<polygon id="0x1f7ec30" class="l126d0" points="240,900 320,900 320,940 240,940"/>
<polygon id="0x1f8b5e0" class="l126d0" points="480,900 560,900 560,940 480,940"/>
<polygon id="0x1fa5fe0" class="l126d0" points="640,900 880,900 880,940 640,940"/>
<polygon id="0x1ff12d0" class="l126d0" points="960,900 1200,900 1200,940 960,940"/>
<polygon id="0x1ff1340" class="l126d0" points="1360,900 1520,900 1520,940 1360,940"/>
<polygon id="0x200c570" class="l126d0" points="0,980 80,980 80,1020 0,1020"/>
<polygon id="0x2026f80" class="l126d0" points="160,980 240,980 240,1020 160,1020"/>
<polygon id="0x204d870" class="l126d0" points="320,980 400,980 400,1020 320,1020"/>
<polygon id="0x204d8e0" class="l126d0" points="640,980 800,980 800,1020 640,1020"/>
<polygon id="0x1e31e70" class="l126d0" points="960,980 1040,980 1040,1020 960,1020"/>
<polygon id="0x1e135c0" class="l126d0" points="1120,980 1200,980 1200,1020 1120,1020"/>
<polygon id="0x1e51a80" class="l126d0" points="1280,980 1520,980 1520,1020 1280,1020"/>
<polygon id="0x1eaaca0" class="l126d0" points="0,1060 80,1060 80,1100 0,1100"/>
<polygon id="0x1e91a90" class="l126d0" points="400,1060 640,1060 640,1100 400,1100"/>
<polygon id="0x1f60e60" class="l126d0" points="720,1060 800,1060 800,1100 720,1100"/>
<polygon id="0x1fd4870" class="l126d0" points="1040,1060 1200,1060 1200,1100 1040,1100"/>
<polygon id="0x1f93d80" class="l126d0" points="1280,1060 1440,1060 1440,1100 1280,1100"/>
<polygon id="0x1fee190" class="l126d0" points="160,1140 240,1140 240,1180 160,1180"/>
<polygon id="0x2000c90" class="l126d0" points="400,1140 480,1140 480,1180 400,1180"/>
<polygon id="0x1dd8920" class="l126d0" points="640,1140 800,1140 800,1180 640,1180"/>
<polygon id="0x1dd89e0" class="l126d0" points="960,1140 1040,1140 1040,1180 960,1180"/>
<polygon id="0x1df9dc0" class="l126d0" points="1120,1140 1360,1140 1360,1180 1120,1180"/>
<polygon id="0x1df9e80" class="l126d0" points="1440,1140 1520,1140 1520,1180 1440,1180"/>
<polygon id="0x1e1e180" class="l126d0" points="20,0 60,0 60,400 20,400"/>
<polygon id="0x1e1e240" class="l126d0" points="20,640 60,640 60,720 20,720"/>
<polygon id="0x1ea8b40" class="l126d0" points="20,800 60,800 60,880 20,880"/>
<polygon id="0x1ea8c00" class="l126d0" points="20,1120 60,1120 60,1200 20,1200"/>
<polygon id="0x1eb7580" class="l126d0" points="100,0 140,0 140,80 100,80"/>
<polygon id="0x1eb7640" class="l126d0" points="100,320 140,320 140,480 100,480"/>
<polygon id="0x1e39670" class="l126d0" points="100,640 140,640 140,800 100,800"/>
<polygon id="0x1e39730" class="l126d0" points="100,960 140,960 140,1200 100,1200"/>
<polygon id="0x2023cb0" class="l126d0" points="180,240 220,240 220,320 180,320"/>
<polygon id="0x2023d70" class="l126d0" points="180,400 220,400 220,560 180,560"/>
<polygon id="0x1ce8770" class="l126d0" points="180,720 220,720 220,800 180,800"/>
<polygon id="0x1ce8830" class="l126d0" points="180,880 220,880 220,960 180,960"/>
<polygon id="0x1e14d00" class="l126d0" points="180,1040 220,1040 220,1120 180,1120"/>
<polygon id="0x1e14dc0" class="l126d0" points="260,0 300,0 300,80 260,80"/>
<polygon id="0x1f6fd80" class="l126d0" points="260,400 300,400 300,480 260,480"/>
<polygon id="0x1f6fe40" class="l126d0" points="260,720 300,720 300,800 260,800"/>
<polygon id="0x1fc6530" class="l126d0" points="260,960 300,960 300,1200 260,1200"/>
<polygon id="0x1d21d60" class="l126d0" points="340,80 380,80 380,240 340,240"/>
<polygon id="0x1d21e20" class="l126d0" points="340,320 380,320 380,400 340,400"/>
<polygon id="0x1fb5650" class="l126d0" points="340,480 380,480 380,560 340,560"/>
<polygon id="0x1fec710" class="l126d0" points="340,720 380,720 380,960 340,960"/>
<polygon id="0x1fec7d0" class="l126d0" points="340,1040 380,1040 380,1200 340,1200"/>
<polygon id="0x1dc2df0" class="l126d0" points="420,0 460,0 460,160 420,160"/>
<polygon id="0x1de45b0" class="l126d0" points="420,320 460,320 460,400 420,400"/>
<polygon id="0x1de4620" class="l126d0" points="420,480 460,480 460,640 420,640"/>
<polygon id="0x1dee610" class="l126d0" points="420,880 460,880 460,1040 420,1040"/>
<polygon id="0x1dee6d0" class="l126d0" points="500,160 540,160 540,480 500,480"/>
<polygon id="0x1e270b0" class="l126d0" points="500,640 540,640 540,800 500,800"/>
<polygon id="0x1e11010" class="l126d0" points="500,960 540,960 540,1040 500,1040"/>
<polygon id="0x1e11080" class="l126d0" points="500,1120 540,1120 540,1200 500,1200"/>
<polygon id="0x1e42c80" class="l126d0" points="580,0 620,0 620,160 580,160"/>
<polygon id="0x1e42d40" class="l126d0" points="580,240 620,240 620,320 580,320"/>
<polygon id="0x1e6c7a0" class="l126d0" points="580,400 620,400 620,480 580,480"/>
<polygon id="0x1ea8750" class="l126d0" points="580,560 620,560 620,720 580,720"/>
<polygon id="0x1ea87c0" class="l126d0" points="580,800 620,800 620,1040 580,1040"/>
<polygon id="0x1e93170" class="l126d0" points="580,1120 620,1120 620,1200 580,1200"/>
<polygon id="0x1e93230" class="l126d0" points="660,0 700,0 700,80 660,80"/>
<polygon id="0x1eb6b10" class="l126d0" points="660,400 700,400 700,480 660,480"/>
<polygon id="0x1f7a500" class="l126d0" points="660,560 700,560 700,880 660,880"/>
<polygon id="0x1f7a570" class="l126d0" points="660,1040 700,1040 700,1120 660,1120"/>
<polygon id="0x1fefbb0" class="l126d0" points="740,0 780,0 780,80 740,80"/>
<polygon id="0x1fefc70" class="l126d0" points="740,160 780,160 780,320 740,320"/>
<polygon id="0x202f220" class="l126d0" points="740,400 780,400 780,560 740,560"/>
<polygon id="0x1de2810" class="l126d0" points="740,720 780,720 780,800 740,800"/>
<polygon id="0x1de2880" class="l126d0" points="820,0 860,0 860,160 820,160"/>
<polygon id="0x1dd4620" class="l126d0" points="820,400 860,400 860,480 820,480"/>
<polygon id="0x1dd46e0" class="l126d0" points="820,640 860,640 860,720 820,720"/>
<polygon id="0x1eb2db0" class="l126d0" points="820,800 860,800 860,880 820,880"/>
<polygon id="0x1eafbc0" class="l126d0" points="820,960 860,960 860,1200 820,1200"/>
<polygon id="0x1eafc80" class="l126d0" points="900,80 940,80 940,160 900,160"/>
<polygon id="0x1f1fec0" class="l126d0" points="900,400 940,400 940,480 900,480"/>
<polygon id="0x1f1ff80" class="l126d0" points="900,560 940,560 940,800 900,800"/>
<polygon id="0x1f800b0" class="l126d0" points="900,880 940,880 940,1200 900,1200"/>
<polygon id="0x1f88dd0" class="l126d0" points="980,0 1020,0 1020,80 980,80"/>
<polygon id="0x1f88e90" class="l126d0" points="980,240 1020,240 1020,320 980,320"/>
<polygon id="0x1fa2e40" class="l126d0" points="980,400 1020,400 1020,480 980,480"/>
<polygon id="0x1fa2f00" class="l126d0" points="980,640 1020,640 1020,720 980,720"/>
<polygon id="0x1de0a90" class="l126d0" points="980,1040 1020,1040 1020,1120 980,1120"/>
<polygon id="0x1de0b50" class="l126d0" points="1060,0 1100,0 1100,80 1060,80"/>
<polygon id="0x1e20000" class="l126d0" points="1060,160 1100,160 1100,560 1060,560"/>
<polygon id="0x1e200c0" class="l126d0" points="1060,800 1100,800 1100,880 1060,880"/>
<polygon id="0x1e6a8d0" class="l126d0" points="1060,960 1100,960 1100,1040 1060,1040"/>
<polygon id="0x1e6a990" class="l126d0" points="1060,1120 1100,1120 1100,1200 1060,1200"/>
<polygon id="0x1efdc00" class="l126d0" points="1140,0 1180,0 1180,80 1140,80"/>
<polygon id="0x1efdcc0" class="l126d0" points="1140,320 1180,320 1180,400 1140,400"/>
<polygon id="0x1f2e5b0" class="l126d0" points="1140,560 1180,560 1180,640 1140,640"/>
<polygon id="0x1f2e670" class="l126d0" points="1140,800 1180,800 1180,880 1140,880"/>
<polygon id="0x1f8dc90" class="l126d0" points="1220,0 1260,0 1260,80 1220,80"/>
<polygon id="0x1f8dd50" class="l126d0" points="1220,240 1260,240 1260,400 1220,400"/>
<polygon id="0x1fb1490" class="l126d0" points="1220,480 1260,480 1260,640 1220,640"/>
<polygon id="0x1fb1550" class="l126d0" points="1220,800 1260,800 1260,1120 1220,1120"/>
<polygon id="0x201e0f0" class="l126d0" points="1300,0 1340,0 1340,160 1300,160"/>
<polygon id="0x201e1b0" class="l126d0" points="1300,240 1340,240 1340,320 1300,320"/>
<polygon id="0x1e0fde0" class="l126d0" points="1300,400 1340,400 1340,560 1300,560"/>
<polygon id="0x1e0fea0" class="l126d0" points="1300,720 1340,720 1340,800 1300,800"/>
<polygon id="0x1e61e40" class="l126d0" points="1300,880 1340,880 1340,960 1300,960"/>
<polygon id="0x1e61f00" class="l126d0" points="1380,400 1420,400 1420,480 1380,480"/>
<polygon id="0x1f317c0" class="l126d0" points="1380,560 1420,560 1420,720 1380,720"/>
<polygon id="0x1f31880" class="l126d0" points="1380,800 1420,800 1420,880 1380,880"/>
<polygon id="0x1f3fa30" class="l126d0" points="1380,1120 1420,1120 1420,1200 1380,1200"/>
<polygon id="0x1f3faf0" class="l126d0" points="1460,0 1500,0 1500,80 1460,80"/>
<polygon id="0x1e0d600" class="l126d0" points="1460,560 1500,560 1500,640 1460,640"/>
<polygon id="0x1e0d6c0" class="l126d0" points="1460,1040 1500,1040 1500,1120 1460,1120"/>
<polygon id="0x1e233c0" class="l189d4" points="0,0 300,0 300,300 0,300"/>
<polygon id="0x1e23480" class="l1d0" points="10,10 70,10 70,70 10,70"/>
<polygon id="0x1e217a0" class="l1d0" points="10,90 70,90 70,150 10,150"/>
<polygon id="0x1e21860" class="l1d0" points="10,170 70,170 70,230 10,230"/>
<polygon id="0x1e33b80" class="l1d0" points="10,250 70,250 70,310 10,310"/>
<polygon id="0x1e33c40" class="l1d0" points="10,330 70,330 70,390 10,390"/>
<polygon id="0x1e7c150" class="l1d0" points="10,410 70,410 70,470 10,470"/>
<polygon id="0x1e7c210" class="l1d0" points="10,490 70,490 70,550 10,550"/>
<polygon id="0x1e72a40" class="l1d0" points="10,570 70,570 70,630 10,630"/>
<polygon id="0x1e72b00" class="l1d0" points="10,650 70,650 70,710 10,710"/>
<polygon id="0x2014230" class="l1d0" points="10,730 70,730 70,790 10,790"/>
<polygon id="0x20142f0" class="l1d0" points="10,810 70,810 70,870 10,870"/>
<polygon id="0x1d81670" class="l1d0" points="10,890 70,890 70,950 10,950"/>
<polygon id="0x1d81730" class="l1d0" points="10,970 70,970 70,1030 10,1030"/>
<polygon id="0x1e0e0f0" class="l1d0" points="10,1050 70,1050 70,1110 10,1110"/>
<polygon id="0x1e0e1b0" class="l1d0" points="10,1130 70,1130 70,1190 10,1190"/>
<polygon id="0x1e1d8e0" class="l1d0" points="90,10 150,10 150,70 90,70"/>
<polygon id="0x1e1d9a0" class="l1d0" points="90,90 150,90 150,150 90,150"/>
<polygon id="0x1ef83c0" class="l1d0" points="90,170 150,170 150,230 90,230"/>
<polygon id="0x1ef8480" class="l1d0" points="90,250 150,250 150,310 90,310"/>
<polygon id="0x1f697a0" class="l1d0" points="90,330 150,330 150,390 90,390"/>
<polygon id="0x1f69860" class="l1d0" points="90,410 150,410 150,470 90,470"/>
<polygon id="0x1de2390" class="l1d0" points="90,490 150,490 150,550 90,550"/>
<polygon id="0x1de2450" class="l1d0" points="90,570 150,570 150,630 90,630"/>
<polygon id="0x1ebdce0" class="l1d0" points="90,650 150,650 150,710 90,710"/>
<polygon id="0x1ebdda0" class="l1d0" points="90,730 150,730 150,790 90,790"/>
<polygon id="0x1ea6060" class="l1d0" points="90,810 150,810 150,870 90,870"/>
<polygon id="0x1ea6120" class="l1d0" points="90,890 150,890 150,950 90,950"/>
<polygon id="0x1f00350" class="l1d0" points="90,970 150,970 150,1030 90,1030"/>
<polygon id="0x1f00410" class="l1d0" points="90,1050 150,1050 150,1110 90,1110"/>
<polygon id="0x1f52660" class="l1d0" points="90,1130 150,1130 150,1190 90,1190"/>
<polygon id="0x1f52720" class="l1d0" points="170,10 230,10 230,70 170,70"/>
<polygon id="0x1f33a90" class="l1d0" points="170,90 230,90 230,150 170,150"/>
<polygon id="0x1f33b50" class="l1d0" points="170,170 230,170 230,230 170,230"/>
<polygon id="0x1f9bc00" class="l1d0" points="170,250 230,250 230,310 170,310"/>
<polygon id="0x1f9bcc0" class="l1d0" points="170,330 230,330 230,390 170,390"/>
<polygon id="0x1de2fd0" class="l1d0" points="170,410 230,410 230,470 170,470"/>
<polygon id="0x1de3090" class="l1d0" points="170,490 230,490 230,550 170,550"/>
<polygon id="0x1f82980" class="l1d0" points="170,570 230,570 230,630 170,630"/>
<polygon id="0x1f82a40" class="l1d0" points="170,650 230,650 230,710 170,710"/>
<polygon id="0x1fc5070" class="l1d0" points="170,730 230,730 230,790 170,790"/>
<polygon id="0x1fc50e0" class="l1d0" points="170,810 230,810 230,870 170,870"/>
<polygon id="0x1fc51a0" class="l1d0" points="170,890 230,890 230,950 170,950"/>
<polygon id="0x1fde720" class="l1d0" points="170,970 230,970 230,1030 170,1030"/>
<polygon id="0x1fde7e0" class="l1d0" points="170,1050 230,1050 230,1110 170,1110"/>
<polygon id="0x1debff0" class="l1d0" points="170,1130 230,1130 230,1190 170,1190"/>
<polygon id="0x1dec0b0" class="l1d0" points="250,10 310,10 310,70 250,70"/>
<polygon id="0x1ec65a0" class="l1d0" points="250,90 310,90 310,150 250,150"/>
<polygon id="0x1ec6660" class="l1d0" points="250,170 310,170 310,230 250,230"/>
<polygon id="0x1f2c2f0" class="l1d0" points="250,250 310,250 310,310 250,310"/>
<polygon id="0x1f2c3b0" class="l1d0" points="250,330 310,330 310,390 250,390"/>
<polygon id="0x1fdb140" class="l1d0" points="250,410 310,410 310,470 250,470"/>
<polygon id="0x1fdb200" class="l1d0" points="250,490 310,490 310,550 250,550"/>
<polygon id="0x1ffc290" class="l1d0" points="250,570 310,570 310,630 250,630"/>
<polygon id="0x1ffc350" class="l1d0" points="250,650 310,650 310,710 250,710"/>
<polygon id="0x1d82820" class="l1d0" points="250,730 310,730 310,790 250,790"/>
<polygon id="0x1d828e0" class="l1d0" points="250,810 310,810 310,870 250,870"/>
<polygon id="0x1e25e90" class="l1d0" points="250,890 310,890 310,950 250,950"/>
<polygon id="0x1e25f50" class="l1d0" points="250,970 310,970 310,1030 250,1030"/>
<polygon id="0x1e26010" class="l1d0" points="250,1050 310,1050 310,1110 250,1110"/>
<polygon id="0x1e28960" class="l1d0" points="250,1130 310,1130 310,1190 250,1190"/>
<polygon id="0x1e28a20" class="l1d0" points="330,10 390,10 390,70 330,70"/>
<polygon id="0x1e28ae0" class="l1d0" points="330,90 390,90 390,150 330,150"/>
<polygon id="0x1e7b000" class="l1d0" points="330,170 390,170 390,230 330,230"/>
<polygon id="0x1e7b0c0" class="l1d0" points="330,250 390,250 390,310 330,310"/>
<polygon id="0x1e7b180" class="l1d0" points="330,330 390,330 390,390 330,390"/>
<polygon id="0x1e89a10" class="l1d0" points="330,410 390,410 390,470 330,470"/>
<polygon id="0x1e89ad0" class="l1d0" points="330,490 390,490 390,550 330,550"/>
<polygon id="0x1e89b90" class="l1d0" points="330,570 390,570 390,630 330,630"/>
<polygon id="0x1f403b0" class="l1d0" points="330,650 390,650 390,710 330,710"/>
<polygon id="0x1f40470" class="l1d0" points="330,730 390,730 390,790 330,790"/>
<polygon id="0x1f40530" class="l1d0" points="330,810 390,810 390,870 330,870"/>
<polygon id="0x1faf050" class="l1d0" points="330,890 390,890 390,950 330,950"/>
<polygon id="0x1faf110" class="l1d0" points="330,970 390,970 390,1030 330,1030"/>
<polygon id="0x1faf1d0" class="l1d0" points="330,1050 390,1050 390,1110 330,1110"/>
<polygon id="0x1e6b510" class="l1d0" points="330,1130 390,1130 390,1190 330,1190"/>
<polygon id="0x1e6b5d0" class="l1d0" points="410,10 470,10 470,70 410,70"/>
<polygon id="0x1e6b690" class="l1d0" points="410,90 470,90 470,150 410,150"/>
<polygon id="0x1e96ef0" class="l1d0" points="410,170 470,170 470,230 410,230"/>
<polygon id="0x1e96fb0" class="l1d0" points="410,250 470,250 470,310 410,310"/>
<polygon id="0x1f36a30" class="l1d0" points="410,330 470,330 470,390 410,390"/>
<polygon id="0x1f36af0" class="l1d0" points="410,410 470,410 470,470 410,470"/>
<polygon id="0x1f36bb0" class="l1d0" points="410,490 470,490 470,550 410,550"/>
<polygon id="0x1f95d30" class="l1d0" points="410,570 470,570 470,630 410,630"/>
<polygon id="0x1f95df0" class="l1d0" points="410,650 470,650 470,710 410,710"/>
<polygon id="0x2032550" class="l1d0" points="410,730 470,730 470,790 410,790"/>
<polygon id="0x2032610" class="l1d0" points="410,810 470,810 470,870 410,870"/>
<polygon id="0x20326d0" class="l1d0" points="410,890 470,890 470,950 410,950"/>
<polygon id="0x204eb70" class="l1d0" points="410,970 470,970 470,1030 410,1030"/>
<polygon id="0x204ec30" class="l1d0" points="410,1050 470,1050 470,1110 410,1110"/>
<polygon id="0x204ecf0" class="l1d0" points="410,1130 470,1130 470,1190 410,1190"/>
<polygon id="0x2045780" class="l1d0" points="490,10 550,10 550,70 490,70"/>
<polygon id="0x2045840" class="l1d0" points="490,90 550,90 550,150 490,150"/>
<polygon id="0x2045900" class="l1d0" points="490,170 550,170 550,230 490,230"/>
<polygon id="0x20459c0" class="l1d0" points="490,250 550,250 550,310 490,310"/>
<polygon id="0x2044f70" class="l1d0" points="490,330 550,330 550,390 490,390"/>
<polygon id="0x2045030" class="l1d0" points="490,410 550,410 550,470 490,470"/>
<polygon id="0x20450f0" class="l1d0" points="490,490 550,490 550,550 490,550"/>
<polygon id="0x20451b0" class="l1d0" points="490,570 550,570 550,630 490,630"/>
<polygon id="0x2045270" class="l1d0" points="490,650 550,650 550,710 490,710"/>
<polygon id="0x2045330" class="l1d0" points="490,730 550,730 550,790 490,790"/>
<polygon id="0x20453f0" class="l1d0" points="490,810 550,810 550,870 490,870"/>
<polygon id="0x20454b0" class="l1d0" points="490,890 550,890 550,950 490,950"/>
<polygon id="0x2045570" class="l1d0" points="490,970 550,970 550,1030 490,1030"/>
<polygon id="0x2045630" class="l1d0" points="490,1050 550,1050 550,1110 490,1110"/>
<polygon id="0x20456f0" class="l1d0" points="490,1130 550,1130 550,1190 490,1190"/>
<polygon id="0x2046ae0" class="l1d0" points="570,10 630,10 630,70 570,70"/>
<polygon id="0x2046ba0" class="l1d0" points="570,90 630,90 630,150 570,150"/>
<polygon id="0x2046c60" class="l1d0" points="570,170 630,170 630,230 570,230"/>
<polygon id="0x2046d20" class="l1d0" points="570,250 630,250 630,310 570,310"/>
<polygon id="0x2046de0" class="l1d0" points="570,330 630,330 630,390 570,390"/>
<polygon id="0x2046ea0" class="l1d0" points="570,410 630,410 630,470 570,470"/>
<polygon id="0x2046f60" class="l1d0" points="570,490 630,490 630,550 570,550"/>
<polygon id="0x2047020" class="l1d0" points="570,570 630,570 630,630 570,630"/>
<polygon id="0x20470e0" class="l1d0" points="570,650 630,650 630,710 570,710"/>
<polygon id="0x20471a0" class="l1d0" points="570,730 630,730 630,790 570,790"/>
<polygon id="0x2047260" class="l1d0" points="570,810 630,810 630,870 570,870"/>
<polygon id="0x2047320" class="l1d0" points="570,890 630,890 630,950 570,950"/>
<polygon id="0x20473e0" class="l1d0" points="570,970 630,970 630,1030 570,1030"/>
<polygon id="0x20474a0" class="l1d0" points="570,1050 630,1050 630,1110 570,1110"/>
<polygon id="0x2047560" class="l1d0" points="570,1130 630,1130 630,1190 570,1190"/>
<polygon id="0x2047620" class="l1d0" points="650,10 710,10 710,70 650,70"/>
<polygon id="0x20476e0" class="l1d0" points="650,90 710,90 710,150 650,150"/>
<polygon id="0x20477a0" class="l1d0" points="650,170 710,170 710,230 650,230"/>
<polygon id="0x2047860" class="l1d0" points="650,250 710,250 710,310 650,310"/>
<polygon id="0x2047920" class="l1d0" points="650,330 710,330 710,390 650,390"/>
<polygon id="0x20479e0" class="l1d0" points="650,410 710,410 710,470 650,470"/>
<polygon id="0x2047aa0" class="l1d0" points="650,490 710,490 710,550 650,550"/>
<polygon id="0x2047b60" class="l1d0" points="650,570 710,570 710,630 650,630"/>
<polygon id="0x2047c20" class="l1d0" points="650,650 710,650 710,710 650,710"/>
<polygon id="0x2047ce0" class="l1d0" points="650,730 710,730 710,790 650,790"/>
<polygon id="0x2047da0" class="l1d0" points="650,810 710,810 710,870 650,870"/>
<polygon id="0x2047e60" class="l1d0" points="650,890 710,890 710,950 650,950"/>
<polygon id="0x2047f20" class="l1d0" points="650,970 710,970 710,1030 650,1030"/>
<polygon id="0x2047fe0" class="l1d0" points="650,1050 710,1050 710,1110 650,1110"/>
<polygon id="0x20480a0" class="l1d0" points="650,1130 710,1130 710,1190 650,1190"/>
<polygon id="0x2048160" class="l1d0" points="730,10 790,10 790,70 730,70"/>
<polygon id="0x2048220" class="l1d0" points="730,90 790,90 790,150 730,150"/>
<polygon id="0x20482e0" class="l1d0" points="730,170 790,170 790,230 730,230"/>
<polygon id="0x20483a0" class="l1d0" points="730,250 790,250 790,310 730,310"/>
<polygon id="0x2048460" class="l1d0" points="730,330 790,330 790,390 730,390"/>
<polygon id="0x2048520" class="l1d0" points="730,410 790,410 790,470 730,470"/>
<polygon id="0x20485e0" class="l1d0" points="730,490 790,490 790,550 730,550"/>
<polygon id="0x20486a0" class="l1d0" points="730,570 790,570 790,630 730,630"/>
<polygon id="0x2048760" class="l1d0" points="730,650 790,650 790,710 730,710"/>
<polygon id="0x2048820" class="l1d0" points="730,730 790,730 790,790 730,790"/>
<polygon id="0x20488e0" class="l1d0" points="730,810 790,810 790,870 730,870"/>
<polygon id="0x20489a0" class="l1d0" points="730,890 790,890 790,950 730,950"/>
<polygon id="0x2048a60" class="l1d0" points="730,970 790,970 790,1030 730,1030"/>
<polygon id="0x2048b20" class="l1d0" points="730,1050 790,1050 790,1110 730,1110"/>
<polygon id="0x2048be0" class="l1d0" points="730,1130 790,1130 790,1190 730,1190"/>
<polygon id="0x2048ca0" class="l1d0" points="810,10 870,10 870,70 810,70"/>
<polygon id="0x2048d60" class="l1d0" points="810,90 870,90 870,150 810,150"/>
<polygon id="0x2048e20" class="l1d0" points="810,170 870,170 870,230 810,230"/>
<polygon id="0x2048ee0" class="l1d0" points="810,250 870,250 870,310 810,310"/>
<polygon id="0x2048fa0" class="l1d0" points="810,330 870,330 870,390 810,390"/>
<polygon id="0x2049060" class="l1d0" points="810,410 870,410 870,470 810,470"/>
<polygon id="0x2049120" class="l1d0" points="810,490 870,490 870,550 810,550"/>
<polygon id="0x20491e0" class="l1d0" points="810,570 870,570 870,630 810,630"/>
<polygon id="0x20492a0" class="l1d0" points="810,650 870,650 870,710 810,710"/>
<polygon id="0x2049360" class="l1d0" points="810,730 870,730 870,790 810,790"/>
<polygon id="0x2049420" class="l1d0" points="810,810 870,810 870,870 810,870"/>
<polygon id="0x20494e0" class="l1d0" points="810,890 870,890 870,950 810,950"/>
<polygon id="0x20495a0" class="l1d0" points="810,970 870,970 870,1030 810,1030"/>
<polygon id="0x2049660" class="l1d0" points="810,1050 870,1050 870,1110 810,1110"/>
<polygon id="0x2049720" class="l1d0" points="810,1130 870,1130 870,1190 810,1190"/>
<polygon id="0x20497e0" class="l1d0" points="890,10 950,10 950,70 890,70"/>
<polygon id="0x20498a0" class="l1d0" points="890,90 950,90 950,150 890,150"/>
<polygon id="0x2049960" class="l1d0" points="890,170 950,170 950,230 890,230"/>
<polygon id="0x2049a20" class="l1d0" points="890,250 950,250 950,310 890,310"/>
<polygon id="0x2049ae0" class="l1d0" points="890,330 950,330 950,390 890,390"/>
<polygon id="0x2049ba0" class="l1d0" points="890,410 950,410 950,470 890,470"/>
<polygon id="0x2049c60" class="l1d0" points="890,490 950,490 950,550 890,550"/>
<polygon id="0x2049d20" class="l1d0" points="890,570 950,570 950,630 890,630"/>
<polygon id="0x2049de0" class="l1d0" points="890,650 950,650 950,710 890,710"/>
<polygon id="0x2049ea0" class="l1d0" points="890,730 950,730 950,790 890,790"/>
<polygon id="0x2049f60" class="l1d0" points="890,810 950,810 950,870 890,870"/>
<polygon id="0x204a020" class="l1d0" points="890,890 950,890 950,950 890,950"/>
<polygon id="0x204a0e0" class="l1d0" points="890,970 950,970 950,1030 890,1030"/>
<polygon id="0x204a1a0" class="l1d0" points="890,1050 950,1050 950,1110 890,1110"/>
<polygon id="0x204a260" class="l1d0" points="890,1130 950,1130 950,1190 890,1190"/>
<polygon id="0x204a320" class="l1d0" points="970,10 1030,10 1030,70 970,70"/>
<polygon id="0x204a3e0" class="l1d0" points="970,90 1030,90 1030,150 970,150"/>
<polygon id="0x204a4a0" class="l1d0" points="970,170 1030,170 1030,230 970,230"/>
<polygon id="0x204a560" class="l1d0" points="970,250 1030,250 1030,310 970,310"/>
<polygon id="0x204a620" class="l1d0" points="970,330 1030,330 1030,390 970,390"/>
<polygon id="0x204a6e0" class="l1d0" points="970,410 1030,410 1030,470 970,470"/>
<polygon id="0x204a7a0" class="l1d0" points="970,490 1030,490 1030,550 970,550"/>
<polygon id="0x204a860" class="l1d0" points="970,570 1030,570 1030,630 970,630"/>
<polygon id="0x204a920" class="l1d0" points="970,650 1030,650 1030,710 970,710"/>
<polygon id="0x204a9e0" class="l1d0" points="970,730 1030,730 1030,790 970,790"/>
<polygon id="0x204aaa0" class="l1d0" points="970,810 1030,810 1030,870 970,870"/>
<polygon id="0x204ab60" class="l1d0" points="970,890 1030,890 1030,950 970,950"/>
<polygon id="0x204ac20" class="l1d0" points="970,970 1030,970 1030,1030 970,1030"/>
<polygon id="0x204ace0" class="l1d0" points="970,1050 1030,1050 1030,1110 970,1110"/>
<polygon id="0x204ada0" class="l1d0" points="970,1130 1030,1130 1030,1190 970,1190"/>
<polygon id="0x204ae60" class="l1d0" points="1050,10 1110,10 1110,70 1050,70"/>
<polygon id="0x204af20" class="l1d0" points="1050,90 1110,90 1110,150 1050,150"/>
<polygon id="0x204afe0" class="l1d0" points="1050,170 1110,170 1110,230 1050,230"/>
<polygon id="0x204b0a0" class="l1d0" points="1050,250 1110,250 1110,310 1050,310"/>
<polygon id="0x204b160" class="l1d0" points="1050,330 1110,330 1110,390 1050,390"/>
<polygon id="0x204b220" class="l1d0" points="1050,410 1110,410 1110,470 1050,470"/>
<polygon id="0x204b2e0" class="l1d0" points="1050,490 1110,490 1110,550 1050,550"/>
<polygon id="0x204b3a0" class="l1d0" points="1050,570 1110,570 1110,630 1050,630"/>
<polygon id="0x204b460" class="l1d0" points="1050,650 1110,650 1110,710 1050,710"/>
<polygon id="0x204b520" class="l1d0" points="1050,730 1110,730 1110,790 1050,790"/>
<polygon id="0x204b5e0" class="l1d0" points="1050,810 1110,810 1110,870 1050,870"/>
<polygon id="0x204b6a0" class="l1d0" points="1050,890 1110,890 1110,950 1050,950"/>
<polygon id="0x204b760" class="l1d0" points="1050,970 1110,970 1110,1030 1050,1030"/>
<polygon id="0x204b820" class="l1d0" points="1050,1050 1110,1050 1110,1110 1050,1110"/>
<polygon id="0x204b8e0" class="l1d0" points="1050,1130 1110,1130 1110,1190 1050,1190"/>
<polygon id="0x204b9a0" class="l1d0" points="1130,10 1190,10 1190,70 1130,70"/>
<polygon id="0x204ba60" class="l1d0" points="1130,90 1190,90 1190,150 1130,150"/>
<polygon id="0x204bb20" class="l1d0" points="1130,170 1190,170 1190,230 1130,230"/>
<polygon id="0x204bbe0" class="l1d0" points="1130,250 1190,250 1190,310 1130,310"/>
<polygon id="0x204bca0" class="l1d0" points="1130,330 1190,330 1190,390 1130,390"/>
<polygon id="0x204bd60" class="l1d0" points="1130,410 1190,410 1190,470 1130,470"/>
<polygon id="0x204be20" class="l1d0" points="1130,490 1190,490 1190,550 1130,550"/>
<polygon id="0x204bee0" class="l1d0" points="1130,570 1190,570 1190,630 1130,630"/>
<polygon id="0x204bfa0" class="l1d0" points="1130,650 1190,650 1190,710 1130,710"/>
<polygon id="0x204c060" class="l1d0" points="1130,730 1190,730 1190,790 1130,790"/>
<polygon id="0x204c120" class="l1d0" points="1130,810 1190,810 1190,870 1130,870"/>
<polygon id="0x204c1e0" class="l1d0" points="1130,890 1190,890 1190,950 1130,950"/>
<polygon id="0x204f130" class="l1d0" points="1130,970 1190,970 1190,1030 1130,1030"/>
<polygon id="0x204f1f0" class="l1d0" points="1130,1050 1190,1050 1190,1110 1130,1110"/>
<polygon id="0x204f2b0" class="l1d0" points="1130,1130 1190,1130 1190,1190 1130,1190"/>
<polygon id="0x204f370" class="l1d0" points="1210,10 1270,10 1270,70 1210,70"/>
<polygon id="0x204f430" class="l1d0" points="1210,90 1270,90 1270,150 1210,150"/>
<polygon id="0x204f4f0" class="l1d0" points="1210,170 1270,170 1270,230 1210,230"/>
<polygon id="0x204f5b0" class="l1d0" points="1210,250 1270,250 1270,310 1210,310"/>
<polygon id="0x204f670" class="l1d0" points="1210,330 1270,330 1270,390 1210,390"/>
<polygon id="0x204f730" class="l1d0" points="1210,410 1270,410 1270,470 1210,470"/>
<polygon id="0x204f7f0" class="l1d0" points="1210,490 1270,490 1270,550 1210,550"/>
<polygon id="0x204f8b0" class="l1d0" points="1210,570 1270,570 1270,630 1210,630"/>
<polygon id="0x204f970" class="l1d0" points="1210,650 1270,650 1270,710 1210,710"/>
<polygon id="0x204fa30" class="l1d0" points="1210,730 1270,730 1270,790 1210,790"/>
<polygon id="0x204faf0" class="l1d0" points="1210,810 1270,810 1270,870 1210,870"/>
<polygon id="0x204fbb0" class="l1d0" points="1210,890 1270,890 1270,950 1210,950"/>
<polygon id="0x204fc70" class="l1d0" points="1210,970 1270,970 1270,1030 1210,1030"/>
<polygon id="0x204fd30" class="l1d0" points="1210,1050 1270,1050 1270,1110 1210,1110"/>
<polygon id="0x204fdf0" class="l1d0" points="1210,1130 1270,1130 1270,1190 1210,1190"/>
<polygon id="0x204feb0" class="l1d0" points="1290,10 1350,10 1350,70 1290,70"/>
<polygon id="0x204ff70" class="l1d0" points="1290,90 1350,90 1350,150 1290,150"/>
<polygon id="0x2050030" class="l1d0" points="1290,170 1350,170 1350,230 1290,230"/>
<polygon id="0x20500f0" class="l1d0" points="1290,250 1350,250 1350,310 1290,310"/>
<polygon id="0x20501b0" class="l1d0" points="1290,330 1350,330 1350,390 1290,390"/>
<polygon id="0x2050270" class="l1d0" points="1290,410 1350,410 1350,470 1290,470"/>
<polygon id="0x2050330" class="l1d0" points="1290,490 1350,490 1350,550 1290,550"/>
<polygon id="0x20503f0" class="l1d0" points="1290,570 1350,570 1350,630 1290,630"/>
<polygon id="0x20504b0" class="l1d0" points="1290,650 1350,650 1350,710 1290,710"/>
<polygon id="0x2050570" class="l1d0" points="1290,730 1350,730 1350,790 1290,790"/>
<polygon id="0x2050630" class="l1d0" points="1290,810 1350,810 1350,870 1290,870"/>
<polygon id="0x20506f0" class="l1d0" points="1290,890 1350,890 1350,950 1290,950"/>
<polygon id="0x20507b0" class="l1d0" points="1290,970 1350,970 1350,1030 1290,1030"/>
<polygon id="0x2050870" class="l1d0" points="1290,1050 1350,1050 1350,1110 1290,1110"/>
<polygon id="0x2050930" class="l1d0" points="1290,1130 1350,1130 1350,1190 1290,1190"/>
<polygon id="0x20509f0" class="l1d0" points="1370,10 1430,10 1430,70 1370,70"/>
<polygon id="0x2050ab0" class="l1d0" points="1370,90 1430,90 1430,150 1370,150"/>
<polygon id="0x2050b70" class="l1d0" points="1370,170 1430,170 1430,230 1370,230"/>
<polygon id="0x2050c30" class="l1d0" points="1370,250 1430,250 1430,310 1370,310"/>
<polygon id="0x2050cf0" class="l1d0" points="1370,330 1430,330 1430,390 1370,390"/>
<polygon id="0x2050db0" class="l1d0" points="1370,410 1430,410 1430,470 1370,470"/>
<polygon id="0x2050e70" class="l1d0" points="1370,490 1430,490 1430,550 1370,550"/>
<polygon id="0x2050f30" class="l1d0" points="1370,570 1430,570 1430,630 1370,630"/>
<polygon id="0x2050ff0" class="l1d0" points="1370,650 1430,650 1430,710 1370,710"/>
<polygon id="0x20510b0" class="l1d0" points="1370,730 1430,730 1430,790 1370,790"/>
<polygon id="0x2051170" class="l1d0" points="1370,810 1430,810 1430,870 1370,870"/>
<polygon id="0x2051230" class="l1d0" points="1370,890 1430,890 1430,950 1370,950"/>
<polygon id="0x20512f0" class="l1d0" points="1370,970 1430,970 1430,1030 1370,1030"/>
<polygon id="0x20513b0" class="l1d0" points="1370,1050 1430,1050 1430,1110 1370,1110"/>
<polygon id="0x2051470" class="l1d0" points="1370,1130 1430,1130 1430,1190 1370,1190"/>
<polygon id="0x2051530" class="l1d0" points="1450,10 1510,10 1510,70 1450,70"/>
<polygon id="0x20515f0" class="l1d0" points="1450,90 1510,90 1510,150 1450,150"/>
<polygon id="0x20516b0" class="l1d0" points="1450,170 1510,170 1510,230 1450,230"/>
<polygon id="0x2051770" class="l1d0" points="1450,250 1510,250 1510,310 1450,310"/>
<polygon id="0x2051830" class="l1d0" points="1450,330 1510,330 1510,390 1450,390"/>
<polygon id="0x20518f0" class="l1d0" points="1450,410 1510,410 1510,470 1450,470"/>
<polygon id="0x20519b0" class="l1d0" points="1450,490 1510,490 1510,550 1450,550"/>
<polygon id="0x2051a70" class="l1d0" points="1450,570 1510,570 1510,630 1450,630"/>
<polygon id="0x2051b30" class="l1d0" points="1450,650 1510,650 1510,710 1450,710"/>
<polygon id="0x2051bf0" class="l1d0" points="1450,730 1510,730 1510,790 1450,790"/>
<polygon id="0x2051cb0" class="l1d0" points="1450,810 1510,810 1510,870 1450,870"/>
<polygon id="0x2051d70" class="l1d0" points="1450,890 1510,890 1510,950 1450,950"/>
<polygon id="0x2051e30" class="l1d0" points="1450,970 1510,970 1510,1030 1450,1030"/>
<polygon id="0x2051ef0" class="l1d0" points="1450,1050 1510,1050 1510,1110 1450,1110"/>
<polygon id="0x2051fb0" class="l1d0" points="1450,1130 1510,1130 1510,1190 1450,1190"/>
<polygon id="0x2052070" class="l5d0" points="10,10 70,10 70,70 10,70"/>
<polygon id="0x2052130" class="l5d0" points="10,90 70,90 70,150 10,150"/>
<polygon id="0x20521f0" class="l5d0" points="10,170 70,170 70,230 10,230"/>
<polygon id="0x20522b0" class="l5d0" points="10,250 70,250 70,310 10,310"/>
<polygon id="0x2052370" class="l5d0" points="10,330 70,330 70,390 10,390"/>
<polygon id="0x2052430" class="l5d0" points="10,410 70,410 70,470 10,470"/>
<polygon id="0x20524f0" class="l5d0" points="10,490 70,490 70,550 10,550"/>
<polygon id="0x20525b0" class="l5d0" points="10,570 70,570 70,630 10,630"/>
<polygon id="0x2052670" class="l5d0" points="10,650 70,650 70,710 10,710"/>
<polygon id="0x2052730" class="l5d0" points="10,730 70,730 70,790 10,790"/>
<polygon id="0x20527f0" class="l5d0" points="10,810 70,810 70,870 10,870"/>
<polygon id="0x20528b0" class="l5d0" points="10,890 70,890 70,950 10,950"/>
<polygon id="0x2052970" class="l5d0" points="10,970 70,970 70,1030 10,1030"/>
<polygon id="0x2052a30" class="l5d0" points="10,1050 70,1050 70,1110 10,1110"/>
<polygon id="0x2052af0" class="l5d0" points="10,1130 70,1130 70,1190 10,1190"/>
<polygon id="0x2052bb0" class="l5d0" points="90,10 150,10 150,70 90,70"/>
<polygon id="0x2052c70" class="l5d0" points="90,90 150,90 150,150 90,150"/>
<polygon id="0x2052d30" class="l5d0" points="90,170 150,170 150,230 90,230"/>
<polygon id="0x2052df0" class="l5d0" points="90,250 150,250 150,310 90,310"/>
<polygon id="0x2052eb0" class="l5d0" points="90,330 150,330 150,390 90,390"/>
<polygon id="0x2052f70" class="l5d0" points="90,410 150,410 150,470 90,470"/>
<polygon id="0x2053030" class="l5d0" points="90,490 150,490 150,550 90,550"/>
<polygon id="0x20530f0" class="l5d0" points="90,570 150,570 150,630 90,630"/>
<polygon id="0x20531b0" class="l5d0" points="90,650 150,650 150,710 90,710"/>
<polygon id="0x2053270" class="l5d0" points="90,730 150,730 150,790 90,790"/>
<polygon id="0x2053330" class="l5d0" points="90,810 150,810 150,870 90,870"/>
<polygon id="0x20533f0" class="l5d0" points="90,890 150,890 150,950 90,950"/>
<polygon id="0x20534b0" class="l5d0" points="90,970 150,970 150,1030 90,1030"/>
<polygon id="0x2053570" class="l5d0" points="90,1050 150,1050 150,1110 90,1110"/>
<polygon id="0x2053630" class="l5d0" points="90,1130 150,1130 150,1190 90,1190"/>
<polygon id="0x20536f0" class="l5d0" points="170,10 230,10 230,70 170,70"/>
<polygon id="0x20537b0" class="l5d0" points="170,90 230,90 230,150 170,150"/>
<polygon id="0x2053870" class="l5d0" points="170,170 230,170 230,230 170,230"/>
<polygon id="0x2053930" class="l5d0" points="170,250 230,250 230,310 170,310"/>
<polygon id="0x20539f0" class="l5d0" points="170,330 230,330 230,390 170,390"/>
<polygon id="0x2053ab0" class="l5d0" points="170,410 230,410 230,470 170,470"/>
<polygon id="0x2053b70" class="l5d0" points="170,490 230,490 230,550 170,550"/>
<polygon id="0x2053c30" class="l5d0" points="170,570 230,570 230,630 170,630"/>
<polygon id="0x2053cf0" class="l5d0" points="170,650 230,650 230,710 170,710"/>
<polygon id="0x2053db0" class="l5d0" points="170,730 230,730 230,790 170,790"/>
<polygon id="0x2053e70" class="l5d0" points="170,810 230,810 230,870 170,870"/>
<polygon id="0x2053f30" class="l5d0" points="170,890 230,890 230,950 170,950"/>
<polygon id="0x2053ff0" class="l5d0" points="170,970 230,970 230,1030 170,1030"/>
<polygon id="0x20540b0" class="l5d0" points="170,1050 230,1050 230,1110 170,1110"/>
<polygon id="0x2054170" class="l5d0" points="170,1130 230,1130 230,1190 170,1190"/>
<polygon id="0x2054230" class="l5d0" points="250,10 310,10 310,70 250,70"/>
<polygon id="0x20542f0" class="l5d0" points="250,90 310,90 310,150 250,150"/>
<polygon id="0x20543b0" class="l5d0" points="250,170 310,170 310,230 250,230"/>
<polygon id="0x2054470" class="l5d0" points="250,250 310,250 310,310 250,310"/>
<polygon id="0x2054530" class="l5d0" points="250,330 310,330 310,390 250,390"/>
<polygon id="0x20545f0" class="l5d0" points="250,410 310,410 310,470 250,470"/>
<polygon id="0x20546b0" class="l5d0" points="250,490 310,490 310,550 250,550"/>
<polygon id="0x2054770" class="l5d0" points="250,570 310,570 310,630 250,630"/>
<polygon id="0x2054830" class="l5d0" points="250,650 310,650 310,710 250,710"/>
<polygon id="0x20548f0" class="l5d0" points="250,730 310,730 310,790 250,790"/>
<polygon id="0x20549b0" class="l5d0" points="250,810 310,810 310,870 250,870"/>
<polygon id="0x2054a70" class="l5d0" points="250,890 310,890 310,950 250,950"/>
<polygon id="0x2054b30" class="l5d0" points="250,970 310,970 310,1030 250,1030"/>
<polygon id="0x2054bf0" class="l5d0" points="250,1050 310,1050 310,1110 250,1110"/>
<polygon id="0x2054cb0" class="l5d0" points="250,1130 310,1130 310,1190 250,1190"/>
<polygon id="0x2054d70" class="l5d0" points="330,10 390,10 390,70 330,70"/>
<polygon id="0x2054e30" class="l5d0" points="330,90 390,90 390,150 330,150"/>
<polygon id="0x2054ef0" class="l5d0" points="330,170 390,170 390,230 330,230"/>
<polygon id="0x2054fb0" class="l5d0" points="330,250 390,250 390,310 330,310"/>
<polygon id="0x2055070" class="l5d0" points="330,330 390,330 390,390 330,390"/>
<polygon id="0x2045a80" class="l5d0" points="330,410 390,410 390,470 330,470"/>
<polygon id="0x2045b40" class="l5d0" points="330,490 390,490 390,550 330,550"/>
<polygon id="0x2045c00" class="l5d0" points="330,570 390,570 390,630 330,630"/>
<polygon id="0x2045cc0" class="l5d0" points="330,650 390,650 390,710 330,710"/>
<polygon id="0x2045d80" class="l5d0" points="330,730 390,730 390,790 330,790"/>
<polygon id="0x2045e40" class="l5d0" points="330,810 390,810 390,870 330,870"/>
<polygon id="0x2045f00" class="l5d0" points="330,890 390,890 390,950 330,950"/>
<polygon id="0x2045fc0" class="l5d0" points="330,970 390,970 390,1030 330,1030"/>
<polygon id="0x2046080" class="l5d0" points="330,1050 390,1050 390,1110 330,1110"/>
<polygon id="0x2046140" class="l5d0" points="330,1130 390,1130 390,1190 330,1190"/>
<polygon id="0x2046200" class="l5d0" points="410,10 470,10 470,70 410,70"/>
<polygon id="0x20462c0" class="l5d0" points="410,90 470,90 470,150 410,150"/>
<polygon id="0x2046380" class="l5d0" points="410,170 470,170 470,230 410,230"/>
<polygon id="0x2046440" class="l5d0" points="410,250 470,250 470,310 410,310"/>
<polygon id="0x2046500" class="l5d0" points="410,330 470,330 470,390 410,390"/>
<polygon id="0x20465c0" class="l5d0" points="410,410 470,410 470,470 410,470"/>
<polygon id="0x2046680" class="l5d0" points="410,490 470,490 470,550 410,550"/>
<polygon id="0x2046740" class="l5d0" points="410,570 470,570 470,630 410,630"/>
<polygon id="0x2046800" class="l5d0" points="410,650 470,650 470,710 410,710"/>
<polygon id="0x20468c0" class="l5d0" points="410,730 470,730 470,790 410,790"/>
<polygon id="0x2046980" class="l5d0" points="410,810 470,810 470,870 410,870"/>
<polygon id="0x2057140" class="l5d0" points="410,890 470,890 470,950 410,950"/>
<polygon id="0x20571b0" class="l5d0" points="410,970 470,970 470,1030 410,1030"/>
<polygon id="0x2057270" class="l5d0" points="410,1050 470,1050 470,1110 410,1110"/>
<polygon id="0x2057330" class="l5d0" points="410,1130 470,1130 470,1190 410,1190"/>
<polygon id="0x20573f0" class="l5d0" points="490,10 550,10 550,70 490,70"/>
<polygon id="0x20574b0" class="l5d0" points="490,90 550,90 550,150 490,150"/>
<polygon id="0x2057570" class="l5d0" points="490,170 550,170 550,230 490,230"/>
<polygon id="0x2057630" class="l5d0" points="490,250 550,250 550,310 490,310"/>
<polygon id="0x20576f0" class="l5d0" points="490,330 550,330 550,390 490,390"/>
<polygon id="0x20577b0" class="l5d0" points="490,410 550,410 550,470 490,470"/>
<polygon id="0x2057870" class="l5d0" points="490,490 550,490 550,550 490,550"/>
<polygon id="0x2057930" class="l5d0" points="490,570 550,570 550,630 490,630"/>
<polygon id="0x20579f0" class="l5d0" points="490,650 550,650 550,710 490,710"/>
<polygon id="0x2057ab0" class="l5d0" points="490,730 550,730 550,790 490,790"/>
<polygon id="0x2057b70" class="l5d0" points="490,810 550,810 550,870 490,870"/>
<polygon id="0x2057c30" class="l5d0" points="490,890 550,890 550,950 490,950"/>
<polygon id="0x2057cf0" class="l5d0" points="490,970 550,970 550,1030 490,1030"/>
<polygon id="0x2057db0" class="l5d0" points="490,1050 550,1050 550,1110 490,1110"/>
<polygon id="0x2057e70" class="l5d0" points="490,1130 550,1130 550,1190 490,1190"/>
<polygon id="0x2057f30" class="l5d0" points="570,10 630,10 630,70 570,70"/>
<polygon id="0x2057ff0" class="l5d0" points="570,90 630,90 630,150 570,150"/>
<polygon id="0x20580b0" class="l5d0" points="570,170 630,170 630,230 570,230"/>
<polygon id="0x2058170" class="l5d0" points="570,250 630,250 630,310 570,310"/>
<polygon id="0x2058230" class="l5d0" points="570,330 630,330 630,390 570,390"/>
<polygon id="0x20582f0" class="l5d0" points="570,410 630,410 630,470 570,470"/>
<polygon id="0x20583b0" class="l5d0" points="570,490 630,490 630,550 570,550"/>
<polygon id="0x2058470" class="l5d0" points="570,570 630,570 630,630 570,630"/>
<polygon id="0x2058530" class="l5d0" points="570,650 630,650 630,710 570,710"/>
<polygon id="0x20585f0" class="l5d0" points="570,730 630,730 630,790 570,790"/>
<polygon id="0x20586b0" class="l5d0" points="570,810 630,810 630,870 570,870"/>
<polygon id="0x2058770" class="l5d0" points="570,890 630,890 630,950 570,950"/>
<polygon id="0x2058830" class="l5d0" points="570,970 630,970 630,1030 570,1030"/>
<polygon id="0x20588f0" class="l5d0" points="570,1050 630,1050 630,1110 570,1110"/>
<polygon id="0x20589b0" class="l5d0" points="570,1130 630,1130 630,1190 570,1190"/>
<polygon id="0x2058a70" class="l5d0" points="650,10 710,10 710,70 650,70"/>
<polygon id="0x2058b30" class="l5d0" points="650,90 710,90 710,150 650,150"/>
<polygon id="0x2058bf0" class="l5d0" points="650,170 710,170 710,230 650,230"/>
<polygon id="0x2058cb0" class="l5d0" points="650,250 710,250 710,310 650,310"/>
<polygon id="0x2058d70" class="l5d0" points="650,330 710,330 710,390 650,390"/>
<polygon id="0x2058e30" class="l5d0" points="650,410 710,410 710,470 650,470"/>
<polygon id="0x2058ef0" class="l5d0" points="650,490 710,490 710,550 650,550"/>
<polygon id="0x2058fb0" class="l5d0" points="650,570 710,570 710,630 650,630"/>
<polygon id="0x2059070" class="l5d0" points="650,650 710,650 710,710 650,710"/>
<polygon id="0x2059130" class="l5d0" points="650,730 710,730 710,790 650,790"/>
<polygon id="0x20591f0" class="l5d0" points="650,810 710,810 710,870 650,870"/>
<polygon id="0x20592b0" class="l5d0" points="650,890 710,890 710,950 650,950"/>
<polygon id="0x2059370" class="l5d0" points="650,970 710,970 710,1030 650,1030"/>
<polygon id="0x2059430" class="l5d0" points="650,1050 710,1050 710,1110 650,1110"/>
<polygon id="0x20594f0" class="l5d0" points="650,1130 710,1130 710,1190 650,1190"/>
<polygon id="0x20595b0" class="l5d0" points="730,10 790,10 790,70 730,70"/>
<polygon id="0x2059670" class="l5d0" points="730,90 790,90 790,150 730,150"/>
<polygon id="0x2059730" class="l5d0" points="730,170 790,170 790,230 730,230"/>
<polygon id="0x20597f0" class="l5d0" points="730,250 790,250 790,310 730,310"/>
<polygon id="0x20598b0" class="l5d0" points="730,330 790,330 790,390 730,390"/>
<polygon id="0x2059970" class="l5d0" points="730,410 790,410 790,470 730,470"/>
<polygon id="0x2059a30" class="l5d0" points="730,490 790,490 790,550 730,550"/>
<polygon id="0x2059af0" class="l5d0" points="730,570 790,570 790,630 730,630"/>
<polygon id="0x2059bb0" class="l5d0" points="730,650 790,650 790,710 730,710"/>
<polygon id="0x2059c70" class="l5d0" points="730,730 790,730 790,790 730,790"/>
<polygon id="0x2059d30" class="l5d0" points="730,810 790,810 790,870 730,870"/>
<polygon id="0x2059df0" class="l5d0" points="730,890 790,890 790,950 730,950"/>
<polygon id="0x2059eb0" class="l5d0" points="730,970 790,970 790,1030 730,1030"/>
<polygon id="0x2059f70" class="l5d0" points="730,1050 790,1050 790,1110 730,1110"/>
<polygon id="0x205a030" class="l5d0" points="730,1130 790,1130 790,1190 730,1190"/>
<polygon id="0x205a0f0" class="l5d0" points="810,10 870,10 870,70 810,70"/>
<polygon id="0x205a1b0" class="l5d0" points="810,90 870,90 870,150 810,150"/>
<polygon id="0x205a270" class="l5d0" points="810,170 870,170 870,230 810,230"/>
<polygon id="0x205a330" class="l5d0" points="810,250 870,250 870,310 810,310"/>
<polygon id="0x205a3f0" class="l5d0" points="810,330 870,330 870,390 810,390"/>
<polygon id="0x205a4b0" class="l5d0" points="810,410 870,410 870,470 810,470"/>
<polygon id="0x205a570" class="l5d0" points="810,490 870,490 870,550 810,550"/>
<polygon id="0x205a630" class="l5d0" points="810,570 870,570 870,630 810,630"/>
<polygon id="0x205a6f0" class="l5d0" points="810,650 870,650 870,710 810,710"/>
<polygon id="0x205a7b0" class="l5d0" points="810,730 870,730 870,790 810,790"/>
<polygon id="0x205a870" class="l5d0" points="810,810 870,810 870,870 810,870"/>
<polygon id="0x205a930" class="l5d0" points="810,890 870,890 870,950 810,950"/>
<polygon id="0x205a9f0" class="l5d0" points="810,970 870,970 870,1030 810,1030"/>
<polygon id="0x205aab0" class="l5d0" points="810,1050 870,1050 870,1110 810,1110"/>
<polygon id="0x205ab70" class="l5d0" points="810,1130 870,1130 870,1190 810,1190"/>
<polygon id="0x205ac30" class="l5d0" points="890,10 950,10 950,70 890,70"/>
<polygon id="0x205acf0" class="l5d0" points="890,90 950,90 950,150 890,150"/>
<polygon id="0x205adb0" class="l5d0" points="890,170 950,170 950,230 890,230"/>
<polygon id="0x205ae70" class="l5d0" points="890,250 950,250 950,310 890,310"/>
<polygon id="0x205af30" class="l5d0" points="890,330 950,330 950,390 890,390"/>
<polygon id="0x205aff0" class="l5d0" points="890,410 950,410 950,470 890,470"/>
<polygon id="0x205b0b0" class="l5d0" points="890,490 950,490 950,550 890,550"/>
<polygon id="0x205b170" class="l5d0" points="890,570 950,570 950,630 890,630"/>
<polygon id="0x205b230" class="l5d0" points="890,650 950,650 950,710 890,710"/>
<polygon id="0x205b2f0" class="l5d0" points="890,730 950,730 950,790 890,790"/>
<polygon id="0x205b3b0" class="l5d0" points="890,810 950,810 950,870 890,870"/>
<polygon id="0x205b470" class="l5d0" points="890,890 950,890 950,950 890,950"/>
<polygon id="0x205b530" class="l5d0" points="890,970 950,970 950,1030 890,1030"/>
<polygon id="0x205b5f0" class="l5d0" points="890,1050 950,1050 950,1110 890,1110"/>
<polygon id="0x205b6b0" class="l5d0" points="890,1130 950,1130 950,1190 890,1190"/>
<polygon id="0x205b770" class="l5d0" points="970,10 1030,10 1030,70 970,70"/>
<polygon id="0x205b830" class="l5d0" points="970,90 1030,90 1030,150 970,150"/>
<polygon id="0x205b8f0" class="l5d0" points="970,170 1030,170 1030,230 970,230"/>
<polygon id="0x205b9b0" class="l5d0" points="970,250 1030,250 1030,310 970,310"/>
<polygon id="0x205ba70" class="l5d0" points="970,330 1030,330 1030,390 970,390"/>
<polygon id="0x205bb30" class="l5d0" points="970,410 1030,410 1030,470 970,470"/>
<polygon id="0x205bbf0" class="l5d0" points="970,490 1030,490 1030,550 970,550"/>
<polygon id="0x205bcb0" class="l5d0" points="970,570 1030,570 1030,630 970,630"/>
<polygon id="0x205bd70" class="l5d0" points="970,650 1030,650 1030,710 970,710"/>
<polygon id="0x205be30" class="l5d0" points="970,730 1030,730 1030,790 970,790"/>
<polygon id="0x205bef0" class="l5d0" points="970,810 1030,810 1030,870 970,870"/>
<polygon id="0x205bfb0" class="l5d0" points="970,890 1030,890 1030,950 970,950"/>
<polygon id="0x205c070" class="l5d0" points="970,970 1030,970 1030,1030 970,1030"/>
<polygon id="0x205c130" class="l5d0" points="970,1050 1030,1050 1030,1110 970,1110"/>
<polygon id="0x205c1f0" class="l5d0" points="970,1130 1030,1130 1030,1190 970,1190"/>
<polygon id="0x205c2b0" class="l5d0" points="1050,10 1110,10 1110,70 1050,70"/>
<polygon id="0x205c370" class="l5d0" points="1050,90 1110,90 1110,150 1050,150"/>
<polygon id="0x205c430" class="l5d0" points="1050,170 1110,170 1110,230 1050,230"/>
<polygon id="0x205c4f0" class="l5d0" points="1050,250 1110,250 1110,310 1050,310"/>
<polygon id="0x205c5b0" class="l5d0" points="1050,330 1110,330 1110,390 1050,390"/>
<polygon id="0x205c670" class="l5d0" points="1050,410 1110,410 1110,470 1050,470"/>
<polygon id="0x205c730" class="l5d0" points="1050,490 1110,490 1110,550 1050,550"/>
<polygon id="0x205c7f0" class="l5d0" points="1050,570 1110,570 1110,630 1050,630"/>
<polygon id="0x205c8b0" class="l5d0" points="1050,650 1110,650 1110,710 1050,710"/>
<polygon id="0x205c970" class="l5d0" points="1050,730 1110,730 1110,790 1050,790"/>
<polygon id="0x205ca30" class="l5d0" points="1050,810 1110,810 1110,870 1050,870"/>
<polygon id="0x205caf0" class="l5d0" points="1050,890 1110,890 1110,950 1050,950"/>
<polygon id="0x205cbb0" class="l5d0" points="1050,970 1110,970 1110,1030 1050,1030"/>
<polygon id="0x205cc70" class="l5d0" points="1050,1050 1110,1050 1110,1110 1050,1110"/>
<polygon id="0x205cd30" class="l5d0" points="1050,1130 1110,1130 1110,1190 1050,1190"/>
<polygon id="0x205cdf0" class="l5d0" points="1130,10 1190,10 1190,70 1130,70"/>
<polygon id="0x205ceb0" class="l5d0" points="1130,90 1190,90 1190,150 1130,150"/>
<polygon id="0x205cf70" class="l5d0" points="1130,170 1190,170 1190,230 1130,230"/>
<polygon id="0x205d030" class="l5d0" points="1130,250 1190,250 1190,310 1130,310"/>
<polygon id="0x205d0f0" class="l5d0" points="1130,330 1190,330 1190,390 1130,390"/>
<polygon id="0x205d1b0" class="l5d0" points="1130,410 1190,410 1190,470 1130,470"/>
<polygon id="0x205d270" class="l5d0" points="1130,490 1190,490 1190,550 1130,550"/>
<polygon id="0x205d330" class="l5d0" points="1130,570 1190,570 1190,630 1130,630"/>
<polygon id="0x205d3f0" class="l5d0" points="1130,650 1190,650 1190,710 1130,710"/>
<polygon id="0x205d4b0" class="l5d0" points="1130,730 1190,730 1190,790 1130,790"/>
<polygon id="0x205d570" class="l5d0" points="1130,810 1190,810 1190,870 1130,870"/>
<polygon id="0x205d630" class="l5d0" points="1130,890 1190,890 1190,950 1130,950"/>
<polygon id="0x205d6f0" class="l5d0" points="1130,970 1190,970 1190,1030 1130,1030"/>
<polygon id="0x205d7b0" class="l5d0" points="1130,1050 1190,1050 1190,1110 1130,1110"/>
<polygon id="0x205d870" class="l5d0" points="1130,1130 1190,1130 1190,1190 1130,1190"/>
<polygon id="0x205d930" class="l5d0" points="1210,10 1270,10 1270,70 1210,70"/>
<polygon id="0x205d9f0" class="l5d0" points="1210,90 1270,90 1270,150 1210,150"/>
<polygon id="0x205dab0" class="l5d0" points="1210,170 1270,170 1270,230 1210,230"/>
<polygon id="0x205db70" class="l5d0" points="1210,250 1270,250 1270,310 1210,310"/>
<polygon id="0x205dc30" class="l5d0" points="1210,330 1270,330 1270,390 1210,390"/>
<polygon id="0x205dcf0" class="l5d0" points="1210,410 1270,410 1270,470 1210,470"/>
<polygon id="0x205ddb0" class="l5d0" points="1210,490 1270,490 1270,550 1210,550"/>
<polygon id="0x205de70" class="l5d0" points="1210,570 1270,570 1270,630 1210,630"/>
<polygon id="0x205df30" class="l5d0" points="1210,650 1270,650 1270,710 1210,710"/>
<polygon id="0x205dff0" class="l5d0" points="1210,730 1270,730 1270,790 1210,790"/>
<polygon id="0x205e0b0" class="l5d0" points="1210,810 1270,810 1270,870 1210,870"/>
<polygon id="0x205e170" class="l5d0" points="1210,890 1270,890 1270,950 1210,950"/>
<polygon id="0x205e230" class="l5d0" points="1210,970 1270,970 1270,1030 1210,1030"/>
<polygon id="0x205e2f0" class="l5d0" points="1210,1050 1270,1050 1270,1110 1210,1110"/>
<polygon id="0x205e3b0" class="l5d0" points="1210,1130 1270,1130 1270,1190 1210,1190"/>
<polygon id="0x205e470" class="l5d0" points="1290,10 1350,10 1350,70 1290,70"/>
<polygon id="0x205e530" class="l5d0" points="1290,90 1350,90 1350,150 1290,150"/>
<polygon id="0x205e5f0" class="l5d0" points="1290,170 1350,170 1350,230 1290,230"/>
<polygon id="0x205e6b0" class="l5d0" points="1290,250 1350,250 1350,310 1290,310"/>
<polygon id="0x205e770" class="l5d0" points="1290,330 1350,330 1350,390 1290,390"/>
<polygon id="0x205e830" class="l5d0" points="1290,410 1350,410 1350,470 1290,470"/>
<polygon id="0x205e8f0" class="l5d0" points="1290,490 1350,490 1350,550 1290,550"/>
<polygon id="0x205e9b0" class="l5d0" points="1290,570 1350,570 1350,630 1290,630"/>
<polygon id="0x205ea70" class="l5d0" points="1290,650 1350,650 1350,710 1290,710"/>
<polygon id="0x205eb30" class="l5d0" points="1290,730 1350,730 1350,790 1290,790"/>
<polygon id="0x205ebf0" class="l5d0" points="1290,810 1350,810 1350,870 1290,870"/>
<polygon id="0x205ecb0" class="l5d0" points="1290,890 1350,890 1350,950 1290,950"/>
<polygon id="0x205ed70" class="l5d0" points="1290,970 1350,970 1350,1030 1290,1030"/>
<polygon id="0x205ee30" class="l5d0" points="1290,1050 1350,1050 1350,1110 1290,1110"/>
<polygon id="0x205eef0" class="l5d0" points="1290,1130 1350,1130 1350,1190 1290,1190"/>
<polygon id="0x205efb0" class="l5d0" points="1370,10 1430,10 1430,70 1370,70"/>
<polygon id="0x205f070" class="l5d0" points="1370,90 1430,90 1430,150 1370,150"/>
<polygon id="0x205f130" class="l5d0" points="1370,170 1430,170 1430,230 1370,230"/>
<polygon id="0x205f1f0" class="l5d0" points="1370,250 1430,250 1430,310 1370,310"/>
<polygon id="0x205f2b0" class="l5d0" points="1370,330 1430,330 1430,390 1370,390"/>
<polygon id="0x205f370" class="l5d0" points="1370,410 1430,410 1430,470 1370,470"/>
<polygon id="0x205f430" class="l5d0" points="1370,490 1430,490 1430,550 1370,550"/>
<polygon id="0x205f4f0" class="l5d0" points="1370,570 1430,570 1430,630 1370,630"/>
<polygon id="0x205f5b0" class="l5d0" points="1370,650 1430,650 1430,710 1370,710"/>
<polygon id="0x205f670" class="l5d0" points="1370,730 1430,730 1430,790 1370,790"/>
<polygon id="0x205f730" class="l5d0" points="1370,810 1430,810 1430,870 1370,870"/>
<polygon id="0x205f7f0" class="l5d0" points="1370,890 1430,890 1430,950 1370,950"/>
<polygon id="0x205f8b0" class="l5d0" points="1370,970 1430,970 1430,1030 1370,1030"/>
<polygon id="0x205f970" class="l5d0" points="1370,1050 1430,1050 1430,1110 1370,1110"/>
<polygon id="0x205fa30" class="l5d0" points="1370,1130 1430,1130 1430,1190 1370,1190"/>
<polygon id="0x205faf0" class="l5d0" points="1450,10 1510,10 1510,70 1450,70"/>
<polygon id="0x205fbb0" class="l5d0" points="1450,90 1510,90 1510,150 1450,150"/>
<polygon id="0x205fc70" class="l5d0" points="1450,170 1510,170 1510,230 1450,230"/>
<polygon id="0x205fd30" class="l5d0" points="1450,250 1510,250 1510,310 1450,310"/>
<polygon id="0x205fdf0" class="l5d0" points="1450,330 1510,330 1510,390 1450,390"/>
<polygon id="0x205feb0" class="l5d0" points="1450,410 1510,410 1510,470 1450,470"/>
<polygon id="0x205ff70" class="l5d0" points="1450,490 1510,490 1510,550 1450,550"/>
<polygon id="0x2060030" class="l5d0" points="1450,570 1510,570 1510,630 1450,630"/>
<polygon id="0x20600f0" class="l5d0" points="1450,650 1510,650 1510,710 1450,710"/>
<polygon id="0x20601b0" class="l5d0" points="1450,730 1510,730 1510,790 1450,790"/>
<polygon id="0x2060270" class="l5d0" points="1450,810 1510,810 1510,870 1450,870"/>
<polygon id="0x2060330" class="l5d0" points="1450,890 1510,890 1510,950 1450,950"/>
<polygon id="0x20603f0" class="l5d0" points="1450,970 1510,970 1510,1030 1450,1030"/>
<polygon id="0x20604b0" class="l5d0" points="1450,1050 1510,1050 1510,1110 1450,1110"/>
<polygon id="0x2060570" class="l5d0" points="1450,1130 1510,1130 1510,1190 1450,1190"/>
</g>
</svg>