<?xml version="1.0" encoding="UTF-8"?>
<svg xmlns="http://www.w3.org/2000/svg" xmlns:xlink="http://www.w3.org/1999/xlink" width="1144" height="1144" viewBox="-52 -1092 1144 1144">
<defs>
<style type="text/css">
.l126d0 {stroke: #E68FAC; fill: #E68FAC; fill-opacity: 0.5;}
.l189d4 {stroke: #A1CAF1; fill: #A1CAF1; fill-opacity: 0.5;}
</style>
</defs>
<rect x="-52" y="-1092" width="1144" height="1144" fill="#222222" stroke="none"/>
<g id="my_logo" transform="scale(1 -1)">
<polygon id="0x151c570" class="l126d0" points="480,20 640,20 640,60 480,60"/>
<polygon id="0x1560be0" class="l126d0" points="720,20 880,20 880,60 720,60"/>
<polygon id="0x14d7590" class="l126d0" points="960,20 1040,20 1040,60 960,60"/>
<polygon id="0x1569a60" class="l126d0" points="0,100 80,100 80,140 0,140"/>
<polygon id="0x1574690" class="l126d0" points="160,100 320,100 320,140 160,140"/>
<polygon id="0x14e65b0" class="l126d0" points="400,100 560,100 560,140 400,140"/>
<polygon id="0x14d0e10" class="l126d0" points="640,100 720,100 720,140 640,140"/>
<polygon id="0x1515780" class="l126d0" points="880,100 960,100 960,140 880,140"/>
<polygon id="0x16d3ba0" class="l126d0" points="0,180 80,180 80,220 0,220"/>
<polygon id="0x16481f0" class="l126d0" points="160,180 560,180 560,220 160,220"/>
<polygon id="0x164a200" class="l126d0" points="640,180 720,180 720,220 640,220"/>
<polygon id="0x1682c10" class="l126d0" points="880,180 1040,180 1040,220 880,220"/>
<polygon id="0x139c930" class="l126d0" points="160,260 240,260 240,300 160,300"/>
<polygon id="0x1578ba0" class="l126d0" points="560,260 640,260 640,300 560,300"/>
<polygon id="0x16c6110" class="l126d0" points="880,260 1040,260 1040,300 880,300"/>
<polygon id="0x16c4bc0" class="l126d0" points="80,340 160,340 160,380 80,380"/>
<polygon id="0x16fe780" class="l126d0" points="320,340 480,340 480,380 320,380"/>
<polygon id="0x1669830" class="l126d0" points="640,340 720,340 720,380 640,380"/>
<polygon id="0x168d6e0" class="l126d0" points="800,340 960,340 960,380 800,380"/>
<polygon id="0x16a8140" class="l126d0" points="0,420 80,420 80,460 0,460"/>
<polygon id="0x16c0240" class="l126d0" points="240,420 320,420 320,460 240,460"/>
<polygon id="0x16c34e0" class="l126d0" points="400,420 480,420 480,460 400,460"/>
<polygon id="0x164c0c0" class="l126d0" points="560,420 880,420 880,460 560,460"/>
<polygon id="0x16517c0" class="l126d0" points="960,420 1040,420 1040,460 960,460"/>
<polygon id="0x1693580" class="l126d0" points="80,500 240,500 240,540 80,540"/>
<polygon id="0x16a3cf0" class="l126d0" points="320,500 480,500 480,540 320,540"/>
<polygon id="0x16973c0" class="l126d0" points="560,500 640,500 640,540 560,540"/>
<polygon id="0x142fa50" class="l126d0" points="720,500 960,500 960,540 720,540"/>
<polygon id="0x145fc50" class="l126d0" points="640,580 720,580 720,620 640,620"/>
<polygon id="0x1602d90" class="l126d0" points="800,580 1040,580 1040,620 800,620"/>
<polygon id="0x1630680" class="l126d0" points="160,660 320,660 320,700 160,700"/>
<polygon id="0x1662f20" class="l126d0" points="400,660 480,660 480,700 400,700"/>
<polygon id="0x14af890" class="l126d0" points="640,660 720,660 720,700 640,700"/>
<polygon id="0x14af900" class="l126d0" points="960,660 1040,660 1040,700 960,700"/>
<polygon id="0x16f6060" class="l126d0" points="0,740 160,740 160,780 0,780"/>
<polygon id="0x16f6120" class="l126d0" points="320,740 480,740 480,780 320,780"/>
<polygon id="0x16f61e0" class="l126d0" points="640,740 720,740 720,780 640,780"/>
<polygon id="0x16f62a0" class="l126d0" points="880,740 960,740 960,780 880,780"/>
<polygon id="0x16f6360" class="l126d0" points="0,820 80,820 80,860 0,860"/>
<polygon id="0x16f6420" class="l126d0" points="240,820 320,820 320,860 240,860"/>
<polygon id="0x16f64e0" class="l126d0" points="720,820 800,820 800,860 720,860"/>
<polygon id="0x16f65a0" class="l126d0" points="880,820 960,820 960,860 880,860"/>
<polygon id="0x16f6660" class="l126d0" points="0,900 80,900 80,940 0,940"/>
<polygon id="0x16f6720" class="l126d0" points="160,900 320,900 320,940 160,940"/>
<polygon id="0x16f67e0" class="l126d0" points="480,900 560,900 560,940 480,940"/>
<polygon id="0x16f68a0" class="l126d0" points="800,900 960,900 960,940 800,940"/>
<polygon id="0x16f6960" class="l126d0" points="0,980 80,980 80,1020 0,1020"/>
<polygon id="0x16f6a20" class="l126d0" points="240,980 320,980 320,1020 240,1020"/>
<polygon id="0x16f6ae0" class="l126d0" points="400,980 480,980 480,1020 400,1020"/>
<polygon id="0x16f6ba0" class="l126d0" points="560,980 800,980 800,1020 560,1020"/>
<polygon id="0x16f6c60" class="l126d0" points="20,0 60,0 60,80 20,80"/>
<polygon id="0x16f6d20" class="l126d0" points="20,240 60,240 60,400 20,400"/>
<polygon id="0x16f6de0" class="l126d0" points="20,480 60,480 60,720 20,720"/>
<polygon id="0x16f6ea0" class="l126d0" points="100,0 140,0 140,320 100,320"/>
<polygon id="0x16f6f60" class="l126d0" points="100,400 140,400 140,480 100,480"/>
<polygon id="0x16f7020" class="l126d0" points="100,560 140,560 140,720 100,720"/>
<polygon id="0x16f70e0" class="l126d0" points="100,800 140,800 140,1040 100,1040"/>
<polygon id="0x16f71a0" class="l126d0" points="180,0 220,0 220,80 180,80"/>
<polygon id="0x16f7260" class="l126d0" points="180,320 220,320 220,480 180,480"/>
<polygon id="0x16f7320" class="l126d0" points="180,560 220,560 220,640 180,640"/>
<polygon id="0x16f73e0" class="l126d0" points="180,720 220,720 220,880 180,880"/>
<polygon id="0x16f74a0" class="l126d0" points="180,960 220,960 220,1040 180,1040"/>
<polygon id="0x16f7560" class="l126d0" points="260,0 300,0 300,80 260,80"/>
<polygon id="0x16f7620" class="l126d0" points="260,240 300,240 300,400 260,400"/>
<polygon id="0x16f76e0" class="l126d0" points="260,480 300,480 300,640 260,640"/>
<polygon id="0x149d5d0" class="l126d0" points="260,720 300,720 300,800 260,800"/>
<polygon id="0x1515360" class="l126d0" points="340,0 380,0 380,160 340,160"/>
<polygon id="0x1539440" class="l126d0" points="340,240 380,240 380,320 340,320"/>
<polygon id="0x1563b20" class="l126d0" points="340,400 380,400 380,480 340,480"/>
<polygon id="0x15f5b30" class="l126d0" points="340,560 380,560 380,720 340,720"/>
<polygon id="0x161eaa0" class="l126d0" points="340,800 380,800 380,1040 340,1040"/>
<polygon id="0x166abb0" class="l126d0" points="420,0 460,0 460,80 420,80"/>
<polygon id="0x1691810" class="l126d0" points="420,240 460,240 460,320 420,320"/>
<polygon id="0x16d84b0" class="l126d0" points="420,560 460,560 460,640 420,640"/>
<polygon id="0x14a8380" class="l126d0" points="420,800 460,800 460,960 420,960"/>
<polygon id="0x1512220" class="l126d0" points="500,240 540,240 540,880 500,880"/>
<polygon id="0x15d8900" class="l126d0" points="500,960 540,960 540,1040 500,1040"/>
<polygon id="0x16a6dc0" class="l126d0" points="580,80 620,80 620,240 580,240"/>
<polygon id="0x165bec0" class="l126d0" points="580,320 620,320 620,400 580,400"/>
<polygon id="0x1621770" class="l126d0" points="580,560 620,560 620,960 580,960"/>
<polygon id="0x16241e0" class="l126d0" points="660,0 700,0 700,80 660,80"/>
<polygon id="0x163ced0" class="l126d0" points="660,240 700,240 700,320 660,320"/>
<polygon id="0x1652f40" class="l126d0" points="660,480 700,480 700,560 660,560"/>
<polygon id="0x16ce940" class="l126d0" points="660,800 700,800 700,960 660,960"/>
<polygon id="0x1500bb0" class="l126d0" points="740,80 780,80 780,400 740,400"/>
<polygon id="0x14f8450" class="l126d0" points="740,560 780,560 780,800 740,800"/>
<polygon id="0x14f84c0" class="l126d0" points="740,880 780,880 780,960 740,960"/>
<polygon id="0x1543f30" class="l126d0" points="820,80 860,80 860,320 820,320"/>
<polygon id="0x1566900" class="l126d0" points="820,640 860,640 860,880 820,880"/>
<polygon id="0x15cf330" class="l126d0" points="820,960 860,960 860,1040 820,1040"/>
<polygon id="0x15cf3a0" class="l126d0" points="900,0 940,0 940,80 900,80"/>
<polygon id="0x163c000" class="l126d0" points="900,400 940,400 940,480 900,480"/>
<polygon id="0x1656070" class="l126d0" points="900,640 940,640 940,720 900,720"/>
<polygon id="0x16a3310" class="l126d0" points="900,960 940,960 940,1040 900,1040"/>
<polygon id="0x16a3380" class="l126d0" points="980,80 1020,80 1020,160 980,160"/>
<polygon id="0x16996d0" class="l126d0" points="980,320 1020,320 1020,400 980,400"/>
<polygon id="0x16d7bc0" class="l126d0" points="980,480 1020,480 1020,560 980,560"/>
<polygon id="0x14a3950" class="l126d0" points="980,720 1020,720 1020,1040 980,1040"/>
<polygon id="0x14a39c0" class="l189d4" points="0,0 1040,0 1040,1040 0,1040"/>
</g>
</svg>