<?xml version="1.0" encoding="UTF-8"?>
<svg xmlns="http://www.w3.org/2000/svg" xmlns:xlink="http://www.w3.org/1999/xlink" width="1496" height="1336" viewBox="-68 -1268 1496 1336">
<defs>
<style type="text/css">
.l126d0 {stroke: #E68FAC; fill: #E68FAC; fill-opacity: 0.5;}
.l189d4 {stroke: #A1CAF1; fill: #A1CAF1; fill-opacity: 0.5;}
.l2d0 {stroke: #BE0032; fill: #BE0032; fill-opacity: 0.5;}
</style>
</defs>
<rect x="-68" y="-1268" width="1496" height="1336" fill="#222222" stroke="none"/>
<g id="my_logo" transform="scale(1 -1)">
<polygon id="0x2407710" class="l126d0" points="0,20 240,20 240,60 0,60"/>
<polygon id="0x2433580" class="l126d0" points="400,20 480,20 480,60 400,60"/>
<polygon id="0x22ab2b0" class="l126d0" points="560,20 640,20 640,60 560,60"/>
<polygon id="0x248c910" class="l126d0" points="800,20 880,20 880,60 800,60"/>
<polygon id="0x2596a60" class="l126d0" points="240,100 400,100 400,140 240,140"/>
<polygon id="0x25e79f0" class="l126d0" points="640,100 720,100 720,140 640,140"/>
<polygon id="0x255c040" class="l126d0" points="800,100 1200,100 1200,140 800,140"/>
<polygon id="0x255e050" class="l126d0" points="0,180 240,180 240,220 0,220"/>
<polygon id="0x2575ba0" class="l126d0" points="320,180 400,180 400,220 320,220"/>
<polygon id="0x25eb1b0" class="l126d0" points="480,180 800,180 800,220 480,220"/>
<polygon id="0x2611610" class="l126d0" points="880,180 1120,180 1120,220 880,220"/>
<polygon id="0x24edf30" class="l126d0" points="1280,180 1360,180 1360,220 1280,220"/>
<polygon id="0x25a1530" class="l126d0" points="80,260 160,260 160,300 80,300"/>
<polygon id="0x25ace80" class="l126d0" points="240,260 640,260 640,300 240,300"/>
<polygon id="0x25d4090" class="l126d0" points="800,260 880,260 880,300 800,300"/>
<polygon id="0x25f34a0" class="l126d0" points="1040,260 1200,260 1200,300 1040,300"/>
<polygon id="0x24f5030" class="l126d0" points="1280,260 1360,260 1360,300 1280,300"/>
<polygon id="0x257d680" class="l126d0" points="0,340 80,340 80,380 0,380"/>
<polygon id="0x255ff60" class="l126d0" points="320,340 640,340 640,380 320,380"/>
<polygon id="0x2565660" class="l126d0" points="720,340 800,340 800,380 720,380"/>
<polygon id="0x25a7420" class="l126d0" points="960,340 1200,340 1200,380 960,380"/>
<polygon id="0x25b7b90" class="l126d0" points="80,420 320,420 320,460 80,460"/>
<polygon id="0x25ab260" class="l126d0" points="400,420 480,420 480,460 400,460"/>
<polygon id="0x2341e70" class="l126d0" points="560,420 880,420 880,460 560,460"/>
<polygon id="0x23c2880" class="l126d0" points="960,420 1120,420 1120,460 960,460"/>
<polygon id="0x23d5920" class="l126d0" points="1200,420 1360,420 1360,460 1200,460"/>
<polygon id="0x23e6900" class="l126d0" points="0,500 160,500 160,540 0,540"/>
<polygon id="0x2428d30" class="l126d0" points="240,500 400,500 400,540 240,540"/>
<polygon id="0x23733d0" class="l126d0" points="480,500 560,500 560,540 480,540"/>
<polygon id="0x25169a0" class="l126d0" points="800,500 960,500 960,540 800,540"/>
<polygon id="0x2544520" class="l126d0" points="1040,500 1120,500 1120,540 1040,540"/>
<polygon id="0x2576dc0" class="l126d0" points="0,580 80,580 80,620 0,620"/>
<polygon id="0x2509730" class="l126d0" points="240,580 480,580 480,620 240,620"/>
<polygon id="0x2609e60" class="l126d0" points="640,580 960,580 960,620 640,620"/>
<polygon id="0x2609f20" class="l126d0" points="1280,580 1360,580 1360,620 1280,620"/>
<polygon id="0x2609fe0" class="l126d0" points="160,660 240,660 240,700 160,700"/>
<polygon id="0x260a0a0" class="l126d0" points="320,660 480,660 480,700 320,700"/>
<polygon id="0x260a160" class="l126d0" points="560,660 880,660 880,700 560,700"/>
<polygon id="0x260a220" class="l126d0" points="1040,660 1200,660 1200,700 1040,700"/>
<polygon id="0x260a2e0" class="l126d0" points="1280,660 1360,660 1360,700 1280,700"/>
<polygon id="0x260a3a0" class="l126d0" points="80,740 240,740 240,780 80,780"/>
<polygon id="0x260a460" class="l126d0" points="320,740 480,740 480,780 320,780"/>
<polygon id="0x260a520" class="l126d0" points="640,740 720,740 720,780 640,780"/>
<polygon id="0x260a5e0" class="l126d0" points="1120,740 1200,740 1200,780 1120,780"/>
<polygon id="0x260a6a0" class="l126d0" points="0,820 80,820 80,860 0,860"/>
<polygon id="0x260a760" class="l126d0" points="160,820 400,820 400,860 160,860"/>
<polygon id="0x260a820" class="l126d0" points="720,820 880,820 880,860 720,860"/>
<polygon id="0x260a8e0" class="l126d0" points="1120,820 1280,820 1280,860 1120,860"/>
<polygon id="0x260a9a0" class="l126d0" points="80,900 240,900 240,940 80,940"/>
<polygon id="0x260aa60" class="l126d0" points="400,900 480,900 480,940 400,940"/>
<polygon id="0x260ab20" class="l126d0" points="880,900 1200,900 1200,940 880,940"/>
<polygon id="0x260abe0" class="l126d0" points="1280,900 1360,900 1360,940 1280,940"/>
<polygon id="0x260aca0" class="l126d0" points="160,980 240,980 240,1020 160,1020"/>
<polygon id="0x260ad60" class="l126d0" points="320,980 480,980 480,1020 320,1020"/>
<polygon id="0x260ae20" class="l126d0" points="560,980 640,980 640,1020 560,1020"/>
<polygon id="0x260aee0" class="l126d0" points="800,980 880,980 880,1020 800,1020"/>
<polygon id="0x260afa0" class="l126d0" points="1120,980 1200,980 1200,1020 1120,1020"/>
<polygon id="0x260b060" class="l126d0" points="1280,980 1360,980 1360,1020 1280,1020"/>
<polygon id="0x260b120" class="l126d0" points="0,1060 80,1060 80,1100 0,1100"/>
<polygon id="0x260b1e0" class="l126d0" points="400,1060 720,1060 720,1100 400,1100"/>
<polygon id="0x260b2a0" class="l126d0" points="800,1060 880,1060 880,1100 800,1100"/>
<polygon id="0x260b360" class="l126d0" points="1280,1060 1360,1060 1360,1100 1280,1100"/>
<polygon id="0x260b420" class="l126d0" points="0,1140 320,1140 320,1180 0,1180"/>
<polygon id="0x260b4e0" class="l126d0" points="480,1140 640,1140 640,1180 480,1180"/>
<polygon id="0x260b5a0" class="l126d0" points="720,1140 800,1140 800,1180 720,1180"/>
<polygon id="0x2532940" class="l126d0" points="1120,1140 1200,1140 1200,1180 1120,1180"/>
<polygon id="0x257ea50" class="l126d0" points="1280,1140 1360,1140 1360,1180 1280,1180"/>
<polygon id="0x25a56b0" class="l126d0" points="20,80 60,80 60,160 20,160"/>
<polygon id="0x25ec350" class="l126d0" points="20,240 60,240 60,320 20,320"/>
<polygon id="0x23aa6e0" class="l126d0" points="20,400 60,400 60,480 20,480"/>
<polygon id="0x23bb360" class="l126d0" points="20,640 60,640 60,800 20,800"/>
<polygon id="0x2412fe0" class="l126d0" points="20,880 60,880 60,1040 20,1040"/>
<polygon id="0x24265e0" class="l126d0" points="100,80 140,80 140,160 100,160"/>
<polygon id="0x24ec510" class="l126d0" points="100,320 140,320 140,400 100,400"/>
<polygon id="0x25bac60" class="l126d0" points="100,560 140,560 140,720 100,720"/>
<polygon id="0x256fd60" class="l126d0" points="100,800 140,800 140,880 100,880"/>
<polygon id="0x23b6940" class="l126d0" points="100,960 140,960 140,1120 100,1120"/>
<polygon id="0x2535610" class="l126d0" points="180,80 220,80 220,160 180,160"/>
<polygon id="0x2538080" class="l126d0" points="180,240 220,240 220,400 180,400"/>
<polygon id="0x2550d70" class="l126d0" points="180,480 220,480 220,640 180,640"/>
<polygon id="0x2566de0" class="l126d0" points="180,1040 220,1040 220,1120 180,1120"/>
<polygon id="0x25e27e0" class="l126d0" points="260,0 300,0 300,80 260,80"/>
<polygon id="0x240c670" class="l126d0" points="260,160 300,160 300,240 260,240"/>
<polygon id="0x2457880" class="l126d0" points="260,320 300,320 300,400 260,400"/>
<polygon id="0x247a670" class="l126d0" points="260,640 300,640 300,800 260,800"/>
<polygon id="0x247a6e0" class="l126d0" points="260,880 300,880 300,1120 260,1120"/>
<polygon id="0x24e2f40" class="l126d0" points="340,0 380,0 380,80 340,80"/>
<polygon id="0x254fe00" class="l126d0" points="340,400 380,400 380,480 340,480"/>
<polygon id="0x2569ec0" class="l126d0" points="340,880 380,880 380,960 340,960"/>
<polygon id="0x2569f30" class="l126d0" points="340,1040 380,1040 380,1200 340,1200"/>
<polygon id="0x25b71b0" class="l126d0" points="420,80 460,80 460,240 420,240"/>
<polygon id="0x25ad4d0" class="l126d0" points="420,480 460,480 460,560 420,560"/>
<polygon id="0x25eba10" class="l126d0" points="420,800 460,800 460,880 420,880"/>
<polygon id="0x25eba80" class="l126d0" points="420,1120 460,1120 460,1200 420,1200"/>
<polygon id="0x23f6720" class="l126d0" points="500,0 540,0 540,160 500,160"/>
<polygon id="0x22be610" class="l126d0" points="500,400 540,400 540,480 500,480"/>
<polygon id="0x23d7a80" class="l126d0" points="500,560 540,560 540,1040 500,1040"/>
<polygon id="0x24557f0" class="l126d0" points="580,80 620,80 620,160 580,160"/>
<polygon id="0x251e6c0" class="l126d0" points="580,480 620,480 620,640 580,640"/>
<polygon id="0x2597c70" class="l126d0" points="580,720 620,720 620,960 580,960"/>
<polygon id="0x2556fe0" class="l126d0" points="660,0 700,0 700,80 660,80"/>
<polygon id="0x25c5440" class="l126d0" points="660,240 700,240 700,400 660,400"/>
<polygon id="0x25db7c0" class="l126d0" points="660,480 700,480 700,560 660,560"/>
<polygon id="0x239cde0" class="l126d0" points="660,800 700,800 700,1040 660,1040"/>
<polygon id="0x239cea0" class="l126d0" points="660,1120 700,1120 700,1200 660,1200"/>
<polygon id="0x23be280" class="l126d0" points="740,0 780,0 780,160 740,160"/>
<polygon id="0x23be340" class="l126d0" points="740,240 780,240 780,320 740,320"/>
<polygon id="0x23e2640" class="l126d0" points="740,480 780,480 780,560 740,560"/>
<polygon id="0x23e2700" class="l126d0" points="740,720 780,720 780,800 740,800"/>
<polygon id="0x24e59c0" class="l126d0" points="740,880 780,880 780,1120 740,1120"/>
<polygon id="0x24e5a80" class="l126d0" points="820,160 860,160 860,240 820,240"/>
<polygon id="0x24e3440" class="l126d0" points="820,320 860,320 860,400 820,400"/>
<polygon id="0x24e3500" class="l126d0" points="820,720 860,720 860,800 820,800"/>
<polygon id="0x23d91c0" class="l126d0" points="820,880 860,880 860,960 820,960"/>
<polygon id="0x23d9280" class="l126d0" points="820,1120 860,1120 860,1200 820,1200"/>
<polygon id="0x2430350" class="l126d0" points="900,0 940,0 940,80 900,80"/>
<polygon id="0x2430410" class="l126d0" points="900,240 940,240 940,480 900,480"/>
<polygon id="0x2534150" class="l126d0" points="900,640 940,640 940,880 900,880"/>
<polygon id="0x2534210" class="l126d0" points="900,960 940,960 940,1200 900,1200"/>
<polygon id="0x22eb0d0" class="l126d0" points="980,0 1020,0 1020,80 980,80"/>
<polygon id="0x22eb190" class="l126d0" points="980,240 1020,240 1020,320 980,320"/>
<polygon id="0x25786f0" class="l126d0" points="980,480 1020,480 1020,880 980,880"/>
<polygon id="0x257c5b0" class="l126d0" points="980,960 1020,960 1020,1200 980,1200"/>
<polygon id="0x257c670" class="l126d0" points="1060,0 1100,0 1100,80 1060,80"/>
<polygon id="0x2386bb0" class="l126d0" points="1060,560 1100,560 1100,640 1060,640"/>
<polygon id="0x23a8a70" class="l126d0" points="1060,720 1100,720 1100,880 1060,880"/>
<polygon id="0x23a8ae0" class="l126d0" points="1060,960 1100,960 1100,1200 1060,1200"/>
<polygon id="0x23b2ad0" class="l126d0" points="1140,0 1180,0 1180,80 1140,80"/>
<polygon id="0x23b2b90" class="l126d0" points="1140,160 1180,160 1180,240 1140,240"/>
<polygon id="0x23eb7a0" class="l126d0" points="1140,400 1180,400 1180,640 1140,640"/>
<polygon id="0x23d54d0" class="l126d0" points="1140,1040 1180,1040 1180,1120 1140,1120"/>
<polygon id="0x23d5540" class="l126d0" points="1220,0 1260,0 1260,400 1220,400"/>
<polygon id="0x2414800" class="l126d0" points="1220,480 1260,480 1260,800 1220,800"/>
<polygon id="0x24148c0" class="l126d0" points="1220,880 1260,880 1260,1200 1220,1200"/>
<polygon id="0x24ee520" class="l126d0" points="1300,0 1340,0 1340,160 1300,160"/>
<polygon id="0x2503e20" class="l126d0" points="1300,320 1340,320 1340,400 1300,400"/>
<polygon id="0x2503e90" class="l126d0" points="1300,480 1340,480 1340,560 1300,560"/>
<polygon id="0x25b5d30" class="l126d0" points="1300,720 1340,720 1340,880 1300,880"/>
<polygon id="0x25b5df0" class="l189d4" points="0,0 300,0 300,300 0,300"/>
<polygon id="0x25ae400" class="l2d0" points="30,30 50,30 50,50 30,50"/>
<polygon id="0x23a6cd0" class="l2d0" points="30,110 50,110 50,130 30,130"/>
<polygon id="0x23a6d40" class="l2d0" points="30,190 50,190 50,210 30,210"/>
<polygon id="0x23e4480" class="l2d0" points="30,270 50,270 50,290 30,290"/>
<polygon id="0x23e4540" class="l2d0" points="30,350 50,350 50,370 30,370"/>
<polygon id="0x240dee0" class="l2d0" points="30,430 50,430 50,450 30,450"/>
<polygon id="0x2398ae0" class="l2d0" points="30,510 50,510 50,530 30,530"/>
<polygon id="0x2398ba0" class="l2d0" points="30,590 50,590 50,610 30,610"/>
<polygon id="0x2426060" class="l2d0" points="30,670 50,670 50,690 30,690"/>
<polygon id="0x2426120" class="l2d0" points="30,750 50,750 50,770 30,770"/>
<polygon id="0x2476910" class="l2d0" points="30,830 50,830 50,850 30,850"/>
<polygon id="0x24e3a50" class="l2d0" points="30,910 50,910 50,930 30,930"/>
<polygon id="0x24e3b10" class="l2d0" points="30,990 50,990 50,1010 30,1010"/>
<polygon id="0x24f2020" class="l2d0" points="30,1070 50,1070 50,1090 30,1090"/>
<polygon id="0x24f20e0" class="l2d0" points="30,1150 50,1150 50,1170 30,1170"/>
<polygon id="0x23a4f50" class="l2d0" points="110,30 130,30 130,50 110,50"/>
<polygon id="0x23a5010" class="l2d0" points="110,110 130,110 130,130 110,130"/>
<polygon id="0x242f330" class="l2d0" points="110,190 130,190 130,210 110,210"/>
<polygon id="0x242f3f0" class="l2d0" points="110,270 130,270 130,290 110,290"/>
<polygon id="0x24544f0" class="l2d0" points="110,350 130,350 130,370 110,370"/>
<polygon id="0x24545b0" class="l2d0" points="110,430 130,430 130,450 110,450"/>
<polygon id="0x24c1410" class="l2d0" points="110,510 130,510 130,530 110,530"/>
<polygon id="0x24c14d0" class="l2d0" points="110,590 130,590 130,610 110,610"/>
<polygon id="0x25b32f0" class="l2d0" points="110,670 130,670 130,690 110,690"/>
<polygon id="0x25b33b0" class="l2d0" points="110,750 130,750 130,770 110,770"/>
<polygon id="0x25e2d70" class="l2d0" points="110,830 130,830 130,850 110,850"/>
<polygon id="0x25e2e30" class="l2d0" points="110,910 130,910 130,930 110,930"/>
<polygon id="0x25e8c30" class="l2d0" points="110,990 130,990 130,1010 110,1010"/>
<polygon id="0x25e8cf0" class="l2d0" points="110,1070 130,1070 130,1090 110,1090"/>
<polygon id="0x23d42a0" class="l2d0" points="110,1150 130,1150 130,1170 110,1170"/>
<polygon id="0x23d4360" class="l2d0" points="190,30 210,30 210,50 190,50"/>
<polygon id="0x23daf70" class="l2d0" points="190,110 210,110 210,130 190,130"/>
<polygon id="0x23db030" class="l2d0" points="190,190 210,190 210,210 190,210"/>
<polygon id="0x2475810" class="l2d0" points="190,270 210,270 210,290 190,290"/>
<polygon id="0x24758d0" class="l2d0" points="190,350 210,350 210,370 190,370"/>
<polygon id="0x24f8ce0" class="l2d0" points="190,430 210,430 210,450 190,450"/>
<polygon id="0x24f8da0" class="l2d0" points="190,510 210,510 210,530 190,530"/>
<polygon id="0x253c9a0" class="l2d0" points="190,590 210,590 210,610 190,610"/>
<polygon id="0x253ca60" class="l2d0" points="190,670 210,670 210,690 190,690"/>
<polygon id="0x23d1ac0" class="l2d0" points="190,750 210,750 210,770 190,770"/>
<polygon id="0x23d1b80" class="l2d0" points="190,830 210,830 210,850 190,850"/>
<polygon id="0x23e7880" class="l2d0" points="190,910 210,910 210,930 190,930"/>
<polygon id="0x23e7940" class="l2d0" points="190,990 210,990 210,1010 190,1010"/>
<polygon id="0x2429a10" class="l2d0" points="190,1070 210,1070 210,1090 190,1090"/>
<polygon id="0x2429ad0" class="l2d0" points="190,1150 210,1150 210,1170 190,1170"/>
<polygon id="0x243ff50" class="l2d0" points="270,30 290,30 290,50 270,50"/>
<polygon id="0x2440010" class="l2d0" points="270,110 290,110 290,130 270,130"/>
<polygon id="0x24371a0" class="l2d0" points="270,190 290,190 290,210 270,210"/>
<polygon id="0x2437260" class="l2d0" points="270,270 290,270 290,290 270,290"/>
<polygon id="0x2512a00" class="l2d0" points="270,350 290,350 290,370 270,370"/>
<polygon id="0x2512ac0" class="l2d0" points="270,430 290,430 290,450 270,450"/>
<polygon id="0x25c3e30" class="l2d0" points="270,510 290,510 290,530 270,530"/>
<polygon id="0x25c3ef0" class="l2d0" points="270,590 290,590 290,610 270,610"/>
<polygon id="0x25d95f0" class="l2d0" points="270,670 290,670 290,690 270,690"/>
<polygon id="0x25d96b0" class="l2d0" points="270,750 290,750 290,770 270,770"/>
<polygon id="0x23415a0" class="l2d0" points="270,830 290,830 290,850 270,850"/>
<polygon id="0x2341660" class="l2d0" points="270,910 290,910 290,930 270,930"/>
<polygon id="0x238f940" class="l2d0" points="270,990 290,990 290,1010 270,1010"/>
<polygon id="0x238fa00" class="l2d0" points="270,1070 290,1070 290,1090 270,1090"/>
<polygon id="0x23d25b0" class="l2d0" points="270,1150 290,1150 290,1170 270,1170"/>
<polygon id="0x23d2670" class="l2d0" points="350,30 370,30 370,50 350,50"/>
<polygon id="0x2428530" class="l2d0" points="350,110 370,110 370,130 350,130"/>
<polygon id="0x24285f0" class="l2d0" points="350,190 370,190 370,210 350,210"/>
<polygon id="0x24bbbd0" class="l2d0" points="350,270 370,270 370,290 350,290"/>
<polygon id="0x24bbc90" class="l2d0" points="350,350 370,350 370,370 350,370"/>
<polygon id="0x252daf0" class="l2d0" points="350,430 370,430 370,450 350,450"/>
<polygon id="0x252dbb0" class="l2d0" points="350,510 370,510 370,530 350,530"/>
<polygon id="0x23a6850" class="l2d0" points="350,590 370,590 370,610 350,610"/>
<polygon id="0x23a6910" class="l2d0" points="350,670 370,670 370,690 350,690"/>
<polygon id="0x2473720" class="l2d0" points="350,750 370,750 370,770 350,770"/>
<polygon id="0x24737e0" class="l2d0" points="350,830 370,830 370,850 350,850"/>
<polygon id="0x24c3b60" class="l2d0" points="350,910 370,910 370,930 350,930"/>
<polygon id="0x24c3c20" class="l2d0" points="350,990 370,990 370,1010 350,1010"/>
<polygon id="0x251dfc0" class="l2d0" points="350,1070 370,1070 370,1090 350,1090"/>
<polygon id="0x251e080" class="l2d0" points="350,1150 370,1150 370,1170 350,1170"/>
<polygon id="0x24fb320" class="l2d0" points="430,30 450,30 450,50 430,50"/>
<polygon id="0x24fb3e0" class="l2d0" points="430,110 450,110 450,130 430,130"/>
<polygon id="0x253d2a0" class="l2d0" points="430,190 450,190 450,210 430,210"/>
<polygon id="0x253d360" class="l2d0" points="430,270 450,270 450,290 430,290"/>
<polygon id="0x25c6fd0" class="l2d0" points="430,350 450,350 450,370 430,370"/>
<polygon id="0x25c7090" class="l2d0" points="430,430 450,430 450,450 430,450"/>
<polygon id="0x23a7490" class="l2d0" points="430,510 450,510 450,530 430,530"/>
<polygon id="0x23a7550" class="l2d0" points="430,590 450,590 450,610 430,610"/>
<polygon id="0x247b040" class="l2d0" points="430,670 450,670 450,690 430,690"/>
<polygon id="0x247b100" class="l2d0" points="430,750 450,750 450,770 430,770"/>
<polygon id="0x2546d50" class="l2d0" points="430,830 450,830 450,850 430,850"/>
<polygon id="0x2546dc0" class="l2d0" points="430,910 450,910 450,930 430,930"/>
<polygon id="0x2546e80" class="l2d0" points="430,990 450,990 450,1010 430,1010"/>
<polygon id="0x255f800" class="l2d0" points="430,1070 450,1070 450,1090 430,1090"/>
<polygon id="0x255f8c0" class="l2d0" points="430,1150 450,1150 450,1170 430,1170"/>
<polygon id="0x25a2cf0" class="l2d0" points="510,30 530,30 530,50 510,50"/>
<polygon id="0x25a2db0" class="l2d0" points="510,110 530,110 530,130 510,130"/>
<polygon id="0x248a100" class="l2d0" points="510,190 530,190 530,210 510,210"/>
<polygon id="0x248a170" class="l2d0" points="510,270 530,270 530,290 510,290"/>
<polygon id="0x248a230" class="l2d0" points="510,350 530,350 530,370 510,370"/>
<polygon id="0x247c180" class="l2d0" points="510,430 530,430 530,450 510,450"/>
<polygon id="0x247c240" class="l2d0" points="510,510 530,510 530,530 510,530"/>
<polygon id="0x24efda0" class="l2d0" points="510,590 530,590 530,610 510,610"/>
<polygon id="0x24efe60" class="l2d0" points="510,670 530,670 530,690 510,690"/>
<polygon id="0x25576d0" class="l2d0" points="510,750 530,750 530,770 510,770"/>
<polygon id="0x2557790" class="l2d0" points="510,830 530,830 530,850 510,850"/>
<polygon id="0x255f270" class="l2d0" points="510,910 530,910 530,930 510,930"/>
<polygon id="0x255f330" class="l2d0" points="510,990 530,990 530,1010 510,1010"/>
<polygon id="0x25c7680" class="l2d0" points="510,1070 530,1070 530,1090 510,1090"/>
<polygon id="0x25c7740" class="l2d0" points="510,1150 530,1150 530,1170 510,1170"/>
<polygon id="0x2342750" class="l2d0" points="590,30 610,30 610,50 590,50"/>
<polygon id="0x2342810" class="l2d0" points="590,110 610,110 610,130 590,130"/>
<polygon id="0x23ed270" class="l2d0" points="590,190 610,190 610,210 590,210"/>
<polygon id="0x23ed330" class="l2d0" points="590,270 610,270 610,290 590,290"/>
<polygon id="0x23ed3f0" class="l2d0" points="590,350 610,350 610,370 590,370"/>
<polygon id="0x243ee00" class="l2d0" points="590,430 610,430 610,450 590,450"/>
<polygon id="0x243eec0" class="l2d0" points="590,510 610,510 610,530 590,530"/>
<polygon id="0x243ef80" class="l2d0" points="590,590 610,590 610,610 590,610"/>
<polygon id="0x244da80" class="l2d0" points="590,670 610,670 610,690 590,690"/>
<polygon id="0x244db40" class="l2d0" points="590,750 610,750 610,770 590,770"/>
<polygon id="0x244dc00" class="l2d0" points="590,830 610,830 610,850 590,850"/>
<polygon id="0x25047c0" class="l2d0" points="590,910 610,910 610,930 590,930"/>
<polygon id="0x2504880" class="l2d0" points="590,990 610,990 610,1010 590,1010"/>
<polygon id="0x2504940" class="l2d0" points="590,1070 610,1070 610,1090 590,1090"/>
<polygon id="0x2573620" class="l2d0" points="590,1150 610,1150 610,1170 590,1170"/>
<polygon id="0x25736e0" class="l2d0" points="670,30 690,30 690,50 670,50"/>
<polygon id="0x25737a0" class="l2d0" points="670,110 690,110 690,130 670,130"/>
<polygon id="0x245af10" class="l2d0" points="670,190 690,190 690,210 670,210"/>
<polygon id="0x245afd0" class="l2d0" points="670,270 690,270 690,290 670,290"/>
<polygon id="0x245b090" class="l2d0" points="670,350 690,350 690,370 670,370"/>
<polygon id="0x259bbe0" class="l2d0" points="670,430 690,430 690,450 670,450"/>
<polygon id="0x259bca0" class="l2d0" points="670,510 690,510 690,530 670,530"/>
<polygon id="0x2554520" class="l2d0" points="670,590 690,590 690,610 670,610"/>
<polygon id="0x25545e0" class="l2d0" points="670,670 690,670 690,690 670,690"/>
<polygon id="0x25546a0" class="l2d0" points="670,750 690,750 690,770 670,770"/>
<polygon id="0x25b9eb0" class="l2d0" points="670,830 690,830 690,850 670,850"/>
<polygon id="0x25b9f70" class="l2d0" points="670,910 690,910 690,930 670,930"/>
<polygon id="0x260c670" class="l2d0" points="670,990 690,990 690,1010 670,1010"/>
<polygon id="0x260c730" class="l2d0" points="670,1070 690,1070 690,1090 670,1090"/>
<polygon id="0x260c7f0" class="l2d0" points="670,1150 690,1150 690,1170 670,1170"/>
<polygon id="0x260c8b0" class="l2d0" points="750,30 770,30 770,50 750,50"/>
<polygon id="0x260c970" class="l2d0" points="750,110 770,110 770,130 750,130"/>
<polygon id="0x260ca30" class="l2d0" points="750,190 770,190 770,210 750,210"/>
<polygon id="0x260caf0" class="l2d0" points="750,270 770,270 770,290 750,290"/>
<polygon id="0x260cbb0" class="l2d0" points="750,350 770,350 770,370 750,370"/>
<polygon id="0x260cc70" class="l2d0" points="750,430 770,430 770,450 750,450"/>
<polygon id="0x260cd30" class="l2d0" points="750,510 770,510 770,530 750,530"/>
<polygon id="0x260cdf0" class="l2d0" points="750,590 770,590 770,610 750,610"/>
<polygon id="0x260ceb0" class="l2d0" points="750,670 770,670 770,690 750,690"/>
<polygon id="0x260cf70" class="l2d0" points="750,750 770,750 770,770 750,770"/>
<polygon id="0x260d030" class="l2d0" points="750,830 770,830 770,850 750,850"/>
<polygon id="0x260d0f0" class="l2d0" points="750,910 770,910 770,930 750,930"/>
<polygon id="0x260d1b0" class="l2d0" points="750,990 770,990 770,1010 750,1010"/>
<polygon id="0x260d270" class="l2d0" points="750,1070 770,1070 770,1090 750,1090"/>
<polygon id="0x260d330" class="l2d0" points="750,1150 770,1150 770,1170 750,1170"/>
<polygon id="0x260d3f0" class="l2d0" points="830,30 850,30 850,50 830,50"/>
<polygon id="0x260d4b0" class="l2d0" points="830,110 850,110 850,130 830,130"/>
<polygon id="0x260d570" class="l2d0" points="830,190 850,190 850,210 830,210"/>
<polygon id="0x260d630" class="l2d0" points="830,270 850,270 850,290 830,290"/>
<polygon id="0x260d6f0" class="l2d0" points="830,350 850,350 850,370 830,370"/>
<polygon id="0x260d7b0" class="l2d0" points="830,430 850,430 850,450 830,450"/>
<polygon id="0x260d870" class="l2d0" points="830,510 850,510 850,530 830,530"/>
<polygon id="0x260d930" class="l2d0" points="830,590 850,590 850,610 830,610"/>
<polygon id="0x260d9f0" class="l2d0" points="830,670 850,670 850,690 830,690"/>
<polygon id="0x260dab0" class="l2d0" points="830,750 850,750 850,770 830,770"/>
<polygon id="0x260db70" class="l2d0" points="830,830 850,830 850,850 830,850"/>
<polygon id="0x260dc30" class="l2d0" points="830,910 850,910 850,930 830,930"/>
<polygon id="0x260dcf0" class="l2d0" points="830,990 850,990 850,1010 830,1010"/>
<polygon id="0x260ddb0" class="l2d0" points="830,1070 850,1070 850,1090 830,1090"/>
<polygon id="0x260de70" class="l2d0" points="830,1150 850,1150 850,1170 830,1170"/>
<polygon id="0x260df30" class="l2d0" points="910,30 930,30 930,50 910,50"/>
<polygon id="0x260dff0" class="l2d0" points="910,110 930,110 930,130 910,130"/>
<polygon id="0x260e0b0" class="l2d0" points="910,190 930,190 930,210 910,210"/>
<polygon id="0x260e170" class="l2d0" points="910,270 930,270 930,290 910,290"/>
<polygon id="0x260e230" class="l2d0" points="910,350 930,350 930,370 910,370"/>
<polygon id="0x260e2f0" class="l2d0" points="910,430 930,430 930,450 910,450"/>
<polygon id="0x260e3b0" class="l2d0" points="910,510 930,510 930,530 910,530"/>
<polygon id="0x260e470" class="l2d0" points="910,590 930,590 930,610 910,610"/>
<polygon id="0x260e530" class="l2d0" points="910,670 930,670 930,690 910,690"/>
<polygon id="0x260e5f0" class="l2d0" points="910,750 930,750 930,770 910,770"/>
<polygon id="0x260e6b0" class="l2d0" points="910,830 930,830 930,850 910,850"/>
<polygon id="0x260e770" class="l2d0" points="910,910 930,910 930,930 910,930"/>
<polygon id="0x260e830" class="l2d0" points="910,990 930,990 930,1010 910,1010"/>
<polygon id="0x260e8f0" class="l2d0" points="910,1070 930,1070 930,1090 910,1090"/>
<polygon id="0x260e9b0" class="l2d0" points="910,1150 930,1150 930,1170 910,1170"/>
<polygon id="0x260ea70" class="l2d0" points="990,30 1010,30 1010,50 990,50"/>
<polygon id="0x260eb30" class="l2d0" points="990,110 1010,110 1010,130 990,130"/>
<polygon id="0x260ebf0" class="l2d0" points="990,190 1010,190 1010,210 990,210"/>
<polygon id="0x260ecb0" class="l2d0" points="990,270 1010,270 1010,290 990,290"/>
<polygon id="0x260ed70" class="l2d0" points="990,350 1010,350 1010,370 990,370"/>
<polygon id="0x260ee30" class="l2d0" points="990,430 1010,430 1010,450 990,450"/>
<polygon id="0x260eef0" class="l2d0" points="990,510 1010,510 1010,530 990,530"/>
<polygon id="0x260efb0" class="l2d0" points="990,590 1010,590 1010,610 990,610"/>
<polygon id="0x260f070" class="l2d0" points="990,670 1010,670 1010,690 990,690"/>
<polygon id="0x260f130" class="l2d0" points="990,750 1010,750 1010,770 990,770"/>
<polygon id="0x260f1f0" class="l2d0" points="990,830 1010,830 1010,850 990,850"/>
<polygon id="0x260f2b0" class="l2d0" points="990,910 1010,910 1010,930 990,930"/>
<polygon id="0x260f370" class="l2d0" points="990,990 1010,990 1010,1010 990,1010"/>
<polygon id="0x260f430" class="l2d0" points="990,1070 1010,1070 1010,1090 990,1090"/>
<polygon id="0x260f4f0" class="l2d0" points="990,1150 1010,1150 1010,1170 990,1170"/>
<polygon id="0x260f5b0" class="l2d0" points="1070,30 1090,30 1090,50 1070,50"/>
<polygon id="0x260f670" class="l2d0" points="1070,110 1090,110 1090,130 1070,130"/>
<polygon id="0x260f730" class="l2d0" points="1070,190 1090,190 1090,210 1070,210"/>
<polygon id="0x260f7f0" class="l2d0" points="1070,270 1090,270 1090,290 1070,290"/>
<polygon id="0x260f8b0" class="l2d0" points="1070,350 1090,350 1090,370 1070,370"/>
<polygon id="0x260f970" class="l2d0" points="1070,430 1090,430 1090,450 1070,450"/>
<polygon id="0x260fa30" class="l2d0" points="1070,510 1090,510 1090,530 1070,530"/>
<polygon id="0x260faf0" class="l2d0" points="1070,590 1090,590 1090,610 1070,610"/>
<polygon id="0x260fbb0" class="l2d0" points="1070,670 1090,670 1090,690 1070,690"/>
<polygon id="0x260fc70" class="l2d0" points="1070,750 1090,750 1090,770 1070,770"/>
<polygon id="0x260fd30" class="l2d0" points="1070,830 1090,830 1090,850 1070,850"/>
<polygon id="0x260fdf0" class="l2d0" points="1070,910 1090,910 1090,930 1070,930"/>
<polygon id="0x260feb0" class="l2d0" points="1070,990 1090,990 1090,1010 1070,1010"/>
<polygon id="0x260ff70" class="l2d0" points="1070,1070 1090,1070 1090,1090 1070,1090"/>
<polygon id="0x2610030" class="l2d0" points="1070,1150 1090,1150 1090,1170 1070,1170"/>
<polygon id="0x26100f0" class="l2d0" points="1150,30 1170,30 1170,50 1150,50"/>
<polygon id="0x26101b0" class="l2d0" points="1150,110 1170,110 1170,130 1150,130"/>
<polygon id="0x2610270" class="l2d0" points="1150,190 1170,190 1170,210 1150,210"/>
<polygon id="0x2610330" class="l2d0" points="1150,270 1170,270 1170,290 1150,290"/>
<polygon id="0x26103f0" class="l2d0" points="1150,350 1170,350 1170,370 1150,370"/>
<polygon id="0x26104b0" class="l2d0" points="1150,430 1170,430 1170,450 1150,450"/>
<polygon id="0x2610570" class="l2d0" points="1150,510 1170,510 1170,530 1150,530"/>
<polygon id="0x2610630" class="l2d0" points="1150,590 1170,590 1170,610 1150,610"/>
<polygon id="0x26106f0" class="l2d0" points="1150,670 1170,670 1170,690 1150,690"/>
<polygon id="0x26107b0" class="l2d0" points="1150,750 1170,750 1170,770 1150,770"/>
<polygon id="0x2610870" class="l2d0" points="1150,830 1170,830 1170,850 1150,850"/>
<polygon id="0x2610930" class="l2d0" points="1150,910 1170,910 1170,930 1150,930"/>
<polygon id="0x26109f0" class="l2d0" points="1150,990 1170,990 1170,1010 1150,1010"/>
<polygon id="0x2610ab0" class="l2d0" points="1150,1070 1170,1070 1170,1090 1150,1090"/>
<polygon id="0x2610b70" class="l2d0" points="1150,1150 1170,1150 1170,1170 1150,1170"/>
<polygon id="0x2610c30" class="l2d0" points="1230,30 1250,30 1250,50 1230,50"/>
<polygon id="0x2610cf0" class="l2d0" points="1230,110 1250,110 1250,130 1230,130"/>
<polygon id="0x2610db0" class="l2d0" points="1230,190 1250,190 1250,210 1230,210"/>
<polygon id="0x2610e70" class="l2d0" points="1230,270 1250,270 1250,290 1230,290"/>
<polygon id="0x2613800" class="l2d0" points="1230,350 1250,350 1250,370 1230,370"/>
<polygon id="0x26138c0" class="l2d0" points="1230,430 1250,430 1250,450 1230,450"/>
<polygon id="0x2613980" class="l2d0" points="1230,510 1250,510 1250,530 1230,530"/>
<polygon id="0x2613a40" class="l2d0" points="1230,590 1250,590 1250,610 1230,610"/>
<polygon id="0x2613b00" class="l2d0" points="1230,670 1250,670 1250,690 1230,690"/>
<polygon id="0x2613bc0" class="l2d0" points="1230,750 1250,750 1250,770 1230,770"/>
<polygon id="0x2613c80" class="l2d0" points="1230,830 1250,830 1250,850 1230,850"/>
<polygon id="0x2613d40" class="l2d0" points="1230,910 1250,910 1250,930 1230,930"/>
<polygon id="0x2613e00" class="l2d0" points="1230,990 1250,990 1250,1010 1230,1010"/>
<polygon id="0x2613ec0" class="l2d0" points="1230,1070 1250,1070 1250,1090 1230,1090"/>
<polygon id="0x2613f80" class="l2d0" points="1230,1150 1250,1150 1250,1170 1230,1170"/>
<polygon id="0x2614040" class="l2d0" points="1310,30 1330,30 1330,50 1310,50"/>
<polygon id="0x2614100" class="l2d0" points="1310,110 1330,110 1330,130 1310,130"/>
<polygon id="0x26141c0" class="l2d0" points="1310,190 1330,190 1330,210 1310,210"/>
<polygon id="0x2614280" class="l2d0" points="1310,270 1330,270 1330,290 1310,290"/>
<polygon id="0x2614340" class="l2d0" points="1310,350 1330,350 1330,370 1310,370"/>
<polygon id="0x2614400" class="l2d0" points="1310,430 1330,430 1330,450 1310,450"/>
<polygon id="0x26144c0" class="l2d0" points="1310,510 1330,510 1330,530 1310,530"/>
<polygon id="0x2614580" class="l2d0" points="1310,590 1330,590 1330,610 1310,610"/>
<polygon id="0x2614640" class="l2d0" points="1310,670 1330,670 1330,690 1310,690"/>
<polygon id="0x2614700" class="l2d0" points="1310,750 1330,750 1330,770 1310,770"/>
<polygon id="0x26147c0" class="l2d0" points="1310,830 1330,830 1330,850 1310,850"/>
<polygon id="0x2614880" class="l2d0" points="1310,910 1330,910 1330,930 1310,930"/>
<polygon id="0x2614940" class="l2d0" points="1310,990 1330,990 1330,1010 1310,1010"/>
<polygon id="0x2614a00" class="l2d0" points="1310,1070 1330,1070 1330,1090 1310,1090"/>
<polygon id="0x2614ac0" class="l2d0" points="1310,1150 1330,1150 1330,1170 1310,1170"/>
</g>
</svg>