<?xml version="1.0" encoding="UTF-8"?>
<svg xmlns="http://www.w3.org/2000/svg" xmlns:xlink="http://www.w3.org/1999/xlink" width="1496" height="1336" viewBox="-68 -1268 1496 1336">
<defs>
<style type="text/css">
.l5d0 {stroke: #008856; fill: #008856; fill-opacity: 0.5;}
.l1d0 {stroke: #A1CAF1; fill: #A1CAF1; fill-opacity: 0.5;}
.l126d0 {stroke: #E68FAC; fill: #E68FAC; fill-opacity: 0.5;}
.l189d4 {stroke: #A1CAF1; fill: #A1CAF1; fill-opacity: 0.5;}
</style>
</defs>
<rect x="-68" y="-1268" width="1496" height="1336" fill="#222222" stroke="none"/>
<g id="my_logo" transform="scale(1 -1)">
<polygon id="0x2b07ca0" class="l126d0" points="0,20 240,20 240,60 0,60"/>
<polygon id="0x2b19110" class="l126d0" points="480,20 560,20 560,60 480,60"/>
<polygon id="0x2b28d70" class="l126d0" points="640,20 960,20 960,60 640,60"/>
<polygon id="0x2b6c180" class="l126d0" points="1120,20 1360,20 1360,60 1120,60"/>
<polygon id="0x29b0b60" class="l126d0" points="0,100 160,100 160,140 0,140"/>
<polygon id="0x2c3bb80" class="l126d0" points="400,100 480,100 480,140 400,140"/>
<polygon id="0x2cc6490" class="l126d0" points="560,100 640,100 640,140 560,140"/>
<polygon id="0x2c4a1c0" class="l126d0" points="960,100 1360,100 1360,140 960,140"/>
<polygon id="0x2c2d4f0" class="l126d0" points="80,180 160,180 160,220 80,220"/>
<polygon id="0x2c52b00" class="l126d0" points="240,180 400,180 400,220 240,220"/>
<polygon id="0x2ca5600" class="l126d0" points="480,180 640,180 640,220 480,220"/>
<polygon id="0x2cca110" class="l126d0" points="800,180 1040,180 1040,220 800,220"/>
<polygon id="0x2c5cb90" class="l126d0" points="1200,180 1280,180 1280,220 1200,220"/>
<polygon id="0x2cbfe90" class="l126d0" points="0,260 80,260 80,300 0,300"/>
<polygon id="0x2ac2ce0" class="l126d0" points="160,260 240,260 240,300 160,300"/>
<polygon id="0x2c00fc0" class="l126d0" points="400,260 480,260 480,300 400,300"/>
<polygon id="0x2c90570" class="l126d0" points="560,260 1200,260 1200,300 560,300"/>
<polygon id="0x2c971a0" class="l126d0" points="1280,260 1360,260 1360,300 1280,300"/>
<polygon id="0x2b01ab0" class="l126d0" points="240,340 480,340 480,380 240,380"/>
<polygon id="0x2b4ad00" class="l126d0" points="560,340 720,340 720,380 560,380"/>
<polygon id="0x2bf2260" class="l126d0" points="1120,340 1200,340 1200,380 1120,380"/>
<polygon id="0x2c33580" class="l126d0" points="1280,340 1360,340 1360,380 1280,380"/>
<polygon id="0x2c3f970" class="l126d0" points="80,420 160,420 160,460 80,460"/>
<polygon id="0x2c45070" class="l126d0" points="480,420 560,420 560,460 480,460"/>
<polygon id="0x2c859e0" class="l126d0" points="640,420 720,420 720,460 640,460"/>
<polygon id="0x2c96220" class="l126d0" points="1200,420 1360,420 1360,460 1200,460"/>
<polygon id="0x2a25e30" class="l126d0" points="0,500 160,500 160,540 0,540"/>
<polygon id="0x2ac9f00" class="l126d0" points="320,500 560,500 560,540 320,540"/>
<polygon id="0x2a53a90" class="l126d0" points="640,500 800,500 800,540 640,540"/>
<polygon id="0x2c1e600" class="l126d0" points="1040,500 1200,500 1200,540 1040,540"/>
<polygon id="0x2c56580" class="l126d0" points="0,580 160,580 160,620 0,620"/>
<polygon id="0x2c87d20" class="l126d0" points="400,580 480,580 480,620 400,620"/>
<polygon id="0x2aa1d30" class="l126d0" points="640,580 880,580 880,620 640,620"/>
<polygon id="0x2a8fa70" class="l126d0" points="1280,580 1360,580 1360,620 1280,620"/>
<polygon id="0x2b07880" class="l126d0" points="0,660 240,660 240,700 0,700"/>
<polygon id="0x2b2b9c0" class="l126d0" points="320,660 400,660 400,700 320,700"/>
<polygon id="0x2b9bab0" class="l126d0" points="720,660 880,660 880,700 720,700"/>
<polygon id="0x2bd4aa0" class="l126d0" points="1040,660 1120,660 1120,700 1040,700"/>
<polygon id="0x2c841b0" class="l126d0" points="1280,660 1360,660 1360,700 1280,700"/>
<polygon id="0x2cc36a0" class="l126d0" points="480,740 720,740 720,780 480,780"/>
<polygon id="0x2ccb260" class="l126d0" points="880,740 1200,740 1200,780 880,780"/>
<polygon id="0x2a6f9a0" class="l126d0" points="0,820 160,820 160,860 0,860"/>
<polygon id="0x2a9a820" class="l126d0" points="400,820 560,820 560,860 400,860"/>
<polygon id="0x2b105b0" class="l126d0" points="640,820 720,820 720,860 640,860"/>
<polygon id="0x2b04740" class="l126d0" points="800,820 1040,820 1040,860 800,860"/>
<polygon id="0x2bc7770" class="l126d0" points="1120,820 1280,820 1280,860 1120,860"/>
<polygon id="0x2bcbc90" class="l126d0" points="400,900 640,900 640,940 400,940"/>
<polygon id="0x2bd2ad0" class="l126d0" points="800,900 960,900 960,940 800,940"/>
<polygon id="0x2bd8500" class="l126d0" points="1200,900 1360,900 1360,940 1200,940"/>
<polygon id="0x2b37260" class="l126d0" points="0,980 80,980 80,1020 0,1020"/>
<polygon id="0x2c14320" class="l126d0" points="160,980 240,980 240,1020 160,1020"/>
<polygon id="0x2c65bd0" class="l126d0" points="320,980 560,980 560,1020 320,1020"/>
<polygon id="0x2c30ae0" class="l126d0" points="640,980 800,980 800,1020 640,1020"/>
<polygon id="0x2c2fbc0" class="l126d0" points="880,980 1040,980 1040,1020 880,1020"/>
<polygon id="0x2c575b0" class="l126d0" points="0,1060 240,1060 240,1100 0,1100"/>
<polygon id="0x2c57620" class="l126d0" points="560,1060 640,1060 640,1100 560,1100"/>
<polygon id="0x2c552f0" class="l126d0" points="800,1060 880,1060 880,1100 800,1100"/>
<polygon id="0x2c95840" class="l126d0" points="960,1060 1040,1060 1040,1100 960,1100"/>
<polygon id="0x2cca970" class="l126d0" points="1200,1060 1360,1060 1360,1100 1200,1100"/>
<polygon id="0x2cca9e0" class="l126d0" points="0,1140 80,1140 80,1180 0,1180"/>
<polygon id="0x2cf19d0" class="l126d0" points="240,1140 320,1140 320,1180 240,1180"/>
<polygon id="0x2a95df0" class="l126d0" points="400,1140 480,1140 480,1180 400,1180"/>
<polygon id="0x2ab0c50" class="l126d0" points="640,1140 800,1140 800,1180 640,1180"/>
<polygon id="0x2ab0cc0" class="l126d0" points="880,1140 960,1140 960,1180 880,1180"/>
<polygon id="0x2af4db0" class="l126d0" points="1040,1140 1200,1140 1200,1180 1040,1180"/>
<polygon id="0x2c0ade0" class="l126d0" points="20,160 60,160 60,240 20,240"/>
<polygon id="0x2bcd930" class="l126d0" points="20,320 60,320 60,480 20,480"/>
<polygon id="0x2c36770" class="l126d0" points="20,720 60,720 60,800 20,800"/>
<polygon id="0x2c91ec0" class="l126d0" points="20,880 60,880 60,960 20,960"/>
<polygon id="0x2ca3a60" class="l126d0" points="100,240 140,240 140,400 100,400"/>
<polygon id="0x2cb9f90" class="l126d0" points="100,720 140,720 140,800 100,800"/>
<polygon id="0x2a7c8e0" class="l126d0" points="100,880 140,880 140,1040 100,1040"/>
<polygon id="0x2a7c9a0" class="l126d0" points="100,1120 140,1120 140,1200 100,1200"/>
<polygon id="0x2a9d790" class="l126d0" points="180,80 220,80 220,240 180,240"/>
<polygon id="0x2a9d850" class="l126d0" points="180,320 220,320 220,640 180,640"/>
<polygon id="0x2ab5a80" class="l126d0" points="180,720 220,720 220,960 180,960"/>
<polygon id="0x2ab5b40" class="l126d0" points="180,1120 220,1120 220,1200 180,1200"/>
<polygon id="0x2ae5fb0" class="l126d0" points="260,0 300,0 300,160 260,160"/>
<polygon id="0x2ae6070" class="l126d0" points="260,240 300,240 300,320 260,320"/>
<polygon id="0x2b53540" class="l126d0" points="260,400 300,400 300,1120 260,1120"/>
<polygon id="0x2b53600" class="l126d0" points="340,0 380,0 380,160 340,160"/>
<polygon id="0x2bc3bb0" class="l126d0" points="340,240 380,240 380,320 340,320"/>
<polygon id="0x2bc3c70" class="l126d0" points="340,400 380,400 380,480 340,480"/>
<polygon id="0x298c5f0" class="l126d0" points="340,560 380,560 380,640 340,640"/>
<polygon id="0x298c6b0" class="l126d0" points="340,720 380,720 380,960 340,960"/>
<polygon id="0x2ba4080" class="l126d0" points="340,1040 380,1040 380,1200 340,1200"/>
<polygon id="0x2c12eb0" class="l126d0" points="420,0 460,0 460,80 420,80"/>
<polygon id="0x2c12f70" class="l126d0" points="420,160 460,160 460,240 420,240"/>
<polygon id="0x29c5db0" class="l126d0" points="420,400 460,400 460,480 420,480"/>
<polygon id="0x2c1d640" class="l126d0" points="420,640 460,640 460,800 420,800"/>
<polygon id="0x2c1d700" class="l126d0" points="420,1040 460,1040 460,1120 420,1120"/>
<polygon id="0x2c57c10" class="l126d0" points="500,80 540,80 540,160 500,160"/>
<polygon id="0x2c5bad0" class="l126d0" points="500,240 540,240 540,400 500,400"/>
<polygon id="0x2c5bb90" class="l126d0" points="500,560 540,560 540,720 500,720"/>
<polygon id="0x2c4fed0" class="l126d0" points="500,1040 540,1040 540,1200 500,1200"/>
<polygon id="0x2a67140" class="l126d0" points="580,0 620,0 620,80 580,80"/>
<polygon id="0x2a67200" class="l126d0" points="580,400 620,400 620,720 580,720"/>
<polygon id="0x2a87ca0" class="l126d0" points="580,800 620,800 620,880 580,880"/>
<polygon id="0x2a91fe0" class="l126d0" points="580,960 620,960 620,1040 580,1040"/>
<polygon id="0x2a92050" class="l126d0" points="580,1120 620,1120 620,1200 580,1200"/>
<polygon id="0x2ab1e70" class="l126d0" points="660,80 700,80 700,240 660,240"/>
<polygon id="0x2ab1f30" class="l126d0" points="660,640 700,640 700,720 660,720"/>
<polygon id="0x2bcdf90" class="l126d0" points="660,880 700,880 700,960 660,960"/>
<polygon id="0x2c9b810" class="l126d0" points="660,1040 700,1040 700,1120 660,1120"/>
<polygon id="0x2c9b880" class="l126d0" points="740,80 780,80 780,240 740,240"/>
<polygon id="0x2cd3230" class="l126d0" points="740,320 780,320 780,480 740,480"/>
<polygon id="0x2cd32f0" class="l126d0" points="740,720 780,720 780,960 740,960"/>
<polygon id="0x2ac70a0" class="l126d0" points="740,1040 780,1040 780,1120 740,1120"/>
<polygon id="0x2ac0870" class="l126d0" points="820,80 860,80 860,160 820,160"/>
<polygon id="0x2ac0930" class="l126d0" points="820,320 860,320 860,560 820,560"/>
<polygon id="0x2a785e0" class="l126d0" points="820,720 860,720 860,800 820,800"/>
<polygon id="0x2a786a0" class="l126d0" points="820,960 860,960 860,1040 820,1040"/>
<polygon id="0x2b56030" class="l126d0" points="820,1120 860,1120 860,1200 820,1200"/>
<polygon id="0x2b50900" class="l126d0" points="900,80 940,80 940,160 900,160"/>
<polygon id="0x2b509c0" class="l126d0" points="900,320 940,320 940,720 900,720"/>
<polygon id="0x2bc41c0" class="l126d0" points="900,1040 940,1040 940,1120 900,1120"/>
<polygon id="0x2bc4280" class="l126d0" points="980,0 1020,0 1020,80 980,80"/>
<polygon id="0x2bd1ae0" class="l126d0" points="980,320 1020,320 1020,720 980,720"/>
<polygon id="0x2c23190" class="l126d0" points="980,880 1020,880 1020,960 980,960"/>
<polygon id="0x2c23250" class="l126d0" points="980,1120 1020,1120 1020,1200 980,1200"/>
<polygon id="0x2c46780" class="l126d0" points="1060,0 1100,0 1100,80 1060,80"/>
<polygon id="0x2c46840" class="l126d0" points="1060,160 1100,160 1100,240 1060,240"/>
<polygon id="0x2b4b850" class="l126d0" points="1060,320 1100,320 1100,480 1060,480"/>
<polygon id="0x2b4b910" class="l126d0" points="1060,560 1100,560 1100,640 1060,640"/>
<polygon id="0x2ba07c0" class="l126d0" points="1060,800 1100,800 1100,1120 1060,1120"/>
<polygon id="0x2ba0880" class="l126d0" points="1140,160 1180,160 1180,240 1140,240"/>
<polygon id="0x2cc18b0" class="l126d0" points="1140,400 1180,400 1180,480 1140,480"/>
<polygon id="0x2cc1970" class="l126d0" points="1140,560 1180,560 1180,720 1140,720"/>
<polygon id="0x2cc76d0" class="l126d0" points="1140,880 1180,880 1180,1120 1140,1120"/>
<polygon id="0x2cc7790" class="l126d0" points="1220,240 1260,240 1260,400 1220,400"/>
<polygon id="0x2cb5d00" class="l126d0" points="1220,480 1260,480 1260,800 1220,800"/>
<polygon id="0x2cb5dc0" class="l126d0" points="1220,960 1260,960 1260,1040 1220,1040"/>
<polygon id="0x2ac5e80" class="l126d0" points="1220,1120 1260,1120 1260,1200 1220,1200"/>
<polygon id="0x2ac5f40" class="l126d0" points="1300,160 1340,160 1340,240 1300,240"/>
<polygon id="0x2b05120" class="l126d0" points="1300,480 1340,480 1340,560 1300,560"/>
<polygon id="0x2b051e0" class="l126d0" points="1300,720 1340,720 1340,880 1300,880"/>
<polygon id="0x2b57370" class="l126d0" points="1300,960 1340,960 1340,1040 1300,1040"/>
<polygon id="0x2b57430" class="l126d0" points="1300,1120 1340,1120 1340,1200 1300,1200"/>
<polygon id="0x2be2c20" class="l189d4" points="0,0 300,0 300,300 0,300"/>
<polygon id="0x2be2ce0" class="l1d0" points="15,15 65,15 65,65 15,65"/>
<polygon id="0x2ac31d0" class="l1d0" points="15,95 65,95 65,145 15,145"/>
<polygon id="0x2ac3290" class="l1d0" points="15,175 65,175 65,225 15,225"/>
<polygon id="0x2abea10" class="l1d0" points="15,255 65,255 65,305 15,305"/>
<polygon id="0x2abead0" class="l1d0" points="15,335 65,335 65,385 15,385"/>
<polygon id="0x2b1ea90" class="l1d0" points="15,415 65,415 65,465 15,465"/>
<polygon id="0x2b1eb50" class="l1d0" points="15,495 65,495 65,545 15,545"/>
<polygon id="0x2b15380" class="l1d0" points="15,575 65,575 65,625 15,625"/>
<polygon id="0x2b15440" class="l1d0" points="15,655 65,655 65,705 15,705"/>
<polygon id="0x2b5a930" class="l1d0" points="15,735 65,735 65,785 15,785"/>
<polygon id="0x2b5a9f0" class="l1d0" points="15,815 65,815 65,865 15,865"/>
<polygon id="0x2b5bdf0" class="l1d0" points="15,895 65,895 65,945 15,945"/>
<polygon id="0x2b5beb0" class="l1d0" points="15,975 65,975 65,1025 15,1025"/>
<polygon id="0x2b511d0" class="l1d0" points="15,1055 65,1055 65,1105 15,1105"/>
<polygon id="0x2b51290" class="l1d0" points="15,1135 65,1135 65,1185 15,1185"/>
<polygon id="0x2cb8040" class="l1d0" points="95,15 145,15 145,65 95,65"/>
<polygon id="0x2cb8100" class="l1d0" points="95,95 145,95 145,145 95,145"/>
<polygon id="0x2a255b0" class="l1d0" points="95,175 145,175 145,225 95,225"/>
<polygon id="0x2a25670" class="l1d0" points="95,255 145,255 145,305 95,305"/>
<polygon id="0x2adc730" class="l1d0" points="95,335 145,335 145,385 95,385"/>
<polygon id="0x2adc7f0" class="l1d0" points="95,415 145,415 145,465 95,465"/>
<polygon id="0x2b06e00" class="l1d0" points="95,495 145,495 145,545 95,545"/>
<polygon id="0x2b06ec0" class="l1d0" points="95,575 145,575 145,625 95,625"/>
<polygon id="0x2c0c560" class="l1d0" points="95,655 145,655 145,705 95,705"/>
<polygon id="0x2c0c620" class="l1d0" points="95,735 145,735 145,785 95,785"/>
<polygon id="0x2c1c110" class="l1d0" points="95,815 145,815 145,865 95,865"/>
<polygon id="0x2c1c1d0" class="l1d0" points="95,895 145,895 145,945 95,945"/>
<polygon id="0x2c5d680" class="l1d0" points="95,975 145,975 145,1025 95,1025"/>
<polygon id="0x2c5d740" class="l1d0" points="95,1055 145,1055 145,1105 95,1105"/>
<polygon id="0x2b33860" class="l1d0" points="95,1135 145,1135 145,1185 95,1185"/>
<polygon id="0x2b33920" class="l1d0" points="175,15 225,15 225,65 175,65"/>
<polygon id="0x2bf6080" class="l1d0" points="175,95 225,95 225,145 175,145"/>
<polygon id="0x2bf6140" class="l1d0" points="175,175 225,175 225,225 175,225"/>
<polygon id="0x2c1b4f0" class="l1d0" points="175,255 225,255 225,305 175,305"/>
<polygon id="0x2c1b5b0" class="l1d0" points="175,335 225,335 225,385 175,385"/>
<polygon id="0x2c25b00" class="l1d0" points="175,415 225,415 225,465 175,465"/>
<polygon id="0x2c25bc0" class="l1d0" points="175,495 225,495 225,545 175,545"/>
<polygon id="0x2c3ef00" class="l1d0" points="175,575 225,575 225,625 175,625"/>
<polygon id="0x2c3efc0" class="l1d0" points="175,655 225,655 225,705 175,705"/>
<polygon id="0x2b69970" class="l1d0" points="175,735 225,735 225,785 175,785"/>
<polygon id="0x2b699e0" class="l1d0" points="175,815 225,815 225,865 175,865"/>
<polygon id="0x2b69aa0" class="l1d0" points="175,895 225,895 225,945 175,945"/>
<polygon id="0x2bcf860" class="l1d0" points="175,975 225,975 225,1025 175,1025"/>
<polygon id="0x2bcf920" class="l1d0" points="175,1055 225,1055 225,1105 175,1105"/>
<polygon id="0x2c36e60" class="l1d0" points="175,1135 225,1135 225,1185 175,1185"/>
<polygon id="0x2c36f20" class="l1d0" points="255,15 305,15 305,65 255,65"/>
<polygon id="0x2a26760" class="l1d0" points="255,95 305,95 305,145 255,145"/>
<polygon id="0x2a26820" class="l1d0" points="255,175 305,175 305,225 255,225"/>
<polygon id="0x2a862d0" class="l1d0" points="255,255 305,255 305,305 255,305"/>
<polygon id="0x2a86390" class="l1d0" points="255,335 305,335 305,385 255,385"/>
<polygon id="0x2a86450" class="l1d0" points="255,415 305,415 305,465 255,465"/>
<polygon id="0x2ac9080" class="l1d0" points="255,495 305,495 305,545 255,545"/>
<polygon id="0x2ac9140" class="l1d0" points="255,575 305,575 305,625 255,625"/>
<polygon id="0x2ac9200" class="l1d0" points="255,655 305,655 305,705 255,705"/>
<polygon id="0x2acbb50" class="l1d0" points="255,735 305,735 305,785 255,785"/>
<polygon id="0x2acbc10" class="l1d0" points="255,815 305,815 305,865 255,865"/>
<polygon id="0x2acbcd0" class="l1d0" points="255,895 305,895 305,945 255,945"/>
<polygon id="0x2af3040" class="l1d0" points="255,975 305,975 305,1025 255,1025"/>
<polygon id="0x2af3100" class="l1d0" points="255,1055 305,1055 305,1105 255,1105"/>
<polygon id="0x2ae8b30" class="l1d0" points="255,1135 305,1135 305,1185 255,1185"/>
<polygon id="0x2ae8bf0" class="l1d0" points="335,15 385,15 385,65 335,65"/>
<polygon id="0x2ae8cb0" class="l1d0" points="335,95 385,95 385,145 335,145"/>
<polygon id="0x2b1d990" class="l1d0" points="335,175 385,175 385,225 335,225"/>
<polygon id="0x2b1da50" class="l1d0" points="335,255 385,255 385,305 335,305"/>
<polygon id="0x2b2c660" class="l1d0" points="335,335 385,335 385,385 335,385"/>
<polygon id="0x2b2c720" class="l1d0" points="335,415 385,415 385,465 335,465"/>
<polygon id="0x2b2c7e0" class="l1d0" points="335,495 385,495 385,545 335,545"/>
<polygon id="0x2b54090" class="l1d0" points="335,575 385,575 385,625 335,625"/>
<polygon id="0x2b54150" class="l1d0" points="335,655 385,655 385,705 335,705"/>
<polygon id="0x2be35a0" class="l1d0" points="335,735 385,735 385,785 335,785"/>
<polygon id="0x2be3660" class="l1d0" points="335,815 385,815 385,865 335,865"/>
<polygon id="0x2be3720" class="l1d0" points="335,895 385,895 385,945 335,945"/>
<polygon id="0x2c5de60" class="l1d0" points="335,975 385,975 385,1025 335,1025"/>
<polygon id="0x2c5df20" class="l1d0" points="335,1055 385,1055 385,1105 335,1105"/>
<polygon id="0x2ab1a60" class="l1d0" points="335,1135 385,1135 385,1185 335,1185"/>
<polygon id="0x2ab1b20" class="l1d0" points="415,15 465,15 465,65 415,65"/>
<polygon id="0x2ab1be0" class="l1d0" points="415,95 465,95 465,145 415,145"/>
<polygon id="0x2ae57c0" class="l1d0" points="415,175 465,175 465,225 415,225"/>
<polygon id="0x2ae5880" class="l1d0" points="415,255 465,255 465,305 415,305"/>
<polygon id="0x2af1540" class="l1d0" points="415,335 465,335 465,385 415,385"/>
<polygon id="0x2af1600" class="l1d0" points="415,415 465,415 465,465 415,465"/>
<polygon id="0x2af16c0" class="l1d0" points="415,495 465,495 465,545 415,545"/>
<polygon id="0x2b0e490" class="l1d0" points="415,575 465,575 465,625 415,625"/>
<polygon id="0x2b0e550" class="l1d0" points="415,655 465,655 465,705 415,705"/>
<polygon id="0x2b39af0" class="l1d0" points="415,735 465,735 465,785 415,785"/>
<polygon id="0x2b39bb0" class="l1d0" points="415,815 465,815 465,865 415,865"/>
<polygon id="0x2b39c70" class="l1d0" points="415,895 465,895 465,945 415,945"/>
<polygon id="0x2a54110" class="l1d0" points="415,975 465,975 465,1025 415,1025"/>
<polygon id="0x2a541d0" class="l1d0" points="415,1055 465,1055 465,1105 415,1105"/>
<polygon id="0x2c7b520" class="l1d0" points="415,1135 465,1135 465,1185 415,1185"/>
<polygon id="0x2c7b5e0" class="l1d0" points="495,15 545,15 545,65 495,65"/>
<polygon id="0x2c7b6a0" class="l1d0" points="495,95 545,95 545,145 495,145"/>
<polygon id="0x2c65710" class="l1d0" points="495,175 545,175 545,225 495,225"/>
<polygon id="0x2c657d0" class="l1d0" points="495,255 545,255 545,305 495,305"/>
<polygon id="0x2cf2c30" class="l1d0" points="495,335 545,335 545,385 495,385"/>
<polygon id="0x2cf2cf0" class="l1d0" points="495,415 545,415 545,465 495,465"/>
<polygon id="0x2cf2db0" class="l1d0" points="495,495 545,495 545,545 495,545"/>
<polygon id="0x2ce9890" class="l1d0" points="495,575 545,575 545,625 495,625"/>
<polygon id="0x2ce9900" class="l1d0" points="495,655 545,655 545,705 495,705"/>
<polygon id="0x2ce99c0" class="l1d0" points="495,735 545,735 545,785 495,785"/>
<polygon id="0x2ce9a80" class="l1d0" points="495,815 545,815 545,865 495,865"/>
<polygon id="0x2ce9b40" class="l1d0" points="495,895 545,895 545,945 495,945"/>
<polygon id="0x2ce9c00" class="l1d0" points="495,975 545,975 545,1025 495,1025"/>
<polygon id="0x2ce9cc0" class="l1d0" points="495,1055 545,1055 545,1105 495,1105"/>
<polygon id="0x2ce9d80" class="l1d0" points="495,1135 545,1135 545,1185 495,1185"/>
<polygon id="0x2ce9e40" class="l1d0" points="575,15 625,15 625,65 575,65"/>
<polygon id="0x2ce9f00" class="l1d0" points="575,95 625,95 625,145 575,145"/>
<polygon id="0x2ce9fc0" class="l1d0" points="575,175 625,175 625,225 575,225"/>
<polygon id="0x2cea080" class="l1d0" points="575,255 625,255 625,305 575,305"/>
<polygon id="0x2cea140" class="l1d0" points="575,335 625,335 625,385 575,385"/>
<polygon id="0x2cea200" class="l1d0" points="575,415 625,415 625,465 575,465"/>
<polygon id="0x2cea2c0" class="l1d0" points="575,495 625,495 625,545 575,545"/>
<polygon id="0x2cea380" class="l1d0" points="575,575 625,575 625,625 575,625"/>
<polygon id="0x2cea440" class="l1d0" points="575,655 625,655 625,705 575,705"/>
<polygon id="0x2cea500" class="l1d0" points="575,735 625,735 625,785 575,785"/>
<polygon id="0x2cea5c0" class="l1d0" points="575,815 625,815 625,865 575,865"/>
<polygon id="0x2cea680" class="l1d0" points="575,895 625,895 625,945 575,945"/>
<polygon id="0x2cea740" class="l1d0" points="575,975 625,975 625,1025 575,1025"/>
<polygon id="0x2ce9080" class="l1d0" points="575,1055 625,1055 625,1105 575,1105"/>
<polygon id="0x2ce9140" class="l1d0" points="575,1135 625,1135 625,1185 575,1185"/>
<polygon id="0x2ce9200" class="l1d0" points="655,15 705,15 705,65 655,65"/>
<polygon id="0x2ce92c0" class="l1d0" points="655,95 705,95 705,145 655,145"/>
<polygon id="0x2ce9380" class="l1d0" points="655,175 705,175 705,225 655,225"/>
<polygon id="0x2ce9440" class="l1d0" points="655,255 705,255 705,305 655,305"/>
<polygon id="0x2ce9500" class="l1d0" points="655,335 705,335 705,385 655,385"/>
<polygon id="0x2ce95c0" class="l1d0" points="655,415 705,415 705,465 655,465"/>
<polygon id="0x2ce9680" class="l1d0" points="655,495 705,495 705,545 655,545"/>
<polygon id="0x2ce9740" class="l1d0" points="655,575 705,575 705,625 655,625"/>
<polygon id="0x2ce9800" class="l1d0" points="655,655 705,655 705,705 655,705"/>
<polygon id="0x2ceb860" class="l1d0" points="655,735 705,735 705,785 655,785"/>
<polygon id="0x2ceb920" class="l1d0" points="655,815 705,815 705,865 655,865"/>
<polygon id="0x2ceb9e0" class="l1d0" points="655,895 705,895 705,945 655,945"/>
<polygon id="0x2cebaa0" class="l1d0" points="655,975 705,975 705,1025 655,1025"/>
<polygon id="0x2cebb60" class="l1d0" points="655,1055 705,1055 705,1105 655,1105"/>
<polygon id="0x2cebc20" class="l1d0" points="655,1135 705,1135 705,1185 655,1185"/>
<polygon id="0x2cebce0" class="l1d0" points="735,15 785,15 785,65 735,65"/>
<polygon id="0x2cebda0" class="l1d0" points="735,95 785,95 785,145 735,145"/>
<polygon id="0x2cebe60" class="l1d0" points="735,175 785,175 785,225 735,225"/>
<polygon id="0x2cebf20" class="l1d0" points="735,255 785,255 785,305 735,305"/>
<polygon id="0x2cebfe0" class="l1d0" points="735,335 785,335 785,385 735,385"/>
<polygon id="0x2cec0a0" class="l1d0" points="735,415 785,415 785,465 735,465"/>
<polygon id="0x2cec160" class="l1d0" points="735,495 785,495 785,545 735,545"/>
<polygon id="0x2cec220" class="l1d0" points="735,575 785,575 785,625 735,625"/>
<polygon id="0x2cec2e0" class="l1d0" points="735,655 785,655 785,705 735,705"/>
<polygon id="0x2cec3a0" class="l1d0" points="735,735 785,735 785,785 735,785"/>
<polygon id="0x2cec460" class="l1d0" points="735,815 785,815 785,865 735,865"/>
<polygon id="0x2cec520" class="l1d0" points="735,895 785,895 785,945 735,945"/>
<polygon id="0x2cec5e0" class="l1d0" points="735,975 785,975 785,1025 735,1025"/>
<polygon id="0x2cec6a0" class="l1d0" points="735,1055 785,1055 785,1105 735,1105"/>
<polygon id="0x2cec760" class="l1d0" points="735,1135 785,1135 785,1185 735,1185"/>
<polygon id="0x2cec820" class="l1d0" points="815,15 865,15 865,65 815,65"/>
<polygon id="0x2cec8e0" class="l1d0" points="815,95 865,95 865,145 815,145"/>
<polygon id="0x2cec9a0" class="l1d0" points="815,175 865,175 865,225 815,225"/>
<polygon id="0x2ceca60" class="l1d0" points="815,255 865,255 865,305 815,305"/>
<polygon id="0x2cecb20" class="l1d0" points="815,335 865,335 865,385 815,385"/>
<polygon id="0x2cecbe0" class="l1d0" points="815,415 865,415 865,465 815,465"/>
<polygon id="0x2cecca0" class="l1d0" points="815,495 865,495 865,545 815,545"/>
<polygon id="0x2cecd60" class="l1d0" points="815,575 865,575 865,625 815,625"/>
<polygon id="0x2cece20" class="l1d0" points="815,655 865,655 865,705 815,705"/>
<polygon id="0x2cecee0" class="l1d0" points="815,735 865,735 865,785 815,785"/>
<polygon id="0x2cecfa0" class="l1d0" points="815,815 865,815 865,865 815,865"/>
<polygon id="0x2ced060" class="l1d0" points="815,895 865,895 865,945 815,945"/>
<polygon id="0x2ced120" class="l1d0" points="815,975 865,975 865,1025 815,1025"/>
<polygon id="0x2ced1e0" class="l1d0" points="815,1055 865,1055 865,1105 815,1105"/>
<polygon id="0x2ced2a0" class="l1d0" points="815,1135 865,1135 865,1185 815,1185"/>
<polygon id="0x2ced360" class="l1d0" points="895,15 945,15 945,65 895,65"/>
<polygon id="0x2ced420" class="l1d0" points="895,95 945,95 945,145 895,145"/>
<polygon id="0x2ced4e0" class="l1d0" points="895,175 945,175 945,225 895,225"/>
<polygon id="0x2ced5a0" class="l1d0" points="895,255 945,255 945,305 895,305"/>
<polygon id="0x2ced660" class="l1d0" points="895,335 945,335 945,385 895,385"/>
<polygon id="0x2ced720" class="l1d0" points="895,415 945,415 945,465 895,465"/>
<polygon id="0x2ced7e0" class="l1d0" points="895,495 945,495 945,545 895,545"/>
<polygon id="0x2ced8a0" class="l1d0" points="895,575 945,575 945,625 895,625"/>
<polygon id="0x2ced960" class="l1d0" points="895,655 945,655 945,705 895,705"/>
<polygon id="0x2ceda20" class="l1d0" points="895,735 945,735 945,785 895,785"/>
<polygon id="0x2cedae0" class="l1d0" points="895,815 945,815 945,865 895,865"/>
<polygon id="0x2cedba0" class="l1d0" points="895,895 945,895 945,945 895,945"/>
<polygon id="0x2cedc60" class="l1d0" points="895,975 945,975 945,1025 895,1025"/>
<polygon id="0x2cedd20" class="l1d0" points="895,1055 945,1055 945,1105 895,1105"/>
<polygon id="0x2cedde0" class="l1d0" points="895,1135 945,1135 945,1185 895,1185"/>
<polygon id="0x2cedea0" class="l1d0" points="975,15 1025,15 1025,65 975,65"/>
<polygon id="0x2cedf60" class="l1d0" points="975,95 1025,95 1025,145 975,145"/>
<polygon id="0x2cee020" class="l1d0" points="975,175 1025,175 1025,225 975,225"/>
<polygon id="0x2cee0e0" class="l1d0" points="975,255 1025,255 1025,305 975,305"/>
<polygon id="0x2cee1a0" class="l1d0" points="975,335 1025,335 1025,385 975,385"/>
<polygon id="0x2cee260" class="l1d0" points="975,415 1025,415 1025,465 975,465"/>
<polygon id="0x2cee320" class="l1d0" points="975,495 1025,495 1025,545 975,545"/>
<polygon id="0x2cee3e0" class="l1d0" points="975,575 1025,575 1025,625 975,625"/>
<polygon id="0x2cee4a0" class="l1d0" points="975,655 1025,655 1025,705 975,705"/>
<polygon id="0x2cee560" class="l1d0" points="975,735 1025,735 1025,785 975,785"/>
<polygon id="0x2cee620" class="l1d0" points="975,815 1025,815 1025,865 975,865"/>
<polygon id="0x2cee6e0" class="l1d0" points="975,895 1025,895 1025,945 975,945"/>
<polygon id="0x2cee7a0" class="l1d0" points="975,975 1025,975 1025,1025 975,1025"/>
<polygon id="0x2cee860" class="l1d0" points="975,1055 1025,1055 1025,1105 975,1105"/>
<polygon id="0x2cee920" class="l1d0" points="975,1135 1025,1135 1025,1185 975,1185"/>
<polygon id="0x2cee9e0" class="l1d0" points="1055,15 1105,15 1105,65 1055,65"/>
<polygon id="0x2ceeaa0" class="l1d0" points="1055,95 1105,95 1105,145 1055,145"/>
<polygon id="0x2ceeb60" class="l1d0" points="1055,175 1105,175 1105,225 1055,225"/>
<polygon id="0x2ceec20" class="l1d0" points="1055,255 1105,255 1105,305 1055,305"/>
<polygon id="0x2ceece0" class="l1d0" points="1055,335 1105,335 1105,385 1055,385"/>
<polygon id="0x2ceeda0" class="l1d0" points="1055,415 1105,415 1105,465 1055,465"/>
<polygon id="0x2ceee60" class="l1d0" points="1055,495 1105,495 1105,545 1055,545"/>
<polygon id="0x2ceef20" class="l1d0" points="1055,575 1105,575 1105,625 1055,625"/>
<polygon id="0x2ceefe0" class="l1d0" points="1055,655 1105,655 1105,705 1055,705"/>
<polygon id="0x2cef0a0" class="l1d0" points="1055,735 1105,735 1105,785 1055,785"/>
<polygon id="0x2cef160" class="l1d0" points="1055,815 1105,815 1105,865 1055,865"/>
<polygon id="0x2cef220" class="l1d0" points="1055,895 1105,895 1105,945 1055,945"/>
<polygon id="0x2cef2e0" class="l1d0" points="1055,975 1105,975 1105,1025 1055,1025"/>
<polygon id="0x2cef3a0" class="l1d0" points="1055,1055 1105,1055 1105,1105 1055,1105"/>
<polygon id="0x2cef460" class="l1d0" points="1055,1135 1105,1135 1105,1185 1055,1185"/>
<polygon id="0x2cef520" class="l1d0" points="1135,15 1185,15 1185,65 1135,65"/>
<polygon id="0x2cef5e0" class="l1d0" points="1135,95 1185,95 1185,145 1135,145"/>
<polygon id="0x2cef6a0" class="l1d0" points="1135,175 1185,175 1185,225 1135,225"/>
<polygon id="0x2cef760" class="l1d0" points="1135,255 1185,255 1185,305 1135,305"/>
<polygon id="0x2cef820" class="l1d0" points="1135,335 1185,335 1185,385 1135,385"/>
<polygon id="0x2cef8e0" class="l1d0" points="1135,415 1185,415 1185,465 1135,465"/>
<polygon id="0x2cef9a0" class="l1d0" points="1135,495 1185,495 1185,545 1135,545"/>
<polygon id="0x2cefa60" class="l1d0" points="1135,575 1185,575 1185,625 1135,625"/>
<polygon id="0x2cefb20" class="l1d0" points="1135,655 1185,655 1185,705 1135,705"/>
<polygon id="0x2cefbe0" class="l1d0" points="1135,735 1185,735 1185,785 1135,785"/>
<polygon id="0x2cefca0" class="l1d0" points="1135,815 1185,815 1185,865 1135,865"/>
<polygon id="0x2cefd60" class="l1d0" points="1135,895 1185,895 1185,945 1135,945"/>
<polygon id="0x2cefe20" class="l1d0" points="1135,975 1185,975 1185,1025 1135,1025"/>
<polygon id="0x2cefee0" class="l1d0" points="1135,1055 1185,1055 1185,1105 1135,1105"/>
<polygon id="0x2ceffa0" class="l1d0" points="1135,1135 1185,1135 1185,1185 1135,1185"/>
<polygon id="0x2cf0060" class="l1d0" points="1215,15 1265,15 1265,65 1215,65"/>
<polygon id="0x2cf0120" class="l1d0" points="1215,95 1265,95 1265,145 1215,145"/>
<polygon id="0x2cf01e0" class="l1d0" points="1215,175 1265,175 1265,225 1215,225"/>
<polygon id="0x2cf02a0" class="l1d0" points="1215,255 1265,255 1265,305 1215,305"/>
<polygon id="0x2cf31f0" class="l1d0" points="1215,335 1265,335 1265,385 1215,385"/>
<polygon id="0x2cf32b0" class="l1d0" points="1215,415 1265,415 1265,465 1215,465"/>
<polygon id="0x2cf3370" class="l1d0" points="1215,495 1265,495 1265,545 1215,545"/>
<polygon id="0x2cf3430" class="l1d0" points="1215,575 1265,575 1265,625 1215,625"/>
<polygon id="0x2cf34f0" class="l1d0" points="1215,655 1265,655 1265,705 1215,705"/>
<polygon id="0x2cf35b0" class="l1d0" points="1215,735 1265,735 1265,785 1215,785"/>
<polygon id="0x2cf3670" class="l1d0" points="1215,815 1265,815 1265,865 1215,865"/>
<polygon id="0x2cf3730" class="l1d0" points="1215,895 1265,895 1265,945 1215,945"/>
<polygon id="0x2cf37f0" class="l1d0" points="1215,975 1265,975 1265,1025 1215,1025"/>
<polygon id="0x2cf38b0" class="l1d0" points="1215,1055 1265,1055 1265,1105 1215,1105"/>
<polygon id="0x2cf3970" class="l1d0" points="1215,1135 1265,1135 1265,1185 1215,1185"/>
<polygon id="0x2cf3a30" class="l1d0" points="1295,15 1345,15 1345,65 1295,65"/>
<polygon id="0x2cf3af0" class="l1d0" points="1295,95 1345,95 1345,145 1295,145"/>
<polygon id="0x2cf3bb0" class="l1d0" points="1295,175 1345,175 1345,225 1295,225"/>
<polygon id="0x2cf3c70" class="l1d0" points="1295,255 1345,255 1345,305 1295,305"/>
<polygon id="0x2cf3d30" class="l1d0" points="1295,335 1345,335 1345,385 1295,385"/>
<polygon id="0x2cf3df0" class="l1d0" points="1295,415 1345,415 1345,465 1295,465"/>
<polygon id="0x2cf3eb0" class="l1d0" points="1295,495 1345,495 1345,545 1295,545"/>
<polygon id="0x2cf3f70" class="l1d0" points="1295,575 1345,575 1345,625 1295,625"/>
<polygon id="0x2cf4030" class="l1d0" points="1295,655 1345,655 1345,705 1295,705"/>
<polygon id="0x2cf40f0" class="l1d0" points="1295,735 1345,735 1345,785 1295,785"/>
<polygon id="0x2cf41b0" class="l1d0" points="1295,815 1345,815 1345,865 1295,865"/>
<polygon id="0x2cf4270" class="l1d0" points="1295,895 1345,895 1345,945 1295,945"/>
<polygon id="0x2cf4330" class="l1d0" points="1295,975 1345,975 1345,1025 1295,1025"/>
<polygon id="0x2cf43f0" class="l1d0" points="1295,1055 1345,1055 1345,1105 1295,1105"/>
<polygon id="0x2cf44b0" class="l1d0" points="1295,1135 1345,1135 1345,1185 1295,1185"/>
<polygon id="0x2cf4570" class="l5d0" points="30,30 50,30 50,50 30,50"/>
<polygon id="0x2cf4630" class="l5d0" points="30,110 50,110 50,130 30,130"/>
<polygon id="0x2cf46f0" class="l5d0" points="30,190 50,190 50,210 30,210"/>
<polygon id="0x2cf47b0" class="l5d0" points="30,270 50,270 50,290 30,290"/>
<polygon id="0x2cf4870" class="l5d0" points="30,350 50,350 50,370 30,370"/>
<polygon id="0x2cf4930" class="l5d0" points="30,430 50,430 50,450 30,450"/>
<polygon id="0x2cf49f0" class="l5d0" points="30,510 50,510 50,530 30,530"/>
<polygon id="0x2cf4ab0" class="l5d0" points="30,590 50,590 50,610 30,610"/>
<polygon id="0x2cf4b70" class="l5d0" points="30,670 50,670 50,690 30,690"/>
<polygon id="0x2cf4c30" class="l5d0" points="30,750 50,750 50,770 30,770"/>
<polygon id="0x2cf4cf0" class="l5d0" points="30,830 50,830 50,850 30,850"/>
<polygon id="0x2cf4db0" class="l5d0" points="30,910 50,910 50,930 30,930"/>
<polygon id="0x2cf4e70" class="l5d0" points="30,990 50,990 50,1010 30,1010"/>
<polygon id="0x2cf4f30" class="l5d0" points="30,1070 50,1070 50,1090 30,1090"/>
<polygon id="0x2cf4ff0" class="l5d0" points="30,1150 50,1150 50,1170 30,1170"/>
<polygon id="0x2cf50b0" class="l5d0" points="110,30 130,30 130,50 110,50"/>
<polygon id="0x2cf5170" class="l5d0" points="110,110 130,110 130,130 110,130"/>
<polygon id="0x2cf5230" class="l5d0" points="110,190 130,190 130,210 110,210"/>
<polygon id="0x2cf52f0" class="l5d0" points="110,270 130,270 130,290 110,290"/>
<polygon id="0x2cf53b0" class="l5d0" points="110,350 130,350 130,370 110,370"/>
<polygon id="0x2cf5470" class="l5d0" points="110,430 130,430 130,450 110,450"/>
<polygon id="0x2cf5530" class="l5d0" points="110,510 130,510 130,530 110,530"/>
<polygon id="0x2cf55f0" class="l5d0" points="110,590 130,590 130,610 110,610"/>
<polygon id="0x2cf56b0" class="l5d0" points="110,670 130,670 130,690 110,690"/>
<polygon id="0x2cf5770" class="l5d0" points="110,750 130,750 130,770 110,770"/>
<polygon id="0x2cf5830" class="l5d0" points="110,830 130,830 130,850 110,850"/>
<polygon id="0x2cf58f0" class="l5d0" points="110,910 130,910 130,930 110,930"/>
<polygon id="0x2cf59b0" class="l5d0" points="110,990 130,990 130,1010 110,1010"/>
<polygon id="0x2cf5a70" class="l5d0" points="110,1070 130,1070 130,1090 110,1090"/>
<polygon id="0x2cf5b30" class="l5d0" points="110,1150 130,1150 130,1170 110,1170"/>
<polygon id="0x2cf5bf0" class="l5d0" points="190,30 210,30 210,50 190,50"/>
<polygon id="0x2cf5cb0" class="l5d0" points="190,110 210,110 210,130 190,130"/>
<polygon id="0x2cf5d70" class="l5d0" points="190,190 210,190 210,210 190,210"/>
<polygon id="0x2cf5e30" class="l5d0" points="190,270 210,270 210,290 190,290"/>
<polygon id="0x2cf5ef0" class="l5d0" points="190,350 210,350 210,370 190,370"/>
<polygon id="0x2cf5fb0" class="l5d0" points="190,430 210,430 210,450 190,450"/>
<polygon id="0x2cf6070" class="l5d0" points="190,510 210,510 210,530 190,530"/>
<polygon id="0x2cf6130" class="l5d0" points="190,590 210,590 210,610 190,610"/>
<polygon id="0x2cf61f0" class="l5d0" points="190,670 210,670 210,690 190,690"/>
<polygon id="0x2cf62b0" class="l5d0" points="190,750 210,750 210,770 190,770"/>
<polygon id="0x2cf6370" class="l5d0" points="190,830 210,830 210,850 190,850"/>
<polygon id="0x2cf6430" class="l5d0" points="190,910 210,910 210,930 190,930"/>
<polygon id="0x2cf64f0" class="l5d0" points="190,990 210,990 210,1010 190,1010"/>
<polygon id="0x2cf65b0" class="l5d0" points="190,1070 210,1070 210,1090 190,1090"/>
<polygon id="0x2cf6670" class="l5d0" points="190,1150 210,1150 210,1170 190,1170"/>
<polygon id="0x2cf6730" class="l5d0" points="270,30 290,30 290,50 270,50"/>
<polygon id="0x2cf67f0" class="l5d0" points="270,110 290,110 290,130 270,130"/>
<polygon id="0x2cf68b0" class="l5d0" points="270,190 290,190 290,210 270,210"/>
<polygon id="0x2cf6970" class="l5d0" points="270,270 290,270 290,290 270,290"/>
<polygon id="0x2cf6a30" class="l5d0" points="270,350 290,350 290,370 270,370"/>
<polygon id="0x2cf6af0" class="l5d0" points="270,430 290,430 290,450 270,450"/>
<polygon id="0x2cf6bb0" class="l5d0" points="270,510 290,510 290,530 270,530"/>
<polygon id="0x2cf6c70" class="l5d0" points="270,590 290,590 290,610 270,610"/>
<polygon id="0x2cf6d30" class="l5d0" points="270,670 290,670 290,690 270,690"/>
<polygon id="0x2cf6df0" class="l5d0" points="270,750 290,750 290,770 270,770"/>
<polygon id="0x2cf6eb0" class="l5d0" points="270,830 290,830 290,850 270,850"/>
<polygon id="0x2cf6f70" class="l5d0" points="270,910 290,910 290,930 270,930"/>
<polygon id="0x2cf7030" class="l5d0" points="270,990 290,990 290,1010 270,1010"/>
<polygon id="0x2cf70f0" class="l5d0" points="270,1070 290,1070 290,1090 270,1090"/>
<polygon id="0x2cf71b0" class="l5d0" points="270,1150 290,1150 290,1170 270,1170"/>
<polygon id="0x2cf7270" class="l5d0" points="350,30 370,30 370,50 350,50"/>
<polygon id="0x2cf7330" class="l5d0" points="350,110 370,110 370,130 350,130"/>
<polygon id="0x2cf73f0" class="l5d0" points="350,190 370,190 370,210 350,210"/>
<polygon id="0x2cf74b0" class="l5d0" points="350,270 370,270 370,290 350,290"/>
<polygon id="0x2cf7570" class="l5d0" points="350,350 370,350 370,370 350,370"/>
<polygon id="0x2cf7630" class="l5d0" points="350,430 370,430 370,450 350,450"/>
<polygon id="0x2cf76f0" class="l5d0" points="350,510 370,510 370,530 350,530"/>
<polygon id="0x2cf77b0" class="l5d0" points="350,590 370,590 370,610 350,610"/>
<polygon id="0x2cf7870" class="l5d0" points="350,670 370,670 370,690 350,690"/>
<polygon id="0x2cf7930" class="l5d0" points="350,750 370,750 370,770 350,770"/>
<polygon id="0x2cf79f0" class="l5d0" points="350,830 370,830 370,850 350,850"/>
<polygon id="0x2cf7ab0" class="l5d0" points="350,910 370,910 370,930 350,930"/>
<polygon id="0x2cf7b70" class="l5d0" points="350,990 370,990 370,1010 350,1010"/>
<polygon id="0x2cf7c30" class="l5d0" points="350,1070 370,1070 370,1090 350,1090"/>
<polygon id="0x2cf7cf0" class="l5d0" points="350,1150 370,1150 370,1170 350,1170"/>
<polygon id="0x2cf7db0" class="l5d0" points="430,30 450,30 450,50 430,50"/>
<polygon id="0x2cf7e70" class="l5d0" points="430,110 450,110 450,130 430,130"/>
<polygon id="0x2cf7f30" class="l5d0" points="430,190 450,190 450,210 430,210"/>
<polygon id="0x2cf7ff0" class="l5d0" points="430,270 450,270 450,290 430,290"/>
<polygon id="0x2cf80b0" class="l5d0" points="430,350 450,350 450,370 430,370"/>
<polygon id="0x2cf8170" class="l5d0" points="430,430 450,430 450,450 430,450"/>
<polygon id="0x2cf8230" class="l5d0" points="430,510 450,510 450,530 430,530"/>
<polygon id="0x2cf82f0" class="l5d0" points="430,590 450,590 450,610 430,610"/>
<polygon id="0x2cf83b0" class="l5d0" points="430,670 450,670 450,690 430,690"/>
<polygon id="0x2cf8470" class="l5d0" points="430,750 450,750 450,770 430,770"/>
<polygon id="0x2cf8530" class="l5d0" points="430,830 450,830 450,850 430,850"/>
<polygon id="0x2cf85f0" class="l5d0" points="430,910 450,910 450,930 430,930"/>
<polygon id="0x2cf86b0" class="l5d0" points="430,990 450,990 450,1010 430,1010"/>
<polygon id="0x2cf8770" class="l5d0" points="430,1070 450,1070 450,1090 430,1090"/>
<polygon id="0x2cf8830" class="l5d0" points="430,1150 450,1150 450,1170 430,1170"/>
<polygon id="0x2cf88f0" class="l5d0" points="510,30 530,30 530,50 510,50"/>
<polygon id="0x2cf89b0" class="l5d0" points="510,110 530,110 530,130 510,130"/>
<polygon id="0x2cf8a70" class="l5d0" points="510,190 530,190 530,210 510,210"/>
<polygon id="0x2cf8b30" class="l5d0" points="510,270 530,270 530,290 510,290"/>
<polygon id="0x2cf8bf0" class="l5d0" points="510,350 530,350 530,370 510,370"/>
<polygon id="0x2cf8cb0" class="l5d0" points="510,430 530,430 530,450 510,450"/>
<polygon id="0x2cf8d70" class="l5d0" points="510,510 530,510 530,530 510,530"/>
<polygon id="0x2cf8e30" class="l5d0" points="510,590 530,590 530,610 510,610"/>
<polygon id="0x2cf8ef0" class="l5d0" points="510,670 530,670 530,690 510,690"/>
<polygon id="0x2cf8fb0" class="l5d0" points="510,750 530,750 530,770 510,770"/>
<polygon id="0x2cf9070" class="l5d0" points="510,830 530,830 530,850 510,850"/>
<polygon id="0x2cf9130" class="l5d0" points="510,910 530,910 530,930 510,930"/>
<polygon id="0x2cf91f0" class="l5d0" points="510,990 530,990 530,1010 510,1010"/>
<polygon id="0x2cf92b0" class="l5d0" points="510,1070 530,1070 530,1090 510,1090"/>
<polygon id="0x2cf9370" class="l5d0" points="510,1150 530,1150 530,1170 510,1170"/>
<polygon id="0x2cf9430" class="l5d0" points="590,30 610,30 610,50 590,50"/>
<polygon id="0x2cf94f0" class="l5d0" points="590,110 610,110 610,130 590,130"/>
<polygon id="0x2cf95b0" class="l5d0" points="590,190 610,190 610,210 590,210"/>
<polygon id="0x2cf9670" class="l5d0" points="590,270 610,270 610,290 590,290"/>
<polygon id="0x2cf9730" class="l5d0" points="590,350 610,350 610,370 590,370"/>
<polygon id="0x2cf97f0" class="l5d0" points="590,430 610,430 610,450 590,450"/>
<polygon id="0x2cf98b0" class="l5d0" points="590,510 610,510 610,530 590,530"/>
<polygon id="0x2cf9970" class="l5d0" points="590,590 610,590 610,610 590,610"/>
<polygon id="0x2cf9a30" class="l5d0" points="590,670 610,670 610,690 590,690"/>
<polygon id="0x2cf9af0" class="l5d0" points="590,750 610,750 610,770 590,770"/>
<polygon id="0x2cf9bb0" class="l5d0" points="590,830 610,830 610,850 590,850"/>
<polygon id="0x2cf9c70" class="l5d0" points="590,910 610,910 610,930 590,930"/>
<polygon id="0x2cf9d30" class="l5d0" points="590,990 610,990 610,1010 590,1010"/>
<polygon id="0x2cf9df0" class="l5d0" points="590,1070 610,1070 610,1090 590,1090"/>
<polygon id="0x2cea800" class="l5d0" points="590,1150 610,1150 610,1170 590,1170"/>
<polygon id="0x2cea8c0" class="l5d0" points="670,30 690,30 690,50 670,50"/>
<polygon id="0x2cea980" class="l5d0" points="670,110 690,110 690,130 670,130"/>
<polygon id="0x2ceaa40" class="l5d0" points="670,190 690,190 690,210 670,210"/>
<polygon id="0x2ceab00" class="l5d0" points="670,270 690,270 690,290 670,290"/>
<polygon id="0x2ceabc0" class="l5d0" points="670,350 690,350 690,370 670,370"/>
<polygon id="0x2ceac80" class="l5d0" points="670,430 690,430 690,450 670,450"/>
<polygon id="0x2cead40" class="l5d0" points="670,510 690,510 690,530 670,530"/>
<polygon id="0x2ceae00" class="l5d0" points="670,590 690,590 690,610 670,610"/>
<polygon id="0x2ceaec0" class="l5d0" points="670,670 690,670 690,690 670,690"/>
<polygon id="0x2ceaf80" class="l5d0" points="670,750 690,750 690,770 670,770"/>
<polygon id="0x2ceb040" class="l5d0" points="670,830 690,830 690,850 670,850"/>
<polygon id="0x2ceb100" class="l5d0" points="670,910 690,910 690,930 670,930"/>
<polygon id="0x2ceb1c0" class="l5d0" points="670,990 690,990 690,1010 670,1010"/>
<polygon id="0x2ceb280" class="l5d0" points="670,1070 690,1070 690,1090 670,1090"/>
<polygon id="0x2ceb340" class="l5d0" points="670,1150 690,1150 690,1170 670,1170"/>
<polygon id="0x2ceb400" class="l5d0" points="750,30 770,30 770,50 750,50"/>
<polygon id="0x2ceb4c0" class="l5d0" points="750,110 770,110 770,130 750,130"/>
<polygon id="0x2ceb580" class="l5d0" points="750,190 770,190 770,210 750,210"/>
<polygon id="0x2ceb640" class="l5d0" points="750,270 770,270 770,290 750,290"/>
<polygon id="0x2ceb700" class="l5d0" points="750,350 770,350 770,370 750,370"/>
<polygon id="0x2cfbec0" class="l5d0" points="750,430 770,430 770,450 750,450"/>
<polygon id="0x2cfbf30" class="l5d0" points="750,510 770,510 770,530 750,530"/>
<polygon id="0x2cfbff0" class="l5d0" points="750,590 770,590 770,610 750,610"/>
<polygon id="0x2cfc0b0" class="l5d0" points="750,670 770,670 770,690 750,690"/>
<polygon id="0x2cfc170" class="l5d0" points="750,750 770,750 770,770 750,770"/>
<polygon id="0x2cfc230" class="l5d0" points="750,830 770,830 770,850 750,850"/>
<polygon id="0x2cfc2f0" class="l5d0" points="750,910 770,910 770,930 750,930"/>
<polygon id="0x2cfc3b0" class="l5d0" points="750,990 770,990 770,1010 750,1010"/>
<polygon id="0x2cfc470" class="l5d0" points="750,1070 770,1070 770,1090 750,1090"/>
<polygon id="0x2cfc530" class="l5d0" points="750,1150 770,1150 770,1170 750,1170"/>
<polygon id="0x2cfc5f0" class="l5d0" points="830,30 850,30 850,50 830,50"/>
<polygon id="0x2cfc6b0" class="l5d0" points="830,110 850,110 850,130 830,130"/>
<polygon id="0x2cfc770" class="l5d0" points="830,190 850,190 850,210 830,210"/>
<polygon id="0x2cfc830" class="l5d0" points="830,270 850,270 850,290 830,290"/>
<polygon id="0x2cfc8f0" class="l5d0" points="830,350 850,350 850,370 830,370"/>
<polygon id="0x2cfc9b0" class="l5d0" points="830,430 850,430 850,450 830,450"/>
<polygon id="0x2cfca70" class="l5d0" points="830,510 850,510 850,530 830,530"/>
<polygon id="0x2cfcb30" class="l5d0" points="830,590 850,590 850,610 830,610"/>
<polygon id="0x2cfcbf0" class="l5d0" points="830,670 850,670 850,690 830,690"/>
<polygon id="0x2cfccb0" class="l5d0" points="830,750 850,750 850,770 830,770"/>
<polygon id="0x2cfcd70" class="l5d0" points="830,830 850,830 850,850 830,850"/>
<polygon id="0x2cfce30" class="l5d0" points="830,910 850,910 850,930 830,930"/>
<polygon id="0x2cfcef0" class="l5d0" points="830,990 850,990 850,1010 830,1010"/>
<polygon id="0x2cfcfb0" class="l5d0" points="830,1070 850,1070 850,1090 830,1090"/>
<polygon id="0x2cfd070" class="l5d0" points="830,1150 850,1150 850,1170 830,1170"/>
<polygon id="0x2cfd130" class="l5d0" points="910,30 930,30 930,50 910,50"/>
<polygon id="0x2cfd1f0" class="l5d0" points="910,110 930,110 930,130 910,130"/>
<polygon id="0x2cfd2b0" class="l5d0" points="910,190 930,190 930,210 910,210"/>
<polygon id="0x2cfd370" class="l5d0" points="910,270 930,270 930,290 910,290"/>
<polygon id="0x2cfd430" class="l5d0" points="910,350 930,350 930,370 910,370"/>
<polygon id="0x2cfd4f0" class="l5d0" points="910,430 930,430 930,450 910,450"/>
<polygon id="0x2cfd5b0" class="l5d0" points="910,510 930,510 930,530 910,530"/>
<polygon id="0x2cfd670" class="l5d0" points="910,590 930,590 930,610 910,610"/>
<polygon id="0x2cfd730" class="l5d0" points="910,670 930,670 930,690 910,690"/>
<polygon id="0x2cfd7f0" class="l5d0" points="910,750 930,750 930,770 910,770"/>
<polygon id="0x2cfd8b0" class="l5d0" points="910,830 930,830 930,850 910,850"/>
<polygon id="0x2cfd970" class="l5d0" points="910,910 930,910 930,930 910,930"/>
<polygon id="0x2cfda30" class="l5d0" points="910,990 930,990 930,1010 910,1010"/>
<polygon id="0x2cfdaf0" class="l5d0" points="910,1070 930,1070 930,1090 910,1090"/>
<polygon id="0x2cfdbb0" class="l5d0" points="910,1150 930,1150 930,1170 910,1170"/>
<polygon id="0x2cfdc70" class="l5d0" points="990,30 1010,30 1010,50 990,50"/>
<polygon id="0x2cfdd30" class="l5d0" points="990,110 1010,110 1010,130 990,130"/>
<polygon id="0x2cfddf0" class="l5d0" points="990,190 1010,190 1010,210 990,210"/>
<polygon id="0x2cfdeb0" class="l5d0" points="990,270 1010,270 1010,290 990,290"/>
<polygon id="0x2cfdf70" class="l5d0" points="990,350 1010,350 1010,370 990,370"/>
<polygon id="0x2cfe030" class="l5d0" points="990,430 1010,430 1010,450 990,450"/>
<polygon id="0x2cfe0f0" class="l5d0" points="990,510 1010,510 1010,530 990,530"/>
<polygon id="0x2cfe1b0" class="l5d0" points="990,590 1010,590 1010,610 990,610"/>
<polygon id="0x2cfe270" class="l5d0" points="990,670 1010,670 1010,690 990,690"/>
<polygon id="0x2cfe330" class="l5d0" points="990,750 1010,750 1010,770 990,770"/>
<polygon id="0x2cfe3f0" class="l5d0" points="990,830 1010,830 1010,850 990,850"/>
<polygon id="0x2cfe4b0" class="l5d0" points="990,910 1010,910 1010,930 990,930"/>
<polygon id="0x2cfe570" class="l5d0" points="990,990 1010,990 1010,1010 990,1010"/>
<polygon id="0x2cfe630" class="l5d0" points="990,1070 1010,1070 1010,1090 990,1090"/>
<polygon id="0x2cfe6f0" class="l5d0" points="990,1150 1010,1150 1010,1170 990,1170"/>
<polygon id="0x2cfe7b0" class="l5d0" points="1070,30 1090,30 1090,50 1070,50"/>
<polygon id="0x2cfe870" class="l5d0" points="1070,110 1090,110 1090,130 1070,130"/>
<polygon id="0x2cfe930" class="l5d0" points="1070,190 1090,190 1090,210 1070,210"/>
<polygon id="0x2cfe9f0" class="l5d0" points="1070,270 1090,270 1090,290 1070,290"/>
<polygon id="0x2cfeab0" class="l5d0" points="1070,350 1090,350 1090,370 1070,370"/>
<polygon id="0x2cfeb70" class="l5d0" points="1070,430 1090,430 1090,450 1070,450"/>
<polygon id="0x2cfec30" class="l5d0" points="1070,510 1090,510 1090,530 1070,530"/>
<polygon id="0x2cfecf0" class="l5d0" points="1070,590 1090,590 1090,610 1070,610"/>
<polygon id="0x2cfedb0" class="l5d0" points="1070,670 1090,670 1090,690 1070,690"/>
<polygon id="0x2cfee70" class="l5d0" points="1070,750 1090,750 1090,770 1070,770"/>
<polygon id="0x2cfef30" class="l5d0" points="1070,830 1090,830 1090,850 1070,850"/>
<polygon id="0x2cfeff0" class="l5d0" points="1070,910 1090,910 1090,930 1070,930"/>
<polygon id="0x2cff0b0" class="l5d0" points="1070,990 1090,990 1090,1010 1070,1010"/>
<polygon id="0x2cff170" class="l5d0" points="1070,1070 1090,1070 1090,1090 1070,1090"/>
<polygon id="0x2cff230" class="l5d0" points="1070,1150 1090,1150 1090,1170 1070,1170"/>
<polygon id="0x2cff2f0" class="l5d0" points="1150,30 1170,30 1170,50 1150,50"/>
<polygon id="0x2cff3b0" class="l5d0" points="1150,110 1170,110 1170,130 1150,130"/>
<polygon id="0x2cff470" class="l5d0" points="1150,190 1170,190 1170,210 1150,210"/>
<polygon id="0x2cff530" class="l5d0" points="1150,270 1170,270 1170,290 1150,290"/>
<polygon id="0x2cff5f0" class="l5d0" points="1150,350 1170,350 1170,370 1150,370"/>
<polygon id="0x2cff6b0" class="l5d0" points="1150,430 1170,430 1170,450 1150,450"/>
<polygon id="0x2cff770" class="l5d0" points="1150,510 1170,510 1170,530 1150,530"/>
<polygon id="0x2cff830" class="l5d0" points="1150,590 1170,590 1170,610 1150,610"/>
<polygon id="0x2cff8f0" class="l5d0" points="1150,670 1170,670 1170,690 1150,690"/>
<polygon id="0x2cff9b0" class="l5d0" points="1150,750 1170,750 1170,770 1150,770"/>
<polygon id="0x2cffa70" class="l5d0" points="1150,830 1170,830 1170,850 1150,850"/>
<polygon id="0x2cffb30" class="l5d0" points="1150,910 1170,910 1170,930 1150,930"/>
<polygon id="0x2cffbf0" class="l5d0" points="1150,990 1170,990 1170,1010 1150,1010"/>
<polygon id="0x2cffcb0" class="l5d0" points="1150,1070 1170,1070 1170,1090 1150,1090"/>
<polygon id="0x2cffd70" class="l5d0" points="1150,1150 1170,1150 1170,1170 1150,1170"/>
<polygon id="0x2cffe30" class="l5d0" points="1230,30 1250,30 1250,50 1230,50"/>
<polygon id="0x2cffef0" class="l5d0" points="1230,110 1250,110 1250,130 1230,130"/>
<polygon id="0x2cfffb0" class="l5d0" points="1230,190 1250,190 1250,210 1230,210"/>
<polygon id="0x2d00070" class="l5d0" points="1230,270 1250,270 1250,290 1230,290"/>
<polygon id="0x2d00130" class="l5d0" points="1230,350 1250,350 1250,370 1230,370"/>
<polygon id="0x2d001f0" class="l5d0" points="1230,430 1250,430 1250,450 1230,450"/>
<polygon id="0x2d002b0" class="l5d0" points="1230,510 1250,510 1250,530 1230,530"/>
<polygon id="0x2d00370" class="l5d0" points="1230,590 1250,590 1250,610 1230,610"/>
<polygon id="0x2d00430" class="l5d0" points="1230,670 1250,670 1250,690 1230,690"/>
<polygon id="0x2d004f0" class="l5d0" points="1230,750 1250,750 1250,770 1230,770"/>
<polygon id="0x2d005b0" class="l5d0" points="1230,830 1250,830 1250,850 1230,850"/>
<polygon id="0x2d00670" class="l5d0" points="1230,910 1250,910 1250,930 1230,930"/>
<polygon id="0x2d00730" class="l5d0" points="1230,990 1250,990 1250,1010 1230,1010"/>
<polygon id="0x2d007f0" class="l5d0" points="1230,1070 1250,1070 1250,1090 1230,1090"/>
<polygon id="0x2d008b0" class="l5d0" points="1230,1150 1250,1150 1250,1170 1230,1170"/>
<polygon id="0x2d00970" class="l5d0" points="1310,30 1330,30 1330,50 1310,50"/>
<polygon id="0x2d00a30" class="l5d0" points="1310,110 1330,110 1330,130 1310,130"/>
<polygon id="0x2d00af0" class="l5d0" points="1310,190 1330,190 1330,210 1310,210"/>
<polygon id="0x2d00bb0" class="l5d0" points="1310,270 1330,270 1330,290 1310,290"/>
<polygon id="0x2d00c70" class="l5d0" points="1310,350 1330,350 1330,370 1310,370"/>
<polygon id="0x2d00d30" class="l5d0" points="1310,430 1330,430 1330,450 1310,450"/>
<polygon id="0x2d00df0" class="l5d0" points="1310,510 1330,510 1330,530 1310,530"/>
<polygon id="0x2d00eb0" class="l5d0" points="1310,590 1330,590 1330,610 1310,610"/>
<polygon id="0x2d00f70" class="l5d0" points="1310,670 1330,670 1330,690 1310,690"/>
<polygon id="0x2d01030" class="l5d0" points="1310,750 1330,750 1330,770 1310,770"/>
<polygon id="0x2d010f0" class="l5d0" points="1310,830 1330,830 1330,850 1310,850"/>
<polygon id="0x2d011b0" class="l5d0" points="1310,910 1330,910 1330,930 1310,930"/>
<polygon id="0x2d01270" class="l5d0" points="1310,990 1330,990 1330,1010 1310,1010"/>
<polygon id="0x2d01330" class="l5d0" points="1310,1070 1330,1070 1330,1090 1310,1090"/>
<polygon id="0x2d013f0" class="l5d0" points="1310,1150 1330,1150 1330,1170 1310,1170"/>
</g>
</svg>