<?xml version="1.0" encoding="UTF-8"?>
<svg xmlns="http://www.w3.org/2000/svg" xmlns:xlink="http://www.w3.org/1999/xlink" width="2200" height="1560" viewBox="-100 -1460 2200 1560">
<defs>
<style type="text/css">
.l126d0 {stroke: #E68FAC; fill: #E68FAC; fill-opacity: 0.5;}
.l189d4 {stroke: #A1CAF1; fill: #A1CAF1; fill-opacity: 0.5;}
</style>
</defs>
<rect x="-100" y="-1460" width="2200" height="1560" fill="#222222" stroke="none"/>
<g id="my_logo" transform="scale(1 -1)">
<polygon id="0x2030c30" class="l126d0" points="0,20 320,20 320,60 0,60"/>
<polygon id="0x2082ec0" class="l126d0" points="480,20 560,20 560,60 480,60"/>
<polygon id="0x20fed70" class="l126d0" points="800,20 1280,20 1280,60 800,60"/>
<polygon id="0x1f6b340" class="l126d0" points="1440,20 1520,20 1520,60 1440,60"/>
<polygon id="0x2069b10" class="l126d0" points="1600,20 1760,20 1760,60 1600,60"/>
<polygon id="0x207e9b0" class="l126d0" points="1920,20 2000,20 2000,60 1920,60"/>
<polygon id="0x20067d0" class="l126d0" points="80,100 160,100 160,140 80,140"/>
<polygon id="0x20ee6c0" class="l126d0" points="320,100 560,100 560,140 320,140"/>
<polygon id="0x21dc8f0" class="l126d0" points="640,100 720,100 720,140 640,140"/>
<polygon id="0x21ddfe0" class="l126d0" points="800,100 880,100 880,140 800,140"/>
<polygon id="0x2153d20" class="l126d0" points="1200,100 1280,100 1280,140 1200,140"/>
<polygon id="0x2155d30" class="l126d0" points="1360,100 1440,100 1440,140 1360,140"/>
<polygon id="0x21337d0" class="l126d0" points="1520,100 1600,100 1600,140 1520,140"/>
<polygon id="0x2208150" class="l126d0" points="1840,100 1920,100 1920,140 1840,140"/>
<polygon id="0x21d7c10" class="l126d0" points="80,180 160,180 160,220 80,220"/>
<polygon id="0x2198a40" class="l126d0" points="240,180 320,180 320,220 240,220"/>
<polygon id="0x2062a10" class="l126d0" points="400,180 640,180 640,220 400,220"/>
<polygon id="0x21746c0" class="l126d0" points="880,180 1040,180 1040,220 880,220"/>
<polygon id="0x215c8b0" class="l126d0" points="1360,180 1440,180 1440,220 1360,220"/>
<polygon id="0x21ab2a0" class="l126d0" points="1520,180 1600,180 1600,220 1520,220"/>
<polygon id="0x219ed90" class="l126d0" points="1760,180 1920,180 1920,220 1760,220"/>
<polygon id="0x1f39820" class="l126d0" points="80,260 160,260 160,300 80,300"/>
<polygon id="0x1fb97b0" class="l126d0" points="240,260 320,260 320,300 240,300"/>
<polygon id="0x1fcc850" class="l126d0" points="560,260 720,260 720,300 560,300"/>
<polygon id="0x1fdaf00" class="l126d0" points="960,260 1040,260 1040,300 960,300"/>
<polygon id="0x1f69d30" class="l126d0" points="1120,260 1360,260 1360,300 1120,300"/>
<polygon id="0x210d630" class="l126d0" points="1440,260 1600,260 1600,300 1440,300"/>
<polygon id="0x216ddc0" class="l126d0" points="1680,260 1840,260 1840,300 1680,300"/>
<polygon id="0x2161bb0" class="l126d0" points="0,340 80,340 80,380 0,380"/>
<polygon id="0x1fe53b0" class="l126d0" points="240,340 320,340 320,380 240,380"/>
<polygon id="0x201de50" class="l126d0" points="800,340 1040,340 1040,380 800,380"/>
<polygon id="0x20431d0" class="l126d0" points="1280,340 1360,340 1360,380 1280,380"/>
<polygon id="0x206de40" class="l126d0" points="1680,340 1920,340 1920,380 1680,380"/>
<polygon id="0x20ebd10" class="l126d0" points="80,420 320,420 320,460 80,460"/>
<polygon id="0x21295d0" class="l126d0" points="400,420 480,420 480,460 400,460"/>
<polygon id="0x219c160" class="l126d0" points="640,420 720,420 720,460 640,460"/>
<polygon id="0x21e2db0" class="l126d0" points="1040,420 1120,420 1120,460 1040,460"/>
<polygon id="0x1fa1610" class="l126d0" points="1200,420 1280,420 1280,460 1200,460"/>
<polygon id="0x1fb2290" class="l126d0" points="1360,420 1440,420 1440,460 1360,460"/>
<polygon id="0x201be30" class="l126d0" points="1600,420 1680,420 1680,460 1600,460"/>
<polygon id="0x20e31a0" class="l126d0" points="1760,420 1840,420 1840,460 1760,460"/>
<polygon id="0x21671c0" class="l126d0" points="0,500 80,500 80,540 0,540"/>
<polygon id="0x1fad870" class="l126d0" points="240,500 400,500 400,540 240,540"/>
<polygon id="0x212c2a0" class="l126d0" points="560,500 640,500 640,540 560,540"/>
<polygon id="0x2180400" class="l126d0" points="720,500 800,500 800,540 720,540"/>
<polygon id="0x215e240" class="l126d0" points="880,500 960,500 960,540 880,540"/>
<polygon id="0x20716b0" class="l126d0" points="1040,500 1280,500 1280,540 1040,540"/>
<polygon id="0x2070f10" class="l126d0" points="1360,500 1680,500 1680,540 1360,540"/>
<polygon id="0x2070f80" class="l126d0" points="1760,500 1840,500 1840,540 1760,540"/>
<polygon id="0x20d9c20" class="l126d0" points="1920,500 2000,500 2000,540 1920,540"/>
<polygon id="0x2139c70" class="l126d0" points="160,580 240,580 240,620 160,620"/>
<polygon id="0x2146720" class="l126d0" points="400,580 480,580 480,620 400,620"/>
<polygon id="0x2146790" class="l126d0" points="560,580 800,580 800,620 560,620"/>
<polygon id="0x219e400" class="l126d0" points="880,580 960,580 960,620 880,620"/>
<polygon id="0x21b11b0" class="l126d0" points="1040,580 1360,580 1360,620 1040,620"/>
<polygon id="0x21e24c0" class="l126d0" points="1440,580 1520,580 1520,620 1440,620"/>
<polygon id="0x21e2530" class="l126d0" points="1600,580 1760,580 1760,620 1600,620"/>
<polygon id="0x2208e30" class="l126d0" points="1840,580 1920,580 1920,620 1840,620"/>
<polygon id="0x1fcc4a0" class="l126d0" points="0,660 80,660 80,700 0,700"/>
<polygon id="0x1fcea00" class="l126d0" points="160,660 320,660 320,700 160,700"/>
<polygon id="0x1fcea70" class="l126d0" points="480,660 800,660 800,700 480,700"/>
<polygon id="0x200a130" class="l126d0" points="1360,660 1680,660 1680,700 1360,700"/>
<polygon id="0x20602d0" class="l126d0" points="1920,660 2000,660 2000,700 1920,700"/>
<polygon id="0x204bbe0" class="l126d0" points="80,740 160,740 160,780 80,780"/>
<polygon id="0x211bb80" class="l126d0" points="240,740 320,740 320,780 240,780"/>
<polygon id="0x21340d0" class="l126d0" points="480,740 560,740 560,780 480,780"/>
<polygon id="0x214ecf0" class="l126d0" points="720,740 800,740 800,780 720,780"/>
<polygon id="0x21a95d0" class="l126d0" points="880,740 960,740 960,780 880,780"/>
<polygon id="0x21bb5c0" class="l126d0" points="1120,740 1360,740 1360,780 1120,780"/>
<polygon id="0x21cb1a0" class="l126d0" points="1600,740 1680,740 1680,780 1600,780"/>
<polygon id="0x1f93d60" class="l126d0" points="1920,740 2000,740 2000,780 1920,780"/>
<polygon id="0x1f93e20" class="l126d0" points="0,820 160,820 160,860 0,860"/>
<polygon id="0x1fb5200" class="l126d0" points="400,820 640,820 640,860 400,860"/>
<polygon id="0x1fb52c0" class="l126d0" points="800,820 1360,820 1360,860 800,860"/>
<polygon id="0x1fd95c0" class="l126d0" points="1920,820 2000,820 2000,860 1920,860"/>
<polygon id="0x1fd9680" class="l126d0" points="0,900 80,900 80,940 0,940"/>
<polygon id="0x200aa70" class="l126d0" points="160,900 320,900 320,940 160,940"/>
<polygon id="0x200ab30" class="l126d0" points="400,900 560,900 560,940 400,940"/>
<polygon id="0x206a280" class="l126d0" points="640,900 720,900 720,940 640,940"/>
<polygon id="0x206a340" class="l126d0" points="880,900 960,900 960,940 880,940"/>
<polygon id="0x2060dd0" class="l126d0" points="1040,900 1120,900 1120,940 1040,940"/>
<polygon id="0x2060e90" class="l126d0" points="1280,900 1440,900 1440,940 1280,940"/>
<polygon id="0x2062d60" class="l126d0" points="1520,900 1840,900 1840,940 1520,940"/>
<polygon id="0x2062e20" class="l126d0" points="0,980 80,980 80,1020 0,1020"/>
<polygon id="0x20dc6a0" class="l126d0" points="480,980 880,980 880,1020 480,1020"/>
<polygon id="0x20dc760" class="l126d0" points="960,980 1120,980 1120,1020 960,1020"/>
<polygon id="0x20da120" class="l126d0" points="1200,980 1280,980 1280,1020 1200,1020"/>
<polygon id="0x20da1e0" class="l126d0" points="1520,980 1760,980 1760,1020 1520,1020"/>
<polygon id="0x21df240" class="l126d0" points="1920,980 2000,980 2000,1020 1920,1020"/>
<polygon id="0x1fd0140" class="l126d0" points="0,1060 80,1060 80,1100 0,1100"/>
<polygon id="0x1fd0200" class="l126d0" points="240,1060 640,1060 640,1100 240,1100"/>
<polygon id="0x212ae80" class="l126d0" points="720,1060 800,1060 800,1100 720,1100"/>
<polygon id="0x1ee5e70" class="l126d0" points="880,1060 960,1060 960,1100 880,1100"/>
<polygon id="0x1ee5f30" class="l126d0" points="1040,1060 1120,1060 1120,1100 1040,1100"/>
<polygon id="0x2170700" class="l126d0" points="1200,1060 1360,1060 1360,1100 1200,1100"/>
<polygon id="0x2148d20" class="l126d0" points="1440,1060 1520,1060 1520,1100 1440,1100"/>
<polygon id="0x2148de0" class="l126d0" points="1760,1060 1840,1060 1840,1100 1760,1100"/>
<polygon id="0x21a7ba0" class="l126d0" points="1920,1060 2000,1060 2000,1100 1920,1100"/>
<polygon id="0x1f7d740" class="l126d0" points="0,1140 80,1140 80,1180 0,1180"/>
<polygon id="0x1f7d800" class="l126d0" points="160,1140 320,1140 320,1180 160,1180"/>
<polygon id="0x1f9fa40" class="l126d0" points="560,1140 1200,1140 1200,1180 560,1180"/>
<polygon id="0x1fa9a50" class="l126d0" points="1280,1140 1520,1140 1520,1180 1280,1180"/>
<polygon id="0x1fa9ac0" class="l126d0" points="1600,1140 2000,1140 2000,1180 1600,1180"/>
<polygon id="0x1fe24a0" class="l126d0" points="0,1220 160,1220 160,1260 0,1260"/>
<polygon id="0x1fe2560" class="l126d0" points="320,1220 480,1220 480,1260 320,1260"/>
<polygon id="0x20e5200" class="l126d0" points="560,1220 640,1220 640,1260 560,1260"/>
<polygon id="0x21355b0" class="l126d0" points="720,1220 800,1220 800,1260 720,1260"/>
<polygon id="0x2135620" class="l126d0" points="880,1220 960,1220 960,1260 880,1260"/>
<polygon id="0x2179370" class="l126d0" points="1040,1220 1520,1220 1520,1260 1040,1260"/>
<polygon id="0x2179430" class="l126d0" points="1600,1220 1920,1220 1920,1260 1600,1260"/>
<polygon id="0x219cfd0" class="l126d0" points="160,1300 240,1300 240,1340 160,1340"/>
<polygon id="0x21ead80" class="l126d0" points="320,1300 560,1300 560,1340 320,1340"/>
<polygon id="0x21eadf0" class="l126d0" points="880,1300 1120,1300 1120,1340 880,1340"/>
<polygon id="0x1f9dc50" class="l126d0" points="1280,1300 1360,1300 1360,1340 1280,1340"/>
<polygon id="0x1f9dd10" class="l126d0" points="1760,1300 1840,1300 1840,1340 1760,1340"/>
<polygon id="0x1f8fab0" class="l126d0" points="1920,1300 2000,1300 2000,1340 1920,1340"/>
<polygon id="0x206d320" class="l126d0" points="20,80 60,80 60,320 20,320"/>
<polygon id="0x206d3e0" class="l126d0" points="20,400 60,400 60,480 20,480"/>
<polygon id="0x206ce70" class="l126d0" points="20,560 60,560 60,640 20,640"/>
<polygon id="0x206cf30" class="l126d0" points="20,720 60,720 60,800 20,800"/>
<polygon id="0x20da780" class="l126d0" points="20,1280 60,1280 60,1360 20,1360"/>
<polygon id="0x20e8d00" class="l126d0" points="100,320 140,320 140,400 100,400"/>
<polygon id="0x20e8dc0" class="l126d0" points="100,480 140,480 140,720 100,720"/>
<polygon id="0x2191520" class="l126d0" points="100,880 140,880 140,1200 100,1200"/>
<polygon id="0x21915e0" class="l126d0" points="100,1280 140,1280 140,1360 100,1360"/>
<polygon id="0x2143d90" class="l126d0" points="180,80 220,80 220,400 180,400"/>
<polygon id="0x1f9be80" class="l126d0" points="180,480 220,480 220,560 180,560"/>
<polygon id="0x1f9bf40" class="l126d0" points="180,720 220,720 220,880 180,880"/>
<polygon id="0x1fdb3f0" class="l126d0" points="180,960 220,960 220,1120 180,1120"/>
<polygon id="0x1fdb4b0" class="l126d0" points="180,1200 220,1200 220,1280 180,1280"/>
<polygon id="0x201b8f0" class="l126d0" points="260,80 300,80 300,160 260,160"/>
<polygon id="0x201b9b0" class="l126d0" points="260,560 300,560 300,640 260,640"/>
<polygon id="0x2024b80" class="l126d0" points="260,800 300,800 300,880 260,880"/>
<polygon id="0x2024c40" class="l126d0" points="260,960 300,960 300,1040 260,1040"/>
<polygon id="0x2074150" class="l126d0" points="260,1200 300,1200 300,1360 260,1360"/>
<polygon id="0x2074210" class="l126d0" points="340,0 380,0 380,80 340,80"/>
<polygon id="0x204a890" class="l126d0" points="340,160 380,160 380,480 340,480"/>
<polygon id="0x204a950" class="l126d0" points="340,560 380,560 380,1040 340,1040"/>
<polygon id="0x20b80a0" class="l126d0" points="340,1120 380,1120 380,1200 340,1200"/>
<polygon id="0x20b8160" class="l126d0" points="420,0 460,0 460,80 420,80"/>
<polygon id="0x213b100" class="l126d0" points="420,240 460,240 460,400 420,400"/>
<polygon id="0x213b1c0" class="l126d0" points="420,480 460,480 460,560 420,560"/>
<polygon id="0x21675e0" class="l126d0" points="420,640 460,640 460,800 420,800"/>
<polygon id="0x21676a0" class="l126d0" points="420,960 460,960 460,1040 420,1040"/>
<polygon id="0x21d95e0" class="l126d0" points="420,1120 460,1120 460,1200 420,1200"/>
<polygon id="0x21d96a0" class="l126d0" points="500,240 540,240 540,640 500,640"/>
<polygon id="0x1fde7c0" class="l126d0" points="500,1120 540,1120 540,1280 500,1280"/>
<polygon id="0x1fde880" class="l126d0" points="580,0 620,0 620,160 580,160"/>
<polygon id="0x1fcb1d0" class="l126d0" points="580,320 620,320 620,480 580,480"/>
<polygon id="0x1fcb290" class="l126d0" points="580,720 620,720 620,800 580,800"/>
<polygon id="0x2027560" class="l126d0" points="580,880 620,880 620,960 580,960"/>
<polygon id="0x2027620" class="l126d0" points="580,1280 620,1280 620,1360 580,1360"/>
<polygon id="0x2063e00" class="l126d0" points="660,0 700,0 700,80 660,80"/>
<polygon id="0x2063ec0" class="l126d0" points="660,160 700,160 700,240 660,240"/>
<polygon id="0x21096a0" class="l126d0" points="660,320 700,320 700,400 660,400"/>
<polygon id="0x2109760" class="l126d0" points="660,480 700,480 700,560 660,560"/>
<polygon id="0x20faae0" class="l126d0" points="660,720 700,720 700,880 660,880"/>
<polygon id="0x20faba0" class="l126d0" points="660,1040 700,1040 700,1120 660,1120"/>
<polygon id="0x1fdcb90" class="l126d0" points="660,1200 700,1200 700,1360 660,1360"/>
<polygon id="0x1fdcc50" class="l126d0" points="740,0 780,0 780,480 740,480"/>
<polygon id="0x1fdccc0" class="l126d0" points="740,800 780,800 780,960 740,960"/>
<polygon id="0x201f2b0" class="l126d0" points="740,1280 780,1280 780,1360 740,1360"/>
<polygon id="0x201f370" class="l126d0" points="820,160 860,160 860,320 820,320"/>
<polygon id="0x2036340" class="l126d0" points="820,400 860,400 860,800 820,800"/>
<polygon id="0x2036400" class="l126d0" points="820,880 860,880 860,960 820,960"/>
<polygon id="0x202d1b0" class="l126d0" points="820,1040 860,1040 860,1120 820,1120"/>
<polygon id="0x202d270" class="l126d0" points="820,1200 860,1200 860,1360 820,1360"/>
<polygon id="0x206f320" class="l126d0" points="900,80 940,80 940,160 900,160"/>
<polygon id="0x206f3e0" class="l126d0" points="900,240 940,240 940,320 900,320"/>
<polygon id="0x21cfbd0" class="l126d0" points="900,400 940,400 940,480 900,480"/>
<polygon id="0x21cfc90" class="l126d0" points="900,640 940,640 940,720 900,720"/>
<polygon id="0x1f38fa0" class="l126d0" points="900,960 940,960 940,1040 900,1040"/>
<polygon id="0x1f39060" class="l126d0" points="980,80 1020,80 1020,160 980,160"/>
<polygon id="0x1fc9530" class="l126d0" points="980,400 1020,400 1020,800 980,800"/>
<polygon id="0x1fc95f0" class="l126d0" points="980,880 1020,880 1020,960 980,960"/>
<polygon id="0x1fd8d20" class="l126d0" points="980,1040 1020,1040 1020,1120 980,1120"/>
<polygon id="0x1fd8de0" class="l126d0" points="980,1200 1020,1200 1020,1280 980,1280"/>
<polygon id="0x1ff4010" class="l126d0" points="1060,80 1100,80 1100,400 1060,400"/>
<polygon id="0x1ff40d0" class="l126d0" points="1060,640 1100,640 1100,800 1060,800"/>
<polygon id="0x2008ec0" class="l126d0" points="1140,80 1180,80 1180,240 1140,240"/>
<polygon id="0x2008f80" class="l126d0" points="1140,320 1180,320 1180,480 1140,480"/>
<polygon id="0x20b28b0" class="l126d0" points="1140,640 1180,640 1180,720 1140,720"/>
<polygon id="0x20b2970" class="l126d0" points="1140,880 1180,880 1180,1120 1140,1120"/>
<polygon id="0x21247d0" class="l126d0" points="1140,1280 1180,1280 1180,1360 1140,1360"/>
<polygon id="0x2124890" class="l126d0" points="1220,160 1260,160 1260,240 1220,240"/>
<polygon id="0x1f9d7d0" class="l126d0" points="1220,320 1260,320 1260,400 1220,400"/>
<polygon id="0x1f9d890" class="l126d0" points="1220,640 1260,640 1260,720 1220,720"/>
<polygon id="0x206ae00" class="l126d0" points="1220,880 1260,880 1260,960 1220,960"/>
<polygon id="0x206aec0" class="l126d0" points="1220,1120 1260,1120 1260,1200 1220,1200"/>
<polygon id="0x20ba840" class="l126d0" points="1220,1280 1260,1280 1260,1360 1220,1360"/>
<polygon id="0x20ba900" class="l126d0" points="1300,0 1340,0 1340,240 1300,240"/>
<polygon id="0x1f9e410" class="l126d0" points="1300,400 1340,400 1340,560 1300,560"/>
<polygon id="0x1f9e4d0" class="l126d0" points="1300,640 1340,640 1340,720 1300,720"/>
<polygon id="0x213da30" class="l126d0" points="1300,960 1340,960 1340,1040 1300,1040"/>
<polygon id="0x213daf0" class="l126d0" points="1380,0 1420,0 1420,80 1380,80"/>
<polygon id="0x219a200" class="l126d0" points="1380,240 1420,240 1420,400 1380,400"/>
<polygon id="0x219a270" class="l126d0" points="1380,560 1420,560 1420,640 1380,640"/>
<polygon id="0x219a330" class="l126d0" points="1380,720 1420,720 1420,880 1380,880"/>
<polygon id="0x2080700" class="l126d0" points="1380,960 1420,960 1420,1120 1380,1120"/>
<polygon id="0x20807c0" class="l126d0" points="1380,1280 1420,1280 1420,1360 1380,1360"/>
<polygon id="0x2064a30" class="l126d0" points="1460,80 1500,80 1500,240 1460,240"/>
<polygon id="0x2064af0" class="l126d0" points="1460,320 1500,320 1500,480 1460,480"/>
<polygon id="0x20e6a80" class="l126d0" points="1460,720 1500,720 1500,1040 1460,1040"/>
<polygon id="0x20e6b40" class="l126d0" points="1460,1280 1500,1280 1500,1360 1460,1360"/>
<polygon id="0x2148480" class="l126d0" points="1540,0 1580,0 1580,80 1540,80"/>
<polygon id="0x2148540" class="l126d0" points="1540,320 1580,320 1580,480 1540,480"/>
<polygon id="0x214f3e0" class="l126d0" points="1540,560 1580,560 1580,640 1540,640"/>
<polygon id="0x214f4a0" class="l126d0" points="1540,720 1580,720 1580,880 1540,880"/>
<polygon id="0x2156f50" class="l126d0" points="1540,1040 1580,1040 1580,1360 1540,1360"/>
<polygon id="0x2157010" class="l126d0" points="1620,80 1660,80 1660,400 1620,400"/>
<polygon id="0x21bd4b0" class="l126d0" points="1620,800 1660,800 1660,880 1620,880"/>
<polygon id="0x21bd570" class="l126d0" points="1620,1040 1660,1040 1660,1120 1620,1120"/>
<polygon id="0x1f3a150" class="l126d0" points="1620,1280 1660,1280 1660,1360 1620,1360"/>
<polygon id="0x1f3a210" class="l126d0" points="1700,80 1740,80 1740,240 1700,240"/>
<polygon id="0x1fe12d0" class="l126d0" points="1700,400 1740,400 1740,560 1700,560"/>
<polygon id="0x1fe1390" class="l126d0" points="1700,640 1740,640 1740,880 1700,880"/>
<polygon id="0x1fe1450" class="l126d0" points="1700,1040 1740,1040 1740,1120 1700,1120"/>
<polygon id="0x1fe3da0" class="l126d0" points="1700,1280 1740,1280 1740,1360 1700,1360"/>
<polygon id="0x1fe3e60" class="l126d0" points="1780,0 1820,0 1820,160 1780,160"/>
<polygon id="0x1fe3f20" class="l126d0" points="1780,560 1820,560 1820,880 1780,880"/>
<polygon id="0x20351f0" class="l126d0" points="1780,960 1820,960 1820,1040 1780,1040"/>
<polygon id="0x20352b0" class="l126d0" points="1860,0 1900,0 1900,80 1860,80"/>
<polygon id="0x2035370" class="l126d0" points="1860,240 1900,240 1900,320 1860,320"/>
<polygon id="0x2043e70" class="l126d0" points="1860,400 1900,400 1900,560 1860,560"/>
<polygon id="0x2043f30" class="l126d0" points="1860,640 1900,640 1900,1120 1860,1120"/>
<polygon id="0x2043ff0" class="l126d0" points="1860,1280 1900,1280 1900,1360 1860,1360"/>
<polygon id="0x20fb4b0" class="l126d0" points="1940,80 1980,80 1980,480 1940,480"/>
<polygon id="0x20fb570" class="l126d0" points="1940,560 1980,560 1980,640 1940,640"/>
<polygon id="0x20fb630" class="l126d0" points="1940,880 1980,880 1980,960 1940,960"/>
<polygon id="0x1f86af0" class="l126d0" points="1940,1200 1980,1200 1980,1280 1940,1280"/>
<polygon id="0x1f86bb0" class="l189d4" points="0,0 2000,0 2000,1360 0,1360"/>
</g>
</svg>