<?xml version="1.0" encoding="UTF-8"?>
<svg xmlns="http://www.w3.org/2000/svg" xmlns:xlink="http://www.w3.org/1999/xlink" width="1760" height="1360" viewBox="-80 -1280 1760 1360">
<defs>
<style type="text/css">
.l126d0 {stroke: #E68FAC; fill: #E68FAC; fill-opacity: 0.5;}
.l189d4 {stroke: #A1CAF1; fill: #A1CAF1; fill-opacity: 0.5;}
</style>
</defs>
<rect x="-80" y="-1280" width="1760" height="1360" fill="#222222" stroke="none"/>
<g id="my_logo" transform="scale(1 -1)">
<polygon id="0x18cecd0" class="l126d0" points="0,20 80,20 80,60 0,60"/>
<polygon id="0x1911950" class="l126d0" points="160,20 240,20 240,60 160,60"/>
<polygon id="0x16da760" class="l126d0" points="560,20 640,20 640,60 560,60"/>
<polygon id="0x17fae50" class="l126d0" points="720,20 880,20 880,60 720,60"/>
<polygon id="0x18f85a0" class="l126d0" points="1040,20 1120,20 1120,60 1040,60"/>
<polygon id="0x19011d0" class="l126d0" points="1440,20 1520,20 1520,60 1440,60"/>
<polygon id="0x18f9990" class="l126d0" points="320,100 640,100 640,140 320,140"/>
<polygon id="0x18bf070" class="l126d0" points="720,100 880,100 880,140 720,140"/>
<polygon id="0x1a6c310" class="l126d0" points="1440,100 1600,100 1600,140 1440,140"/>
<polygon id="0x1a4b010" class="l126d0" points="80,180 160,180 160,220 80,220"/>
<polygon id="0x1a3cb80" class="l126d0" points="240,180 480,180 480,220 240,220"/>
<polygon id="0x17a9e70" class="l126d0" points="560,180 640,180 640,220 560,220"/>
<polygon id="0x1735110" class="l126d0" points="720,180 800,180 800,220 720,220"/>
<polygon id="0x1a268e0" class="l126d0" points="960,180 1040,180 1040,220 960,220"/>
<polygon id="0x1a58780" class="l126d0" points="1200,180 1440,180 1440,220 1200,220"/>
<polygon id="0x1901650" class="l126d0" points="1520,180 1600,180 1600,220 1520,220"/>
<polygon id="0x19e9e90" class="l126d0" points="240,260 320,260 320,300 240,300"/>
<polygon id="0x1a5d380" class="l126d0" points="400,260 560,260 560,300 400,300"/>
<polygon id="0x17c9ad0" class="l126d0" points="640,260 880,260 880,300 640,300"/>
<polygon id="0x1870320" class="l126d0" points="1040,260 1120,260 1120,300 1040,300"/>
<polygon id="0x1906970" class="l126d0" points="1200,260 1600,260 1600,300 1200,300"/>
<polygon id="0x17f9890" class="l126d0" points="0,340 160,340 160,380 0,380"/>
<polygon id="0x199bbd0" class="l126d0" points="400,340 560,340 560,380 400,380"/>
<polygon id="0x19c8bc0" class="l126d0" points="720,340 800,340 800,380 720,380"/>
<polygon id="0x1a0e8f0" class="l126d0" points="1040,340 1200,340 1200,380 1040,380"/>
<polygon id="0x19ef1e0" class="l126d0" points="1280,340 1360,340 1360,380 1280,380"/>
<polygon id="0x197a550" class="l126d0" points="1440,340 1600,340 1600,380 1440,380"/>
<polygon id="0x198eb30" class="l126d0" points="0,420 160,420 160,460 0,460"/>
<polygon id="0x19b7c40" class="l126d0" points="240,420 320,420 320,460 240,460"/>
<polygon id="0x1a2a050" class="l126d0" points="560,420 640,420 640,460 560,460"/>
<polygon id="0x1a39170" class="l126d0" points="720,420 1280,420 1280,460 720,460"/>
<polygon id="0x1a325f0" class="l126d0" points="1360,420 1600,420 1600,460 1360,460"/>
<polygon id="0x1a70c30" class="l126d0" points="0,500 80,500 80,540 0,540"/>
<polygon id="0x1840e70" class="l126d0" points="320,500 400,500 400,540 320,540"/>
<polygon id="0x18b61c0" class="l126d0" points="720,500 800,500 800,540 720,540"/>
<polygon id="0x18aa350" class="l126d0" points="880,500 1040,500 1040,540 880,540"/>
<polygon id="0x196c620" class="l126d0" points="1440,500 1600,500 1600,540 1440,540"/>
<polygon id="0x1971740" class="l126d0" points="0,580 80,580 80,620 0,620"/>
<polygon id="0x1a30a60" class="l126d0" points="160,580 240,580 240,620 160,620"/>
<polygon id="0x19f47f0" class="l126d0" points="640,580 720,580 720,620 640,620"/>
<polygon id="0x18669c0" class="l126d0" points="960,580 1120,580 1120,620 960,620"/>
<polygon id="0x18dd210" class="l126d0" points="80,660 400,660 400,700 80,700"/>
<polygon id="0x19ba890" class="l126d0" points="560,660 640,660 640,700 560,700"/>
<polygon id="0x19eb870" class="l126d0" points="720,660 800,660 800,700 720,700"/>
<polygon id="0x18dc410" class="l126d0" points="960,660 1280,660 1280,700 960,700"/>
<polygon id="0x19037e0" class="l126d0" points="1360,660 1440,660 1440,700 1360,700"/>
<polygon id="0x19d3950" class="l126d0" points="160,740 320,740 320,780 160,780"/>
<polygon id="0x19d39c0" class="l126d0" points="400,740 560,740 560,780 400,780"/>
<polygon id="0x19fb3b0" class="l126d0" points="640,740 800,740 800,780 640,780"/>
<polygon id="0x1a2c540" class="l126d0" points="880,740 960,740 960,780 880,780"/>
<polygon id="0x1a3ec30" class="l126d0" points="1040,740 1120,740 1120,780 1040,780"/>
<polygon id="0x1a3eca0" class="l126d0" points="1200,740 1280,740 1280,780 1200,780"/>
<polygon id="0x1a70340" class="l126d0" points="1360,740 1440,740 1440,780 1360,780"/>
<polygon id="0x1a973f0" class="l126d0" points="0,820 240,820 240,860 0,860"/>
<polygon id="0x183c3f0" class="l126d0" points="400,820 800,820 800,860 400,860"/>
<polygon id="0x183c460" class="l126d0" points="1200,820 1360,820 1360,860 1200,860"/>
<polygon id="0x18572a0" class="l126d0" points="1520,820 1600,820 1600,860 1520,860"/>
<polygon id="0x189a920" class="l126d0" points="0,900 160,900 160,940 0,940"/>
<polygon id="0x18feaf0" class="l126d0" points="240,900 320,900 320,940 240,940"/>
<polygon id="0x18db570" class="l126d0" points="400,900 480,900 480,940 400,940"/>
<polygon id="0x19aa0d0" class="l126d0" points="560,900 640,900 640,940 560,940"/>
<polygon id="0x1a1dba0" class="l126d0" points="720,900 800,900 800,940 720,940"/>
<polygon id="0x19dc2d0" class="l126d0" points="880,900 960,900 960,940 880,940"/>
<polygon id="0x1a48ed0" class="l126d0" points="1120,900 1200,900 1200,940 1120,940"/>
<polygon id="0x1a5feb0" class="l126d0" points="1280,900 1360,900 1360,940 1280,940"/>
<polygon id="0x1822ee0" class="l126d0" points="1440,900 1520,900 1520,940 1440,940"/>
<polygon id="0x1822fa0" class="l126d0" points="80,980 320,980 320,1020 80,1020"/>
<polygon id="0x1843d90" class="l126d0" points="400,980 560,980 560,1020 400,1020"/>
<polygon id="0x1843e50" class="l126d0" points="800,980 880,980 880,1020 800,1020"/>
<polygon id="0x185c080" class="l126d0" points="1040,980 1120,980 1120,1020 1040,1020"/>
<polygon id="0x185c140" class="l126d0" points="1440,980 1520,980 1520,1020 1440,1020"/>
<polygon id="0x188bb70" class="l126d0" points="400,1060 480,1060 480,1100 400,1100"/>
<polygon id="0x188bc30" class="l126d0" points="720,1060 800,1060 800,1100 720,1100"/>
<polygon id="0x18f8d10" class="l126d0" points="880,1060 960,1060 960,1100 880,1100"/>
<polygon id="0x18f8dd0" class="l126d0" points="1120,1060 1200,1060 1200,1100 1120,1100"/>
<polygon id="0x18ffe40" class="l126d0" points="1440,1060 1600,1060 1600,1100 1440,1100"/>
<polygon id="0x18fff00" class="l126d0" points="0,1140 80,1140 80,1180 0,1180"/>
<polygon id="0x1968910" class="l126d0" points="160,1140 320,1140 320,1180 160,1180"/>
<polygon id="0x19689d0" class="l126d0" points="400,1140 480,1140 480,1180 400,1180"/>
<polygon id="0x19cb490" class="l126d0" points="640,1140 720,1140 720,1180 640,1180"/>
<polygon id="0x19cb550" class="l126d0" points="880,1140 1040,1140 1040,1180 880,1180"/>
<polygon id="0x18fe780" class="l126d0" points="1280,1140 1360,1140 1360,1180 1280,1180"/>
<polygon id="0x18fe840" class="l126d0" points="20,80 60,80 60,320 20,320"/>
<polygon id="0x19b8dc0" class="l126d0" points="20,640 60,640 60,800 20,800"/>
<polygon id="0x1a37450" class="l126d0" points="20,960 60,960 60,1120 20,1120"/>
<polygon id="0x1a37510" class="l126d0" points="100,0 140,0 140,160 100,160"/>
<polygon id="0x1774f80" class="l126d0" points="100,240 140,240 140,320 100,320"/>
<polygon id="0x19b1640" class="l126d0" points="100,480 140,480 140,640 100,640"/>
<polygon id="0x19b1700" class="l126d0" points="100,720 140,720 140,800 100,800"/>
<polygon id="0x16c16b0" class="l126d0" points="100,1040 140,1040 140,1200 100,1200"/>
<polygon id="0x1a01870" class="l126d0" points="180,80 220,80 220,560 180,560"/>
<polygon id="0x1a01930" class="l126d0" points="180,880 220,880 220,960 180,960"/>
<polygon id="0x19e6b30" class="l126d0" points="180,1040 220,1040 220,1120 180,1120"/>
<polygon id="0x1a357c0" class="l126d0" points="260,0 300,0 300,160 260,160"/>
<polygon id="0x1a35880" class="l126d0" points="260,320 300,320 300,400 260,400"/>
<polygon id="0x180d2a0" class="l126d0" points="260,480 300,480 300,640 260,640"/>
<polygon id="0x182e250" class="l126d0" points="260,800 300,800 300,880 260,880"/>
<polygon id="0x182e2c0" class="l126d0" points="260,1040 300,1040 300,1120 260,1120"/>
<polygon id="0x18385e0" class="l126d0" points="340,0 380,0 380,80 340,80"/>
<polygon id="0x18386a0" class="l126d0" points="340,240 380,240 380,480 340,480"/>
<polygon id="0x19739f0" class="l126d0" points="340,560 380,560 380,640 340,640"/>
<polygon id="0x1989220" class="l126d0" points="340,720 380,720 380,1200 340,1200"/>
<polygon id="0x1989290" class="l126d0" points="420,0 460,0 460,80 420,80"/>
<polygon id="0x1a2fe70" class="l126d0" points="420,400 460,400 460,720 420,720"/>
<polygon id="0x1a2ff30" class="l126d0" points="500,0 540,0 540,80 500,80"/>
<polygon id="0x1748470" class="l126d0" points="500,160 540,160 540,240 500,240"/>
<polygon id="0x186d420" class="l126d0" points="500,400 540,400 540,720 500,720"/>
<polygon id="0x186d4e0" class="l126d0" points="500,880 540,880 540,960 500,960"/>
<polygon id="0x181ebe0" class="l126d0" points="500,1040 540,1040 540,1200 500,1200"/>
<polygon id="0x181eca0" class="l126d0" points="580,240 620,240 620,400 580,400"/>
<polygon id="0x18fdc90" class="l126d0" points="580,480 620,480 620,640 580,640"/>
<polygon id="0x18fd790" class="l126d0" points="580,720 620,720 620,800 580,800"/>
<polygon id="0x18fd850" class="l126d0" points="580,960 620,960 620,1200 580,1200"/>
<polygon id="0x1968f20" class="l126d0" points="660,0 700,0 700,240 660,240"/>
<polygon id="0x1968fe0" class="l126d0" points="660,320 700,320 700,560 660,560"/>
<polygon id="0x1977540" class="l126d0" points="660,640 700,640 700,720 660,720"/>
<polygon id="0x19d0f70" class="l126d0" points="660,880 700,880 700,1120 660,1120"/>
<polygon id="0x19d1030" class="l126d0" points="740,560 780,560 780,640 740,640"/>
<polygon id="0x1866e60" class="l126d0" points="740,960 780,960 780,1040 740,1040"/>
<polygon id="0x1866f20" class="l126d0" points="740,1120 780,1120 780,1200 740,1200"/>
<polygon id="0x1946890" class="l126d0" points="820,160 860,160 860,240 820,240"/>
<polygon id="0x1946950" class="l126d0" points="820,320 860,320 860,400 820,400"/>
<polygon id="0x19f4bc0" class="l126d0" points="820,480 860,480 860,960 820,960"/>
<polygon id="0x19f4c80" class="l126d0" points="820,1040 860,1040 860,1200 820,1200"/>
<polygon id="0x1a67410" class="l126d0" points="900,0 940,0 940,400 900,400"/>
<polygon id="0x1a674d0" class="l126d0" points="900,560 940,560 940,720 900,720"/>
<polygon id="0x1a6d500" class="l126d0" points="900,800 940,800 940,880 900,880"/>
<polygon id="0x1a6d5c0" class="l126d0" points="900,960 940,960 940,1040 900,1040"/>
<polygon id="0x186c430" class="l126d0" points="980,0 1020,0 1020,160 980,160"/>
<polygon id="0x186c4f0" class="l126d0" points="980,240 1020,240 1020,400 980,400"/>
<polygon id="0x18aac90" class="l126d0" points="980,720 1020,720 1020,1120 980,1120"/>
<polygon id="0x18aad50" class="l126d0" points="1060,80 1100,80 1100,240 1060,240"/>
<polygon id="0x18c49a0" class="l126d0" points="1060,480 1100,480 1100,560 1060,560"/>
<polygon id="0x18c4a60" class="l126d0" points="1060,800 1100,800 1100,960 1060,960"/>
<polygon id="0x18bb290" class="l126d0" points="1060,1040 1100,1040 1100,1200 1060,1200"/>
<polygon id="0x18bb350" class="l126d0" points="1140,0 1180,0 1180,320 1140,320"/>
<polygon id="0x19800e0" class="l126d0" points="1140,480 1180,480 1180,640 1140,640"/>
<polygon id="0x19801a0" class="l126d0" points="1140,720 1180,720 1180,880 1140,880"/>
<polygon id="0x19c6d60" class="l126d0" points="1140,960 1180,960 1180,1040 1140,1040"/>
<polygon id="0x19c6e20" class="l126d0" points="1140,1120 1180,1120 1180,1200 1140,1200"/>
<polygon id="0x17c91b0" class="l126d0" points="1220,0 1260,0 1260,160 1220,160"/>
<polygon id="0x17c9270" class="l126d0" points="1220,320 1260,320 1260,400 1220,400"/>
<polygon id="0x18159f0" class="l126d0" points="1220,480 1260,480 1260,640 1220,640"/>
<polygon id="0x1815ab0" class="l126d0" points="1220,880 1260,880 1260,1200 1220,1200"/>
<polygon id="0x18ac970" class="l126d0" points="1300,0 1340,0 1340,160 1300,160"/>
<polygon id="0x18aca30" class="l126d0" points="1300,400 1340,400 1340,800 1300,800"/>
<polygon id="0x1941050" class="l126d0" points="1300,960 1340,960 1340,1120 1300,1120"/>
<polygon id="0x1941110" class="l126d0" points="1380,0 1420,0 1420,160 1380,160"/>
<polygon id="0x19b2da0" class="l126d0" points="1380,320 1420,320 1420,400 1380,400"/>
<polygon id="0x19b2e60" class="l126d0" points="1380,480 1420,480 1420,640 1380,640"/>
<polygon id="0x198e350" class="l126d0" points="1380,800 1420,800 1420,1200 1380,1200"/>
<polygon id="0x198e410" class="l126d0" points="1460,160 1500,160 1500,240 1460,240"/>
<polygon id="0x19049c0" class="l126d0" points="1460,560 1500,560 1500,880 1460,880"/>
<polygon id="0x1904a80" class="l126d0" points="1460,1120 1500,1120 1500,1200 1460,1200"/>
<polygon id="0x1948fe0" class="l126d0" points="1540,0 1580,0 1580,80 1540,80"/>
<polygon id="0x19490a0" class="l126d0" points="1540,560 1580,560 1580,800 1540,800"/>
<polygon id="0x19c2110" class="l126d0" points="1540,880 1580,880 1580,1040 1540,1040"/>
<polygon id="0x19c21d0" class="l126d0" points="1540,1120 1580,1120 1580,1200 1540,1200"/>
<polygon id="0x1a4aa10" class="l189d4" points="0,0 300,0 300,300 0,300"/>
</g>
</svg>