<?xml version="1.0" encoding="UTF-8"?>
<svg xmlns="http://www.w3.org/2000/svg" xmlns:xlink="http://www.w3.org/1999/xlink" width="880" height="880" viewBox="-40 -840 880 880">
<defs>
<style type="text/css">
.l126d0 {stroke: #E68FAC; fill: #E68FAC; fill-opacity: 0.5;}
.l189d4 {stroke: #A1CAF1; fill: #A1CAF1; fill-opacity: 0.5;}
</style>
</defs>
<rect x="-40" y="-840" width="880" height="880" fill="#222222" stroke="none"/>
<g id="my_logo" transform="scale(1 -1)">
<polygon id="0x2cae480" class="l126d0" points="80,20 240,20 240,60 80,60"/>
<polygon id="0x2cb5060" class="l126d0" points="400,20 480,20 480,60 400,60"/>
<polygon id="0x2cc05a0" class="l126d0" points="0,100 240,100 240,140 0,140"/>
<polygon id="0x2d12560" class="l126d0" points="320,100 400,100 400,140 320,140"/>
<polygon id="0x2e1c480" class="l126d0" points="480,100 560,100 560,140 480,140"/>
<polygon id="0x2e6d410" class="l126d0" points="720,100 800,100 800,140 720,140"/>
<polygon id="0x2de1a60" class="l126d0" points="160,180 240,180 240,220 160,220"/>
<polygon id="0x2de3a70" class="l126d0" points="400,180 800,180 800,220 400,220"/>
<polygon id="0x2d6ece0" class="l126d0" points="0,260 80,260 80,300 0,300"/>
<polygon id="0x2e18530" class="l126d0" points="160,260 240,260 240,300 160,300"/>
<polygon id="0x2dfb5c0" class="l126d0" points="320,260 560,260 560,300 320,300"/>
<polygon id="0x2e70bd0" class="l126d0" points="720,260 800,260 800,300 720,300"/>
<polygon id="0x2e97030" class="l126d0" points="0,340 160,340 160,380 0,380"/>
<polygon id="0x2e26f50" class="l126d0" points="240,340 400,340 400,380 240,380"/>
<polygon id="0x2e419b0" class="l126d0" points="480,340 720,340 720,380 480,380"/>
<polygon id="0x2e59ab0" class="l126d0" points="0,420 80,420 80,460 0,460"/>
<polygon id="0x2e5cd50" class="l126d0" points="240,420 400,420 400,460 240,460"/>
<polygon id="0x2e030a0" class="l126d0" points="480,420 720,420 720,460 480,460"/>
<polygon id="0x2de5930" class="l126d0" points="80,500 240,500 240,540 80,540"/>
<polygon id="0x2deb030" class="l126d0" points="560,500 640,500 640,540 560,540"/>
<polygon id="0x2e2cdf0" class="l126d0" points="80,580 240,580 240,620 80,620"/>
<polygon id="0x2e3d560" class="l126d0" points="320,580 480,580 480,620 320,620"/>
<polygon id="0x2e30c30" class="l126d0" points="640,580 800,580 800,620 640,620"/>
<polygon id="0x2bc8a50" class="l126d0" points="160,660 400,660 400,700 160,700"/>
<polygon id="0x2c486d0" class="l126d0" points="480,660 720,660 720,700 480,700"/>
<polygon id="0x2c5b770" class="l126d0" points="0,740 160,740 160,780 0,780"/>
<polygon id="0x2c69e20" class="l126d0" points="240,740 400,740 400,780 240,780"/>
<polygon id="0x2bf8c50" class="l126d0" points="480,740 560,740 560,780 480,780"/>
<polygon id="0x2dc9ef0" class="l126d0" points="640,740 720,740 720,780 640,780"/>
<polygon id="0x2dfc790" class="l126d0" points="20,0 60,0 60,80 20,80"/>
<polygon id="0x2c742d0" class="l126d0" points="20,160 60,160 60,240 20,240"/>
<polygon id="0x2cae060" class="l126d0" points="20,480 60,480 60,720 20,720"/>
<polygon id="0x2cd2b40" class="l126d0" points="100,160 140,160 140,320 100,320"/>
<polygon id="0x2e8f880" class="l126d0" points="100,400 140,400 140,480 100,480"/>
<polygon id="0x2e8f940" class="l126d0" points="100,640 140,640 140,720 100,720"/>
<polygon id="0x2e8fa00" class="l126d0" points="180,320 220,320 220,480 180,480"/>
<polygon id="0x2e8fac0" class="l126d0" points="180,720 220,720 220,800 180,800"/>
<polygon id="0x2e8fb80" class="l126d0" points="260,0 300,0 300,320 260,320"/>
<polygon id="0x2e8fc40" class="l126d0" points="260,480 300,480 300,640 260,640"/>
<polygon id="0x2e8fd00" class="l126d0" points="340,0 380,0 380,80 340,80"/>
<polygon id="0x2e8fdc0" class="l126d0" points="340,160 380,160 380,240 340,240"/>
<polygon id="0x2e8fe80" class="l126d0" points="340,480 380,480 380,560 340,560"/>
<polygon id="0x2e8ff40" class="l126d0" points="420,80 460,80 460,160 420,160"/>
<polygon id="0x2e90000" class="l126d0" points="420,320 460,320 460,560 420,560"/>
<polygon id="0x2e900c0" class="l126d0" points="420,640 460,640 460,800 420,800"/>
<polygon id="0x2e90180" class="l126d0" points="500,0 540,0 540,80 500,80"/>
<polygon id="0x2e90240" class="l126d0" points="500,480 540,480 540,640 500,640"/>
<polygon id="0x2e90300" class="l126d0" points="580,0 620,0 620,160 580,160"/>
<polygon id="0x2e903c0" class="l126d0" points="580,240 620,240 620,320 580,320"/>
<polygon id="0x2e90480" class="l126d0" points="580,560 620,560 620,640 580,640"/>
<polygon id="0x2e90540" class="l126d0" points="580,720 620,720 620,800 580,800"/>
<polygon id="0x2e90600" class="l126d0" points="660,0 700,0 700,160 660,160"/>
<polygon id="0x2e906c0" class="l126d0" points="660,240 700,240 700,320 660,320"/>
<polygon id="0x2e90780" class="l126d0" points="660,480 700,480 700,560 660,560"/>
<polygon id="0x2e90840" class="l126d0" points="740,0 780,0 780,80 740,80"/>
<polygon id="0x2e90900" class="l126d0" points="740,320 780,320 780,560 740,560"/>
<polygon id="0x2e909c0" class="l126d0" points="740,640 780,640 780,800 740,800"/>
<polygon id="0x2e90a80" class="l189d4" points="0,0 800,0 800,800 0,800"/>
</g>
</svg>