<?xml version="1.0" encoding="UTF-8"?>
<svg xmlns="http://www.w3.org/2000/svg" xmlns:xlink="http://www.w3.org/1999/xlink" width="1760" height="1360" viewBox="-80 -1280 1760 1360">
<defs>
<style type="text/css">
.l5d1 {stroke: #F3C300; fill: #F3C300; fill-opacity: 0.5;}
.l1d1 {stroke: #8DB600; fill: #8DB600; fill-opacity: 0.5;}
.l126d0 {stroke: #E68FAC; fill: #E68FAC; fill-opacity: 0.5;}
.l189d4 {stroke: #A1CAF1; fill: #A1CAF1; fill-opacity: 0.5;}
</style>
</defs>
<rect x="-80" y="-1280" width="1760" height="1360" fill="#222222" stroke="none"/>
<g id="my_logo" transform="scale(1 -1)">
<polygon id="0x29d8490" class="l126d0" points="80,20 240,20 240,60 80,60"/>
<polygon id="0x2a2aa60" class="l126d0" points="400,20 720,20 720,60 400,60"/>
<polygon id="0x2912210" class="l126d0" points="800,20 880,20 880,60 800,60"/>
<polygon id="0x2842a00" class="l126d0" points="960,20 1280,20 1280,60 960,60"/>
<polygon id="0x2886800" class="l126d0" points="1360,20 1440,20 1440,60 1360,60"/>
<polygon id="0x2accd10" class="l126d0" points="0,100 80,100 80,140 0,140"/>
<polygon id="0x2b83990" class="l126d0" points="160,100 960,100 960,140 160,140"/>
<polygon id="0x2b85080" class="l126d0" points="1120,100 1280,100 1280,140 1120,140"/>
<polygon id="0x2b56510" class="l126d0" points="1360,100 1600,100 1600,140 1360,140"/>
<polygon id="0x2b03f80" class="l126d0" points="0,180 160,180 160,220 0,220"/>
<polygon id="0x2afc530" class="l126d0" points="240,180 640,180 640,220 240,220"/>
<polygon id="0x2adaf20" class="l126d0" points="880,180 1040,180 1040,220 880,220"/>
<polygon id="0x2addd20" class="l126d0" points="1120,180 1280,180 1280,220 1120,220"/>
<polygon id="0x2b494c0" class="l126d0" points="1360,180 1520,180 1520,220 1360,220"/>
<polygon id="0x2b88d00" class="l126d0" points="80,260 560,260 560,300 80,300"/>
<polygon id="0x2b32110" class="l126d0" points="720,260 800,260 800,300 720,300"/>
<polygon id="0x2b7ecb0" class="l126d0" points="880,260 960,260 960,300 880,300"/>
<polygon id="0x2982da0" class="l126d0" points="1120,260 1360,260 1360,300 1120,300"/>
<polygon id="0x2b02920" class="l126d0" points="1520,260 1600,260 1600,300 1520,300"/>
<polygon id="0x2b54290" class="l126d0" points="160,340 240,340 240,380 160,380"/>
<polygon id="0x28836d0" class="l126d0" points="320,340 400,340 400,380 320,380"/>
<polygon id="0x28e76a0" class="l126d0" points="480,340 560,340 560,380 480,380"/>
<polygon id="0x29897e0" class="l126d0" points="720,340 880,340 880,380 720,380"/>
<polygon id="0x2a1a750" class="l126d0" points="160,420 320,420 320,460 160,460"/>
<polygon id="0x2ab51c0" class="l126d0" points="400,420 480,420 480,460 400,460"/>
<polygon id="0x2b14060" class="l126d0" points="720,420 880,420 880,460 720,460"/>
<polygon id="0x2b46de0" class="l126d0" points="1120,420 1280,420 1280,460 1120,460"/>
<polygon id="0x2aa7b90" class="l126d0" points="1360,420 1440,420 1440,460 1360,460"/>
<polygon id="0x2aa7c00" class="l126d0" points="1520,420 1600,420 1600,460 1520,460"/>
<polygon id="0x2ad0d70" class="l126d0" points="0,500 160,500 160,540 0,540"/>
<polygon id="0x2b1d1e0" class="l126d0" points="320,500 480,500 480,540 320,540"/>
<polygon id="0x2b43350" class="l126d0" points="640,500 720,500 720,540 640,540"/>
<polygon id="0x2b44af0" class="l126d0" points="1280,500 1360,500 1360,540 1280,540"/>
<polygon id="0x2b59cc0" class="l126d0" points="1520,500 1600,500 1600,540 1520,540"/>
<polygon id="0x2b45b40" class="l126d0" points="0,580 160,580 160,620 0,620"/>
<polygon id="0x2b89ea0" class="l126d0" points="400,580 480,580 480,620 400,620"/>
<polygon id="0x2b90b50" class="l126d0" points="560,580 720,580 720,620 560,620"/>
<polygon id="0x2917e40" class="l126d0" points="960,580 1600,580 1600,620 960,620"/>
<polygon id="0x295a380" class="l126d0" points="0,660 320,660 320,700 0,700"/>
<polygon id="0x29cfa00" class="l126d0" points="560,660 720,660 720,700 560,700"/>
<polygon id="0x29c3b90" class="l126d0" points="800,660 880,660 880,700 800,700"/>
<polygon id="0x2a19060" class="l126d0" points="1040,660 1120,660 1120,700 1040,700"/>
<polygon id="0x2a85f00" class="l126d0" points="1200,660 1360,660 1360,700 1200,700"/>
<polygon id="0x2b20b80" class="l126d0" points="1440,660 1520,660 1520,700 1440,700"/>
<polygon id="0x2b16cf0" class="l126d0" points="240,740 320,740 320,780 240,780"/>
<polygon id="0x2b4c640" class="l126d0" points="400,740 640,740 640,780 400,780"/>
<polygon id="0x2b0e680" class="l126d0" points="720,740 1120,740 1120,780 720,780"/>
<polygon id="0x2b798a0" class="l126d0" points="1200,740 1280,740 1280,780 1200,780"/>
<polygon id="0x297a000" class="l126d0" points="1360,740 1520,740 1520,780 1360,780"/>
<polygon id="0x2ad3a40" class="l126d0" points="160,820 320,820 320,860 160,860"/>
<polygon id="0x2a15ce0" class="l126d0" points="400,820 480,820 480,860 400,860"/>
<polygon id="0x2993470" class="l126d0" points="640,820 720,820 720,860 640,860"/>
<polygon id="0x29aa2d0" class="l126d0" points="880,820 1120,820 1120,860 880,860"/>
<polygon id="0x29f54d0" class="l126d0" points="1280,820 1360,820 1360,860 1280,860"/>
<polygon id="0x29f5540" class="l126d0" points="0,900 160,900 160,940 0,940"/>
<polygon id="0x2ae1410" class="l126d0" points="320,900 560,900 560,940 320,940"/>
<polygon id="0x2aedd90" class="l126d0" points="640,900 720,900 720,940 640,940"/>
<polygon id="0x2b087e0" class="l126d0" points="1280,900 1360,900 1360,940 1280,940"/>
<polygon id="0x2b08850" class="l126d0" points="160,980 240,980 240,1020 160,1020"/>
<polygon id="0x2b53900" class="l126d0" points="320,980 400,980 400,1020 320,1020"/>
<polygon id="0x2b6eb00" class="l126d0" points="560,980 640,980 640,1020 560,1020"/>
<polygon id="0x2b89560" class="l126d0" points="720,980 800,980 800,1020 720,1020"/>
<polygon id="0x2b895d0" class="l126d0" points="880,980 1120,980 1120,1020 880,1020"/>
<polygon id="0x2bafea0" class="l126d0" points="1280,980 1440,980 1440,1020 1280,1020"/>
<polygon id="0x2955900" class="l126d0" points="1520,980 1600,980 1600,1020 1520,1020"/>
<polygon id="0x2970550" class="l126d0" points="0,1060 80,1060 80,1100 0,1100"/>
<polygon id="0x29705c0" class="l126d0" points="400,1060 560,1060 560,1100 400,1100"/>
<polygon id="0x297aaf0" class="l126d0" points="640,1060 800,1060 800,1100 640,1100"/>
<polygon id="0x298b500" class="l126d0" points="960,1060 1200,1060 1200,1100 960,1100"/>
<polygon id="0x29b4160" class="l126d0" points="1280,1060 1600,1060 1600,1100 1280,1100"/>
<polygon id="0x2a1b4a0" class="l126d0" points="80,1140 240,1140 240,1180 80,1180"/>
<polygon id="0x2a16900" class="l126d0" points="400,1140 480,1140 480,1180 400,1180"/>
<polygon id="0x29f2f60" class="l126d0" points="640,1140 720,1140 720,1180 640,1180"/>
<polygon id="0x2ac35e0" class="l126d0" points="800,1140 880,1140 880,1180 800,1180"/>
<polygon id="0x2b37070" class="l126d0" points="960,1140 1280,1140 1280,1180 960,1180"/>
<polygon id="0x2af6580" class="l126d0" points="1360,1140 1520,1140 1520,1180 1360,1180"/>
<polygon id="0x2b50770" class="l126d0" points="20,0 60,0 60,80 20,80"/>
<polygon id="0x2b63270" class="l126d0" points="20,240 60,240 60,480 20,480"/>
<polygon id="0x295d2a0" class="l126d0" points="20,720 60,720 60,880 20,880"/>
<polygon id="0x295d360" class="l126d0" points="20,960 60,960 60,1040 20,1040"/>
<polygon id="0x2975380" class="l126d0" points="20,1120 60,1120 60,1200 20,1200"/>
<polygon id="0x2975440" class="l126d0" points="100,80 140,80 140,160 100,160"/>
<polygon id="0x2a11e20" class="l126d0" points="100,320 140,320 140,480 100,480"/>
<polygon id="0x2a11ee0" class="l126d0" points="100,720 140,720 140,880 100,880"/>
<polygon id="0x2a0a900" class="l126d0" points="100,960 140,960 140,1120 100,1120"/>
<polygon id="0x2a0a9c0" class="l126d0" points="180,160 220,160 220,240 180,240"/>
<polygon id="0x2a821f0" class="l126d0" points="180,480 220,480 220,640 180,640"/>
<polygon id="0x2a822b0" class="l126d0" points="180,720 220,720 220,800 180,800"/>
<polygon id="0x2b86290" class="l126d0" points="180,880 220,880 220,960 180,960"/>
<polygon id="0x2b86350" class="l126d0" points="180,1040 220,1040 220,1120 180,1120"/>
<polygon id="0x29cd900" class="l126d0" points="260,0 300,0 300,80 260,80"/>
<polygon id="0x29cd9c0" class="l126d0" points="260,320 300,320 300,400 260,400"/>
<polygon id="0x2a16590" class="l126d0" points="260,480 300,480 300,640 260,640"/>
<polygon id="0x2a16650" class="l126d0" points="260,880 300,880 300,1200 260,1200"/>
<polygon id="0x2ad2580" class="l126d0" points="340,0 380,0 380,80 340,80"/>
<polygon id="0x2ad2640" class="l126d0" points="340,400 380,400 380,480 340,480"/>
<polygon id="0x2b28ce0" class="l126d0" points="340,560 380,560 380,880 340,880"/>
<polygon id="0x2b28da0" class="l126d0" points="340,1040 380,1040 380,1200 340,1200"/>
<polygon id="0x28860e0" class="l126d0" points="420,320 460,320 460,400 420,400"/>
<polygon id="0x28861a0" class="l126d0" points="420,640 460,640 460,720 420,720"/>
<polygon id="0x2b17e50" class="l126d0" points="420,960 460,960 460,1040 420,1040"/>
<polygon id="0x2b4ecf0" class="l126d0" points="500,400 540,400 540,720 500,720"/>
<polygon id="0x2b4edb0" class="l126d0" points="500,800 540,800 540,880 500,880"/>
<polygon id="0x29262d0" class="l126d0" points="500,960 540,960 540,1040 500,1040"/>
<polygon id="0x2947760" class="l126d0" points="500,1120 540,1120 540,1200 500,1200"/>
<polygon id="0x29477d0" class="l126d0" points="580,240 620,240 620,560 580,560"/>
<polygon id="0x2951af0" class="l126d0" points="580,800 620,800 620,960 580,960"/>
<polygon id="0x2951bb0" class="l126d0" points="580,1040 620,1040 620,1200 580,1200"/>
<polygon id="0x2a8d3f0" class="l126d0" points="660,160 700,160 700,480 660,480"/>
<polygon id="0x2adcd00" class="l126d0" points="660,720 700,720 700,800 660,800"/>
<polygon id="0x2adcd70" class="l126d0" points="660,960 700,960 700,1040 660,1040"/>
<polygon id="0x2b52190" class="l126d0" points="740,0 780,0 780,80 740,80"/>
<polygon id="0x2b52250" class="l126d0" points="740,160 780,160 780,240 740,240"/>
<polygon id="0x2b91800" class="l126d0" points="740,480 780,480 780,720 740,720"/>
<polygon id="0x2986930" class="l126d0" points="740,800 780,800 780,960 740,960"/>
<polygon id="0x29869a0" class="l126d0" points="740,1120 780,1120 780,1200 740,1200"/>
<polygon id="0x2937c90" class="l126d0" points="820,160 860,160 860,320 820,320"/>
<polygon id="0x2937d50" class="l126d0" points="820,480 860,480 860,640 820,640"/>
<polygon id="0x2a1bd50" class="l126d0" points="820,800 860,800 860,1120 820,1120"/>
<polygon id="0x2a14880" class="l126d0" points="900,0 940,0 940,80 900,80"/>
<polygon id="0x2a14940" class="l126d0" points="900,320 940,320 940,720 900,720"/>
<polygon id="0x2a82800" class="l126d0" points="900,880 940,880 940,960 900,960"/>
<polygon id="0x2a828c0" class="l126d0" points="900,1040 940,1040 940,1200 900,1200"/>
<polygon id="0x2a90f40" class="l126d0" points="980,80 1020,80 1020,160 980,160"/>
<polygon id="0x2aeb5d0" class="l126d0" points="980,240 1020,240 1020,560 980,560"/>
<polygon id="0x2aeb690" class="l126d0" points="980,640 1020,640 1020,720 980,720"/>
<polygon id="0x2b05640" class="l126d0" points="980,880 1020,880 1020,960 980,960"/>
<polygon id="0x2b05700" class="l126d0" points="1060,80 1100,80 1100,560 1060,560"/>
<polygon id="0x29801b0" class="l126d0" points="1060,880 1100,880 1100,960 1060,960"/>
<polygon id="0x2980270" class="l126d0" points="1140,320 1180,320 1180,400 1140,400"/>
<polygon id="0x29cc8e0" class="l126d0" points="1140,480 1180,480 1180,560 1140,560"/>
<polygon id="0x29cc9a0" class="l126d0" points="1140,640 1180,640 1180,1040 1140,1040"/>
<polygon id="0x2a60400" class="l126d0" points="1220,320 1260,320 1260,400 1220,400"/>
<polygon id="0x2a604c0" class="l126d0" points="1220,480 1260,480 1260,560 1220,560"/>
<polygon id="0x2af0490" class="l126d0" points="1220,800 1260,800 1260,1120 1220,1120"/>
<polygon id="0x2af0550" class="l126d0" points="1300,0 1340,0 1340,240 1300,240"/>
<polygon id="0x2b13c90" class="l126d0" points="1300,320 1340,320 1340,480 1300,480"/>
<polygon id="0x2b13d50" class="l126d0" points="1300,720 1340,720 1340,800 1300,800"/>
<polygon id="0x2b806d0" class="l126d0" points="1300,1120 1340,1120 1340,1200 1300,1200"/>
<polygon id="0x2b80790" class="l126d0" points="1380,240 1420,240 1420,400 1380,400"/>
<polygon id="0x2985990" class="l126d0" points="1380,480 1420,480 1420,560 1380,560"/>
<polygon id="0x2985a50" class="l126d0" points="1380,640 1420,640 1420,720 1380,720"/>
<polygon id="0x29c4520" class="l126d0" points="1380,800 1420,800 1420,960 1380,960"/>
<polygon id="0x29c45e0" class="l126d0" points="1460,0 1500,0 1500,80 1460,80"/>
<polygon id="0x2a97550" class="l126d0" points="1460,240 1500,240 1500,560 1460,560"/>
<polygon id="0x2a97610" class="l126d0" points="1460,800 1500,800 1500,1040 1460,1040"/>
<polygon id="0x2aa22f0" class="l126d0" points="1540,0 1580,0 1580,80 1540,80"/>
<polygon id="0x2aa23b0" class="l126d0" points="1540,160 1580,160 1580,240 1540,240"/>
<polygon id="0x29429f0" class="l126d0" points="1540,320 1580,320 1580,400 1540,400"/>
<polygon id="0x2942ab0" class="l126d0" points="1540,640 1580,640 1580,960 1540,960"/>
<polygon id="0x29ddba0" class="l126d0" points="1540,1120 1580,1120 1580,1200 1540,1200"/>
<polygon id="0x29ddc60" class="l189d4" points="0,0 300,0 300,300 0,300"/>
<polygon id="0x29d4df0" class="l1d1" points="10,10 70,10 70,70 10,70"/>
<polygon id="0x29d4eb0" class="l1d1" points="10,90 70,90 70,150 10,150"/>
<polygon id="0x2ae2880" class="l1d1" points="10,170 70,170 70,230 10,230"/>
<polygon id="0x2ae2940" class="l1d1" points="10,250 70,250 70,310 10,310"/>
<polygon id="0x2b76810" class="l1d1" points="10,330 70,330 70,390 10,390"/>
<polygon id="0x2b768d0" class="l1d1" points="10,410 70,410 70,470 10,470"/>
<polygon id="0x28e6e20" class="l1d1" points="10,490 70,490 70,550 10,550"/>
<polygon id="0x28e6ee0" class="l1d1" points="10,570 70,570 70,630 10,630"/>
<polygon id="0x2a5abc0" class="l1d1" points="10,650 70,650 70,710 10,710"/>
<polygon id="0x2a5ac80" class="l1d1" points="10,730 70,730 70,790 10,790"/>
<polygon id="0x2acbf20" class="l1d1" points="10,810 70,810 70,870 10,870"/>
<polygon id="0x2acbfe0" class="l1d1" points="10,890 70,890 70,950 10,950"/>
<polygon id="0x2a62b50" class="l1d1" points="10,970 70,970 70,1030 10,1030"/>
<polygon id="0x2a62c10" class="l1d1" points="10,1050 70,1050 70,1110 10,1110"/>
<polygon id="0x2afe400" class="l1d1" points="10,1130 70,1130 70,1190 10,1190"/>
<polygon id="0x2afe4c0" class="l1d1" points="90,10 150,10 150,70 90,70"/>
<polygon id="0x2982510" class="l1d1" points="90,90 150,90 150,150 90,150"/>
<polygon id="0x29825d0" class="l1d1" points="90,170 150,170 150,230 90,230"/>
<polygon id="0x2ae5180" class="l1d1" points="90,250 150,250 150,310 90,310"/>
<polygon id="0x2ae5240" class="l1d1" points="90,330 150,330 150,390 90,390"/>
<polygon id="0x2b27870" class="l1d1" points="90,410 150,410 150,470 90,470"/>
<polygon id="0x2b278e0" class="l1d1" points="90,490 150,490 150,550 90,550"/>
<polygon id="0x2b279a0" class="l1d1" points="90,570 150,570 150,630 90,630"/>
<polygon id="0x2b40f20" class="l1d1" points="90,650 150,650 150,710 90,710"/>
<polygon id="0x2b40fe0" class="l1d1" points="90,730 150,730 150,790 90,790"/>
<polygon id="0x299b7c0" class="l1d1" points="90,810 150,810 150,870 90,870"/>
<polygon id="0x299b880" class="l1d1" points="90,890 150,890 150,950 90,950"/>
<polygon id="0x2a28250" class="l1d1" points="90,970 150,970 150,1030 90,1030"/>
<polygon id="0x2a28310" class="l1d1" points="90,1050 150,1050 150,1110 90,1110"/>
<polygon id="0x2a1d840" class="l1d1" points="90,1130 150,1130 150,1190 90,1190"/>
<polygon id="0x2a1d900" class="l1d1" points="170,10 230,10 230,70 170,70"/>
<polygon id="0x2a8ec70" class="l1d1" points="170,90 230,90 230,150 170,150"/>
<polygon id="0x2a8ed30" class="l1d1" points="170,170 230,170 230,230 170,230"/>
<polygon id="0x2b3d940" class="l1d1" points="170,250 230,250 230,310 170,310"/>
<polygon id="0x2b3da00" class="l1d1" points="170,330 230,330 230,390 170,390"/>
<polygon id="0x2b5e870" class="l1d1" points="170,410 230,410 230,470 170,470"/>
<polygon id="0x2b5e930" class="l1d1" points="170,490 230,490 230,550 170,550"/>
<polygon id="0x28e7fd0" class="l1d1" points="170,570 230,570 230,630 170,630"/>
<polygon id="0x28e8090" class="l1d1" points="170,650 230,650 230,710 170,710"/>
<polygon id="0x2945de0" class="l1d1" points="170,730 230,730 230,790 170,790"/>
<polygon id="0x2945ea0" class="l1d1" points="170,810 230,810 230,870 170,870"/>
<polygon id="0x2945f60" class="l1d1" points="170,890 230,890 230,950 170,950"/>
<polygon id="0x29a52d0" class="l1d1" points="170,970 230,970 230,1030 170,1030"/>
<polygon id="0x29a5390" class="l1d1" points="170,1050 230,1050 230,1110 170,1110"/>
<polygon id="0x29a5450" class="l1d1" points="170,1130 230,1130 230,1190 170,1190"/>
<polygon id="0x29a7f10" class="l1d1" points="250,10 310,10 310,70 250,70"/>
<polygon id="0x29a7fd0" class="l1d1" points="250,90 310,90 310,150 250,150"/>
<polygon id="0x29a8090" class="l1d1" points="250,170 310,170 310,230 250,230"/>
<polygon id="0x29dca50" class="l1d1" points="250,250 310,250 310,310 250,310"/>
<polygon id="0x29dcb10" class="l1d1" points="250,330 310,330 310,390 250,390"/>
<polygon id="0x29dcbd0" class="l1d1" points="250,410 310,410 310,470 250,470"/>
<polygon id="0x29eb6d0" class="l1d1" points="250,490 310,490 310,550 250,550"/>
<polygon id="0x29eb790" class="l1d1" points="250,570 310,570 310,630 250,630"/>
<polygon id="0x29eb850" class="l1d1" points="250,650 310,650 310,710 250,710"/>
<polygon id="0x29f4da0" class="l1d1" points="250,730 310,730 310,790 250,790"/>
<polygon id="0x29f4e60" class="l1d1" points="250,810 310,810 310,870 250,870"/>
<polygon id="0x29f4f20" class="l1d1" points="250,890 310,890 310,950 250,950"/>
<polygon id="0x2aa2c70" class="l1d1" points="250,970 310,970 310,1030 250,1030"/>
<polygon id="0x2aa2d30" class="l1d1" points="250,1050 310,1050 310,1110 250,1110"/>
<polygon id="0x2aa2df0" class="l1d1" points="250,1130 310,1130 310,1190 250,1190"/>
<polygon id="0x2b11850" class="l1d1" points="330,10 390,10 390,70 330,70"/>
<polygon id="0x2b11910" class="l1d1" points="330,90 390,90 390,150 330,150"/>
<polygon id="0x2b119d0" class="l1d1" points="330,170 390,170 390,230 330,230"/>
<polygon id="0x29713b0" class="l1d1" points="330,250 390,250 390,310 330,310"/>
<polygon id="0x2971470" class="l1d1" points="330,330 390,330 390,390 330,390"/>
<polygon id="0x29f8b60" class="l1d1" points="330,410 390,410 390,470 330,470"/>
<polygon id="0x29f8c20" class="l1d1" points="330,490 390,490 390,550 330,550"/>
<polygon id="0x29f8ce0" class="l1d1" points="330,570 390,570 390,630 330,630"/>
<polygon id="0x2a11570" class="l1d1" points="330,650 390,650 390,710 330,710"/>
<polygon id="0x2a11630" class="l1d1" points="330,730 390,730 390,790 330,790"/>
<polygon id="0x29127e0" class="l1d1" points="330,810 390,810 390,870 330,870"/>
<polygon id="0x29128a0" class="l1d1" points="330,890 390,890 390,950 330,950"/>
<polygon id="0x2912960" class="l1d1" points="330,970 390,970 390,1030 330,1030"/>
<polygon id="0x2af8530" class="l1d1" points="330,1050 390,1050 390,1110 330,1110"/>
<polygon id="0x2af85f0" class="l1d1" points="330,1130 390,1130 390,1190 330,1190"/>
<polygon id="0x2b94b30" class="l1d1" points="410,10 470,10 470,70 410,70"/>
<polygon id="0x2b94bf0" class="l1d1" points="410,90 470,90 470,150 410,150"/>
<polygon id="0x2b94cb0" class="l1d1" points="410,170 470,170 470,230 410,230"/>
<polygon id="0x2bb1150" class="l1d1" points="410,250 470,250 470,310 410,310"/>
<polygon id="0x2bb1210" class="l1d1" points="410,330 470,330 470,390 410,390"/>
<polygon id="0x2bb12d0" class="l1d1" points="410,410 470,410 470,470 410,470"/>
<polygon id="0x2ba7d60" class="l1d1" points="410,490 470,490 470,550 410,550"/>
<polygon id="0x2ba7e20" class="l1d1" points="410,570 470,570 470,630 410,630"/>
<polygon id="0x2ba7ee0" class="l1d1" points="410,650 470,650 470,710 410,710"/>
<polygon id="0x2ba7fa0" class="l1d1" points="410,730 470,730 470,790 410,790"/>
<polygon id="0x2ba8060" class="l1d1" points="410,810 470,810 470,870 410,870"/>
<polygon id="0x2ba8120" class="l1d1" points="410,890 470,890 470,950 410,950"/>
<polygon id="0x2ba81e0" class="l1d1" points="410,970 470,970 470,1030 410,1030"/>
<polygon id="0x2ba82a0" class="l1d1" points="410,1050 470,1050 470,1110 410,1110"/>
<polygon id="0x2ba8360" class="l1d1" points="410,1130 470,1130 470,1190 410,1190"/>
<polygon id="0x2ba8420" class="l1d1" points="490,10 550,10 550,70 490,70"/>
<polygon id="0x2ba84e0" class="l1d1" points="490,90 550,90 550,150 490,150"/>
<polygon id="0x2ba85a0" class="l1d1" points="490,170 550,170 550,230 490,230"/>
<polygon id="0x2ba8660" class="l1d1" points="490,250 550,250 550,310 490,310"/>
<polygon id="0x2ba8720" class="l1d1" points="490,330 550,330 550,390 490,390"/>
<polygon id="0x2ba87e0" class="l1d1" points="490,410 550,410 550,470 490,470"/>
<polygon id="0x2ba88a0" class="l1d1" points="490,490 550,490 550,550 490,550"/>
<polygon id="0x2ba8960" class="l1d1" points="490,570 550,570 550,630 490,630"/>
<polygon id="0x2ba8a20" class="l1d1" points="490,650 550,650 550,710 490,710"/>
<polygon id="0x2ba8ae0" class="l1d1" points="490,730 550,730 550,790 490,790"/>
<polygon id="0x2ba8ba0" class="l1d1" points="490,810 550,810 550,870 490,870"/>
<polygon id="0x2ba8c60" class="l1d1" points="490,890 550,890 550,950 490,950"/>
<polygon id="0x2ba8d20" class="l1d1" points="490,970 550,970 550,1030 490,1030"/>
<polygon id="0x2ba8de0" class="l1d1" points="490,1050 550,1050 550,1110 490,1110"/>
<polygon id="0x2ba8ea0" class="l1d1" points="490,1130 550,1130 550,1190 490,1190"/>
<polygon id="0x2ba7550" class="l1d1" points="570,10 630,10 630,70 570,70"/>
<polygon id="0x2ba7610" class="l1d1" points="570,90 630,90 630,150 570,150"/>
<polygon id="0x2ba76d0" class="l1d1" points="570,170 630,170 630,230 570,230"/>
<polygon id="0x2ba7790" class="l1d1" points="570,250 630,250 630,310 570,310"/>
<polygon id="0x2ba7850" class="l1d1" points="570,330 630,330 630,390 570,390"/>
<polygon id="0x2ba7910" class="l1d1" points="570,410 630,410 630,470 570,470"/>
<polygon id="0x2ba79d0" class="l1d1" points="570,490 630,490 630,550 570,550"/>
<polygon id="0x2ba7a90" class="l1d1" points="570,570 630,570 630,630 570,630"/>
<polygon id="0x2ba7b50" class="l1d1" points="570,650 630,650 630,710 570,710"/>
<polygon id="0x2ba7c10" class="l1d1" points="570,730 630,730 630,790 570,790"/>
<polygon id="0x2ba7cd0" class="l1d1" points="570,810 630,810 630,870 570,870"/>
<polygon id="0x2ba9fc0" class="l1d1" points="570,890 630,890 630,950 570,950"/>
<polygon id="0x2baa080" class="l1d1" points="570,970 630,970 630,1030 570,1030"/>
<polygon id="0x2baa140" class="l1d1" points="570,1050 630,1050 630,1110 570,1110"/>
<polygon id="0x2baa200" class="l1d1" points="570,1130 630,1130 630,1190 570,1190"/>
<polygon id="0x2baa2c0" class="l1d1" points="650,10 710,10 710,70 650,70"/>
<polygon id="0x2baa380" class="l1d1" points="650,90 710,90 710,150 650,150"/>
<polygon id="0x2baa440" class="l1d1" points="650,170 710,170 710,230 650,230"/>
<polygon id="0x2baa500" class="l1d1" points="650,250 710,250 710,310 650,310"/>
<polygon id="0x2baa5c0" class="l1d1" points="650,330 710,330 710,390 650,390"/>
<polygon id="0x2baa680" class="l1d1" points="650,410 710,410 710,470 650,470"/>
<polygon id="0x2baa740" class="l1d1" points="650,490 710,490 710,550 650,550"/>
<polygon id="0x2baa800" class="l1d1" points="650,570 710,570 710,630 650,630"/>
<polygon id="0x2baa8c0" class="l1d1" points="650,650 710,650 710,710 650,710"/>
<polygon id="0x2baa980" class="l1d1" points="650,730 710,730 710,790 650,790"/>
<polygon id="0x2baaa40" class="l1d1" points="650,810 710,810 710,870 650,870"/>
<polygon id="0x2baab00" class="l1d1" points="650,890 710,890 710,950 650,950"/>
<polygon id="0x2baabc0" class="l1d1" points="650,970 710,970 710,1030 650,1030"/>
<polygon id="0x2baac80" class="l1d1" points="650,1050 710,1050 710,1110 650,1110"/>
<polygon id="0x2baad40" class="l1d1" points="650,1130 710,1130 710,1190 650,1190"/>
<polygon id="0x2baae00" class="l1d1" points="730,10 790,10 790,70 730,70"/>
<polygon id="0x2baaec0" class="l1d1" points="730,90 790,90 790,150 730,150"/>
<polygon id="0x2baaf80" class="l1d1" points="730,170 790,170 790,230 730,230"/>
<polygon id="0x2bab040" class="l1d1" points="730,250 790,250 790,310 730,310"/>
<polygon id="0x2bab100" class="l1d1" points="730,330 790,330 790,390 730,390"/>
<polygon id="0x2bab1c0" class="l1d1" points="730,410 790,410 790,470 730,470"/>
<polygon id="0x2bab280" class="l1d1" points="730,490 790,490 790,550 730,550"/>
<polygon id="0x2bab340" class="l1d1" points="730,570 790,570 790,630 730,630"/>
<polygon id="0x2bab400" class="l1d1" points="730,650 790,650 790,710 730,710"/>
<polygon id="0x2bab4c0" class="l1d1" points="730,730 790,730 790,790 730,790"/>
<polygon id="0x2bab580" class="l1d1" points="730,810 790,810 790,870 730,870"/>
<polygon id="0x2bab640" class="l1d1" points="730,890 790,890 790,950 730,950"/>
<polygon id="0x2bab700" class="l1d1" points="730,970 790,970 790,1030 730,1030"/>
<polygon id="0x2bab7c0" class="l1d1" points="730,1050 790,1050 790,1110 730,1110"/>
<polygon id="0x2bab880" class="l1d1" points="730,1130 790,1130 790,1190 730,1190"/>
<polygon id="0x2bab940" class="l1d1" points="810,10 870,10 870,70 810,70"/>
<polygon id="0x2baba00" class="l1d1" points="810,90 870,90 870,150 810,150"/>
<polygon id="0x2babac0" class="l1d1" points="810,170 870,170 870,230 810,230"/>
<polygon id="0x2babb80" class="l1d1" points="810,250 870,250 870,310 810,310"/>
<polygon id="0x2babc40" class="l1d1" points="810,330 870,330 870,390 810,390"/>
<polygon id="0x2babd00" class="l1d1" points="810,410 870,410 870,470 810,470"/>
<polygon id="0x2babdc0" class="l1d1" points="810,490 870,490 870,550 810,550"/>
<polygon id="0x2babe80" class="l1d1" points="810,570 870,570 870,630 810,630"/>
<polygon id="0x2babf40" class="l1d1" points="810,650 870,650 870,710 810,710"/>
<polygon id="0x2bac000" class="l1d1" points="810,730 870,730 870,790 810,790"/>
<polygon id="0x2bac0c0" class="l1d1" points="810,810 870,810 870,870 810,870"/>
<polygon id="0x2bac180" class="l1d1" points="810,890 870,890 870,950 810,950"/>
<polygon id="0x2bac240" class="l1d1" points="810,970 870,970 870,1030 810,1030"/>
<polygon id="0x2bac300" class="l1d1" points="810,1050 870,1050 870,1110 810,1110"/>
<polygon id="0x2bac3c0" class="l1d1" points="810,1130 870,1130 870,1190 810,1190"/>
<polygon id="0x2bac480" class="l1d1" points="890,10 950,10 950,70 890,70"/>
<polygon id="0x2bac540" class="l1d1" points="890,90 950,90 950,150 890,150"/>
<polygon id="0x2bac600" class="l1d1" points="890,170 950,170 950,230 890,230"/>
<polygon id="0x2bac6c0" class="l1d1" points="890,250 950,250 950,310 890,310"/>
<polygon id="0x2bac780" class="l1d1" points="890,330 950,330 950,390 890,390"/>
<polygon id="0x2bac840" class="l1d1" points="890,410 950,410 950,470 890,470"/>
<polygon id="0x2bac900" class="l1d1" points="890,490 950,490 950,550 890,550"/>
<polygon id="0x2bac9c0" class="l1d1" points="890,570 950,570 950,630 890,630"/>
<polygon id="0x2baca80" class="l1d1" points="890,650 950,650 950,710 890,710"/>
<polygon id="0x2bacb40" class="l1d1" points="890,730 950,730 950,790 890,790"/>
<polygon id="0x2bacc00" class="l1d1" points="890,810 950,810 950,870 890,870"/>
<polygon id="0x2baccc0" class="l1d1" points="890,890 950,890 950,950 890,950"/>
<polygon id="0x2bacd80" class="l1d1" points="890,970 950,970 950,1030 890,1030"/>
<polygon id="0x2bace40" class="l1d1" points="890,1050 950,1050 950,1110 890,1110"/>
<polygon id="0x2bacf00" class="l1d1" points="890,1130 950,1130 950,1190 890,1190"/>
<polygon id="0x2bacfc0" class="l1d1" points="970,10 1030,10 1030,70 970,70"/>
<polygon id="0x2bad080" class="l1d1" points="970,90 1030,90 1030,150 970,150"/>
<polygon id="0x2bad140" class="l1d1" points="970,170 1030,170 1030,230 970,230"/>
<polygon id="0x2bad200" class="l1d1" points="970,250 1030,250 1030,310 970,310"/>
<polygon id="0x2bad2c0" class="l1d1" points="970,330 1030,330 1030,390 970,390"/>
<polygon id="0x2bad380" class="l1d1" points="970,410 1030,410 1030,470 970,470"/>
<polygon id="0x2bad440" class="l1d1" points="970,490 1030,490 1030,550 970,550"/>
<polygon id="0x2bad500" class="l1d1" points="970,570 1030,570 1030,630 970,630"/>
<polygon id="0x2bad5c0" class="l1d1" points="970,650 1030,650 1030,710 970,710"/>
<polygon id="0x2bad680" class="l1d1" points="970,730 1030,730 1030,790 970,790"/>
<polygon id="0x2bad740" class="l1d1" points="970,810 1030,810 1030,870 970,870"/>
<polygon id="0x2bad800" class="l1d1" points="970,890 1030,890 1030,950 970,950"/>
<polygon id="0x2bad8c0" class="l1d1" points="970,970 1030,970 1030,1030 970,1030"/>
<polygon id="0x2bad980" class="l1d1" points="970,1050 1030,1050 1030,1110 970,1110"/>
<polygon id="0x2bada40" class="l1d1" points="970,1130 1030,1130 1030,1190 970,1190"/>
<polygon id="0x2badb00" class="l1d1" points="1050,10 1110,10 1110,70 1050,70"/>
<polygon id="0x2badbc0" class="l1d1" points="1050,90 1110,90 1110,150 1050,150"/>
<polygon id="0x2badc80" class="l1d1" points="1050,170 1110,170 1110,230 1050,230"/>
<polygon id="0x2badd40" class="l1d1" points="1050,250 1110,250 1110,310 1050,310"/>
<polygon id="0x2bade00" class="l1d1" points="1050,330 1110,330 1110,390 1050,390"/>
<polygon id="0x2badec0" class="l1d1" points="1050,410 1110,410 1110,470 1050,470"/>
<polygon id="0x2badf80" class="l1d1" points="1050,490 1110,490 1110,550 1050,550"/>
<polygon id="0x2bae040" class="l1d1" points="1050,570 1110,570 1110,630 1050,630"/>
<polygon id="0x2bae100" class="l1d1" points="1050,650 1110,650 1110,710 1050,710"/>
<polygon id="0x2bae1c0" class="l1d1" points="1050,730 1110,730 1110,790 1050,790"/>
<polygon id="0x2bae280" class="l1d1" points="1050,810 1110,810 1110,870 1050,870"/>
<polygon id="0x2bae340" class="l1d1" points="1050,890 1110,890 1110,950 1050,950"/>
<polygon id="0x2bae400" class="l1d1" points="1050,970 1110,970 1110,1030 1050,1030"/>
<polygon id="0x2bae4c0" class="l1d1" points="1050,1050 1110,1050 1110,1110 1050,1110"/>
<polygon id="0x2bae580" class="l1d1" points="1050,1130 1110,1130 1110,1190 1050,1190"/>
<polygon id="0x2bae640" class="l1d1" points="1130,10 1190,10 1190,70 1130,70"/>
<polygon id="0x2bae700" class="l1d1" points="1130,90 1190,90 1190,150 1130,150"/>
<polygon id="0x2bae7c0" class="l1d1" points="1130,170 1190,170 1190,230 1130,230"/>
<polygon id="0x2bb1710" class="l1d1" points="1130,250 1190,250 1190,310 1130,310"/>
<polygon id="0x2bb17d0" class="l1d1" points="1130,330 1190,330 1190,390 1130,390"/>
<polygon id="0x2bb1890" class="l1d1" points="1130,410 1190,410 1190,470 1130,470"/>
<polygon id="0x2bb1950" class="l1d1" points="1130,490 1190,490 1190,550 1130,550"/>
<polygon id="0x2bb1a10" class="l1d1" points="1130,570 1190,570 1190,630 1130,630"/>
<polygon id="0x2bb1ad0" class="l1d1" points="1130,650 1190,650 1190,710 1130,710"/>
<polygon id="0x2bb1b90" class="l1d1" points="1130,730 1190,730 1190,790 1130,790"/>
<polygon id="0x2bb1c50" class="l1d1" points="1130,810 1190,810 1190,870 1130,870"/>
<polygon id="0x2bb1d10" class="l1d1" points="1130,890 1190,890 1190,950 1130,950"/>
<polygon id="0x2bb1dd0" class="l1d1" points="1130,970 1190,970 1190,1030 1130,1030"/>
<polygon id="0x2bb1e90" class="l1d1" points="1130,1050 1190,1050 1190,1110 1130,1110"/>
<polygon id="0x2bb1f50" class="l1d1" points="1130,1130 1190,1130 1190,1190 1130,1190"/>
<polygon id="0x2bb2010" class="l1d1" points="1210,10 1270,10 1270,70 1210,70"/>
<polygon id="0x2bb20d0" class="l1d1" points="1210,90 1270,90 1270,150 1210,150"/>
<polygon id="0x2bb2190" class="l1d1" points="1210,170 1270,170 1270,230 1210,230"/>
<polygon id="0x2bb2250" class="l1d1" points="1210,250 1270,250 1270,310 1210,310"/>
<polygon id="0x2bb2310" class="l1d1" points="1210,330 1270,330 1270,390 1210,390"/>
<polygon id="0x2bb23d0" class="l1d1" points="1210,410 1270,410 1270,470 1210,470"/>
<polygon id="0x2bb2490" class="l1d1" points="1210,490 1270,490 1270,550 1210,550"/>
<polygon id="0x2bb2550" class="l1d1" points="1210,570 1270,570 1270,630 1210,630"/>
<polygon id="0x2bb2610" class="l1d1" points="1210,650 1270,650 1270,710 1210,710"/>
<polygon id="0x2bb26d0" class="l1d1" points="1210,730 1270,730 1270,790 1210,790"/>
<polygon id="0x2bb2790" class="l1d1" points="1210,810 1270,810 1270,870 1210,870"/>
<polygon id="0x2bb2850" class="l1d1" points="1210,890 1270,890 1270,950 1210,950"/>
<polygon id="0x2bb2910" class="l1d1" points="1210,970 1270,970 1270,1030 1210,1030"/>
<polygon id="0x2bb29d0" class="l1d1" points="1210,1050 1270,1050 1270,1110 1210,1110"/>
<polygon id="0x2bb2a90" class="l1d1" points="1210,1130 1270,1130 1270,1190 1210,1190"/>
<polygon id="0x2bb2b50" class="l1d1" points="1290,10 1350,10 1350,70 1290,70"/>
<polygon id="0x2bb2c10" class="l1d1" points="1290,90 1350,90 1350,150 1290,150"/>
<polygon id="0x2bb2cd0" class="l1d1" points="1290,170 1350,170 1350,230 1290,230"/>
<polygon id="0x2bb2d90" class="l1d1" points="1290,250 1350,250 1350,310 1290,310"/>
<polygon id="0x2bb2e50" class="l1d1" points="1290,330 1350,330 1350,390 1290,390"/>
<polygon id="0x2bb2f10" class="l1d1" points="1290,410 1350,410 1350,470 1290,470"/>
<polygon id="0x2bb2fd0" class="l1d1" points="1290,490 1350,490 1350,550 1290,550"/>
<polygon id="0x2bb3090" class="l1d1" points="1290,570 1350,570 1350,630 1290,630"/>
<polygon id="0x2bb3150" class="l1d1" points="1290,650 1350,650 1350,710 1290,710"/>
<polygon id="0x2bb3210" class="l1d1" points="1290,730 1350,730 1350,790 1290,790"/>
<polygon id="0x2bb32d0" class="l1d1" points="1290,810 1350,810 1350,870 1290,870"/>
<polygon id="0x2bb3390" class="l1d1" points="1290,890 1350,890 1350,950 1290,950"/>
<polygon id="0x2bb3450" class="l1d1" points="1290,970 1350,970 1350,1030 1290,1030"/>
<polygon id="0x2bb3510" class="l1d1" points="1290,1050 1350,1050 1350,1110 1290,1110"/>
<polygon id="0x2bb35d0" class="l1d1" points="1290,1130 1350,1130 1350,1190 1290,1190"/>
<polygon id="0x2bb3690" class="l1d1" points="1370,10 1430,10 1430,70 1370,70"/>
<polygon id="0x2bb3750" class="l1d1" points="1370,90 1430,90 1430,150 1370,150"/>
<polygon id="0x2bb3810" class="l1d1" points="1370,170 1430,170 1430,230 1370,230"/>
<polygon id="0x2bb38d0" class="l1d1" points="1370,250 1430,250 1430,310 1370,310"/>
<polygon id="0x2bb3990" class="l1d1" points="1370,330 1430,330 1430,390 1370,390"/>
<polygon id="0x2bb3a50" class="l1d1" points="1370,410 1430,410 1430,470 1370,470"/>
<polygon id="0x2bb3b10" class="l1d1" points="1370,490 1430,490 1430,550 1370,550"/>
<polygon id="0x2bb3bd0" class="l1d1" points="1370,570 1430,570 1430,630 1370,630"/>
<polygon id="0x2bb3c90" class="l1d1" points="1370,650 1430,650 1430,710 1370,710"/>
<polygon id="0x2bb3d50" class="l1d1" points="1370,730 1430,730 1430,790 1370,790"/>
<polygon id="0x2bb3e10" class="l1d1" points="1370,810 1430,810 1430,870 1370,870"/>
<polygon id="0x2bb3ed0" class="l1d1" points="1370,890 1430,890 1430,950 1370,950"/>
<polygon id="0x2bb3f90" class="l1d1" points="1370,970 1430,970 1430,1030 1370,1030"/>
<polygon id="0x2bb4050" class="l1d1" points="1370,1050 1430,1050 1430,1110 1370,1110"/>
<polygon id="0x2bb4110" class="l1d1" points="1370,1130 1430,1130 1430,1190 1370,1190"/>
<polygon id="0x2bb41d0" class="l1d1" points="1450,10 1510,10 1510,70 1450,70"/>
<polygon id="0x2bb4290" class="l1d1" points="1450,90 1510,90 1510,150 1450,150"/>
<polygon id="0x2bb4350" class="l1d1" points="1450,170 1510,170 1510,230 1450,230"/>
<polygon id="0x2bb4410" class="l1d1" points="1450,250 1510,250 1510,310 1450,310"/>
<polygon id="0x2bb44d0" class="l1d1" points="1450,330 1510,330 1510,390 1450,390"/>
<polygon id="0x2bb4590" class="l1d1" points="1450,410 1510,410 1510,470 1450,470"/>
<polygon id="0x2bb4650" class="l1d1" points="1450,490 1510,490 1510,550 1450,550"/>
<polygon id="0x2bb4710" class="l1d1" points="1450,570 1510,570 1510,630 1450,630"/>
<polygon id="0x2bb47d0" class="l1d1" points="1450,650 1510,650 1510,710 1450,710"/>
<polygon id="0x2bb4890" class="l1d1" points="1450,730 1510,730 1510,790 1450,790"/>
<polygon id="0x2bb4950" class="l1d1" points="1450,810 1510,810 1510,870 1450,870"/>
<polygon id="0x2bb4a10" class="l1d1" points="1450,890 1510,890 1510,950 1450,950"/>
<polygon id="0x2bb4ad0" class="l1d1" points="1450,970 1510,970 1510,1030 1450,1030"/>
<polygon id="0x2bb4b90" class="l1d1" points="1450,1050 1510,1050 1510,1110 1450,1110"/>
<polygon id="0x2bb4c50" class="l1d1" points="1450,1130 1510,1130 1510,1190 1450,1190"/>
<polygon id="0x2bb4d10" class="l1d1" points="1530,10 1590,10 1590,70 1530,70"/>
<polygon id="0x2bb4dd0" class="l1d1" points="1530,90 1590,90 1590,150 1530,150"/>
<polygon id="0x2bb4e90" class="l1d1" points="1530,170 1590,170 1590,230 1530,230"/>
<polygon id="0x2bb4f50" class="l1d1" points="1530,250 1590,250 1590,310 1530,310"/>
<polygon id="0x2bb5010" class="l1d1" points="1530,330 1590,330 1590,390 1530,390"/>
<polygon id="0x2bb50d0" class="l1d1" points="1530,410 1590,410 1590,470 1530,470"/>
<polygon id="0x2bb5190" class="l1d1" points="1530,490 1590,490 1590,550 1530,550"/>
<polygon id="0x2bb5250" class="l1d1" points="1530,570 1590,570 1590,630 1530,630"/>
<polygon id="0x2bb5310" class="l1d1" points="1530,650 1590,650 1590,710 1530,710"/>
<polygon id="0x2bb53d0" class="l1d1" points="1530,730 1590,730 1590,790 1530,790"/>
<polygon id="0x2bb5490" class="l1d1" points="1530,810 1590,810 1590,870 1530,870"/>
<polygon id="0x2bb5550" class="l1d1" points="1530,890 1590,890 1590,950 1530,950"/>
<polygon id="0x2bb5610" class="l1d1" points="1530,970 1590,970 1590,1030 1530,1030"/>
<polygon id="0x2bb56d0" class="l1d1" points="1530,1050 1590,1050 1590,1110 1530,1110"/>
<polygon id="0x2bb5790" class="l1d1" points="1530,1130 1590,1130 1590,1190 1530,1190"/>
<polygon id="0x2bb5850" class="l5d1" points="10,10 70,10 70,70 10,70"/>
<polygon id="0x2bb5910" class="l5d1" points="10,90 70,90 70,150 10,150"/>
<polygon id="0x2bb59d0" class="l5d1" points="10,170 70,170 70,230 10,230"/>
<polygon id="0x2bb5a90" class="l5d1" points="10,250 70,250 70,310 10,310"/>
<polygon id="0x2bb5b50" class="l5d1" points="10,330 70,330 70,390 10,390"/>
<polygon id="0x2bb5c10" class="l5d1" points="10,410 70,410 70,470 10,470"/>
<polygon id="0x2bb5cd0" class="l5d1" points="10,490 70,490 70,550 10,550"/>
<polygon id="0x2bb5d90" class="l5d1" points="10,570 70,570 70,630 10,630"/>
<polygon id="0x2bb5e50" class="l5d1" points="10,650 70,650 70,710 10,710"/>
<polygon id="0x2bb5f10" class="l5d1" points="10,730 70,730 70,790 10,790"/>
<polygon id="0x2bb5fd0" class="l5d1" points="10,810 70,810 70,870 10,870"/>
<polygon id="0x2bb6090" class="l5d1" points="10,890 70,890 70,950 10,950"/>
<polygon id="0x2bb6150" class="l5d1" points="10,970 70,970 70,1030 10,1030"/>
<polygon id="0x2bb6210" class="l5d1" points="10,1050 70,1050 70,1110 10,1110"/>
<polygon id="0x2bb62d0" class="l5d1" points="10,1130 70,1130 70,1190 10,1190"/>
<polygon id="0x2bb6390" class="l5d1" points="90,10 150,10 150,70 90,70"/>
<polygon id="0x2bb6450" class="l5d1" points="90,90 150,90 150,150 90,150"/>
<polygon id="0x2bb6510" class="l5d1" points="90,170 150,170 150,230 90,230"/>
<polygon id="0x2bb65d0" class="l5d1" points="90,250 150,250 150,310 90,310"/>
<polygon id="0x2bb6690" class="l5d1" points="90,330 150,330 150,390 90,390"/>
<polygon id="0x2bb6750" class="l5d1" points="90,410 150,410 150,470 90,470"/>
<polygon id="0x2bb6810" class="l5d1" points="90,490 150,490 150,550 90,550"/>
<polygon id="0x2bb68d0" class="l5d1" points="90,570 150,570 150,630 90,630"/>
<polygon id="0x2bb6990" class="l5d1" points="90,650 150,650 150,710 90,710"/>
<polygon id="0x2bb6a50" class="l5d1" points="90,730 150,730 150,790 90,790"/>
<polygon id="0x2bb6b10" class="l5d1" points="90,810 150,810 150,870 90,870"/>
<polygon id="0x2bb6bd0" class="l5d1" points="90,890 150,890 150,950 90,950"/>
<polygon id="0x2bb6c90" class="l5d1" points="90,970 150,970 150,1030 90,1030"/>
<polygon id="0x2bb6d50" class="l5d1" points="90,1050 150,1050 150,1110 90,1110"/>
<polygon id="0x2bb6e10" class="l5d1" points="90,1130 150,1130 150,1190 90,1190"/>
<polygon id="0x2bb6ed0" class="l5d1" points="170,10 230,10 230,70 170,70"/>
<polygon id="0x2bb6f90" class="l5d1" points="170,90 230,90 230,150 170,150"/>
<polygon id="0x2bb7050" class="l5d1" points="170,170 230,170 230,230 170,230"/>
<polygon id="0x2bb7110" class="l5d1" points="170,250 230,250 230,310 170,310"/>
<polygon id="0x2bb71d0" class="l5d1" points="170,330 230,330 230,390 170,390"/>
<polygon id="0x2bb7290" class="l5d1" points="170,410 230,410 230,470 170,470"/>
<polygon id="0x2bb7350" class="l5d1" points="170,490 230,490 230,550 170,550"/>
<polygon id="0x2bb7410" class="l5d1" points="170,570 230,570 230,630 170,630"/>
<polygon id="0x2bb74d0" class="l5d1" points="170,650 230,650 230,710 170,710"/>
<polygon id="0x2bb7590" class="l5d1" points="170,730 230,730 230,790 170,790"/>
<polygon id="0x2bb7650" class="l5d1" points="170,810 230,810 230,870 170,870"/>
<polygon id="0x2bb7710" class="l5d1" points="170,890 230,890 230,950 170,950"/>
<polygon id="0x2bb77d0" class="l5d1" points="170,970 230,970 230,1030 170,1030"/>
<polygon id="0x2bb7890" class="l5d1" points="170,1050 230,1050 230,1110 170,1110"/>
<polygon id="0x2bb7950" class="l5d1" points="170,1130 230,1130 230,1190 170,1190"/>
<polygon id="0x2bb7a10" class="l5d1" points="250,10 310,10 310,70 250,70"/>
<polygon id="0x2bb7ad0" class="l5d1" points="250,90 310,90 310,150 250,150"/>
<polygon id="0x2bb7b90" class="l5d1" points="250,170 310,170 310,230 250,230"/>
<polygon id="0x2bb7c50" class="l5d1" points="250,250 310,250 310,310 250,310"/>
<polygon id="0x2bb7d10" class="l5d1" points="250,330 310,330 310,390 250,390"/>
<polygon id="0x2bb7dd0" class="l5d1" points="250,410 310,410 310,470 250,470"/>
<polygon id="0x2bb7e90" class="l5d1" points="250,490 310,490 310,550 250,550"/>
<polygon id="0x2bb7f50" class="l5d1" points="250,570 310,570 310,630 250,630"/>
<polygon id="0x2bb8010" class="l5d1" points="250,650 310,650 310,710 250,710"/>
<polygon id="0x2bb80d0" class="l5d1" points="250,730 310,730 310,790 250,790"/>
<polygon id="0x2bb8190" class="l5d1" points="250,810 310,810 310,870 250,870"/>
<polygon id="0x2bb8250" class="l5d1" points="250,890 310,890 310,950 250,950"/>
<polygon id="0x2bb8310" class="l5d1" points="250,970 310,970 310,1030 250,1030"/>
<polygon id="0x2bb83d0" class="l5d1" points="250,1050 310,1050 310,1110 250,1110"/>
<polygon id="0x2bb8490" class="l5d1" points="250,1130 310,1130 310,1190 250,1190"/>
<polygon id="0x2bb8550" class="l5d1" points="330,10 390,10 390,70 330,70"/>
<polygon id="0x2ba8f60" class="l5d1" points="330,90 390,90 390,150 330,150"/>
<polygon id="0x2ba9020" class="l5d1" points="330,170 390,170 390,230 330,230"/>
<polygon id="0x2ba90e0" class="l5d1" points="330,250 390,250 390,310 330,310"/>
<polygon id="0x2ba91a0" class="l5d1" points="330,330 390,330 390,390 330,390"/>
<polygon id="0x2ba9260" class="l5d1" points="330,410 390,410 390,470 330,470"/>
<polygon id="0x2ba9320" class="l5d1" points="330,490 390,490 390,550 330,550"/>
<polygon id="0x2ba93e0" class="l5d1" points="330,570 390,570 390,630 330,630"/>
<polygon id="0x2ba94a0" class="l5d1" points="330,650 390,650 390,710 330,710"/>
<polygon id="0x2ba9560" class="l5d1" points="330,730 390,730 390,790 330,790"/>
<polygon id="0x2ba9620" class="l5d1" points="330,810 390,810 390,870 330,870"/>
<polygon id="0x2ba96e0" class="l5d1" points="330,890 390,890 390,950 330,950"/>
<polygon id="0x2ba97a0" class="l5d1" points="330,970 390,970 390,1030 330,1030"/>
<polygon id="0x2ba9860" class="l5d1" points="330,1050 390,1050 390,1110 330,1110"/>
<polygon id="0x2ba9920" class="l5d1" points="330,1130 390,1130 390,1190 330,1190"/>
<polygon id="0x2ba99e0" class="l5d1" points="410,10 470,10 470,70 410,70"/>
<polygon id="0x2ba9aa0" class="l5d1" points="410,90 470,90 470,150 410,150"/>
<polygon id="0x2ba9b60" class="l5d1" points="410,170 470,170 470,230 410,230"/>
<polygon id="0x2ba9c20" class="l5d1" points="410,250 470,250 470,310 410,310"/>
<polygon id="0x2ba9ce0" class="l5d1" points="410,330 470,330 470,390 410,390"/>
<polygon id="0x2ba9da0" class="l5d1" points="410,410 470,410 470,470 410,470"/>
<polygon id="0x2ba9e60" class="l5d1" points="410,490 470,490 470,550 410,550"/>
<polygon id="0x2bba620" class="l5d1" points="410,570 470,570 470,630 410,630"/>
<polygon id="0x2bba690" class="l5d1" points="410,650 470,650 470,710 410,710"/>
<polygon id="0x2bba750" class="l5d1" points="410,730 470,730 470,790 410,790"/>
<polygon id="0x2bba810" class="l5d1" points="410,810 470,810 470,870 410,870"/>
<polygon id="0x2bba8d0" class="l5d1" points="410,890 470,890 470,950 410,950"/>
<polygon id="0x2bba990" class="l5d1" points="410,970 470,970 470,1030 410,1030"/>
<polygon id="0x2bbaa50" class="l5d1" points="410,1050 470,1050 470,1110 410,1110"/>
<polygon id="0x2bbab10" class="l5d1" points="410,1130 470,1130 470,1190 410,1190"/>
<polygon id="0x2bbabd0" class="l5d1" points="490,10 550,10 550,70 490,70"/>
<polygon id="0x2bbac90" class="l5d1" points="490,90 550,90 550,150 490,150"/>
<polygon id="0x2bbad50" class="l5d1" points="490,170 550,170 550,230 490,230"/>
<polygon id="0x2bbae10" class="l5d1" points="490,250 550,250 550,310 490,310"/>
<polygon id="0x2bbaed0" class="l5d1" points="490,330 550,330 550,390 490,390"/>
<polygon id="0x2bbaf90" class="l5d1" points="490,410 550,410 550,470 490,470"/>
<polygon id="0x2bbb050" class="l5d1" points="490,490 550,490 550,550 490,550"/>
<polygon id="0x2bbb110" class="l5d1" points="490,570 550,570 550,630 490,630"/>
<polygon id="0x2bbb1d0" class="l5d1" points="490,650 550,650 550,710 490,710"/>
<polygon id="0x2bbb290" class="l5d1" points="490,730 550,730 550,790 490,790"/>
<polygon id="0x2bbb350" class="l5d1" points="490,810 550,810 550,870 490,870"/>
<polygon id="0x2bbb410" class="l5d1" points="490,890 550,890 550,950 490,950"/>
<polygon id="0x2bbb4d0" class="l5d1" points="490,970 550,970 550,1030 490,1030"/>
<polygon id="0x2bbb590" class="l5d1" points="490,1050 550,1050 550,1110 490,1110"/>
<polygon id="0x2bbb650" class="l5d1" points="490,1130 550,1130 550,1190 490,1190"/>
<polygon id="0x2bbb710" class="l5d1" points="570,10 630,10 630,70 570,70"/>
<polygon id="0x2bbb7d0" class="l5d1" points="570,90 630,90 630,150 570,150"/>
<polygon id="0x2bbb890" class="l5d1" points="570,170 630,170 630,230 570,230"/>
<polygon id="0x2bbb950" class="l5d1" points="570,250 630,250 630,310 570,310"/>
<polygon id="0x2bbba10" class="l5d1" points="570,330 630,330 630,390 570,390"/>
<polygon id="0x2bbbad0" class="l5d1" points="570,410 630,410 630,470 570,470"/>
<polygon id="0x2bbbb90" class="l5d1" points="570,490 630,490 630,550 570,550"/>
<polygon id="0x2bbbc50" class="l5d1" points="570,570 630,570 630,630 570,630"/>
<polygon id="0x2bbbd10" class="l5d1" points="570,650 630,650 630,710 570,710"/>
<polygon id="0x2bbbdd0" class="l5d1" points="570,730 630,730 630,790 570,790"/>
<polygon id="0x2bbbe90" class="l5d1" points="570,810 630,810 630,870 570,870"/>
<polygon id="0x2bbbf50" class="l5d1" points="570,890 630,890 630,950 570,950"/>
<polygon id="0x2bbc010" class="l5d1" points="570,970 630,970 630,1030 570,1030"/>
<polygon id="0x2bbc0d0" class="l5d1" points="570,1050 630,1050 630,1110 570,1110"/>
<polygon id="0x2bbc190" class="l5d1" points="570,1130 630,1130 630,1190 570,1190"/>
<polygon id="0x2bbc250" class="l5d1" points="650,10 710,10 710,70 650,70"/>
<polygon id="0x2bbc310" class="l5d1" points="650,90 710,90 710,150 650,150"/>
<polygon id="0x2bbc3d0" class="l5d1" points="650,170 710,170 710,230 650,230"/>
<polygon id="0x2bbc490" class="l5d1" points="650,250 710,250 710,310 650,310"/>
<polygon id="0x2bbc550" class="l5d1" points="650,330 710,330 710,390 650,390"/>
<polygon id="0x2bbc610" class="l5d1" points="650,410 710,410 710,470 650,470"/>
<polygon id="0x2bbc6d0" class="l5d1" points="650,490 710,490 710,550 650,550"/>
<polygon id="0x2bbc790" class="l5d1" points="650,570 710,570 710,630 650,630"/>
<polygon id="0x2bbc850" class="l5d1" points="650,650 710,650 710,710 650,710"/>
<polygon id="0x2bbc910" class="l5d1" points="650,730 710,730 710,790 650,790"/>
<polygon id="0x2bbc9d0" class="l5d1" points="650,810 710,810 710,870 650,870"/>
<polygon id="0x2bbca90" class="l5d1" points="650,890 710,890 710,950 650,950"/>
<polygon id="0x2bbcb50" class="l5d1" points="650,970 710,970 710,1030 650,1030"/>
<polygon id="0x2bbcc10" class="l5d1" points="650,1050 710,1050 710,1110 650,1110"/>
<polygon id="0x2bbccd0" class="l5d1" points="650,1130 710,1130 710,1190 650,1190"/>
<polygon id="0x2bbcd90" class="l5d1" points="730,10 790,10 790,70 730,70"/>
<polygon id="0x2bbce50" class="l5d1" points="730,90 790,90 790,150 730,150"/>
<polygon id="0x2bbcf10" class="l5d1" points="730,170 790,170 790,230 730,230"/>
<polygon id="0x2bbcfd0" class="l5d1" points="730,250 790,250 790,310 730,310"/>
<polygon id="0x2bbd090" class="l5d1" points="730,330 790,330 790,390 730,390"/>
<polygon id="0x2bbd150" class="l5d1" points="730,410 790,410 790,470 730,470"/>
<polygon id="0x2bbd210" class="l5d1" points="730,490 790,490 790,550 730,550"/>
<polygon id="0x2bbd2d0" class="l5d1" points="730,570 790,570 790,630 730,630"/>
<polygon id="0x2bbd390" class="l5d1" points="730,650 790,650 790,710 730,710"/>
<polygon id="0x2bbd450" class="l5d1" points="730,730 790,730 790,790 730,790"/>
<polygon id="0x2bbd510" class="l5d1" points="730,810 790,810 790,870 730,870"/>
<polygon id="0x2bbd5d0" class="l5d1" points="730,890 790,890 790,950 730,950"/>
<polygon id="0x2bbd690" class="l5d1" points="730,970 790,970 790,1030 730,1030"/>
<polygon id="0x2bbd750" class="l5d1" points="730,1050 790,1050 790,1110 730,1110"/>
<polygon id="0x2bbd810" class="l5d1" points="730,1130 790,1130 790,1190 730,1190"/>
<polygon id="0x2bbd8d0" class="l5d1" points="810,10 870,10 870,70 810,70"/>
<polygon id="0x2bbd990" class="l5d1" points="810,90 870,90 870,150 810,150"/>
<polygon id="0x2bbda50" class="l5d1" points="810,170 870,170 870,230 810,230"/>
<polygon id="0x2bbdb10" class="l5d1" points="810,250 870,250 870,310 810,310"/>
<polygon id="0x2bbdbd0" class="l5d1" points="810,330 870,330 870,390 810,390"/>
<polygon id="0x2bbdc90" class="l5d1" points="810,410 870,410 870,470 810,470"/>
<polygon id="0x2bbdd50" class="l5d1" points="810,490 870,490 870,550 810,550"/>
<polygon id="0x2bbde10" class="l5d1" points="810,570 870,570 870,630 810,630"/>
<polygon id="0x2bbded0" class="l5d1" points="810,650 870,650 870,710 810,710"/>
<polygon id="0x2bbdf90" class="l5d1" points="810,730 870,730 870,790 810,790"/>
<polygon id="0x2bbe050" class="l5d1" points="810,810 870,810 870,870 810,870"/>
<polygon id="0x2bbe110" class="l5d1" points="810,890 870,890 870,950 810,950"/>
<polygon id="0x2bbe1d0" class="l5d1" points="810,970 870,970 870,1030 810,1030"/>
<polygon id="0x2bbe290" class="l5d1" points="810,1050 870,1050 870,1110 810,1110"/>
<polygon id="0x2bbe350" class="l5d1" points="810,1130 870,1130 870,1190 810,1190"/>
<polygon id="0x2bbe410" class="l5d1" points="890,10 950,10 950,70 890,70"/>
<polygon id="0x2bbe4d0" class="l5d1" points="890,90 950,90 950,150 890,150"/>
<polygon id="0x2bbe590" class="l5d1" points="890,170 950,170 950,230 890,230"/>
<polygon id="0x2bbe650" class="l5d1" points="890,250 950,250 950,310 890,310"/>
<polygon id="0x2bbe710" class="l5d1" points="890,330 950,330 950,390 890,390"/>
<polygon id="0x2bbe7d0" class="l5d1" points="890,410 950,410 950,470 890,470"/>
<polygon id="0x2bbe890" class="l5d1" points="890,490 950,490 950,550 890,550"/>
<polygon id="0x2bbe950" class="l5d1" points="890,570 950,570 950,630 890,630"/>
<polygon id="0x2bbea10" class="l5d1" points="890,650 950,650 950,710 890,710"/>
<polygon id="0x2bbead0" class="l5d1" points="890,730 950,730 950,790 890,790"/>
<polygon id="0x2bbeb90" class="l5d1" points="890,810 950,810 950,870 890,870"/>
<polygon id="0x2bbec50" class="l5d1" points="890,890 950,890 950,950 890,950"/>
<polygon id="0x2bbed10" class="l5d1" points="890,970 950,970 950,1030 890,1030"/>
<polygon id="0x2bbedd0" class="l5d1" points="890,1050 950,1050 950,1110 890,1110"/>
<polygon id="0x2bbee90" class="l5d1" points="890,1130 950,1130 950,1190 890,1190"/>
<polygon id="0x2bbef50" class="l5d1" points="970,10 1030,10 1030,70 970,70"/>
<polygon id="0x2bbf010" class="l5d1" points="970,90 1030,90 1030,150 970,150"/>
<polygon id="0x2bbf0d0" class="l5d1" points="970,170 1030,170 1030,230 970,230"/>
<polygon id="0x2bbf190" class="l5d1" points="970,250 1030,250 1030,310 970,310"/>
<polygon id="0x2bbf250" class="l5d1" points="970,330 1030,330 1030,390 970,390"/>
<polygon id="0x2bbf310" class="l5d1" points="970,410 1030,410 1030,470 970,470"/>
<polygon id="0x2bbf3d0" class="l5d1" points="970,490 1030,490 1030,550 970,550"/>
<polygon id="0x2bbf490" class="l5d1" points="970,570 1030,570 1030,630 970,630"/>
<polygon id="0x2bbf550" class="l5d1" points="970,650 1030,650 1030,710 970,710"/>
<polygon id="0x2bbf610" class="l5d1" points="970,730 1030,730 1030,790 970,790"/>
<polygon id="0x2bbf6d0" class="l5d1" points="970,810 1030,810 1030,870 970,870"/>
<polygon id="0x2bbf790" class="l5d1" points="970,890 1030,890 1030,950 970,950"/>
<polygon id="0x2bbf850" class="l5d1" points="970,970 1030,970 1030,1030 970,1030"/>
<polygon id="0x2bbf910" class="l5d1" points="970,1050 1030,1050 1030,1110 970,1110"/>
<polygon id="0x2bbf9d0" class="l5d1" points="970,1130 1030,1130 1030,1190 970,1190"/>
<polygon id="0x2bbfa90" class="l5d1" points="1050,10 1110,10 1110,70 1050,70"/>
<polygon id="0x2bbfb50" class="l5d1" points="1050,90 1110,90 1110,150 1050,150"/>
<polygon id="0x2bbfc10" class="l5d1" points="1050,170 1110,170 1110,230 1050,230"/>
<polygon id="0x2bbfcd0" class="l5d1" points="1050,250 1110,250 1110,310 1050,310"/>
<polygon id="0x2bbfd90" class="l5d1" points="1050,330 1110,330 1110,390 1050,390"/>
<polygon id="0x2bbfe50" class="l5d1" points="1050,410 1110,410 1110,470 1050,470"/>
<polygon id="0x2bbff10" class="l5d1" points="1050,490 1110,490 1110,550 1050,550"/>
<polygon id="0x2bbffd0" class="l5d1" points="1050,570 1110,570 1110,630 1050,630"/>
<polygon id="0x2bc0090" class="l5d1" points="1050,650 1110,650 1110,710 1050,710"/>
<polygon id="0x2bc0150" class="l5d1" points="1050,730 1110,730 1110,790 1050,790"/>
<polygon id="0x2bc0210" class="l5d1" points="1050,810 1110,810 1110,870 1050,870"/>
<polygon id="0x2bc02d0" class="l5d1" points="1050,890 1110,890 1110,950 1050,950"/>
<polygon id="0x2bc0390" class="l5d1" points="1050,970 1110,970 1110,1030 1050,1030"/>
<polygon id="0x2bc0450" class="l5d1" points="1050,1050 1110,1050 1110,1110 1050,1110"/>
<polygon id="0x2bc0510" class="l5d1" points="1050,1130 1110,1130 1110,1190 1050,1190"/>
<polygon id="0x2bc05d0" class="l5d1" points="1130,10 1190,10 1190,70 1130,70"/>
<polygon id="0x2bc0690" class="l5d1" points="1130,90 1190,90 1190,150 1130,150"/>
<polygon id="0x2bc0750" class="l5d1" points="1130,170 1190,170 1190,230 1130,230"/>
<polygon id="0x2bc0810" class="l5d1" points="1130,250 1190,250 1190,310 1130,310"/>
<polygon id="0x2bc08d0" class="l5d1" points="1130,330 1190,330 1190,390 1130,390"/>
<polygon id="0x2bc0990" class="l5d1" points="1130,410 1190,410 1190,470 1130,470"/>
<polygon id="0x2bc0a50" class="l5d1" points="1130,490 1190,490 1190,550 1130,550"/>
<polygon id="0x2bc0b10" class="l5d1" points="1130,570 1190,570 1190,630 1130,630"/>
<polygon id="0x2bc0bd0" class="l5d1" points="1130,650 1190,650 1190,710 1130,710"/>
<polygon id="0x2bc0c90" class="l5d1" points="1130,730 1190,730 1190,790 1130,790"/>
<polygon id="0x2bc0d50" class="l5d1" points="1130,810 1190,810 1190,870 1130,870"/>
<polygon id="0x2bc0e10" class="l5d1" points="1130,890 1190,890 1190,950 1130,950"/>
<polygon id="0x2bc0ed0" class="l5d1" points="1130,970 1190,970 1190,1030 1130,1030"/>
<polygon id="0x2bc0f90" class="l5d1" points="1130,1050 1190,1050 1190,1110 1130,1110"/>
<polygon id="0x2bc1050" class="l5d1" points="1130,1130 1190,1130 1190,1190 1130,1190"/>
<polygon id="0x2bc1110" class="l5d1" points="1210,10 1270,10 1270,70 1210,70"/>
<polygon id="0x2bc11d0" class="l5d1" points="1210,90 1270,90 1270,150 1210,150"/>
<polygon id="0x2bc1290" class="l5d1" points="1210,170 1270,170 1270,230 1210,230"/>
<polygon id="0x2bc1350" class="l5d1" points="1210,250 1270,250 1270,310 1210,310"/>
<polygon id="0x2bc1410" class="l5d1" points="1210,330 1270,330 1270,390 1210,390"/>
<polygon id="0x2bc14d0" class="l5d1" points="1210,410 1270,410 1270,470 1210,470"/>
<polygon id="0x2bc1590" class="l5d1" points="1210,490 1270,490 1270,550 1210,550"/>
<polygon id="0x2bc1650" class="l5d1" points="1210,570 1270,570 1270,630 1210,630"/>
<polygon id="0x2bc1710" class="l5d1" points="1210,650 1270,650 1270,710 1210,710"/>
<polygon id="0x2bc17d0" class="l5d1" points="1210,730 1270,730 1270,790 1210,790"/>
<polygon id="0x2bc1890" class="l5d1" points="1210,810 1270,810 1270,870 1210,870"/>
<polygon id="0x2bc1950" class="l5d1" points="1210,890 1270,890 1270,950 1210,950"/>
<polygon id="0x2bc1a10" class="l5d1" points="1210,970 1270,970 1270,1030 1210,1030"/>
<polygon id="0x2bc1ad0" class="l5d1" points="1210,1050 1270,1050 1270,1110 1210,1110"/>
<polygon id="0x2bc1b90" class="l5d1" points="1210,1130 1270,1130 1270,1190 1210,1190"/>
<polygon id="0x2bc1c50" class="l5d1" points="1290,10 1350,10 1350,70 1290,70"/>
<polygon id="0x2bc1d10" class="l5d1" points="1290,90 1350,90 1350,150 1290,150"/>
<polygon id="0x2bc1dd0" class="l5d1" points="1290,170 1350,170 1350,230 1290,230"/>
<polygon id="0x2bc1e90" class="l5d1" points="1290,250 1350,250 1350,310 1290,310"/>
<polygon id="0x2bc1f50" class="l5d1" points="1290,330 1350,330 1350,390 1290,390"/>
<polygon id="0x2bc2010" class="l5d1" points="1290,410 1350,410 1350,470 1290,470"/>
<polygon id="0x2bc20d0" class="l5d1" points="1290,490 1350,490 1350,550 1290,550"/>
<polygon id="0x2bc2190" class="l5d1" points="1290,570 1350,570 1350,630 1290,630"/>
<polygon id="0x2bc2250" class="l5d1" points="1290,650 1350,650 1350,710 1290,710"/>
<polygon id="0x2bc2310" class="l5d1" points="1290,730 1350,730 1350,790 1290,790"/>
<polygon id="0x2bc23d0" class="l5d1" points="1290,810 1350,810 1350,870 1290,870"/>
<polygon id="0x2bc2490" class="l5d1" points="1290,890 1350,890 1350,950 1290,950"/>
<polygon id="0x2bc2550" class="l5d1" points="1290,970 1350,970 1350,1030 1290,1030"/>
<polygon id="0x2bc2610" class="l5d1" points="1290,1050 1350,1050 1350,1110 1290,1110"/>
<polygon id="0x2bc26d0" class="l5d1" points="1290,1130 1350,1130 1350,1190 1290,1190"/>
<polygon id="0x2bc2790" class="l5d1" points="1370,10 1430,10 1430,70 1370,70"/>
<polygon id="0x2bc2850" class="l5d1" points="1370,90 1430,90 1430,150 1370,150"/>
<polygon id="0x2bc2910" class="l5d1" points="1370,170 1430,170 1430,230 1370,230"/>
<polygon id="0x2bc29d0" class="l5d1" points="1370,250 1430,250 1430,310 1370,310"/>
<polygon id="0x2bc2a90" class="l5d1" points="1370,330 1430,330 1430,390 1370,390"/>
<polygon id="0x2bc2b50" class="l5d1" points="1370,410 1430,410 1430,470 1370,470"/>
<polygon id="0x2bc2c10" class="l5d1" points="1370,490 1430,490 1430,550 1370,550"/>
<polygon id="0x2bc2cd0" class="l5d1" points="1370,570 1430,570 1430,630 1370,630"/>
<polygon id="0x2bc2d90" class="l5d1" points="1370,650 1430,650 1430,710 1370,710"/>
<polygon id="0x2bc2e50" class="l5d1" points="1370,730 1430,730 1430,790 1370,790"/>
<polygon id="0x2bc2f10" class="l5d1" points="1370,810 1430,810 1430,870 1370,870"/>
<polygon id="0x2bc2fd0" class="l5d1" points="1370,890 1430,890 1430,950 1370,950"/>
<polygon id="0x2bc3090" class="l5d1" points="1370,970 1430,970 1430,1030 1370,1030"/>
<polygon id="0x2bc3150" class="l5d1" points="1370,1050 1430,1050 1430,1110 1370,1110"/>
<polygon id="0x2bc3210" class="l5d1" points="1370,1130 1430,1130 1430,1190 1370,1190"/>
<polygon id="0x2bc32d0" class="l5d1" points="1450,10 1510,10 1510,70 1450,70"/>
<polygon id="0x2bc3390" class="l5d1" points="1450,90 1510,90 1510,150 1450,150"/>
<polygon id="0x2bc3450" class="l5d1" points="1450,170 1510,170 1510,230 1450,230"/>
<polygon id="0x2bc3510" class="l5d1" points="1450,250 1510,250 1510,310 1450,310"/>
<polygon id="0x2bc35d0" class="l5d1" points="1450,330 1510,330 1510,390 1450,390"/>
<polygon id="0x2bc3690" class="l5d1" points="1450,410 1510,410 1510,470 1450,470"/>
<polygon id="0x2bc3750" class="l5d1" points="1450,490 1510,490 1510,550 1450,550"/>
<polygon id="0x2bc3810" class="l5d1" points="1450,570 1510,570 1510,630 1450,630"/>
<polygon id="0x2bc38d0" class="l5d1" points="1450,650 1510,650 1510,710 1450,710"/>
<polygon id="0x2bc3990" class="l5d1" points="1450,730 1510,730 1510,790 1450,790"/>
<polygon id="0x2bc3a50" class="l5d1" points="1450,810 1510,810 1510,870 1450,870"/>
<polygon id="0x2bc3b10" class="l5d1" points="1450,890 1510,890 1510,950 1450,950"/>
<polygon id="0x2bc3bd0" class="l5d1" points="1450,970 1510,970 1510,1030 1450,1030"/>
<polygon id="0x2bc3c90" class="l5d1" points="1450,1050 1510,1050 1510,1110 1450,1110"/>
<polygon id="0x2bc3d50" class="l5d1" points="1450,1130 1510,1130 1510,1190 1450,1190"/>
<polygon id="0x2bc3e10" class="l5d1" points="1530,10 1590,10 1590,70 1530,70"/>
<polygon id="0x2bc3ed0" class="l5d1" points="1530,90 1590,90 1590,150 1530,150"/>
<polygon id="0x2bc3f90" class="l5d1" points="1530,170 1590,170 1590,230 1530,230"/>
<polygon id="0x2bc4050" class="l5d1" points="1530,250 1590,250 1590,310 1530,310"/>
<polygon id="0x2bc4110" class="l5d1" points="1530,330 1590,330 1590,390 1530,390"/>
<polygon id="0x2bc41d0" class="l5d1" points="1530,410 1590,410 1590,470 1530,470"/>
<polygon id="0x2bc4290" class="l5d1" points="1530,490 1590,490 1590,550 1530,550"/>
<polygon id="0x2bc4350" class="l5d1" points="1530,570 1590,570 1590,630 1530,630"/>
<polygon id="0x2bc4410" class="l5d1" points="1530,650 1590,650 1590,710 1530,710"/>
<polygon id="0x2bc44d0" class="l5d1" points="1530,730 1590,730 1590,790 1530,790"/>
<polygon id="0x2bc4590" class="l5d1" points="1530,810 1590,810 1590,870 1530,870"/>
<polygon id="0x2bc4650" class="l5d1" points="1530,890 1590,890 1590,950 1530,950"/>
<polygon id="0x2bc4710" class="l5d1" points="1530,970 1590,970 1590,1030 1530,1030"/>
<polygon id="0x2bc47d0" class="l5d1" points="1530,1050 1590,1050 1590,1110 1530,1110"/>
<polygon id="0x2bc4890" class="l5d1" points="1530,1130 1590,1130 1590,1190 1530,1190"/>
</g>
</svg>