<?xml version="1.0" encoding="UTF-8"?>
<svg xmlns="http://www.w3.org/2000/svg" xmlns:xlink="http://www.w3.org/1999/xlink" width="1760" height="1360" viewBox="-80 -1280 1760 1360">
<defs>
<style type="text/css">
.l1d22 {stroke: #0067A5; fill: #0067A5; fill-opacity: 0.5;}
.l5d22 {stroke: #B3446C; fill: #B3446C; fill-opacity: 0.5;}
.l126d0 {stroke: #E68FAC; fill: #E68FAC; fill-opacity: 0.5;}
.l189d4 {stroke: #A1CAF1; fill: #A1CAF1; fill-opacity: 0.5;}
</style>
</defs>
<rect x="-80" y="-1280" width="1760" height="1360" fill="#222222" stroke="none"/>
<g id="my_logo" transform="scale(1 -1)">
<polygon id="0x298d350" class="l126d0" points="80,20 160,20 160,60 80,60"/>
<polygon id="0x2a1d680" class="l126d0" points="320,20 400,20 400,60 320,60"/>
<polygon id="0x2a13550" class="l126d0" points="480,20 880,20 880,60 480,60"/>
<polygon id="0x2a76f90" class="l126d0" points="960,20 1360,20 1360,60 960,60"/>
<polygon id="0x2b2dae0" class="l126d0" points="80,100 160,100 160,140 80,140"/>
<polygon id="0x2bd24b0" class="l126d0" points="400,100 480,100 480,140 400,140"/>
<polygon id="0x2b28120" class="l126d0" points="800,100 1040,100 1040,140 800,140"/>
<polygon id="0x29d5510" class="l126d0" points="1120,100 1200,100 1200,140 1120,140"/>
<polygon id="0x2b2a1e0" class="l126d0" points="1280,100 1360,100 1360,140 1280,140"/>
<polygon id="0x2b60000" class="l126d0" points="1520,100 1600,100 1600,140 1520,140"/>
<polygon id="0x2bd5c70" class="l126d0" points="0,180 160,180 160,220 0,220"/>
<polygon id="0x2bfc0d0" class="l126d0" points="320,180 400,180 400,220 320,220"/>
<polygon id="0x2ba6a50" class="l126d0" points="480,180 640,180 640,220 480,220"/>
<polygon id="0x2b97940" class="l126d0" points="720,180 880,180 880,220 720,220"/>
<polygon id="0x2bc1df0" class="l126d0" points="1200,180 1280,180 1280,220 1200,220"/>
<polygon id="0x2bddf60" class="l126d0" points="1520,180 1600,180 1600,220 1520,220"/>
<polygon id="0x2b3f160" class="l126d0" points="0,260 240,260 240,300 0,300"/>
<polygon id="0x2b4fac0" class="l126d0" points="400,260 880,260 880,300 400,300"/>
<polygon id="0x2b91e90" class="l126d0" points="1120,260 1360,260 1360,300 1120,300"/>
<polygon id="0x2ba2600" class="l126d0" points="1440,260 1520,260 1520,300 1440,300"/>
<polygon id="0x2b95cd0" class="l126d0" points="0,340 80,340 80,380 0,380"/>
<polygon id="0x2930e60" class="l126d0" points="240,340 400,340 400,380 240,380"/>
<polygon id="0x29cea40" class="l126d0" points="640,340 800,340 800,380 640,380"/>
<polygon id="0x295eac0" class="l126d0" points="880,340 1040,340 1040,380 880,380"/>
<polygon id="0x2b01bc0" class="l126d0" points="1120,340 1200,340 1200,380 1120,380"/>
<polygon id="0x2b2ef80" class="l126d0" points="1280,340 1600,340 1600,380 1280,380"/>
<polygon id="0x2b60f80" class="l126d0" points="160,420 400,420 400,460 160,460"/>
<polygon id="0x29ad520" class="l126d0" points="480,420 640,420 640,460 480,460"/>
<polygon id="0x299b260" class="l126d0" points="800,420 880,420 880,460 800,460"/>
<polygon id="0x2a13130" class="l126d0" points="1200,420 1280,420 1280,460 1200,460"/>
<polygon id="0x2a36e50" class="l126d0" points="1440,420 1600,420 1600,460 1440,460"/>
<polygon id="0x2a61f10" class="l126d0" points="80,500 240,500 240,540 80,540"/>
<polygon id="0x2ae0540" class="l126d0" points="320,500 400,500 400,540 320,540"/>
<polygon id="0x2bf4920" class="l126d0" points="480,500 560,500 560,540 480,540"/>
<polygon id="0x2bf49e0" class="l126d0" points="640,500 720,500 720,540 640,540"/>
<polygon id="0x2bf4aa0" class="l126d0" points="800,500 960,500 960,540 800,540"/>
<polygon id="0x2bf4b60" class="l126d0" points="1280,500 1440,500 1440,540 1280,540"/>
<polygon id="0x2bf4c20" class="l126d0" points="0,580 160,580 160,620 0,620"/>
<polygon id="0x2bf4ce0" class="l126d0" points="240,580 480,580 480,620 240,620"/>
<polygon id="0x2bf4da0" class="l126d0" points="800,580 960,580 960,620 800,620"/>
<polygon id="0x2bf4e60" class="l126d0" points="1040,580 1120,580 1120,620 1040,620"/>
<polygon id="0x2bf4f20" class="l126d0" points="1280,580 1360,580 1360,620 1280,620"/>
<polygon id="0x2bf4fe0" class="l126d0" points="1440,580 1600,580 1600,620 1440,620"/>
<polygon id="0x2bf50a0" class="l126d0" points="0,660 80,660 80,700 0,700"/>
<polygon id="0x2bf5160" class="l126d0" points="320,660 480,660 480,700 320,700"/>
<polygon id="0x2bf5220" class="l126d0" points="640,660 720,660 720,700 640,700"/>
<polygon id="0x2bf52e0" class="l126d0" points="800,660 960,660 960,700 800,700"/>
<polygon id="0x2bf53a0" class="l126d0" points="1040,660 1280,660 1280,700 1040,700"/>
<polygon id="0x2bf5460" class="l126d0" points="0,740 240,740 240,780 0,780"/>
<polygon id="0x2bf5520" class="l126d0" points="400,740 560,740 560,780 400,780"/>
<polygon id="0x2bf55e0" class="l126d0" points="960,740 1040,740 1040,780 960,780"/>
<polygon id="0x2bf56a0" class="l126d0" points="1120,740 1280,740 1280,780 1120,780"/>
<polygon id="0x2bf5760" class="l126d0" points="1440,740 1600,740 1600,780 1440,780"/>
<polygon id="0x2bf5820" class="l126d0" points="0,820 160,820 160,860 0,860"/>
<polygon id="0x2bf58e0" class="l126d0" points="240,820 480,820 480,860 240,860"/>
<polygon id="0x2bf59a0" class="l126d0" points="640,820 720,820 720,860 640,860"/>
<polygon id="0x2bf5a60" class="l126d0" points="800,820 1040,820 1040,860 800,860"/>
<polygon id="0x2bf5b20" class="l126d0" points="1200,820 1360,820 1360,860 1200,860"/>
<polygon id="0x2bf5be0" class="l126d0" points="1440,820 1520,820 1520,860 1440,860"/>
<polygon id="0x2bf5ca0" class="l126d0" points="0,900 160,900 160,940 0,940"/>
<polygon id="0x2bf5d60" class="l126d0" points="240,900 480,900 480,940 240,940"/>
<polygon id="0x2bf5e20" class="l126d0" points="560,900 640,900 640,940 560,940"/>
<polygon id="0x2bf5ee0" class="l126d0" points="720,900 800,900 800,940 720,940"/>
<polygon id="0x2bf5fa0" class="l126d0" points="960,900 1040,900 1040,940 960,940"/>
<polygon id="0x2bf6060" class="l126d0" points="1120,900 1200,900 1200,940 1120,940"/>
<polygon id="0x2af4570" class="l126d0" points="1280,900 1360,900 1360,940 1280,940"/>
<polygon id="0x2b1d3a0" class="l126d0" points="80,980 160,980 160,1020 80,1020"/>
<polygon id="0x2b694b0" class="l126d0" points="320,980 400,980 400,1020 320,1020"/>
<polygon id="0x2b4ebc0" class="l126d0" points="480,980 560,980 560,1020 480,1020"/>
<polygon id="0x2b90120" class="l126d0" points="720,980 960,980 960,1020 720,1020"/>
<polygon id="0x2bd6dc0" class="l126d0" points="1040,980 1120,980 1120,1020 1040,1020"/>
<polygon id="0x297ad30" class="l126d0" points="1520,980 1600,980 1600,1020 1520,1020"/>
<polygon id="0x29a6010" class="l126d0" points="0,1060 320,1060 320,1100 0,1100"/>
<polygon id="0x2a1be60" class="l126d0" points="560,1060 640,1060 640,1100 560,1100"/>
<polygon id="0x2a0fff0" class="l126d0" points="800,1060 1120,1060 1120,1100 800,1100"/>
<polygon id="0x2ad2610" class="l126d0" points="1200,1060 1360,1060 1360,1100 1200,1100"/>
<polygon id="0x2ad7730" class="l126d0" points="1440,1060 1520,1060 1520,1100 1440,1100"/>
<polygon id="0x2ae3fa0" class="l126d0" points="80,1140 160,1140 160,1180 80,1180"/>
<polygon id="0x2ba56d0" class="l126d0" points="240,1140 320,1140 320,1180 240,1180"/>
<polygon id="0x2b5a170" class="l126d0" points="560,1140 640,1140 640,1180 560,1180"/>
<polygon id="0x2979640" class="l126d0" points="800,1140 880,1140 880,1180 800,1180"/>
<polygon id="0x2a20f10" class="l126d0" points="1040,1140 1120,1140 1120,1180 1040,1180"/>
<polygon id="0x2b20070" class="l126d0" points="1440,1140 1600,1140 1600,1180 1440,1180"/>
<polygon id="0x2b22ae0" class="l126d0" points="20,0 60,0 60,160 20,160"/>
<polygon id="0x2b71160" class="l126d0" points="20,400 60,400 60,560 20,560"/>
<polygon id="0x2b511f0" class="l126d0" points="20,960 60,960 60,1040 20,1040"/>
<polygon id="0x2bcd250" class="l126d0" points="20,1120 60,1120 60,1200 20,1200"/>
<polygon id="0x2b3a000" class="l126d0" points="100,320 140,320 140,480 100,480"/>
<polygon id="0x2b54320" class="l126d0" points="100,640 140,640 140,720 100,720"/>
<polygon id="0x2b54390" class="l126d0" points="180,0 220,0 220,240 180,240"/>
<polygon id="0x2ba1c70" class="l126d0" points="180,320 220,320 220,400 180,400"/>
<polygon id="0x2b97f90" class="l126d0" points="180,560 220,560 220,720 180,720"/>
<polygon id="0x2bd64d0" class="l126d0" points="180,800 220,800 220,1040 180,1040"/>
<polygon id="0x2bd6540" class="l126d0" points="180,1120 220,1120 220,1200 180,1200"/>
<polygon id="0x29a1630" class="l126d0" points="260,0 300,0 300,320 260,320"/>
<polygon id="0x29bc440" class="l126d0" points="260,480 300,480 300,560 260,560"/>
<polygon id="0x29d71e0" class="l126d0" points="260,640 300,640 300,800 260,800"/>
<polygon id="0x2a00610" class="l126d0" points="260,960 300,960 300,1040 260,1040"/>
<polygon id="0x2a244f0" class="l126d0" points="340,80 380,80 380,160 340,160"/>
<polygon id="0x2a679d0" class="l126d0" points="340,240 380,240 380,320 340,320"/>
<polygon id="0x2a3fae0" class="l126d0" points="340,720 380,720 380,800 340,800"/>
<polygon id="0x2b096c0" class="l126d0" points="340,1040 380,1040 380,1200 340,1200"/>
<polygon id="0x2b0fea0" class="l126d0" points="420,0 460,0 460,80 420,80"/>
<polygon id="0x2b82b10" class="l126d0" points="420,160 460,160 460,240 420,240"/>
<polygon id="0x2b41a90" class="l126d0" points="420,320 460,320 460,560 420,560"/>
<polygon id="0x2baff00" class="l126d0" points="420,960 460,960 460,1200 420,1200"/>
<polygon id="0x2bc6280" class="l126d0" points="500,80 540,80 540,160 500,160"/>
<polygon id="0x29a8f80" class="l126d0" points="500,320 540,320 540,400 500,400"/>
<polygon id="0x29a9040" class="l126d0" points="500,560 540,560 540,720 500,720"/>
<polygon id="0x29c1270" class="l126d0" points="500,800 540,800 540,960 500,960"/>
<polygon id="0x29c1330" class="l126d0" points="500,1040 540,1040 540,1200 500,1200"/>
<polygon id="0x2a56d20" class="l126d0" points="580,80 620,80 620,160 580,160"/>
<polygon id="0x2a56de0" class="l126d0" points="580,320 620,320 620,400 580,400"/>
<polygon id="0x2ace950" class="l126d0" points="580,480 620,480 620,880 580,880"/>
<polygon id="0x2acea10" class="l126d0" points="580,960 620,960 620,1040 580,1040"/>
<polygon id="0x2a19db0" class="l126d0" points="660,80 700,80 700,240 660,240"/>
<polygon id="0x2a19e70" class="l126d0" points="660,400 700,400 700,480 660,480"/>
<polygon id="0x2b1ec00" class="l126d0" points="660,560 700,560 700,640 660,640"/>
<polygon id="0x2b1ecc0" class="l126d0" points="660,720 700,720 700,800 660,800"/>
<polygon id="0x28d0d90" class="l126d0" points="660,880 700,880 700,1200 660,1200"/>
<polygon id="0x28d0e50" class="l126d0" points="740,80 780,80 780,160 740,160"/>
<polygon id="0x2b63150" class="l126d0" points="740,400 780,400 780,880 740,880"/>
<polygon id="0x2b63210" class="l126d0" points="740,1040 780,1040 780,1200 740,1200"/>
<polygon id="0x2b67060" class="l126d0" points="820,320 860,320 860,400 820,400"/>
<polygon id="0x2b67120" class="l126d0" points="820,720 860,720 860,800 820,800"/>
<polygon id="0x29724d0" class="l126d0" points="820,880 860,880 860,960 820,960"/>
<polygon id="0x2972590" class="l126d0" points="900,0 940,0 940,80 900,80"/>
<polygon id="0x2993440" class="l126d0" points="900,160 940,160 940,320 900,320"/>
<polygon id="0x2993500" class="l126d0" points="900,400 940,400 940,480 900,480"/>
<polygon id="0x299d7d0" class="l126d0" points="900,720 940,720 940,800 900,800"/>
<polygon id="0x299d890" class="l126d0" points="900,880 940,880 940,960 900,960"/>
<polygon id="0x29bd660" class="l126d0" points="900,1120 940,1120 940,1200 900,1200"/>
<polygon id="0x29bd720" class="l126d0" points="980,160 1020,160 1020,320 980,320"/>
<polygon id="0x2ad9a30" class="l126d0" points="980,400 1020,400 1020,720 980,720"/>
<polygon id="0x2aeecb0" class="l126d0" points="980,960 1020,960 1020,1040 980,1040"/>
<polygon id="0x2aeed20" class="l126d0" points="980,1120 1020,1120 1020,1200 980,1200"/>
<polygon id="0x2ba07f0" class="l126d0" points="1060,80 1100,80 1100,560 1060,560"/>
<polygon id="0x2ba08b0" class="l126d0" points="1060,720 1100,720 1100,960 1060,960"/>
<polygon id="0x2b98ec0" class="l126d0" points="1140,160 1180,160 1180,240 1140,240"/>
<polygon id="0x29d2610" class="l126d0" points="1140,400 1180,400 1180,640 1140,640"/>
<polygon id="0x29d2680" class="l126d0" points="1140,800 1180,800 1180,880 1140,880"/>
<polygon id="0x2983970" class="l126d0" points="1140,960 1180,960 1180,1200 1140,1200"/>
<polygon id="0x2983a30" class="l126d0" points="1220,80 1260,80 1260,160 1220,160"/>
<polygon id="0x2a68280" class="l126d0" points="1220,320 1260,320 1260,400 1220,400"/>
<polygon id="0x2a60c30" class="l126d0" points="1220,480 1260,480 1260,640 1220,640"/>
<polygon id="0x2a60cf0" class="l126d0" points="1220,880 1260,880 1260,1040 1220,1040"/>
<polygon id="0x2acef60" class="l126d0" points="1220,1120 1260,1120 1260,1200 1220,1200"/>
<polygon id="0x2acf020" class="l126d0" points="1300,160 1340,160 1340,240 1300,240"/>
<polygon id="0x2add580" class="l126d0" points="1300,400 1340,400 1340,480 1300,480"/>
<polygon id="0x2b84eb0" class="l126d0" points="1300,640 1340,640 1340,800 1300,800"/>
<polygon id="0x2b84f70" class="l126d0" points="1300,960 1340,960 1340,1040 1300,1040"/>
<polygon id="0x2b37840" class="l126d0" points="1300,1120 1340,1120 1340,1200 1300,1200"/>
<polygon id="0x2b37900" class="l126d0" points="1380,0 1420,0 1420,320 1380,320"/>
<polygon id="0x29cc0a0" class="l126d0" points="1380,400 1420,400 1420,480 1380,480"/>
<polygon id="0x29cc160" class="l126d0" points="1380,560 1420,560 1420,1200 1380,1200"/>
<polygon id="0x2a18d90" class="l126d0" points="1460,0 1500,0 1500,240 1460,240"/>
<polygon id="0x2a18e50" class="l126d0" points="1460,480 1500,480 1500,560 1460,560"/>
<polygon id="0x2aac920" class="l126d0" points="1460,640 1500,640 1500,720 1460,720"/>
<polygon id="0x2aac9e0" class="l126d0" points="1460,880 1500,880 1500,1040 1460,1040"/>
<polygon id="0x2b9ddb0" class="l126d0" points="1540,0 1580,0 1580,80 1540,80"/>
<polygon id="0x2b9de70" class="l126d0" points="1540,240 1580,240 1580,320 1540,320"/>
<polygon id="0x2bcd830" class="l126d0" points="1540,480 1580,480 1580,560 1540,560"/>
<polygon id="0x2bcd8f0" class="l126d0" points="1540,640 1580,640 1580,720 1540,720"/>
<polygon id="0x2bd36f0" class="l126d0" points="1540,800 1580,800 1580,960 1540,960"/>
<polygon id="0x2bd37b0" class="l126d0" points="1540,1040 1580,1040 1580,1120 1540,1120"/>
<polygon id="0x29d1670" class="l189d4" points="0,0 300,0 300,300 0,300"/>
<polygon id="0x29d1730" class="l1d22" points="20,20 60,20 60,60 20,60"/>
<polygon id="0x29ce040" class="l1d22" points="20,100 60,100 60,140 20,140"/>
<polygon id="0x29ce100" class="l1d22" points="20,180 60,180 60,220 20,220"/>
<polygon id="0x2a109d0" class="l1d22" points="20,260 60,260 60,300 20,300"/>
<polygon id="0x2a10a90" class="l1d22" points="20,340 60,340 60,380 20,380"/>
<polygon id="0x2a0a810" class="l1d22" points="20,420 60,420 60,460 20,460"/>
<polygon id="0x2a0a8d0" class="l1d22" points="20,500 60,500 60,540 20,540"/>
<polygon id="0x2a40a30" class="l1d22" points="20,580 60,580 60,620 20,620"/>
<polygon id="0x2a40af0" class="l1d22" points="20,660 60,660 60,700 20,700"/>
<polygon id="0x2b734a0" class="l1d22" points="20,740 60,740 60,780 20,780"/>
<polygon id="0x2b73560" class="l1d22" points="20,820 60,820 60,860 20,860"/>
<polygon id="0x298e6d0" class="l1d22" points="20,900 60,900 60,940 20,940"/>
<polygon id="0x298e790" class="l1d22" points="20,980 60,980 60,1020 20,1020"/>
<polygon id="0x29ca200" class="l1d22" points="20,1060 60,1060 60,1100 20,1100"/>
<polygon id="0x29ca2c0" class="l1d22" points="20,1140 60,1140 60,1180 20,1180"/>
<polygon id="0x2a29940" class="l1d22" points="100,20 140,20 140,60 100,60"/>
<polygon id="0x2a29a00" class="l1d22" points="100,100 140,100 140,140 100,140"/>
<polygon id="0x2a20b50" class="l1d22" points="100,180 140,180 140,220 100,220"/>
<polygon id="0x2a20c10" class="l1d22" points="100,260 140,260 140,300 100,300"/>
<polygon id="0x2bae8f0" class="l1d22" points="100,340 140,340 140,380 100,380"/>
<polygon id="0x2bae9b0" class="l1d22" points="100,420 140,420 140,460 100,460"/>
<polygon id="0x2bc40b0" class="l1d22" points="100,500 140,500 140,540 100,540"/>
<polygon id="0x2bc4170" class="l1d22" points="100,580 140,580 140,620 100,620"/>
<polygon id="0x29305e0" class="l1d22" points="100,660 140,660 140,700 100,700"/>
<polygon id="0x29306a0" class="l1d22" points="100,740 140,740 140,780 100,780"/>
<polygon id="0x2aa70e0" class="l1d22" points="100,820 140,820 140,860 100,860"/>
<polygon id="0x2aa71a0" class="l1d22" points="100,900 140,900 140,940 100,940"/>
<polygon id="0x2b185a0" class="l1d22" points="100,980 140,980 140,1020 100,1020"/>
<polygon id="0x2b18660" class="l1d22" points="100,1060 140,1060 140,1100 100,1100"/>
<polygon id="0x2897170" class="l1d22" points="100,1140 140,1140 140,1180 100,1180"/>
<polygon id="0x2897230" class="l1d22" points="180,20 220,20 220,60 180,60"/>
<polygon id="0x29c6940" class="l1d22" points="180,100 220,100 220,140 180,140"/>
<polygon id="0x29c6a00" class="l1d22" points="180,180 220,180 220,220 180,220"/>
<polygon id="0x2a54d50" class="l1d22" points="180,260 220,260 220,300 180,300"/>
<polygon id="0x2a54e10" class="l1d22" points="180,340 220,340 220,380 180,380"/>
<polygon id="0x2a6bec0" class="l1d22" points="180,420 220,420 220,460 180,460"/>
<polygon id="0x2a6bf80" class="l1d22" points="180,500 220,500 220,540 180,540"/>
<polygon id="0x2aaf070" class="l1d22" points="180,580 220,580 220,620 180,620"/>
<polygon id="0x2aaf130" class="l1d22" points="180,660 220,660 220,700 180,700"/>
<polygon id="0x2b08fc0" class="l1d22" points="180,740 220,740 220,780 180,780"/>
<polygon id="0x2b09080" class="l1d22" points="180,820 220,820 220,860 180,860"/>
<polygon id="0x2ae6590" class="l1d22" points="180,900 220,900 220,940 180,940"/>
<polygon id="0x2ae6650" class="l1d22" points="180,980 220,980 220,1020 180,1020"/>
<polygon id="0x2bb1a90" class="l1d22" points="180,1060 220,1060 220,1100 180,1100"/>
<polygon id="0x2bb1b50" class="l1d22" points="180,1140 220,1140 220,1180 180,1180"/>
<polygon id="0x2a58e20" class="l1d22" points="260,20 300,20 300,60 260,60"/>
<polygon id="0x2a58ee0" class="l1d22" points="260,100 300,100 300,140 260,140"/>
<polygon id="0x2b31800" class="l1d22" points="260,180 300,180 300,220 260,220"/>
<polygon id="0x2b318c0" class="l1d22" points="260,260 300,260 300,300 260,300"/>
<polygon id="0x2b28530" class="l1d22" points="260,340 300,340 300,380 260,380"/>
<polygon id="0x2b285a0" class="l1d22" points="260,420 300,420 300,460 260,460"/>
<polygon id="0x2b28660" class="l1d22" points="260,500 300,500 300,540 260,540"/>
<polygon id="0x2b8d800" class="l1d22" points="260,580 300,580 300,620 260,620"/>
<polygon id="0x2b8d8c0" class="l1d22" points="260,660 300,660 300,700 260,700"/>
<polygon id="0x29e7c70" class="l1d22" points="260,740 300,740 300,780 260,780"/>
<polygon id="0x29e7d30" class="l1d22" points="260,820 300,820 300,860 260,860"/>
<polygon id="0x2a74780" class="l1d22" points="260,900 300,900 300,940 260,940"/>
<polygon id="0x2a74840" class="l1d22" points="260,980 300,980 300,1020 260,1020"/>
<polygon id="0x2a667b0" class="l1d22" points="260,1060 300,1060 300,1100 260,1100"/>
<polygon id="0x2a66870" class="l1d22" points="260,1140 300,1140 300,1180 260,1180"/>
<polygon id="0x2adb2b0" class="l1d22" points="340,20 380,20 380,60 340,60"/>
<polygon id="0x2adb370" class="l1d22" points="340,100 380,100 380,140 340,140"/>
<polygon id="0x2b42180" class="l1d22" points="340,180 380,180 380,220 340,220"/>
<polygon id="0x2b42240" class="l1d22" points="340,260 380,260 380,300 340,300"/>
<polygon id="0x2b498a0" class="l1d22" points="340,340 380,340 380,380 340,380"/>
<polygon id="0x2b49960" class="l1d22" points="340,420 380,420 380,460 340,460"/>
<polygon id="0x2bb2140" class="l1d22" points="340,500 380,500 380,540 340,540"/>
<polygon id="0x2bb2200" class="l1d22" points="340,580 380,580 380,620 340,620"/>
<polygon id="0x2931790" class="l1d22" points="340,660 380,660 380,700 340,700"/>
<polygon id="0x2931850" class="l1d22" points="340,740 380,740 380,780 340,780"/>
<polygon id="0x2991ac0" class="l1d22" points="340,820 380,820 380,860 340,860"/>
<polygon id="0x2991b80" class="l1d22" points="340,900 380,900 380,940 340,940"/>
<polygon id="0x2991c40" class="l1d22" points="340,980 380,980 380,1020 340,1020"/>
<polygon id="0x29f1780" class="l1d22" points="340,1060 380,1060 380,1100 340,1100"/>
<polygon id="0x29f1840" class="l1d22" points="340,1140 380,1140 380,1180 340,1180"/>
<polygon id="0x29f1900" class="l1d22" points="420,20 460,20 460,60 420,60"/>
<polygon id="0x29f43c0" class="l1d22" points="420,100 460,100 460,140 420,140"/>
<polygon id="0x29f4480" class="l1d22" points="420,180 460,180 460,220 420,220"/>
<polygon id="0x29f4540" class="l1d22" points="420,260 460,260 460,300 420,300"/>
<polygon id="0x2a287f0" class="l1d22" points="420,340 460,340 460,380 420,380"/>
<polygon id="0x2a288b0" class="l1d22" points="420,420 460,420 460,460 420,460"/>
<polygon id="0x2a28970" class="l1d22" points="420,500 460,500 460,540 420,540"/>
<polygon id="0x2a37af0" class="l1d22" points="420,580 460,580 460,620 420,620"/>
<polygon id="0x2a37bb0" class="l1d22" points="420,660 460,660 460,700 420,700"/>
<polygon id="0x2a37c70" class="l1d22" points="420,740 460,740 460,780 420,780"/>
<polygon id="0x2a656a0" class="l1d22" points="420,820 460,820 460,860 420,860"/>
<polygon id="0x2a65760" class="l1d22" points="420,900 460,900 460,940 420,940"/>
<polygon id="0x2a65820" class="l1d22" points="420,980 460,980 460,1020 420,1020"/>
<polygon id="0x2a411c0" class="l1d22" points="420,1060 460,1060 460,1100 420,1100"/>
<polygon id="0x2a41280" class="l1d22" points="420,1140 460,1140 460,1180 420,1180"/>
<polygon id="0x2a41340" class="l1d22" points="500,20 540,20 540,60 500,60"/>
<polygon id="0x2aef650" class="l1d22" points="500,100 540,100 540,140 500,140"/>
<polygon id="0x2aef710" class="l1d22" points="500,180 540,180 540,220 500,220"/>
<polygon id="0x2aef7d0" class="l1d22" points="500,260 540,260 540,300 500,300"/>
<polygon id="0x2b5da80" class="l1d22" points="500,340 540,340 540,380 500,380"/>
<polygon id="0x2b5db40" class="l1d22" points="500,420 540,420 540,460 500,460"/>
<polygon id="0x2b5dc00" class="l1d22" points="500,500 540,500 540,540 500,540"/>
<polygon id="0x29bd2a0" class="l1d22" points="500,580 540,580 540,620 500,620"/>
<polygon id="0x29bd360" class="l1d22" points="500,660 540,660 540,700 500,700"/>
<polygon id="0x2a44f80" class="l1d22" points="500,740 540,740 540,780 500,780"/>
<polygon id="0x2a45040" class="l1d22" points="500,820 540,820 540,860 500,860"/>
<polygon id="0x2a45100" class="l1d22" points="500,900 540,900 540,940 500,940"/>
<polygon id="0x295f140" class="l1d22" points="500,980 540,980 540,1020 500,1020"/>
<polygon id="0x295f200" class="l1d22" points="500,1060 540,1060 540,1100 500,1100"/>
<polygon id="0x2ba4920" class="l1d22" points="500,1140 540,1140 540,1180 500,1180"/>
<polygon id="0x2ba49e0" class="l1d22" points="580,20 620,20 620,60 580,60"/>
<polygon id="0x2ba4aa0" class="l1d22" points="580,100 620,100 620,140 580,140"/>
<polygon id="0x2bf7180" class="l1d22" points="580,180 620,180 620,220 580,220"/>
<polygon id="0x2bf7240" class="l1d22" points="580,260 620,260 620,300 580,300"/>
<polygon id="0x2bf7300" class="l1d22" points="580,340 620,340 620,380 580,380"/>
<polygon id="0x2bf73c0" class="l1d22" points="580,420 620,420 620,460 580,460"/>
<polygon id="0x2bf7480" class="l1d22" points="580,500 620,500 620,540 580,540"/>
<polygon id="0x2bf7540" class="l1d22" points="580,580 620,580 620,620 580,620"/>
<polygon id="0x2bf7600" class="l1d22" points="580,660 620,660 620,700 580,700"/>
<polygon id="0x2bf76c0" class="l1d22" points="580,740 620,740 620,780 580,780"/>
<polygon id="0x2bf7780" class="l1d22" points="580,820 620,820 620,860 580,860"/>
<polygon id="0x2bf7840" class="l1d22" points="580,900 620,900 620,940 580,940"/>
<polygon id="0x2bf7900" class="l1d22" points="580,980 620,980 620,1020 580,1020"/>
<polygon id="0x2bf79c0" class="l1d22" points="580,1060 620,1060 620,1100 580,1100"/>
<polygon id="0x2bf7a80" class="l1d22" points="580,1140 620,1140 620,1180 580,1180"/>
<polygon id="0x2bf7b40" class="l1d22" points="660,20 700,20 700,60 660,60"/>
<polygon id="0x2bf7c00" class="l1d22" points="660,100 700,100 700,140 660,140"/>
<polygon id="0x2bf7cc0" class="l1d22" points="660,180 700,180 700,220 660,220"/>
<polygon id="0x2bf7d80" class="l1d22" points="660,260 700,260 700,300 660,300"/>
<polygon id="0x2bf7e40" class="l1d22" points="660,340 700,340 700,380 660,380"/>
<polygon id="0x2bf7f00" class="l1d22" points="660,420 700,420 700,460 660,460"/>
<polygon id="0x2bf7fc0" class="l1d22" points="660,500 700,500 700,540 660,540"/>
<polygon id="0x2bf8080" class="l1d22" points="660,580 700,580 700,620 660,620"/>
<polygon id="0x2bf8140" class="l1d22" points="660,660 700,660 700,700 660,700"/>
<polygon id="0x2bf8200" class="l1d22" points="660,740 700,740 700,780 660,780"/>
<polygon id="0x2bf82c0" class="l1d22" points="660,820 700,820 700,860 660,860"/>
<polygon id="0x2bf8380" class="l1d22" points="660,900 700,900 700,940 660,940"/>
<polygon id="0x2bf8440" class="l1d22" points="660,980 700,980 700,1020 660,1020"/>
<polygon id="0x2bf8500" class="l1d22" points="660,1060 700,1060 700,1100 660,1100"/>
<polygon id="0x2bf85c0" class="l1d22" points="660,1140 700,1140 700,1180 660,1180"/>
<polygon id="0x2bf8680" class="l1d22" points="740,20 780,20 780,60 740,60"/>
<polygon id="0x2bf8740" class="l1d22" points="740,100 780,100 780,140 740,140"/>
<polygon id="0x2bf8800" class="l1d22" points="740,180 780,180 780,220 740,220"/>
<polygon id="0x2bf88c0" class="l1d22" points="740,260 780,260 780,300 740,300"/>
<polygon id="0x2bf8980" class="l1d22" points="740,340 780,340 780,380 740,380"/>
<polygon id="0x2bf8a40" class="l1d22" points="740,420 780,420 780,460 740,460"/>
<polygon id="0x2bf8b00" class="l1d22" points="740,500 780,500 780,540 740,540"/>
<polygon id="0x2bf8bc0" class="l1d22" points="740,580 780,580 780,620 740,620"/>
<polygon id="0x2bf8c80" class="l1d22" points="740,660 780,660 780,700 740,700"/>
<polygon id="0x2bf8d40" class="l1d22" points="740,740 780,740 780,780 740,780"/>
<polygon id="0x2bf8e00" class="l1d22" points="740,820 780,820 780,860 740,860"/>
<polygon id="0x2bf8ec0" class="l1d22" points="740,900 780,900 780,940 740,940"/>
<polygon id="0x2bf8f80" class="l1d22" points="740,980 780,980 780,1020 740,1020"/>
<polygon id="0x2bf9040" class="l1d22" points="740,1060 780,1060 780,1100 740,1100"/>
<polygon id="0x2bf9100" class="l1d22" points="740,1140 780,1140 780,1180 740,1180"/>
<polygon id="0x2bf91c0" class="l1d22" points="820,20 860,20 860,60 820,60"/>
<polygon id="0x2bf9280" class="l1d22" points="820,100 860,100 860,140 820,140"/>
<polygon id="0x2bf9340" class="l1d22" points="820,180 860,180 860,220 820,220"/>
<polygon id="0x2bf9400" class="l1d22" points="820,260 860,260 860,300 820,300"/>
<polygon id="0x2bf94c0" class="l1d22" points="820,340 860,340 860,380 820,380"/>
<polygon id="0x2bf9580" class="l1d22" points="820,420 860,420 860,460 820,460"/>
<polygon id="0x2bf9640" class="l1d22" points="820,500 860,500 860,540 820,540"/>
<polygon id="0x2bf9700" class="l1d22" points="820,580 860,580 860,620 820,620"/>
<polygon id="0x2bf97c0" class="l1d22" points="820,660 860,660 860,700 820,700"/>
<polygon id="0x2bf9880" class="l1d22" points="820,740 860,740 860,780 820,780"/>
<polygon id="0x2bf9940" class="l1d22" points="820,820 860,820 860,860 820,860"/>
<polygon id="0x2bf9a00" class="l1d22" points="820,900 860,900 860,940 820,940"/>
<polygon id="0x2bf9ac0" class="l1d22" points="820,980 860,980 860,1020 820,1020"/>
<polygon id="0x2bf9b80" class="l1d22" points="820,1060 860,1060 860,1100 820,1100"/>
<polygon id="0x2bf9c40" class="l1d22" points="820,1140 860,1140 860,1180 820,1180"/>
<polygon id="0x2bf9d00" class="l1d22" points="900,20 940,20 940,60 900,60"/>
<polygon id="0x2bf9dc0" class="l1d22" points="900,100 940,100 940,140 900,140"/>
<polygon id="0x2bf9e80" class="l1d22" points="900,180 940,180 940,220 900,220"/>
<polygon id="0x2bf9f40" class="l1d22" points="900,260 940,260 940,300 900,300"/>
<polygon id="0x2bfa000" class="l1d22" points="900,340 940,340 940,380 900,380"/>
<polygon id="0x2bfa0c0" class="l1d22" points="900,420 940,420 940,460 900,460"/>
<polygon id="0x2bfa180" class="l1d22" points="900,500 940,500 940,540 900,540"/>
<polygon id="0x2bfa240" class="l1d22" points="900,580 940,580 940,620 900,620"/>
<polygon id="0x2bfa300" class="l1d22" points="900,660 940,660 940,700 900,700"/>
<polygon id="0x2bfa3c0" class="l1d22" points="900,740 940,740 940,780 900,780"/>
<polygon id="0x2bfa480" class="l1d22" points="900,820 940,820 940,860 900,860"/>
<polygon id="0x2bfa540" class="l1d22" points="900,900 940,900 940,940 900,940"/>
<polygon id="0x2bfa600" class="l1d22" points="900,980 940,980 940,1020 900,1020"/>
<polygon id="0x2bfa6c0" class="l1d22" points="900,1060 940,1060 940,1100 900,1100"/>
<polygon id="0x2bfa780" class="l1d22" points="900,1140 940,1140 940,1180 900,1180"/>
<polygon id="0x2bfa840" class="l1d22" points="980,20 1020,20 1020,60 980,60"/>
<polygon id="0x2bfa900" class="l1d22" points="980,100 1020,100 1020,140 980,140"/>
<polygon id="0x2bfa9c0" class="l1d22" points="980,180 1020,180 1020,220 980,220"/>
<polygon id="0x2bfaa80" class="l1d22" points="980,260 1020,260 1020,300 980,300"/>
<polygon id="0x2bfab40" class="l1d22" points="980,340 1020,340 1020,380 980,380"/>
<polygon id="0x2bfac00" class="l1d22" points="980,420 1020,420 1020,460 980,460"/>
<polygon id="0x2bfacc0" class="l1d22" points="980,500 1020,500 1020,540 980,540"/>
<polygon id="0x2bfad80" class="l1d22" points="980,580 1020,580 1020,620 980,620"/>
<polygon id="0x2bfae40" class="l1d22" points="980,660 1020,660 1020,700 980,700"/>
<polygon id="0x2bfaf00" class="l1d22" points="980,740 1020,740 1020,780 980,780"/>
<polygon id="0x2bfafc0" class="l1d22" points="980,820 1020,820 1020,860 980,860"/>
<polygon id="0x2bfb080" class="l1d22" points="980,900 1020,900 1020,940 980,940"/>
<polygon id="0x2bfb140" class="l1d22" points="980,980 1020,980 1020,1020 980,1020"/>
<polygon id="0x2bfb200" class="l1d22" points="980,1060 1020,1060 1020,1100 980,1100"/>
<polygon id="0x2bfb2c0" class="l1d22" points="980,1140 1020,1140 1020,1180 980,1180"/>
<polygon id="0x2bfb380" class="l1d22" points="1060,20 1100,20 1100,60 1060,60"/>
<polygon id="0x2bfb440" class="l1d22" points="1060,100 1100,100 1100,140 1060,140"/>
<polygon id="0x2bfb500" class="l1d22" points="1060,180 1100,180 1100,220 1060,220"/>
<polygon id="0x2bfb5c0" class="l1d22" points="1060,260 1100,260 1100,300 1060,300"/>
<polygon id="0x2bfb680" class="l1d22" points="1060,340 1100,340 1100,380 1060,380"/>
<polygon id="0x2bfb740" class="l1d22" points="1060,420 1100,420 1100,460 1060,460"/>
<polygon id="0x2bfb800" class="l1d22" points="1060,500 1100,500 1100,540 1060,540"/>
<polygon id="0x2bfb8c0" class="l1d22" points="1060,580 1100,580 1100,620 1060,620"/>
<polygon id="0x2bfb980" class="l1d22" points="1060,660 1100,660 1100,700 1060,700"/>
<polygon id="0x2bfe310" class="l1d22" points="1060,740 1100,740 1100,780 1060,780"/>
<polygon id="0x2bfe3d0" class="l1d22" points="1060,820 1100,820 1100,860 1060,860"/>
<polygon id="0x2bfe490" class="l1d22" points="1060,900 1100,900 1100,940 1060,940"/>
<polygon id="0x2bfe550" class="l1d22" points="1060,980 1100,980 1100,1020 1060,1020"/>
<polygon id="0x2bfe610" class="l1d22" points="1060,1060 1100,1060 1100,1100 1060,1100"/>
<polygon id="0x2bfe6d0" class="l1d22" points="1060,1140 1100,1140 1100,1180 1060,1180"/>
<polygon id="0x2bfe790" class="l1d22" points="1140,20 1180,20 1180,60 1140,60"/>
<polygon id="0x2bfe850" class="l1d22" points="1140,100 1180,100 1180,140 1140,140"/>
<polygon id="0x2bfe910" class="l1d22" points="1140,180 1180,180 1180,220 1140,220"/>
<polygon id="0x2bfe9d0" class="l1d22" points="1140,260 1180,260 1180,300 1140,300"/>
<polygon id="0x2bfea90" class="l1d22" points="1140,340 1180,340 1180,380 1140,380"/>
<polygon id="0x2bfeb50" class="l1d22" points="1140,420 1180,420 1180,460 1140,460"/>
<polygon id="0x2bfec10" class="l1d22" points="1140,500 1180,500 1180,540 1140,540"/>
<polygon id="0x2bfecd0" class="l1d22" points="1140,580 1180,580 1180,620 1140,620"/>
<polygon id="0x2bfed90" class="l1d22" points="1140,660 1180,660 1180,700 1140,700"/>
<polygon id="0x2bfee50" class="l1d22" points="1140,740 1180,740 1180,780 1140,780"/>
<polygon id="0x2bfef10" class="l1d22" points="1140,820 1180,820 1180,860 1140,860"/>
<polygon id="0x2bfefd0" class="l1d22" points="1140,900 1180,900 1180,940 1140,940"/>
<polygon id="0x2bff090" class="l1d22" points="1140,980 1180,980 1180,1020 1140,1020"/>
<polygon id="0x2bff150" class="l1d22" points="1140,1060 1180,1060 1180,1100 1140,1100"/>
<polygon id="0x2bff210" class="l1d22" points="1140,1140 1180,1140 1180,1180 1140,1180"/>
<polygon id="0x2bff2d0" class="l1d22" points="1220,20 1260,20 1260,60 1220,60"/>
<polygon id="0x2bff390" class="l1d22" points="1220,100 1260,100 1260,140 1220,140"/>
<polygon id="0x2bff450" class="l1d22" points="1220,180 1260,180 1260,220 1220,220"/>
<polygon id="0x2bff510" class="l1d22" points="1220,260 1260,260 1260,300 1220,300"/>
<polygon id="0x2bff5d0" class="l1d22" points="1220,340 1260,340 1260,380 1220,380"/>
<polygon id="0x2bff690" class="l1d22" points="1220,420 1260,420 1260,460 1220,460"/>
<polygon id="0x2bff750" class="l1d22" points="1220,500 1260,500 1260,540 1220,540"/>
<polygon id="0x2bff810" class="l1d22" points="1220,580 1260,580 1260,620 1220,620"/>
<polygon id="0x2bff8d0" class="l1d22" points="1220,660 1260,660 1260,700 1220,700"/>
<polygon id="0x2bff990" class="l1d22" points="1220,740 1260,740 1260,780 1220,780"/>
<polygon id="0x2bffa50" class="l1d22" points="1220,820 1260,820 1260,860 1220,860"/>
<polygon id="0x2bffb10" class="l1d22" points="1220,900 1260,900 1260,940 1220,940"/>
<polygon id="0x2bffbd0" class="l1d22" points="1220,980 1260,980 1260,1020 1220,1020"/>
<polygon id="0x2bffc90" class="l1d22" points="1220,1060 1260,1060 1260,1100 1220,1100"/>
<polygon id="0x2bffd50" class="l1d22" points="1220,1140 1260,1140 1260,1180 1220,1180"/>
<polygon id="0x2bffe10" class="l1d22" points="1300,20 1340,20 1340,60 1300,60"/>
<polygon id="0x2bffed0" class="l1d22" points="1300,100 1340,100 1340,140 1300,140"/>
<polygon id="0x2bfff90" class="l1d22" points="1300,180 1340,180 1340,220 1300,220"/>
<polygon id="0x2c00050" class="l1d22" points="1300,260 1340,260 1340,300 1300,300"/>
<polygon id="0x2c00110" class="l1d22" points="1300,340 1340,340 1340,380 1300,380"/>
<polygon id="0x2c001d0" class="l1d22" points="1300,420 1340,420 1340,460 1300,460"/>
<polygon id="0x2c00290" class="l1d22" points="1300,500 1340,500 1340,540 1300,540"/>
<polygon id="0x2c00350" class="l1d22" points="1300,580 1340,580 1340,620 1300,620"/>
<polygon id="0x2c00410" class="l1d22" points="1300,660 1340,660 1340,700 1300,700"/>
<polygon id="0x2c004d0" class="l1d22" points="1300,740 1340,740 1340,780 1300,780"/>
<polygon id="0x2c00590" class="l1d22" points="1300,820 1340,820 1340,860 1300,860"/>
<polygon id="0x2c00650" class="l1d22" points="1300,900 1340,900 1340,940 1300,940"/>
<polygon id="0x2c00710" class="l1d22" points="1300,980 1340,980 1340,1020 1300,1020"/>
<polygon id="0x2c007d0" class="l1d22" points="1300,1060 1340,1060 1340,1100 1300,1100"/>
<polygon id="0x2c00890" class="l1d22" points="1300,1140 1340,1140 1340,1180 1300,1180"/>
<polygon id="0x2c00950" class="l1d22" points="1380,20 1420,20 1420,60 1380,60"/>
<polygon id="0x2c00a10" class="l1d22" points="1380,100 1420,100 1420,140 1380,140"/>
<polygon id="0x2c00ad0" class="l1d22" points="1380,180 1420,180 1420,220 1380,220"/>
<polygon id="0x2c00b90" class="l1d22" points="1380,260 1420,260 1420,300 1380,300"/>
<polygon id="0x2c00c50" class="l1d22" points="1380,340 1420,340 1420,380 1380,380"/>
<polygon id="0x2c00d10" class="l1d22" points="1380,420 1420,420 1420,460 1380,460"/>
<polygon id="0x2c00dd0" class="l1d22" points="1380,500 1420,500 1420,540 1380,540"/>
<polygon id="0x2c00e90" class="l1d22" points="1380,580 1420,580 1420,620 1380,620"/>
<polygon id="0x2c00f50" class="l1d22" points="1380,660 1420,660 1420,700 1380,700"/>
<polygon id="0x2c01010" class="l1d22" points="1380,740 1420,740 1420,780 1380,780"/>
<polygon id="0x2c010d0" class="l1d22" points="1380,820 1420,820 1420,860 1380,860"/>
<polygon id="0x2c01190" class="l1d22" points="1380,900 1420,900 1420,940 1380,940"/>
<polygon id="0x2c01250" class="l1d22" points="1380,980 1420,980 1420,1020 1380,1020"/>
<polygon id="0x2c01310" class="l1d22" points="1380,1060 1420,1060 1420,1100 1380,1100"/>
<polygon id="0x2c013d0" class="l1d22" points="1380,1140 1420,1140 1420,1180 1380,1180"/>
<polygon id="0x2c01490" class="l1d22" points="1460,20 1500,20 1500,60 1460,60"/>
<polygon id="0x2c01550" class="l1d22" points="1460,100 1500,100 1500,140 1460,140"/>
<polygon id="0x2c01610" class="l1d22" points="1460,180 1500,180 1500,220 1460,220"/>
<polygon id="0x2c016d0" class="l1d22" points="1460,260 1500,260 1500,300 1460,300"/>
<polygon id="0x2c01790" class="l1d22" points="1460,340 1500,340 1500,380 1460,380"/>
<polygon id="0x2c01850" class="l1d22" points="1460,420 1500,420 1500,460 1460,460"/>
<polygon id="0x2c01910" class="l1d22" points="1460,500 1500,500 1500,540 1460,540"/>
<polygon id="0x2c019d0" class="l1d22" points="1460,580 1500,580 1500,620 1460,620"/>
<polygon id="0x2c01a90" class="l1d22" points="1460,660 1500,660 1500,700 1460,700"/>
<polygon id="0x2c01b50" class="l1d22" points="1460,740 1500,740 1500,780 1460,780"/>
<polygon id="0x2c01c10" class="l1d22" points="1460,820 1500,820 1500,860 1460,860"/>
<polygon id="0x2c01cd0" class="l1d22" points="1460,900 1500,900 1500,940 1460,940"/>
<polygon id="0x2c01d90" class="l1d22" points="1460,980 1500,980 1500,1020 1460,1020"/>
<polygon id="0x2c01e50" class="l1d22" points="1460,1060 1500,1060 1500,1100 1460,1100"/>
<polygon id="0x2c01f10" class="l1d22" points="1460,1140 1500,1140 1500,1180 1460,1180"/>
<polygon id="0x2c01fd0" class="l1d22" points="1540,20 1580,20 1580,60 1540,60"/>
<polygon id="0x2c02090" class="l1d22" points="1540,100 1580,100 1580,140 1540,140"/>
<polygon id="0x2c02150" class="l1d22" points="1540,180 1580,180 1580,220 1540,220"/>
<polygon id="0x2c02210" class="l1d22" points="1540,260 1580,260 1580,300 1540,300"/>
<polygon id="0x2c022d0" class="l1d22" points="1540,340 1580,340 1580,380 1540,380"/>
<polygon id="0x2c02390" class="l1d22" points="1540,420 1580,420 1580,460 1540,460"/>
<polygon id="0x2c02450" class="l1d22" points="1540,500 1580,500 1580,540 1540,540"/>
<polygon id="0x2c02510" class="l1d22" points="1540,580 1580,580 1580,620 1540,620"/>
<polygon id="0x2c025d0" class="l1d22" points="1540,660 1580,660 1580,700 1540,700"/>
<polygon id="0x2c02690" class="l1d22" points="1540,740 1580,740 1580,780 1540,780"/>
<polygon id="0x2c02750" class="l1d22" points="1540,820 1580,820 1580,860 1540,860"/>
<polygon id="0x2c02810" class="l1d22" points="1540,900 1580,900 1580,940 1540,940"/>
<polygon id="0x2c028d0" class="l1d22" points="1540,980 1580,980 1580,1020 1540,1020"/>
<polygon id="0x2c02990" class="l1d22" points="1540,1060 1580,1060 1580,1100 1540,1100"/>
<polygon id="0x2c02a50" class="l1d22" points="1540,1140 1580,1140 1580,1180 1540,1180"/>
<polygon id="0x2c02b10" class="l5d22" points="18.2,18.2 61.8,18.2 61.8,61.8 18.2,61.8"/>
<polygon id="0x2c02bd0" class="l5d22" points="18.2,98.2 61.8,98.2 61.8,141.8 18.2,141.8"/>
<polygon id="0x2c02c90" class="l5d22" points="18.2,178.2 61.8,178.2 61.8,221.8 18.2,221.8"/>
<polygon id="0x2c02d50" class="l5d22" points="18.2,258.2 61.8,258.2 61.8,301.8 18.2,301.8"/>
<polygon id="0x2c02e10" class="l5d22" points="18.2,338.2 61.8,338.2 61.8,381.8 18.2,381.8"/>
<polygon id="0x2c02ed0" class="l5d22" points="18.2,418.2 61.8,418.2 61.8,461.8 18.2,461.8"/>
<polygon id="0x2c02f90" class="l5d22" points="18.2,498.2 61.8,498.2 61.8,541.8 18.2,541.8"/>
<polygon id="0x2c03050" class="l5d22" points="18.2,578.2 61.8,578.2 61.8,621.8 18.2,621.8"/>
<polygon id="0x2c03110" class="l5d22" points="18.2,658.2 61.8,658.2 61.8,701.8 18.2,701.8"/>
<polygon id="0x2c031d0" class="l5d22" points="18.2,738.2 61.8,738.2 61.8,781.8 18.2,781.8"/>
<polygon id="0x2c03290" class="l5d22" points="18.2,818.2 61.8,818.2 61.8,861.8 18.2,861.8"/>
<polygon id="0x2c03350" class="l5d22" points="18.2,898.2 61.8,898.2 61.8,941.8 18.2,941.8"/>
<polygon id="0x2c03410" class="l5d22" points="18.2,978.2 61.8,978.2 61.8,1021.8 18.2,1021.8"/>
<polygon id="0x2c034d0" class="l5d22" points="18.2,1058.2 61.8,1058.2 61.8,1101.8 18.2,1101.8"/>
<polygon id="0x2c03590" class="l5d22" points="18.2,1138.2 61.8,1138.2 61.8,1181.8 18.2,1181.8"/>
<polygon id="0x2c03650" class="l5d22" points="98.2,18.2 141.8,18.2 141.8,61.8 98.2,61.8"/>
<polygon id="0x2c03710" class="l5d22" points="98.2,98.2 141.8,98.2 141.8,141.8 98.2,141.8"/>
<polygon id="0x2c037d0" class="l5d22" points="98.2,178.2 141.8,178.2 141.8,221.8 98.2,221.8"/>
<polygon id="0x2c03890" class="l5d22" points="98.2,258.2 141.8,258.2 141.8,301.8 98.2,301.8"/>
<polygon id="0x2c03950" class="l5d22" points="98.2,338.2 141.8,338.2 141.8,381.8 98.2,381.8"/>
<polygon id="0x2c03a10" class="l5d22" points="98.2,418.2 141.8,418.2 141.8,461.8 98.2,461.8"/>
<polygon id="0x2c03ad0" class="l5d22" points="98.2,498.2 141.8,498.2 141.8,541.8 98.2,541.8"/>
<polygon id="0x2c03b90" class="l5d22" points="98.2,578.2 141.8,578.2 141.8,621.8 98.2,621.8"/>
<polygon id="0x2c03c50" class="l5d22" points="98.2,658.2 141.8,658.2 141.8,701.8 98.2,701.8"/>
<polygon id="0x2c03d10" class="l5d22" points="98.2,738.2 141.8,738.2 141.8,781.8 98.2,781.8"/>
<polygon id="0x2c03dd0" class="l5d22" points="98.2,818.2 141.8,818.2 141.8,861.8 98.2,861.8"/>
<polygon id="0x2c03e90" class="l5d22" points="98.2,898.2 141.8,898.2 141.8,941.8 98.2,941.8"/>
<polygon id="0x2c03f50" class="l5d22" points="98.2,978.2 141.8,978.2 141.8,1021.8 98.2,1021.8"/>
<polygon id="0x2c04010" class="l5d22" points="98.2,1058.2 141.8,1058.2 141.8,1101.8 98.2,1101.8"/>
<polygon id="0x2c040d0" class="l5d22" points="98.2,1138.2 141.8,1138.2 141.8,1181.8 98.2,1181.8"/>
<polygon id="0x2c04190" class="l5d22" points="178.2,18.2 221.8,18.2 221.8,61.8 178.2,61.8"/>
<polygon id="0x2c04250" class="l5d22" points="178.2,98.2 221.8,98.2 221.8,141.8 178.2,141.8"/>
<polygon id="0x2c04310" class="l5d22" points="178.2,178.2 221.8,178.2 221.8,221.8 178.2,221.8"/>
<polygon id="0x2c043d0" class="l5d22" points="178.2,258.2 221.8,258.2 221.8,301.8 178.2,301.8"/>
<polygon id="0x2c04490" class="l5d22" points="178.2,338.2 221.8,338.2 221.8,381.8 178.2,381.8"/>
<polygon id="0x2c04550" class="l5d22" points="178.2,418.2 221.8,418.2 221.8,461.8 178.2,461.8"/>
<polygon id="0x2c04610" class="l5d22" points="178.2,498.2 221.8,498.2 221.8,541.8 178.2,541.8"/>
<polygon id="0x2c046d0" class="l5d22" points="178.2,578.2 221.8,578.2 221.8,621.8 178.2,621.8"/>
<polygon id="0x2c04790" class="l5d22" points="178.2,658.2 221.8,658.2 221.8,701.8 178.2,701.8"/>
<polygon id="0x2c04850" class="l5d22" points="178.2,738.2 221.8,738.2 221.8,781.8 178.2,781.8"/>
<polygon id="0x2c04910" class="l5d22" points="178.2,818.2 221.8,818.2 221.8,861.8 178.2,861.8"/>
<polygon id="0x2c049d0" class="l5d22" points="178.2,898.2 221.8,898.2 221.8,941.8 178.2,941.8"/>
<polygon id="0x2c04a90" class="l5d22" points="178.2,978.2 221.8,978.2 221.8,1021.8 178.2,1021.8"/>
<polygon id="0x2c04b50" class="l5d22" points="178.2,1058.2 221.8,1058.2 221.8,1101.8 178.2,1101.8"/>
<polygon id="0x2c04c10" class="l5d22" points="178.2,1138.2 221.8,1138.2 221.8,1181.8 178.2,1181.8"/>
<polygon id="0x2c04cd0" class="l5d22" points="258.2,18.2 301.8,18.2 301.8,61.8 258.2,61.8"/>
<polygon id="0x2c04d90" class="l5d22" points="258.2,98.2 301.8,98.2 301.8,141.8 258.2,141.8"/>
<polygon id="0x2bf6120" class="l5d22" points="258.2,178.2 301.8,178.2 301.8,221.8 258.2,221.8"/>
<polygon id="0x2bf61e0" class="l5d22" points="258.2,258.2 301.8,258.2 301.8,301.8 258.2,301.8"/>
<polygon id="0x2bf62a0" class="l5d22" points="258.2,338.2 301.8,338.2 301.8,381.8 258.2,381.8"/>
<polygon id="0x2bf6360" class="l5d22" points="258.2,418.2 301.8,418.2 301.8,461.8 258.2,461.8"/>
<polygon id="0x2bf6420" class="l5d22" points="258.2,498.2 301.8,498.2 301.8,541.8 258.2,541.8"/>
<polygon id="0x2bf64e0" class="l5d22" points="258.2,578.2 301.8,578.2 301.8,621.8 258.2,621.8"/>
<polygon id="0x2bf65a0" class="l5d22" points="258.2,658.2 301.8,658.2 301.8,701.8 258.2,701.8"/>
<polygon id="0x2bf6660" class="l5d22" points="258.2,738.2 301.8,738.2 301.8,781.8 258.2,781.8"/>
<polygon id="0x2bf6720" class="l5d22" points="258.2,818.2 301.8,818.2 301.8,861.8 258.2,861.8"/>
<polygon id="0x2bf67e0" class="l5d22" points="258.2,898.2 301.8,898.2 301.8,941.8 258.2,941.8"/>
<polygon id="0x2bf68a0" class="l5d22" points="258.2,978.2 301.8,978.2 301.8,1021.8 258.2,1021.8"/>
<polygon id="0x2bf6960" class="l5d22" points="258.2,1058.2 301.8,1058.2 301.8,1101.8 258.2,1101.8"/>
<polygon id="0x2bf6a20" class="l5d22" points="258.2,1138.2 301.8,1138.2 301.8,1181.8 258.2,1181.8"/>
<polygon id="0x2bf6ae0" class="l5d22" points="338.2,18.2 381.8,18.2 381.8,61.8 338.2,61.8"/>
<polygon id="0x2bf6ba0" class="l5d22" points="338.2,98.2 381.8,98.2 381.8,141.8 338.2,141.8"/>
<polygon id="0x2bf6c60" class="l5d22" points="338.2,178.2 381.8,178.2 381.8,221.8 338.2,221.8"/>
<polygon id="0x2bf6d20" class="l5d22" points="338.2,258.2 381.8,258.2 381.8,301.8 338.2,301.8"/>
<polygon id="0x2bf6de0" class="l5d22" points="338.2,338.2 381.8,338.2 381.8,381.8 338.2,381.8"/>
<polygon id="0x2bf6ea0" class="l5d22" points="338.2,418.2 381.8,418.2 381.8,461.8 338.2,461.8"/>
<polygon id="0x2bf6f60" class="l5d22" points="338.2,498.2 381.8,498.2 381.8,541.8 338.2,541.8"/>
<polygon id="0x2bf7020" class="l5d22" points="338.2,578.2 381.8,578.2 381.8,621.8 338.2,621.8"/>
<polygon id="0x2c06e60" class="l5d22" points="338.2,658.2 381.8,658.2 381.8,701.8 338.2,701.8"/>
<polygon id="0x2c06ed0" class="l5d22" points="338.2,738.2 381.8,738.2 381.8,781.8 338.2,781.8"/>
<polygon id="0x2c06f90" class="l5d22" points="338.2,818.2 381.8,818.2 381.8,861.8 338.2,861.8"/>
<polygon id="0x2c07050" class="l5d22" points="338.2,898.2 381.8,898.2 381.8,941.8 338.2,941.8"/>
<polygon id="0x2c07110" class="l5d22" points="338.2,978.2 381.8,978.2 381.8,1021.8 338.2,1021.8"/>
<polygon id="0x2c071d0" class="l5d22" points="338.2,1058.2 381.8,1058.2 381.8,1101.8 338.2,1101.8"/>
<polygon id="0x2c07290" class="l5d22" points="338.2,1138.2 381.8,1138.2 381.8,1181.8 338.2,1181.8"/>
<polygon id="0x2c07350" class="l5d22" points="418.2,18.2 461.8,18.2 461.8,61.8 418.2,61.8"/>
<polygon id="0x2c07410" class="l5d22" points="418.2,98.2 461.8,98.2 461.8,141.8 418.2,141.8"/>
<polygon id="0x2c074d0" class="l5d22" points="418.2,178.2 461.8,178.2 461.8,221.8 418.2,221.8"/>
<polygon id="0x2c07590" class="l5d22" points="418.2,258.2 461.8,258.2 461.8,301.8 418.2,301.8"/>
<polygon id="0x2c07650" class="l5d22" points="418.2,338.2 461.8,338.2 461.8,381.8 418.2,381.8"/>
<polygon id="0x2c07710" class="l5d22" points="418.2,418.2 461.8,418.2 461.8,461.8 418.2,461.8"/>
<polygon id="0x2c077d0" class="l5d22" points="418.2,498.2 461.8,498.2 461.8,541.8 418.2,541.8"/>
<polygon id="0x2c07890" class="l5d22" points="418.2,578.2 461.8,578.2 461.8,621.8 418.2,621.8"/>
<polygon id="0x2c07950" class="l5d22" points="418.2,658.2 461.8,658.2 461.8,701.8 418.2,701.8"/>
<polygon id="0x2c07a10" class="l5d22" points="418.2,738.2 461.8,738.2 461.8,781.8 418.2,781.8"/>
<polygon id="0x2c07ad0" class="l5d22" points="418.2,818.2 461.8,818.2 461.8,861.8 418.2,861.8"/>
<polygon id="0x2c07b90" class="l5d22" points="418.2,898.2 461.8,898.2 461.8,941.8 418.2,941.8"/>
<polygon id="0x2c07c50" class="l5d22" points="418.2,978.2 461.8,978.2 461.8,1021.8 418.2,1021.8"/>
<polygon id="0x2c07d10" class="l5d22" points="418.2,1058.2 461.8,1058.2 461.8,1101.8 418.2,1101.8"/>
<polygon id="0x2c07dd0" class="l5d22" points="418.2,1138.2 461.8,1138.2 461.8,1181.8 418.2,1181.8"/>
<polygon id="0x2c07e90" class="l5d22" points="498.2,18.2 541.8,18.2 541.8,61.8 498.2,61.8"/>
<polygon id="0x2c07f50" class="l5d22" points="498.2,98.2 541.8,98.2 541.8,141.8 498.2,141.8"/>
<polygon id="0x2c08010" class="l5d22" points="498.2,178.2 541.8,178.2 541.8,221.8 498.2,221.8"/>
<polygon id="0x2c080d0" class="l5d22" points="498.2,258.2 541.8,258.2 541.8,301.8 498.2,301.8"/>
<polygon id="0x2c08190" class="l5d22" points="498.2,338.2 541.8,338.2 541.8,381.8 498.2,381.8"/>
<polygon id="0x2c08250" class="l5d22" points="498.2,418.2 541.8,418.2 541.8,461.8 498.2,461.8"/>
<polygon id="0x2c08310" class="l5d22" points="498.2,498.2 541.8,498.2 541.8,541.8 498.2,541.8"/>
<polygon id="0x2c083d0" class="l5d22" points="498.2,578.2 541.8,578.2 541.8,621.8 498.2,621.8"/>
<polygon id="0x2c08490" class="l5d22" points="498.2,658.2 541.8,658.2 541.8,701.8 498.2,701.8"/>
<polygon id="0x2c08550" class="l5d22" points="498.2,738.2 541.8,738.2 541.8,781.8 498.2,781.8"/>
<polygon id="0x2c08610" class="l5d22" points="498.2,818.2 541.8,818.2 541.8,861.8 498.2,861.8"/>
<polygon id="0x2c086d0" class="l5d22" points="498.2,898.2 541.8,898.2 541.8,941.8 498.2,941.8"/>
<polygon id="0x2c08790" class="l5d22" points="498.2,978.2 541.8,978.2 541.8,1021.8 498.2,1021.8"/>
<polygon id="0x2c08850" class="l5d22" points="498.2,1058.2 541.8,1058.2 541.8,1101.8 498.2,1101.8"/>
<polygon id="0x2c08910" class="l5d22" points="498.2,1138.2 541.8,1138.2 541.8,1181.8 498.2,1181.8"/>
<polygon id="0x2c089d0" class="l5d22" points="578.2,18.2 621.8,18.2 621.8,61.8 578.2,61.8"/>
<polygon id="0x2c08a90" class="l5d22" points="578.2,98.2 621.8,98.2 621.8,141.8 578.2,141.8"/>
<polygon id="0x2c08b50" class="l5d22" points="578.2,178.2 621.8,178.2 621.8,221.8 578.2,221.8"/>
<polygon id="0x2c08c10" class="l5d22" points="578.2,258.2 621.8,258.2 621.8,301.8 578.2,301.8"/>
<polygon id="0x2c08cd0" class="l5d22" points="578.2,338.2 621.8,338.2 621.8,381.8 578.2,381.8"/>
<polygon id="0x2c08d90" class="l5d22" points="578.2,418.2 621.8,418.2 621.8,461.8 578.2,461.8"/>
<polygon id="0x2c08e50" class="l5d22" points="578.2,498.2 621.8,498.2 621.8,541.8 578.2,541.8"/>
<polygon id="0x2c08f10" class="l5d22" points="578.2,578.2 621.8,578.2 621.8,621.8 578.2,621.8"/>
<polygon id="0x2c08fd0" class="l5d22" points="578.2,658.2 621.8,658.2 621.8,701.8 578.2,701.8"/>
<polygon id="0x2c09090" class="l5d22" points="578.2,738.2 621.8,738.2 621.8,781.8 578.2,781.8"/>
<polygon id="0x2c09150" class="l5d22" points="578.2,818.2 621.8,818.2 621.8,861.8 578.2,861.8"/>
<polygon id="0x2c09210" class="l5d22" points="578.2,898.2 621.8,898.2 621.8,941.8 578.2,941.8"/>
<polygon id="0x2c092d0" class="l5d22" points="578.2,978.2 621.8,978.2 621.8,1021.8 578.2,1021.8"/>
<polygon id="0x2c09390" class="l5d22" points="578.2,1058.2 621.8,1058.2 621.8,1101.8 578.2,1101.8"/>
<polygon id="0x2c09450" class="l5d22" points="578.2,1138.2 621.8,1138.2 621.8,1181.8 578.2,1181.8"/>
<polygon id="0x2c09510" class="l5d22" points="658.2,18.2 701.8,18.2 701.8,61.8 658.2,61.8"/>
<polygon id="0x2c095d0" class="l5d22" points="658.2,98.2 701.8,98.2 701.8,141.8 658.2,141.8"/>
<polygon id="0x2c09690" class="l5d22" points="658.2,178.2 701.8,178.2 701.8,221.8 658.2,221.8"/>
<polygon id="0x2c09750" class="l5d22" points="658.2,258.2 701.8,258.2 701.8,301.8 658.2,301.8"/>
<polygon id="0x2c09810" class="l5d22" points="658.2,338.2 701.8,338.2 701.8,381.8 658.2,381.8"/>
<polygon id="0x2c098d0" class="l5d22" points="658.2,418.2 701.8,418.2 701.8,461.8 658.2,461.8"/>
<polygon id="0x2c09990" class="l5d22" points="658.2,498.2 701.8,498.2 701.8,541.8 658.2,541.8"/>
<polygon id="0x2c09a50" class="l5d22" points="658.2,578.2 701.8,578.2 701.8,621.8 658.2,621.8"/>
<polygon id="0x2c09b10" class="l5d22" points="658.2,658.2 701.8,658.2 701.8,701.8 658.2,701.8"/>
<polygon id="0x2c09bd0" class="l5d22" points="658.2,738.2 701.8,738.2 701.8,781.8 658.2,781.8"/>
<polygon id="0x2c09c90" class="l5d22" points="658.2,818.2 701.8,818.2 701.8,861.8 658.2,861.8"/>
<polygon id="0x2c09d50" class="l5d22" points="658.2,898.2 701.8,898.2 701.8,941.8 658.2,941.8"/>
<polygon id="0x2c09e10" class="l5d22" points="658.2,978.2 701.8,978.2 701.8,1021.8 658.2,1021.8"/>
<polygon id="0x2c09ed0" class="l5d22" points="658.2,1058.2 701.8,1058.2 701.8,1101.8 658.2,1101.8"/>
<polygon id="0x2c09f90" class="l5d22" points="658.2,1138.2 701.8,1138.2 701.8,1181.8 658.2,1181.8"/>
<polygon id="0x2c0a050" class="l5d22" points="738.2,18.2 781.8,18.2 781.8,61.8 738.2,61.8"/>
<polygon id="0x2c0a110" class="l5d22" points="738.2,98.2 781.8,98.2 781.8,141.8 738.2,141.8"/>
<polygon id="0x2c0a1d0" class="l5d22" points="738.2,178.2 781.8,178.2 781.8,221.8 738.2,221.8"/>
<polygon id="0x2c0a290" class="l5d22" points="738.2,258.2 781.8,258.2 781.8,301.8 738.2,301.8"/>
<polygon id="0x2c0a350" class="l5d22" points="738.2,338.2 781.8,338.2 781.8,381.8 738.2,381.8"/>
<polygon id="0x2c0a410" class="l5d22" points="738.2,418.2 781.8,418.2 781.8,461.8 738.2,461.8"/>
<polygon id="0x2c0a4d0" class="l5d22" points="738.2,498.2 781.8,498.2 781.8,541.8 738.2,541.8"/>
<polygon id="0x2c0a590" class="l5d22" points="738.2,578.2 781.8,578.2 781.8,621.8 738.2,621.8"/>
<polygon id="0x2c0a650" class="l5d22" points="738.2,658.2 781.8,658.2 781.8,701.8 738.2,701.8"/>
<polygon id="0x2c0a710" class="l5d22" points="738.2,738.2 781.8,738.2 781.8,781.8 738.2,781.8"/>
<polygon id="0x2c0a7d0" class="l5d22" points="738.2,818.2 781.8,818.2 781.8,861.8 738.2,861.8"/>
<polygon id="0x2c0a890" class="l5d22" points="738.2,898.2 781.8,898.2 781.8,941.8 738.2,941.8"/>
<polygon id="0x2c0a950" class="l5d22" points="738.2,978.2 781.8,978.2 781.8,1021.8 738.2,1021.8"/>
<polygon id="0x2c0aa10" class="l5d22" points="738.2,1058.2 781.8,1058.2 781.8,1101.8 738.2,1101.8"/>
<polygon id="0x2c0aad0" class="l5d22" points="738.2,1138.2 781.8,1138.2 781.8,1181.8 738.2,1181.8"/>
<polygon id="0x2c0ab90" class="l5d22" points="818.2,18.2 861.8,18.2 861.8,61.8 818.2,61.8"/>
<polygon id="0x2c0ac50" class="l5d22" points="818.2,98.2 861.8,98.2 861.8,141.8 818.2,141.8"/>
<polygon id="0x2c0ad10" class="l5d22" points="818.2,178.2 861.8,178.2 861.8,221.8 818.2,221.8"/>
<polygon id="0x2c0add0" class="l5d22" points="818.2,258.2 861.8,258.2 861.8,301.8 818.2,301.8"/>
<polygon id="0x2c0ae90" class="l5d22" points="818.2,338.2 861.8,338.2 861.8,381.8 818.2,381.8"/>
<polygon id="0x2c0af50" class="l5d22" points="818.2,418.2 861.8,418.2 861.8,461.8 818.2,461.8"/>
<polygon id="0x2c0b010" class="l5d22" points="818.2,498.2 861.8,498.2 861.8,541.8 818.2,541.8"/>
<polygon id="0x2c0b0d0" class="l5d22" points="818.2,578.2 861.8,578.2 861.8,621.8 818.2,621.8"/>
<polygon id="0x2c0b190" class="l5d22" points="818.2,658.2 861.8,658.2 861.8,701.8 818.2,701.8"/>
<polygon id="0x2c0b250" class="l5d22" points="818.2,738.2 861.8,738.2 861.8,781.8 818.2,781.8"/>
<polygon id="0x2c0b310" class="l5d22" points="818.2,818.2 861.8,818.2 861.8,861.8 818.2,861.8"/>
<polygon id="0x2c0b3d0" class="l5d22" points="818.2,898.2 861.8,898.2 861.8,941.8 818.2,941.8"/>
<polygon id="0x2c0b490" class="l5d22" points="818.2,978.2 861.8,978.2 861.8,1021.8 818.2,1021.8"/>
<polygon id="0x2c0b550" class="l5d22" points="818.2,1058.2 861.8,1058.2 861.8,1101.8 818.2,1101.8"/>
<polygon id="0x2c0b610" class="l5d22" points="818.2,1138.2 861.8,1138.2 861.8,1181.8 818.2,1181.8"/>
<polygon id="0x2c0b6d0" class="l5d22" points="898.2,18.2 941.8,18.2 941.8,61.8 898.2,61.8"/>
<polygon id="0x2c0b790" class="l5d22" points="898.2,98.2 941.8,98.2 941.8,141.8 898.2,141.8"/>
<polygon id="0x2c0b850" class="l5d22" points="898.2,178.2 941.8,178.2 941.8,221.8 898.2,221.8"/>
<polygon id="0x2c0b910" class="l5d22" points="898.2,258.2 941.8,258.2 941.8,301.8 898.2,301.8"/>
<polygon id="0x2c0b9d0" class="l5d22" points="898.2,338.2 941.8,338.2 941.8,381.8 898.2,381.8"/>
<polygon id="0x2c0ba90" class="l5d22" points="898.2,418.2 941.8,418.2 941.8,461.8 898.2,461.8"/>
<polygon id="0x2c0bb50" class="l5d22" points="898.2,498.2 941.8,498.2 941.8,541.8 898.2,541.8"/>
<polygon id="0x2c0bc10" class="l5d22" points="898.2,578.2 941.8,578.2 941.8,621.8 898.2,621.8"/>
<polygon id="0x2c0bcd0" class="l5d22" points="898.2,658.2 941.8,658.2 941.8,701.8 898.2,701.8"/>
<polygon id="0x2c0bd90" class="l5d22" points="898.2,738.2 941.8,738.2 941.8,781.8 898.2,781.8"/>
<polygon id="0x2c0be50" class="l5d22" points="898.2,818.2 941.8,818.2 941.8,861.8 898.2,861.8"/>
<polygon id="0x2c0bf10" class="l5d22" points="898.2,898.2 941.8,898.2 941.8,941.8 898.2,941.8"/>
<polygon id="0x2c0bfd0" class="l5d22" points="898.2,978.2 941.8,978.2 941.8,1021.8 898.2,1021.8"/>
<polygon id="0x2c0c090" class="l5d22" points="898.2,1058.2 941.8,1058.2 941.8,1101.8 898.2,1101.8"/>
<polygon id="0x2c0c150" class="l5d22" points="898.2,1138.2 941.8,1138.2 941.8,1181.8 898.2,1181.8"/>
<polygon id="0x2c0c210" class="l5d22" points="978.2,18.2 1021.8,18.2 1021.8,61.8 978.2,61.8"/>
<polygon id="0x2c0c2d0" class="l5d22" points="978.2,98.2 1021.8,98.2 1021.8,141.8 978.2,141.8"/>
<polygon id="0x2c0c390" class="l5d22" points="978.2,178.2 1021.8,178.2 1021.8,221.8 978.2,221.8"/>
<polygon id="0x2c0c450" class="l5d22" points="978.2,258.2 1021.8,258.2 1021.8,301.8 978.2,301.8"/>
<polygon id="0x2c0c510" class="l5d22" points="978.2,338.2 1021.8,338.2 1021.8,381.8 978.2,381.8"/>
<polygon id="0x2c0c5d0" class="l5d22" points="978.2,418.2 1021.8,418.2 1021.8,461.8 978.2,461.8"/>
<polygon id="0x2c0c690" class="l5d22" points="978.2,498.2 1021.8,498.2 1021.8,541.8 978.2,541.8"/>
<polygon id="0x2c0c750" class="l5d22" points="978.2,578.2 1021.8,578.2 1021.8,621.8 978.2,621.8"/>
<polygon id="0x2c0c810" class="l5d22" points="978.2,658.2 1021.8,658.2 1021.8,701.8 978.2,701.8"/>
<polygon id="0x2c0c8d0" class="l5d22" points="978.2,738.2 1021.8,738.2 1021.8,781.8 978.2,781.8"/>
<polygon id="0x2c0c990" class="l5d22" points="978.2,818.2 1021.8,818.2 1021.8,861.8 978.2,861.8"/>
<polygon id="0x2c0ca50" class="l5d22" points="978.2,898.2 1021.8,898.2 1021.8,941.8 978.2,941.8"/>
<polygon id="0x2c0cb10" class="l5d22" points="978.2,978.2 1021.8,978.2 1021.8,1021.8 978.2,1021.8"/>
<polygon id="0x2c0cbd0" class="l5d22" points="978.2,1058.2 1021.8,1058.2 1021.8,1101.8 978.2,1101.8"/>
<polygon id="0x2c0cc90" class="l5d22" points="978.2,1138.2 1021.8,1138.2 1021.8,1181.8 978.2,1181.8"/>
<polygon id="0x2c0cd50" class="l5d22" points="1058.2,18.2 1101.8,18.2 1101.8,61.8 1058.2,61.8"/>
<polygon id="0x2c0ce10" class="l5d22" points="1058.2,98.2 1101.8,98.2 1101.8,141.8 1058.2,141.8"/>
<polygon id="0x2c0ced0" class="l5d22" points="1058.2,178.2 1101.8,178.2 1101.8,221.8 1058.2,221.8"/>
<polygon id="0x2c0cf90" class="l5d22" points="1058.2,258.2 1101.8,258.2 1101.8,301.8 1058.2,301.8"/>
<polygon id="0x2c0d050" class="l5d22" points="1058.2,338.2 1101.8,338.2 1101.8,381.8 1058.2,381.8"/>
<polygon id="0x2c0d110" class="l5d22" points="1058.2,418.2 1101.8,418.2 1101.8,461.8 1058.2,461.8"/>
<polygon id="0x2c0d1d0" class="l5d22" points="1058.2,498.2 1101.8,498.2 1101.8,541.8 1058.2,541.8"/>
<polygon id="0x2c0d290" class="l5d22" points="1058.2,578.2 1101.8,578.2 1101.8,621.8 1058.2,621.8"/>
<polygon id="0x2c0d350" class="l5d22" points="1058.2,658.2 1101.8,658.2 1101.8,701.8 1058.2,701.8"/>
<polygon id="0x2c0d410" class="l5d22" points="1058.2,738.2 1101.8,738.2 1101.8,781.8 1058.2,781.8"/>
<polygon id="0x2c0d4d0" class="l5d22" points="1058.2,818.2 1101.8,818.2 1101.8,861.8 1058.2,861.8"/>
<polygon id="0x2c0d590" class="l5d22" points="1058.2,898.2 1101.8,898.2 1101.8,941.8 1058.2,941.8"/>
<polygon id="0x2c0d650" class="l5d22" points="1058.2,978.2 1101.8,978.2 1101.8,1021.8 1058.2,1021.8"/>
<polygon id="0x2c0d710" class="l5d22" points="1058.2,1058.2 1101.8,1058.2 1101.8,1101.8 1058.2,1101.8"/>
<polygon id="0x2c0d7d0" class="l5d22" points="1058.2,1138.2 1101.8,1138.2 1101.8,1181.8 1058.2,1181.8"/>
<polygon id="0x2c0d890" class="l5d22" points="1138.2,18.2 1181.8,18.2 1181.8,61.8 1138.2,61.8"/>
<polygon id="0x2c0d950" class="l5d22" points="1138.2,98.2 1181.8,98.2 1181.8,141.8 1138.2,141.8"/>
<polygon id="0x2c0da10" class="l5d22" points="1138.2,178.2 1181.8,178.2 1181.8,221.8 1138.2,221.8"/>
<polygon id="0x2c0dad0" class="l5d22" points="1138.2,258.2 1181.8,258.2 1181.8,301.8 1138.2,301.8"/>
<polygon id="0x2c0db90" class="l5d22" points="1138.2,338.2 1181.8,338.2 1181.8,381.8 1138.2,381.8"/>
<polygon id="0x2c0dc50" class="l5d22" points="1138.2,418.2 1181.8,418.2 1181.8,461.8 1138.2,461.8"/>
<polygon id="0x2c0dd10" class="l5d22" points="1138.2,498.2 1181.8,498.2 1181.8,541.8 1138.2,541.8"/>
<polygon id="0x2c0ddd0" class="l5d22" points="1138.2,578.2 1181.8,578.2 1181.8,621.8 1138.2,621.8"/>
<polygon id="0x2c0de90" class="l5d22" points="1138.2,658.2 1181.8,658.2 1181.8,701.8 1138.2,701.8"/>
<polygon id="0x2c0df50" class="l5d22" points="1138.2,738.2 1181.8,738.2 1181.8,781.8 1138.2,781.8"/>
<polygon id="0x2c0e010" class="l5d22" points="1138.2,818.2 1181.8,818.2 1181.8,861.8 1138.2,861.8"/>
<polygon id="0x2c0e0d0" class="l5d22" points="1138.2,898.2 1181.8,898.2 1181.8,941.8 1138.2,941.8"/>
<polygon id="0x2c0e190" class="l5d22" points="1138.2,978.2 1181.8,978.2 1181.8,1021.8 1138.2,1021.8"/>
<polygon id="0x2c0e250" class="l5d22" points="1138.2,1058.2 1181.8,1058.2 1181.8,1101.8 1138.2,1101.8"/>
<polygon id="0x2c0e310" class="l5d22" points="1138.2,1138.2 1181.8,1138.2 1181.8,1181.8 1138.2,1181.8"/>
<polygon id="0x2c0e3d0" class="l5d22" points="1218.2,18.2 1261.8,18.2 1261.8,61.8 1218.2,61.8"/>
<polygon id="0x2c0e490" class="l5d22" points="1218.2,98.2 1261.8,98.2 1261.8,141.8 1218.2,141.8"/>
<polygon id="0x2c0e550" class="l5d22" points="1218.2,178.2 1261.8,178.2 1261.8,221.8 1218.2,221.8"/>
<polygon id="0x2c0e610" class="l5d22" points="1218.2,258.2 1261.8,258.2 1261.8,301.8 1218.2,301.8"/>
<polygon id="0x2c0e6d0" class="l5d22" points="1218.2,338.2 1261.8,338.2 1261.8,381.8 1218.2,381.8"/>
<polygon id="0x2c0e790" class="l5d22" points="1218.2,418.2 1261.8,418.2 1261.8,461.8 1218.2,461.8"/>
<polygon id="0x2c0e850" class="l5d22" points="1218.2,498.2 1261.8,498.2 1261.8,541.8 1218.2,541.8"/>
<polygon id="0x2c0e910" class="l5d22" points="1218.2,578.2 1261.8,578.2 1261.8,621.8 1218.2,621.8"/>
<polygon id="0x2c0e9d0" class="l5d22" points="1218.2,658.2 1261.8,658.2 1261.8,701.8 1218.2,701.8"/>
<polygon id="0x2c0ea90" class="l5d22" points="1218.2,738.2 1261.8,738.2 1261.8,781.8 1218.2,781.8"/>
<polygon id="0x2c0eb50" class="l5d22" points="1218.2,818.2 1261.8,818.2 1261.8,861.8 1218.2,861.8"/>
<polygon id="0x2c0ec10" class="l5d22" points="1218.2,898.2 1261.8,898.2 1261.8,941.8 1218.2,941.8"/>
<polygon id="0x2c0ecd0" class="l5d22" points="1218.2,978.2 1261.8,978.2 1261.8,1021.8 1218.2,1021.8"/>
<polygon id="0x2c0ed90" class="l5d22" points="1218.2,1058.2 1261.8,1058.2 1261.8,1101.8 1218.2,1101.8"/>
<polygon id="0x2c0ee50" class="l5d22" points="1218.2,1138.2 1261.8,1138.2 1261.8,1181.8 1218.2,1181.8"/>
<polygon id="0x2c0ef10" class="l5d22" points="1298.2,18.2 1341.8,18.2 1341.8,61.8 1298.2,61.8"/>
<polygon id="0x2c0efd0" class="l5d22" points="1298.2,98.2 1341.8,98.2 1341.8,141.8 1298.2,141.8"/>
<polygon id="0x2c0f090" class="l5d22" points="1298.2,178.2 1341.8,178.2 1341.8,221.8 1298.2,221.8"/>
<polygon id="0x2c0f150" class="l5d22" points="1298.2,258.2 1341.8,258.2 1341.8,301.8 1298.2,301.8"/>
<polygon id="0x2c0f210" class="l5d22" points="1298.2,338.2 1341.8,338.2 1341.8,381.8 1298.2,381.8"/>
<polygon id="0x2c0f2d0" class="l5d22" points="1298.2,418.2 1341.8,418.2 1341.8,461.8 1298.2,461.8"/>
<polygon id="0x2c0f390" class="l5d22" points="1298.2,498.2 1341.8,498.2 1341.8,541.8 1298.2,541.8"/>
<polygon id="0x2c0f450" class="l5d22" points="1298.2,578.2 1341.8,578.2 1341.8,621.8 1298.2,621.8"/>
<polygon id="0x2c0f510" class="l5d22" points="1298.2,658.2 1341.8,658.2 1341.8,701.8 1298.2,701.8"/>
<polygon id="0x2c0f5d0" class="l5d22" points="1298.2,738.2 1341.8,738.2 1341.8,781.8 1298.2,781.8"/>
<polygon id="0x2c0f690" class="l5d22" points="1298.2,818.2 1341.8,818.2 1341.8,861.8 1298.2,861.8"/>
<polygon id="0x2c0f750" class="l5d22" points="1298.2,898.2 1341.8,898.2 1341.8,941.8 1298.2,941.8"/>
<polygon id="0x2c0f810" class="l5d22" points="1298.2,978.2 1341.8,978.2 1341.8,1021.8 1298.2,1021.8"/>
<polygon id="0x2c0f8d0" class="l5d22" points="1298.2,1058.2 1341.8,1058.2 1341.8,1101.8 1298.2,1101.8"/>
<polygon id="0x2c0f990" class="l5d22" points="1298.2,1138.2 1341.8,1138.2 1341.8,1181.8 1298.2,1181.8"/>
<polygon id="0x2c0fa50" class="l5d22" points="1378.2,18.2 1421.8,18.2 1421.8,61.8 1378.2,61.8"/>
<polygon id="0x2c0fb10" class="l5d22" points="1378.2,98.2 1421.8,98.2 1421.8,141.8 1378.2,141.8"/>
<polygon id="0x2c0fbd0" class="l5d22" points="1378.2,178.2 1421.8,178.2 1421.8,221.8 1378.2,221.8"/>
<polygon id="0x2c0fc90" class="l5d22" points="1378.2,258.2 1421.8,258.2 1421.8,301.8 1378.2,301.8"/>
<polygon id="0x2c0fd50" class="l5d22" points="1378.2,338.2 1421.8,338.2 1421.8,381.8 1378.2,381.8"/>
<polygon id="0x2c0fe10" class="l5d22" points="1378.2,418.2 1421.8,418.2 1421.8,461.8 1378.2,461.8"/>
<polygon id="0x2c0fed0" class="l5d22" points="1378.2,498.2 1421.8,498.2 1421.8,541.8 1378.2,541.8"/>
<polygon id="0x2c0ff90" class="l5d22" points="1378.2,578.2 1421.8,578.2 1421.8,621.8 1378.2,621.8"/>
<polygon id="0x2c10050" class="l5d22" points="1378.2,658.2 1421.8,658.2 1421.8,701.8 1378.2,701.8"/>
<polygon id="0x2c10110" class="l5d22" points="1378.2,738.2 1421.8,738.2 1421.8,781.8 1378.2,781.8"/>
<polygon id="0x2c101d0" class="l5d22" points="1378.2,818.2 1421.8,818.2 1421.8,861.8 1378.2,861.8"/>
<polygon id="0x2c10290" class="l5d22" points="1378.2,898.2 1421.8,898.2 1421.8,941.8 1378.2,941.8"/>
<polygon id="0x2c10350" class="l5d22" points="1378.2,978.2 1421.8,978.2 1421.8,1021.8 1378.2,1021.8"/>
<polygon id="0x2c10410" class="l5d22" points="1378.2,1058.2 1421.8,1058.2 1421.8,1101.8 1378.2,1101.8"/>
<polygon id="0x2c104d0" class="l5d22" points="1378.2,1138.2 1421.8,1138.2 1421.8,1181.8 1378.2,1181.8"/>
<polygon id="0x2c10590" class="l5d22" points="1458.2,18.2 1501.8,18.2 1501.8,61.8 1458.2,61.8"/>
<polygon id="0x2c10650" class="l5d22" points="1458.2,98.2 1501.8,98.2 1501.8,141.8 1458.2,141.8"/>
<polygon id="0x2c10710" class="l5d22" points="1458.2,178.2 1501.8,178.2 1501.8,221.8 1458.2,221.8"/>
<polygon id="0x2c107d0" class="l5d22" points="1458.2,258.2 1501.8,258.2 1501.8,301.8 1458.2,301.8"/>
<polygon id="0x2c10890" class="l5d22" points="1458.2,338.2 1501.8,338.2 1501.8,381.8 1458.2,381.8"/>
<polygon id="0x2c10950" class="l5d22" points="1458.2,418.2 1501.8,418.2 1501.8,461.8 1458.2,461.8"/>
<polygon id="0x2c10a10" class="l5d22" points="1458.2,498.2 1501.8,498.2 1501.8,541.8 1458.2,541.8"/>
<polygon id="0x2c10ad0" class="l5d22" points="1458.2,578.2 1501.8,578.2 1501.8,621.8 1458.2,621.8"/>
<polygon id="0x2c10b90" class="l5d22" points="1458.2,658.2 1501.8,658.2 1501.8,701.8 1458.2,701.8"/>
<polygon id="0x2c10c50" class="l5d22" points="1458.2,738.2 1501.8,738.2 1501.8,781.8 1458.2,781.8"/>
<polygon id="0x2c10d10" class="l5d22" points="1458.2,818.2 1501.8,818.2 1501.8,861.8 1458.2,861.8"/>
<polygon id="0x2c10dd0" class="l5d22" points="1458.2,898.2 1501.8,898.2 1501.8,941.8 1458.2,941.8"/>
<polygon id="0x2c10e90" class="l5d22" points="1458.2,978.2 1501.8,978.2 1501.8,1021.8 1458.2,1021.8"/>
<polygon id="0x2c10f50" class="l5d22" points="1458.2,1058.2 1501.8,1058.2 1501.8,1101.8 1458.2,1101.8"/>
<polygon id="0x2c11010" class="l5d22" points="1458.2,1138.2 1501.8,1138.2 1501.8,1181.8 1458.2,1181.8"/>
<polygon id="0x2c110d0" class="l5d22" points="1538.2,18.2 1581.8,18.2 1581.8,61.8 1538.2,61.8"/>
<polygon id="0x2c11190" class="l5d22" points="1538.2,98.2 1581.8,98.2 1581.8,141.8 1538.2,141.8"/>
<polygon id="0x2c11250" class="l5d22" points="1538.2,178.2 1581.8,178.2 1581.8,221.8 1538.2,221.8"/>
<polygon id="0x2c11310" class="l5d22" points="1538.2,258.2 1581.8,258.2 1581.8,301.8 1538.2,301.8"/>
<polygon id="0x2c113d0" class="l5d22" points="1538.2,338.2 1581.8,338.2 1581.8,381.8 1538.2,381.8"/>
<polygon id="0x2c11490" class="l5d22" points="1538.2,418.2 1581.8,418.2 1581.8,461.8 1538.2,461.8"/>
<polygon id="0x2c11550" class="l5d22" points="1538.2,498.2 1581.8,498.2 1581.8,541.8 1538.2,541.8"/>
<polygon id="0x2c11610" class="l5d22" points="1538.2,578.2 1581.8,578.2 1581.8,621.8 1538.2,621.8"/>
<polygon id="0x2c116d0" class="l5d22" points="1538.2,658.2 1581.8,658.2 1581.8,701.8 1538.2,701.8"/>
<polygon id="0x2c11790" class="l5d22" points="1538.2,738.2 1581.8,738.2 1581.8,781.8 1538.2,781.8"/>
<polygon id="0x2c11850" class="l5d22" points="1538.2,818.2 1581.8,818.2 1581.8,861.8 1538.2,861.8"/>
<polygon id="0x2c11910" class="l5d22" points="1538.2,898.2 1581.8,898.2 1581.8,941.8 1538.2,941.8"/>
<polygon id="0x2c119d0" class="l5d22" points="1538.2,978.2 1581.8,978.2 1581.8,1021.8 1538.2,1021.8"/>
<polygon id="0x2c11a90" class="l5d22" points="1538.2,1058.2 1581.8,1058.2 1581.8,1101.8 1538.2,1101.8"/>
<polygon id="0x2c11b50" class="l5d22" points="1538.2,1138.2 1581.8,1138.2 1581.8,1181.8 1538.2,1181.8"/>
</g>
</svg>