<?xml version="1.0" encoding="UTF-8"?>
<svg xmlns="http://www.w3.org/2000/svg" xmlns:xlink="http://www.w3.org/1999/xlink" width="1760" height="1360" viewBox="-80 -1280 1760 1360">
<defs>
<style type="text/css">
.l126d0 {stroke: #E68FAC; fill: #E68FAC; fill-opacity: 0.5;}
.l189d4 {stroke: #A1CAF1; fill: #A1CAF1; fill-opacity: 0.5;}
</style>
</defs>
<rect x="-80" y="-1280" width="1760" height="1360" fill="#222222" stroke="none"/>
<g id="my_logo" transform="scale(1 -1)">
<polygon id="0x2b6f010" class="l126d0" points="0,20 240,20 240,60 0,60"/>
<polygon id="0x2b7ec70" class="l126d0" points="480,20 560,20 560,60 480,60"/>
<polygon id="0x2bc1c30" class="l126d0" points="640,20 800,20 800,60 640,60"/>
<polygon id="0x29e4f70" class="l126d0" points="880,20 1040,20 1040,60 880,60"/>
<polygon id="0x2c93fa0" class="l126d0" points="1280,20 1440,20 1440,60 1280,60"/>
<polygon id="0x2d1da30" class="l126d0" points="1520,20 1600,20 1600,60 1520,60"/>
<polygon id="0x2c83900" class="l126d0" points="80,100 160,100 160,140 80,140"/>
<polygon id="0x2d0ffa0" class="l126d0" points="400,100 480,100 480,140 400,140"/>
<polygon id="0x2adfe60" class="l126d0" points="560,100 640,100 640,140 560,140"/>
<polygon id="0x2ce27f0" class="l126d0" points="720,100 800,100 800,140 720,140"/>
<polygon id="0x2d0ea50" class="l126d0" points="880,100 960,100 960,140 880,140"/>
<polygon id="0x2d48610" class="l126d0" points="1040,100 1120,100 1120,140 1040,140"/>
<polygon id="0x2cb2fa0" class="l126d0" points="1200,100 1360,100 1360,140 1200,140"/>
<polygon id="0x2d07300" class="l126d0" points="0,180 80,180 80,220 0,220"/>
<polygon id="0x2b54c30" class="l126d0" points="160,180 400,180 400,220 160,220"/>
<polygon id="0x2cf1fd0" class="l126d0" points="480,180 560,180 560,220 480,220"/>
<polygon id="0x2ce2ec0" class="l126d0" points="720,180 800,180 800,220 720,220"/>
<polygon id="0x2c74c70" class="l126d0" points="1120,180 1200,180 1200,220 1120,220"/>
<polygon id="0x2d0d370" class="l126d0" points="1360,180 1440,180 1440,220 1360,220"/>
<polygon id="0x2c89990" class="l126d0" points="0,260 80,260 80,300 0,300"/>
<polygon id="0x2c95d80" class="l126d0" points="160,260 560,260 560,300 160,300"/>
<polygon id="0x2c9b480" class="l126d0" points="640,260 880,260 880,300 640,300"/>
<polygon id="0x2cdd410" class="l126d0" points="1200,260 1280,260 1280,300 1200,300"/>
<polygon id="0x2cedb80" class="l126d0" points="1520,260 1600,260 1600,300 1520,300"/>
<polygon id="0x2ce1250" class="l126d0" points="320,340 480,340 480,380 320,380"/>
<polygon id="0x2a798e0" class="l126d0" points="640,340 800,340 800,380 640,380"/>
<polygon id="0x2b20130" class="l126d0" points="880,340 960,340 960,380 880,380"/>
<polygon id="0x2c4bf40" class="l126d0" points="1200,340 1600,340 1600,380 1200,380"/>
<polygon id="0x2cac990" class="l126d0" points="0,420 240,420 240,460 0,460"/>
<polygon id="0x2cdb6a0" class="l126d0" points="320,420 480,420 480,460 320,460"/>
<polygon id="0x2cdb710" class="l126d0" points="560,420 640,420 640,460 560,460"/>
<polygon id="0x2d22390" class="l126d0" points="720,420 800,420 800,460 720,460"/>
<polygon id="0x2af0cd0" class="l126d0" points="960,420 1120,420 1120,460 960,460"/>
<polygon id="0x2d3fea0" class="l126d0" points="1360,420 1600,420 1600,460 1360,460"/>
<polygon id="0x2d3ff60" class="l126d0" points="0,500 80,500 80,540 0,540"/>
<polygon id="0x2d40020" class="l126d0" points="160,500 320,500 320,540 160,540"/>
<polygon id="0x2d400e0" class="l126d0" points="400,500 1200,500 1200,540 400,540"/>
<polygon id="0x2d401a0" class="l126d0" points="1440,500 1520,500 1520,540 1440,540"/>
<polygon id="0x2d40260" class="l126d0" points="0,580 80,580 80,620 0,620"/>
<polygon id="0x2d40320" class="l126d0" points="160,580 240,580 240,620 160,620"/>
<polygon id="0x2d403e0" class="l126d0" points="320,580 720,580 720,620 320,620"/>
<polygon id="0x2d404a0" class="l126d0" points="880,580 960,580 960,620 880,620"/>
<polygon id="0x2d40560" class="l126d0" points="1200,580 1280,580 1280,620 1200,620"/>
<polygon id="0x2d40620" class="l126d0" points="1520,580 1600,580 1600,620 1520,620"/>
<polygon id="0x2d406e0" class="l126d0" points="0,660 80,660 80,700 0,700"/>
<polygon id="0x2d407a0" class="l126d0" points="160,660 480,660 480,700 160,700"/>
<polygon id="0x2d40860" class="l126d0" points="560,660 880,660 880,700 560,700"/>
<polygon id="0x2d40920" class="l126d0" points="960,660 1120,660 1120,700 960,700"/>
<polygon id="0x2d409e0" class="l126d0" points="1360,660 1520,660 1520,700 1360,700"/>
<polygon id="0x2d40aa0" class="l126d0" points="160,740 560,740 560,780 160,780"/>
<polygon id="0x2d40b60" class="l126d0" points="720,740 880,740 880,780 720,780"/>
<polygon id="0x2d40c20" class="l126d0" points="1040,740 1200,740 1200,780 1040,780"/>
<polygon id="0x2d40ce0" class="l126d0" points="1440,740 1600,740 1600,780 1440,780"/>
<polygon id="0x2d40da0" class="l126d0" points="0,820 160,820 160,860 0,860"/>
<polygon id="0x2d40e60" class="l126d0" points="240,820 320,820 320,860 240,860"/>
<polygon id="0x2d40f20" class="l126d0" points="480,820 720,820 720,860 480,860"/>
<polygon id="0x2d40fe0" class="l126d0" points="880,820 1040,820 1040,860 880,860"/>
<polygon id="0x2d410a0" class="l126d0" points="1120,820 1280,820 1280,860 1120,860"/>
<polygon id="0x2d41160" class="l126d0" points="0,900 160,900 160,940 0,940"/>
<polygon id="0x2d41220" class="l126d0" points="240,900 320,900 320,940 240,940"/>
<polygon id="0x2d412e0" class="l126d0" points="400,900 480,900 480,940 400,940"/>
<polygon id="0x2d413a0" class="l126d0" points="560,900 880,900 880,940 560,940"/>
<polygon id="0x2d41460" class="l126d0" points="1040,900 1360,900 1360,940 1040,940"/>
<polygon id="0x2d41520" class="l126d0" points="160,980 320,980 320,1020 160,1020"/>
<polygon id="0x2d415e0" class="l126d0" points="640,980 960,980 960,1020 640,1020"/>
<polygon id="0x2b66160" class="l126d0" points="1040,980 1120,980 1120,1020 1040,1020"/>
<polygon id="0x2b5a2f0" class="l126d0" points="1280,980 1600,980 1600,1020 1280,1020"/>
<polygon id="0x2c2aaf0" class="l126d0" points="400,1060 800,1060 800,1100 400,1100"/>
<polygon id="0x2cf0ca0" class="l126d0" points="880,1060 960,1060 960,1100 880,1100"/>
<polygon id="0x2ca5bd0" class="l126d0" points="1040,1060 1120,1060 1120,1100 1040,1100"/>
<polygon id="0x2b16820" class="l126d0" points="1200,1060 1440,1060 1440,1100 1200,1100"/>
<polygon id="0x2b8d1b0" class="l126d0" points="1520,1060 1600,1060 1600,1100 1520,1100"/>
<polygon id="0x2c6ab60" class="l126d0" points="80,1140 160,1140 160,1180 80,1180"/>
<polygon id="0x2cbc030" class="l126d0" points="560,1140 640,1140 640,1180 560,1180"/>
<polygon id="0x2c86f40" class="l126d0" points="720,1140 880,1140 880,1180 720,1180"/>
<polygon id="0x2c9cc50" class="l126d0" points="1120,1140 1280,1140 1280,1180 1120,1180"/>
<polygon id="0x2d18820" class="l126d0" points="1360,1140 1600,1140 1600,1180 1360,1180"/>
<polygon id="0x2b40aa0" class="l126d0" points="20,80 60,80 60,160 20,160"/>
<polygon id="0x2b8c360" class="l126d0" points="20,320 60,320 60,400 20,400"/>
<polygon id="0x2badae0" class="l126d0" points="20,720 60,720 60,800 20,800"/>
<polygon id="0x2badb50" class="l126d0" points="20,960 60,960 60,1200 20,1200"/>
<polygon id="0x2c18700" class="l126d0" points="100,160 140,160 140,400 100,400"/>
<polygon id="0x2c6d570" class="l126d0" points="100,480 140,480 140,800 100,800"/>
<polygon id="0x2c85fd0" class="l126d0" points="100,960 140,960 140,1120 100,1120"/>
<polygon id="0x2c86040" class="l126d0" points="180,80 220,80 220,160 180,160"/>
<polygon id="0x2cada10" class="l126d0" points="180,320 220,320 220,400 180,400"/>
<polygon id="0x2c9fd30" class="l126d0" points="180,800 220,800 220,960 180,960"/>
<polygon id="0x2ced1a0" class="l126d0" points="180,1040 220,1040 220,1200 180,1200"/>
<polygon id="0x2ced210" class="l126d0" points="260,0 300,0 300,160 260,160"/>
<polygon id="0x2ce3560" class="l126d0" points="260,320 300,320 300,480 260,480"/>
<polygon id="0x2d21a50" class="l126d0" points="260,560 300,560 300,640 260,640"/>
<polygon id="0x2aafb40" class="l126d0" points="260,1040 300,1040 300,1200 260,1200"/>
<polygon id="0x2aafbb0" class="l126d0" points="340,0 380,0 380,160 340,160"/>
<polygon id="0x29f8320" class="l126d0" points="340,480 380,480 380,560 340,560"/>
<polygon id="0x2b070b0" class="l126d0" points="340,800 380,800 380,1200 340,1200"/>
<polygon id="0x2b4a8c0" class="l126d0" points="420,0 460,0 460,80 420,80"/>
<polygon id="0x2b87e50" class="l126d0" points="420,160 460,160 460,240 420,240"/>
<polygon id="0x2c5a3d0" class="l126d0" points="420,800 460,800 460,880 420,880"/>
<polygon id="0x2c8cb80" class="l126d0" points="420,960 460,960 460,1040 420,1040"/>
<polygon id="0x2cfb480" class="l126d0" points="420,1120 460,1120 460,1200 420,1200"/>
<polygon id="0x2d11800" class="l126d0" points="500,80 540,80 540,160 500,160"/>
<polygon id="0x2ad2d40" class="l126d0" points="500,320 540,320 540,480 500,480"/>
<polygon id="0x2ad2e00" class="l126d0" points="500,640 540,640 540,720 500,720"/>
<polygon id="0x2af3bf0" class="l126d0" points="500,880 540,880 540,1040 500,1040"/>
<polygon id="0x2af3cb0" class="l126d0" points="500,1120 540,1120 540,1200 500,1200"/>
<polygon id="0x2b0bee0" class="l126d0" points="580,0 620,0 620,80 580,80"/>
<polygon id="0x2b0bfa0" class="l126d0" points="580,160 620,160 620,400 580,400"/>
<polygon id="0x2b3bb10" class="l126d0" points="580,720 620,720 620,800 580,800"/>
<polygon id="0x2b3bbd0" class="l126d0" points="580,960 620,960 620,1040 580,1040"/>
<polygon id="0x2ba8ff0" class="l126d0" points="660,80 700,80 700,240 660,240"/>
<polygon id="0x2ba90b0" class="l126d0" points="660,400 700,400 700,480 660,480"/>
<polygon id="0x2ba1700" class="l126d0" points="660,720 700,720 700,800 660,800"/>
<polygon id="0x2ba17c0" class="l126d0" points="660,1120 700,1120 700,1200 660,1200"/>
<polygon id="0x2c1b180" class="l126d0" points="740,560 780,560 780,640 740,640"/>
<polygon id="0x2c1b240" class="l126d0" points="740,800 780,800 780,880 740,880"/>
<polygon id="0x2c18c00" class="l126d0" points="820,0 860,0 860,240 820,240"/>
<polygon id="0x2c18cc0" class="l126d0" points="820,320 860,320 860,480 820,480"/>
<polygon id="0x2bad7b0" class="l126d0" points="820,560 860,560 860,640 820,640"/>
<polygon id="0x2c696a0" class="l126d0" points="820,800 860,800 860,880 820,880"/>
<polygon id="0x2c69760" class="l126d0" points="820,1040 860,1040 860,1120 820,1120"/>
<polygon id="0x2a24de0" class="l126d0" points="900,160 940,160 940,320 900,320"/>
<polygon id="0x2cadfd0" class="l126d0" points="900,400 940,400 940,480 900,480"/>
<polygon id="0x2cae090" class="l126d0" points="900,640 940,640 940,800 900,800"/>
<polygon id="0x2cb1f30" class="l126d0" points="900,880 940,880 940,960 900,960"/>
<polygon id="0x2c98370" class="l126d0" points="900,1120 940,1120 940,1200 900,1200"/>
<polygon id="0x2c98430" class="l126d0" points="980,80 1020,80 1020,400 980,400"/>
<polygon id="0x2abd100" class="l126d0" points="980,560 1020,560 1020,640 980,640"/>
<polygon id="0x2ade0b0" class="l126d0" points="980,720 1020,720 1020,800 980,800"/>
<polygon id="0x2ade120" class="l126d0" points="980,880 1020,880 1020,1200 980,1200"/>
<polygon id="0x2ae8440" class="l126d0" points="1060,0 1100,0 1100,80 1060,80"/>
<polygon id="0x2ae8500" class="l126d0" points="1060,160 1100,160 1100,400 1060,400"/>
<polygon id="0x2b2c1b0" class="l126d0" points="1060,560 1100,560 1100,640 1060,640"/>
<polygon id="0x2c23610" class="l126d0" points="1060,800 1100,800 1100,880 1060,880"/>
<polygon id="0x2c23680" class="l126d0" points="1060,1120 1100,1120 1100,1200 1060,1200"/>
<polygon id="0x2c73870" class="l126d0" points="1140,0 1180,0 1180,160 1140,160"/>
<polygon id="0x2c73930" class="l126d0" points="1140,240 1180,240 1180,480 1140,480"/>
<polygon id="0x2cebdc0" class="l126d0" points="1140,560 1180,560 1180,720 1140,720"/>
<polygon id="0x2ce43f0" class="l126d0" points="1140,960 1180,960 1180,1120 1140,1120"/>
<polygon id="0x2ce4460" class="l126d0" points="1220,0 1260,0 1260,80 1220,80"/>
<polygon id="0x2b1d280" class="l126d0" points="1220,160 1260,160 1260,240 1220,240"/>
<polygon id="0x2b1d340" class="l126d0" points="1220,400 1260,400 1260,560 1220,560"/>
<polygon id="0x2acea90" class="l126d0" points="1220,640 1260,640 1260,800 1220,800"/>
<polygon id="0x2baba50" class="l126d0" points="1220,960 1260,960 1260,1040 1220,1040"/>
<polygon id="0x2babb10" class="l126d0" points="1300,160 1340,160 1340,320 1300,320"/>
<polygon id="0x2c19210" class="l126d0" points="1300,400 1340,400 1340,880 1300,880"/>
<polygon id="0x2c192d0" class="l126d0" points="1300,1120 1340,1120 1340,1200 1300,1200"/>
<polygon id="0x2c271b0" class="l126d0" points="1380,80 1420,80 1420,160 1380,160"/>
<polygon id="0x2c78480" class="l126d0" points="1380,240 1420,240 1420,320 1380,320"/>
<polygon id="0x2c78540" class="l126d0" points="1380,480 1420,480 1420,640 1380,640"/>
<polygon id="0x2b16cc0" class="l126d0" points="1380,720 1420,720 1420,960 1380,960"/>
<polygon id="0x2b16d80" class="l126d0" points="1460,0 1500,0 1500,320 1460,320"/>
<polygon id="0x2bf6b80" class="l126d0" points="1460,560 1500,560 1500,640 1460,640"/>
<polygon id="0x2bf6c40" class="l126d0" points="1460,800 1500,800 1500,960 1460,960"/>
<polygon id="0x2ce92e0" class="l126d0" points="1460,1040 1500,1040 1500,1120 1460,1120"/>
<polygon id="0x2ce93a0" class="l126d0" points="1540,80 1580,80 1580,240 1540,240"/>
<polygon id="0x2d18d60" class="l126d0" points="1540,480 1580,480 1580,560 1540,560"/>
<polygon id="0x2d18e20" class="l126d0" points="1540,640 1580,640 1580,720 1540,720"/>
<polygon id="0x2d1ec20" class="l126d0" points="1540,800 1580,800 1580,960 1540,960"/>
<polygon id="0x2d1ece0" class="l189d4" points="0,0 300,0 300,300 0,300"/>
</g>
</svg>