<?xml version="1.0" encoding="UTF-8"?>
<svg xmlns="http://www.w3.org/2000/svg" xmlns:xlink="http://www.w3.org/1999/xlink" width="1760" height="1360" viewBox="-80 -1280 1760 1360">
<defs>
<style type="text/css">
.l1d22 {stroke: #0067A5; fill: #0067A5; fill-opacity: 0.5;}
.l5d22 {stroke: #B3446C; fill: #B3446C; fill-opacity: 0.5;}
.l126d0 {stroke: #E68FAC; fill: #E68FAC; fill-opacity: 0.5;}
.l189d4 {stroke: #A1CAF1; fill: #A1CAF1; fill-opacity: 0.5;}
</style>
</defs>
<rect x="-80" y="-1280" width="1760" height="1360" fill="#222222" stroke="none"/>
<g id="my_logo" transform="scale(1 -1)">
<polygon id="0xd751b0" class="l126d0" points="0,20 160,20 160,60 0,60"/>
<polygon id="0xd7c140" class="l126d0" points="400,20 480,20 480,60 400,60"/>
<polygon id="0xd86690" class="l126d0" points="640,20 960,20 960,60 640,60"/>
<polygon id="0xd95fe0" class="l126d0" points="1200,20 1440,20 1440,60 1200,60"/>
<polygon id="0xe89840" class="l126d0" points="1520,20 1600,20 1600,60 1520,60"/>
<polygon id="0xf33e80" class="l126d0" points="240,100 320,100 320,140 240,140"/>
<polygon id="0xdc0030" class="l126d0" points="400,100 640,100 640,140 400,140"/>
<polygon id="0xda0730" class="l126d0" points="800,100 960,100 960,140 800,140"/>
<polygon id="0xe36230" class="l126d0" points="1040,100 1120,100 1120,140 1040,140"/>
<polygon id="0xe8bbd0" class="l126d0" points="1200,100 1280,100 1280,140 1200,140"/>
<polygon id="0xedefb0" class="l126d0" points="1360,100 1520,100 1520,140 1360,140"/>
<polygon id="0xec19f0" class="l126d0" points="160,180 480,180 480,220 160,220"/>
<polygon id="0xf26020" class="l126d0" points="560,180 640,180 640,220 560,220"/>
<polygon id="0xea8040" class="l126d0" points="720,180 880,180 880,220 720,220"/>
<polygon id="0xef8870" class="l126d0" points="1120,180 1200,180 1200,220 1120,220"/>
<polygon id="0xf37640" class="l126d0" points="1280,180 1440,180 1440,220 1280,220"/>
<polygon id="0xf5daa0" class="l126d0" points="1520,180 1600,180 1600,220 1520,220"/>
<polygon id="0xdd9110" class="l126d0" points="0,260 480,260 480,300 0,300"/>
<polygon id="0xd2e890" class="l126d0" points="640,260 880,260 880,300 640,300"/>
<polygon id="0xe28290" class="l126d0" points="960,260 1040,260 1040,300 960,300"/>
<polygon id="0xf08050" class="l126d0" points="1200,260 1280,260 1280,300 1200,300"/>
<polygon id="0xf20150" class="l126d0" points="1440,260 1600,260 1600,300 1440,300"/>
<polygon id="0xf233f0" class="l126d0" points="80,340 160,340 160,380 80,380"/>
<polygon id="0xe41f50" class="l126d0" points="320,340 480,340 480,380 320,380"/>
<polygon id="0xe5fa00" class="l126d0" points="560,340 640,340 640,380 560,380"/>
<polygon id="0xea0b00" class="l126d0" points="720,340 880,340 880,380 720,380"/>
<polygon id="0xeb1460" class="l126d0" points="1360,340 1520,340 1520,380 1360,380"/>
<polygon id="0xef3490" class="l126d0" points="0,420 80,420 80,460 0,460"/>
<polygon id="0xf03c00" class="l126d0" points="240,420 480,420 480,460 240,460"/>
<polygon id="0xef72d0" class="l126d0" points="560,420 640,420 640,460 560,460"/>
<polygon id="0xc92d60" class="l126d0" points="1120,420 1280,420 1280,460 1120,460"/>
<polygon id="0xd1f960" class="l126d0" points="1360,420 1440,420 1440,460 1360,460"/>
<polygon id="0xd287b0" class="l126d0" points="80,500 160,500 160,540 80,540"/>
<polygon id="0xf562f0" class="l126d0" points="480,500 560,500 560,540 480,540"/>
<polygon id="0xf563b0" class="l126d0" points="640,500 720,500 720,540 640,540"/>
<polygon id="0xf56470" class="l126d0" points="880,500 1040,500 1040,540 880,540"/>
<polygon id="0xf56530" class="l126d0" points="1120,500 1200,500 1200,540 1120,540"/>
<polygon id="0xf565f0" class="l126d0" points="1280,500 1600,500 1600,540 1280,540"/>
<polygon id="0xf566b0" class="l126d0" points="80,580 240,580 240,620 80,620"/>
<polygon id="0xf56770" class="l126d0" points="320,580 400,580 400,620 320,620"/>
<polygon id="0xf56830" class="l126d0" points="480,580 560,580 560,620 480,620"/>
<polygon id="0xf568f0" class="l126d0" points="640,580 720,580 720,620 640,620"/>
<polygon id="0xf569b0" class="l126d0" points="1200,580 1440,580 1440,620 1200,620"/>
<polygon id="0xf56a70" class="l126d0" points="1520,580 1600,580 1600,620 1520,620"/>
<polygon id="0xf56b30" class="l126d0" points="0,660 160,660 160,700 0,700"/>
<polygon id="0xf56bf0" class="l126d0" points="240,660 560,660 560,700 240,700"/>
<polygon id="0xf56cb0" class="l126d0" points="800,660 960,660 960,700 800,700"/>
<polygon id="0xf56d70" class="l126d0" points="1280,660 1440,660 1440,700 1280,700"/>
<polygon id="0xf56e30" class="l126d0" points="1520,660 1600,660 1600,700 1520,700"/>
<polygon id="0xf56ef0" class="l126d0" points="80,740 240,740 240,780 80,780"/>
<polygon id="0xf56fb0" class="l126d0" points="320,740 400,740 400,780 320,780"/>
<polygon id="0xf57070" class="l126d0" points="720,740 960,740 960,780 720,780"/>
<polygon id="0xf57130" class="l126d0" points="1040,740 1120,740 1120,780 1040,780"/>
<polygon id="0xf571f0" class="l126d0" points="1200,740 1280,740 1280,780 1200,780"/>
<polygon id="0xf572b0" class="l126d0" points="1520,740 1600,740 1600,780 1520,780"/>
<polygon id="0xf57370" class="l126d0" points="160,820 240,820 240,860 160,860"/>
<polygon id="0xf57430" class="l126d0" points="1200,820 1280,820 1280,860 1200,860"/>
<polygon id="0xf574f0" class="l126d0" points="1440,820 1600,820 1600,860 1440,860"/>
<polygon id="0xf575b0" class="l126d0" points="0,900 80,900 80,940 0,940"/>
<polygon id="0xf57670" class="l126d0" points="240,900 320,900 320,940 240,940"/>
<polygon id="0xf57730" class="l126d0" points="560,900 640,900 640,940 560,940"/>
<polygon id="0xf577f0" class="l126d0" points="960,900 1040,900 1040,940 960,940"/>
<polygon id="0xf578b0" class="l126d0" points="1120,900 1360,900 1360,940 1120,940"/>
<polygon id="0xf57970" class="l126d0" points="1440,900 1520,900 1520,940 1440,940"/>
<polygon id="0xf57a30" class="l126d0" points="0,980 80,980 80,1020 0,1020"/>
<polygon id="0xcc09c0" class="l126d0" points="160,980 320,980 320,1020 160,1020"/>
<polygon id="0xe90970" class="l126d0" points="400,980 640,980 640,1020 400,1020"/>
<polygon id="0xec2970" class="l126d0" points="720,980 960,980 960,1020 720,1020"/>
<polygon id="0xd0f420" class="l126d0" points="1040,980 1120,980 1120,1020 1040,1020"/>
<polygon id="0xd0f490" class="l126d0" points="1200,980 1440,980 1440,1020 1200,1020"/>
<polygon id="0xcfd1b0" class="l126d0" points="1520,980 1600,980 1600,1020 1520,1020"/>
<polygon id="0xd6f4f0" class="l126d0" points="80,1060 240,1060 240,1100 80,1100"/>
<polygon id="0xd74de0" class="l126d0" points="320,1060 880,1060 880,1100 320,1100"/>
<polygon id="0xd98c80" class="l126d0" points="960,1060 1120,1060 1120,1100 960,1100"/>
<polygon id="0xdc3ee0" class="l126d0" points="1200,1060 1280,1060 1280,1100 1200,1100"/>
<polygon id="0xe08e10" class="l126d0" points="1440,1060 1600,1060 1600,1100 1440,1100"/>
<polygon id="0xe55cb0" class="l126d0" points="0,1140 160,1140 160,1180 0,1180"/>
<polygon id="0xe7ede0" class="l126d0" points="240,1140 320,1140 320,1180 240,1180"/>
<polygon id="0xecaef0" class="l126d0" points="720,1140 880,1140 880,1180 720,1180"/>
<polygon id="0xeb0600" class="l126d0" points="960,1140 1200,1140 1200,1180 960,1180"/>
<polygon id="0xef1770" class="l126d0" points="1280,1140 1360,1140 1360,1180 1280,1180"/>
<polygon id="0xf387e0" class="l126d0" points="1440,1140 1520,1140 1520,1180 1440,1180"/>
<polygon id="0xcdcc80" class="l126d0" points="20,80 60,80 60,240 20,240"/>
<polygon id="0xd07f60" class="l126d0" points="20,320 60,320 60,400 20,400"/>
<polygon id="0xd71ca0" class="l126d0" points="20,480 60,480 60,640 20,640"/>
<polygon id="0xe39430" class="l126d0" points="20,720 60,720 60,880 20,880"/>
<polygon id="0xe3ffd0" class="l126d0" points="20,1040 60,1040 60,1120 20,1120"/>
<polygon id="0xe45cf0" class="l126d0" points="100,80 140,80 140,240 100,240"/>
<polygon id="0xf06d20" class="l126d0" points="100,400 140,400 140,480 100,480"/>
<polygon id="0xebbbb0" class="l126d0" points="100,800 140,800 140,1040 100,1040"/>
<polygon id="0xcdb590" class="l126d0" points="180,0 220,0 220,160 180,160"/>
<polygon id="0xd7d460" class="l126d0" points="180,320 220,320 220,560 180,560"/>
<polygon id="0xda4520" class="l126d0" points="180,640 220,640 220,720 180,720"/>
<polygon id="0xe81ab0" class="l126d0" points="180,880 220,880 220,960 180,960"/>
<polygon id="0xe84520" class="l126d0" points="180,1120 220,1120 220,1200 180,1200"/>
<polygon id="0xeb2c30" class="l126d0" points="260,0 300,0 300,80 260,80"/>
<polygon id="0xf2e8a0" class="l126d0" points="260,320 300,320 300,400 260,400"/>
<polygon id="0xda3720" class="l126d0" points="260,480 300,480 300,640 260,640"/>
<polygon id="0xe32590" class="l126d0" points="260,720 300,720 300,880 260,880"/>
<polygon id="0xe303d0" class="l126d0" points="260,1040 300,1040 300,1120 260,1120"/>
<polygon id="0xe30440" class="l126d0" points="340,0 380,0 380,160 340,160"/>
<polygon id="0xe9ba40" class="l126d0" points="340,480 380,480 380,560 340,560"/>
<polygon id="0xeb5d10" class="l126d0" points="340,800 380,800 380,1040 340,1040"/>
<polygon id="0xf03220" class="l126d0" points="340,1120 380,1120 380,1200 340,1200"/>
<polygon id="0xf03290" class="l126d0" points="420,480 460,480 460,640 420,640"/>
<polygon id="0xef95e0" class="l126d0" points="420,720 460,720 460,960 420,960"/>
<polygon id="0xf37ea0" class="l126d0" points="420,1120 460,1120 460,1200 420,1200"/>
<polygon id="0xd034e0" class="l126d0" points="500,0 540,0 540,80 500,80"/>
<polygon id="0xd03550" class="l126d0" points="500,160 540,160 540,480 500,480"/>
<polygon id="0xd21b60" class="l126d0" points="500,720 540,720 540,960 500,960"/>
<polygon id="0xd5a3a0" class="l126d0" points="500,1120 540,1120 540,1200 500,1200"/>
<polygon id="0xd5ff00" class="l126d0" points="580,0 620,0 620,80 580,80"/>
<polygon id="0xdc8a60" class="l126d0" points="580,240 620,240 620,320 580,320"/>
<polygon id="0xe71e10" class="l126d0" points="580,480 620,480 620,880 580,880"/>
<polygon id="0xee4110" class="l126d0" points="580,1120 620,1120 620,1200 580,1200"/>
<polygon id="0xea3480" class="l126d0" points="660,80 700,80 700,240 660,240"/>
<polygon id="0xf11500" class="l126d0" points="660,320 700,320 700,480 660,480"/>
<polygon id="0xf27880" class="l126d0" points="660,640 700,640 700,1040 660,1040"/>
<polygon id="0xd0ae80" class="l126d0" points="660,1120 700,1120 700,1200 660,1200"/>
<polygon id="0xd0af40" class="l126d0" points="740,80 780,80 780,160 740,160"/>
<polygon id="0xd2c990" class="l126d0" points="740,400 780,400 780,720 740,720"/>
<polygon id="0xd2ca50" class="l126d0" points="740,800 780,800 780,960 740,960"/>
<polygon id="0xd60890" class="l126d0" points="820,400 860,400 860,640 820,640"/>
<polygon id="0xd60950" class="l126d0" points="820,800 860,800 860,960 820,960"/>
<polygon id="0xd23250" class="l126d0" points="900,160 940,160 940,480 900,480"/>
<polygon id="0xd23310" class="l126d0" points="900,560 940,560 940,640 900,640"/>
<polygon id="0xdbdaf0" class="l126d0" points="900,800 940,800 940,960 900,960"/>
<polygon id="0xdbdbb0" class="l126d0" points="900,1040 940,1040 940,1200 900,1200"/>
<polygon id="0xe11340" class="l126d0" points="980,0 1020,0 1020,240 980,240"/>
<polygon id="0xe11400" class="l126d0" points="980,320 1020,320 1020,480 980,480"/>
<polygon id="0xe805f0" class="l126d0" points="980,560 1020,560 1020,880 980,880"/>
<polygon id="0xe806b0" class="l126d0" points="980,960 1020,960 1020,1040 980,1040"/>
<polygon id="0xc32c90" class="l126d0" points="1060,0 1100,0 1100,80 1060,80"/>
<polygon id="0xc32d50" class="l126d0" points="1060,160 1100,160 1100,720 1060,720"/>
<polygon id="0xec4b40" class="l126d0" points="1060,800 1100,800 1100,960 1060,960"/>
<polygon id="0xec4c00" class="l126d0" points="1140,0 1180,0 1180,160 1140,160"/>
<polygon id="0xec8aa0" class="l126d0" points="1140,240 1180,240 1180,400 1140,400"/>
<polygon id="0xcd43d0" class="l126d0" points="1140,560 1180,560 1180,880 1140,880"/>
<polygon id="0xcd4490" class="l126d0" points="1140,960 1180,960 1180,1120 1140,1120"/>
<polygon id="0xcf5390" class="l126d0" points="1220,160 1260,160 1260,240 1220,240"/>
<polygon id="0xcff6d0" class="l126d0" points="1220,320 1260,320 1260,400 1220,400"/>
<polygon id="0xcff740" class="l126d0" points="1220,480 1260,480 1260,560 1220,560"/>
<polygon id="0xd1f560" class="l126d0" points="1220,640 1260,640 1260,720 1220,720"/>
<polygon id="0xd1f620" class="l126d0" points="1220,1120 1260,1120 1260,1200 1220,1200"/>
<polygon id="0xe3b440" class="l126d0" points="1300,80 1340,80 1340,160 1300,160"/>
<polygon id="0xe503a0" class="l126d0" points="1300,240 1340,240 1340,480 1300,480"/>
<polygon id="0xe50410" class="l126d0" points="1300,720 1340,720 1340,880 1300,880"/>
<polygon id="0xf01df0" class="l126d0" points="1300,1040 1340,1040 1340,1120 1300,1120"/>
<polygon id="0xf01eb0" class="l126d0" points="1380,240 1420,240 1420,320 1380,320"/>
<polygon id="0xefa4c0" class="l126d0" points="1380,720 1420,720 1420,960 1380,960"/>
<polygon id="0xd34510" class="l126d0" points="1380,1040 1420,1040 1420,1200 1380,1200"/>
<polygon id="0xd34580" class="l126d0" points="1460,0 1500,0 1500,80 1460,80"/>
<polygon id="0xce5870" class="l126d0" points="1460,160 1500,160 1500,240 1460,240"/>
<polygon id="0xce5930" class="l126d0" points="1460,400 1500,400 1500,480 1460,480"/>
<polygon id="0xd71770" class="l126d0" points="1460,560 1500,560 1500,800 1460,800"/>
<polygon id="0xdca3d0" class="l126d0" points="1460,960 1500,960 1500,1040 1460,1040"/>
<polygon id="0xdca490" class="l126d0" points="1540,80 1580,80 1580,160 1540,160"/>
<polygon id="0xdc2e60" class="l126d0" points="1540,320 1580,320 1580,480 1540,480"/>
<polygon id="0xdc2f20" class="l126d0" points="1540,880 1580,880 1580,960 1540,960"/>
<polygon id="0xe30a10" class="l126d0" points="1540,1120 1580,1120 1580,1200 1540,1200"/>
<polygon id="0xe3ef40" class="l189d4" points="0,0 300,0 300,300 0,300"/>
<polygon id="0xe3f000" class="l1d22" points="20,20 60,20 60,60 20,60"/>
<polygon id="0xee64b0" class="l1d22" points="20,100 60,100 60,140 20,140"/>
<polygon id="0xee6570" class="l1d22" points="20,180 60,180 60,220 20,220"/>
<polygon id="0xe99280" class="l1d22" points="20,260 60,260 60,300 20,300"/>
<polygon id="0xd7b070" class="l1d22" points="20,340 60,340 60,380 20,380"/>
<polygon id="0xd7b130" class="l1d22" points="20,420 60,420 60,460 20,460"/>
<polygon id="0xdb8a70" class="l1d22" points="20,500 60,500 60,540 20,540"/>
<polygon id="0xdb8b30" class="l1d22" points="20,580 60,580 60,620 20,620"/>
<polygon id="0xe0da80" class="l1d22" points="20,660 60,660 60,700 20,700"/>
<polygon id="0xe0db40" class="l1d22" points="20,740 60,740 60,780 20,780"/>
<polygon id="0xeff360" class="l1d22" points="20,820 60,820 60,860 20,860"/>
<polygon id="0xeff420" class="l1d22" points="20,900 60,900 60,940 20,940"/>
<polygon id="0xf2ede0" class="l1d22" points="20,980 60,980 60,1020 20,1020"/>
<polygon id="0xf2eea0" class="l1d22" points="20,1060 60,1060 60,1100 20,1100"/>
<polygon id="0xf35070" class="l1d22" points="20,1140 60,1140 60,1180 20,1180"/>
<polygon id="0xf35130" class="l1d22" points="100,20 140,20 140,60 100,60"/>
<polygon id="0xd33520" class="l1d22" points="100,100 140,100 140,140 100,140"/>
<polygon id="0xd335e0" class="l1d22" points="100,180 140,180 140,220 100,220"/>
<polygon id="0xd1e2e0" class="l1d22" points="100,260 140,260 140,300 100,300"/>
<polygon id="0xd1e3a0" class="l1d22" points="100,340 140,340 140,380 100,380"/>
<polygon id="0xed4e40" class="l1d22" points="100,420 140,420 140,460 100,460"/>
<polygon id="0xed4f00" class="l1d22" points="100,500 140,500 140,540 100,540"/>
<polygon id="0xcf0580" class="l1d22" points="100,580 140,580 140,620 100,620"/>
<polygon id="0xcf0640" class="l1d22" points="100,660 140,660 140,700 100,700"/>
<polygon id="0xcf06b0" class="l1d22" points="100,740 140,740 140,780 100,780"/>
<polygon id="0xd2ffb0" class="l1d22" points="100,820 140,820 140,860 100,860"/>
<polygon id="0xd30070" class="l1d22" points="100,900 140,900 140,940 100,940"/>
<polygon id="0xd44230" class="l1d22" points="100,980 140,980 140,1020 100,1020"/>
<polygon id="0xd442f0" class="l1d22" points="100,1060 140,1060 140,1100 100,1100"/>
<polygon id="0xd8c010" class="l1d22" points="100,1140 140,1140 140,1180 100,1180"/>
<polygon id="0xd8c0d0" class="l1d22" points="180,20 220,20 220,60 180,60"/>
<polygon id="0xd82900" class="l1d22" points="180,100 220,100 220,140 180,140"/>
<polygon id="0xd829c0" class="l1d22" points="180,180 220,180 220,220 180,220"/>
<polygon id="0xdc78e0" class="l1d22" points="180,260 220,260 220,300 180,300"/>
<polygon id="0xdc79a0" class="l1d22" points="180,340 220,340 220,380 180,380"/>
<polygon id="0xdbe5e0" class="l1d22" points="180,420 220,420 220,460 180,460"/>
<polygon id="0xdbe6a0" class="l1d22" points="180,500 220,500 220,540 180,540"/>
<polygon id="0xf0fef0" class="l1d22" points="180,580 220,580 220,620 180,620"/>
<polygon id="0xf0ffb0" class="l1d22" points="180,660 220,660 220,700 180,700"/>
<polygon id="0xf256b0" class="l1d22" points="180,740 220,740 220,780 180,780"/>
<polygon id="0xf25770" class="l1d22" points="180,820 220,820 220,860 180,860"/>
<polygon id="0xc924e0" class="l1d22" points="180,900 220,900 220,940 180,940"/>
<polygon id="0xc925a0" class="l1d22" points="180,980 220,980 220,1020 180,1020"/>
<polygon id="0xd2c0f0" class="l1d22" points="180,1060 220,1060 220,1100 180,1100"/>
<polygon id="0xd2c1b0" class="l1d22" points="180,1140 220,1140 220,1180 180,1180"/>
<polygon id="0xd5ece0" class="l1d22" points="260,20 300,20 300,60 260,60"/>
<polygon id="0xd5eda0" class="l1d22" points="260,100 300,100 300,140 260,140"/>
<polygon id="0xe79f90" class="l1d22" points="260,180 300,180 300,220 260,220"/>
<polygon id="0xe7a050" class="l1d22" points="260,260 300,260 300,300 260,300"/>
<polygon id="0xda0ad0" class="l1d22" points="260,340 300,340 300,380 260,380"/>
<polygon id="0xda0b90" class="l1d22" points="260,420 300,420 300,460 260,460"/>
<polygon id="0xe63820" class="l1d22" points="260,500 300,500 300,540 260,540"/>
<polygon id="0xe638e0" class="l1d22" points="260,580 300,580 300,620 260,620"/>
<polygon id="0xf13090" class="l1d22" points="260,660 300,660 300,700 260,700"/>
<polygon id="0xf13150" class="l1d22" points="260,740 300,740 300,780 260,780"/>
<polygon id="0xd742f0" class="l1d22" points="260,820 300,820 300,860 260,860"/>
<polygon id="0xd743b0" class="l1d22" points="260,900 300,900 300,940 260,940"/>
<polygon id="0xe931f0" class="l1d22" points="260,980 300,980 300,1020 260,1020"/>
<polygon id="0xe932b0" class="l1d22" points="260,1060 300,1060 300,1100 260,1100"/>
<polygon id="0xe89c50" class="l1d22" points="260,1140 300,1140 300,1180 260,1180"/>
<polygon id="0xe89cc0" class="l1d22" points="340,20 380,20 380,60 340,60"/>
<polygon id="0xe89d80" class="l1d22" points="340,100 380,100 380,140 340,140"/>
<polygon id="0xeeee00" class="l1d22" points="340,180 380,180 380,220 340,220"/>
<polygon id="0xeeeec0" class="l1d22" points="340,260 380,260 380,300 340,300"/>
<polygon id="0xdd6920" class="l1d22" points="340,340 380,340 380,380 340,380"/>
<polygon id="0xdd69e0" class="l1d22" points="340,420 380,420 380,460 340,460"/>
<polygon id="0xe3ccc0" class="l1d22" points="340,500 380,500 380,540 340,540"/>
<polygon id="0xe3cd80" class="l1d22" points="340,580 380,580 380,620 340,620"/>
<polygon id="0xea3b70" class="l1d22" points="340,660 380,660 380,700 340,700"/>
<polygon id="0xea3c30" class="l1d22" points="340,740 380,740 380,780 340,780"/>
<polygon id="0xeab290" class="l1d22" points="340,820 380,820 380,860 340,860"/>
<polygon id="0xeab350" class="l1d22" points="340,900 380,900 380,940 340,940"/>
<polygon id="0xf13740" class="l1d22" points="340,980 380,980 380,1020 340,1020"/>
<polygon id="0xf13800" class="l1d22" points="340,1060 380,1060 380,1100 340,1100"/>
<polygon id="0xc93690" class="l1d22" points="340,1140 380,1140 380,1180 340,1180"/>
<polygon id="0xc93750" class="l1d22" points="420,20 460,20 460,60 420,60"/>
<polygon id="0xcf39c0" class="l1d22" points="420,100 460,100 460,140 420,140"/>
<polygon id="0xcf3a80" class="l1d22" points="420,180 460,180 460,220 420,220"/>
<polygon id="0xcf3b40" class="l1d22" points="420,260 460,260 460,300 420,300"/>
<polygon id="0xd36540" class="l1d22" points="420,340 460,340 460,380 420,380"/>
<polygon id="0xd36600" class="l1d22" points="420,420 460,420 460,460 420,460"/>
<polygon id="0xd366c0" class="l1d22" points="420,500 460,500 460,540 420,540"/>
<polygon id="0xd39010" class="l1d22" points="420,580 460,580 460,620 420,620"/>
<polygon id="0xd390d0" class="l1d22" points="420,660 460,660 460,700 420,700"/>
<polygon id="0xd39190" class="l1d22" points="420,740 460,740 460,780 420,780"/>
<polygon id="0xd8aec0" class="l1d22" points="420,820 460,820 460,860 420,860"/>
<polygon id="0xd8af80" class="l1d22" points="420,900 460,900 460,940 420,940"/>
<polygon id="0xd8b040" class="l1d22" points="420,980 460,980 460,1020 420,1020"/>
<polygon id="0xd998d0" class="l1d22" points="420,1060 460,1060 460,1100 420,1100"/>
<polygon id="0xd99990" class="l1d22" points="420,1140 460,1140 460,1180 420,1180"/>
<polygon id="0xd99a50" class="l1d22" points="500,20 540,20 540,60 500,60"/>
<polygon id="0xdbaf50" class="l1d22" points="500,100 540,100 540,140 500,140"/>
<polygon id="0xdbb010" class="l1d22" points="500,180 540,180 540,220 500,220"/>
<polygon id="0xdbb0d0" class="l1d22" points="500,260 540,260 540,300 500,300"/>
<polygon id="0xe50d40" class="l1d22" points="500,340 540,340 540,380 500,380"/>
<polygon id="0xe50e00" class="l1d22" points="500,420 540,420 540,460 500,460"/>
<polygon id="0xe50ec0" class="l1d22" points="500,500 540,500 540,540 500,540"/>
<polygon id="0xebf4c0" class="l1d22" points="500,580 540,580 540,620 500,620"/>
<polygon id="0xebf580" class="l1d22" points="500,660 540,660 540,700 500,700"/>
<polygon id="0xd52e70" class="l1d22" points="500,740 540,740 540,780 500,780"/>
<polygon id="0xd52f30" class="l1d22" points="500,820 540,820 540,860 500,860"/>
<polygon id="0xd52ff0" class="l1d22" points="500,900 540,900 540,940 500,940"/>
<polygon id="0xda6db0" class="l1d22" points="500,980 540,980 540,1020 500,1020"/>
<polygon id="0xda6e70" class="l1d22" points="500,1060 540,1060 540,1100 500,1100"/>
<polygon id="0xcc0ff0" class="l1d22" points="500,1140 540,1140 540,1180 500,1180"/>
<polygon id="0xcc10b0" class="l1d22" points="580,20 620,20 620,60 580,60"/>
<polygon id="0xcc1170" class="l1d22" points="580,100 620,100 620,140 580,140"/>
<polygon id="0xf05f70" class="l1d22" points="580,180 620,180 620,220 580,220"/>
<polygon id="0xf06030" class="l1d22" points="580,260 620,260 620,300 580,300"/>
<polygon id="0xf58b00" class="l1d22" points="580,340 620,340 620,380 580,380"/>
<polygon id="0xf58bc0" class="l1d22" points="580,420 620,420 620,460 580,460"/>
<polygon id="0xf58c80" class="l1d22" points="580,500 620,500 620,540 580,540"/>
<polygon id="0xf58d40" class="l1d22" points="580,580 620,580 620,620 580,620"/>
<polygon id="0xf58e00" class="l1d22" points="580,660 620,660 620,700 580,700"/>
<polygon id="0xf58ec0" class="l1d22" points="580,740 620,740 620,780 580,780"/>
<polygon id="0xf58f80" class="l1d22" points="580,820 620,820 620,860 580,860"/>
<polygon id="0xf59040" class="l1d22" points="580,900 620,900 620,940 580,940"/>
<polygon id="0xf59100" class="l1d22" points="580,980 620,980 620,1020 580,1020"/>
<polygon id="0xf591c0" class="l1d22" points="580,1060 620,1060 620,1100 580,1100"/>
<polygon id="0xf59280" class="l1d22" points="580,1140 620,1140 620,1180 580,1180"/>
<polygon id="0xf59340" class="l1d22" points="660,20 700,20 700,60 660,60"/>
<polygon id="0xf59400" class="l1d22" points="660,100 700,100 700,140 660,140"/>
<polygon id="0xf594c0" class="l1d22" points="660,180 700,180 700,220 660,220"/>
<polygon id="0xf59580" class="l1d22" points="660,260 700,260 700,300 660,300"/>
<polygon id="0xf59640" class="l1d22" points="660,340 700,340 700,380 660,380"/>
<polygon id="0xf59700" class="l1d22" points="660,420 700,420 700,460 660,460"/>
<polygon id="0xf597c0" class="l1d22" points="660,500 700,500 700,540 660,540"/>
<polygon id="0xf59880" class="l1d22" points="660,580 700,580 700,620 660,620"/>
<polygon id="0xf59940" class="l1d22" points="660,660 700,660 700,700 660,700"/>
<polygon id="0xf59a00" class="l1d22" points="660,740 700,740 700,780 660,780"/>
<polygon id="0xf59ac0" class="l1d22" points="660,820 700,820 700,860 660,860"/>
<polygon id="0xf59b80" class="l1d22" points="660,900 700,900 700,940 660,940"/>
<polygon id="0xf59c40" class="l1d22" points="660,980 700,980 700,1020 660,1020"/>
<polygon id="0xf59d00" class="l1d22" points="660,1060 700,1060 700,1100 660,1100"/>
<polygon id="0xf59dc0" class="l1d22" points="660,1140 700,1140 700,1180 660,1180"/>
<polygon id="0xf59e80" class="l1d22" points="740,20 780,20 780,60 740,60"/>
<polygon id="0xf59f40" class="l1d22" points="740,100 780,100 780,140 740,140"/>
<polygon id="0xf5a000" class="l1d22" points="740,180 780,180 780,220 740,220"/>
<polygon id="0xf5a0c0" class="l1d22" points="740,260 780,260 780,300 740,300"/>
<polygon id="0xf5a180" class="l1d22" points="740,340 780,340 780,380 740,380"/>
<polygon id="0xf5a240" class="l1d22" points="740,420 780,420 780,460 740,460"/>
<polygon id="0xf5a300" class="l1d22" points="740,500 780,500 780,540 740,540"/>
<polygon id="0xf5a3c0" class="l1d22" points="740,580 780,580 780,620 740,620"/>
<polygon id="0xf5a480" class="l1d22" points="740,660 780,660 780,700 740,700"/>
<polygon id="0xf5a540" class="l1d22" points="740,740 780,740 780,780 740,780"/>
<polygon id="0xf5a600" class="l1d22" points="740,820 780,820 780,860 740,860"/>
<polygon id="0xf5a6c0" class="l1d22" points="740,900 780,900 780,940 740,940"/>
<polygon id="0xf5a780" class="l1d22" points="740,980 780,980 780,1020 740,1020"/>
<polygon id="0xf5a840" class="l1d22" points="740,1060 780,1060 780,1100 740,1100"/>
<polygon id="0xf5a900" class="l1d22" points="740,1140 780,1140 780,1180 740,1180"/>
<polygon id="0xf5a9c0" class="l1d22" points="820,20 860,20 860,60 820,60"/>
<polygon id="0xf5aa80" class="l1d22" points="820,100 860,100 860,140 820,140"/>
<polygon id="0xf5ab40" class="l1d22" points="820,180 860,180 860,220 820,220"/>
<polygon id="0xf5ac00" class="l1d22" points="820,260 860,260 860,300 820,300"/>
<polygon id="0xf5acc0" class="l1d22" points="820,340 860,340 860,380 820,380"/>
<polygon id="0xf5ad80" class="l1d22" points="820,420 860,420 860,460 820,460"/>
<polygon id="0xf5ae40" class="l1d22" points="820,500 860,500 860,540 820,540"/>
<polygon id="0xf5af00" class="l1d22" points="820,580 860,580 860,620 820,620"/>
<polygon id="0xf5afc0" class="l1d22" points="820,660 860,660 860,700 820,700"/>
<polygon id="0xf5b080" class="l1d22" points="820,740 860,740 860,780 820,780"/>
<polygon id="0xf5b140" class="l1d22" points="820,820 860,820 860,860 820,860"/>
<polygon id="0xf5b200" class="l1d22" points="820,900 860,900 860,940 820,940"/>
<polygon id="0xf5b2c0" class="l1d22" points="820,980 860,980 860,1020 820,1020"/>
<polygon id="0xf5b380" class="l1d22" points="820,1060 860,1060 860,1100 820,1100"/>
<polygon id="0xf5b440" class="l1d22" points="820,1140 860,1140 860,1180 820,1180"/>
<polygon id="0xf5b500" class="l1d22" points="900,20 940,20 940,60 900,60"/>
<polygon id="0xf5b5c0" class="l1d22" points="900,100 940,100 940,140 900,140"/>
<polygon id="0xf5b680" class="l1d22" points="900,180 940,180 940,220 900,220"/>
<polygon id="0xf5b740" class="l1d22" points="900,260 940,260 940,300 900,300"/>
<polygon id="0xf5b800" class="l1d22" points="900,340 940,340 940,380 900,380"/>
<polygon id="0xf5b8c0" class="l1d22" points="900,420 940,420 940,460 900,460"/>
<polygon id="0xf5b980" class="l1d22" points="900,500 940,500 940,540 900,540"/>
<polygon id="0xf5ba40" class="l1d22" points="900,580 940,580 940,620 900,620"/>
<polygon id="0xf5bb00" class="l1d22" points="900,660 940,660 940,700 900,700"/>
<polygon id="0xf5bbc0" class="l1d22" points="900,740 940,740 940,780 900,780"/>
<polygon id="0xf5bc80" class="l1d22" points="900,820 940,820 940,860 900,860"/>
<polygon id="0xf5bd40" class="l1d22" points="900,900 940,900 940,940 900,940"/>
<polygon id="0xf5be00" class="l1d22" points="900,980 940,980 940,1020 900,1020"/>
<polygon id="0xf5bec0" class="l1d22" points="900,1060 940,1060 940,1100 900,1100"/>
<polygon id="0xf5bf80" class="l1d22" points="900,1140 940,1140 940,1180 900,1180"/>
<polygon id="0xf5c040" class="l1d22" points="980,20 1020,20 1020,60 980,60"/>
<polygon id="0xf5c100" class="l1d22" points="980,100 1020,100 1020,140 980,140"/>
<polygon id="0xf5c1c0" class="l1d22" points="980,180 1020,180 1020,220 980,220"/>
<polygon id="0xf5c280" class="l1d22" points="980,260 1020,260 1020,300 980,300"/>
<polygon id="0xf5c340" class="l1d22" points="980,340 1020,340 1020,380 980,380"/>
<polygon id="0xf5c400" class="l1d22" points="980,420 1020,420 1020,460 980,460"/>
<polygon id="0xf5c4c0" class="l1d22" points="980,500 1020,500 1020,540 980,540"/>
<polygon id="0xf5c580" class="l1d22" points="980,580 1020,580 1020,620 980,620"/>
<polygon id="0xf5c640" class="l1d22" points="980,660 1020,660 1020,700 980,700"/>
<polygon id="0xf5c700" class="l1d22" points="980,740 1020,740 1020,780 980,780"/>
<polygon id="0xf5c7c0" class="l1d22" points="980,820 1020,820 1020,860 980,860"/>
<polygon id="0xf5c880" class="l1d22" points="980,900 1020,900 1020,940 980,940"/>
<polygon id="0xf5c940" class="l1d22" points="980,980 1020,980 1020,1020 980,1020"/>
<polygon id="0xf5ca00" class="l1d22" points="980,1060 1020,1060 1020,1100 980,1100"/>
<polygon id="0xf5cac0" class="l1d22" points="980,1140 1020,1140 1020,1180 980,1180"/>
<polygon id="0xf5cb80" class="l1d22" points="1060,20 1100,20 1100,60 1060,60"/>
<polygon id="0xf5cc40" class="l1d22" points="1060,100 1100,100 1100,140 1060,140"/>
<polygon id="0xf5cd00" class="l1d22" points="1060,180 1100,180 1100,220 1060,220"/>
<polygon id="0xf5cdc0" class="l1d22" points="1060,260 1100,260 1100,300 1060,300"/>
<polygon id="0xf5ce80" class="l1d22" points="1060,340 1100,340 1100,380 1060,380"/>
<polygon id="0xf5cf40" class="l1d22" points="1060,420 1100,420 1100,460 1060,460"/>
<polygon id="0xf5d000" class="l1d22" points="1060,500 1100,500 1100,540 1060,540"/>
<polygon id="0xf5d0c0" class="l1d22" points="1060,580 1100,580 1100,620 1060,620"/>
<polygon id="0xf5d180" class="l1d22" points="1060,660 1100,660 1100,700 1060,700"/>
<polygon id="0xf5d240" class="l1d22" points="1060,740 1100,740 1100,780 1060,780"/>
<polygon id="0xf5d300" class="l1d22" points="1060,820 1100,820 1100,860 1060,860"/>
<polygon id="0xf5fc90" class="l1d22" points="1060,900 1100,900 1100,940 1060,940"/>
<polygon id="0xf5fd50" class="l1d22" points="1060,980 1100,980 1100,1020 1060,1020"/>
<polygon id="0xf5fe10" class="l1d22" points="1060,1060 1100,1060 1100,1100 1060,1100"/>
<polygon id="0xf5fed0" class="l1d22" points="1060,1140 1100,1140 1100,1180 1060,1180"/>
<polygon id="0xf5ff90" class="l1d22" points="1140,20 1180,20 1180,60 1140,60"/>
<polygon id="0xf60050" class="l1d22" points="1140,100 1180,100 1180,140 1140,140"/>
<polygon id="0xf60110" class="l1d22" points="1140,180 1180,180 1180,220 1140,220"/>
<polygon id="0xf601d0" class="l1d22" points="1140,260 1180,260 1180,300 1140,300"/>
<polygon id="0xf60290" class="l1d22" points="1140,340 1180,340 1180,380 1140,380"/>
<polygon id="0xf60350" class="l1d22" points="1140,420 1180,420 1180,460 1140,460"/>
<polygon id="0xf60410" class="l1d22" points="1140,500 1180,500 1180,540 1140,540"/>
<polygon id="0xf604d0" class="l1d22" points="1140,580 1180,580 1180,620 1140,620"/>
<polygon id="0xf60590" class="l1d22" points="1140,660 1180,660 1180,700 1140,700"/>
<polygon id="0xf60650" class="l1d22" points="1140,740 1180,740 1180,780 1140,780"/>
<polygon id="0xf60710" class="l1d22" points="1140,820 1180,820 1180,860 1140,860"/>
<polygon id="0xf607d0" class="l1d22" points="1140,900 1180,900 1180,940 1140,940"/>
<polygon id="0xf60890" class="l1d22" points="1140,980 1180,980 1180,1020 1140,1020"/>
<polygon id="0xf60950" class="l1d22" points="1140,1060 1180,1060 1180,1100 1140,1100"/>
<polygon id="0xf60a10" class="l1d22" points="1140,1140 1180,1140 1180,1180 1140,1180"/>
<polygon id="0xf60ad0" class="l1d22" points="1220,20 1260,20 1260,60 1220,60"/>
<polygon id="0xf60b90" class="l1d22" points="1220,100 1260,100 1260,140 1220,140"/>
<polygon id="0xf60c50" class="l1d22" points="1220,180 1260,180 1260,220 1220,220"/>
<polygon id="0xf60d10" class="l1d22" points="1220,260 1260,260 1260,300 1220,300"/>
<polygon id="0xf60dd0" class="l1d22" points="1220,340 1260,340 1260,380 1220,380"/>
<polygon id="0xf60e90" class="l1d22" points="1220,420 1260,420 1260,460 1220,460"/>
<polygon id="0xf60f50" class="l1d22" points="1220,500 1260,500 1260,540 1220,540"/>
<polygon id="0xf61010" class="l1d22" points="1220,580 1260,580 1260,620 1220,620"/>
<polygon id="0xf610d0" class="l1d22" points="1220,660 1260,660 1260,700 1220,700"/>
<polygon id="0xf61190" class="l1d22" points="1220,740 1260,740 1260,780 1220,780"/>
<polygon id="0xf61250" class="l1d22" points="1220,820 1260,820 1260,860 1220,860"/>
<polygon id="0xf61310" class="l1d22" points="1220,900 1260,900 1260,940 1220,940"/>
<polygon id="0xf613d0" class="l1d22" points="1220,980 1260,980 1260,1020 1220,1020"/>
<polygon id="0xf61490" class="l1d22" points="1220,1060 1260,1060 1260,1100 1220,1100"/>
<polygon id="0xf61550" class="l1d22" points="1220,1140 1260,1140 1260,1180 1220,1180"/>
<polygon id="0xf61610" class="l1d22" points="1300,20 1340,20 1340,60 1300,60"/>
<polygon id="0xf616d0" class="l1d22" points="1300,100 1340,100 1340,140 1300,140"/>
<polygon id="0xf61790" class="l1d22" points="1300,180 1340,180 1340,220 1300,220"/>
<polygon id="0xf61850" class="l1d22" points="1300,260 1340,260 1340,300 1300,300"/>
<polygon id="0xf61910" class="l1d22" points="1300,340 1340,340 1340,380 1300,380"/>
<polygon id="0xf619d0" class="l1d22" points="1300,420 1340,420 1340,460 1300,460"/>
<polygon id="0xf61a90" class="l1d22" points="1300,500 1340,500 1340,540 1300,540"/>
<polygon id="0xf61b50" class="l1d22" points="1300,580 1340,580 1340,620 1300,620"/>
<polygon id="0xf61c10" class="l1d22" points="1300,660 1340,660 1340,700 1300,700"/>
<polygon id="0xf61cd0" class="l1d22" points="1300,740 1340,740 1340,780 1300,780"/>
<polygon id="0xf61d90" class="l1d22" points="1300,820 1340,820 1340,860 1300,860"/>
<polygon id="0xf61e50" class="l1d22" points="1300,900 1340,900 1340,940 1300,940"/>
<polygon id="0xf61f10" class="l1d22" points="1300,980 1340,980 1340,1020 1300,1020"/>
<polygon id="0xf61fd0" class="l1d22" points="1300,1060 1340,1060 1340,1100 1300,1100"/>
<polygon id="0xf62090" class="l1d22" points="1300,1140 1340,1140 1340,1180 1300,1180"/>
<polygon id="0xf62150" class="l1d22" points="1380,20 1420,20 1420,60 1380,60"/>
<polygon id="0xf62210" class="l1d22" points="1380,100 1420,100 1420,140 1380,140"/>
<polygon id="0xf622d0" class="l1d22" points="1380,180 1420,180 1420,220 1380,220"/>
<polygon id="0xf62390" class="l1d22" points="1380,260 1420,260 1420,300 1380,300"/>
<polygon id="0xf62450" class="l1d22" points="1380,340 1420,340 1420,380 1380,380"/>
<polygon id="0xf62510" class="l1d22" points="1380,420 1420,420 1420,460 1380,460"/>
<polygon id="0xf625d0" class="l1d22" points="1380,500 1420,500 1420,540 1380,540"/>
<polygon id="0xf62690" class="l1d22" points="1380,580 1420,580 1420,620 1380,620"/>
<polygon id="0xf62750" class="l1d22" points="1380,660 1420,660 1420,700 1380,700"/>
<polygon id="0xf62810" class="l1d22" points="1380,740 1420,740 1420,780 1380,780"/>
<polygon id="0xf628d0" class="l1d22" points="1380,820 1420,820 1420,860 1380,860"/>
<polygon id="0xf62990" class="l1d22" points="1380,900 1420,900 1420,940 1380,940"/>
<polygon id="0xf62a50" class="l1d22" points="1380,980 1420,980 1420,1020 1380,1020"/>
<polygon id="0xf62b10" class="l1d22" points="1380,1060 1420,1060 1420,1100 1380,1100"/>
<polygon id="0xf62bd0" class="l1d22" points="1380,1140 1420,1140 1420,1180 1380,1180"/>
<polygon id="0xf62c90" class="l1d22" points="1460,20 1500,20 1500,60 1460,60"/>
<polygon id="0xf62d50" class="l1d22" points="1460,100 1500,100 1500,140 1460,140"/>
<polygon id="0xf62e10" class="l1d22" points="1460,180 1500,180 1500,220 1460,220"/>
<polygon id="0xf62ed0" class="l1d22" points="1460,260 1500,260 1500,300 1460,300"/>
<polygon id="0xf62f90" class="l1d22" points="1460,340 1500,340 1500,380 1460,380"/>
<polygon id="0xf63050" class="l1d22" points="1460,420 1500,420 1500,460 1460,460"/>
<polygon id="0xf63110" class="l1d22" points="1460,500 1500,500 1500,540 1460,540"/>
<polygon id="0xf631d0" class="l1d22" points="1460,580 1500,580 1500,620 1460,620"/>
<polygon id="0xf63290" class="l1d22" points="1460,660 1500,660 1500,700 1460,700"/>
<polygon id="0xf63350" class="l1d22" points="1460,740 1500,740 1500,780 1460,780"/>
<polygon id="0xf63410" class="l1d22" points="1460,820 1500,820 1500,860 1460,860"/>
<polygon id="0xf634d0" class="l1d22" points="1460,900 1500,900 1500,940 1460,940"/>
<polygon id="0xf63590" class="l1d22" points="1460,980 1500,980 1500,1020 1460,1020"/>
<polygon id="0xf63650" class="l1d22" points="1460,1060 1500,1060 1500,1100 1460,1100"/>
<polygon id="0xf63710" class="l1d22" points="1460,1140 1500,1140 1500,1180 1460,1180"/>
<polygon id="0xf637d0" class="l1d22" points="1540,20 1580,20 1580,60 1540,60"/>
<polygon id="0xf63890" class="l1d22" points="1540,100 1580,100 1580,140 1540,140"/>
<polygon id="0xf63950" class="l1d22" points="1540,180 1580,180 1580,220 1540,220"/>
<polygon id="0xf63a10" class="l1d22" points="1540,260 1580,260 1580,300 1540,300"/>
<polygon id="0xf63ad0" class="l1d22" points="1540,340 1580,340 1580,380 1540,380"/>
<polygon id="0xf63b90" class="l1d22" points="1540,420 1580,420 1580,460 1540,460"/>
<polygon id="0xf63c50" class="l1d22" points="1540,500 1580,500 1580,540 1540,540"/>
<polygon id="0xf63d10" class="l1d22" points="1540,580 1580,580 1580,620 1540,620"/>
<polygon id="0xf63dd0" class="l1d22" points="1540,660 1580,660 1580,700 1540,700"/>
<polygon id="0xf63e90" class="l1d22" points="1540,740 1580,740 1580,780 1540,780"/>
<polygon id="0xf63f50" class="l1d22" points="1540,820 1580,820 1580,860 1540,860"/>
<polygon id="0xf64010" class="l1d22" points="1540,900 1580,900 1580,940 1540,940"/>
<polygon id="0xf640d0" class="l1d22" points="1540,980 1580,980 1580,1020 1540,1020"/>
<polygon id="0xf64190" class="l1d22" points="1540,1060 1580,1060 1580,1100 1540,1100"/>
<polygon id="0xf64250" class="l1d22" points="1540,1140 1580,1140 1580,1180 1540,1180"/>
<polygon id="0xf64310" class="l5d22" points="18.2,18.2 61.8,18.2 61.8,61.8 18.2,61.8"/>
<polygon id="0xf643d0" class="l5d22" points="18.2,98.2 61.8,98.2 61.8,141.8 18.2,141.8"/>
<polygon id="0xf64490" class="l5d22" points="18.2,178.2 61.8,178.2 61.8,221.8 18.2,221.8"/>
<polygon id="0xf64550" class="l5d22" points="18.2,258.2 61.8,258.2 61.8,301.8 18.2,301.8"/>
<polygon id="0xf64610" class="l5d22" points="18.2,338.2 61.8,338.2 61.8,381.8 18.2,381.8"/>
<polygon id="0xf646d0" class="l5d22" points="18.2,418.2 61.8,418.2 61.8,461.8 18.2,461.8"/>
<polygon id="0xf64790" class="l5d22" points="18.2,498.2 61.8,498.2 61.8,541.8 18.2,541.8"/>
<polygon id="0xf64850" class="l5d22" points="18.2,578.2 61.8,578.2 61.8,621.8 18.2,621.8"/>
<polygon id="0xf64910" class="l5d22" points="18.2,658.2 61.8,658.2 61.8,701.8 18.2,701.8"/>
<polygon id="0xf649d0" class="l5d22" points="18.2,738.2 61.8,738.2 61.8,781.8 18.2,781.8"/>
<polygon id="0xf64a90" class="l5d22" points="18.2,818.2 61.8,818.2 61.8,861.8 18.2,861.8"/>
<polygon id="0xf64b50" class="l5d22" points="18.2,898.2 61.8,898.2 61.8,941.8 18.2,941.8"/>
<polygon id="0xf64c10" class="l5d22" points="18.2,978.2 61.8,978.2 61.8,1021.8 18.2,1021.8"/>
<polygon id="0xf64cd0" class="l5d22" points="18.2,1058.2 61.8,1058.2 61.8,1101.8 18.2,1101.8"/>
<polygon id="0xf64d90" class="l5d22" points="18.2,1138.2 61.8,1138.2 61.8,1181.8 18.2,1181.8"/>
<polygon id="0xf64e50" class="l5d22" points="98.2,18.2 141.8,18.2 141.8,61.8 98.2,61.8"/>
<polygon id="0xf64f10" class="l5d22" points="98.2,98.2 141.8,98.2 141.8,141.8 98.2,141.8"/>
<polygon id="0xf64fd0" class="l5d22" points="98.2,178.2 141.8,178.2 141.8,221.8 98.2,221.8"/>
<polygon id="0xf65090" class="l5d22" points="98.2,258.2 141.8,258.2 141.8,301.8 98.2,301.8"/>
<polygon id="0xf65150" class="l5d22" points="98.2,338.2 141.8,338.2 141.8,381.8 98.2,381.8"/>
<polygon id="0xf65210" class="l5d22" points="98.2,418.2 141.8,418.2 141.8,461.8 98.2,461.8"/>
<polygon id="0xf652d0" class="l5d22" points="98.2,498.2 141.8,498.2 141.8,541.8 98.2,541.8"/>
<polygon id="0xf65390" class="l5d22" points="98.2,578.2 141.8,578.2 141.8,621.8 98.2,621.8"/>
<polygon id="0xf65450" class="l5d22" points="98.2,658.2 141.8,658.2 141.8,701.8 98.2,701.8"/>
<polygon id="0xf65510" class="l5d22" points="98.2,738.2 141.8,738.2 141.8,781.8 98.2,781.8"/>
<polygon id="0xf655d0" class="l5d22" points="98.2,818.2 141.8,818.2 141.8,861.8 98.2,861.8"/>
<polygon id="0xf65690" class="l5d22" points="98.2,898.2 141.8,898.2 141.8,941.8 98.2,941.8"/>
<polygon id="0xf65750" class="l5d22" points="98.2,978.2 141.8,978.2 141.8,1021.8 98.2,1021.8"/>
<polygon id="0xf65810" class="l5d22" points="98.2,1058.2 141.8,1058.2 141.8,1101.8 98.2,1101.8"/>
<polygon id="0xf658d0" class="l5d22" points="98.2,1138.2 141.8,1138.2 141.8,1181.8 98.2,1181.8"/>
<polygon id="0xf65990" class="l5d22" points="178.2,18.2 221.8,18.2 221.8,61.8 178.2,61.8"/>
<polygon id="0xf65a50" class="l5d22" points="178.2,98.2 221.8,98.2 221.8,141.8 178.2,141.8"/>
<polygon id="0xf65b10" class="l5d22" points="178.2,178.2 221.8,178.2 221.8,221.8 178.2,221.8"/>
<polygon id="0xf65bd0" class="l5d22" points="178.2,258.2 221.8,258.2 221.8,301.8 178.2,301.8"/>
<polygon id="0xf65c90" class="l5d22" points="178.2,338.2 221.8,338.2 221.8,381.8 178.2,381.8"/>
<polygon id="0xf65d50" class="l5d22" points="178.2,418.2 221.8,418.2 221.8,461.8 178.2,461.8"/>
<polygon id="0xf65e10" class="l5d22" points="178.2,498.2 221.8,498.2 221.8,541.8 178.2,541.8"/>
<polygon id="0xf65ed0" class="l5d22" points="178.2,578.2 221.8,578.2 221.8,621.8 178.2,621.8"/>
<polygon id="0xf65f90" class="l5d22" points="178.2,658.2 221.8,658.2 221.8,701.8 178.2,701.8"/>
<polygon id="0xf66050" class="l5d22" points="178.2,738.2 221.8,738.2 221.8,781.8 178.2,781.8"/>
<polygon id="0xf66110" class="l5d22" points="178.2,818.2 221.8,818.2 221.8,861.8 178.2,861.8"/>
<polygon id="0xf661d0" class="l5d22" points="178.2,898.2 221.8,898.2 221.8,941.8 178.2,941.8"/>
<polygon id="0xf66290" class="l5d22" points="178.2,978.2 221.8,978.2 221.8,1021.8 178.2,1021.8"/>
<polygon id="0xf66350" class="l5d22" points="178.2,1058.2 221.8,1058.2 221.8,1101.8 178.2,1101.8"/>
<polygon id="0xf66410" class="l5d22" points="178.2,1138.2 221.8,1138.2 221.8,1181.8 178.2,1181.8"/>
<polygon id="0xf664d0" class="l5d22" points="258.2,18.2 301.8,18.2 301.8,61.8 258.2,61.8"/>
<polygon id="0xf66590" class="l5d22" points="258.2,98.2 301.8,98.2 301.8,141.8 258.2,141.8"/>
<polygon id="0xf66650" class="l5d22" points="258.2,178.2 301.8,178.2 301.8,221.8 258.2,221.8"/>
<polygon id="0xf66710" class="l5d22" points="258.2,258.2 301.8,258.2 301.8,301.8 258.2,301.8"/>
<polygon id="0xf667d0" class="l5d22" points="258.2,338.2 301.8,338.2 301.8,381.8 258.2,381.8"/>
<polygon id="0xf66890" class="l5d22" points="258.2,418.2 301.8,418.2 301.8,461.8 258.2,461.8"/>
<polygon id="0xf66950" class="l5d22" points="258.2,498.2 301.8,498.2 301.8,541.8 258.2,541.8"/>
<polygon id="0xf57af0" class="l5d22" points="258.2,578.2 301.8,578.2 301.8,621.8 258.2,621.8"/>
<polygon id="0xf57bb0" class="l5d22" points="258.2,658.2 301.8,658.2 301.8,701.8 258.2,701.8"/>
<polygon id="0xf57c70" class="l5d22" points="258.2,738.2 301.8,738.2 301.8,781.8 258.2,781.8"/>
<polygon id="0xf57d30" class="l5d22" points="258.2,818.2 301.8,818.2 301.8,861.8 258.2,861.8"/>
<polygon id="0xf57df0" class="l5d22" points="258.2,898.2 301.8,898.2 301.8,941.8 258.2,941.8"/>
<polygon id="0xf57eb0" class="l5d22" points="258.2,978.2 301.8,978.2 301.8,1021.8 258.2,1021.8"/>
<polygon id="0xf57f70" class="l5d22" points="258.2,1058.2 301.8,1058.2 301.8,1101.8 258.2,1101.8"/>
<polygon id="0xf58030" class="l5d22" points="258.2,1138.2 301.8,1138.2 301.8,1181.8 258.2,1181.8"/>
<polygon id="0xf580f0" class="l5d22" points="338.2,18.2 381.8,18.2 381.8,61.8 338.2,61.8"/>
<polygon id="0xf581b0" class="l5d22" points="338.2,98.2 381.8,98.2 381.8,141.8 338.2,141.8"/>
<polygon id="0xf58270" class="l5d22" points="338.2,178.2 381.8,178.2 381.8,221.8 338.2,221.8"/>
<polygon id="0xf58330" class="l5d22" points="338.2,258.2 381.8,258.2 381.8,301.8 338.2,301.8"/>
<polygon id="0xf583f0" class="l5d22" points="338.2,338.2 381.8,338.2 381.8,381.8 338.2,381.8"/>
<polygon id="0xf584b0" class="l5d22" points="338.2,418.2 381.8,418.2 381.8,461.8 338.2,461.8"/>
<polygon id="0xf58570" class="l5d22" points="338.2,498.2 381.8,498.2 381.8,541.8 338.2,541.8"/>
<polygon id="0xf58630" class="l5d22" points="338.2,578.2 381.8,578.2 381.8,621.8 338.2,621.8"/>
<polygon id="0xf586f0" class="l5d22" points="338.2,658.2 381.8,658.2 381.8,701.8 338.2,701.8"/>
<polygon id="0xf587b0" class="l5d22" points="338.2,738.2 381.8,738.2 381.8,781.8 338.2,781.8"/>
<polygon id="0xf58870" class="l5d22" points="338.2,818.2 381.8,818.2 381.8,861.8 338.2,861.8"/>
<polygon id="0xf58930" class="l5d22" points="338.2,898.2 381.8,898.2 381.8,941.8 338.2,941.8"/>
<polygon id="0xf589f0" class="l5d22" points="338.2,978.2 381.8,978.2 381.8,1021.8 338.2,1021.8"/>
<polygon id="0xf68a20" class="l5d22" points="338.2,1058.2 381.8,1058.2 381.8,1101.8 338.2,1101.8"/>
<polygon id="0xf68a90" class="l5d22" points="338.2,1138.2 381.8,1138.2 381.8,1181.8 338.2,1181.8"/>
<polygon id="0xf68b50" class="l5d22" points="418.2,18.2 461.8,18.2 461.8,61.8 418.2,61.8"/>
<polygon id="0xf68c10" class="l5d22" points="418.2,98.2 461.8,98.2 461.8,141.8 418.2,141.8"/>
<polygon id="0xf68cd0" class="l5d22" points="418.2,178.2 461.8,178.2 461.8,221.8 418.2,221.8"/>
<polygon id="0xf68d90" class="l5d22" points="418.2,258.2 461.8,258.2 461.8,301.8 418.2,301.8"/>
<polygon id="0xf68e50" class="l5d22" points="418.2,338.2 461.8,338.2 461.8,381.8 418.2,381.8"/>
<polygon id="0xf68f10" class="l5d22" points="418.2,418.2 461.8,418.2 461.8,461.8 418.2,461.8"/>
<polygon id="0xf68fd0" class="l5d22" points="418.2,498.2 461.8,498.2 461.8,541.8 418.2,541.8"/>
<polygon id="0xf69090" class="l5d22" points="418.2,578.2 461.8,578.2 461.8,621.8 418.2,621.8"/>
<polygon id="0xf69150" class="l5d22" points="418.2,658.2 461.8,658.2 461.8,701.8 418.2,701.8"/>
<polygon id="0xf69210" class="l5d22" points="418.2,738.2 461.8,738.2 461.8,781.8 418.2,781.8"/>
<polygon id="0xf692d0" class="l5d22" points="418.2,818.2 461.8,818.2 461.8,861.8 418.2,861.8"/>
<polygon id="0xf69390" class="l5d22" points="418.2,898.2 461.8,898.2 461.8,941.8 418.2,941.8"/>
<polygon id="0xf69450" class="l5d22" points="418.2,978.2 461.8,978.2 461.8,1021.8 418.2,1021.8"/>
<polygon id="0xf69510" class="l5d22" points="418.2,1058.2 461.8,1058.2 461.8,1101.8 418.2,1101.8"/>
<polygon id="0xf695d0" class="l5d22" points="418.2,1138.2 461.8,1138.2 461.8,1181.8 418.2,1181.8"/>
<polygon id="0xf69690" class="l5d22" points="498.2,18.2 541.8,18.2 541.8,61.8 498.2,61.8"/>
<polygon id="0xf69750" class="l5d22" points="498.2,98.2 541.8,98.2 541.8,141.8 498.2,141.8"/>
<polygon id="0xf69810" class="l5d22" points="498.2,178.2 541.8,178.2 541.8,221.8 498.2,221.8"/>
<polygon id="0xf698d0" class="l5d22" points="498.2,258.2 541.8,258.2 541.8,301.8 498.2,301.8"/>
<polygon id="0xf69990" class="l5d22" points="498.2,338.2 541.8,338.2 541.8,381.8 498.2,381.8"/>
<polygon id="0xf69a50" class="l5d22" points="498.2,418.2 541.8,418.2 541.8,461.8 498.2,461.8"/>
<polygon id="0xf69b10" class="l5d22" points="498.2,498.2 541.8,498.2 541.8,541.8 498.2,541.8"/>
<polygon id="0xf69bd0" class="l5d22" points="498.2,578.2 541.8,578.2 541.8,621.8 498.2,621.8"/>
<polygon id="0xf69c90" class="l5d22" points="498.2,658.2 541.8,658.2 541.8,701.8 498.2,701.8"/>
<polygon id="0xf69d50" class="l5d22" points="498.2,738.2 541.8,738.2 541.8,781.8 498.2,781.8"/>
<polygon id="0xf69e10" class="l5d22" points="498.2,818.2 541.8,818.2 541.8,861.8 498.2,861.8"/>
<polygon id="0xf69ed0" class="l5d22" points="498.2,898.2 541.8,898.2 541.8,941.8 498.2,941.8"/>
<polygon id="0xf69f90" class="l5d22" points="498.2,978.2 541.8,978.2 541.8,1021.8 498.2,1021.8"/>
<polygon id="0xf6a050" class="l5d22" points="498.2,1058.2 541.8,1058.2 541.8,1101.8 498.2,1101.8"/>
<polygon id="0xf6a110" class="l5d22" points="498.2,1138.2 541.8,1138.2 541.8,1181.8 498.2,1181.8"/>
<polygon id="0xf6a1d0" class="l5d22" points="578.2,18.2 621.8,18.2 621.8,61.8 578.2,61.8"/>
<polygon id="0xf6a290" class="l5d22" points="578.2,98.2 621.8,98.2 621.8,141.8 578.2,141.8"/>
<polygon id="0xf6a350" class="l5d22" points="578.2,178.2 621.8,178.2 621.8,221.8 578.2,221.8"/>
<polygon id="0xf6a410" class="l5d22" points="578.2,258.2 621.8,258.2 621.8,301.8 578.2,301.8"/>
<polygon id="0xf6a4d0" class="l5d22" points="578.2,338.2 621.8,338.2 621.8,381.8 578.2,381.8"/>
<polygon id="0xf6a590" class="l5d22" points="578.2,418.2 621.8,418.2 621.8,461.8 578.2,461.8"/>
<polygon id="0xf6a650" class="l5d22" points="578.2,498.2 621.8,498.2 621.8,541.8 578.2,541.8"/>
<polygon id="0xf6a710" class="l5d22" points="578.2,578.2 621.8,578.2 621.8,621.8 578.2,621.8"/>
<polygon id="0xf6a7d0" class="l5d22" points="578.2,658.2 621.8,658.2 621.8,701.8 578.2,701.8"/>
<polygon id="0xf6a890" class="l5d22" points="578.2,738.2 621.8,738.2 621.8,781.8 578.2,781.8"/>
<polygon id="0xf6a950" class="l5d22" points="578.2,818.2 621.8,818.2 621.8,861.8 578.2,861.8"/>
<polygon id="0xf6aa10" class="l5d22" points="578.2,898.2 621.8,898.2 621.8,941.8 578.2,941.8"/>
<polygon id="0xf6aad0" class="l5d22" points="578.2,978.2 621.8,978.2 621.8,1021.8 578.2,1021.8"/>
<polygon id="0xf6ab90" class="l5d22" points="578.2,1058.2 621.8,1058.2 621.8,1101.8 578.2,1101.8"/>
<polygon id="0xf6ac50" class="l5d22" points="578.2,1138.2 621.8,1138.2 621.8,1181.8 578.2,1181.8"/>
<polygon id="0xf6ad10" class="l5d22" points="658.2,18.2 701.8,18.2 701.8,61.8 658.2,61.8"/>
<polygon id="0xf6add0" class="l5d22" points="658.2,98.2 701.8,98.2 701.8,141.8 658.2,141.8"/>
<polygon id="0xf6ae90" class="l5d22" points="658.2,178.2 701.8,178.2 701.8,221.8 658.2,221.8"/>
<polygon id="0xf6af50" class="l5d22" points="658.2,258.2 701.8,258.2 701.8,301.8 658.2,301.8"/>
<polygon id="0xf6b010" class="l5d22" points="658.2,338.2 701.8,338.2 701.8,381.8 658.2,381.8"/>
<polygon id="0xf6b0d0" class="l5d22" points="658.2,418.2 701.8,418.2 701.8,461.8 658.2,461.8"/>
<polygon id="0xf6b190" class="l5d22" points="658.2,498.2 701.8,498.2 701.8,541.8 658.2,541.8"/>
<polygon id="0xf6b250" class="l5d22" points="658.2,578.2 701.8,578.2 701.8,621.8 658.2,621.8"/>
<polygon id="0xf6b310" class="l5d22" points="658.2,658.2 701.8,658.2 701.8,701.8 658.2,701.8"/>
<polygon id="0xf6b3d0" class="l5d22" points="658.2,738.2 701.8,738.2 701.8,781.8 658.2,781.8"/>
<polygon id="0xf6b490" class="l5d22" points="658.2,818.2 701.8,818.2 701.8,861.8 658.2,861.8"/>
<polygon id="0xf6b550" class="l5d22" points="658.2,898.2 701.8,898.2 701.8,941.8 658.2,941.8"/>
<polygon id="0xf6b610" class="l5d22" points="658.2,978.2 701.8,978.2 701.8,1021.8 658.2,1021.8"/>
<polygon id="0xf6b6d0" class="l5d22" points="658.2,1058.2 701.8,1058.2 701.8,1101.8 658.2,1101.8"/>
<polygon id="0xf6b790" class="l5d22" points="658.2,1138.2 701.8,1138.2 701.8,1181.8 658.2,1181.8"/>
<polygon id="0xf6b850" class="l5d22" points="738.2,18.2 781.8,18.2 781.8,61.8 738.2,61.8"/>
<polygon id="0xf6b910" class="l5d22" points="738.2,98.2 781.8,98.2 781.8,141.8 738.2,141.8"/>
<polygon id="0xf6b9d0" class="l5d22" points="738.2,178.2 781.8,178.2 781.8,221.8 738.2,221.8"/>
<polygon id="0xf6ba90" class="l5d22" points="738.2,258.2 781.8,258.2 781.8,301.8 738.2,301.8"/>
<polygon id="0xf6bb50" class="l5d22" points="738.2,338.2 781.8,338.2 781.8,381.8 738.2,381.8"/>
<polygon id="0xf6bc10" class="l5d22" points="738.2,418.2 781.8,418.2 781.8,461.8 738.2,461.8"/>
<polygon id="0xf6bcd0" class="l5d22" points="738.2,498.2 781.8,498.2 781.8,541.8 738.2,541.8"/>
<polygon id="0xf6bd90" class="l5d22" points="738.2,578.2 781.8,578.2 781.8,621.8 738.2,621.8"/>
<polygon id="0xf6be50" class="l5d22" points="738.2,658.2 781.8,658.2 781.8,701.8 738.2,701.8"/>
<polygon id="0xf6bf10" class="l5d22" points="738.2,738.2 781.8,738.2 781.8,781.8 738.2,781.8"/>
<polygon id="0xf6bfd0" class="l5d22" points="738.2,818.2 781.8,818.2 781.8,861.8 738.2,861.8"/>
<polygon id="0xf6c090" class="l5d22" points="738.2,898.2 781.8,898.2 781.8,941.8 738.2,941.8"/>
<polygon id="0xf6c150" class="l5d22" points="738.2,978.2 781.8,978.2 781.8,1021.8 738.2,1021.8"/>
<polygon id="0xf6c210" class="l5d22" points="738.2,1058.2 781.8,1058.2 781.8,1101.8 738.2,1101.8"/>
<polygon id="0xf6c2d0" class="l5d22" points="738.2,1138.2 781.8,1138.2 781.8,1181.8 738.2,1181.8"/>
<polygon id="0xf6c390" class="l5d22" points="818.2,18.2 861.8,18.2 861.8,61.8 818.2,61.8"/>
<polygon id="0xf6c450" class="l5d22" points="818.2,98.2 861.8,98.2 861.8,141.8 818.2,141.8"/>
<polygon id="0xf6c510" class="l5d22" points="818.2,178.2 861.8,178.2 861.8,221.8 818.2,221.8"/>
<polygon id="0xf6c5d0" class="l5d22" points="818.2,258.2 861.8,258.2 861.8,301.8 818.2,301.8"/>
<polygon id="0xf6c690" class="l5d22" points="818.2,338.2 861.8,338.2 861.8,381.8 818.2,381.8"/>
<polygon id="0xf6c750" class="l5d22" points="818.2,418.2 861.8,418.2 861.8,461.8 818.2,461.8"/>
<polygon id="0xf6c810" class="l5d22" points="818.2,498.2 861.8,498.2 861.8,541.8 818.2,541.8"/>
<polygon id="0xf6c8d0" class="l5d22" points="818.2,578.2 861.8,578.2 861.8,621.8 818.2,621.8"/>
<polygon id="0xf6c990" class="l5d22" points="818.2,658.2 861.8,658.2 861.8,701.8 818.2,701.8"/>
<polygon id="0xf6ca50" class="l5d22" points="818.2,738.2 861.8,738.2 861.8,781.8 818.2,781.8"/>
<polygon id="0xf6cb10" class="l5d22" points="818.2,818.2 861.8,818.2 861.8,861.8 818.2,861.8"/>
<polygon id="0xf6cbd0" class="l5d22" points="818.2,898.2 861.8,898.2 861.8,941.8 818.2,941.8"/>
<polygon id="0xf6cc90" class="l5d22" points="818.2,978.2 861.8,978.2 861.8,1021.8 818.2,1021.8"/>
<polygon id="0xf6cd50" class="l5d22" points="818.2,1058.2 861.8,1058.2 861.8,1101.8 818.2,1101.8"/>
<polygon id="0xf6ce10" class="l5d22" points="818.2,1138.2 861.8,1138.2 861.8,1181.8 818.2,1181.8"/>
<polygon id="0xf6ced0" class="l5d22" points="898.2,18.2 941.8,18.2 941.8,61.8 898.2,61.8"/>
<polygon id="0xf6cf90" class="l5d22" points="898.2,98.2 941.8,98.2 941.8,141.8 898.2,141.8"/>
<polygon id="0xf6d050" class="l5d22" points="898.2,178.2 941.8,178.2 941.8,221.8 898.2,221.8"/>
<polygon id="0xf6d110" class="l5d22" points="898.2,258.2 941.8,258.2 941.8,301.8 898.2,301.8"/>
<polygon id="0xf6d1d0" class="l5d22" points="898.2,338.2 941.8,338.2 941.8,381.8 898.2,381.8"/>
<polygon id="0xf6d290" class="l5d22" points="898.2,418.2 941.8,418.2 941.8,461.8 898.2,461.8"/>
<polygon id="0xf6d350" class="l5d22" points="898.2,498.2 941.8,498.2 941.8,541.8 898.2,541.8"/>
<polygon id="0xf6d410" class="l5d22" points="898.2,578.2 941.8,578.2 941.8,621.8 898.2,621.8"/>
<polygon id="0xf6d4d0" class="l5d22" points="898.2,658.2 941.8,658.2 941.8,701.8 898.2,701.8"/>
<polygon id="0xf6d590" class="l5d22" points="898.2,738.2 941.8,738.2 941.8,781.8 898.2,781.8"/>
<polygon id="0xf6d650" class="l5d22" points="898.2,818.2 941.8,818.2 941.8,861.8 898.2,861.8"/>
<polygon id="0xf6d710" class="l5d22" points="898.2,898.2 941.8,898.2 941.8,941.8 898.2,941.8"/>
<polygon id="0xf6d7d0" class="l5d22" points="898.2,978.2 941.8,978.2 941.8,1021.8 898.2,1021.8"/>
<polygon id="0xf6d890" class="l5d22" points="898.2,1058.2 941.8,1058.2 941.8,1101.8 898.2,1101.8"/>
<polygon id="0xf6d950" class="l5d22" points="898.2,1138.2 941.8,1138.2 941.8,1181.8 898.2,1181.8"/>
<polygon id="0xf6da10" class="l5d22" points="978.2,18.2 1021.8,18.2 1021.8,61.8 978.2,61.8"/>
<polygon id="0xf6dad0" class="l5d22" points="978.2,98.2 1021.8,98.2 1021.8,141.8 978.2,141.8"/>
<polygon id="0xf6db90" class="l5d22" points="978.2,178.2 1021.8,178.2 1021.8,221.8 978.2,221.8"/>
<polygon id="0xf6dc50" class="l5d22" points="978.2,258.2 1021.8,258.2 1021.8,301.8 978.2,301.8"/>
<polygon id="0xf6dd10" class="l5d22" points="978.2,338.2 1021.8,338.2 1021.8,381.8 978.2,381.8"/>
<polygon id="0xf6ddd0" class="l5d22" points="978.2,418.2 1021.8,418.2 1021.8,461.8 978.2,461.8"/>
<polygon id="0xf6de90" class="l5d22" points="978.2,498.2 1021.8,498.2 1021.8,541.8 978.2,541.8"/>
<polygon id="0xf6df50" class="l5d22" points="978.2,578.2 1021.8,578.2 1021.8,621.8 978.2,621.8"/>
<polygon id="0xf6e010" class="l5d22" points="978.2,658.2 1021.8,658.2 1021.8,701.8 978.2,701.8"/>
<polygon id="0xf6e0d0" class="l5d22" points="978.2,738.2 1021.8,738.2 1021.8,781.8 978.2,781.8"/>
<polygon id="0xf6e190" class="l5d22" points="978.2,818.2 1021.8,818.2 1021.8,861.8 978.2,861.8"/>
<polygon id="0xf6e250" class="l5d22" points="978.2,898.2 1021.8,898.2 1021.8,941.8 978.2,941.8"/>
<polygon id="0xf6e310" class="l5d22" points="978.2,978.2 1021.8,978.2 1021.8,1021.8 978.2,1021.8"/>
<polygon id="0xf6e3d0" class="l5d22" points="978.2,1058.2 1021.8,1058.2 1021.8,1101.8 978.2,1101.8"/>
<polygon id="0xf6e490" class="l5d22" points="978.2,1138.2 1021.8,1138.2 1021.8,1181.8 978.2,1181.8"/>
<polygon id="0xf6e550" class="l5d22" points="1058.2,18.2 1101.8,18.2 1101.8,61.8 1058.2,61.8"/>
<polygon id="0xf6e610" class="l5d22" points="1058.2,98.2 1101.8,98.2 1101.8,141.8 1058.2,141.8"/>
<polygon id="0xf6e6d0" class="l5d22" points="1058.2,178.2 1101.8,178.2 1101.8,221.8 1058.2,221.8"/>
<polygon id="0xf6e790" class="l5d22" points="1058.2,258.2 1101.8,258.2 1101.8,301.8 1058.2,301.8"/>
<polygon id="0xf6e850" class="l5d22" points="1058.2,338.2 1101.8,338.2 1101.8,381.8 1058.2,381.8"/>
<polygon id="0xf6e910" class="l5d22" points="1058.2,418.2 1101.8,418.2 1101.8,461.8 1058.2,461.8"/>
<polygon id="0xf6e9d0" class="l5d22" points="1058.2,498.2 1101.8,498.2 1101.8,541.8 1058.2,541.8"/>
<polygon id="0xf6ea90" class="l5d22" points="1058.2,578.2 1101.8,578.2 1101.8,621.8 1058.2,621.8"/>
<polygon id="0xf6eb50" class="l5d22" points="1058.2,658.2 1101.8,658.2 1101.8,701.8 1058.2,701.8"/>
<polygon id="0xf6ec10" class="l5d22" points="1058.2,738.2 1101.8,738.2 1101.8,781.8 1058.2,781.8"/>
<polygon id="0xf6ecd0" class="l5d22" points="1058.2,818.2 1101.8,818.2 1101.8,861.8 1058.2,861.8"/>
<polygon id="0xf6ed90" class="l5d22" points="1058.2,898.2 1101.8,898.2 1101.8,941.8 1058.2,941.8"/>
<polygon id="0xf6ee50" class="l5d22" points="1058.2,978.2 1101.8,978.2 1101.8,1021.8 1058.2,1021.8"/>
<polygon id="0xf6ef10" class="l5d22" points="1058.2,1058.2 1101.8,1058.2 1101.8,1101.8 1058.2,1101.8"/>
<polygon id="0xf6efd0" class="l5d22" points="1058.2,1138.2 1101.8,1138.2 1101.8,1181.8 1058.2,1181.8"/>
<polygon id="0xf6f090" class="l5d22" points="1138.2,18.2 1181.8,18.2 1181.8,61.8 1138.2,61.8"/>
<polygon id="0xf6f150" class="l5d22" points="1138.2,98.2 1181.8,98.2 1181.8,141.8 1138.2,141.8"/>
<polygon id="0xf6f210" class="l5d22" points="1138.2,178.2 1181.8,178.2 1181.8,221.8 1138.2,221.8"/>
<polygon id="0xf6f2d0" class="l5d22" points="1138.2,258.2 1181.8,258.2 1181.8,301.8 1138.2,301.8"/>
<polygon id="0xf6f390" class="l5d22" points="1138.2,338.2 1181.8,338.2 1181.8,381.8 1138.2,381.8"/>
<polygon id="0xf6f450" class="l5d22" points="1138.2,418.2 1181.8,418.2 1181.8,461.8 1138.2,461.8"/>
<polygon id="0xf6f510" class="l5d22" points="1138.2,498.2 1181.8,498.2 1181.8,541.8 1138.2,541.8"/>
<polygon id="0xf6f5d0" class="l5d22" points="1138.2,578.2 1181.8,578.2 1181.8,621.8 1138.2,621.8"/>
<polygon id="0xf6f690" class="l5d22" points="1138.2,658.2 1181.8,658.2 1181.8,701.8 1138.2,701.8"/>
<polygon id="0xf6f750" class="l5d22" points="1138.2,738.2 1181.8,738.2 1181.8,781.8 1138.2,781.8"/>
<polygon id="0xf6f810" class="l5d22" points="1138.2,818.2 1181.8,818.2 1181.8,861.8 1138.2,861.8"/>
<polygon id="0xf6f8d0" class="l5d22" points="1138.2,898.2 1181.8,898.2 1181.8,941.8 1138.2,941.8"/>
<polygon id="0xf6f990" class="l5d22" points="1138.2,978.2 1181.8,978.2 1181.8,1021.8 1138.2,1021.8"/>
<polygon id="0xf6fa50" class="l5d22" points="1138.2,1058.2 1181.8,1058.2 1181.8,1101.8 1138.2,1101.8"/>
<polygon id="0xf6fb10" class="l5d22" points="1138.2,1138.2 1181.8,1138.2 1181.8,1181.8 1138.2,1181.8"/>
<polygon id="0xf6fbd0" class="l5d22" points="1218.2,18.2 1261.8,18.2 1261.8,61.8 1218.2,61.8"/>
<polygon id="0xf6fc90" class="l5d22" points="1218.2,98.2 1261.8,98.2 1261.8,141.8 1218.2,141.8"/>
<polygon id="0xf6fd50" class="l5d22" points="1218.2,178.2 1261.8,178.2 1261.8,221.8 1218.2,221.8"/>
<polygon id="0xf6fe10" class="l5d22" points="1218.2,258.2 1261.8,258.2 1261.8,301.8 1218.2,301.8"/>
<polygon id="0xf6fed0" class="l5d22" points="1218.2,338.2 1261.8,338.2 1261.8,381.8 1218.2,381.8"/>
<polygon id="0xf6ff90" class="l5d22" points="1218.2,418.2 1261.8,418.2 1261.8,461.8 1218.2,461.8"/>
<polygon id="0xf70050" class="l5d22" points="1218.2,498.2 1261.8,498.2 1261.8,541.8 1218.2,541.8"/>
<polygon id="0xf70110" class="l5d22" points="1218.2,578.2 1261.8,578.2 1261.8,621.8 1218.2,621.8"/>
<polygon id="0xf701d0" class="l5d22" points="1218.2,658.2 1261.8,658.2 1261.8,701.8 1218.2,701.8"/>
<polygon id="0xf70290" class="l5d22" points="1218.2,738.2 1261.8,738.2 1261.8,781.8 1218.2,781.8"/>
<polygon id="0xf70350" class="l5d22" points="1218.2,818.2 1261.8,818.2 1261.8,861.8 1218.2,861.8"/>
<polygon id="0xf70410" class="l5d22" points="1218.2,898.2 1261.8,898.2 1261.8,941.8 1218.2,941.8"/>
<polygon id="0xf704d0" class="l5d22" points="1218.2,978.2 1261.8,978.2 1261.8,1021.8 1218.2,1021.8"/>
<polygon id="0xf70590" class="l5d22" points="1218.2,1058.2 1261.8,1058.2 1261.8,1101.8 1218.2,1101.8"/>
<polygon id="0xf70650" class="l5d22" points="1218.2,1138.2 1261.8,1138.2 1261.8,1181.8 1218.2,1181.8"/>
<polygon id="0xf70710" class="l5d22" points="1298.2,18.2 1341.8,18.2 1341.8,61.8 1298.2,61.8"/>
<polygon id="0xf707d0" class="l5d22" points="1298.2,98.2 1341.8,98.2 1341.8,141.8 1298.2,141.8"/>
<polygon id="0xf70890" class="l5d22" points="1298.2,178.2 1341.8,178.2 1341.8,221.8 1298.2,221.8"/>
<polygon id="0xf70950" class="l5d22" points="1298.2,258.2 1341.8,258.2 1341.8,301.8 1298.2,301.8"/>
<polygon id="0xf70a10" class="l5d22" points="1298.2,338.2 1341.8,338.2 1341.8,381.8 1298.2,381.8"/>
<polygon id="0xf70ad0" class="l5d22" points="1298.2,418.2 1341.8,418.2 1341.8,461.8 1298.2,461.8"/>
<polygon id="0xf70b90" class="l5d22" points="1298.2,498.2 1341.8,498.2 1341.8,541.8 1298.2,541.8"/>
<polygon id="0xf70c50" class="l5d22" points="1298.2,578.2 1341.8,578.2 1341.8,621.8 1298.2,621.8"/>
<polygon id="0xf70d10" class="l5d22" points="1298.2,658.2 1341.8,658.2 1341.8,701.8 1298.2,701.8"/>
<polygon id="0xf70dd0" class="l5d22" points="1298.2,738.2 1341.8,738.2 1341.8,781.8 1298.2,781.8"/>
<polygon id="0xf70e90" class="l5d22" points="1298.2,818.2 1341.8,818.2 1341.8,861.8 1298.2,861.8"/>
<polygon id="0xf70f50" class="l5d22" points="1298.2,898.2 1341.8,898.2 1341.8,941.8 1298.2,941.8"/>
<polygon id="0xf71010" class="l5d22" points="1298.2,978.2 1341.8,978.2 1341.8,1021.8 1298.2,1021.8"/>
<polygon id="0xf710d0" class="l5d22" points="1298.2,1058.2 1341.8,1058.2 1341.8,1101.8 1298.2,1101.8"/>
<polygon id="0xf71190" class="l5d22" points="1298.2,1138.2 1341.8,1138.2 1341.8,1181.8 1298.2,1181.8"/>
<polygon id="0xf71250" class="l5d22" points="1378.2,18.2 1421.8,18.2 1421.8,61.8 1378.2,61.8"/>
<polygon id="0xf71310" class="l5d22" points="1378.2,98.2 1421.8,98.2 1421.8,141.8 1378.2,141.8"/>
<polygon id="0xf713d0" class="l5d22" points="1378.2,178.2 1421.8,178.2 1421.8,221.8 1378.2,221.8"/>
<polygon id="0xf71490" class="l5d22" points="1378.2,258.2 1421.8,258.2 1421.8,301.8 1378.2,301.8"/>
<polygon id="0xf71550" class="l5d22" points="1378.2,338.2 1421.8,338.2 1421.8,381.8 1378.2,381.8"/>
<polygon id="0xf71610" class="l5d22" points="1378.2,418.2 1421.8,418.2 1421.8,461.8 1378.2,461.8"/>
<polygon id="0xf716d0" class="l5d22" points="1378.2,498.2 1421.8,498.2 1421.8,541.8 1378.2,541.8"/>
<polygon id="0xf71790" class="l5d22" points="1378.2,578.2 1421.8,578.2 1421.8,621.8 1378.2,621.8"/>
<polygon id="0xf71850" class="l5d22" points="1378.2,658.2 1421.8,658.2 1421.8,701.8 1378.2,701.8"/>
<polygon id="0xf71910" class="l5d22" points="1378.2,738.2 1421.8,738.2 1421.8,781.8 1378.2,781.8"/>
<polygon id="0xf719d0" class="l5d22" points="1378.2,818.2 1421.8,818.2 1421.8,861.8 1378.2,861.8"/>
<polygon id="0xf71a90" class="l5d22" points="1378.2,898.2 1421.8,898.2 1421.8,941.8 1378.2,941.8"/>
<polygon id="0xf71b50" class="l5d22" points="1378.2,978.2 1421.8,978.2 1421.8,1021.8 1378.2,1021.8"/>
<polygon id="0xf71c10" class="l5d22" points="1378.2,1058.2 1421.8,1058.2 1421.8,1101.8 1378.2,1101.8"/>
<polygon id="0xf71cd0" class="l5d22" points="1378.2,1138.2 1421.8,1138.2 1421.8,1181.8 1378.2,1181.8"/>
<polygon id="0xf71d90" class="l5d22" points="1458.2,18.2 1501.8,18.2 1501.8,61.8 1458.2,61.8"/>
<polygon id="0xf71e50" class="l5d22" points="1458.2,98.2 1501.8,98.2 1501.8,141.8 1458.2,141.8"/>
<polygon id="0xf71f10" class="l5d22" points="1458.2,178.2 1501.8,178.2 1501.8,221.8 1458.2,221.8"/>
<polygon id="0xf71fd0" class="l5d22" points="1458.2,258.2 1501.8,258.2 1501.8,301.8 1458.2,301.8"/>
<polygon id="0xf72090" class="l5d22" points="1458.2,338.2 1501.8,338.2 1501.8,381.8 1458.2,381.8"/>
<polygon id="0xf72150" class="l5d22" points="1458.2,418.2 1501.8,418.2 1501.8,461.8 1458.2,461.8"/>
<polygon id="0xf72210" class="l5d22" points="1458.2,498.2 1501.8,498.2 1501.8,541.8 1458.2,541.8"/>
<polygon id="0xf722d0" class="l5d22" points="1458.2,578.2 1501.8,578.2 1501.8,621.8 1458.2,621.8"/>
<polygon id="0xf72390" class="l5d22" points="1458.2,658.2 1501.8,658.2 1501.8,701.8 1458.2,701.8"/>
<polygon id="0xf72450" class="l5d22" points="1458.2,738.2 1501.8,738.2 1501.8,781.8 1458.2,781.8"/>
<polygon id="0xf72510" class="l5d22" points="1458.2,818.2 1501.8,818.2 1501.8,861.8 1458.2,861.8"/>
<polygon id="0xf725d0" class="l5d22" points="1458.2,898.2 1501.8,898.2 1501.8,941.8 1458.2,941.8"/>
<polygon id="0xf72690" class="l5d22" points="1458.2,978.2 1501.8,978.2 1501.8,1021.8 1458.2,1021.8"/>
<polygon id="0xf72750" class="l5d22" points="1458.2,1058.2 1501.8,1058.2 1501.8,1101.8 1458.2,1101.8"/>
<polygon id="0xf72810" class="l5d22" points="1458.2,1138.2 1501.8,1138.2 1501.8,1181.8 1458.2,1181.8"/>
<polygon id="0xf728d0" class="l5d22" points="1538.2,18.2 1581.8,18.2 1581.8,61.8 1538.2,61.8"/>
<polygon id="0xf72990" class="l5d22" points="1538.2,98.2 1581.8,98.2 1581.8,141.8 1538.2,141.8"/>
<polygon id="0xf72a50" class="l5d22" points="1538.2,178.2 1581.8,178.2 1581.8,221.8 1538.2,221.8"/>
<polygon id="0xf72b10" class="l5d22" points="1538.2,258.2 1581.8,258.2 1581.8,301.8 1538.2,301.8"/>
<polygon id="0xf72bd0" class="l5d22" points="1538.2,338.2 1581.8,338.2 1581.8,381.8 1538.2,381.8"/>
<polygon id="0xf72c90" class="l5d22" points="1538.2,418.2 1581.8,418.2 1581.8,461.8 1538.2,461.8"/>
<polygon id="0xf72d50" class="l5d22" points="1538.2,498.2 1581.8,498.2 1581.8,541.8 1538.2,541.8"/>
<polygon id="0xf72e10" class="l5d22" points="1538.2,578.2 1581.8,578.2 1581.8,621.8 1538.2,621.8"/>
<polygon id="0xf72ed0" class="l5d22" points="1538.2,658.2 1581.8,658.2 1581.8,701.8 1538.2,701.8"/>
<polygon id="0xf72f90" class="l5d22" points="1538.2,738.2 1581.8,738.2 1581.8,781.8 1538.2,781.8"/>
<polygon id="0xf73050" class="l5d22" points="1538.2,818.2 1581.8,818.2 1581.8,861.8 1538.2,861.8"/>
<polygon id="0xf73110" class="l5d22" points="1538.2,898.2 1581.8,898.2 1581.8,941.8 1538.2,941.8"/>
<polygon id="0xf731d0" class="l5d22" points="1538.2,978.2 1581.8,978.2 1581.8,1021.8 1538.2,1021.8"/>
<polygon id="0xf73290" class="l5d22" points="1538.2,1058.2 1581.8,1058.2 1581.8,1101.8 1538.2,1101.8"/>
<polygon id="0xf73350" class="l5d22" points="1538.2,1138.2 1581.8,1138.2 1581.8,1181.8 1538.2,1181.8"/>
</g>
</svg>