<?xml version="1.0" encoding="UTF-8"?>
<svg xmlns="http://www.w3.org/2000/svg" xmlns:xlink="http://www.w3.org/1999/xlink" width="1760" height="1360" viewBox="-80 -1280 1760 1360">
<defs>
<style type="text/css">
.l5d0 {stroke: #008856; fill: #008856; fill-opacity: 0.5;}
.l1d0 {stroke: #A1CAF1; fill: #A1CAF1; fill-opacity: 0.5;}
.l126d0 {stroke: #E68FAC; fill: #E68FAC; fill-opacity: 0.5;}
.l189d4 {stroke: #A1CAF1; fill: #A1CAF1; fill-opacity: 0.5;}
</style>
</defs>
<rect x="-80" y="-1280" width="1760" height="1360" fill="#222222" stroke="none"/>
<g id="my_logo" transform="scale(1 -1)">
<polygon id="0x21ba200" class="l126d0" points="0,20 160,20 160,60 0,60"/>
<polygon id="0x2216830" class="l126d0" points="240,20 400,20 400,60 240,60"/>
<polygon id="0x21fe870" class="l126d0" points="720,20 800,20 800,60 720,60"/>
<polygon id="0x22b85a0" class="l126d0" points="880,20 1120,20 1120,60 880,60"/>
<polygon id="0x20fec40" class="l126d0" points="1200,20 1360,20 1360,60 1200,60"/>
<polygon id="0x22076f0" class="l126d0" points="160,100 240,100 240,140 160,140"/>
<polygon id="0x2184240" class="l126d0" points="400,100 480,100 480,140 400,140"/>
<polygon id="0x21b3410" class="l126d0" points="640,100 720,100 720,140 640,140"/>
<polygon id="0x236ed70" class="l126d0" points="800,100 1280,100 1280,140 800,140"/>
<polygon id="0x2370460" class="l126d0" points="1440,100 1600,100 1600,140 1440,140"/>
<polygon id="0x22ef7b0" class="l126d0" points="80,180 320,180 320,220 80,220"/>
<polygon id="0x22e57f0" class="l126d0" points="560,180 640,180 640,220 560,220"/>
<polygon id="0x2320720" class="l126d0" points="800,180 880,180 880,220 800,220"/>
<polygon id="0x23411f0" class="l126d0" points="1040,180 1120,180 1120,220 1040,220"/>
<polygon id="0x2335120" class="l126d0" points="1280,180 1600,180 1600,220 1280,220"/>
<polygon id="0x23740e0" class="l126d0" points="80,260 240,260 240,300 80,300"/>
<polygon id="0x236a090" class="l126d0" points="320,260 480,260 480,300 320,300"/>
<polygon id="0x21ad250" class="l126d0" points="720,260 800,260 800,300 720,300"/>
<polygon id="0x2336610" class="l126d0" points="880,260 960,260 960,300 880,300"/>
<polygon id="0x22050c0" class="l126d0" points="1040,260 1280,260 1280,300 1040,300"/>
<polygon id="0x227f2e0" class="l126d0" points="1360,260 1440,260 1440,300 1360,300"/>
<polygon id="0x22e9c20" class="l126d0" points="1520,260 1600,260 1600,300 1520,300"/>
<polygon id="0x2340090" class="l126d0" points="0,340 80,340 80,380 0,380"/>
<polygon id="0x2344670" class="l126d0" points="400,340 560,340 560,380 400,380"/>
<polygon id="0x2072920" class="l126d0" points="880,340 960,340 960,380 880,380"/>
<polygon id="0x215d8a0" class="l126d0" points="1280,340 1440,340 1440,380 1280,380"/>
<polygon id="0x20fd8f0" class="l126d0" points="0,420 160,420 160,460 0,460"/>
<polygon id="0x22a0c00" class="l126d0" points="240,420 400,420 400,460 240,460"/>
<polygon id="0x22ce1e0" class="l126d0" points="480,420 720,420 720,460 480,460"/>
<polygon id="0x2300830" class="l126d0" points="800,420 880,420 880,460 800,460"/>
<polygon id="0x214d570" class="l126d0" points="960,420 1040,420 1040,460 960,460"/>
<polygon id="0x213b2b0" class="l126d0" points="1440,420 1600,420 1600,460 1440,460"/>
<polygon id="0x21b3040" class="l126d0" points="0,500 160,500 160,540 0,540"/>
<polygon id="0x21d7120" class="l126d0" points="240,500 320,500 320,540 240,540"/>
<polygon id="0x2201800" class="l126d0" points="480,500 560,500 560,540 480,540"/>
<polygon id="0x22935d0" class="l126d0" points="800,500 880,500 880,540 800,540"/>
<polygon id="0x22bc600" class="l126d0" points="1040,500 1360,500 1360,540 1040,540"/>
<polygon id="0x2308710" class="l126d0" points="80,580 320,580 320,620 80,620"/>
<polygon id="0x232e7b0" class="l126d0" points="560,580 640,580 640,620 560,620"/>
<polygon id="0x2375280" class="l126d0" points="720,580 880,580 880,620 720,620"/>
<polygon id="0x237bf30" class="l126d0" points="960,580 1120,580 1120,620 960,620"/>
<polygon id="0x2146060" class="l126d0" points="1200,580 1280,580 1280,620 1200,620"/>
<polygon id="0x21aff00" class="l126d0" points="1440,580 1600,580 1600,620 1440,620"/>
<polygon id="0x2276770" class="l126d0" points="80,660 160,660 160,700 80,700"/>
<polygon id="0x23375d0" class="l126d0" points="320,660 400,660 400,700 320,700"/>
<polygon id="0x22f9eb0" class="l126d0" points="640,660 720,660 720,700 640,700"/>
<polygon id="0x2364c80" class="l126d0" points="880,660 960,660 960,700 880,700"/>
<polygon id="0x22bf2d0" class="l126d0" points="1040,660 1200,660 1200,700 1040,700"/>
<polygon id="0x22c1d40" class="l126d0" points="1360,660 1440,660 1440,700 1360,700"/>
<polygon id="0x22daa30" class="l126d0" points="0,740 160,740 160,780 0,780"/>
<polygon id="0x219e890" class="l126d0" points="240,740 320,740 320,780 240,780"/>
<polygon id="0x21960e0" class="l126d0" points="480,740 880,740 880,780 480,780"/>
<polygon id="0x21e1b70" class="l126d0" points="1040,740 1200,740 1200,780 1040,780"/>
<polygon id="0x21e1be0" class="l126d0" points="1280,740 1360,740 1360,780 1280,780"/>
<polygon id="0x226d1a0" class="l126d0" points="1440,740 1600,740 1600,780 1440,780"/>
<polygon id="0x22d9ac0" class="l126d0" points="0,820 80,820 80,860 0,860"/>
<polygon id="0x233f660" class="l126d0" points="240,820 480,820 480,860 240,860"/>
<polygon id="0x233f6d0" class="l126d0" points="800,820 1120,820 1120,860 800,860"/>
<polygon id="0x2374990" class="l126d0" points="1200,820 1280,820 1280,860 1200,860"/>
<polygon id="0x239af50" class="l126d0" points="1360,820 1440,820 1440,860 1360,860"/>
<polygon id="0x21415e0" class="l126d0" points="80,900 160,900 160,940 80,940"/>
<polygon id="0x2141650" class="l126d0" points="240,900 560,900 560,940 240,940"/>
<polygon id="0x215fa50" class="l126d0" points="640,900 1040,900 1040,940 640,940"/>
<polygon id="0x219dcf0" class="l126d0" points="1200,900 1360,900 1360,940 1200,940"/>
<polygon id="0x2202cc0" class="l126d0" points="1440,900 1520,900 1520,940 1440,940"/>
<polygon id="0x21df910" class="l126d0" points="0,980 240,980 240,1020 0,1020"/>
<polygon id="0x2321930" class="l126d0" points="640,980 720,980 720,1020 640,1020"/>
<polygon id="0x22e0ca0" class="l126d0" points="960,980 1040,980 1040,1020 960,1020"/>
<polygon id="0x233c1f0" class="l126d0" points="1200,980 1440,980 1440,1020 1200,1020"/>
<polygon id="0x234d990" class="l126d0" points="1520,980 1600,980 1600,1020 1520,1020"/>
<polygon id="0x2148f80" class="l126d0" points="80,1060 240,1060 240,1100 80,1100"/>
<polygon id="0x2149040" class="l126d0" points="320,1060 400,1060 400,1100 320,1100"/>
<polygon id="0x216a880" class="l126d0" points="1200,1060 1360,1060 1360,1100 1200,1100"/>
<polygon id="0x216a940" class="l126d0" points="0,1140 320,1140 320,1180 0,1180"/>
<polygon id="0x226fc20" class="l126d0" points="400,1140 480,1140 480,1180 400,1180"/>
<polygon id="0x226fce0" class="l126d0" points="560,1140 720,1140 720,1180 560,1180"/>
<polygon id="0x226d6a0" class="l126d0" points="1040,1140 1120,1140 1120,1180 1040,1180"/>
<polygon id="0x226d760" class="l126d0" points="1200,1140 1280,1140 1280,1180 1200,1180"/>
<polygon id="0x2371670" class="l126d0" points="1360,1140 1440,1140 1440,1180 1360,1180"/>
<polygon id="0x2371730" class="l126d0" points="20,80 60,80 60,320 20,320"/>
<polygon id="0x2161140" class="l126d0" points="20,560 60,560 60,720 20,720"/>
<polygon id="0x2161200" class="l126d0" points="20,880 60,880 60,960 20,960"/>
<polygon id="0x2202950" class="l126d0" points="20,1040 60,1040 60,1120 20,1120"/>
<polygon id="0x2202a10" class="l126d0" points="100,80 140,80 140,160 100,160"/>
<polygon id="0x22bde10" class="l126d0" points="100,320 140,320 140,400 100,400"/>
<polygon id="0x22bded0" class="l126d0" points="100,800 140,800 140,880 100,880"/>
<polygon id="0x232c3d0" class="l126d0" points="180,0 220,0 220,80 180,80"/>
<polygon id="0x206bce0" class="l126d0" points="180,320 220,320 220,560 180,560"/>
<polygon id="0x206bda0" class="l126d0" points="180,640 220,640 220,960 180,960"/>
<polygon id="0x23023b0" class="l126d0" points="260,80 300,80 300,160 260,160"/>
<polygon id="0x2306270" class="l126d0" points="260,240 300,240 300,400 260,400"/>
<polygon id="0x2306330" class="l126d0" points="260,640 300,640 300,720 260,720"/>
<polygon id="0x20d56a0" class="l126d0" points="260,960 300,960 300,1120 260,1120"/>
<polygon id="0x20d91e0" class="l126d0" points="340,80 380,80 380,240 340,240"/>
<polygon id="0x20d9250" class="l126d0" points="340,320 380,320 380,400 340,400"/>
<polygon id="0x20ef1c0" class="l126d0" points="340,480 380,480 380,640 340,640"/>
<polygon id="0x20ef280" class="l126d0" points="340,720 380,720 380,800 340,800"/>
<polygon id="0x20ec050" class="l126d0" points="340,960 380,960 380,1040 340,1040"/>
<polygon id="0x2111970" class="l126d0" points="340,1120 380,1120 380,1200 340,1200"/>
<polygon id="0x21119e0" class="l126d0" points="420,0 460,0 460,80 420,80"/>
<polygon id="0x2133440" class="l126d0" points="420,160 460,160 460,240 420,240"/>
<polygon id="0x2133500" class="l126d0" points="420,400 460,400 460,800 420,800"/>
<polygon id="0x213d820" class="l126d0" points="420,960 460,960 460,1120 420,1120"/>
<polygon id="0x2278730" class="l126d0" points="500,0 540,0 540,320 500,320"/>
<polygon id="0x22787a0" class="l126d0" points="500,560 540,560 540,720 500,720"/>
<polygon id="0x228dcc0" class="l126d0" points="500,800 540,800 540,880 500,880"/>
<polygon id="0x228dd80" class="l126d0" points="500,960 540,960 540,1200 500,1200"/>
<polygon id="0x237cbe0" class="l126d0" points="580,0 620,0 620,160 580,160"/>
<polygon id="0x2172610" class="l126d0" points="580,240 620,240 620,400 580,400"/>
<polygon id="0x2172680" class="l126d0" points="580,480 620,480 620,560 580,560"/>
<polygon id="0x2123970" class="l126d0" points="580,640 620,640 620,720 580,720"/>
<polygon id="0x2123a30" class="l126d0" points="580,800 620,800 620,1120 580,1120"/>
<polygon id="0x21e1510" class="l126d0" points="660,0 700,0 700,80 660,80"/>
<polygon id="0x22007e0" class="l126d0" points="660,160 700,160 700,400 660,400"/>
<polygon id="0x22008a0" class="l126d0" points="660,480 700,480 700,640 660,640"/>
<polygon id="0x226dcb0" class="l126d0" points="660,800 700,800 700,880 660,880"/>
<polygon id="0x226dd70" class="l126d0" points="660,1040 700,1040 700,1120 660,1120"/>
<polygon id="0x227c2d0" class="l126d0" points="740,80 780,80 780,240 740,240"/>
<polygon id="0x22f0e70" class="l126d0" points="740,320 780,320 780,560 740,560"/>
<polygon id="0x22f0f30" class="l126d0" points="740,640 780,640 780,720 740,720"/>
<polygon id="0x216c6b0" class="l126d0" points="740,800 780,800 780,880 740,880"/>
<polygon id="0x216c770" class="l126d0" points="740,960 780,960 780,1200 740,1200"/>
<polygon id="0x21b9570" class="l126d0" points="820,0 860,0 860,80 820,80"/>
<polygon id="0x21b9630" class="l126d0" points="820,240 860,240 860,400 820,400"/>
<polygon id="0x224b860" class="l126d0" points="820,640 860,640 860,720 820,720"/>
<polygon id="0x224b920" class="l126d0" points="820,960 860,960 860,1200 820,1200"/>
<polygon id="0x236ba60" class="l126d0" points="900,160 940,160 940,240 900,240"/>
<polygon id="0x236bb20" class="l126d0" points="900,400 940,400 940,640 900,640"/>
<polygon id="0x2171620" class="l126d0" points="900,720 940,720 940,800 900,800"/>
<polygon id="0x21716e0" class="l126d0" points="900,960 940,960 940,1200 900,1200"/>
<polygon id="0x215c1d0" class="l126d0" points="980,160 1020,160 1020,400 980,400"/>
<polygon id="0x215c290" class="l126d0" points="980,480 1020,480 1020,560 980,560"/>
<polygon id="0x216e980" class="l126d0" points="980,640 1020,640 1020,800 980,800"/>
<polygon id="0x216ea40" class="l126d0" points="980,1040 1020,1040 1020,1200 980,1200"/>
<polygon id="0x21b0840" class="l126d0" points="1060,320 1100,320 1100,480 1060,480"/>
<polygon id="0x21b0900" class="l126d0" points="1060,880 1100,880 1100,1120 1060,1120"/>
<polygon id="0x21ff6e0" class="l126d0" points="1140,0 1180,0 1180,80 1140,80"/>
<polygon id="0x21ff7a0" class="l126d0" points="1140,160 1180,160 1180,240 1140,240"/>
<polygon id="0x220b740" class="l126d0" points="1140,320 1180,320 1180,480 1140,480"/>
<polygon id="0x220b800" class="l126d0" points="1140,560 1180,560 1180,640 1140,640"/>
<polygon id="0x2282ef0" class="l126d0" points="1140,800 1180,800 1180,1200 1140,1200"/>
<polygon id="0x2282fb0" class="l126d0" points="1220,160 1260,160 1260,240 1220,240"/>
<polygon id="0x22c6610" class="l126d0" points="1220,320 1260,320 1260,480 1220,480"/>
<polygon id="0x22c66d0" class="l126d0" points="1220,640 1260,640 1260,800 1220,800"/>
<polygon id="0x212e680" class="l126d0" points="1300,80 1340,80 1340,160 1300,160"/>
<polygon id="0x212e740" class="l126d0" points="1300,240 1340,240 1340,320 1300,320"/>
<polygon id="0x216de50" class="l126d0" points="1300,400 1340,400 1340,480 1300,480"/>
<polygon id="0x216df10" class="l126d0" points="1300,560 1340,560 1340,720 1300,720"/>
<polygon id="0x21822e0" class="l126d0" points="1300,800 1340,800 1340,880 1300,880"/>
<polygon id="0x21823a0" class="l126d0" points="1300,1120 1340,1120 1340,1200 1300,1200"/>
<polygon id="0x21ca1f0" class="l126d0" points="1380,0 1420,0 1420,160 1380,160"/>
<polygon id="0x21ca2b0" class="l126d0" points="1380,400 1420,400 1420,640 1380,640"/>
<polygon id="0x21c0a40" class="l126d0" points="1380,720 1420,720 1420,800 1380,800"/>
<polygon id="0x21c0b00" class="l126d0" points="1380,880 1420,880 1420,960 1380,960"/>
<polygon id="0x2361ba0" class="l126d0" points="1380,1040 1420,1040 1420,1120 1380,1120"/>
<polygon id="0x2361c60" class="l126d0" points="1460,0 1500,0 1500,80 1460,80"/>
<polygon id="0x20cfbc0" class="l126d0" points="1460,240 1500,240 1500,400 1460,400"/>
<polygon id="0x20cfc80" class="l126d0" points="1460,480 1500,480 1500,560 1460,560"/>
<polygon id="0x20cf1d0" class="l126d0" points="1460,640 1500,640 1500,720 1460,720"/>
<polygon id="0x20cf290" class="l126d0" points="1460,800 1500,800 1500,880 1460,880"/>
<polygon id="0x2169f90" class="l126d0" points="1460,960 1500,960 1500,1200 1460,1200"/>
<polygon id="0x216a050" class="l126d0" points="1540,0 1580,0 1580,80 1540,80"/>
<polygon id="0x21b2520" class="l126d0" points="1540,320 1580,320 1580,400 1540,400"/>
<polygon id="0x21b25e0" class="l126d0" points="1540,480 1580,480 1580,560 1540,560"/>
<polygon id="0x2246020" class="l126d0" points="1540,640 1580,640 1580,720 1540,720"/>
<polygon id="0x22460e0" class="l126d0" points="1540,800 1580,800 1580,960 1540,960"/>
<polygon id="0x22b7760" class="l126d0" points="1540,1040 1580,1040 1580,1200 1540,1200"/>
<polygon id="0x22b7820" class="l189d4" points="0,0 300,0 300,300 0,300"/>
<polygon id="0x2345920" class="l1d0" points="35,35 45,35 45,45 35,45"/>
<polygon id="0x23459e0" class="l1d0" points="35,195 45,195 45,205 35,205"/>
<polygon id="0x224dfb0" class="l1d0" points="35,355 45,355 45,365 35,365"/>
<polygon id="0x224e070" class="l1d0" points="35,515 45,515 45,525 35,525"/>
<polygon id="0x22c6f10" class="l1d0" points="35,675 45,675 45,685 35,685"/>
<polygon id="0x22c6fd0" class="l1d0" points="35,835 45,835 45,845 35,845"/>
<polygon id="0x22d0a10" class="l1d0" points="35,995 45,995 45,1005 35,1005"/>
<polygon id="0x22d0ad0" class="l1d0" points="35,1155 45,1155 45,1165 35,1165"/>
<polygon id="0x219ca50" class="l1d0" points="195,35 205,35 205,45 195,45"/>
<polygon id="0x219cac0" class="l1d0" points="195,195 205,195 205,205 195,205"/>
<polygon id="0x219cb80" class="l1d0" points="195,355 205,355 205,365 195,365"/>
<polygon id="0x2214070" class="l1d0" points="195,515 205,515 205,525 195,525"/>
<polygon id="0x2214130" class="l1d0" points="195,675 205,675 205,685 195,685"/>
<polygon id="0x2206050" class="l1d0" points="195,835 205,835 205,845 195,845"/>
<polygon id="0x2206110" class="l1d0" points="195,995 205,995 205,1005 195,1005"/>
<polygon id="0x227a000" class="l1d0" points="195,1155 205,1155 205,1165 195,1165"/>
<polygon id="0x227a0c0" class="l1d0" points="355,35 365,35 365,45 355,45"/>
<polygon id="0x22e1390" class="l1d0" points="355,195 365,195 365,205 355,205"/>
<polygon id="0x22e1450" class="l1d0" points="355,355 365,355 365,365 355,365"/>
<polygon id="0x22e8a20" class="l1d0" points="355,515 365,515 365,525 355,525"/>
<polygon id="0x22e8ae0" class="l1d0" points="355,675 365,675 365,685 355,685"/>
<polygon id="0x2131ac0" class="l1d0" points="355,835 365,835 365,845 355,845"/>
<polygon id="0x2131b80" class="l1d0" points="355,995 365,995 365,1005 355,1005"/>
<polygon id="0x2131c40" class="l1d0" points="355,1155 365,1155 365,1165 355,1165"/>
<polygon id="0x2174640" class="l1d0" points="515,35 525,35 525,45 515,45"/>
<polygon id="0x2174700" class="l1d0" points="515,195 525,195 525,205 515,205"/>
<polygon id="0x21747c0" class="l1d0" points="515,355 525,355 525,365 515,365"/>
<polygon id="0x2177110" class="l1d0" points="515,515 525,515 525,525 515,525"/>
<polygon id="0x21771d0" class="l1d0" points="515,675 525,675 525,685 515,685"/>
<polygon id="0x2177290" class="l1d0" points="515,835 525,835 525,845 515,845"/>
<polygon id="0x2193d20" class="l1d0" points="515,995 525,995 525,1005 515,1005"/>
<polygon id="0x2193de0" class="l1d0" points="515,1155 525,1155 525,1165 515,1165"/>
<polygon id="0x2193ea0" class="l1d0" points="675,35 685,35 685,45 675,45"/>
<polygon id="0x21c90f0" class="l1d0" points="675,195 685,195 685,205 675,205"/>
<polygon id="0x21c91b0" class="l1d0" points="675,355 685,355 685,365 675,365"/>
<polygon id="0x21c9270" class="l1d0" points="675,515 685,515 685,525 675,525"/>
<polygon id="0x21d7dc0" class="l1d0" points="675,675 685,675 685,685 675,685"/>
<polygon id="0x21d7e80" class="l1d0" points="675,835 685,835 685,845 675,845"/>
<polygon id="0x228e660" class="l1d0" points="675,995 685,995 685,1005 675,1005"/>
<polygon id="0x228e720" class="l1d0" points="675,1155 685,1155 685,1165 675,1165"/>
<polygon id="0x228e7e0" class="l1d0" points="835,35 845,35 845,45 835,45"/>
<polygon id="0x2190cb0" class="l1d0" points="835,195 845,195 845,205 835,205"/>
<polygon id="0x2190d70" class="l1d0" points="835,355 845,355 845,365 835,365"/>
<polygon id="0x21e5200" class="l1d0" points="835,515 845,515 845,525 835,525"/>
<polygon id="0x21e52c0" class="l1d0" points="835,675 845,675 845,685 835,685"/>
<polygon id="0x21e5380" class="l1d0" points="835,835 845,835 845,845 835,845"/>
<polygon id="0x23258a0" class="l1d0" points="835,995 845,995 845,1005 835,1005"/>
<polygon id="0x2325960" class="l1d0" points="835,1155 845,1155 845,1165 835,1165"/>
<polygon id="0x22de1e0" class="l1d0" points="995,35 1005,35 1005,45 995,45"/>
<polygon id="0x22de2a0" class="l1d0" points="995,195 1005,195 1005,205 995,205"/>
<polygon id="0x22de360" class="l1d0" points="995,355 1005,355 1005,365 995,365"/>
<polygon id="0x237ff60" class="l1d0" points="995,515 1005,515 1005,525 995,525"/>
<polygon id="0x2380020" class="l1d0" points="995,675 1005,675 1005,685 995,685"/>
<polygon id="0x239c200" class="l1d0" points="995,835 1005,835 1005,845 995,845"/>
<polygon id="0x239c270" class="l1d0" points="995,995 1005,995 1005,1005 995,1005"/>
<polygon id="0x239c330" class="l1d0" points="995,1155 1005,1155 1005,1165 995,1165"/>
<polygon id="0x239c3f0" class="l1d0" points="1155,35 1165,35 1165,45 1155,45"/>
<polygon id="0x2393190" class="l1d0" points="1155,195 1165,195 1165,205 1155,205"/>
<polygon id="0x2393250" class="l1d0" points="1155,355 1165,355 1165,365 1155,365"/>
<polygon id="0x2393310" class="l1d0" points="1155,515 1165,515 1165,525 1155,525"/>
<polygon id="0x23933d0" class="l1d0" points="1155,675 1165,675 1165,685 1155,685"/>
<polygon id="0x2393490" class="l1d0" points="1155,835 1165,835 1165,845 1155,845"/>
<polygon id="0x2393550" class="l1d0" points="1155,995 1165,995 1165,1005 1155,1005"/>
<polygon id="0x2393610" class="l1d0" points="1155,1155 1165,1155 1165,1165 1155,1165"/>
<polygon id="0x23936d0" class="l1d0" points="1315,35 1325,35 1325,45 1315,45"/>
<polygon id="0x2393790" class="l1d0" points="1315,195 1325,195 1325,205 1315,205"/>
<polygon id="0x2393850" class="l1d0" points="1315,355 1325,355 1325,365 1315,365"/>
<polygon id="0x2393910" class="l1d0" points="1315,515 1325,515 1325,525 1315,525"/>
<polygon id="0x23939d0" class="l1d0" points="1315,675 1325,675 1325,685 1315,685"/>
<polygon id="0x2393a90" class="l1d0" points="1315,835 1325,835 1325,845 1315,845"/>
<polygon id="0x2393b50" class="l1d0" points="1315,995 1325,995 1325,1005 1315,1005"/>
<polygon id="0x2393c10" class="l1d0" points="1315,1155 1325,1155 1325,1165 1315,1165"/>
<polygon id="0x2393cd0" class="l1d0" points="1475,35 1485,35 1485,45 1475,45"/>
<polygon id="0x2393d90" class="l1d0" points="1475,195 1485,195 1485,205 1475,205"/>
<polygon id="0x2393e50" class="l1d0" points="1475,355 1485,355 1485,365 1475,365"/>
<polygon id="0x2393f10" class="l1d0" points="1475,515 1485,515 1485,525 1475,525"/>
<polygon id="0x2393fd0" class="l1d0" points="1475,675 1485,675 1485,685 1475,685"/>
<polygon id="0x2394090" class="l1d0" points="1475,835 1485,835 1485,845 1475,845"/>
<polygon id="0x2394150" class="l1d0" points="1475,995 1485,995 1485,1005 1475,1005"/>
<polygon id="0x2394210" class="l1d0" points="1475,1155 1485,1155 1485,1165 1475,1165"/>
<polygon id="0x23942d0" class="l5d0" points="115,115 125,115 125,125 115,125"/>
<polygon id="0x2394390" class="l5d0" points="115,275 125,275 125,285 115,285"/>
<polygon id="0x2394450" class="l5d0" points="115,435 125,435 125,445 115,445"/>
<polygon id="0x2394510" class="l5d0" points="115,595 125,595 125,605 115,605"/>
<polygon id="0x23945d0" class="l5d0" points="115,755 125,755 125,765 115,765"/>
<polygon id="0x2394690" class="l5d0" points="115,915 125,915 125,925 115,925"/>
<polygon id="0x2394750" class="l5d0" points="115,1075 125,1075 125,1085 115,1085"/>
<polygon id="0x2394810" class="l5d0" points="275,115 285,115 285,125 275,125"/>
<polygon id="0x23948d0" class="l5d0" points="275,275 285,275 285,285 275,285"/>
<polygon id="0x2392930" class="l5d0" points="275,435 285,435 285,445 275,445"/>
<polygon id="0x23929f0" class="l5d0" points="275,595 285,595 285,605 275,605"/>
<polygon id="0x2392ab0" class="l5d0" points="275,755 285,755 285,765 275,765"/>
<polygon id="0x2392b70" class="l5d0" points="275,915 285,915 285,925 275,925"/>
<polygon id="0x2392c30" class="l5d0" points="275,1075 285,1075 285,1085 275,1085"/>
<polygon id="0x2392cf0" class="l5d0" points="435,115 445,115 445,125 435,125"/>
<polygon id="0x2392db0" class="l5d0" points="435,275 445,275 445,285 435,285"/>
<polygon id="0x2392e70" class="l5d0" points="435,435 445,435 445,445 435,445"/>
<polygon id="0x2392f30" class="l5d0" points="435,595 445,595 445,605 435,605"/>
<polygon id="0x2392ff0" class="l5d0" points="435,755 445,755 445,765 435,765"/>
<polygon id="0x23930b0" class="l5d0" points="435,915 445,915 445,925 435,925"/>
<polygon id="0x23959f0" class="l5d0" points="435,1075 445,1075 445,1085 435,1085"/>
<polygon id="0x2395ab0" class="l5d0" points="595,115 605,115 605,125 595,125"/>
<polygon id="0x2395b70" class="l5d0" points="595,275 605,275 605,285 595,285"/>
<polygon id="0x2395c30" class="l5d0" points="595,435 605,435 605,445 595,445"/>
<polygon id="0x2395cf0" class="l5d0" points="595,595 605,595 605,605 595,605"/>
<polygon id="0x2395db0" class="l5d0" points="595,755 605,755 605,765 595,765"/>
<polygon id="0x2395e70" class="l5d0" points="595,915 605,915 605,925 595,925"/>
<polygon id="0x2395f30" class="l5d0" points="595,1075 605,1075 605,1085 595,1085"/>
<polygon id="0x2395ff0" class="l5d0" points="755,115 765,115 765,125 755,125"/>
<polygon id="0x23960b0" class="l5d0" points="755,275 765,275 765,285 755,285"/>
<polygon id="0x2396170" class="l5d0" points="755,435 765,435 765,445 755,445"/>
<polygon id="0x2396230" class="l5d0" points="755,595 765,595 765,605 755,605"/>
<polygon id="0x23962f0" class="l5d0" points="755,755 765,755 765,765 755,765"/>
<polygon id="0x23963b0" class="l5d0" points="755,915 765,915 765,925 755,925"/>
<polygon id="0x2396470" class="l5d0" points="755,1075 765,1075 765,1085 755,1085"/>
<polygon id="0x2396530" class="l5d0" points="915,115 925,115 925,125 915,125"/>
<polygon id="0x23965f0" class="l5d0" points="915,275 925,275 925,285 915,285"/>
<polygon id="0x23966b0" class="l5d0" points="915,435 925,435 925,445 915,445"/>
<polygon id="0x2396770" class="l5d0" points="915,595 925,595 925,605 915,605"/>
<polygon id="0x2396830" class="l5d0" points="915,755 925,755 925,765 915,765"/>
<polygon id="0x23968f0" class="l5d0" points="915,915 925,915 925,925 915,925"/>
<polygon id="0x23969b0" class="l5d0" points="915,1075 925,1075 925,1085 915,1085"/>
<polygon id="0x2396a70" class="l5d0" points="1075,115 1085,115 1085,125 1075,125"/>
<polygon id="0x2396b30" class="l5d0" points="1075,275 1085,275 1085,285 1075,285"/>
<polygon id="0x2396bf0" class="l5d0" points="1075,435 1085,435 1085,445 1075,445"/>
<polygon id="0x2396cb0" class="l5d0" points="1075,595 1085,595 1085,605 1075,605"/>
<polygon id="0x2396d70" class="l5d0" points="1075,755 1085,755 1085,765 1075,765"/>
<polygon id="0x2396e30" class="l5d0" points="1075,915 1085,915 1085,925 1075,925"/>
<polygon id="0x2396ef0" class="l5d0" points="1075,1075 1085,1075 1085,1085 1075,1085"/>
<polygon id="0x2396fb0" class="l5d0" points="1235,115 1245,115 1245,125 1235,125"/>
<polygon id="0x2397070" class="l5d0" points="1235,275 1245,275 1245,285 1235,285"/>
<polygon id="0x2397130" class="l5d0" points="1235,435 1245,435 1245,445 1235,445"/>
<polygon id="0x23971f0" class="l5d0" points="1235,595 1245,595 1245,605 1235,605"/>
<polygon id="0x23972b0" class="l5d0" points="1235,755 1245,755 1245,765 1235,765"/>
<polygon id="0x2397370" class="l5d0" points="1235,915 1245,915 1245,925 1235,925"/>
<polygon id="0x2397430" class="l5d0" points="1235,1075 1245,1075 1245,1085 1235,1085"/>
<polygon id="0x23974f0" class="l5d0" points="1395,115 1405,115 1405,125 1395,125"/>
<polygon id="0x23975b0" class="l5d0" points="1395,275 1405,275 1405,285 1395,285"/>
<polygon id="0x2397670" class="l5d0" points="1395,435 1405,435 1405,445 1395,445"/>
<polygon id="0x2397730" class="l5d0" points="1395,595 1405,595 1405,605 1395,605"/>
<polygon id="0x23977f0" class="l5d0" points="1395,755 1405,755 1405,765 1395,765"/>
<polygon id="0x23978b0" class="l5d0" points="1395,915 1405,915 1405,925 1395,925"/>
<polygon id="0x2397970" class="l5d0" points="1395,1075 1405,1075 1405,1085 1395,1085"/>
<polygon id="0x2397a30" class="l5d0" points="1555,115 1565,115 1565,125 1555,125"/>
<polygon id="0x2397af0" class="l5d0" points="1555,275 1565,275 1565,285 1555,285"/>
<polygon id="0x2397bb0" class="l5d0" points="1555,435 1565,435 1565,445 1555,445"/>
<polygon id="0x2397c70" class="l5d0" points="1555,595 1565,595 1565,605 1555,605"/>
<polygon id="0x2397d30" class="l5d0" points="1555,755 1565,755 1565,765 1555,765"/>
<polygon id="0x2397df0" class="l5d0" points="1555,915 1565,915 1565,925 1555,925"/>
<polygon id="0x2397eb0" class="l5d0" points="1555,1075 1565,1075 1565,1085 1555,1085"/>
</g>
</svg>