<?xml version="1.0" encoding="UTF-8"?>
<svg xmlns="http://www.w3.org/2000/svg" xmlns:xlink="http://www.w3.org/1999/xlink" width="1496" height="1496" viewBox="-68 -1428 1496 1496">
<defs>
<style type="text/css">
.l126d0 {stroke: #E68FAC; fill: #E68FAC; fill-opacity: 0.5;}
.l189d4 {stroke: #A1CAF1; fill: #A1CAF1; fill-opacity: 0.5;}
</style>
</defs>
<rect x="-68" y="-1428" width="1496" height="1496" fill="#222222" stroke="none"/>
<g id="my_logo" transform="scale(1 -1)">
<polygon id="0x127f0b0" class="l126d0" points="0,20 80,20 80,60 0,60"/>
<polygon id="0x1285ea0" class="l126d0" points="160,20 240,20 240,60 160,60"/>
<polygon id="0x1290c60" class="l126d0" points="560,20 640,20 640,60 560,60"/>
<polygon id="0x12e2c20" class="l126d0" points="720,20 1040,20 1040,60 720,60"/>
<polygon id="0x13bc3b0" class="l126d0" points="1200,20 1280,20 1280,60 1200,60"/>
<polygon id="0x143b320" class="l126d0" points="0,100 80,100 80,140 0,140"/>
<polygon id="0x143ca10" class="l126d0" points="240,100 480,100 480,140 240,140"/>
<polygon id="0x1395a30" class="l126d0" points="560,100 720,100 720,140 560,140"/>
<polygon id="0x13a3d70" class="l126d0" points="800,100 880,100 880,140 800,140"/>
<polygon id="0x142d550" class="l126d0" points="960,100 1040,100 1040,140 960,140"/>
<polygon id="0x1440690" class="l126d0" points="1120,100 1280,100 1280,140 1120,140"/>
<polygon id="0x14265e0" class="l126d0" points="0,180 160,180 160,220 0,220"/>
<polygon id="0x12d7c10" class="l126d0" points="640,180 800,180 800,220 640,220"/>
<polygon id="0x1407450" class="l126d0" points="1040,180 1120,180 1120,220 1040,220"/>
<polygon id="0x1279410" class="l126d0" points="1200,180 1280,180 1280,220 1200,220"/>
<polygon id="0x134b4f0" class="l126d0" points="0,260 320,260 320,300 0,300"/>
<polygon id="0x13b6530" class="l126d0" points="400,260 480,260 480,300 400,300"/>
<polygon id="0x13bada0" class="l126d0" points="560,260 800,260 800,300 560,300"/>
<polygon id="0x140cdb0" class="l126d0" points="960,260 1040,260 1040,300 960,300"/>
<polygon id="0x1199850" class="l126d0" points="1200,260 1360,260 1360,300 1200,300"/>
<polygon id="0x12194d0" class="l126d0" points="0,340 160,340 160,380 0,380"/>
<polygon id="0x122c570" class="l126d0" points="320,340 400,340 400,380 320,380"/>
<polygon id="0x123ac20" class="l126d0" points="480,340 640,340 640,380 480,380"/>
<polygon id="0x11c9a50" class="l126d0" points="720,340 800,340 800,380 720,380"/>
<polygon id="0x139a7d0" class="l126d0" points="960,340 1200,340 1200,380 960,380"/>
<polygon id="0x13a6480" class="l126d0" points="400,420 480,420 480,460 400,460"/>
<polygon id="0x13cd0f0" class="l126d0" points="640,420 720,420 720,460 640,460"/>
<polygon id="0x13feac0" class="l126d0" points="800,420 880,420 880,460 800,460"/>
<polygon id="0x12450d0" class="l126d0" points="1040,420 1120,420 1120,460 1040,460"/>
<polygon id="0x127ec90" class="l126d0" points="1200,420 1280,420 1280,460 1200,460"/>
<polygon id="0x12a3200" class="l126d0" points="240,500 400,500 400,540 240,540"/>
<polygon id="0x12cd980" class="l126d0" points="480,500 640,500 640,540 480,540"/>
<polygon id="0x1388bf0" class="l126d0" points="960,500 1040,500 1040,540 960,540"/>
<polygon id="0x1468b50" class="l126d0" points="1120,500 1280,500 1280,540 1120,540"/>
<polygon id="0x13f2000" class="l126d0" points="320,580 400,580 400,620 320,620"/>
<polygon id="0x13d4d50" class="l126d0" points="480,580 1120,580 1120,620 480,620"/>
<polygon id="0x1441830" class="l126d0" points="1200,580 1360,580 1360,620 1200,620"/>
<polygon id="0x1201380" class="l126d0" points="0,660 240,660 240,700 0,700"/>
<polygon id="0x1212000" class="l126d0" points="320,660 400,660 400,700 320,700"/>
<polygon id="0x127bba0" class="l126d0" points="560,660 640,660 640,700 560,700"/>
<polygon id="0x1342980" class="l126d0" points="880,660 1120,660 1120,700 880,700"/>
<polygon id="0x1349520" class="l126d0" points="0,740 80,740 80,780 0,780"/>
<polygon id="0x120d5e0" class="l126d0" points="320,740 400,740 400,780 320,780"/>
<polygon id="0x138b910" class="l126d0" points="480,740 720,740 720,780 480,780"/>
<polygon id="0x138e380" class="l126d0" points="800,740 960,740 960,780 800,780"/>
<polygon id="0x13a73b0" class="l126d0" points="1040,740 1360,740 1360,780 1040,780"/>
<polygon id="0x133bb30" class="l126d0" points="0,820 80,820 80,860 0,860"/>
<polygon id="0x13c0c10" class="l126d0" points="240,820 400,820 400,860 240,860"/>
<polygon id="0x140c3d0" class="l126d0" points="560,820 720,820 720,860 560,860"/>
<polygon id="0x140c440" class="l126d0" points="800,820 880,820 880,860 800,860"/>
<polygon id="0x1440f40" class="l126d0" points="960,820 1040,820 1040,860 960,860"/>
<polygon id="0x1467690" class="l126d0" points="1280,820 1360,820 1360,860 1280,860"/>
<polygon id="0x122c1c0" class="l126d0" points="160,900 240,900 240,940 160,940"/>
<polygon id="0x122c230" class="l126d0" points="560,900 640,900 640,940 560,940"/>
<polygon id="0x122e770" class="l126d0" points="720,900 800,900 800,940 720,940"/>
<polygon id="0x1269e00" class="l126d0" points="1040,900 1120,900 1120,940 1040,940"/>
<polygon id="0x12d2550" class="l126d0" points="1200,900 1360,900 1360,940 1200,940"/>
<polygon id="0x12abc40" class="l126d0" points="80,980 240,980 240,1020 80,1020"/>
<polygon id="0x137b0d0" class="l126d0" points="320,980 480,980 480,1020 320,1020"/>
<polygon id="0x13ce380" class="l126d0" points="560,980 720,980 720,1020 560,1020"/>
<polygon id="0x13ad2e0" class="l126d0" points="800,980 880,980 880,1020 800,1020"/>
<polygon id="0x1408da0" class="l126d0" points="1280,980 1360,980 1360,1020 1280,1020"/>
<polygon id="0x141a2b0" class="l126d0" points="80,1060 160,1060 160,1100 80,1100"/>
<polygon id="0x1429f40" class="l126d0" points="240,1060 640,1060 640,1100 240,1100"/>
<polygon id="0x11f3a80" class="l126d0" points="720,1060 800,1060 800,1100 720,1100"/>
<polygon id="0x11f3b40" class="l126d0" points="880,1060 960,1060 960,1100 880,1100"/>
<polygon id="0x1214f20" class="l126d0" points="1040,1060 1200,1060 1200,1100 1040,1100"/>
<polygon id="0x1214fe0" class="l126d0" points="1280,1060 1360,1060 1360,1100 1280,1100"/>
<polygon id="0x12392e0" class="l126d0" points="320,1140 400,1140 400,1180 320,1180"/>
<polygon id="0x12393a0" class="l126d0" points="560,1140 640,1140 640,1180 560,1180"/>
<polygon id="0x126a790" class="l126d0" points="800,1140 880,1140 880,1180 800,1180"/>
<polygon id="0x126a850" class="l126d0" points="960,1140 1120,1140 1120,1180 960,1180"/>
<polygon id="0x12c9fe0" class="l126d0" points="1280,1140 1360,1140 1360,1180 1280,1180"/>
<polygon id="0x12ca0a0" class="l126d0" points="240,1220 400,1220 400,1260 240,1260"/>
<polygon id="0x143dc20" class="l126d0" points="560,1220 640,1220 640,1260 560,1260"/>
<polygon id="0x143dce0" class="l126d0" points="720,1220 1120,1220 1120,1260 720,1260"/>
<polygon id="0x110c980" class="l126d0" points="1200,1220 1280,1220 1280,1260 1200,1260"/>
<polygon id="0x110ca40" class="l126d0" points="240,1300 320,1300 320,1340 240,1340"/>
<polygon id="0x122fe60" class="l126d0" points="640,1300 800,1300 800,1340 640,1340"/>
<polygon id="0x122ff20" class="l126d0" points="960,1300 1120,1300 1120,1340 960,1340"/>
<polygon id="0x138a450" class="l126d0" points="20,400 60,400 60,640 20,640"/>
<polygon id="0x138a510" class="l126d0" points="20,880 60,880 60,1360 20,1360"/>
<polygon id="0x1145b90" class="l126d0" points="100,0 140,0 140,160 100,160"/>
<polygon id="0x1145c50" class="l126d0" points="100,400 140,400 140,640 100,640"/>
<polygon id="0x13ce9f0" class="l126d0" points="100,720 140,720 140,960 100,960"/>
<polygon id="0x13d28b0" class="l126d0" points="100,1120 140,1120 140,1360 100,1360"/>
<polygon id="0x13d2970" class="l126d0" points="180,80 220,80 220,240 180,240"/>
<polygon id="0x11dd4b0" class="l126d0" points="180,320 220,320 220,640 180,640"/>
<polygon id="0x11ff710" class="l126d0" points="180,720 220,720 220,880 180,880"/>
<polygon id="0x11ff780" class="l126d0" points="180,1040 220,1040 220,1360 180,1360"/>
<polygon id="0x1209770" class="l126d0" points="260,0 300,0 300,80 260,80"/>
<polygon id="0x1209830" class="l126d0" points="260,160 300,160 300,240 260,240"/>
<polygon id="0x1242210" class="l126d0" points="260,320 300,320 300,480 260,480"/>
<polygon id="0x1344940" class="l126d0" points="260,560 300,560 300,800 260,800"/>
<polygon id="0x13449b0" class="l126d0" points="260,880 300,880 300,1040 260,1040"/>
<polygon id="0x135a4b0" class="l126d0" points="260,1120 300,1120 300,1200 260,1200"/>
<polygon id="0x135a570" class="l126d0" points="340,0 380,0 380,80 340,80"/>
<polygon id="0x13d8680" class="l126d0" points="340,160 380,160 380,320 340,320"/>
<polygon id="0x140b230" class="l126d0" points="340,400 380,400 380,480 340,480"/>
<polygon id="0x140b2a0" class="l126d0" points="340,880 380,880 380,960 340,960"/>
<polygon id="0x1449380" class="l126d0" points="340,1280 380,1280 380,1360 340,1360"/>
<polygon id="0x1449440" class="l126d0" points="420,0 460,0 460,80 420,80"/>
<polygon id="0x11fd9c0" class="l126d0" points="420,160 460,160 460,240 420,240"/>
<polygon id="0x11ef780" class="l126d0" points="420,320 460,320 460,400 420,400"/>
<polygon id="0x11ef840" class="l126d0" points="420,480 460,480 460,960 420,960"/>
<polygon id="0x12d3ec0" class="l126d0" points="420,1120 460,1120 460,1360 420,1360"/>
<polygon id="0x12d3f80" class="l126d0" points="500,0 540,0 540,320 500,320"/>
<polygon id="0x12cc9a0" class="l126d0" points="500,400 540,400 540,480 500,480"/>
<polygon id="0x1339f10" class="l126d0" points="500,640 540,640 540,720 500,720"/>
<polygon id="0x1339fd0" class="l126d0" points="500,800 540,800 540,1040 500,1040"/>
<polygon id="0x1348490" class="l126d0" points="500,1120 540,1120 540,1360 500,1360"/>
<polygon id="0x1348550" class="l126d0" points="580,160 620,160 620,240 580,240"/>
<polygon id="0x13bdac0" class="l126d0" points="580,400 620,400 620,480 580,480"/>
<polygon id="0x11fbba0" class="l126d0" points="580,1280 620,1280 620,1360 580,1360"/>
<polygon id="0x11fbc60" class="l126d0" points="660,0 700,0 700,80 660,80"/>
<polygon id="0x123b110" class="l126d0" points="660,320 700,320 700,400 660,400"/>
<polygon id="0x123b1d0" class="l126d0" points="660,480 700,480 700,560 660,560"/>
<polygon id="0x1284dd0" class="l126d0" points="660,640 700,640 700,720 660,720"/>
<polygon id="0x1284e90" class="l126d0" points="660,880 700,880 700,960 660,960"/>
<polygon id="0x12c2670" class="l126d0" points="660,1040 700,1040 700,1280 660,1280"/>
<polygon id="0x12c2730" class="l126d0" points="740,80 780,80 780,160 740,160"/>
<polygon id="0x12d13a0" class="l126d0" points="740,400 780,400 780,560 740,560"/>
<polygon id="0x12d1460" class="l126d0" points="740,640 780,640 780,880 740,880"/>
<polygon id="0x12aa8c0" class="l126d0" points="740,960 780,960 780,1040 740,1040"/>
<polygon id="0x12aa980" class="l126d0" points="740,1120 780,1120 780,1200 740,1200"/>
<polygon id="0x1317880" class="l126d0" points="820,160 860,160 860,400 820,400"/>
<polygon id="0x1317940" class="l126d0" points="820,480 860,480 860,560 820,560"/>
<polygon id="0x1438010" class="l126d0" points="820,640 860,640 860,720 820,720"/>
<polygon id="0x14380d0" class="l126d0" points="820,880 860,880 860,960 820,960"/>
<polygon id="0x123e4e0" class="l126d0" points="820,1040 860,1040 860,1120 820,1120"/>
<polygon id="0x123e5a0" class="l126d0" points="820,1280 860,1280 860,1360 820,1360"/>
<polygon id="0x122aef0" class="l126d0" points="900,80 940,80 940,560 900,560"/>
<polygon id="0x122afb0" class="l126d0" points="900,800 940,800 940,1040 900,1040"/>
<polygon id="0x123c8b0" class="l126d0" points="900,1120 940,1120 940,1200 900,1200"/>
<polygon id="0x123c970" class="l126d0" points="900,1280 940,1280 940,1360 900,1360"/>
<polygon id="0x123c9e0" class="l126d0" points="980,160 1020,160 1020,240 980,240"/>
<polygon id="0x1296370" class="l126d0" points="980,400 1020,400 1020,480 980,480"/>
<polygon id="0x1296430" class="l126d0" points="980,720 1020,720 1020,800 980,800"/>
<polygon id="0x128ced0" class="l126d0" points="980,880 1020,880 1020,1120 980,1120"/>
<polygon id="0x128cf90" class="l126d0" points="1060,0 1100,0 1100,160 1060,160"/>
<polygon id="0x13513c0" class="l126d0" points="1060,240 1100,240 1100,320 1060,320"/>
<polygon id="0x1351480" class="l126d0" points="1060,480 1100,480 1100,560 1060,560"/>
<polygon id="0x142e970" class="l126d0" points="1060,800 1100,800 1100,880 1060,880"/>
<polygon id="0x142ea30" class="l126d0" points="1060,960 1100,960 1100,1040 1060,1040"/>
<polygon id="0x1198fd0" class="l126d0" points="1140,0 1180,0 1180,80 1140,80"/>
<polygon id="0x1199090" class="l126d0" points="1140,160 1180,160 1180,320 1140,320"/>
<polygon id="0x1229250" class="l126d0" points="1140,400 1180,400 1180,480 1140,480"/>
<polygon id="0x1229310" class="l126d0" points="1140,560 1180,560 1180,720 1140,720"/>
<polygon id="0x1238a40" class="l126d0" points="1140,800 1180,800 1180,1040 1140,1040"/>
<polygon id="0x1238b00" class="l126d0" points="1140,1120 1180,1120 1180,1360 1140,1360"/>
<polygon id="0x1253d30" class="l126d0" points="1220,320 1260,320 1260,400 1220,400"/>
<polygon id="0x1253df0" class="l126d0" points="1220,640 1260,640 1260,720 1220,720"/>
<polygon id="0x1268be0" class="l126d0" points="1220,800 1260,800 1260,880 1220,880"/>
<polygon id="0x1268ca0" class="l126d0" points="1220,960 1260,960 1260,1200 1220,1200"/>
<polygon id="0x1312090" class="l126d0" points="1220,1280 1260,1280 1260,1360 1220,1360"/>
<polygon id="0x1312150" class="l126d0" points="1300,0 1340,0 1340,240 1300,240"/>
<polygon id="0x1383df0" class="l126d0" points="1300,320 1340,320 1340,560 1300,560"/>
<polygon id="0x1383eb0" class="l126d0" points="1300,640 1340,640 1340,720 1300,720"/>
<polygon id="0x13decf0" class="l126d0" points="1300,1200 1340,1200 1340,1360 1300,1360"/>
<polygon id="0x13dedb0" class="l189d4" points="0,0 1360,0 1360,1360 0,1360"/>
</g>
</svg>