<?xml version="1.0" encoding="UTF-8"?>
<svg xmlns="http://www.w3.org/2000/svg" xmlns:xlink="http://www.w3.org/1999/xlink" width="1320" height="1320" viewBox="-60 -1260 1320 1320">
<defs>
<style type="text/css">
.l126d0 {stroke: #E68FAC; fill: #E68FAC; fill-opacity: 0.5;}
.l189d4 {stroke: #A1CAF1; fill: #A1CAF1; fill-opacity: 0.5;}
</style>
</defs>
<rect x="-60" y="-1260" width="1320" height="1320" fill="#222222" stroke="none"/>
<g id="my_logo" transform="scale(1 -1)">
<polygon id="0x1b3d010" class="l126d0" points="0,20 240,20 240,60 0,60"/>
<polygon id="0x1b4cc70" class="l126d0" points="320,20 560,20 560,60 320,60"/>
<polygon id="0x1b8fc30" class="l126d0" points="640,20 960,20 960,60 640,60"/>
<polygon id="0x19b2f70" class="l126d0" points="400,100 720,100 720,140 400,140"/>
<polygon id="0x1c61fa0" class="l126d0" points="160,180 320,180 320,220 160,220"/>
<polygon id="0x1ceba30" class="l126d0" points="480,180 720,180 720,220 480,220"/>
<polygon id="0x1c51900" class="l126d0" points="880,180 1040,180 1040,220 880,220"/>
<polygon id="0x1cddfa0" class="l126d0" points="0,260 160,260 160,300 0,300"/>
<polygon id="0x1aade60" class="l126d0" points="240,260 480,260 480,300 240,300"/>
<polygon id="0x1cb07f0" class="l126d0" points="640,260 800,260 800,300 640,300"/>
<polygon id="0x1cdca50" class="l126d0" points="960,260 1120,260 1120,300 960,300"/>
<polygon id="0x1d16610" class="l126d0" points="0,340 400,340 400,380 0,380"/>
<polygon id="0x1c80fa0" class="l126d0" points="480,340 560,340 560,380 480,380"/>
<polygon id="0x1cd5300" class="l126d0" points="720,340 800,340 800,380 720,380"/>
<polygon id="0x1b22c30" class="l126d0" points="0,420 320,420 320,460 0,460"/>
<polygon id="0x1cbffd0" class="l126d0" points="400,420 480,420 480,460 400,460"/>
<polygon id="0x1cb0ec0" class="l126d0" points="560,420 640,420 640,460 560,460"/>
<polygon id="0x1c42c70" class="l126d0" points="800,420 960,420 960,460 800,460"/>
<polygon id="0x1cdb370" class="l126d0" points="80,500 160,500 160,540 80,540"/>
<polygon id="0x1c57990" class="l126d0" points="320,500 400,500 400,540 320,540"/>
<polygon id="0x1c63d80" class="l126d0" points="480,500 560,500 560,540 480,540"/>
<polygon id="0x1c69480" class="l126d0" points="720,500 1040,500 1040,540 720,540"/>
<polygon id="0x1cab410" class="l126d0" points="80,580 960,580 960,620 80,620"/>
<polygon id="0x1cbbb80" class="l126d0" points="1040,580 1120,580 1120,620 1040,620"/>
<polygon id="0x1caf250" class="l126d0" points="80,660 160,660 160,700 80,700"/>
<polygon id="0x1a478e0" class="l126d0" points="240,660 400,660 400,700 240,700"/>
<polygon id="0x1aee130" class="l126d0" points="560,660 960,660 960,700 560,700"/>
<polygon id="0x1c19f40" class="l126d0" points="1040,660 1200,660 1200,700 1040,700"/>
<polygon id="0x1c7a990" class="l126d0" points="0,740 320,740 320,780 0,780"/>
<polygon id="0x1ca96a0" class="l126d0" points="480,740 800,740 800,780 480,780"/>
<polygon id="0x1ca9710" class="l126d0" points="1120,740 1200,740 1200,780 1120,780"/>
<polygon id="0x1cf0390" class="l126d0" points="0,820 80,820 80,860 0,860"/>
<polygon id="0x1abecd0" class="l126d0" points="240,820 320,820 320,860 240,860"/>
<polygon id="0x1d0dea0" class="l126d0" points="480,820 880,820 880,860 480,860"/>
<polygon id="0x1d0df60" class="l126d0" points="1120,820 1200,820 1200,860 1120,860"/>
<polygon id="0x1d0e020" class="l126d0" points="0,900 80,900 80,940 0,940"/>
<polygon id="0x1d0e0e0" class="l126d0" points="160,900 240,900 240,940 160,940"/>
<polygon id="0x1d0e1a0" class="l126d0" points="640,900 720,900 720,940 640,940"/>
<polygon id="0x1d0e260" class="l126d0" points="800,900 880,900 880,940 800,940"/>
<polygon id="0x1d0e320" class="l126d0" points="960,900 1120,900 1120,940 960,940"/>
<polygon id="0x1d0e3e0" class="l126d0" points="0,980 80,980 80,1020 0,1020"/>
<polygon id="0x1d0e4a0" class="l126d0" points="160,980 240,980 240,1020 160,1020"/>
<polygon id="0x1d0e560" class="l126d0" points="400,980 560,980 560,1020 400,1020"/>
<polygon id="0x1d0e620" class="l126d0" points="640,980 720,980 720,1020 640,1020"/>
<polygon id="0x1d0e6e0" class="l126d0" points="800,980 880,980 880,1020 800,1020"/>
<polygon id="0x1d0e7a0" class="l126d0" points="1040,980 1200,980 1200,1020 1040,1020"/>
<polygon id="0x1d0e860" class="l126d0" points="240,1060 480,1060 480,1100 240,1100"/>
<polygon id="0x1d0e920" class="l126d0" points="560,1060 640,1060 640,1100 560,1100"/>
<polygon id="0x1d0e9e0" class="l126d0" points="720,1060 800,1060 800,1100 720,1100"/>
<polygon id="0x1d0eaa0" class="l126d0" points="880,1060 1200,1060 1200,1100 880,1100"/>
<polygon id="0x1d0eb60" class="l126d0" points="0,1140 160,1140 160,1180 0,1180"/>
<polygon id="0x1d0ec20" class="l126d0" points="400,1140 480,1140 480,1180 400,1180"/>
<polygon id="0x1d0ece0" class="l126d0" points="560,1140 640,1140 640,1180 560,1180"/>
<polygon id="0x1d0eda0" class="l126d0" points="720,1140 880,1140 880,1180 720,1180"/>
<polygon id="0x1d0ee60" class="l126d0" points="1120,1140 1200,1140 1200,1180 1120,1180"/>
<polygon id="0x1d0ef20" class="l126d0" points="20,80 60,80 60,240 20,240"/>
<polygon id="0x1d0efe0" class="l126d0" points="20,480 60,480 60,720 20,720"/>
<polygon id="0x1d0f0a0" class="l126d0" points="20,1040 60,1040 60,1120 20,1120"/>
<polygon id="0x1d0f160" class="l126d0" points="100,80 140,80 140,240 100,240"/>
<polygon id="0x1d0f220" class="l126d0" points="100,800 140,800 140,1120 100,1120"/>
<polygon id="0x1d0f2e0" class="l126d0" points="180,80 220,80 220,160 180,160"/>
<polygon id="0x1d0f3a0" class="l126d0" points="180,240 220,240 220,320 180,320"/>
<polygon id="0x1d0f460" class="l126d0" points="180,480 220,480 220,560 180,560"/>
<polygon id="0x1d0f520" class="l126d0" points="180,640 220,640 220,720 180,720"/>
<polygon id="0x1d0f5e0" class="l126d0" points="180,800 220,800 220,880 180,880"/>
<polygon id="0x1b34160" class="l126d0" points="180,1040 220,1040 220,1200 180,1200"/>
<polygon id="0x1b282f0" class="l126d0" points="260,0 300,0 300,160 260,160"/>
<polygon id="0x1bf8af0" class="l126d0" points="260,480 300,480 300,560 260,560"/>
<polygon id="0x1cbeca0" class="l126d0" points="260,880 300,880 300,1040 260,1040"/>
<polygon id="0x1c73bd0" class="l126d0" points="260,1120 300,1120 300,1200 260,1200"/>
<polygon id="0x1ae4820" class="l126d0" points="340,80 380,80 380,240 340,240"/>
<polygon id="0x1b5b1b0" class="l126d0" points="340,400 380,400 380,480 340,480"/>
<polygon id="0x1c38b60" class="l126d0" points="340,720 380,720 380,1040 340,1040"/>
<polygon id="0x1c8a030" class="l126d0" points="340,1120 380,1120 380,1200 340,1200"/>
<polygon id="0x1c54f40" class="l126d0" points="420,160 460,160 460,240 420,240"/>
<polygon id="0x1c6ac50" class="l126d0" points="420,320 460,320 460,400 420,400"/>
<polygon id="0x1ce6820" class="l126d0" points="420,480 460,480 460,560 420,560"/>
<polygon id="0x1b0eaa0" class="l126d0" points="420,640 460,640 460,960 420,960"/>
<polygon id="0x1b5a360" class="l126d0" points="500,240 540,240 540,320 500,320"/>
<polygon id="0x1b7bae0" class="l126d0" points="500,400 540,400 540,480 500,480"/>
<polygon id="0x1b7bb50" class="l126d0" points="500,640 540,640 540,720 500,720"/>
<polygon id="0x1be6700" class="l126d0" points="500,880 540,880 540,960 500,960"/>
<polygon id="0x1c3b570" class="l126d0" points="500,1040 540,1040 540,1200 500,1200"/>
<polygon id="0x1c53fd0" class="l126d0" points="580,0 620,0 620,80 580,80"/>
<polygon id="0x1c54040" class="l126d0" points="580,240 620,240 620,400 580,400"/>
<polygon id="0x1c7ba10" class="l126d0" points="580,480 620,480 620,560 580,560"/>
<polygon id="0x1c6dd30" class="l126d0" points="580,880 620,880 620,1040 580,1040"/>
<polygon id="0x1cbb1a0" class="l126d0" points="660,320 700,320 700,560 660,560"/>
<polygon id="0x1cbb210" class="l126d0" points="660,1040 700,1040 700,1200 660,1200"/>
<polygon id="0x1cb1560" class="l126d0" points="740,80 780,80 780,240 740,240"/>
<polygon id="0x1cefa50" class="l126d0" points="740,400 780,400 780,480 740,480"/>
<polygon id="0x1a7db40" class="l126d0" points="740,880 780,880 780,1040 740,1040"/>
<polygon id="0x1a7dbb0" class="l126d0" points="820,80 860,80 860,400 820,400"/>
<polygon id="0x19c6320" class="l126d0" points="820,720 860,720 860,800 820,800"/>
<polygon id="0x1ad50b0" class="l126d0" points="820,1040 860,1040 860,1120 820,1120"/>
<polygon id="0x1b188c0" class="l126d0" points="900,80 940,80 940,160 900,160"/>
<polygon id="0x1b55e50" class="l126d0" points="900,240 940,240 940,400 900,400"/>
<polygon id="0x1c283d0" class="l126d0" points="900,720 940,720 940,1040 900,1040"/>
<polygon id="0x1c5ab80" class="l126d0" points="900,1120 940,1120 940,1200 900,1200"/>
<polygon id="0x1cc9480" class="l126d0" points="980,0 1020,0 1020,160 980,160"/>
<polygon id="0x1cdf800" class="l126d0" points="980,320 1020,320 1020,480 980,480"/>
<polygon id="0x1aa0d40" class="l126d0" points="980,560 1020,560 1020,880 980,880"/>
<polygon id="0x1aa0e00" class="l126d0" points="980,960 1020,960 1020,1040 980,1040"/>
<polygon id="0x1ac1bf0" class="l126d0" points="980,1120 1020,1120 1020,1200 980,1200"/>
<polygon id="0x1ac1cb0" class="l126d0" points="1060,0 1100,0 1100,240 1060,240"/>
<polygon id="0x1ad9ee0" class="l126d0" points="1060,320 1100,320 1100,560 1060,560"/>
<polygon id="0x1ad9fa0" class="l126d0" points="1060,720 1100,720 1100,880 1060,880"/>
<polygon id="0x1b09b10" class="l126d0" points="1060,1120 1100,1120 1100,1200 1060,1200"/>
<polygon id="0x1b09bd0" class="l126d0" points="1140,0 1180,0 1180,640 1140,640"/>
<polygon id="0x1b76ff0" class="l126d0" points="1140,880 1180,880 1180,960 1140,960"/>
<polygon id="0x1b770b0" class="l189d4" points="0,0 300,0 300,300 0,300"/>
</g>
</svg>