<?xml version="1.0" encoding="UTF-8"?>
<svg xmlns="http://www.w3.org/2000/svg" xmlns:xlink="http://www.w3.org/1999/xlink" width="1766.6" height="1366.6" viewBox="-83.3 -1283.3 1766.6 1366.6">
<defs>
<style type="text/css">
.l126d0 {stroke: #E68FAC; fill: #E68FAC; fill-opacity: 0.5;}
</style>
</defs>
<rect x="-83.3" y="-1283.3" width="1766.6" height="1366.6" fill="#222222" stroke="none"/>
<g id="my_logo" transform="scale(1 -1)">
<polygon id="0x2b2dd40" class="l126d0" points="237,20 323,20 323,60 237,60"/>
<polygon id="0x2b3d690" class="l126d0" points="397,20 1043,20 1043,60 397,60"/>
<polygon id="0x2c21ea0" class="l126d0" points="1197,20 1363,20 1363,60 1197,60"/>
<polygon id="0x2b07b10" class="l126d0" points="77,100 163,100 163,140 77,140"/>
<polygon id="0x2ae9710" class="l126d0" points="317,100 483,100 483,140 317,140"/>
<polygon id="0x2abff30" class="l126d0" points="557,100 883,100 883,140 557,140"/>
<polygon id="0x29b6770" class="l126d0" points="957,100 1043,100 1043,140 957,140"/>
<polygon id="0x2cd9e50" class="l126d0" points="1357,100 1603,100 1603,140 1357,140"/>
<polygon id="0x2c41140" class="l126d0" points="77,180 163,180 163,220 77,220"/>
<polygon id="0x2cb9a20" class="l126d0" points="317,180 403,180 403,220 317,220"/>
<polygon id="0x2c9cba0" class="l126d0" points="957,180 1043,180 1043,220 957,220"/>
<polygon id="0x2cddad0" class="l126d0" points="1117,180 1203,180 1203,220 1117,220"/>
<polygon id="0x2c71010" class="l126d0" points="1277,180 1443,180 1443,220 1277,220"/>
<polygon id="0x2c2f560" class="l126d0" points="1517,180 1603,180 1603,220 1517,220"/>
<polygon id="0x2cd3850" class="l126d0" points="397,260 483,260 483,300 397,300"/>
<polygon id="0x2cc6220" class="l126d0" points="797,260 1203,260 1203,300 797,300"/>
<polygon id="0x2c45690" class="l126d0" points="1517,260 1603,260 1603,300 1517,300"/>
<polygon id="0x2c32ce0" class="l126d0" points="77,340 163,340 163,380 77,380"/>
<polygon id="0x2c58c20" class="l126d0" points="237,340 403,340 403,380 237,380"/>
<polygon id="0x2c9ba40" class="l126d0" points="557,340 723,340 723,380 557,380"/>
<polygon id="0x2a39f00" class="l126d0" points="877,340 963,340 963,380 877,380"/>
<polygon id="0x2c6a380" class="l126d0" points="1037,340 1203,340 1203,380 1037,380"/>
<polygon id="0x2cac4d0" class="l126d0" points="1277,340 1523,340 1523,380 1277,380"/>
<polygon id="0x2be8640" class="l126d0" points="77,420 323,420 323,460 77,460"/>
<polygon id="0x2bfccf0" class="l126d0" points="477,420 723,420 723,460 477,460"/>
<polygon id="0x2c25f00" class="l126d0" points="1117,420 1203,420 1203,460 1117,460"/>
<polygon id="0x2c27120" class="l126d0" points="1357,420 1443,420 1443,460 1357,460"/>
<polygon id="0x2caa130" class="l126d0" points="77,500 243,500 243,540 77,540"/>
<polygon id="0x2cdec70" class="l126d0" points="397,500 563,500 563,540 397,540"/>
<polygon id="0x2aaec50" class="l126d0" points="717,500 803,500 803,540 717,540"/>
<polygon id="0x2b24fa0" class="l126d0" points="1197,500 1363,500 1363,540 1197,540"/>
<polygon id="0x2b19130" class="l126d0" points="1437,500 1603,500 1603,540 1437,540"/>
<polygon id="0x2bdfad0" class="l126d0" points="-3,580 163,580 163,620 -3,620"/>
<polygon id="0x2c9eb10" class="l126d0" points="637,580 723,580 723,620 637,620"/>
<polygon id="0x2c63800" class="l126d0" points="797,580 883,580 883,620 797,620"/>
<polygon id="0x2b4bbd0" class="l126d0" points="957,580 1043,580 1043,620 957,620"/>
<polygon id="0x2b5e1a0" class="l126d0" points="1197,580 1443,580 1443,620 1197,620"/>
<polygon id="0x2c28bd0" class="l126d0" points="1517,580 1603,580 1603,620 1517,620"/>
<polygon id="0x2c7a0a0" class="l126d0" points="-3,660 163,660 163,700 -3,700"/>
<polygon id="0x2c444d0" class="l126d0" points="237,660 323,660 323,700 237,700"/>
<polygon id="0x2bd6500" class="l126d0" points="477,660 723,660 723,700 477,700"/>
<polygon id="0x2c2b5e0" class="l126d0" points="877,660 963,660 963,700 877,700"/>
<polygon id="0x2c43810" class="l126d0" points="1117,660 1363,660 1363,700 1117,700"/>
<polygon id="0x2c43880" class="l126d0" points="157,740 323,740 323,780 157,780"/>
<polygon id="0x2c68e50" class="l126d0" points="397,740 483,740 483,780 397,780"/>
<polygon id="0x2c9b010" class="l126d0" points="637,740 1203,740 1203,780 637,780"/>
<polygon id="0x2cde330" class="l126d0" points="1277,740 1363,740 1363,780 1277,780"/>
<polygon id="0x2cde3a0" class="l126d0" points="1517,740 1603,740 1603,780 1517,780"/>
<polygon id="0x2d04c40" class="l126d0" points="77,820 403,820 403,860 77,860"/>
<polygon id="0x2aaa1d0" class="l126d0" points="557,820 643,820 643,860 557,860"/>
<polygon id="0x2ac8800" class="l126d0" points="717,820 803,820 803,860 717,860"/>
<polygon id="0x2ac8870" class="l126d0" points="1037,820 1123,820 1123,860 1037,860"/>
<polygon id="0x2ae0640" class="l126d0" points="1197,820 1283,820 1283,860 1197,860"/>
<polygon id="0x2b09700" class="l126d0" points="1357,820 1443,820 1443,860 1357,860"/>
<polygon id="0x2b61e40" class="l126d0" points="1517,820 1603,820 1603,860 1517,860"/>
<polygon id="0x2b49000" class="l126d0" points="77,900 243,900 243,940 77,940"/>
<polygon id="0x2c11c80" class="l126d0" points="317,900 403,900 403,940 317,940"/>
<polygon id="0x2c18460" class="l126d0" points="477,900 1203,900 1203,940 477,940"/>
<polygon id="0x2c4abf0" class="l126d0" points="1277,900 1603,900 1603,940 1277,940"/>
<polygon id="0x2c665c0" class="l126d0" points="157,980 483,980 483,1020 157,1020"/>
<polygon id="0x2cb7e80" class="l126d0" points="957,980 1123,980 1123,1020 957,1020"/>
<polygon id="0x2ccd950" class="l126d0" points="1357,980 1443,980 1443,1020 1357,1020"/>
<polygon id="0x2ab1b70" class="l126d0" points="1517,980 1603,980 1603,1020 1517,1020"/>
<polygon id="0x2ab1c30" class="l126d0" points="-3,1060 243,1060 243,1100 -3,1100"/>
<polygon id="0x2ad3680" class="l126d0" points="477,1060 643,1060 643,1100 477,1100"/>
<polygon id="0x2ad3740" class="l126d0" points="877,1060 963,1060 963,1100 877,1100"/>
<polygon id="0x2b600b0" class="l126d0" points="1117,1060 1203,1060 1203,1100 1117,1100"/>
<polygon id="0x2b60170" class="l126d0" points="1357,1060 1523,1060 1523,1100 1357,1100"/>
<polygon id="0x2b6e720" class="l126d0" points="77,1140 163,1140 163,1180 77,1180"/>
<polygon id="0x2b6e7e0" class="l126d0" points="477,1140 803,1140 803,1180 477,1180"/>
<polygon id="0x2bd8f80" class="l126d0" points="877,1140 963,1140 963,1180 877,1180"/>
<polygon id="0x2bd9040" class="l126d0" points="1277,1140 1523,1140 1523,1180 1277,1180"/>
<polygon id="0x2bd6a00" class="l126d0" points="20,-3 60,-3 60,563 20,563"/>
<polygon id="0x2bd6ac0" class="l126d0" points="20,717 60,717 60,1043 20,1043"/>
<polygon id="0x2c45a70" class="l126d0" points="20,1117 60,1117 60,1203 20,1203"/>
<polygon id="0x2c45b30" class="l126d0" points="100,-3 140,-3 140,83 100,83"/>
<polygon id="0x2ac9f40" class="l126d0" points="100,237 140,237 140,323 100,323"/>
<polygon id="0x2aca000" class="l126d0" points="100,717 140,717 140,803 100,803"/>
<polygon id="0x2b22ea0" class="l126d0" points="100,957 140,957 140,1043 100,1043"/>
<polygon id="0x2b22f60" class="l126d0" points="180,-3 220,-3 220,403 180,403"/>
<polygon id="0x2c27710" class="l126d0" points="180,557 220,557 220,723 180,723"/>
<polygon id="0x2c277d0" class="l126d0" points="180,1117 220,1117 220,1203 180,1203"/>
<polygon id="0x29e04f0" class="l126d0" points="260,77 300,77 300,323 260,323"/>
<polygon id="0x2af87c0" class="l126d0" points="260,477 300,477 300,643 260,643"/>
<polygon id="0x2af8880" class="l126d0" points="260,877 300,877 300,963 260,963"/>
<polygon id="0x2b70e00" class="l126d0" points="260,1037 300,1037 300,1203 260,1203"/>
<polygon id="0x2c1f900" class="l126d0" points="340,-3 380,-3 380,83 340,83"/>
<polygon id="0x2c1f9c0" class="l126d0" points="340,237 380,237 380,323 340,323"/>
<polygon id="0x2c6c090" class="l126d0" points="340,397 380,397 380,803 340,803"/>
<polygon id="0x2c6ff50" class="l126d0" points="340,1037 380,1037 380,1203 340,1203"/>
<polygon id="0x2c70010" class="l126d0" points="420,157 460,157 460,243 420,243"/>
<polygon id="0x2c55b10" class="l126d0" points="420,317 460,317 460,483 420,483"/>
<polygon id="0x2a7ad20" class="l126d0" points="420,557 460,557 460,723 420,723"/>
<polygon id="0x2a7ade0" class="l126d0" points="420,797 460,797 460,963 420,963"/>
<polygon id="0x2a9c080" class="l126d0" points="420,1037 460,1037 460,1203 420,1203"/>
<polygon id="0x2aa63c0" class="l126d0" points="500,77 540,77 540,403 500,403"/>
<polygon id="0x2aa6430" class="l126d0" points="500,557 540,557 540,643 500,643"/>
<polygon id="0x2b5fcc0" class="l126d0" points="500,717 540,717 540,883 500,883"/>
<polygon id="0x2b5fd80" class="l126d0" points="500,957 540,957 540,1043 500,1043"/>
<polygon id="0x2b4a730" class="l126d0" points="580,157 620,157 620,323 580,323"/>
<polygon id="0x2b6dc60" class="l126d0" points="580,477 620,477 620,643 580,643"/>
<polygon id="0x2b6dcd0" class="l126d0" points="580,717 620,717 620,803 580,803"/>
<polygon id="0x2be1a90" class="l126d0" points="580,957 620,957 620,1043 580,1043"/>
<polygon id="0x2be1b50" class="l126d0" points="660,157 700,157 700,323 660,323"/>
<polygon id="0x2c31930" class="l126d0" points="660,477 700,477 700,563 660,563"/>
<polygon id="0x2ca0810" class="l126d0" points="660,797 700,797 700,883 660,883"/>
<polygon id="0x2ca0880" class="l126d0" points="660,957 700,957 700,1123 660,1123"/>
<polygon id="0x2cab900" class="l126d0" points="740,157 780,157 780,483 740,483"/>
<polygon id="0x2cab9c0" class="l126d0" points="740,557 780,557 780,723 740,723"/>
<polygon id="0x2ce6c40" class="l126d0" points="740,957 780,957 780,1123 740,1123"/>
<polygon id="0x2a8c8e0" class="l126d0" points="820,157 860,157 860,243 820,243"/>
<polygon id="0x2a8c950" class="l126d0" points="820,317 860,317 860,563 820,563"/>
<polygon id="0x2b69f00" class="l126d0" points="820,637 860,637 860,723 820,723"/>
<polygon id="0x2b69fc0" class="l126d0" points="820,797 860,797 860,883 820,883"/>
<polygon id="0x2b66db0" class="l126d0" points="820,957 860,957 860,1203 820,1203"/>
<polygon id="0x2bd7010" class="l126d0" points="900,77 940,77 940,243 900,243"/>
<polygon id="0x2bd70d0" class="l126d0" points="900,397 940,397 940,643 900,643"/>
<polygon id="0x2be55e0" class="l126d0" points="900,797 940,797 940,883 900,883"/>
<polygon id="0x2be56a0" class="l126d0" points="900,957 940,957 940,1043 900,1043"/>
<polygon id="0x2c36540" class="l126d0" points="980,317 1020,317 1020,563 980,563"/>
<polygon id="0x2c8e1c0" class="l126d0" points="980,637 1020,637 1020,723 980,723"/>
<polygon id="0x2c8e280" class="l126d0" points="980,797 1020,797 1020,883 980,883"/>
<polygon id="0x2c5a2e0" class="l126d0" points="980,1037 1020,1037 1020,1203 980,1203"/>
<polygon id="0x2c5a3a0" class="l126d0" points="1060,-3 1100,-3 1100,243 1060,243"/>
<polygon id="0x2ad7170" class="l126d0" points="1060,397 1100,397 1100,723 1060,723"/>
<polygon id="0x2ad7230" class="l126d0" points="1060,1037 1100,1037 1100,1203 1060,1203"/>
<polygon id="0x2b21e80" class="l126d0" points="1140,-3 1180,-3 1180,163 1140,163"/>
<polygon id="0x2b21f40" class="l126d0" points="1140,477 1180,477 1180,643 1140,643"/>
<polygon id="0x2bb49d0" class="l126d0" points="1140,797 1180,797 1180,883 1140,883"/>
<polygon id="0x2bb4a90" class="l126d0" points="1140,957 1180,957 1180,1043 1140,1043"/>
<polygon id="0x2c37a30" class="l126d0" points="1140,1117 1180,1117 1180,1203 1140,1203"/>
<polygon id="0x2c37af0" class="l126d0" points="1220,77 1260,77 1260,483 1220,483"/>
<polygon id="0x2ca61b0" class="l126d0" points="1220,717 1260,717 1260,803 1220,803"/>
<polygon id="0x2ca6270" class="l126d0" points="1220,877 1260,877 1260,1203 1220,1203"/>
<polygon id="0x2cd5270" class="l126d0" points="1300,77 1340,77 1340,163 1300,163"/>
<polygon id="0x2cd5330" class="l126d0" points="1300,237 1340,237 1340,323 1300,323"/>
<polygon id="0x2cdb090" class="l126d0" points="1300,397 1340,397 1340,483 1300,483"/>
<polygon id="0x2cdb150" class="l126d0" points="1300,797 1340,797 1340,883 1300,883"/>
<polygon id="0x2cc96c0" class="l126d0" points="1300,957 1340,957 1340,1123 1300,1123"/>
<polygon id="0x2cc9780" class="l126d0" points="1380,-3 1420,-3 1420,83 1380,83"/>
<polygon id="0x2ac5020" class="l126d0" points="1380,237 1420,237 1420,323 1380,323"/>
<polygon id="0x2ac50e0" class="l126d0" points="1380,477 1420,477 1420,563 1380,563"/>
<polygon id="0x2b19ac0" class="l126d0" points="1380,637 1420,637 1420,803 1380,803"/>
<polygon id="0x2b19b80" class="l126d0" points="1460,-3 1500,-3 1500,83 1460,83"/>
<polygon id="0x2bec2a0" class="l126d0" points="1460,157 1500,157 1500,323 1460,323"/>
<polygon id="0x2bec360" class="l126d0" points="1460,397 1500,397 1500,483 1460,483"/>
<polygon id="0x2bf7400" class="l126d0" points="1460,557 1500,557 1500,883 1460,883"/>
<polygon id="0x2bf74c0" class="l126d0" points="1460,957 1500,957 1500,1043 1460,1043"/>
<polygon id="0x2caade0" class="l126d0" points="1540,-3 1580,-3 1580,83 1540,83"/>
<polygon id="0x2caaea0" class="l126d0" points="1540,317 1580,317 1580,483 1540,483"/>
<polygon id="0x2a972c0" class="l126d0" points="1540,637 1580,637 1580,723 1540,723"/>
<polygon id="0x2a97380" class="l126d0" points="1540,1037 1580,1037 1580,1203 1540,1203"/>
</g>
</svg>