<?xml version="1.0" encoding="UTF-8"?>
<svg xmlns="http://www.w3.org/2000/svg" xmlns:xlink="http://www.w3.org/1999/xlink" width="1496" height="1336" viewBox="-68 -1268 1496 1336">
<defs>
<style type="text/css">
.l5d0 {stroke: #008856; fill: #008856; fill-opacity: 0.5;}
.l1d0 {stroke: #A1CAF1; fill: #A1CAF1; fill-opacity: 0.5;}
.l126d0 {stroke: #E68FAC; fill: #E68FAC; fill-opacity: 0.5;}
.l189d4 {stroke: #A1CAF1; fill: #A1CAF1; fill-opacity: 0.5;}
</style>
</defs>
<rect x="-68" y="-1268" width="1496" height="1336" fill="#222222" stroke="none"/>
<g id="my_logo" transform="scale(1 -1)">
<polygon id="0x20b7780" class="l126d0" points="160,20 240,20 240,60 160,60"/>
<polygon id="0x2109b20" class="l126d0" points="320,20 640,20 640,60 320,60"/>
<polygon id="0x1f23200" class="l126d0" points="880,20 960,20 960,60 880,60"/>
<polygon id="0x1ff1f00" class="l126d0" points="1120,20 1200,20 1200,60 1120,60"/>
<polygon id="0x20e88b0" class="l126d0" points="1280,20 1360,20 1360,60 1280,60"/>
<polygon id="0x2105610" class="l126d0" points="80,100 160,100 160,140 80,140"/>
<polygon id="0x2091170" class="l126d0" points="320,100 400,100 400,140 320,140"/>
<polygon id="0x20a6030" class="l126d0" points="560,100 800,100 800,140 560,140"/>
<polygon id="0x2262740" class="l126d0" points="960,100 1040,100 1040,140 960,140"/>
<polygon id="0x2263e30" class="l126d0" points="0,180 160,180 160,220 0,220"/>
<polygon id="0x22352c0" class="l126d0" points="240,180 320,180 320,220 240,220"/>
<polygon id="0x21e2b10" class="l126d0" points="400,180 480,180 480,220 400,220"/>
<polygon id="0x21db0c0" class="l126d0" points="560,180 640,180 640,220 560,220"/>
<polygon id="0x21b9ab0" class="l126d0" points="720,180 1280,180 1280,220 720,220"/>
<polygon id="0x2190040" class="l126d0" points="80,260 320,260 320,300 80,300"/>
<polygon id="0x2210ca0" class="l126d0" points="400,260 480,260 480,300 400,300"/>
<polygon id="0x225da60" class="l126d0" points="640,260 720,260 720,300 640,300"/>
<polygon id="0x1fd5e00" class="l126d0" points="800,260 1040,260 1040,300 800,300"/>
<polygon id="0x21e14b0" class="l126d0" points="1200,260 1360,260 1360,300 1200,300"/>
<polygon id="0x2233040" class="l126d0" points="240,340 400,340 400,380 240,380"/>
<polygon id="0x226f8d0" class="l126d0" points="480,340 560,340 560,380 480,380"/>
<polygon id="0x1f668a0" class="l126d0" points="640,340 880,340 880,380 640,380"/>
<polygon id="0x1fc2ec0" class="l126d0" points="1040,340 1200,340 1200,380 1040,380"/>
<polygon id="0x20523e0" class="l126d0" points="0,420 160,420 160,460 0,460"/>
<polygon id="0x1ff08f0" class="l126d0" points="240,420 560,420 560,460 240,460"/>
<polygon id="0x2193eb0" class="l126d0" points="800,420 880,420 880,460 800,460"/>
<polygon id="0x21f2bf0" class="l126d0" points="960,420 1200,420 1200,460 960,460"/>
<polygon id="0x2225b90" class="l126d0" points="1280,420 1360,420 1360,460 1280,460"/>
<polygon id="0x2172590" class="l126d0" points="80,500 320,500 320,540 80,540"/>
<polygon id="0x2172600" class="l126d0" points="400,500 480,500 480,540 400,540"/>
<polygon id="0x2186a90" class="l126d0" points="560,500 640,500 640,540 560,540"/>
<polygon id="0x21af900" class="l126d0" points="720,500 800,500 800,540 720,540"/>
<polygon id="0x21fbd70" class="l126d0" points="880,500 960,500 960,540 880,540"/>
<polygon id="0x2222100" class="l126d0" points="1040,500 1200,500 1200,540 1040,540"/>
<polygon id="0x22238a0" class="l126d0" points="0,580 80,580 80,620 0,620"/>
<polygon id="0x2238a70" class="l126d0" points="240,580 400,580 400,620 240,620"/>
<polygon id="0x22248f0" class="l126d0" points="480,580 800,580 800,620 480,620"/>
<polygon id="0x2268c50" class="l126d0" points="960,580 1120,580 1120,620 960,620"/>
<polygon id="0x20271f0" class="l126d0" points="80,660 160,660 160,700 80,700"/>
<polygon id="0x2037e70" class="l126d0" points="240,660 400,660 400,700 240,700"/>
<polygon id="0x20ae600" class="l126d0" points="560,660 640,660 640,700 560,700"/>
<polygon id="0x20a2790" class="l126d0" points="960,660 1120,660 1120,700 960,700"/>
<polygon id="0x2169a70" class="l126d0" points="1200,660 1280,660 1280,700 1200,700"/>
<polygon id="0x21ff710" class="l126d0" points="240,740 320,740 320,780 240,780"/>
<polygon id="0x21f5880" class="l126d0" points="480,740 560,740 560,780 480,780"/>
<polygon id="0x21ed210" class="l126d0" points="640,740 720,740 720,780 640,780"/>
<polygon id="0x2258650" class="l126d0" points="800,740 880,740 880,780 800,780"/>
<polygon id="0x2033450" class="l126d0" points="1040,740 1120,740 1120,780 1040,780"/>
<polygon id="0x20e79a0" class="l126d0" points="0,820 240,820 240,860 0,860"/>
<polygon id="0x21b25d0" class="l126d0" points="320,820 560,820 560,860 320,860"/>
<polygon id="0x20adad0" class="l126d0" points="720,820 1040,820 1040,860 720,860"/>
<polygon id="0x20d47c0" class="l126d0" points="1120,820 1200,820 1200,860 1120,860"/>
<polygon id="0x20e9510" class="l126d0" points="0,900 240,900 240,940 0,940"/>
<polygon id="0x20e9580" class="l126d0" points="320,900 560,900 560,940 320,940"/>
<polygon id="0x21604a0" class="l126d0" points="640,900 720,900 720,940 640,940"/>
<polygon id="0x21bff50" class="l126d0" points="880,900 1040,900 1040,940 880,940"/>
<polygon id="0x21cc920" class="l126d0" points="1120,900 1360,900 1360,940 1120,940"/>
<polygon id="0x21cc990" class="l126d0" points="80,980 240,980 240,1020 80,1020"/>
<polygon id="0x21e73c0" class="l126d0" points="320,980 560,980 560,1020 320,1020"/>
<polygon id="0x2232660" class="l126d0" points="720,980 800,980 800,1020 720,1020"/>
<polygon id="0x224d8b0" class="l126d0" points="880,980 1040,980 1040,1020 880,1020"/>
<polygon id="0x224d920" class="l126d0" points="1120,980 1280,980 1280,1020 1120,1020"/>
<polygon id="0x2268360" class="l126d0" points="80,1060 320,1060 320,1100 80,1100"/>
<polygon id="0x228ec00" class="l126d0" points="400,1060 640,1060 640,1100 400,1100"/>
<polygon id="0x2072df0" class="l126d0" points="720,1060 880,1060 880,1100 720,1100"/>
<polygon id="0x2072e60" class="l126d0" points="1040,1060 1200,1060 1200,1100 1040,1100"/>
<polygon id="0x20545e0" class="l126d0" points="1280,1060 1360,1060 1360,1100 1280,1100"/>
<polygon id="0x2069a00" class="l126d0" points="400,1140 480,1140 480,1180 400,1180"/>
<polygon id="0x2092d60" class="l126d0" points="560,1140 640,1140 640,1180 560,1180"/>
<polygon id="0x20eba10" class="l126d0" points="1040,1140 1120,1140 1120,1180 1040,1180"/>
<polygon id="0x20e6e20" class="l126d0" points="1200,1140 1280,1140 1280,1180 1200,1180"/>
<polygon id="0x20d2730" class="l126d0" points="20,0 60,0 60,160 20,160"/>
<polygon id="0x21a2170" class="l126d0" points="20,240 60,240 60,400 20,400"/>
<polygon id="0x2215c00" class="l126d0" points="20,480 60,480 60,560 20,560"/>
<polygon id="0x21d5110" class="l126d0" points="20,640 60,640 60,800 20,800"/>
<polygon id="0x222f520" class="l126d0" points="20,960 60,960 60,1200 20,1200"/>
<polygon id="0x2242020" class="l126d0" points="100,0 140,0 140,80 100,80"/>
<polygon id="0x20198f0" class="l126d0" points="100,320 140,320 140,400 100,400"/>
<polygon id="0x20199b0" class="l126d0" points="100,560 140,560 140,640 100,640"/>
<polygon id="0x203ad90" class="l126d0" points="100,720 140,720 140,800 100,800"/>
<polygon id="0x203ae50" class="l126d0" points="100,1120 140,1120 140,1200 100,1200"/>
<polygon id="0x205f150" class="l126d0" points="180,80 220,80 220,240 180,240"/>
<polygon id="0x205f210" class="l126d0" points="180,320 220,320 220,480 180,480"/>
<polygon id="0x20e98b0" class="l126d0" points="180,560 220,560 220,800 180,800"/>
<polygon id="0x20e9970" class="l126d0" points="180,1120 220,1120 220,1200 180,1200"/>
<polygon id="0x20f82f0" class="l126d0" points="260,0 300,0 300,160 260,160"/>
<polygon id="0x20f83b0" class="l126d0" points="260,800 300,800 300,1040 260,1040"/>
<polygon id="0x2162f20" class="l126d0" points="260,1120 300,1120 300,1200 260,1200"/>
<polygon id="0x2162fe0" class="l126d0" points="340,160 380,160 380,320 340,320"/>
<polygon id="0x21609a0" class="l126d0" points="340,480 380,480 380,560 340,560"/>
<polygon id="0x2160a60" class="l126d0" points="340,720 380,720 380,800 340,800"/>
<polygon id="0x2265040" class="l126d0" points="340,1040 380,1040 380,1200 340,1200"/>
<polygon id="0x2265100" class="l126d0" points="420,80 460,80 460,160 420,160"/>
<polygon id="0x1f29740" class="l126d0" points="420,320 460,320 460,400 420,400"/>
<polygon id="0x1f29800" class="l126d0" points="420,560 460,560 460,800 420,800"/>
<polygon id="0x2055cd0" class="l126d0" points="500,80 540,80 540,320 500,320"/>
<polygon id="0x2055d90" class="l126d0" points="500,480 540,480 540,560 500,560"/>
<polygon id="0x21b1110" class="l126d0" points="500,640 540,640 540,720 500,720"/>
<polygon id="0x21b11d0" class="l126d0" points="500,1120 540,1120 540,1200 500,1200"/>
<polygon id="0x22078c0" class="l126d0" points="580,240 620,240 620,480 580,480"/>
<polygon id="0x1f62d30" class="l126d0" points="580,720 620,720 620,1040 580,1040"/>
<polygon id="0x1f62df0" class="l126d0" points="660,0 700,0 700,80 660,80"/>
<polygon id="0x21f69e0" class="l126d0" points="660,160 700,160 700,240 660,240"/>
<polygon id="0x222daa0" class="l126d0" points="660,400 700,400 700,560 660,560"/>
<polygon id="0x222db60" class="l126d0" points="660,640 700,640 700,720 660,720"/>
<polygon id="0x2003ff0" class="l126d0" points="660,800 700,800 700,880 660,880"/>
<polygon id="0x2025580" class="l126d0" points="660,960 700,960 700,1200 660,1200"/>
<polygon id="0x20255f0" class="l126d0" points="740,0 780,0 780,80 740,80"/>
<polygon id="0x202f5e0" class="l126d0" points="740,240 780,240 780,320 740,320"/>
<polygon id="0x202f6a0" class="l126d0" points="740,400 780,400 780,480 740,480"/>
<polygon id="0x2068080" class="l126d0" points="740,640 780,640 780,800 740,800"/>
<polygon id="0x2051fe0" class="l126d0" points="740,880 780,880 780,960 740,960"/>
<polygon id="0x2052050" class="l126d0" points="740,1120 780,1120 780,1200 740,1200"/>
<polygon id="0x2083f60" class="l126d0" points="820,0 860,0 860,160 820,160"/>
<polygon id="0x2084020" class="l126d0" points="820,480 860,480 860,720 820,720"/>
<polygon id="0x216ba80" class="l126d0" points="820,880 860,880 860,1040 820,1040"/>
<polygon id="0x21bb890" class="l126d0" points="820,1120 860,1120 860,1200 820,1200"/>
<polygon id="0x21bb900" class="l126d0" points="900,80 940,80 940,160 900,160"/>
<polygon id="0x2230f40" class="l126d0" points="900,320 940,320 940,480 900,480"/>
<polygon id="0x2231000" class="l126d0" points="900,560 940,560 940,800 900,800"/>
<polygon id="0x22705b0" class="l126d0" points="900,1040 940,1040 940,1200 900,1200"/>
<polygon id="0x20237e0" class="l126d0" points="980,0 1020,0 1020,80 980,80"/>
<polygon id="0x2023850" class="l126d0" points="980,320 1020,320 1020,400 980,400"/>
<polygon id="0x20155f0" class="l126d0" points="980,480 1020,480 1020,560 980,560"/>
<polygon id="0x20156b0" class="l126d0" points="980,720 1020,720 1020,800 980,800"/>
<polygon id="0x20f3810" class="l126d0" points="980,1040 1020,1040 1020,1200 980,1200"/>
<polygon id="0x2160fb0" class="l126d0" points="1060,0 1100,0 1100,160 1060,160"/>
<polygon id="0x2161070" class="l126d0" points="1060,240 1100,240 1100,320 1060,320"/>
<polygon id="0x216f580" class="l126d0" points="1060,800 1100,800 1100,1040 1060,1040"/>
<polygon id="0x216f640" class="l126d0" points="1140,80 1180,80 1180,160 1140,160"/>
<polygon id="0x21ca1b0" class="l126d0" points="1140,240 1180,240 1180,320 1140,320"/>
<polygon id="0x21e41d0" class="l126d0" points="1140,560 1180,560 1180,800 1140,800"/>
<polygon id="0x21e4290" class="l126d0" points="1140,1120 1180,1120 1180,1200 1140,1200"/>
<polygon id="0x2021a10" class="l126d0" points="1220,0 1260,0 1260,160 1220,160"/>
<polygon id="0x2021ad0" class="l126d0" points="1220,320 1260,320 1260,640 1220,640"/>
<polygon id="0x2060f80" class="l126d0" points="1220,720 1260,720 1260,880 1220,880"/>
<polygon id="0x2061040" class="l126d0" points="1220,1040 1260,1040 1260,1120 1220,1120"/>
<polygon id="0x20ac010" class="l126d0" points="1300,80 1340,80 1340,240 1300,240"/>
<polygon id="0x20ac0d0" class="l126d0" points="1300,320 1340,320 1340,400 1300,400"/>
<polygon id="0x20d13e0" class="l126d0" points="1300,480 1340,480 1340,880 1300,880"/>
<polygon id="0x20d14a0" class="l126d0" points="1300,960 1340,960 1340,1040 1300,1040"/>
<polygon id="0x213e920" class="l126d0" points="1300,1120 1340,1120 1340,1200 1300,1200"/>
<polygon id="0x213e9e0" class="l189d4" points="0,0 300,0 300,300 0,300"/>
<polygon id="0x21c13e0" class="l1d0" points="10,10 70,10 70,70 10,70"/>
<polygon id="0x21c14a0" class="l1d0" points="10,90 70,90 70,150 10,150"/>
<polygon id="0x21cefd0" class="l1d0" points="10,170 70,170 70,230 10,230"/>
<polygon id="0x21cf090" class="l1d0" points="10,250 70,250 70,310 10,310"/>
<polygon id="0x21f27d0" class="l1d0" points="10,330 70,330 70,390 10,390"/>
<polygon id="0x21f2890" class="l1d0" points="10,410 70,410 70,470 10,470"/>
<polygon id="0x225f430" class="l1d0" points="10,490 70,490 70,550 10,550"/>
<polygon id="0x225f4f0" class="l1d0" points="10,570 70,570 70,630 10,630"/>
<polygon id="0x2050d60" class="l1d0" points="10,650 70,650 70,710 10,710"/>
<polygon id="0x2050e20" class="l1d0" points="10,730 70,730 70,790 10,790"/>
<polygon id="0x208b5f0" class="l1d0" points="10,810 70,810 70,870 10,870"/>
<polygon id="0x208b6b0" class="l1d0" points="10,890 70,890 70,950 10,950"/>
<polygon id="0x20a4760" class="l1d0" points="10,970 70,970 70,1030 10,1030"/>
<polygon id="0x20a4820" class="l1d0" points="10,1050 70,1050 70,1110 10,1110"/>
<polygon id="0x20f29d0" class="l1d0" points="10,1130 70,1130 70,1190 10,1190"/>
<polygon id="0x20f2a90" class="l1d0" points="90,10 150,10 150,70 90,70"/>
<polygon id="0x20f5f40" class="l1d0" points="90,90 150,90 150,150 90,150"/>
<polygon id="0x20f6000" class="l1d0" points="90,170 150,170 150,230 90,230"/>
<polygon id="0x20d3630" class="l1d0" points="90,250 150,250 150,310 90,310"/>
<polygon id="0x20d36f0" class="l1d0" points="90,330 150,330 150,390 90,390"/>
<polygon id="0x2175ff0" class="l1d0" points="90,410 150,410 150,470 90,470"/>
<polygon id="0x21760b0" class="l1d0" points="90,490 150,490 150,550 90,550"/>
<polygon id="0x2181150" class="l1d0" points="90,570 150,570 150,630 90,630"/>
<polygon id="0x2181210" class="l1d0" points="90,650 150,650 150,710 90,710"/>
<polygon id="0x204e580" class="l1d0" points="90,730 150,730 150,790 90,790"/>
<polygon id="0x204e640" class="l1d0" points="90,810 150,810 150,870 90,870"/>
<polygon id="0x2064340" class="l1d0" points="90,890 150,890 150,950 90,950"/>
<polygon id="0x2064400" class="l1d0" points="90,970 150,970 150,1030 90,1030"/>
<polygon id="0x2062720" class="l1d0" points="90,1050 150,1050 150,1110 90,1110"/>
<polygon id="0x20627e0" class="l1d0" points="90,1130 150,1130 150,1190 90,1190"/>
<polygon id="0x2074b00" class="l1d0" points="170,10 230,10 230,70 170,70"/>
<polygon id="0x2074bc0" class="l1d0" points="170,90 230,90 230,150 170,150"/>
<polygon id="0x20bce40" class="l1d0" points="170,170 230,170 230,230 170,230"/>
<polygon id="0x20bcf00" class="l1d0" points="170,250 230,250 230,310 170,310"/>
<polygon id="0x20b39a0" class="l1d0" points="170,330 230,330 230,390 170,390"/>
<polygon id="0x20b3a60" class="l1d0" points="170,410 230,410 230,470 170,470"/>
<polygon id="0x2255570" class="l1d0" points="170,490 230,490 230,550 170,550"/>
<polygon id="0x2255630" class="l1d0" points="170,570 230,570 230,630 170,630"/>
<polygon id="0x1fc25f0" class="l1d0" points="170,650 230,650 230,710 170,710"/>
<polygon id="0x1fc26b0" class="l1d0" points="170,730 230,730 230,790 170,790"/>
<polygon id="0x204f070" class="l1d0" points="170,810 230,810 230,870 170,870"/>
<polygon id="0x204f130" class="l1d0" points="170,890 230,890 230,950 170,950"/>
<polygon id="0x205e860" class="l1d0" points="170,970 230,970 230,1030 170,1030"/>
<polygon id="0x205e920" class="l1d0" points="170,1050 230,1050 230,1110 170,1110"/>
<polygon id="0x21390e0" class="l1d0" points="170,1130 230,1130 230,1190 170,1190"/>
<polygon id="0x21391a0" class="l1d0" points="250,10 310,10 310,70 250,70"/>
<polygon id="0x21aaa60" class="l1d0" points="250,90 310,90 310,150 250,150"/>
<polygon id="0x21aab20" class="l1d0" points="250,170 310,170 310,230 250,230"/>
<polygon id="0x2023310" class="l1d0" points="250,250 310,250 310,310 250,310"/>
<polygon id="0x20233d0" class="l1d0" points="250,330 310,330 310,390 250,390"/>
<polygon id="0x20fea00" class="l1d0" points="250,410 310,410 310,470 250,470"/>
<polygon id="0x20feac0" class="l1d0" points="250,490 310,490 310,550 250,550"/>
<polygon id="0x2141070" class="l1d0" points="250,570 310,570 310,630 250,630"/>
<polygon id="0x2141130" class="l1d0" points="250,650 310,650 310,710 250,710"/>
<polygon id="0x219b240" class="l1d0" points="250,730 310,730 310,790 250,790"/>
<polygon id="0x219b300" class="l1d0" points="250,810 310,810 310,870 250,870"/>
<polygon id="0x2178630" class="l1d0" points="250,890 310,890 310,950 250,950"/>
<polygon id="0x21786f0" class="l1d0" points="250,970 310,970 310,1030 250,1030"/>
<polygon id="0x21dcf40" class="l1d0" points="250,1050 310,1050 310,1110 250,1110"/>
<polygon id="0x21dd000" class="l1d0" points="250,1130 310,1130 310,1190 250,1190"/>
<polygon id="0x2023f50" class="l1d0" points="330,10 390,10 390,70 330,70"/>
<polygon id="0x2024010" class="l1d0" points="330,90 390,90 390,150 330,150"/>
<polygon id="0x21c3d10" class="l1d0" points="330,170 390,170 390,230 330,230"/>
<polygon id="0x21c3d80" class="l1d0" points="330,250 390,250 390,310 330,310"/>
<polygon id="0x21c3e40" class="l1d0" points="330,330 390,330 390,390 330,390"/>
<polygon id="0x2206450" class="l1d0" points="330,410 390,410 390,470 330,470"/>
<polygon id="0x2206510" class="l1d0" points="330,490 390,490 390,550 330,550"/>
<polygon id="0x221fa60" class="l1d0" points="330,570 390,570 390,630 330,630"/>
<polygon id="0x221fb20" class="l1d0" points="330,650 390,650 390,710 330,710"/>
<polygon id="0x2107310" class="l1d0" points="330,730 390,730 390,790 330,790"/>
<polygon id="0x2107380" class="l1d0" points="330,810 390,810 390,870 330,870"/>
<polygon id="0x2107440" class="l1d0" points="330,890 390,890 390,950 330,950"/>
<polygon id="0x216d350" class="l1d0" points="330,970 390,970 390,1030 330,1030"/>
<polygon id="0x216d410" class="l1d0" points="330,1050 390,1050 390,1110 330,1110"/>
<polygon id="0x221c4d0" class="l1d0" points="330,1130 390,1130 390,1190 330,1190"/>
<polygon id="0x221c590" class="l1d0" points="410,10 470,10 470,70 410,70"/>
<polygon id="0x223d620" class="l1d0" points="410,90 470,90 470,150 410,150"/>
<polygon id="0x223d6e0" class="l1d0" points="410,170 470,170 470,230 410,230"/>
<polygon id="0x1fc37f0" class="l1d0" points="410,250 470,250 470,310 410,310"/>
<polygon id="0x1fc38b0" class="l1d0" points="410,330 470,330 470,390 410,390"/>
<polygon id="0x20a1d20" class="l1d0" points="410,410 470,410 470,470 410,470"/>
<polygon id="0x20a1de0" class="l1d0" points="410,490 470,490 470,550 410,550"/>
<polygon id="0x20a1ea0" class="l1d0" points="410,570 470,570 470,630 410,630"/>
<polygon id="0x20bbd40" class="l1d0" points="410,650 470,650 470,710 410,710"/>
<polygon id="0x20bbe00" class="l1d0" points="410,730 470,730 470,790 410,790"/>
<polygon id="0x20bbec0" class="l1d0" points="410,810 470,810 470,870 410,870"/>
<polygon id="0x20ca9c0" class="l1d0" points="410,890 470,890 470,950 410,950"/>
<polygon id="0x20caa80" class="l1d0" points="410,970 470,970 470,1030 410,1030"/>
<polygon id="0x20cab40" class="l1d0" points="410,1050 470,1050 470,1110 410,1110"/>
<polygon id="0x2181b20" class="l1d0" points="410,1130 470,1130 470,1190 410,1190"/>
<polygon id="0x2181be0" class="l1d0" points="490,10 550,10 550,70 490,70"/>
<polygon id="0x2181ca0" class="l1d0" points="490,90 550,90 550,150 490,150"/>
<polygon id="0x21f0430" class="l1d0" points="490,170 550,170 550,230 490,230"/>
<polygon id="0x21f04f0" class="l1d0" points="490,250 550,250 550,310 490,310"/>
<polygon id="0x20d7e50" class="l1d0" points="490,330 550,330 550,390 490,390"/>
<polygon id="0x20d7f10" class="l1d0" points="490,410 550,410 550,470 490,470"/>
<polygon id="0x20d7fd0" class="l1d0" points="490,490 550,490 550,550 490,550"/>
<polygon id="0x21d70c0" class="l1d0" points="490,570 550,570 550,630 490,630"/>
<polygon id="0x21d7180" class="l1d0" points="490,650 550,650 550,710 490,710"/>
<polygon id="0x22738e0" class="l1d0" points="490,730 550,730 550,790 490,790"/>
<polygon id="0x22739a0" class="l1d0" points="490,810 550,810 550,870 490,870"/>
<polygon id="0x2273a60" class="l1d0" points="490,890 550,890 550,950 490,950"/>
<polygon id="0x228ff00" class="l1d0" points="490,970 550,970 550,1030 490,1030"/>
<polygon id="0x228ffc0" class="l1d0" points="490,1050 550,1050 550,1110 490,1110"/>
<polygon id="0x2290080" class="l1d0" points="490,1130 550,1130 550,1190 490,1190"/>
<polygon id="0x2286b10" class="l1d0" points="570,10 630,10 630,70 570,70"/>
<polygon id="0x2286bd0" class="l1d0" points="570,90 630,90 630,150 570,150"/>
<polygon id="0x2286c90" class="l1d0" points="570,170 630,170 630,230 570,230"/>
<polygon id="0x2286d50" class="l1d0" points="570,250 630,250 630,310 570,310"/>
<polygon id="0x2286e10" class="l1d0" points="570,330 630,330 630,390 570,390"/>
<polygon id="0x2286ed0" class="l1d0" points="570,410 630,410 630,470 570,470"/>
<polygon id="0x2286f90" class="l1d0" points="570,490 630,490 630,550 570,550"/>
<polygon id="0x2287050" class="l1d0" points="570,570 630,570 630,630 570,630"/>
<polygon id="0x2287110" class="l1d0" points="570,650 630,650 630,710 570,710"/>
<polygon id="0x2286300" class="l1d0" points="570,730 630,730 630,790 570,790"/>
<polygon id="0x22863c0" class="l1d0" points="570,810 630,810 630,870 570,870"/>
<polygon id="0x2286480" class="l1d0" points="570,890 630,890 630,950 570,950"/>
<polygon id="0x2286540" class="l1d0" points="570,970 630,970 630,1030 570,1030"/>
<polygon id="0x2286600" class="l1d0" points="570,1050 630,1050 630,1110 570,1110"/>
<polygon id="0x22866c0" class="l1d0" points="570,1130 630,1130 630,1190 570,1190"/>
<polygon id="0x2286780" class="l1d0" points="650,10 710,10 710,70 650,70"/>
<polygon id="0x2286840" class="l1d0" points="650,90 710,90 710,150 650,150"/>
<polygon id="0x2286900" class="l1d0" points="650,170 710,170 710,230 650,230"/>
<polygon id="0x22869c0" class="l1d0" points="650,250 710,250 710,310 650,310"/>
<polygon id="0x2286a80" class="l1d0" points="650,330 710,330 710,390 650,390"/>
<polygon id="0x2288230" class="l1d0" points="650,410 710,410 710,470 650,470"/>
<polygon id="0x22882f0" class="l1d0" points="650,490 710,490 710,550 650,550"/>
<polygon id="0x22883b0" class="l1d0" points="650,570 710,570 710,630 650,630"/>
<polygon id="0x2288470" class="l1d0" points="650,650 710,650 710,710 650,710"/>
<polygon id="0x2288530" class="l1d0" points="650,730 710,730 710,790 650,790"/>
<polygon id="0x22885f0" class="l1d0" points="650,810 710,810 710,870 650,870"/>
<polygon id="0x22886b0" class="l1d0" points="650,890 710,890 710,950 650,950"/>
<polygon id="0x2288770" class="l1d0" points="650,970 710,970 710,1030 650,1030"/>
<polygon id="0x2288830" class="l1d0" points="650,1050 710,1050 710,1110 650,1110"/>
<polygon id="0x22888f0" class="l1d0" points="650,1130 710,1130 710,1190 650,1190"/>
<polygon id="0x22889b0" class="l1d0" points="730,10 790,10 790,70 730,70"/>
<polygon id="0x2288a70" class="l1d0" points="730,90 790,90 790,150 730,150"/>
<polygon id="0x2288b30" class="l1d0" points="730,170 790,170 790,230 730,230"/>
<polygon id="0x2288bf0" class="l1d0" points="730,250 790,250 790,310 730,310"/>
<polygon id="0x2288cb0" class="l1d0" points="730,330 790,330 790,390 730,390"/>
<polygon id="0x2288d70" class="l1d0" points="730,410 790,410 790,470 730,470"/>
<polygon id="0x2288e30" class="l1d0" points="730,490 790,490 790,550 730,550"/>
<polygon id="0x2288ef0" class="l1d0" points="730,570 790,570 790,630 730,630"/>
<polygon id="0x2288fb0" class="l1d0" points="730,650 790,650 790,710 730,710"/>
<polygon id="0x2289070" class="l1d0" points="730,730 790,730 790,790 730,790"/>
<polygon id="0x2289130" class="l1d0" points="730,810 790,810 790,870 730,870"/>
<polygon id="0x22891f0" class="l1d0" points="730,890 790,890 790,950 730,950"/>
<polygon id="0x22892b0" class="l1d0" points="730,970 790,970 790,1030 730,1030"/>
<polygon id="0x2289370" class="l1d0" points="730,1050 790,1050 790,1110 730,1110"/>
<polygon id="0x2289430" class="l1d0" points="730,1130 790,1130 790,1190 730,1190"/>
<polygon id="0x22894f0" class="l1d0" points="810,10 870,10 870,70 810,70"/>
<polygon id="0x22895b0" class="l1d0" points="810,90 870,90 870,150 810,150"/>
<polygon id="0x2289670" class="l1d0" points="810,170 870,170 870,230 810,230"/>
<polygon id="0x2289730" class="l1d0" points="810,250 870,250 870,310 810,310"/>
<polygon id="0x22897f0" class="l1d0" points="810,330 870,330 870,390 810,390"/>
<polygon id="0x22898b0" class="l1d0" points="810,410 870,410 870,470 810,470"/>
<polygon id="0x2289970" class="l1d0" points="810,490 870,490 870,550 810,550"/>
<polygon id="0x2289a30" class="l1d0" points="810,570 870,570 870,630 810,630"/>
<polygon id="0x2289af0" class="l1d0" points="810,650 870,650 870,710 810,710"/>
<polygon id="0x2289bb0" class="l1d0" points="810,730 870,730 870,790 810,790"/>
<polygon id="0x2289c70" class="l1d0" points="810,810 870,810 870,870 810,870"/>
<polygon id="0x2289d30" class="l1d0" points="810,890 870,890 870,950 810,950"/>
<polygon id="0x2289df0" class="l1d0" points="810,970 870,970 870,1030 810,1030"/>
<polygon id="0x2289eb0" class="l1d0" points="810,1050 870,1050 870,1110 810,1110"/>
<polygon id="0x2289f70" class="l1d0" points="810,1130 870,1130 870,1190 810,1190"/>
<polygon id="0x228a030" class="l1d0" points="890,10 950,10 950,70 890,70"/>
<polygon id="0x228a0f0" class="l1d0" points="890,90 950,90 950,150 890,150"/>
<polygon id="0x228a1b0" class="l1d0" points="890,170 950,170 950,230 890,230"/>
<polygon id="0x228a270" class="l1d0" points="890,250 950,250 950,310 890,310"/>
<polygon id="0x228a330" class="l1d0" points="890,330 950,330 950,390 890,390"/>
<polygon id="0x228a3f0" class="l1d0" points="890,410 950,410 950,470 890,470"/>
<polygon id="0x228a4b0" class="l1d0" points="890,490 950,490 950,550 890,550"/>
<polygon id="0x228a570" class="l1d0" points="890,570 950,570 950,630 890,630"/>
<polygon id="0x228a630" class="l1d0" points="890,650 950,650 950,710 890,710"/>
<polygon id="0x228a6f0" class="l1d0" points="890,730 950,730 950,790 890,790"/>
<polygon id="0x228a7b0" class="l1d0" points="890,810 950,810 950,870 890,870"/>
<polygon id="0x228a870" class="l1d0" points="890,890 950,890 950,950 890,950"/>
<polygon id="0x228a930" class="l1d0" points="890,970 950,970 950,1030 890,1030"/>
<polygon id="0x228a9f0" class="l1d0" points="890,1050 950,1050 950,1110 890,1110"/>
<polygon id="0x228aab0" class="l1d0" points="890,1130 950,1130 950,1190 890,1190"/>
<polygon id="0x228ab70" class="l1d0" points="970,10 1030,10 1030,70 970,70"/>
<polygon id="0x228ac30" class="l1d0" points="970,90 1030,90 1030,150 970,150"/>
<polygon id="0x228acf0" class="l1d0" points="970,170 1030,170 1030,230 970,230"/>
<polygon id="0x228adb0" class="l1d0" points="970,250 1030,250 1030,310 970,310"/>
<polygon id="0x228ae70" class="l1d0" points="970,330 1030,330 1030,390 970,390"/>
<polygon id="0x228af30" class="l1d0" points="970,410 1030,410 1030,470 970,470"/>
<polygon id="0x228aff0" class="l1d0" points="970,490 1030,490 1030,550 970,550"/>
<polygon id="0x228b0b0" class="l1d0" points="970,570 1030,570 1030,630 970,630"/>
<polygon id="0x228b170" class="l1d0" points="970,650 1030,650 1030,710 970,710"/>
<polygon id="0x228b230" class="l1d0" points="970,730 1030,730 1030,790 970,790"/>
<polygon id="0x228b2f0" class="l1d0" points="970,810 1030,810 1030,870 970,870"/>
<polygon id="0x228b3b0" class="l1d0" points="970,890 1030,890 1030,950 970,950"/>
<polygon id="0x228b470" class="l1d0" points="970,970 1030,970 1030,1030 970,1030"/>
<polygon id="0x228b530" class="l1d0" points="970,1050 1030,1050 1030,1110 970,1110"/>
<polygon id="0x228b5f0" class="l1d0" points="970,1130 1030,1130 1030,1190 970,1190"/>
<polygon id="0x228b6b0" class="l1d0" points="1050,10 1110,10 1110,70 1050,70"/>
<polygon id="0x228b770" class="l1d0" points="1050,90 1110,90 1110,150 1050,150"/>
<polygon id="0x228b830" class="l1d0" points="1050,170 1110,170 1110,230 1050,230"/>
<polygon id="0x228b8f0" class="l1d0" points="1050,250 1110,250 1110,310 1050,310"/>
<polygon id="0x228b9b0" class="l1d0" points="1050,330 1110,330 1110,390 1050,390"/>
<polygon id="0x228ba70" class="l1d0" points="1050,410 1110,410 1110,470 1050,470"/>
<polygon id="0x228bb30" class="l1d0" points="1050,490 1110,490 1110,550 1050,550"/>
<polygon id="0x228bbf0" class="l1d0" points="1050,570 1110,570 1110,630 1050,630"/>
<polygon id="0x228bcb0" class="l1d0" points="1050,650 1110,650 1110,710 1050,710"/>
<polygon id="0x228bd70" class="l1d0" points="1050,730 1110,730 1110,790 1050,790"/>
<polygon id="0x228be30" class="l1d0" points="1050,810 1110,810 1110,870 1050,870"/>
<polygon id="0x228bef0" class="l1d0" points="1050,890 1110,890 1110,950 1050,950"/>
<polygon id="0x228bfb0" class="l1d0" points="1050,970 1110,970 1110,1030 1050,1030"/>
<polygon id="0x228c070" class="l1d0" points="1050,1050 1110,1050 1110,1110 1050,1110"/>
<polygon id="0x228c130" class="l1d0" points="1050,1130 1110,1130 1110,1190 1050,1190"/>
<polygon id="0x228c1f0" class="l1d0" points="1130,10 1190,10 1190,70 1130,70"/>
<polygon id="0x228c2b0" class="l1d0" points="1130,90 1190,90 1190,150 1130,150"/>
<polygon id="0x228c370" class="l1d0" points="1130,170 1190,170 1190,230 1130,230"/>
<polygon id="0x228c430" class="l1d0" points="1130,250 1190,250 1190,310 1130,310"/>
<polygon id="0x228c4f0" class="l1d0" points="1130,330 1190,330 1190,390 1130,390"/>
<polygon id="0x228c5b0" class="l1d0" points="1130,410 1190,410 1190,470 1130,470"/>
<polygon id="0x228c670" class="l1d0" points="1130,490 1190,490 1190,550 1130,550"/>
<polygon id="0x228c730" class="l1d0" points="1130,570 1190,570 1190,630 1130,630"/>
<polygon id="0x228c7f0" class="l1d0" points="1130,650 1190,650 1190,710 1130,710"/>
<polygon id="0x228c8b0" class="l1d0" points="1130,730 1190,730 1190,790 1130,790"/>
<polygon id="0x228c970" class="l1d0" points="1130,810 1190,810 1190,870 1130,870"/>
<polygon id="0x228ca30" class="l1d0" points="1130,890 1190,890 1190,950 1130,950"/>
<polygon id="0x228caf0" class="l1d0" points="1130,970 1190,970 1190,1030 1130,1030"/>
<polygon id="0x228cbb0" class="l1d0" points="1130,1050 1190,1050 1190,1110 1130,1110"/>
<polygon id="0x228cc70" class="l1d0" points="1130,1130 1190,1130 1190,1190 1130,1190"/>
<polygon id="0x228cd30" class="l1d0" points="1210,10 1270,10 1270,70 1210,70"/>
<polygon id="0x228cdf0" class="l1d0" points="1210,90 1270,90 1270,150 1210,150"/>
<polygon id="0x228ceb0" class="l1d0" points="1210,170 1270,170 1270,230 1210,230"/>
<polygon id="0x228cf70" class="l1d0" points="1210,250 1270,250 1270,310 1210,310"/>
<polygon id="0x228d030" class="l1d0" points="1210,330 1270,330 1270,390 1210,390"/>
<polygon id="0x228d0f0" class="l1d0" points="1210,410 1270,410 1270,470 1210,470"/>
<polygon id="0x228d1b0" class="l1d0" points="1210,490 1270,490 1270,550 1210,550"/>
<polygon id="0x228d270" class="l1d0" points="1210,570 1270,570 1270,630 1210,630"/>
<polygon id="0x228d330" class="l1d0" points="1210,650 1270,650 1270,710 1210,710"/>
<polygon id="0x228d3f0" class="l1d0" points="1210,730 1270,730 1270,790 1210,790"/>
<polygon id="0x228d4b0" class="l1d0" points="1210,810 1270,810 1270,870 1210,870"/>
<polygon id="0x228d570" class="l1d0" points="1210,890 1270,890 1270,950 1210,950"/>
<polygon id="0x22904c0" class="l1d0" points="1210,970 1270,970 1270,1030 1210,1030"/>
<polygon id="0x2290580" class="l1d0" points="1210,1050 1270,1050 1270,1110 1210,1110"/>
<polygon id="0x2290640" class="l1d0" points="1210,1130 1270,1130 1270,1190 1210,1190"/>
<polygon id="0x2290700" class="l1d0" points="1290,10 1350,10 1350,70 1290,70"/>
<polygon id="0x22907c0" class="l1d0" points="1290,90 1350,90 1350,150 1290,150"/>
<polygon id="0x2290880" class="l1d0" points="1290,170 1350,170 1350,230 1290,230"/>
<polygon id="0x2290940" class="l1d0" points="1290,250 1350,250 1350,310 1290,310"/>
<polygon id="0x2290a00" class="l1d0" points="1290,330 1350,330 1350,390 1290,390"/>
<polygon id="0x2290ac0" class="l1d0" points="1290,410 1350,410 1350,470 1290,470"/>
<polygon id="0x2290b80" class="l1d0" points="1290,490 1350,490 1350,550 1290,550"/>
<polygon id="0x2290c40" class="l1d0" points="1290,570 1350,570 1350,630 1290,630"/>
<polygon id="0x2290d00" class="l1d0" points="1290,650 1350,650 1350,710 1290,710"/>
<polygon id="0x2290dc0" class="l1d0" points="1290,730 1350,730 1350,790 1290,790"/>
<polygon id="0x2290e80" class="l1d0" points="1290,810 1350,810 1350,870 1290,870"/>
<polygon id="0x2290f40" class="l1d0" points="1290,890 1350,890 1350,950 1290,950"/>
<polygon id="0x2291000" class="l1d0" points="1290,970 1350,970 1350,1030 1290,1030"/>
<polygon id="0x22910c0" class="l1d0" points="1290,1050 1350,1050 1350,1110 1290,1110"/>
<polygon id="0x2291180" class="l1d0" points="1290,1130 1350,1130 1350,1190 1290,1190"/>
<polygon id="0x2291240" class="l5d0" points="10,10 70,10 70,70 10,70"/>
<polygon id="0x2291300" class="l5d0" points="10,90 70,90 70,150 10,150"/>
<polygon id="0x22913c0" class="l5d0" points="10,170 70,170 70,230 10,230"/>
<polygon id="0x2291480" class="l5d0" points="10,250 70,250 70,310 10,310"/>
<polygon id="0x2291540" class="l5d0" points="10,330 70,330 70,390 10,390"/>
<polygon id="0x2291600" class="l5d0" points="10,410 70,410 70,470 10,470"/>
<polygon id="0x22916c0" class="l5d0" points="10,490 70,490 70,550 10,550"/>
<polygon id="0x2291780" class="l5d0" points="10,570 70,570 70,630 10,630"/>
<polygon id="0x2291840" class="l5d0" points="10,650 70,650 70,710 10,710"/>
<polygon id="0x2291900" class="l5d0" points="10,730 70,730 70,790 10,790"/>
<polygon id="0x22919c0" class="l5d0" points="10,810 70,810 70,870 10,870"/>
<polygon id="0x2291a80" class="l5d0" points="10,890 70,890 70,950 10,950"/>
<polygon id="0x2291b40" class="l5d0" points="10,970 70,970 70,1030 10,1030"/>
<polygon id="0x2291c00" class="l5d0" points="10,1050 70,1050 70,1110 10,1110"/>
<polygon id="0x2291cc0" class="l5d0" points="10,1130 70,1130 70,1190 10,1190"/>
<polygon id="0x2291d80" class="l5d0" points="90,10 150,10 150,70 90,70"/>
<polygon id="0x2291e40" class="l5d0" points="90,90 150,90 150,150 90,150"/>
<polygon id="0x2291f00" class="l5d0" points="90,170 150,170 150,230 90,230"/>
<polygon id="0x2291fc0" class="l5d0" points="90,250 150,250 150,310 90,310"/>
<polygon id="0x2292080" class="l5d0" points="90,330 150,330 150,390 90,390"/>
<polygon id="0x2292140" class="l5d0" points="90,410 150,410 150,470 90,470"/>
<polygon id="0x2292200" class="l5d0" points="90,490 150,490 150,550 90,550"/>
<polygon id="0x22922c0" class="l5d0" points="90,570 150,570 150,630 90,630"/>
<polygon id="0x2292380" class="l5d0" points="90,650 150,650 150,710 90,710"/>
<polygon id="0x2292440" class="l5d0" points="90,730 150,730 150,790 90,790"/>
<polygon id="0x2292500" class="l5d0" points="90,810 150,810 150,870 90,870"/>
<polygon id="0x22925c0" class="l5d0" points="90,890 150,890 150,950 90,950"/>
<polygon id="0x2292680" class="l5d0" points="90,970 150,970 150,1030 90,1030"/>
<polygon id="0x2292740" class="l5d0" points="90,1050 150,1050 150,1110 90,1110"/>
<polygon id="0x2292800" class="l5d0" points="90,1130 150,1130 150,1190 90,1190"/>
<polygon id="0x22928c0" class="l5d0" points="170,10 230,10 230,70 170,70"/>
<polygon id="0x2292980" class="l5d0" points="170,90 230,90 230,150 170,150"/>
<polygon id="0x2292a40" class="l5d0" points="170,170 230,170 230,230 170,230"/>
<polygon id="0x2292b00" class="l5d0" points="170,250 230,250 230,310 170,310"/>
<polygon id="0x2292bc0" class="l5d0" points="170,330 230,330 230,390 170,390"/>
<polygon id="0x2292c80" class="l5d0" points="170,410 230,410 230,470 170,470"/>
<polygon id="0x2292d40" class="l5d0" points="170,490 230,490 230,550 170,550"/>
<polygon id="0x2292e00" class="l5d0" points="170,570 230,570 230,630 170,630"/>
<polygon id="0x2292ec0" class="l5d0" points="170,650 230,650 230,710 170,710"/>
<polygon id="0x2292f80" class="l5d0" points="170,730 230,730 230,790 170,790"/>
<polygon id="0x2293040" class="l5d0" points="170,810 230,810 230,870 170,870"/>
<polygon id="0x2293100" class="l5d0" points="170,890 230,890 230,950 170,950"/>
<polygon id="0x22931c0" class="l5d0" points="170,970 230,970 230,1030 170,1030"/>
<polygon id="0x2293280" class="l5d0" points="170,1050 230,1050 230,1110 170,1110"/>
<polygon id="0x2293340" class="l5d0" points="170,1130 230,1130 230,1190 170,1190"/>
<polygon id="0x2293400" class="l5d0" points="250,10 310,10 310,70 250,70"/>
<polygon id="0x22934c0" class="l5d0" points="250,90 310,90 310,150 250,150"/>
<polygon id="0x2293580" class="l5d0" points="250,170 310,170 310,230 250,230"/>
<polygon id="0x2293640" class="l5d0" points="250,250 310,250 310,310 250,310"/>
<polygon id="0x2293700" class="l5d0" points="250,330 310,330 310,390 250,390"/>
<polygon id="0x22937c0" class="l5d0" points="250,410 310,410 310,470 250,470"/>
<polygon id="0x2293880" class="l5d0" points="250,490 310,490 310,550 250,550"/>
<polygon id="0x2293940" class="l5d0" points="250,570 310,570 310,630 250,630"/>
<polygon id="0x2293a00" class="l5d0" points="250,650 310,650 310,710 250,710"/>
<polygon id="0x2293ac0" class="l5d0" points="250,730 310,730 310,790 250,790"/>
<polygon id="0x2293b80" class="l5d0" points="250,810 310,810 310,870 250,870"/>
<polygon id="0x2293c40" class="l5d0" points="250,890 310,890 310,950 250,950"/>
<polygon id="0x2293d00" class="l5d0" points="250,970 310,970 310,1030 250,1030"/>
<polygon id="0x2293dc0" class="l5d0" points="250,1050 310,1050 310,1110 250,1110"/>
<polygon id="0x2293e80" class="l5d0" points="250,1130 310,1130 310,1190 250,1190"/>
<polygon id="0x2293f40" class="l5d0" points="330,10 390,10 390,70 330,70"/>
<polygon id="0x2294000" class="l5d0" points="330,90 390,90 390,150 330,150"/>
<polygon id="0x22940c0" class="l5d0" points="330,170 390,170 390,230 330,230"/>
<polygon id="0x2294180" class="l5d0" points="330,250 390,250 390,310 330,310"/>
<polygon id="0x2294240" class="l5d0" points="330,330 390,330 390,390 330,390"/>
<polygon id="0x2294300" class="l5d0" points="330,410 390,410 390,470 330,470"/>
<polygon id="0x22943c0" class="l5d0" points="330,490 390,490 390,550 330,550"/>
<polygon id="0x2294480" class="l5d0" points="330,570 390,570 390,630 330,630"/>
<polygon id="0x2294540" class="l5d0" points="330,650 390,650 390,710 330,710"/>
<polygon id="0x2294600" class="l5d0" points="330,730 390,730 390,790 330,790"/>
<polygon id="0x22946c0" class="l5d0" points="330,810 390,810 390,870 330,870"/>
<polygon id="0x2294780" class="l5d0" points="330,890 390,890 390,950 330,950"/>
<polygon id="0x2294840" class="l5d0" points="330,970 390,970 390,1030 330,1030"/>
<polygon id="0x2294900" class="l5d0" points="330,1050 390,1050 390,1110 330,1110"/>
<polygon id="0x22949c0" class="l5d0" points="330,1130 390,1130 390,1190 330,1190"/>
<polygon id="0x2294a80" class="l5d0" points="410,10 470,10 470,70 410,70"/>
<polygon id="0x2294b40" class="l5d0" points="410,90 470,90 470,150 410,150"/>
<polygon id="0x2294c00" class="l5d0" points="410,170 470,170 470,230 410,230"/>
<polygon id="0x2294cc0" class="l5d0" points="410,250 470,250 470,310 410,310"/>
<polygon id="0x2294d80" class="l5d0" points="410,330 470,330 470,390 410,390"/>
<polygon id="0x2294e40" class="l5d0" points="410,410 470,410 470,470 410,470"/>
<polygon id="0x2294f00" class="l5d0" points="410,490 470,490 470,550 410,550"/>
<polygon id="0x2294fc0" class="l5d0" points="410,570 470,570 470,630 410,630"/>
<polygon id="0x2295080" class="l5d0" points="410,650 470,650 470,710 410,710"/>
<polygon id="0x2295140" class="l5d0" points="410,730 470,730 470,790 410,790"/>
<polygon id="0x2295200" class="l5d0" points="410,810 470,810 470,870 410,870"/>
<polygon id="0x22952c0" class="l5d0" points="410,890 470,890 470,950 410,950"/>
<polygon id="0x2295380" class="l5d0" points="410,970 470,970 470,1030 410,1030"/>
<polygon id="0x2295440" class="l5d0" points="410,1050 470,1050 470,1110 410,1110"/>
<polygon id="0x2295500" class="l5d0" points="410,1130 470,1130 470,1190 410,1190"/>
<polygon id="0x22955c0" class="l5d0" points="490,10 550,10 550,70 490,70"/>
<polygon id="0x2295680" class="l5d0" points="490,90 550,90 550,150 490,150"/>
<polygon id="0x2295740" class="l5d0" points="490,170 550,170 550,230 490,230"/>
<polygon id="0x2295800" class="l5d0" points="490,250 550,250 550,310 490,310"/>
<polygon id="0x22958c0" class="l5d0" points="490,330 550,330 550,390 490,390"/>
<polygon id="0x2295980" class="l5d0" points="490,410 550,410 550,470 490,470"/>
<polygon id="0x2295a40" class="l5d0" points="490,490 550,490 550,550 490,550"/>
<polygon id="0x2295b00" class="l5d0" points="490,570 550,570 550,630 490,630"/>
<polygon id="0x2295bc0" class="l5d0" points="490,650 550,650 550,710 490,710"/>
<polygon id="0x2295c80" class="l5d0" points="490,730 550,730 550,790 490,790"/>
<polygon id="0x2295d40" class="l5d0" points="490,810 550,810 550,870 490,870"/>
<polygon id="0x2295e00" class="l5d0" points="490,890 550,890 550,950 490,950"/>
<polygon id="0x2295ec0" class="l5d0" points="490,970 550,970 550,1030 490,1030"/>
<polygon id="0x2295f80" class="l5d0" points="490,1050 550,1050 550,1110 490,1110"/>
<polygon id="0x2296040" class="l5d0" points="490,1130 550,1130 550,1190 490,1190"/>
<polygon id="0x2296100" class="l5d0" points="570,10 630,10 630,70 570,70"/>
<polygon id="0x22961c0" class="l5d0" points="570,90 630,90 630,150 570,150"/>
<polygon id="0x2296280" class="l5d0" points="570,170 630,170 630,230 570,230"/>
<polygon id="0x2296340" class="l5d0" points="570,250 630,250 630,310 570,310"/>
<polygon id="0x2296400" class="l5d0" points="570,330 630,330 630,390 570,390"/>
<polygon id="0x22964c0" class="l5d0" points="570,410 630,410 630,470 570,470"/>
<polygon id="0x2296580" class="l5d0" points="570,490 630,490 630,550 570,550"/>
<polygon id="0x2296640" class="l5d0" points="570,570 630,570 630,630 570,630"/>
<polygon id="0x2296700" class="l5d0" points="570,650 630,650 630,710 570,710"/>
<polygon id="0x22967c0" class="l5d0" points="570,730 630,730 630,790 570,790"/>
<polygon id="0x22871d0" class="l5d0" points="570,810 630,810 630,870 570,870"/>
<polygon id="0x2287290" class="l5d0" points="570,890 630,890 630,950 570,950"/>
<polygon id="0x2287350" class="l5d0" points="570,970 630,970 630,1030 570,1030"/>
<polygon id="0x2287410" class="l5d0" points="570,1050 630,1050 630,1110 570,1110"/>
<polygon id="0x22874d0" class="l5d0" points="570,1130 630,1130 630,1190 570,1190"/>
<polygon id="0x2287590" class="l5d0" points="650,10 710,10 710,70 650,70"/>
<polygon id="0x2287650" class="l5d0" points="650,90 710,90 710,150 650,150"/>
<polygon id="0x2287710" class="l5d0" points="650,170 710,170 710,230 650,230"/>
<polygon id="0x22877d0" class="l5d0" points="650,250 710,250 710,310 650,310"/>
<polygon id="0x2287890" class="l5d0" points="650,330 710,330 710,390 650,390"/>
<polygon id="0x2287950" class="l5d0" points="650,410 710,410 710,470 650,470"/>
<polygon id="0x2287a10" class="l5d0" points="650,490 710,490 710,550 650,550"/>
<polygon id="0x2287ad0" class="l5d0" points="650,570 710,570 710,630 650,630"/>
<polygon id="0x2287b90" class="l5d0" points="650,650 710,650 710,710 650,710"/>
<polygon id="0x2287c50" class="l5d0" points="650,730 710,730 710,790 650,790"/>
<polygon id="0x2287d10" class="l5d0" points="650,810 710,810 710,870 650,870"/>
<polygon id="0x2287dd0" class="l5d0" points="650,890 710,890 710,950 650,950"/>
<polygon id="0x2287e90" class="l5d0" points="650,970 710,970 710,1030 650,1030"/>
<polygon id="0x2287f50" class="l5d0" points="650,1050 710,1050 710,1110 650,1110"/>
<polygon id="0x2288010" class="l5d0" points="650,1130 710,1130 710,1190 650,1190"/>
<polygon id="0x22880d0" class="l5d0" points="730,10 790,10 790,70 730,70"/>
<polygon id="0x2298890" class="l5d0" points="730,90 790,90 790,150 730,150"/>
<polygon id="0x2298900" class="l5d0" points="730,170 790,170 790,230 730,230"/>
<polygon id="0x22989c0" class="l5d0" points="730,250 790,250 790,310 730,310"/>
<polygon id="0x2298a80" class="l5d0" points="730,330 790,330 790,390 730,390"/>
<polygon id="0x2298b40" class="l5d0" points="730,410 790,410 790,470 730,470"/>
<polygon id="0x2298c00" class="l5d0" points="730,490 790,490 790,550 730,550"/>
<polygon id="0x2298cc0" class="l5d0" points="730,570 790,570 790,630 730,630"/>
<polygon id="0x2298d80" class="l5d0" points="730,650 790,650 790,710 730,710"/>
<polygon id="0x2298e40" class="l5d0" points="730,730 790,730 790,790 730,790"/>
<polygon id="0x2298f00" class="l5d0" points="730,810 790,810 790,870 730,870"/>
<polygon id="0x2298fc0" class="l5d0" points="730,890 790,890 790,950 730,950"/>
<polygon id="0x2299080" class="l5d0" points="730,970 790,970 790,1030 730,1030"/>
<polygon id="0x2299140" class="l5d0" points="730,1050 790,1050 790,1110 730,1110"/>
<polygon id="0x2299200" class="l5d0" points="730,1130 790,1130 790,1190 730,1190"/>
<polygon id="0x22992c0" class="l5d0" points="810,10 870,10 870,70 810,70"/>
<polygon id="0x2299380" class="l5d0" points="810,90 870,90 870,150 810,150"/>
<polygon id="0x2299440" class="l5d0" points="810,170 870,170 870,230 810,230"/>
<polygon id="0x2299500" class="l5d0" points="810,250 870,250 870,310 810,310"/>
<polygon id="0x22995c0" class="l5d0" points="810,330 870,330 870,390 810,390"/>
<polygon id="0x2299680" class="l5d0" points="810,410 870,410 870,470 810,470"/>
<polygon id="0x2299740" class="l5d0" points="810,490 870,490 870,550 810,550"/>
<polygon id="0x2299800" class="l5d0" points="810,570 870,570 870,630 810,630"/>
<polygon id="0x22998c0" class="l5d0" points="810,650 870,650 870,710 810,710"/>
<polygon id="0x2299980" class="l5d0" points="810,730 870,730 870,790 810,790"/>
<polygon id="0x2299a40" class="l5d0" points="810,810 870,810 870,870 810,870"/>
<polygon id="0x2299b00" class="l5d0" points="810,890 870,890 870,950 810,950"/>
<polygon id="0x2299bc0" class="l5d0" points="810,970 870,970 870,1030 810,1030"/>
<polygon id="0x2299c80" class="l5d0" points="810,1050 870,1050 870,1110 810,1110"/>
<polygon id="0x2299d40" class="l5d0" points="810,1130 870,1130 870,1190 810,1190"/>
<polygon id="0x2299e00" class="l5d0" points="890,10 950,10 950,70 890,70"/>
<polygon id="0x2299ec0" class="l5d0" points="890,90 950,90 950,150 890,150"/>
<polygon id="0x2299f80" class="l5d0" points="890,170 950,170 950,230 890,230"/>
<polygon id="0x229a040" class="l5d0" points="890,250 950,250 950,310 890,310"/>
<polygon id="0x229a100" class="l5d0" points="890,330 950,330 950,390 890,390"/>
<polygon id="0x229a1c0" class="l5d0" points="890,410 950,410 950,470 890,470"/>
<polygon id="0x229a280" class="l5d0" points="890,490 950,490 950,550 890,550"/>
<polygon id="0x229a340" class="l5d0" points="890,570 950,570 950,630 890,630"/>
<polygon id="0x229a400" class="l5d0" points="890,650 950,650 950,710 890,710"/>
<polygon id="0x229a4c0" class="l5d0" points="890,730 950,730 950,790 890,790"/>
<polygon id="0x229a580" class="l5d0" points="890,810 950,810 950,870 890,870"/>
<polygon id="0x229a640" class="l5d0" points="890,890 950,890 950,950 890,950"/>
<polygon id="0x229a700" class="l5d0" points="890,970 950,970 950,1030 890,1030"/>
<polygon id="0x229a7c0" class="l5d0" points="890,1050 950,1050 950,1110 890,1110"/>
<polygon id="0x229a880" class="l5d0" points="890,1130 950,1130 950,1190 890,1190"/>
<polygon id="0x229a940" class="l5d0" points="970,10 1030,10 1030,70 970,70"/>
<polygon id="0x229aa00" class="l5d0" points="970,90 1030,90 1030,150 970,150"/>
<polygon id="0x229aac0" class="l5d0" points="970,170 1030,170 1030,230 970,230"/>
<polygon id="0x229ab80" class="l5d0" points="970,250 1030,250 1030,310 970,310"/>
<polygon id="0x229ac40" class="l5d0" points="970,330 1030,330 1030,390 970,390"/>
<polygon id="0x229ad00" class="l5d0" points="970,410 1030,410 1030,470 970,470"/>
<polygon id="0x229adc0" class="l5d0" points="970,490 1030,490 1030,550 970,550"/>
<polygon id="0x229ae80" class="l5d0" points="970,570 1030,570 1030,630 970,630"/>
<polygon id="0x229af40" class="l5d0" points="970,650 1030,650 1030,710 970,710"/>
<polygon id="0x229b000" class="l5d0" points="970,730 1030,730 1030,790 970,790"/>
<polygon id="0x229b0c0" class="l5d0" points="970,810 1030,810 1030,870 970,870"/>
<polygon id="0x229b180" class="l5d0" points="970,890 1030,890 1030,950 970,950"/>
<polygon id="0x229b240" class="l5d0" points="970,970 1030,970 1030,1030 970,1030"/>
<polygon id="0x229b300" class="l5d0" points="970,1050 1030,1050 1030,1110 970,1110"/>
<polygon id="0x229b3c0" class="l5d0" points="970,1130 1030,1130 1030,1190 970,1190"/>
<polygon id="0x229b480" class="l5d0" points="1050,10 1110,10 1110,70 1050,70"/>
<polygon id="0x229b540" class="l5d0" points="1050,90 1110,90 1110,150 1050,150"/>
<polygon id="0x229b600" class="l5d0" points="1050,170 1110,170 1110,230 1050,230"/>
<polygon id="0x229b6c0" class="l5d0" points="1050,250 1110,250 1110,310 1050,310"/>
<polygon id="0x229b780" class="l5d0" points="1050,330 1110,330 1110,390 1050,390"/>
<polygon id="0x229b840" class="l5d0" points="1050,410 1110,410 1110,470 1050,470"/>
<polygon id="0x229b900" class="l5d0" points="1050,490 1110,490 1110,550 1050,550"/>
<polygon id="0x229b9c0" class="l5d0" points="1050,570 1110,570 1110,630 1050,630"/>
<polygon id="0x229ba80" class="l5d0" points="1050,650 1110,650 1110,710 1050,710"/>
<polygon id="0x229bb40" class="l5d0" points="1050,730 1110,730 1110,790 1050,790"/>
<polygon id="0x229bc00" class="l5d0" points="1050,810 1110,810 1110,870 1050,870"/>
<polygon id="0x229bcc0" class="l5d0" points="1050,890 1110,890 1110,950 1050,950"/>
<polygon id="0x229bd80" class="l5d0" points="1050,970 1110,970 1110,1030 1050,1030"/>
<polygon id="0x229be40" class="l5d0" points="1050,1050 1110,1050 1110,1110 1050,1110"/>
<polygon id="0x229bf00" class="l5d0" points="1050,1130 1110,1130 1110,1190 1050,1190"/>
<polygon id="0x229bfc0" class="l5d0" points="1130,10 1190,10 1190,70 1130,70"/>
<polygon id="0x229c080" class="l5d0" points="1130,90 1190,90 1190,150 1130,150"/>
<polygon id="0x229c140" class="l5d0" points="1130,170 1190,170 1190,230 1130,230"/>
<polygon id="0x229c200" class="l5d0" points="1130,250 1190,250 1190,310 1130,310"/>
<polygon id="0x229c2c0" class="l5d0" points="1130,330 1190,330 1190,390 1130,390"/>
<polygon id="0x229c380" class="l5d0" points="1130,410 1190,410 1190,470 1130,470"/>
<polygon id="0x229c440" class="l5d0" points="1130,490 1190,490 1190,550 1130,550"/>
<polygon id="0x229c500" class="l5d0" points="1130,570 1190,570 1190,630 1130,630"/>
<polygon id="0x229c5c0" class="l5d0" points="1130,650 1190,650 1190,710 1130,710"/>
<polygon id="0x229c680" class="l5d0" points="1130,730 1190,730 1190,790 1130,790"/>
<polygon id="0x229c740" class="l5d0" points="1130,810 1190,810 1190,870 1130,870"/>
<polygon id="0x229c800" class="l5d0" points="1130,890 1190,890 1190,950 1130,950"/>
<polygon id="0x229c8c0" class="l5d0" points="1130,970 1190,970 1190,1030 1130,1030"/>
<polygon id="0x229c980" class="l5d0" points="1130,1050 1190,1050 1190,1110 1130,1110"/>
<polygon id="0x229ca40" class="l5d0" points="1130,1130 1190,1130 1190,1190 1130,1190"/>
<polygon id="0x229cb00" class="l5d0" points="1210,10 1270,10 1270,70 1210,70"/>
<polygon id="0x229cbc0" class="l5d0" points="1210,90 1270,90 1270,150 1210,150"/>
<polygon id="0x229cc80" class="l5d0" points="1210,170 1270,170 1270,230 1210,230"/>
<polygon id="0x229cd40" class="l5d0" points="1210,250 1270,250 1270,310 1210,310"/>
<polygon id="0x229ce00" class="l5d0" points="1210,330 1270,330 1270,390 1210,390"/>
<polygon id="0x229cec0" class="l5d0" points="1210,410 1270,410 1270,470 1210,470"/>
<polygon id="0x229cf80" class="l5d0" points="1210,490 1270,490 1270,550 1210,550"/>
<polygon id="0x229d040" class="l5d0" points="1210,570 1270,570 1270,630 1210,630"/>
<polygon id="0x229d100" class="l5d0" points="1210,650 1270,650 1270,710 1210,710"/>
<polygon id="0x229d1c0" class="l5d0" points="1210,730 1270,730 1270,790 1210,790"/>
<polygon id="0x229d280" class="l5d0" points="1210,810 1270,810 1270,870 1210,870"/>
<polygon id="0x229d340" class="l5d0" points="1210,890 1270,890 1270,950 1210,950"/>
<polygon id="0x229d400" class="l5d0" points="1210,970 1270,970 1270,1030 1210,1030"/>
<polygon id="0x229d4c0" class="l5d0" points="1210,1050 1270,1050 1270,1110 1210,1110"/>
<polygon id="0x229d580" class="l5d0" points="1210,1130 1270,1130 1270,1190 1210,1190"/>
<polygon id="0x229d640" class="l5d0" points="1290,10 1350,10 1350,70 1290,70"/>
<polygon id="0x229d700" class="l5d0" points="1290,90 1350,90 1350,150 1290,150"/>
<polygon id="0x229d7c0" class="l5d0" points="1290,170 1350,170 1350,230 1290,230"/>
<polygon id="0x229d880" class="l5d0" points="1290,250 1350,250 1350,310 1290,310"/>
<polygon id="0x229d940" class="l5d0" points="1290,330 1350,330 1350,390 1290,390"/>
<polygon id="0x229da00" class="l5d0" points="1290,410 1350,410 1350,470 1290,470"/>
<polygon id="0x229dac0" class="l5d0" points="1290,490 1350,490 1350,550 1290,550"/>
<polygon id="0x229db80" class="l5d0" points="1290,570 1350,570 1350,630 1290,630"/>
<polygon id="0x229dc40" class="l5d0" points="1290,650 1350,650 1350,710 1290,710"/>
<polygon id="0x229dd00" class="l5d0" points="1290,730 1350,730 1350,790 1290,790"/>
<polygon id="0x229ddc0" class="l5d0" points="1290,810 1350,810 1350,870 1290,870"/>
<polygon id="0x229de80" class="l5d0" points="1290,890 1350,890 1350,950 1290,950"/>
<polygon id="0x229df40" class="l5d0" points="1290,970 1350,970 1350,1030 1290,1030"/>
<polygon id="0x229e000" class="l5d0" points="1290,1050 1350,1050 1350,1110 1290,1110"/>
<polygon id="0x229e0c0" class="l5d0" points="1290,1130 1350,1130 1350,1190 1290,1190"/>
</g>
</svg>