<?xml version="1.0" encoding="UTF-8"?>
<svg xmlns="http://www.w3.org/2000/svg" xmlns:xlink="http://www.w3.org/1999/xlink" width="1760" height="1360" viewBox="-80 -1280 1760 1360">
<defs>
<style type="text/css">
.l5d0 {stroke: #008856; fill: #008856; fill-opacity: 0.5;}
.l1d0 {stroke: #A1CAF1; fill: #A1CAF1; fill-opacity: 0.5;}
.l126d0 {stroke: #E68FAC; fill: #E68FAC; fill-opacity: 0.5;}
.l189d4 {stroke: #A1CAF1; fill: #A1CAF1; fill-opacity: 0.5;}
.l8d0 {stroke: #F99379; fill: #F99379; fill-opacity: 0.5;}
</style>
</defs>
<rect x="-80" y="-1280" width="1760" height="1360" fill="#222222" stroke="none"/>
<g id="my_logo" transform="scale(1 -1)">
<polygon id="0x16ca960" class="l126d0" points="160,20 320,20 320,60 160,60"/>
<polygon id="0x16d5b70" class="l126d0" points="400,20 560,20 560,60 400,60"/>
<polygon id="0x153b400" class="l126d0" points="640,20 880,20 880,60 640,60"/>
<polygon id="0x1727b30" class="l126d0" points="960,20 1120,20 1120,60 960,60"/>
<polygon id="0x15c0050" class="l126d0" points="1280,20 1360,20 1360,60 1280,60"/>
<polygon id="0x1831c70" class="l126d0" points="400,100 560,100 560,140 400,140"/>
<polygon id="0x1882c00" class="l126d0" points="800,100 1200,100 1200,140 800,140"/>
<polygon id="0x17f7250" class="l126d0" points="1280,100 1600,100 1600,140 1280,140"/>
<polygon id="0x17f9260" class="l126d0" points="80,180 560,180 560,220 80,220"/>
<polygon id="0x182dd20" class="l126d0" points="880,180 960,180 960,220 880,220"/>
<polygon id="0x1810db0" class="l126d0" points="1200,180 1600,180 1600,220 1200,220"/>
<polygon id="0x18479c0" class="l126d0" points="0,260 80,260 80,300 0,300"/>
<polygon id="0x18863c0" class="l126d0" points="560,260 720,260 720,300 560,300"/>
<polygon id="0x18ac820" class="l126d0" points="1120,260 1200,260 1200,300 1120,300"/>
<polygon id="0x183c740" class="l126d0" points="1280,260 1360,260 1360,300 1280,300"/>
<polygon id="0x18571a0" class="l126d0" points="1440,260 1600,260 1600,300 1440,300"/>
<polygon id="0x186f2a0" class="l126d0" points="80,340 240,340 240,380 80,380"/>
<polygon id="0x1818890" class="l126d0" points="400,340 480,340 480,380 400,380"/>
<polygon id="0x188e6b0" class="l126d0" points="560,340 640,340 640,380 560,380"/>
<polygon id="0x17fb120" class="l126d0" points="800,340 880,340 880,380 800,380"/>
<polygon id="0x1800820" class="l126d0" points="960,340 1280,340 1280,380 960,380"/>
<polygon id="0x18425e0" class="l126d0" points="1440,340 1520,340 1520,380 1440,380"/>
<polygon id="0x1852d50" class="l126d0" points="160,420 240,420 240,460 160,460"/>
<polygon id="0x1846420" class="l126d0" points="480,420 560,420 560,460 480,460"/>
<polygon id="0x15e3710" class="l126d0" points="640,420 880,420 880,460 640,460"/>
<polygon id="0x165dfd0" class="l126d0" points="1040,420 1360,420 1360,460 1040,460"/>
<polygon id="0x1671070" class="l126d0" points="1520,420 1600,420 1600,460 1520,460"/>
<polygon id="0x167f720" class="l126d0" points="80,500 400,500 400,540 80,540"/>
<polygon id="0x160e670" class="l126d0" points="640,500 720,500 720,540 640,540"/>
<polygon id="0x17df6e0" class="l126d0" points="800,500 960,500 960,540 800,540"/>
<polygon id="0x1811f80" class="l126d0" points="1120,500 1440,500 1440,540 1120,540"/>
<polygon id="0x17a4c80" class="l126d0" points="320,580 400,580 400,620 320,620"/>
<polygon id="0x17cdb00" class="l126d0" points="800,580 880,580 880,620 800,620"/>
<polygon id="0x18a5070" class="l126d0" points="960,580 1200,580 1200,620 960,620"/>
<polygon id="0x18a5130" class="l126d0" points="1280,580 1360,580 1360,620 1280,620"/>
<polygon id="0x18a51f0" class="l126d0" points="1440,580 1520,580 1520,620 1440,620"/>
<polygon id="0x18a52b0" class="l126d0" points="0,660 80,660 80,700 0,700"/>
<polygon id="0x18a5370" class="l126d0" points="160,660 320,660 320,700 160,700"/>
<polygon id="0x18a5430" class="l126d0" points="400,660 480,660 480,700 400,700"/>
<polygon id="0x18a54f0" class="l126d0" points="560,660 880,660 880,700 560,700"/>
<polygon id="0x18a55b0" class="l126d0" points="960,660 1200,660 1200,700 960,700"/>
<polygon id="0x18a5670" class="l126d0" points="1440,660 1600,660 1600,700 1440,700"/>
<polygon id="0x18a5730" class="l126d0" points="0,740 320,740 320,780 0,780"/>
<polygon id="0x18a57f0" class="l126d0" points="480,740 560,740 560,780 480,780"/>
<polygon id="0x18a58b0" class="l126d0" points="720,740 800,740 800,780 720,780"/>
<polygon id="0x18a5970" class="l126d0" points="960,740 1120,740 1120,780 960,780"/>
<polygon id="0x18a5a30" class="l126d0" points="1360,740 1600,740 1600,780 1360,780"/>
<polygon id="0x18a5af0" class="l126d0" points="80,820 160,820 160,860 80,860"/>
<polygon id="0x18a5bb0" class="l126d0" points="240,820 320,820 320,860 240,860"/>
<polygon id="0x18a5c70" class="l126d0" points="400,820 480,820 480,860 400,860"/>
<polygon id="0x18a5d30" class="l126d0" points="560,820 640,820 640,860 560,860"/>
<polygon id="0x18a5df0" class="l126d0" points="720,820 800,820 800,860 720,860"/>
<polygon id="0x18a5eb0" class="l126d0" points="1040,820 1120,820 1120,860 1040,860"/>
<polygon id="0x18a5f70" class="l126d0" points="1200,820 1280,820 1280,860 1200,860"/>
<polygon id="0x18a6030" class="l126d0" points="1360,820 1440,820 1440,860 1360,860"/>
<polygon id="0x18a60f0" class="l126d0" points="1520,820 1600,820 1600,860 1520,860"/>
<polygon id="0x18a61b0" class="l126d0" points="80,900 160,900 160,940 80,940"/>
<polygon id="0x18a6270" class="l126d0" points="240,900 640,900 640,940 240,940"/>
<polygon id="0x18a6330" class="l126d0" points="880,900 960,900 960,940 880,940"/>
<polygon id="0x18a63f0" class="l126d0" points="1200,900 1360,900 1360,940 1200,940"/>
<polygon id="0x18a64b0" class="l126d0" points="1520,900 1600,900 1600,940 1520,940"/>
<polygon id="0x18a6570" class="l126d0" points="0,980 400,980 400,1020 0,1020"/>
<polygon id="0x18a6630" class="l126d0" points="480,980 560,980 560,1020 480,1020"/>
<polygon id="0x18a66f0" class="l126d0" points="640,980 880,980 880,1020 640,1020"/>
<polygon id="0x18a67b0" class="l126d0" points="1120,980 1200,980 1200,1020 1120,1020"/>
<polygon id="0x1819c10" class="l126d0" points="1440,980 1600,980 1600,1020 1440,1020"/>
<polygon id="0x1840870" class="l126d0" points="0,1060 80,1060 80,1100 0,1100"/>
<polygon id="0x1887510" class="l126d0" points="240,1060 400,1060 400,1100 240,1100"/>
<polygon id="0x1645e30" class="l126d0" points="640,1060 1040,1060 1040,1100 640,1100"/>
<polygon id="0x1656ab0" class="l126d0" points="1120,1060 1600,1060 1600,1100 1120,1100"/>
<polygon id="0x16cc690" class="l126d0" points="0,1140 240,1140 240,1180 0,1180"/>
<polygon id="0x16c0820" class="l126d0" points="320,1140 560,1140 560,1180 320,1180"/>
<polygon id="0x1787840" class="l126d0" points="640,1140 800,1140 800,1180 640,1180"/>
<polygon id="0x178e3e0" class="l126d0" points="1040,1140 1120,1140 1120,1180 1040,1180"/>
<polygon id="0x1855e20" class="l126d0" points="1360,1140 1440,1140 1440,1180 1360,1180"/>
<polygon id="0x180af20" class="l126d0" points="20,0 60,0 60,240 20,240"/>
<polygon id="0x1652090" class="l126d0" points="20,320 60,320 60,640 20,640"/>
<polygon id="0x17d07d0" class="l126d0" points="20,800 60,800 60,960 20,960"/>
<polygon id="0x17d3240" class="l126d0" points="100,0 140,0 140,160 100,160"/>
<polygon id="0x17ebf30" class="l126d0" points="100,240 140,240 140,320 100,320"/>
<polygon id="0x1801fa0" class="l126d0" points="100,400 140,400 140,480 100,480"/>
<polygon id="0x187d9a0" class="l126d0" points="100,560 140,560 140,720 100,720"/>
<polygon id="0x16a6fb0" class="l126d0" points="100,1040 140,1040 140,1120 100,1120"/>
<polygon id="0x16f2bb0" class="l126d0" points="180,80 220,80 220,160 180,160"/>
<polygon id="0x16f2c20" class="l126d0" points="180,240 220,240 220,320 180,320"/>
<polygon id="0x1715b60" class="l126d0" points="180,560 220,560 220,640 180,640"/>
<polygon id="0x17809f0" class="l126d0" points="180,800 220,800 220,960 180,960"/>
<polygon id="0x17eb010" class="l126d0" points="180,1040 220,1040 220,1120 180,1120"/>
<polygon id="0x17eb080" class="l126d0" points="260,80 300,80 300,160 260,160"/>
<polygon id="0x1805120" class="l126d0" points="260,240 300,240 300,480 260,480"/>
<polygon id="0x1852370" class="l126d0" points="260,560 300,560 300,640 260,640"/>
<polygon id="0x18486e0" class="l126d0" points="260,1120 300,1120 300,1200 260,1200"/>
<polygon id="0x1848750" class="l126d0" points="340,0 380,0 380,160 340,160"/>
<polygon id="0x1886c70" class="l126d0" points="340,240 380,240 380,480 340,480"/>
<polygon id="0x1670cc0" class="l126d0" points="340,640 380,640 380,880 340,880"/>
<polygon id="0x1673220" class="l126d0" points="420,240 460,240 460,320 420,320"/>
<polygon id="0x1673290" class="l126d0" points="420,400 460,400 460,640 420,640"/>
<polygon id="0x16b0e90" class="l126d0" points="420,720 460,720 460,800 420,800"/>
<polygon id="0x1717460" class="l126d0" points="420,960 460,960 460,1120 420,1120"/>
<polygon id="0x16f0b50" class="l126d0" points="500,240 540,240 540,400 500,400"/>
<polygon id="0x17bffe0" class="l126d0" points="500,480 540,480 540,720 500,720"/>
<polygon id="0x1832e80" class="l126d0" points="500,800 540,800 540,880 500,880"/>
<polygon id="0x17f21f0" class="l126d0" points="500,1040 540,1040 540,1120 500,1120"/>
<polygon id="0x1860650" class="l126d0" points="580,0 620,0 620,240 580,240"/>
<polygon id="0x18769d0" class="l126d0" points="580,400 620,400 620,640 580,640"/>
<polygon id="0x1659a20" class="l126d0" points="580,720 620,720 620,800 580,800"/>
<polygon id="0x1659ae0" class="l126d0" points="580,960 620,960 620,1200 580,1200"/>
<polygon id="0x167dde0" class="l126d0" points="660,80 700,80 700,240 660,240"/>
<polygon id="0x167dea0" class="l126d0" points="660,320 700,320 700,400 660,400"/>
<polygon id="0x170eef0" class="l126d0" points="660,560 700,560 700,640 660,640"/>
<polygon id="0x170efb0" class="l126d0" points="660,720 700,720 700,960 660,960"/>
<polygon id="0x1674960" class="l126d0" points="740,80 780,80 780,400 740,400"/>
<polygon id="0x1674a20" class="l126d0" points="740,480 780,480 780,640 740,640"/>
<polygon id="0x17cf360" class="l126d0" points="740,880 780,880 780,960 740,960"/>
<polygon id="0x17cf420" class="l126d0" points="820,160 860,160 860,320 820,320"/>
<polygon id="0x1577eb0" class="l126d0" points="820,720 860,720 860,960 820,960"/>
<polygon id="0x1577f70" class="l126d0" points="820,1120 860,1120 860,1200 820,1200"/>
<polygon id="0x18138b0" class="l126d0" points="900,0 940,0 940,80 900,80"/>
<polygon id="0x1813970" class="l126d0" points="900,240 940,240 940,480 900,480"/>
<polygon id="0x18177c0" class="l126d0" points="900,560 940,560 940,880 900,880"/>
<polygon id="0x1817880" class="l126d0" points="900,960 940,960 940,1040 900,1040"/>
<polygon id="0x1622790" class="l126d0" points="900,1120 940,1120 940,1200 900,1200"/>
<polygon id="0x1644210" class="l126d0" points="980,160 1020,160 1020,320 980,320"/>
<polygon id="0x1644280" class="l126d0" points="980,400 1020,400 1020,560 980,560"/>
<polygon id="0x164e270" class="l126d0" points="980,800 1020,800 1020,1040 980,1040"/>
<polygon id="0x164e330" class="l126d0" points="980,1120 1020,1120 1020,1200 980,1200"/>
<polygon id="0x1686d10" class="l126d0" points="1060,160 1100,160 1100,320 1060,320"/>
<polygon id="0x16a2040" class="l126d0" points="1060,480 1100,480 1100,560 1060,560"/>
<polygon id="0x16a20b0" class="l126d0" points="1060,880 1100,880 1100,1120 1060,1120"/>
<polygon id="0x1789850" class="l126d0" points="1140,0 1180,0 1180,80 1140,80"/>
<polygon id="0x1789910" class="l126d0" points="1140,160 1180,160 1180,240 1140,240"/>
<polygon id="0x179f410" class="l126d0" points="1140,720 1180,720 1180,960 1140,960"/>
<polygon id="0x1850f40" class="l126d0" points="1140,1120 1180,1120 1180,1200 1140,1200"/>
<polygon id="0x1850fb0" class="l126d0" points="1220,0 1260,0 1260,160 1220,160"/>
<polygon id="0x18495c0" class="l126d0" points="1220,240 1260,240 1260,320 1220,320"/>
<polygon id="0x1849680" class="l126d0" points="1220,560 1260,560 1260,800 1220,800"/>
<polygon id="0x1643290" class="l126d0" points="1220,960 1260,960 1260,1040 1220,1040"/>
<polygon id="0x16a8820" class="l126d0" points="1220,1120 1260,1120 1260,1200 1220,1200"/>
<polygon id="0x16a88e0" class="l126d0" points="1300,320 1340,320 1340,400 1300,400"/>
<polygon id="0x1634740" class="l126d0" points="1300,640 1340,640 1340,880 1300,880"/>
<polygon id="0x1634800" class="l126d0" points="1300,960 1340,960 1340,1040 1300,1040"/>
<polygon id="0x1718e20" class="l126d0" points="1300,1120 1340,1120 1340,1200 1300,1200"/>
<polygon id="0x1711860" class="l126d0" points="1380,0 1420,0 1420,80 1380,80"/>
<polygon id="0x1711920" class="l126d0" points="1380,240 1420,240 1420,480 1380,480"/>
<polygon id="0x177ee20" class="l126d0" points="1380,560 1420,560 1420,720 1380,720"/>
<polygon id="0x177eee0" class="l126d0" points="1380,880 1420,880 1420,1040 1380,1040"/>
<polygon id="0x178d3f0" class="l126d0" points="1460,0 1500,0 1500,80 1460,80"/>
<polygon id="0x167fc10" class="l126d0" points="1460,400 1500,400 1500,560 1460,560"/>
<polygon id="0x167fcd0" class="l126d0" points="1460,800 1500,800 1500,960 1460,960"/>
<polygon id="0x16c9890" class="l126d0" points="1460,1120 1500,1120 1500,1200 1460,1200"/>
<polygon id="0x16c9950" class="l126d0" points="1540,0 1580,0 1580,80 1540,80"/>
<polygon id="0x1707580" class="l126d0" points="1540,320 1580,320 1580,400 1540,400"/>
<polygon id="0x1707640" class="l126d0" points="1540,480 1580,480 1580,640 1540,640"/>
<polygon id="0x17162b0" class="l126d0" points="1540,1120 1580,1120 1580,1200 1540,1200"/>
<polygon id="0x1716370" class="l189d4" points="0,0 300,0 300,300 0,300"/>
<polygon id="0x16ef7d0" class="l8d0" points="30,30 50,30 50,50 30,50"/>
<polygon id="0x16ef890" class="l8d0" points="30,110 50,110 50,130 30,130"/>
<polygon id="0x175c790" class="l8d0" points="30,190 50,190 50,210 30,210"/>
<polygon id="0x175c850" class="l8d0" points="30,270 50,270 50,290 30,290"/>
<polygon id="0x184e4b0" class="l8d0" points="30,350 50,350 50,370 30,370"/>
<polygon id="0x184e570" class="l8d0" points="30,430 50,430 50,450 30,450"/>
<polygon id="0x187df30" class="l8d0" points="30,510 50,510 50,530 30,530"/>
<polygon id="0x187dff0" class="l8d0" points="30,590 50,590 50,610 30,610"/>
<polygon id="0x1883df0" class="l8d0" points="30,670 50,670 50,690 30,690"/>
<polygon id="0x1883eb0" class="l8d0" points="30,750 50,750 50,770 30,770"/>
<polygon id="0x1682fe0" class="l8d0" points="30,830 50,830 50,850 30,850"/>
<polygon id="0x16830a0" class="l8d0" points="30,910 50,910 50,930 30,930"/>
<polygon id="0x166f9f0" class="l8d0" points="30,990 50,990 50,1010 30,1010"/>
<polygon id="0x166fab0" class="l8d0" points="30,1070 50,1070 50,1090 30,1090"/>
<polygon id="0x16ca120" class="l8d0" points="30,1150 50,1150 50,1170 30,1170"/>
<polygon id="0x16ca1e0" class="l8d0" points="110,30 130,30 130,50 110,50"/>
<polygon id="0x17d7b60" class="l8d0" points="110,110 130,110 130,130 110,130"/>
<polygon id="0x17d7c20" class="l8d0" points="110,190 130,190 130,210 110,210"/>
<polygon id="0x16813b0" class="l8d0" points="110,270 130,270 130,290 110,290"/>
<polygon id="0x1681470" class="l8d0" points="110,350 130,350 130,370 110,370"/>
<polygon id="0x16814e0" class="l8d0" points="110,430 130,430 130,450 110,450"/>
<polygon id="0x16db280" class="l8d0" points="110,510 130,510 130,530 110,530"/>
<polygon id="0x16db340" class="l8d0" points="110,590 130,590 130,610 110,610"/>
<polygon id="0x16d1ad0" class="l8d0" points="110,670 130,670 130,690 110,690"/>
<polygon id="0x16d1b90" class="l8d0" points="110,750 130,750 130,770 110,770"/>
<polygon id="0x17962d0" class="l8d0" points="110,830 130,830 130,850 110,850"/>
<polygon id="0x1796390" class="l8d0" points="110,910 130,910 130,930 110,930"/>
<polygon id="0x185f040" class="l8d0" points="110,990 130,990 130,1010 110,1010"/>
<polygon id="0x185f100" class="l8d0" points="110,1070 130,1070 130,1090 110,1090"/>
<polygon id="0x1874800" class="l8d0" points="110,1150 130,1150 130,1170 110,1170"/>
<polygon id="0x18748c0" class="l8d0" points="190,30 210,30 210,50 190,50"/>
<polygon id="0x15e2e90" class="l8d0" points="190,110 210,110 210,130 190,130"/>
<polygon id="0x15e2f50" class="l8d0" points="190,190 210,190 210,210 190,210"/>
<polygon id="0x166dd50" class="l8d0" points="190,270 210,270 210,290 190,290"/>
<polygon id="0x166de10" class="l8d0" points="190,350 210,350 210,370 190,370"/>
<polygon id="0x167d540" class="l8d0" points="190,430 210,430 210,450 190,450"/>
<polygon id="0x167d600" class="l8d0" points="190,510 210,510 210,530 190,530"/>
<polygon id="0x1698830" class="l8d0" points="190,590 210,590 210,610 190,610"/>
<polygon id="0x16988f0" class="l8d0" points="190,670 210,670 210,690 190,690"/>
<polygon id="0x16c2ee0" class="l8d0" points="190,750 210,750 210,770 190,770"/>
<polygon id="0x16c2fa0" class="l8d0" points="190,830 210,830 210,850 190,850"/>
<polygon id="0x1756fa0" class="l8d0" points="190,910 210,910 210,930 190,930"/>
<polygon id="0x1757060" class="l8d0" points="190,990 210,990 210,1010 190,1010"/>
<polygon id="0x17c8d00" class="l8d0" points="190,1070 210,1070 210,1090 190,1090"/>
<polygon id="0x17c8dc0" class="l8d0" points="190,1150 210,1150 210,1170 190,1170"/>
<polygon id="0x1541910" class="l8d0" points="270,30 290,30 290,50 270,50"/>
<polygon id="0x15419d0" class="l8d0" points="270,110 290,110 290,130 270,130"/>
<polygon id="0x16426f0" class="l8d0" points="270,190 290,190 290,210 270,210"/>
<polygon id="0x16427b0" class="l8d0" points="270,270 290,270 290,290 270,290"/>
<polygon id="0x175ef30" class="l8d0" points="270,350 290,350 290,370 270,370"/>
<polygon id="0x175eff0" class="l8d0" points="270,430 290,430 290,450 270,450"/>
<polygon id="0x17b1c80" class="l8d0" points="270,510 290,510 290,530 270,530"/>
<polygon id="0x17b1d40" class="l8d0" points="270,590 290,590 290,610 270,610"/>
<polygon id="0x17d84b0" class="l8d0" points="270,670 290,670 290,690 270,690"/>
<polygon id="0x17d8570" class="l8d0" points="270,750 290,750 290,770 270,770"/>
<polygon id="0x18621e0" class="l8d0" points="270,830 290,830 290,850 270,850"/>
<polygon id="0x18622a0" class="l8d0" points="270,910 290,910 290,930 270,930"/>
<polygon id="0x1709700" class="l8d0" points="270,990 290,990 290,1010 270,1010"/>
<polygon id="0x17097c0" class="l8d0" points="270,1070 290,1070 290,1090 270,1090"/>
<polygon id="0x17e1f60" class="l8d0" points="270,1150 290,1150 290,1170 270,1170"/>
<polygon id="0x17e2020" class="l8d0" points="350,30 370,30 370,50 350,50"/>
<polygon id="0x17fa9c0" class="l8d0" points="350,110 370,110 370,130 350,130"/>
<polygon id="0x17faa30" class="l8d0" points="350,190 370,190 370,210 350,210"/>
<polygon id="0x17faaf0" class="l8d0" points="350,270 370,270 370,290 350,290"/>
<polygon id="0x183df50" class="l8d0" points="350,350 370,350 370,370 350,370"/>
<polygon id="0x183e010" class="l8d0" points="350,430 370,430 370,450 350,450"/>
<polygon id="0x1725320" class="l8d0" points="350,510 370,510 370,530 350,530"/>
<polygon id="0x17253e0" class="l8d0" points="350,590 370,590 370,610 350,610"/>
<polygon id="0x178b120" class="l8d0" points="350,670 370,670 370,690 350,690"/>
<polygon id="0x178b1e0" class="l8d0" points="350,750 370,750 370,770 350,770"/>
<polygon id="0x17f28e0" class="l8d0" points="350,830 370,830 370,850 350,850"/>
<polygon id="0x17f29a0" class="l8d0" points="350,910 370,910 370,930 350,930"/>
<polygon id="0x17fa480" class="l8d0" points="350,990 370,990 370,1010 350,1010"/>
<polygon id="0x17fa540" class="l8d0" points="350,1070 370,1070 370,1090 350,1090"/>
<polygon id="0x1862890" class="l8d0" points="350,1150 370,1150 370,1170 350,1170"/>
<polygon id="0x1862950" class="l8d0" points="430,30 450,30 450,50 430,50"/>
<polygon id="0x15e4040" class="l8d0" points="430,110 450,110 450,130 430,130"/>
<polygon id="0x15e4100" class="l8d0" points="430,190 450,190 450,210 430,210"/>
<polygon id="0x1685af0" class="l8d0" points="430,270 450,270 450,290 430,290"/>
<polygon id="0x1685bb0" class="l8d0" points="430,350 450,350 450,370 430,370"/>
<polygon id="0x1685c70" class="l8d0" points="430,430 450,430 450,450 430,450"/>
<polygon id="0x16885c0" class="l8d0" points="430,510 450,510 450,530 430,530"/>
<polygon id="0x1688680" class="l8d0" points="430,590 450,590 450,610 430,610"/>
<polygon id="0x1688740" class="l8d0" points="430,670 450,670 450,690 430,690"/>
<polygon id="0x16da130" class="l8d0" points="430,750 450,750 450,770 430,770"/>
<polygon id="0x16da1f0" class="l8d0" points="430,830 450,830 450,850 430,850"/>
<polygon id="0x16da2b0" class="l8d0" points="430,910 450,910 450,930 430,930"/>
<polygon id="0x16e8db0" class="l8d0" points="430,990 450,990 450,1010 430,1010"/>
<polygon id="0x16e8e70" class="l8d0" points="430,1070 450,1070 450,1090 430,1090"/>
<polygon id="0x16e8f30" class="l8d0" points="430,1150 450,1150 450,1170 430,1170"/>
<polygon id="0x170f9f0" class="l8d0" points="510,30 530,30 530,50 510,50"/>
<polygon id="0x170fab0" class="l8d0" points="510,110 530,110 530,130 510,130"/>
<polygon id="0x170fb70" class="l8d0" points="510,190 530,190 530,210 510,210"/>
<polygon id="0x179fd60" class="l8d0" points="510,270 530,270 530,290 510,290"/>
<polygon id="0x179fe20" class="l8d0" points="510,350 530,350 530,370 510,370"/>
<polygon id="0x179fee0" class="l8d0" points="510,430 530,430 530,450 510,450"/>
<polygon id="0x180e830" class="l8d0" points="510,510 530,510 530,530 510,530"/>
<polygon id="0x180e8f0" class="l8d0" points="510,590 530,590 530,610 510,610"/>
<polygon id="0x180e9b0" class="l8d0" points="510,670 530,670 530,690 510,690"/>
<polygon id="0x16f6290" class="l8d0" points="510,750 530,750 530,770 510,770"/>
<polygon id="0x16f6350" class="l8d0" points="510,830 530,830 530,850 510,850"/>
<polygon id="0x160eca0" class="l8d0" points="510,910 530,910 530,930 510,930"/>
<polygon id="0x160ed60" class="l8d0" points="510,990 530,990 530,1010 510,1010"/>
<polygon id="0x160ee20" class="l8d0" points="510,1070 530,1070 530,1090 510,1090"/>
<polygon id="0x1836df0" class="l8d0" points="510,1150 530,1150 530,1170 510,1170"/>
<polygon id="0x1836eb0" class="l8d0" points="590,30 610,30 610,50 590,50"/>
<polygon id="0x17ef730" class="l8d0" points="590,110 610,110 610,130 590,130"/>
<polygon id="0x17ef7f0" class="l8d0" points="590,190 610,190 610,210 590,210"/>
<polygon id="0x17ef8b0" class="l8d0" points="590,270 610,270 610,290 590,290"/>
<polygon id="0x18550c0" class="l8d0" points="590,350 610,350 610,370 590,370"/>
<polygon id="0x1855180" class="l8d0" points="590,430 610,430 610,450 590,450"/>
<polygon id="0x18a7880" class="l8d0" points="590,510 610,510 610,530 590,530"/>
<polygon id="0x18a7940" class="l8d0" points="590,590 610,590 610,610 590,610"/>
<polygon id="0x18a7a00" class="l8d0" points="590,670 610,670 610,690 590,690"/>
<polygon id="0x18a7ac0" class="l8d0" points="590,750 610,750 610,770 590,770"/>
<polygon id="0x18a7b80" class="l8d0" points="590,830 610,830 610,850 590,850"/>
<polygon id="0x18a7c40" class="l8d0" points="590,910 610,910 610,930 590,930"/>
<polygon id="0x18a7d00" class="l8d0" points="590,990 610,990 610,1010 590,1010"/>
<polygon id="0x18a7dc0" class="l8d0" points="590,1070 610,1070 610,1090 590,1090"/>
<polygon id="0x18a7e80" class="l8d0" points="590,1150 610,1150 610,1170 590,1170"/>
<polygon id="0x18a7f40" class="l8d0" points="670,30 690,30 690,50 670,50"/>
<polygon id="0x18a8000" class="l8d0" points="670,110 690,110 690,130 670,130"/>
<polygon id="0x18a80c0" class="l8d0" points="670,190 690,190 690,210 670,210"/>
<polygon id="0x18a8180" class="l8d0" points="670,270 690,270 690,290 670,290"/>
<polygon id="0x18a8240" class="l8d0" points="670,350 690,350 690,370 670,370"/>
<polygon id="0x18a8300" class="l8d0" points="670,430 690,430 690,450 670,450"/>
<polygon id="0x18a83c0" class="l8d0" points="670,510 690,510 690,530 670,530"/>
<polygon id="0x18a8480" class="l8d0" points="670,590 690,590 690,610 670,610"/>
<polygon id="0x18a8540" class="l8d0" points="670,670 690,670 690,690 670,690"/>
<polygon id="0x18a8600" class="l8d0" points="670,750 690,750 690,770 670,770"/>
<polygon id="0x18a86c0" class="l8d0" points="670,830 690,830 690,850 670,850"/>
<polygon id="0x18a8780" class="l8d0" points="670,910 690,910 690,930 670,930"/>
<polygon id="0x18a8840" class="l8d0" points="670,990 690,990 690,1010 670,1010"/>
<polygon id="0x18a8900" class="l8d0" points="670,1070 690,1070 690,1090 670,1090"/>
<polygon id="0x18a89c0" class="l8d0" points="670,1150 690,1150 690,1170 670,1170"/>
<polygon id="0x18a8a80" class="l8d0" points="750,30 770,30 770,50 750,50"/>
<polygon id="0x18a8b40" class="l8d0" points="750,110 770,110 770,130 750,130"/>
<polygon id="0x18a8c00" class="l8d0" points="750,190 770,190 770,210 750,210"/>
<polygon id="0x18a8cc0" class="l8d0" points="750,270 770,270 770,290 750,290"/>
<polygon id="0x18a8d80" class="l8d0" points="750,350 770,350 770,370 750,370"/>
<polygon id="0x18a8e40" class="l8d0" points="750,430 770,430 770,450 750,450"/>
<polygon id="0x18a8f00" class="l8d0" points="750,510 770,510 770,530 750,530"/>
<polygon id="0x18a8fc0" class="l8d0" points="750,590 770,590 770,610 750,610"/>
<polygon id="0x18a9080" class="l8d0" points="750,670 770,670 770,690 750,690"/>
<polygon id="0x18a9140" class="l8d0" points="750,750 770,750 770,770 750,770"/>
<polygon id="0x18a9200" class="l8d0" points="750,830 770,830 770,850 750,850"/>
<polygon id="0x18a92c0" class="l8d0" points="750,910 770,910 770,930 750,930"/>
<polygon id="0x18a9380" class="l8d0" points="750,990 770,990 770,1010 750,1010"/>
<polygon id="0x18a9440" class="l8d0" points="750,1070 770,1070 770,1090 750,1090"/>
<polygon id="0x18a9500" class="l8d0" points="750,1150 770,1150 770,1170 750,1170"/>
<polygon id="0x18a95c0" class="l8d0" points="830,30 850,30 850,50 830,50"/>
<polygon id="0x18a9680" class="l8d0" points="830,110 850,110 850,130 830,130"/>
<polygon id="0x18a9740" class="l8d0" points="830,190 850,190 850,210 830,210"/>
<polygon id="0x18a9800" class="l8d0" points="830,270 850,270 850,290 830,290"/>
<polygon id="0x18a98c0" class="l8d0" points="830,350 850,350 850,370 830,370"/>
<polygon id="0x18a9980" class="l8d0" points="830,430 850,430 850,450 830,450"/>
<polygon id="0x18a9a40" class="l8d0" points="830,510 850,510 850,530 830,530"/>
<polygon id="0x18a9b00" class="l8d0" points="830,590 850,590 850,610 830,610"/>
<polygon id="0x18a9bc0" class="l8d0" points="830,670 850,670 850,690 830,690"/>
<polygon id="0x18a9c80" class="l8d0" points="830,750 850,750 850,770 830,770"/>
<polygon id="0x18a9d40" class="l8d0" points="830,830 850,830 850,850 830,850"/>
<polygon id="0x18a9e00" class="l8d0" points="830,910 850,910 850,930 830,930"/>
<polygon id="0x18a9ec0" class="l8d0" points="830,990 850,990 850,1010 830,1010"/>
<polygon id="0x18a9f80" class="l8d0" points="830,1070 850,1070 850,1090 830,1090"/>
<polygon id="0x18aa040" class="l8d0" points="830,1150 850,1150 850,1170 830,1170"/>
<polygon id="0x18aa100" class="l8d0" points="910,30 930,30 930,50 910,50"/>
<polygon id="0x18aa1c0" class="l8d0" points="910,110 930,110 930,130 910,130"/>
<polygon id="0x18aa280" class="l8d0" points="910,190 930,190 930,210 910,210"/>
<polygon id="0x18aa340" class="l8d0" points="910,270 930,270 930,290 910,290"/>
<polygon id="0x18aa400" class="l8d0" points="910,350 930,350 930,370 910,370"/>
<polygon id="0x18aa4c0" class="l8d0" points="910,430 930,430 930,450 910,450"/>
<polygon id="0x18aa580" class="l8d0" points="910,510 930,510 930,530 910,530"/>
<polygon id="0x18aa640" class="l8d0" points="910,590 930,590 930,610 910,610"/>
<polygon id="0x18aa700" class="l8d0" points="910,670 930,670 930,690 910,690"/>
<polygon id="0x18aa7c0" class="l8d0" points="910,750 930,750 930,770 910,770"/>
<polygon id="0x18aa880" class="l8d0" points="910,830 930,830 930,850 910,850"/>
<polygon id="0x18aa940" class="l8d0" points="910,910 930,910 930,930 910,930"/>
<polygon id="0x18aaa00" class="l8d0" points="910,990 930,990 930,1010 910,1010"/>
<polygon id="0x18aaac0" class="l8d0" points="910,1070 930,1070 930,1090 910,1090"/>
<polygon id="0x18aab80" class="l8d0" points="910,1150 930,1150 930,1170 910,1170"/>
<polygon id="0x18aac40" class="l8d0" points="990,30 1010,30 1010,50 990,50"/>
<polygon id="0x18aad00" class="l8d0" points="990,110 1010,110 1010,130 990,130"/>
<polygon id="0x18aadc0" class="l8d0" points="990,190 1010,190 1010,210 990,210"/>
<polygon id="0x18aae80" class="l8d0" points="990,270 1010,270 1010,290 990,290"/>
<polygon id="0x18aaf40" class="l8d0" points="990,350 1010,350 1010,370 990,370"/>
<polygon id="0x18ab000" class="l8d0" points="990,430 1010,430 1010,450 990,450"/>
<polygon id="0x18ab0c0" class="l8d0" points="990,510 1010,510 1010,530 990,530"/>
<polygon id="0x18ab180" class="l8d0" points="990,590 1010,590 1010,610 990,610"/>
<polygon id="0x18ab240" class="l8d0" points="990,670 1010,670 1010,690 990,690"/>
<polygon id="0x18ab300" class="l8d0" points="990,750 1010,750 1010,770 990,770"/>
<polygon id="0x18ab3c0" class="l8d0" points="990,830 1010,830 1010,850 990,850"/>
<polygon id="0x18ab480" class="l8d0" points="990,910 1010,910 1010,930 990,930"/>
<polygon id="0x18ab540" class="l8d0" points="990,990 1010,990 1010,1010 990,1010"/>
<polygon id="0x18ab600" class="l8d0" points="990,1070 1010,1070 1010,1090 990,1090"/>
<polygon id="0x18ab6c0" class="l8d0" points="990,1150 1010,1150 1010,1170 990,1170"/>
<polygon id="0x18ab780" class="l8d0" points="1070,30 1090,30 1090,50 1070,50"/>
<polygon id="0x18ab840" class="l8d0" points="1070,110 1090,110 1090,130 1070,130"/>
<polygon id="0x18ab900" class="l8d0" points="1070,190 1090,190 1090,210 1070,210"/>
<polygon id="0x18ab9c0" class="l8d0" points="1070,270 1090,270 1090,290 1070,290"/>
<polygon id="0x18aba80" class="l8d0" points="1070,350 1090,350 1090,370 1070,370"/>
<polygon id="0x18abb40" class="l8d0" points="1070,430 1090,430 1090,450 1070,450"/>
<polygon id="0x18abc00" class="l8d0" points="1070,510 1090,510 1090,530 1070,530"/>
<polygon id="0x18abcc0" class="l8d0" points="1070,590 1090,590 1090,610 1070,610"/>
<polygon id="0x18abd80" class="l8d0" points="1070,670 1090,670 1090,690 1070,690"/>
<polygon id="0x18abe40" class="l8d0" points="1070,750 1090,750 1090,770 1070,770"/>
<polygon id="0x18abf00" class="l8d0" points="1070,830 1090,830 1090,850 1070,850"/>
<polygon id="0x18abfc0" class="l8d0" points="1070,910 1090,910 1090,930 1070,930"/>
<polygon id="0x18ac080" class="l8d0" points="1070,990 1090,990 1090,1010 1070,1010"/>
<polygon id="0x18aea10" class="l8d0" points="1070,1070 1090,1070 1090,1090 1070,1090"/>
<polygon id="0x18aead0" class="l8d0" points="1070,1150 1090,1150 1090,1170 1070,1170"/>
<polygon id="0x18aeb90" class="l8d0" points="1150,30 1170,30 1170,50 1150,50"/>
<polygon id="0x18aec50" class="l8d0" points="1150,110 1170,110 1170,130 1150,130"/>
<polygon id="0x18aed10" class="l8d0" points="1150,190 1170,190 1170,210 1150,210"/>
<polygon id="0x18aedd0" class="l8d0" points="1150,270 1170,270 1170,290 1150,290"/>
<polygon id="0x18aee90" class="l8d0" points="1150,350 1170,350 1170,370 1150,370"/>
<polygon id="0x18aef50" class="l8d0" points="1150,430 1170,430 1170,450 1150,450"/>
<polygon id="0x18af010" class="l8d0" points="1150,510 1170,510 1170,530 1150,530"/>
<polygon id="0x18af0d0" class="l8d0" points="1150,590 1170,590 1170,610 1150,610"/>
<polygon id="0x18af190" class="l8d0" points="1150,670 1170,670 1170,690 1150,690"/>
<polygon id="0x18af250" class="l8d0" points="1150,750 1170,750 1170,770 1150,770"/>
<polygon id="0x18af310" class="l8d0" points="1150,830 1170,830 1170,850 1150,850"/>
<polygon id="0x18af3d0" class="l8d0" points="1150,910 1170,910 1170,930 1150,930"/>
<polygon id="0x18af490" class="l8d0" points="1150,990 1170,990 1170,1010 1150,1010"/>
<polygon id="0x18af550" class="l8d0" points="1150,1070 1170,1070 1170,1090 1150,1090"/>
<polygon id="0x18af610" class="l8d0" points="1150,1150 1170,1150 1170,1170 1150,1170"/>
<polygon id="0x18af6d0" class="l8d0" points="1230,30 1250,30 1250,50 1230,50"/>
<polygon id="0x18af790" class="l8d0" points="1230,110 1250,110 1250,130 1230,130"/>
<polygon id="0x18af850" class="l8d0" points="1230,190 1250,190 1250,210 1230,210"/>
<polygon id="0x18af910" class="l8d0" points="1230,270 1250,270 1250,290 1230,290"/>
<polygon id="0x18af9d0" class="l8d0" points="1230,350 1250,350 1250,370 1230,370"/>
<polygon id="0x18afa90" class="l8d0" points="1230,430 1250,430 1250,450 1230,450"/>
<polygon id="0x18afb50" class="l8d0" points="1230,510 1250,510 1250,530 1230,530"/>
<polygon id="0x18afc10" class="l8d0" points="1230,590 1250,590 1250,610 1230,610"/>
<polygon id="0x18afcd0" class="l8d0" points="1230,670 1250,670 1250,690 1230,690"/>
<polygon id="0x18afd90" class="l8d0" points="1230,750 1250,750 1250,770 1230,770"/>
<polygon id="0x18afe50" class="l8d0" points="1230,830 1250,830 1250,850 1230,850"/>
<polygon id="0x18aff10" class="l8d0" points="1230,910 1250,910 1250,930 1230,930"/>
<polygon id="0x18affd0" class="l8d0" points="1230,990 1250,990 1250,1010 1230,1010"/>
<polygon id="0x18b0090" class="l8d0" points="1230,1070 1250,1070 1250,1090 1230,1090"/>
<polygon id="0x18b0150" class="l8d0" points="1230,1150 1250,1150 1250,1170 1230,1170"/>
<polygon id="0x18b0210" class="l8d0" points="1310,30 1330,30 1330,50 1310,50"/>
<polygon id="0x18b02d0" class="l8d0" points="1310,110 1330,110 1330,130 1310,130"/>
<polygon id="0x18b0390" class="l8d0" points="1310,190 1330,190 1330,210 1310,210"/>
<polygon id="0x18b0450" class="l8d0" points="1310,270 1330,270 1330,290 1310,290"/>
<polygon id="0x18b0510" class="l8d0" points="1310,350 1330,350 1330,370 1310,370"/>
<polygon id="0x18b05d0" class="l8d0" points="1310,430 1330,430 1330,450 1310,450"/>
<polygon id="0x18b0690" class="l8d0" points="1310,510 1330,510 1330,530 1310,530"/>
<polygon id="0x18b0750" class="l8d0" points="1310,590 1330,590 1330,610 1310,610"/>
<polygon id="0x18b0810" class="l8d0" points="1310,670 1330,670 1330,690 1310,690"/>
<polygon id="0x18b08d0" class="l8d0" points="1310,750 1330,750 1330,770 1310,770"/>
<polygon id="0x18b0990" class="l8d0" points="1310,830 1330,830 1330,850 1310,850"/>
<polygon id="0x18b0a50" class="l8d0" points="1310,910 1330,910 1330,930 1310,930"/>
<polygon id="0x18b0b10" class="l8d0" points="1310,990 1330,990 1330,1010 1310,1010"/>
<polygon id="0x18b0bd0" class="l8d0" points="1310,1070 1330,1070 1330,1090 1310,1090"/>
<polygon id="0x18b0c90" class="l8d0" points="1310,1150 1330,1150 1330,1170 1310,1170"/>
<polygon id="0x18b0d50" class="l8d0" points="1390,30 1410,30 1410,50 1390,50"/>
<polygon id="0x18b0e10" class="l8d0" points="1390,110 1410,110 1410,130 1390,130"/>
<polygon id="0x18b0ed0" class="l8d0" points="1390,190 1410,190 1410,210 1390,210"/>
<polygon id="0x18b0f90" class="l8d0" points="1390,270 1410,270 1410,290 1390,290"/>
<polygon id="0x18b1050" class="l8d0" points="1390,350 1410,350 1410,370 1390,370"/>
<polygon id="0x18b1110" class="l8d0" points="1390,430 1410,430 1410,450 1390,450"/>
<polygon id="0x18b11d0" class="l8d0" points="1390,510 1410,510 1410,530 1390,530"/>
<polygon id="0x18b1290" class="l8d0" points="1390,590 1410,590 1410,610 1390,610"/>
<polygon id="0x18b1350" class="l8d0" points="1390,670 1410,670 1410,690 1390,690"/>
<polygon id="0x18b1410" class="l8d0" points="1390,750 1410,750 1410,770 1390,770"/>
<polygon id="0x18b14d0" class="l8d0" points="1390,830 1410,830 1410,850 1390,850"/>
<polygon id="0x18b1590" class="l8d0" points="1390,910 1410,910 1410,930 1390,930"/>
<polygon id="0x18b1650" class="l8d0" points="1390,990 1410,990 1410,1010 1390,1010"/>
<polygon id="0x18b1710" class="l8d0" points="1390,1070 1410,1070 1410,1090 1390,1090"/>
<polygon id="0x18b17d0" class="l8d0" points="1390,1150 1410,1150 1410,1170 1390,1170"/>
<polygon id="0x18b1890" class="l8d0" points="1470,30 1490,30 1490,50 1470,50"/>
<polygon id="0x18b1950" class="l8d0" points="1470,110 1490,110 1490,130 1470,130"/>
<polygon id="0x18b1a10" class="l8d0" points="1470,190 1490,190 1490,210 1470,210"/>
<polygon id="0x18b1ad0" class="l8d0" points="1470,270 1490,270 1490,290 1470,290"/>
<polygon id="0x18b1b90" class="l8d0" points="1470,350 1490,350 1490,370 1470,370"/>
<polygon id="0x18b1c50" class="l8d0" points="1470,430 1490,430 1490,450 1470,450"/>
<polygon id="0x18b1d10" class="l8d0" points="1470,510 1490,510 1490,530 1470,530"/>
<polygon id="0x18b1dd0" class="l8d0" points="1470,590 1490,590 1490,610 1470,610"/>
<polygon id="0x18b1e90" class="l8d0" points="1470,670 1490,670 1490,690 1470,690"/>
<polygon id="0x18b1f50" class="l8d0" points="1470,750 1490,750 1490,770 1470,770"/>
<polygon id="0x18b2010" class="l8d0" points="1470,830 1490,830 1490,850 1470,850"/>
<polygon id="0x18b20d0" class="l8d0" points="1470,910 1490,910 1490,930 1470,930"/>
<polygon id="0x18b2190" class="l8d0" points="1470,990 1490,990 1490,1010 1470,1010"/>
<polygon id="0x18b2250" class="l8d0" points="1470,1070 1490,1070 1490,1090 1470,1090"/>
<polygon id="0x18b2310" class="l8d0" points="1470,1150 1490,1150 1490,1170 1470,1170"/>
<polygon id="0x18b23d0" class="l8d0" points="1550,30 1570,30 1570,50 1550,50"/>
<polygon id="0x18b2490" class="l8d0" points="1550,110 1570,110 1570,130 1550,130"/>
<polygon id="0x18b2550" class="l8d0" points="1550,190 1570,190 1570,210 1550,210"/>
<polygon id="0x18b2610" class="l8d0" points="1550,270 1570,270 1570,290 1550,290"/>
<polygon id="0x18b26d0" class="l8d0" points="1550,350 1570,350 1570,370 1550,370"/>
<polygon id="0x18b2790" class="l8d0" points="1550,430 1570,430 1570,450 1550,450"/>
<polygon id="0x18b2850" class="l8d0" points="1550,510 1570,510 1570,530 1550,530"/>
<polygon id="0x18b2910" class="l8d0" points="1550,590 1570,590 1570,610 1550,610"/>
<polygon id="0x18b29d0" class="l8d0" points="1550,670 1570,670 1570,690 1550,690"/>
<polygon id="0x18b2a90" class="l8d0" points="1550,750 1570,750 1570,770 1550,770"/>
<polygon id="0x18b2b50" class="l8d0" points="1550,830 1570,830 1570,850 1550,850"/>
<polygon id="0x18b2c10" class="l8d0" points="1550,910 1570,910 1570,930 1550,930"/>
<polygon id="0x18b2cd0" class="l8d0" points="1550,990 1570,990 1570,1010 1550,1010"/>
<polygon id="0x18b2d90" class="l8d0" points="1550,1070 1570,1070 1570,1090 1550,1090"/>
<polygon id="0x18b2e50" class="l8d0" points="1550,1150 1570,1150 1570,1170 1550,1170"/>
<polygon id="0x18b2f10" class="l1d0" points="38,38 42,38 42,42 38,42"/>
<polygon id="0x18b2fd0" class="l1d0" points="38,278 42,278 42,282 38,282"/>
<polygon id="0x18b3090" class="l1d0" points="38,518 42,518 42,522 38,522"/>
<polygon id="0x18b3150" class="l1d0" points="38,758 42,758 42,762 38,762"/>
<polygon id="0x18b3210" class="l1d0" points="38,998 42,998 42,1002 38,1002"/>
<polygon id="0x18b32d0" class="l1d0" points="278,38 282,38 282,42 278,42"/>
<polygon id="0x18b3390" class="l1d0" points="278,278 282,278 282,282 278,282"/>
<polygon id="0x18b3450" class="l1d0" points="278,518 282,518 282,522 278,522"/>
<polygon id="0x18b3510" class="l1d0" points="278,758 282,758 282,762 278,762"/>
<polygon id="0x18b35d0" class="l1d0" points="278,998 282,998 282,1002 278,1002"/>
<polygon id="0x18b3690" class="l1d0" points="518,38 522,38 522,42 518,42"/>
<polygon id="0x18b3750" class="l1d0" points="518,278 522,278 522,282 518,282"/>
<polygon id="0x18b3810" class="l1d0" points="518,518 522,518 522,522 518,522"/>
<polygon id="0x18b38d0" class="l1d0" points="518,758 522,758 522,762 518,762"/>
<polygon id="0x18b3990" class="l1d0" points="518,998 522,998 522,1002 518,1002"/>
<polygon id="0x18b3a50" class="l1d0" points="758,38 762,38 762,42 758,42"/>
<polygon id="0x18b3b10" class="l1d0" points="758,278 762,278 762,282 758,282"/>
<polygon id="0x18b3bd0" class="l1d0" points="758,518 762,518 762,522 758,522"/>
<polygon id="0x18b3c90" class="l1d0" points="758,758 762,758 762,762 758,762"/>
<polygon id="0x18b3d50" class="l1d0" points="758,998 762,998 762,1002 758,1002"/>
<polygon id="0x18b3e10" class="l1d0" points="998,38 1002,38 1002,42 998,42"/>
<polygon id="0x18b3ed0" class="l1d0" points="998,278 1002,278 1002,282 998,282"/>
<polygon id="0x18b3f90" class="l1d0" points="998,518 1002,518 1002,522 998,522"/>
<polygon id="0x18b4050" class="l1d0" points="998,758 1002,758 1002,762 998,762"/>
<polygon id="0x18b4110" class="l1d0" points="998,998 1002,998 1002,1002 998,1002"/>
<polygon id="0x18b41d0" class="l1d0" points="1238,38 1242,38 1242,42 1238,42"/>
<polygon id="0x18b4290" class="l1d0" points="1238,278 1242,278 1242,282 1238,282"/>
<polygon id="0x18b4350" class="l1d0" points="1238,518 1242,518 1242,522 1238,522"/>
<polygon id="0x18b4410" class="l1d0" points="1238,758 1242,758 1242,762 1238,762"/>
<polygon id="0x18b44d0" class="l1d0" points="1238,998 1242,998 1242,1002 1238,1002"/>
<polygon id="0x18b4590" class="l1d0" points="1478,38 1482,38 1482,42 1478,42"/>
<polygon id="0x18b4650" class="l1d0" points="1478,278 1482,278 1482,282 1478,282"/>
<polygon id="0x18b4710" class="l1d0" points="1478,518 1482,518 1482,522 1478,522"/>
<polygon id="0x18b47d0" class="l1d0" points="1478,758 1482,758 1482,762 1478,762"/>
<polygon id="0x18b4890" class="l1d0" points="1478,998 1482,998 1482,1002 1478,1002"/>
<polygon id="0x18b4950" class="l5d0" points="40,40 40,40 40,40 40,40"/>
<polygon id="0x18b4a10" class="l5d0" points="40,360 40,360 40,360 40,360"/>
<polygon id="0x18b4ad0" class="l5d0" points="40,680 40,680 40,680 40,680"/>
<polygon id="0x18b4b90" class="l5d0" points="40,1000 40,1000 40,1000 40,1000"/>
<polygon id="0x18b4c50" class="l5d0" points="360,40 360,40 360,40 360,40"/>
<polygon id="0x18b4d10" class="l5d0" points="360,360 360,360 360,360 360,360"/>
<polygon id="0x18b4dd0" class="l5d0" points="360,680 360,680 360,680 360,680"/>
<polygon id="0x18b4e90" class="l5d0" points="360,1000 360,1000 360,1000 360,1000"/>
<polygon id="0x18b4f50" class="l5d0" points="680,40 680,40 680,40 680,40"/>
<polygon id="0x18b5010" class="l5d0" points="680,360 680,360 680,360 680,360"/>
<polygon id="0x18b50d0" class="l5d0" points="680,680 680,680 680,680 680,680"/>
<polygon id="0x18b5190" class="l5d0" points="680,1000 680,1000 680,1000 680,1000"/>
<polygon id="0x18b5250" class="l5d0" points="1000,40 1000,40 1000,40 1000,40"/>
<polygon id="0x18b5310" class="l5d0" points="1000,360 1000,360 1000,360 1000,360"/>
<polygon id="0x18b53d0" class="l5d0" points="1000,680 1000,680 1000,680 1000,680"/>
<polygon id="0x18b5490" class="l5d0" points="1000,1000 1000,1000 1000,1000 1000,1000"/>
<polygon id="0x18b5550" class="l5d0" points="1320,40 1320,40 1320,40 1320,40"/>
<polygon id="0x18b5610" class="l5d0" points="1320,360 1320,360 1320,360 1320,360"/>
<polygon id="0x18b56d0" class="l5d0" points="1320,680 1320,680 1320,680 1320,680"/>
<polygon id="0x18b5790" class="l5d0" points="1320,1000 1320,1000 1320,1000 1320,1000"/>
</g>
</svg>