<?xml version="1.0" encoding="UTF-8"?>
<svg xmlns="http://www.w3.org/2000/svg" xmlns:xlink="http://www.w3.org/1999/xlink" width="1760" height="1360" viewBox="-80 -1280 1760 1360">
<defs>
<style type="text/css">
.l126d0 {stroke: #E68FAC; fill: #E68FAC; fill-opacity: 0.5;}
.l189d4 {stroke: #A1CAF1; fill: #A1CAF1; fill-opacity: 0.5;}
.l8d0 {stroke: #F99379; fill: #F99379; fill-opacity: 0.5;}
</style>
</defs>
<rect x="-80" y="-1280" width="1760" height="1360" fill="#222222" stroke="none"/>
<g id="my_logo" transform="scale(1 -1)">
<polygon id="0x11b25b0" class="l126d0" points="80,20 240,20 240,60 80,60"/>
<polygon id="0x11b93a0" class="l126d0" points="320,20 480,20 480,60 320,60"/>
<polygon id="0x11c4160" class="l126d0" points="560,20 640,20 640,60 560,60"/>
<polygon id="0x12164f0" class="l126d0" points="720,20 880,20 880,60 720,60"/>
<polygon id="0x12efa60" class="l126d0" points="960,20 1440,20 1440,60 960,60"/>
<polygon id="0x136e9d0" class="l126d0" points="1520,20 1600,20 1600,60 1520,60"/>
<polygon id="0x13700c0" class="l126d0" points="0,100 80,100 80,140 0,140"/>
<polygon id="0x131c4c0" class="l126d0" points="160,100 560,100 560,140 160,140"/>
<polygon id="0x134f500" class="l126d0" points="720,100 800,100 800,140 720,140"/>
<polygon id="0x1337c80" class="l126d0" points="880,100 1120,100 1120,140 880,140"/>
<polygon id="0x1361440" class="l126d0" points="1280,100 1600,100 1600,140 1280,140"/>
<polygon id="0x1399e00" class="l126d0" points="0,180 320,180 320,220 0,220"/>
<polygon id="0x1201770" class="l126d0" points="400,180 480,180 480,220 400,220"/>
<polygon id="0x120b4e0" class="l126d0" points="560,180 640,180 640,220 560,220"/>
<polygon id="0x11ac8c0" class="l126d0" points="720,180 800,180 800,220 720,220"/>
<polygon id="0x127e990" class="l126d0" points="880,180 960,180 960,220 880,220"/>
<polygon id="0x12e9b90" class="l126d0" points="1040,180 1120,180 1120,220 1040,220"/>
<polygon id="0x1281370" class="l126d0" points="1440,180 1600,180 1600,220 1440,220"/>
<polygon id="0x12ee400" class="l126d0" points="0,260 320,260 320,300 0,300"/>
<polygon id="0x1340460" class="l126d0" points="400,260 560,260 560,300 400,300"/>
<polygon id="0x10ccb90" class="l126d0" points="720,260 880,260 880,300 720,300"/>
<polygon id="0x114c9d0" class="l126d0" points="1040,260 1120,260 1120,300 1040,300"/>
<polygon id="0x115fa70" class="l126d0" points="1200,260 1600,260 1600,300 1200,300"/>
<polygon id="0x116e120" class="l126d0" points="80,340 160,340 160,380 80,380"/>
<polygon id="0x10fd6d0" class="l126d0" points="240,340 320,340 320,380 240,380"/>
<polygon id="0x12cde80" class="l126d0" points="560,340 640,340 640,380 560,380"/>
<polygon id="0x12d9b30" class="l126d0" points="800,340 880,340 880,380 800,380"/>
<polygon id="0x13007a0" class="l126d0" points="960,340 1600,340 1600,380 960,380"/>
<polygon id="0x1332170" class="l126d0" points="0,420 240,420 240,460 0,460"/>
<polygon id="0x11785d0" class="l126d0" points="320,420 480,420 480,460 320,460"/>
<polygon id="0x11b2190" class="l126d0" points="560,420 880,420 880,460 560,460"/>
<polygon id="0x11d6700" class="l126d0" points="960,420 1280,420 1280,460 960,460"/>
<polygon id="0x1201250" class="l126d0" points="1360,420 1600,420 1600,460 1360,460"/>
<polygon id="0x139c200" class="l126d0" points="0,500 80,500 80,540 0,540"/>
<polygon id="0x12bc2f0" class="l126d0" points="160,500 320,500 320,540 160,540"/>
<polygon id="0x13256b0" class="l126d0" points="560,500 720,500 720,540 560,540"/>
<polygon id="0x1308400" class="l126d0" points="880,500 1200,500 1200,540 880,540"/>
<polygon id="0x1374ee0" class="l126d0" points="1440,500 1600,500 1600,540 1440,540"/>
<polygon id="0x1134880" class="l126d0" points="0,580 240,580 240,620 0,620"/>
<polygon id="0x1145500" class="l126d0" points="400,580 640,580 640,620 400,620"/>
<polygon id="0x11af0a0" class="l126d0" points="960,580 1040,580 1040,620 960,620"/>
<polygon id="0x1275e70" class="l126d0" points="1360,580 1440,580 1440,620 1360,620"/>
<polygon id="0x127ca10" class="l126d0" points="0,660 160,660 160,700 0,700"/>
<polygon id="0x1140ae0" class="l126d0" points="320,660 400,660 400,700 320,700"/>
<polygon id="0x12befc0" class="l126d0" points="560,660 640,660 640,700 560,700"/>
<polygon id="0x12c1a30" class="l126d0" points="880,660 1200,660 1200,700 880,700"/>
<polygon id="0x12daa60" class="l126d0" points="1280,660 1360,660 1360,700 1280,700"/>
<polygon id="0x126f020" class="l126d0" points="0,740 240,740 240,780 0,780"/>
<polygon id="0x12f42c0" class="l126d0" points="400,740 560,740 560,780 400,780"/>
<polygon id="0x133fa80" class="l126d0" points="880,740 1280,740 1280,780 880,780"/>
<polygon id="0x133faf0" class="l126d0" points="1360,740 1440,740 1440,780 1360,780"/>
<polygon id="0x13745f0" class="l126d0" points="1520,740 1600,740 1600,780 1520,780"/>
<polygon id="0x139ad40" class="l126d0" points="0,820 80,820 80,860 0,860"/>
<polygon id="0x115f6c0" class="l126d0" points="160,820 400,820 400,860 160,860"/>
<polygon id="0x115f730" class="l126d0" points="560,820 640,820 640,860 560,860"/>
<polygon id="0x1161c70" class="l126d0" points="720,820 880,820 880,860 720,860"/>
<polygon id="0x119d300" class="l126d0" points="1120,820 1360,820 1360,860 1120,860"/>
<polygon id="0x1205e20" class="l126d0" points="1520,820 1600,820 1600,860 1520,860"/>
<polygon id="0x11df140" class="l126d0" points="160,900 240,900 240,940 160,940"/>
<polygon id="0x12ae850" class="l126d0" points="400,900 480,900 480,940 400,940"/>
<polygon id="0x1301a30" class="l126d0" points="720,900 880,900 880,940 720,940"/>
<polygon id="0x12e0990" class="l126d0" points="1040,900 1120,900 1120,940 1040,940"/>
<polygon id="0x133c450" class="l126d0" points="1200,900 1520,900 1520,940 1200,940"/>
<polygon id="0x134d960" class="l126d0" points="240,980 320,980 320,1020 240,1020"/>
<polygon id="0x135d5f0" class="l126d0" points="400,980 720,980 720,1020 400,1020"/>
<polygon id="0x1126f80" class="l126d0" points="800,980 880,980 880,1020 800,1020"/>
<polygon id="0x1127040" class="l126d0" points="960,980 1280,980 1280,1020 960,1020"/>
<polygon id="0x1148420" class="l126d0" points="1360,980 1600,980 1600,1020 1360,1020"/>
<polygon id="0x11484e0" class="l126d0" points="320,1060 400,1060 400,1100 320,1100"/>
<polygon id="0x116c7e0" class="l126d0" points="480,1060 960,1060 960,1100 480,1100"/>
<polygon id="0x116c8a0" class="l126d0" points="1120,1060 1200,1060 1200,1100 1120,1100"/>
<polygon id="0x119dc90" class="l126d0" points="1360,1060 1440,1060 1440,1100 1360,1100"/>
<polygon id="0x119dd50" class="l126d0" points="1520,1060 1600,1060 1600,1100 1520,1100"/>
<polygon id="0x11fd8b0" class="l126d0" points="0,1140 160,1140 160,1180 0,1180"/>
<polygon id="0x11fd970" class="l126d0" points="320,1140 400,1140 400,1180 320,1180"/>
<polygon id="0x13712d0" class="l126d0" points="640,1140 1040,1140 1040,1180 640,1180"/>
<polygon id="0x1371390" class="l126d0" points="1280,1140 1360,1140 1360,1180 1280,1180"/>
<polygon id="0x1163360" class="l126d0" points="1440,1140 1600,1140 1600,1180 1440,1180"/>
<polygon id="0x1163420" class="l126d0" points="20,0 60,0 60,80 20,80"/>
<polygon id="0x12bdb00" class="l126d0" points="20,320 60,320 60,400 20,400"/>
<polygon id="0x12bdbc0" class="l126d0" points="20,880 60,880 60,1120 20,1120"/>
<polygon id="0x1074e70" class="l126d0" points="100,80 140,80 140,160 100,160"/>
<polygon id="0x1074f30" class="l126d0" points="100,480 140,480 140,560 100,560"/>
<polygon id="0x1302050" class="l126d0" points="100,800 140,800 140,1120 100,1120"/>
<polygon id="0x1302110" class="l126d0" points="180,320 220,320 220,400 180,400"/>
<polygon id="0x1305fb0" class="l126d0" points="180,640 220,640 220,720 180,720"/>
<polygon id="0x11110e0" class="l126d0" points="180,960 220,960 220,1200 180,1200"/>
<polygon id="0x11111a0" class="l126d0" points="260,0 300,0 300,80 260,80"/>
<polygon id="0x1132c60" class="l126d0" points="260,400 300,400 300,480 260,480"/>
<polygon id="0x113cc70" class="l126d0" points="260,560 300,560 300,800 260,800"/>
<polygon id="0x113cce0" class="l126d0" points="260,880 300,880 300,960 260,960"/>
<polygon id="0x11756c0" class="l126d0" points="260,1040 300,1040 300,1200 260,1200"/>
<polygon id="0x1175780" class="l126d0" points="340,160 380,160 380,400 340,400"/>
<polygon id="0x1277e80" class="l126d0" points="340,480 380,480 380,640 340,640"/>
<polygon id="0x128d7e0" class="l126d0" points="340,720 380,720 380,800 340,800"/>
<polygon id="0x128d850" class="l126d0" points="340,880 380,880 380,1040 340,1040"/>
<polygon id="0x130bce0" class="l126d0" points="420,320 460,320 460,400 420,400"/>
<polygon id="0x130bda0" class="l126d0" points="420,480 460,480 460,560 420,560"/>
<polygon id="0x133e930" class="l126d0" points="420,640 460,640 460,720 420,720"/>
<polygon id="0x137ca30" class="l126d0" points="420,800 460,800 460,880 420,880"/>
<polygon id="0x137caa0" class="l126d0" points="420,1040 460,1040 460,1200 420,1200"/>
<polygon id="0x1130e70" class="l126d0" points="500,0 540,0 540,80 500,80"/>
<polygon id="0x1130f30" class="l126d0" points="500,160 540,160 540,240 500,240"/>
<polygon id="0x1122cd0" class="l126d0" points="500,320 540,320 540,560 500,560"/>
<polygon id="0x1207790" class="l126d0" points="500,640 540,640 540,720 500,720"/>
<polygon id="0x1207850" class="l126d0" points="500,800 540,800 540,960 500,960"/>
<polygon id="0x1200220" class="l126d0" points="500,1120 540,1120 540,1200 500,1200"/>
<polygon id="0x12002e0" class="l126d0" points="580,80 620,80 620,160 580,160"/>
<polygon id="0x126d450" class="l126d0" points="580,240 620,240 620,320 580,320"/>
<polygon id="0x127b980" class="l126d0" points="580,720 620,720 620,800 580,800"/>
<polygon id="0x127ba40" class="l126d0" points="580,880 620,880 620,960 580,960"/>
<polygon id="0x12f1120" class="l126d0" points="580,1120 620,1120 620,1200 580,1200"/>
<polygon id="0x12f11e0" class="l126d0" points="660,0 700,0 700,400 660,400"/>
<polygon id="0x112f0f0" class="l126d0" points="660,560 700,560 700,960 660,960"/>
<polygon id="0x112f1b0" class="l126d0" points="740,320 780,320 780,400 740,400"/>
<polygon id="0x116e660" class="l126d0" points="740,480 780,480 780,800 740,800"/>
<polygon id="0x116e720" class="l126d0" points="740,960 780,960 780,1040 740,1040"/>
<polygon id="0x11b8320" class="l126d0" points="820,80 860,80 860,240 820,240"/>
<polygon id="0x11b83e0" class="l126d0" points="820,480 860,480 860,800 820,800"/>
<polygon id="0x11f5bc0" class="l126d0" points="900,0 940,0 940,80 900,80"/>
<polygon id="0x11f5c80" class="l126d0" points="900,240 940,240 940,480 900,480"/>
<polygon id="0x1204cc0" class="l126d0" points="900,560 940,560 940,640 900,640"/>
<polygon id="0x1204d80" class="l126d0" points="900,800 940,800 940,1040 900,1040"/>
<polygon id="0x11dde10" class="l126d0" points="980,160 1020,160 1020,320 980,320"/>
<polygon id="0x11dded0" class="l126d0" points="980,800 1020,800 1020,960 980,960"/>
<polygon id="0x124adc0" class="l126d0" points="980,1040 1020,1040 1020,1120 980,1120"/>
<polygon id="0x124ae80" class="l126d0" points="1060,560 1100,560 1100,640 1060,640"/>
<polygon id="0x136b710" class="l126d0" points="1060,800 1100,800 1100,880 1060,880"/>
<polygon id="0x136b7d0" class="l126d0" points="1060,1040 1100,1040 1100,1200 1060,1200"/>
<polygon id="0x115e440" class="l126d0" points="1140,80 1180,80 1180,320 1140,320"/>
<polygon id="0x115e500" class="l126d0" points="1140,560 1180,560 1180,640 1140,640"/>
<polygon id="0x129c3c0" class="l126d0" points="1140,880 1180,880 1180,960 1140,960"/>
<polygon id="0x129c480" class="l126d0" points="1140,1120 1180,1120 1180,1200 1140,1200"/>
<polygon id="0x115bc60" class="l126d0" points="1220,80 1260,80 1260,240 1220,240"/>
<polygon id="0x115bd20" class="l126d0" points="1220,480 1260,480 1260,720 1220,720"/>
<polygon id="0x1171a20" class="l126d0" points="1220,1040 1260,1040 1260,1200 1220,1200"/>
<polygon id="0x1171ae0" class="l126d0" points="1300,160 1340,160 1340,240 1300,240"/>
<polygon id="0x116fe00" class="l126d0" points="1300,400 1340,400 1340,640 1300,640"/>
<polygon id="0x116fec0" class="l126d0" points="1300,720 1340,720 1340,800 1300,800"/>
<polygon id="0x11c9870" class="l126d0" points="1300,960 1340,960 1340,1120 1300,1120"/>
<polygon id="0x11c9930" class="l126d0" points="1380,160 1420,160 1420,240 1380,240"/>
<polygon id="0x11c03d0" class="l126d0" points="1380,480 1420,480 1420,560 1380,560"/>
<polygon id="0x11c0490" class="l126d0" points="1380,640 1420,640 1420,720 1380,720"/>
<polygon id="0x1362020" class="l126d0" points="1380,800 1420,800 1420,880 1380,880"/>
<polygon id="0x13620e0" class="l126d0" points="1380,1120 1420,1120 1420,1200 1380,1200"/>
<polygon id="0x10cc310" class="l126d0" points="1460,0 1500,0 1500,80 1460,80"/>
<polygon id="0x10cc3d0" class="l126d0" points="1460,560 1500,560 1500,880 1460,880"/>
<polygon id="0x1119c90" class="l126d0" points="1460,1040 1500,1040 1500,1120 1460,1120"/>
<polygon id="0x1119d50" class="l126d0" points="1540,560 1580,560 1580,720 1540,720"/>
<polygon id="0x115c750" class="l126d0" points="1540,880 1580,880 1580,960 1540,960"/>
<polygon id="0x115c810" class="l189d4" points="0,0 300,0 300,300 0,300"/>
<polygon id="0x116bf40" class="l8d0" points="30,30 50,30 50,50 30,50"/>
<polygon id="0x116c000" class="l8d0" points="30,110 50,110 50,130 30,130"/>
<polygon id="0x1187230" class="l8d0" points="30,190 50,190 50,210 30,210"/>
<polygon id="0x11872f0" class="l8d0" points="30,270 50,270 50,290 30,290"/>
<polygon id="0x119c0e0" class="l8d0" points="30,350 50,350 50,370 30,370"/>
<polygon id="0x119c1a0" class="l8d0" points="30,430 50,430 50,450 30,450"/>
<polygon id="0x1245580" class="l8d0" points="30,510 50,510 50,530 30,530"/>
<polygon id="0x1245640" class="l8d0" points="30,590 50,590 50,610 30,610"/>
<polygon id="0x12b74a0" class="l8d0" points="30,670 50,670 50,690 30,690"/>
<polygon id="0x12b7560" class="l8d0" points="30,750 50,750 50,770 30,770"/>
<polygon id="0x13123a0" class="l8d0" points="30,830 50,830 50,850 30,850"/>
<polygon id="0x1312460" class="l8d0" points="30,910 50,910 50,930 30,930"/>
<polygon id="0x11309f0" class="l8d0" points="30,990 50,990 50,1010 30,1010"/>
<polygon id="0x1130ab0" class="l8d0" points="30,1070 50,1070 50,1090 30,1090"/>
<polygon id="0x124d510" class="l8d0" points="30,1150 50,1150 50,1170 30,1170"/>
<polygon id="0x124d5d0" class="l8d0" points="110,30 130,30 130,50 110,50"/>
<polygon id="0x12a0260" class="l8d0" points="110,110 130,110 130,130 110,130"/>
<polygon id="0x12a0320" class="l8d0" points="110,190 130,190 130,210 110,210"/>
<polygon id="0x1131630" class="l8d0" points="110,270 130,270 130,290 110,290"/>
<polygon id="0x11316f0" class="l8d0" points="110,350 130,350 130,370 110,370"/>
<polygon id="0x11aeac0" class="l8d0" points="110,430 130,430 130,450 110,450"/>
<polygon id="0x11aeb80" class="l8d0" points="110,510 130,510 130,530 110,530"/>
<polygon id="0x11f8070" class="l8d0" points="110,590 130,590 130,610 110,610"/>
<polygon id="0x11f80e0" class="l8d0" points="110,670 130,670 130,690 110,690"/>
<polygon id="0x11f81a0" class="l8d0" points="110,750 130,750 130,770 110,770"/>
<polygon id="0x12d0750" class="l8d0" points="110,830 130,830 130,850 110,850"/>
<polygon id="0x12d0810" class="l8d0" points="110,910 130,910 130,930 110,930"/>
<polygon id="0x12e9120" class="l8d0" points="110,990 130,990 130,1010 110,1010"/>
<polygon id="0x12e91e0" class="l8d0" points="110,1070 130,1070 130,1090 110,1090"/>
<polygon id="0x1213ce0" class="l8d0" points="110,1150 130,1150 130,1170 110,1170"/>
<polygon id="0x1213d50" class="l8d0" points="190,30 210,30 210,50 190,50"/>
<polygon id="0x1213e10" class="l8d0" points="190,110 210,110 210,130 190,130"/>
<polygon id="0x1279750" class="l8d0" points="190,190 210,190 210,210 190,210"/>
<polygon id="0x1279810" class="l8d0" points="190,270 210,270 210,290 190,290"/>
<polygon id="0x13353a0" class="l8d0" points="190,350 210,350 210,370 190,370"/>
<polygon id="0x1335460" class="l8d0" points="190,430 210,430 210,450 190,450"/>
<polygon id="0x10cd4c0" class="l8d0" points="190,510 210,510 210,530 190,530"/>
<polygon id="0x10cd580" class="l8d0" points="190,590 210,590 210,610 190,610"/>
<polygon id="0x11744f0" class="l8d0" points="190,670 210,670 210,690 190,690"/>
<polygon id="0x11745b0" class="l8d0" points="190,750 210,750 210,770 190,770"/>
<polygon id="0x1174670" class="l8d0" points="190,830 210,830 210,850 190,850"/>
<polygon id="0x1176fc0" class="l8d0" points="190,910 210,910 210,930 190,930"/>
<polygon id="0x1177080" class="l8d0" points="190,990 210,990 210,1010 190,1010"/>
<polygon id="0x1177140" class="l8d0" points="190,1070 210,1070 210,1090 190,1090"/>
<polygon id="0x11c8720" class="l8d0" points="190,1150 210,1150 210,1170 190,1170"/>
<polygon id="0x11c87e0" class="l8d0" points="270,30 290,30 290,50 270,50"/>
<polygon id="0x11c88a0" class="l8d0" points="270,110 290,110 290,130 270,130"/>
<polygon id="0x11d73f0" class="l8d0" points="270,190 290,190 290,210 270,210"/>
<polygon id="0x11d74b0" class="l8d0" points="270,270 290,270 290,290 270,290"/>
<polygon id="0x11fe3b0" class="l8d0" points="270,350 290,350 290,370 270,370"/>
<polygon id="0x11fe470" class="l8d0" points="270,430 290,430 290,450 270,450"/>
<polygon id="0x11fe530" class="l8d0" points="270,510 290,510 290,530 270,530"/>
<polygon id="0x128e1d0" class="l8d0" points="270,590 290,590 290,610 270,610"/>
<polygon id="0x128e290" class="l8d0" points="270,670 290,670 290,690 270,690"/>
<polygon id="0x1321550" class="l8d0" points="270,750 290,750 290,770 270,770"/>
<polygon id="0x1321610" class="l8d0" points="270,830 290,830 290,850 270,850"/>
<polygon id="0x13216d0" class="l8d0" points="270,910 290,910 290,930 270,930"/>
<polygon id="0x1345900" class="l8d0" points="270,990 290,990 290,1010 270,1010"/>
<polygon id="0x13459c0" class="l8d0" points="270,1070 290,1070 290,1090 270,1090"/>
<polygon id="0x1190270" class="l8d0" points="270,1150 290,1150 290,1170 270,1170"/>
<polygon id="0x1190330" class="l8d0" points="350,30 370,30 370,50 350,50"/>
<polygon id="0x11903f0" class="l8d0" points="350,110 370,110 370,130 350,130"/>
<polygon id="0x11e4880" class="l8d0" points="350,190 370,190 370,210 350,210"/>
<polygon id="0x11e4940" class="l8d0" points="350,270 370,270 370,290 350,290"/>
<polygon id="0x10fdd00" class="l8d0" points="350,350 370,350 370,370 350,370"/>
<polygon id="0x10fddc0" class="l8d0" points="350,430 370,430 370,450 350,450"/>
<polygon id="0x10fde80" class="l8d0" points="350,510 370,510 370,530 350,530"/>
<polygon id="0x1284850" class="l8d0" points="350,590 370,590 370,610 350,610"/>
<polygon id="0x1284910" class="l8d0" points="350,670 370,670 370,690 350,690"/>
<polygon id="0x12dded0" class="l8d0" points="350,750 370,750 370,770 350,770"/>
<polygon id="0x12ddf90" class="l8d0" points="350,830 370,830 370,850 350,850"/>
<polygon id="0x12de050" class="l8d0" points="350,910 370,910 370,930 350,930"/>
<polygon id="0x12e10b0" class="l8d0" points="350,990 370,990 370,1010 350,1010"/>
<polygon id="0x12e1170" class="l8d0" points="350,1070 370,1070 370,1090 350,1090"/>
<polygon id="0x12e3d60" class="l8d0" points="350,1150 370,1150 370,1170 350,1170"/>
<polygon id="0x12e3e20" class="l8d0" points="430,30 450,30 450,50 430,50"/>
<polygon id="0x12e3ee0" class="l8d0" points="430,110 450,110 450,130 430,130"/>
<polygon id="0x137ba70" class="l8d0" points="430,190 450,190 450,210 430,210"/>
<polygon id="0x137bb30" class="l8d0" points="430,270 450,270 450,290 430,290"/>
<polygon id="0x1392c50" class="l8d0" points="430,350 450,350 450,370 430,370"/>
<polygon id="0x1392d10" class="l8d0" points="430,430 450,430 450,450 430,450"/>
<polygon id="0x1392dd0" class="l8d0" points="430,510 450,510 450,530 430,530"/>
<polygon id="0x1392e90" class="l8d0" points="430,590 450,590 450,610 430,610"/>
<polygon id="0x1392f50" class="l8d0" points="430,670 450,670 450,690 430,690"/>
<polygon id="0x1393010" class="l8d0" points="430,750 450,750 450,770 430,770"/>
<polygon id="0x13930d0" class="l8d0" points="430,830 450,830 450,850 430,850"/>
<polygon id="0x1393190" class="l8d0" points="430,910 450,910 450,930 430,930"/>
<polygon id="0x1393250" class="l8d0" points="430,990 450,990 450,1010 430,1010"/>
<polygon id="0x1393310" class="l8d0" points="430,1070 450,1070 450,1090 430,1090"/>
<polygon id="0x13933d0" class="l8d0" points="430,1150 450,1150 450,1170 430,1170"/>
<polygon id="0x1393490" class="l8d0" points="510,30 530,30 530,50 510,50"/>
<polygon id="0x1393550" class="l8d0" points="510,110 530,110 530,130 510,130"/>
<polygon id="0x1393610" class="l8d0" points="510,190 530,190 530,210 510,210"/>
<polygon id="0x13936d0" class="l8d0" points="510,270 530,270 530,290 510,290"/>
<polygon id="0x1393790" class="l8d0" points="510,350 530,350 530,370 510,370"/>
<polygon id="0x1393850" class="l8d0" points="510,430 530,430 530,450 510,450"/>
<polygon id="0x1393910" class="l8d0" points="510,510 530,510 530,530 510,530"/>
<polygon id="0x13939d0" class="l8d0" points="510,590 530,590 530,610 510,610"/>
<polygon id="0x1393a90" class="l8d0" points="510,670 530,670 530,690 510,690"/>
<polygon id="0x1393b50" class="l8d0" points="510,750 530,750 530,770 510,770"/>
<polygon id="0x1393c10" class="l8d0" points="510,830 530,830 530,850 510,850"/>
<polygon id="0x1393cd0" class="l8d0" points="510,910 530,910 530,930 510,930"/>
<polygon id="0x1393d90" class="l8d0" points="510,990 530,990 530,1010 510,1010"/>
<polygon id="0x1393e50" class="l8d0" points="510,1070 530,1070 530,1090 510,1090"/>
<polygon id="0x1393f10" class="l8d0" points="510,1150 530,1150 530,1170 510,1170"/>
<polygon id="0x1393fd0" class="l8d0" points="590,30 610,30 610,50 590,50"/>
<polygon id="0x1392440" class="l8d0" points="590,110 610,110 610,130 590,130"/>
<polygon id="0x1392500" class="l8d0" points="590,190 610,190 610,210 590,210"/>
<polygon id="0x13925c0" class="l8d0" points="590,270 610,270 610,290 590,290"/>
<polygon id="0x1392680" class="l8d0" points="590,350 610,350 610,370 590,370"/>
<polygon id="0x1392740" class="l8d0" points="590,430 610,430 610,450 590,450"/>
<polygon id="0x1392800" class="l8d0" points="590,510 610,510 610,530 590,530"/>
<polygon id="0x13928c0" class="l8d0" points="590,590 610,590 610,610 590,610"/>
<polygon id="0x1392980" class="l8d0" points="590,670 610,670 610,690 590,690"/>
<polygon id="0x1392a40" class="l8d0" points="590,750 610,750 610,770 590,770"/>
<polygon id="0x1392b00" class="l8d0" points="590,830 610,830 610,850 590,850"/>
<polygon id="0x1392bc0" class="l8d0" points="590,910 610,910 610,930 590,930"/>
<polygon id="0x13950f0" class="l8d0" points="590,990 610,990 610,1010 590,1010"/>
<polygon id="0x13951b0" class="l8d0" points="590,1070 610,1070 610,1090 590,1090"/>
<polygon id="0x1395270" class="l8d0" points="590,1150 610,1150 610,1170 590,1170"/>
<polygon id="0x1395330" class="l8d0" points="670,30 690,30 690,50 670,50"/>
<polygon id="0x13953f0" class="l8d0" points="670,110 690,110 690,130 670,130"/>
<polygon id="0x13954b0" class="l8d0" points="670,190 690,190 690,210 670,210"/>
<polygon id="0x1395570" class="l8d0" points="670,270 690,270 690,290 670,290"/>
<polygon id="0x1395630" class="l8d0" points="670,350 690,350 690,370 670,370"/>
<polygon id="0x13956f0" class="l8d0" points="670,430 690,430 690,450 670,450"/>
<polygon id="0x13957b0" class="l8d0" points="670,510 690,510 690,530 670,530"/>
<polygon id="0x1395870" class="l8d0" points="670,590 690,590 690,610 670,610"/>
<polygon id="0x1395930" class="l8d0" points="670,670 690,670 690,690 670,690"/>
<polygon id="0x13959f0" class="l8d0" points="670,750 690,750 690,770 670,770"/>
<polygon id="0x1395ab0" class="l8d0" points="670,830 690,830 690,850 670,850"/>
<polygon id="0x1395b70" class="l8d0" points="670,910 690,910 690,930 670,930"/>
<polygon id="0x1395c30" class="l8d0" points="670,990 690,990 690,1010 670,1010"/>
<polygon id="0x1395cf0" class="l8d0" points="670,1070 690,1070 690,1090 670,1090"/>
<polygon id="0x1395db0" class="l8d0" points="670,1150 690,1150 690,1170 670,1170"/>
<polygon id="0x1395e70" class="l8d0" points="750,30 770,30 770,50 750,50"/>
<polygon id="0x1395f30" class="l8d0" points="750,110 770,110 770,130 750,130"/>
<polygon id="0x1395ff0" class="l8d0" points="750,190 770,190 770,210 750,210"/>
<polygon id="0x13960b0" class="l8d0" points="750,270 770,270 770,290 750,290"/>
<polygon id="0x1396170" class="l8d0" points="750,350 770,350 770,370 750,370"/>
<polygon id="0x1396230" class="l8d0" points="750,430 770,430 770,450 750,450"/>
<polygon id="0x13962f0" class="l8d0" points="750,510 770,510 770,530 750,530"/>
<polygon id="0x13963b0" class="l8d0" points="750,590 770,590 770,610 750,610"/>
<polygon id="0x1396470" class="l8d0" points="750,670 770,670 770,690 750,690"/>
<polygon id="0x1396530" class="l8d0" points="750,750 770,750 770,770 750,770"/>
<polygon id="0x13965f0" class="l8d0" points="750,830 770,830 770,850 750,850"/>
<polygon id="0x13966b0" class="l8d0" points="750,910 770,910 770,930 750,930"/>
<polygon id="0x1396770" class="l8d0" points="750,990 770,990 770,1010 750,1010"/>
<polygon id="0x1396830" class="l8d0" points="750,1070 770,1070 770,1090 750,1090"/>
<polygon id="0x13968f0" class="l8d0" points="750,1150 770,1150 770,1170 750,1170"/>
<polygon id="0x13969b0" class="l8d0" points="830,30 850,30 850,50 830,50"/>
<polygon id="0x1396a70" class="l8d0" points="830,110 850,110 850,130 830,130"/>
<polygon id="0x1396b30" class="l8d0" points="830,190 850,190 850,210 830,210"/>
<polygon id="0x1396bf0" class="l8d0" points="830,270 850,270 850,290 830,290"/>
<polygon id="0x1396cb0" class="l8d0" points="830,350 850,350 850,370 830,370"/>
<polygon id="0x1396d70" class="l8d0" points="830,430 850,430 850,450 830,450"/>
<polygon id="0x1396e30" class="l8d0" points="830,510 850,510 850,530 830,530"/>
<polygon id="0x1396ef0" class="l8d0" points="830,590 850,590 850,610 830,610"/>
<polygon id="0x1396fb0" class="l8d0" points="830,670 850,670 850,690 830,690"/>
<polygon id="0x1397070" class="l8d0" points="830,750 850,750 850,770 830,770"/>
<polygon id="0x1397130" class="l8d0" points="830,830 850,830 850,850 830,850"/>
<polygon id="0x13971f0" class="l8d0" points="830,910 850,910 850,930 830,930"/>
<polygon id="0x13972b0" class="l8d0" points="830,990 850,990 850,1010 830,1010"/>
<polygon id="0x1397370" class="l8d0" points="830,1070 850,1070 850,1090 830,1090"/>
<polygon id="0x1397430" class="l8d0" points="830,1150 850,1150 850,1170 830,1170"/>
<polygon id="0x13974f0" class="l8d0" points="910,30 930,30 930,50 910,50"/>
<polygon id="0x13975b0" class="l8d0" points="910,110 930,110 930,130 910,130"/>
<polygon id="0x1397670" class="l8d0" points="910,190 930,190 930,210 910,210"/>
<polygon id="0x1397730" class="l8d0" points="910,270 930,270 930,290 910,290"/>
<polygon id="0x13977f0" class="l8d0" points="910,350 930,350 930,370 910,370"/>
<polygon id="0x13978b0" class="l8d0" points="910,430 930,430 930,450 910,450"/>
<polygon id="0x1397970" class="l8d0" points="910,510 930,510 930,530 910,530"/>
<polygon id="0x1397a30" class="l8d0" points="910,590 930,590 930,610 910,610"/>
<polygon id="0x1397af0" class="l8d0" points="910,670 930,670 930,690 910,690"/>
<polygon id="0x1397bb0" class="l8d0" points="910,750 930,750 930,770 910,770"/>
<polygon id="0x1397c70" class="l8d0" points="910,830 930,830 930,850 910,850"/>
<polygon id="0x1397d30" class="l8d0" points="910,910 930,910 930,930 910,930"/>
<polygon id="0x1397df0" class="l8d0" points="910,990 930,990 930,1010 910,1010"/>
<polygon id="0x1397eb0" class="l8d0" points="910,1070 930,1070 930,1090 910,1090"/>
<polygon id="0x1397f70" class="l8d0" points="910,1150 930,1150 930,1170 910,1170"/>
<polygon id="0x1398030" class="l8d0" points="990,30 1010,30 1010,50 990,50"/>
<polygon id="0x13980f0" class="l8d0" points="990,110 1010,110 1010,130 990,130"/>
<polygon id="0x13981b0" class="l8d0" points="990,190 1010,190 1010,210 990,210"/>
<polygon id="0x1398270" class="l8d0" points="990,270 1010,270 1010,290 990,290"/>
<polygon id="0x1398330" class="l8d0" points="990,350 1010,350 1010,370 990,370"/>
<polygon id="0x13983f0" class="l8d0" points="990,430 1010,430 1010,450 990,450"/>
<polygon id="0x13984b0" class="l8d0" points="990,510 1010,510 1010,530 990,530"/>
<polygon id="0x1398570" class="l8d0" points="990,590 1010,590 1010,610 990,610"/>
<polygon id="0x1398630" class="l8d0" points="990,670 1010,670 1010,690 990,690"/>
<polygon id="0x13986f0" class="l8d0" points="990,750 1010,750 1010,770 990,770"/>
<polygon id="0x13987b0" class="l8d0" points="990,830 1010,830 1010,850 990,850"/>
<polygon id="0x1398870" class="l8d0" points="990,910 1010,910 1010,930 990,930"/>
<polygon id="0x1398930" class="l8d0" points="990,990 1010,990 1010,1010 990,1010"/>
<polygon id="0x13989f0" class="l8d0" points="990,1070 1010,1070 1010,1090 990,1090"/>
<polygon id="0x1398ab0" class="l8d0" points="990,1150 1010,1150 1010,1170 990,1170"/>
<polygon id="0x1398b70" class="l8d0" points="1070,30 1090,30 1090,50 1070,50"/>
<polygon id="0x1398c30" class="l8d0" points="1070,110 1090,110 1090,130 1070,130"/>
<polygon id="0x1398cf0" class="l8d0" points="1070,190 1090,190 1090,210 1070,210"/>
<polygon id="0x1398db0" class="l8d0" points="1070,270 1090,270 1090,290 1070,290"/>
<polygon id="0x1398e70" class="l8d0" points="1070,350 1090,350 1090,370 1070,370"/>
<polygon id="0x1398f30" class="l8d0" points="1070,430 1090,430 1090,450 1070,450"/>
<polygon id="0x1398ff0" class="l8d0" points="1070,510 1090,510 1090,530 1070,530"/>
<polygon id="0x13990b0" class="l8d0" points="1070,590 1090,590 1090,610 1070,610"/>
<polygon id="0x1399170" class="l8d0" points="1070,670 1090,670 1090,690 1070,690"/>
<polygon id="0x1399230" class="l8d0" points="1070,750 1090,750 1090,770 1070,770"/>
<polygon id="0x13992f0" class="l8d0" points="1070,830 1090,830 1090,850 1070,850"/>
<polygon id="0x13993b0" class="l8d0" points="1070,910 1090,910 1090,930 1070,930"/>
<polygon id="0x1399470" class="l8d0" points="1070,990 1090,990 1090,1010 1070,1010"/>
<polygon id="0x1399530" class="l8d0" points="1070,1070 1090,1070 1090,1090 1070,1090"/>
<polygon id="0x13995f0" class="l8d0" points="1070,1150 1090,1150 1090,1170 1070,1170"/>
<polygon id="0x13996b0" class="l8d0" points="1150,30 1170,30 1170,50 1150,50"/>
<polygon id="0x139c600" class="l8d0" points="1150,110 1170,110 1170,130 1150,130"/>
<polygon id="0x139c6c0" class="l8d0" points="1150,190 1170,190 1170,210 1150,210"/>
<polygon id="0x139c780" class="l8d0" points="1150,270 1170,270 1170,290 1150,290"/>
<polygon id="0x139c840" class="l8d0" points="1150,350 1170,350 1170,370 1150,370"/>
<polygon id="0x139c900" class="l8d0" points="1150,430 1170,430 1170,450 1150,450"/>
<polygon id="0x139c9c0" class="l8d0" points="1150,510 1170,510 1170,530 1150,530"/>
<polygon id="0x139ca80" class="l8d0" points="1150,590 1170,590 1170,610 1150,610"/>
<polygon id="0x139cb40" class="l8d0" points="1150,670 1170,670 1170,690 1150,690"/>
<polygon id="0x139cc00" class="l8d0" points="1150,750 1170,750 1170,770 1150,770"/>
<polygon id="0x139ccc0" class="l8d0" points="1150,830 1170,830 1170,850 1150,850"/>
<polygon id="0x139cd80" class="l8d0" points="1150,910 1170,910 1170,930 1150,930"/>
<polygon id="0x139ce40" class="l8d0" points="1150,990 1170,990 1170,1010 1150,1010"/>
<polygon id="0x139cf00" class="l8d0" points="1150,1070 1170,1070 1170,1090 1150,1090"/>
<polygon id="0x139cfc0" class="l8d0" points="1150,1150 1170,1150 1170,1170 1150,1170"/>
<polygon id="0x139d080" class="l8d0" points="1230,30 1250,30 1250,50 1230,50"/>
<polygon id="0x139d140" class="l8d0" points="1230,110 1250,110 1250,130 1230,130"/>
<polygon id="0x139d200" class="l8d0" points="1230,190 1250,190 1250,210 1230,210"/>
<polygon id="0x139d2c0" class="l8d0" points="1230,270 1250,270 1250,290 1230,290"/>
<polygon id="0x139d380" class="l8d0" points="1230,350 1250,350 1250,370 1230,370"/>
<polygon id="0x139d440" class="l8d0" points="1230,430 1250,430 1250,450 1230,450"/>
<polygon id="0x139d500" class="l8d0" points="1230,510 1250,510 1250,530 1230,530"/>
<polygon id="0x139d5c0" class="l8d0" points="1230,590 1250,590 1250,610 1230,610"/>
<polygon id="0x139d680" class="l8d0" points="1230,670 1250,670 1250,690 1230,690"/>
<polygon id="0x139d740" class="l8d0" points="1230,750 1250,750 1250,770 1230,770"/>
<polygon id="0x139d800" class="l8d0" points="1230,830 1250,830 1250,850 1230,850"/>
<polygon id="0x139d8c0" class="l8d0" points="1230,910 1250,910 1250,930 1230,930"/>
<polygon id="0x139d980" class="l8d0" points="1230,990 1250,990 1250,1010 1230,1010"/>
<polygon id="0x139da40" class="l8d0" points="1230,1070 1250,1070 1250,1090 1230,1090"/>
<polygon id="0x139db00" class="l8d0" points="1230,1150 1250,1150 1250,1170 1230,1170"/>
<polygon id="0x139dbc0" class="l8d0" points="1310,30 1330,30 1330,50 1310,50"/>
<polygon id="0x139dc80" class="l8d0" points="1310,110 1330,110 1330,130 1310,130"/>
<polygon id="0x139dd40" class="l8d0" points="1310,190 1330,190 1330,210 1310,210"/>
<polygon id="0x139de00" class="l8d0" points="1310,270 1330,270 1330,290 1310,290"/>
<polygon id="0x139dec0" class="l8d0" points="1310,350 1330,350 1330,370 1310,370"/>
<polygon id="0x139df80" class="l8d0" points="1310,430 1330,430 1330,450 1310,450"/>
<polygon id="0x139e040" class="l8d0" points="1310,510 1330,510 1330,530 1310,530"/>
<polygon id="0x139e100" class="l8d0" points="1310,590 1330,590 1330,610 1310,610"/>
<polygon id="0x139e1c0" class="l8d0" points="1310,670 1330,670 1330,690 1310,690"/>
<polygon id="0x139e280" class="l8d0" points="1310,750 1330,750 1330,770 1310,770"/>
<polygon id="0x139e340" class="l8d0" points="1310,830 1330,830 1330,850 1310,850"/>
<polygon id="0x139e400" class="l8d0" points="1310,910 1330,910 1330,930 1310,930"/>
<polygon id="0x139e4c0" class="l8d0" points="1310,990 1330,990 1330,1010 1310,1010"/>
<polygon id="0x139e580" class="l8d0" points="1310,1070 1330,1070 1330,1090 1310,1090"/>
<polygon id="0x139e640" class="l8d0" points="1310,1150 1330,1150 1330,1170 1310,1170"/>
<polygon id="0x139e700" class="l8d0" points="1390,30 1410,30 1410,50 1390,50"/>
<polygon id="0x139e7c0" class="l8d0" points="1390,110 1410,110 1410,130 1390,130"/>
<polygon id="0x139e880" class="l8d0" points="1390,190 1410,190 1410,210 1390,210"/>
<polygon id="0x139e940" class="l8d0" points="1390,270 1410,270 1410,290 1390,290"/>
<polygon id="0x139ea00" class="l8d0" points="1390,350 1410,350 1410,370 1390,370"/>
<polygon id="0x139eac0" class="l8d0" points="1390,430 1410,430 1410,450 1390,450"/>
<polygon id="0x139eb80" class="l8d0" points="1390,510 1410,510 1410,530 1390,530"/>
<polygon id="0x139ec40" class="l8d0" points="1390,590 1410,590 1410,610 1390,610"/>
<polygon id="0x139ed00" class="l8d0" points="1390,670 1410,670 1410,690 1390,690"/>
<polygon id="0x139edc0" class="l8d0" points="1390,750 1410,750 1410,770 1390,770"/>
<polygon id="0x139ee80" class="l8d0" points="1390,830 1410,830 1410,850 1390,850"/>
<polygon id="0x139ef40" class="l8d0" points="1390,910 1410,910 1410,930 1390,930"/>
<polygon id="0x139f000" class="l8d0" points="1390,990 1410,990 1410,1010 1390,1010"/>
<polygon id="0x139f0c0" class="l8d0" points="1390,1070 1410,1070 1410,1090 1390,1090"/>
<polygon id="0x139f180" class="l8d0" points="1390,1150 1410,1150 1410,1170 1390,1170"/>
<polygon id="0x139f240" class="l8d0" points="1470,30 1490,30 1490,50 1470,50"/>
<polygon id="0x139f300" class="l8d0" points="1470,110 1490,110 1490,130 1470,130"/>
<polygon id="0x139f3c0" class="l8d0" points="1470,190 1490,190 1490,210 1470,210"/>
<polygon id="0x139f480" class="l8d0" points="1470,270 1490,270 1490,290 1470,290"/>
<polygon id="0x139f540" class="l8d0" points="1470,350 1490,350 1490,370 1470,370"/>
<polygon id="0x139f600" class="l8d0" points="1470,430 1490,430 1490,450 1470,450"/>
<polygon id="0x139f6c0" class="l8d0" points="1470,510 1490,510 1490,530 1470,530"/>
<polygon id="0x139f780" class="l8d0" points="1470,590 1490,590 1490,610 1470,610"/>
<polygon id="0x139f840" class="l8d0" points="1470,670 1490,670 1490,690 1470,690"/>
<polygon id="0x139f900" class="l8d0" points="1470,750 1490,750 1490,770 1470,770"/>
<polygon id="0x139f9c0" class="l8d0" points="1470,830 1490,830 1490,850 1470,850"/>
<polygon id="0x139fa80" class="l8d0" points="1470,910 1490,910 1490,930 1470,930"/>
<polygon id="0x139fb40" class="l8d0" points="1470,990 1490,990 1490,1010 1470,1010"/>
<polygon id="0x139fc00" class="l8d0" points="1470,1070 1490,1070 1490,1090 1470,1090"/>
<polygon id="0x139fcc0" class="l8d0" points="1470,1150 1490,1150 1490,1170 1470,1170"/>
<polygon id="0x139fd80" class="l8d0" points="1550,30 1570,30 1570,50 1550,50"/>
<polygon id="0x139fe40" class="l8d0" points="1550,110 1570,110 1570,130 1550,130"/>
<polygon id="0x139ff00" class="l8d0" points="1550,190 1570,190 1570,210 1550,210"/>
<polygon id="0x139ffc0" class="l8d0" points="1550,270 1570,270 1570,290 1550,290"/>
<polygon id="0x13a0080" class="l8d0" points="1550,350 1570,350 1570,370 1550,370"/>
<polygon id="0x13a0140" class="l8d0" points="1550,430 1570,430 1570,450 1550,450"/>
<polygon id="0x13a0200" class="l8d0" points="1550,510 1570,510 1570,530 1550,530"/>
<polygon id="0x13a02c0" class="l8d0" points="1550,590 1570,590 1570,610 1550,610"/>
<polygon id="0x13a0380" class="l8d0" points="1550,670 1570,670 1570,690 1550,690"/>
<polygon id="0x13a0440" class="l8d0" points="1550,750 1570,750 1570,770 1550,770"/>
<polygon id="0x13a0500" class="l8d0" points="1550,830 1570,830 1570,850 1550,850"/>
<polygon id="0x13a05c0" class="l8d0" points="1550,910 1570,910 1570,930 1550,930"/>
<polygon id="0x13a0680" class="l8d0" points="1550,990 1570,990 1570,1010 1550,1010"/>
<polygon id="0x13a0740" class="l8d0" points="1550,1070 1570,1070 1570,1090 1550,1090"/>
<polygon id="0x13a0800" class="l8d0" points="1550,1150 1570,1150 1570,1170 1550,1170"/>
</g>
</svg>