<?xml version="1.0" encoding="UTF-8"?>
<svg xmlns="http://www.w3.org/2000/svg" xmlns:xlink="http://www.w3.org/1999/xlink" width="1760" height="1360" viewBox="-80 -1280 1760 1360">
<defs>
<style type="text/css">
.l5d2 {stroke: #B3446C; fill: #B3446C; fill-opacity: 0.5;}
.l1d2 {stroke: #0067A5; fill: #0067A5; fill-opacity: 0.5;}
.l126d0 {stroke: #E68FAC; fill: #E68FAC; fill-opacity: 0.5;}
.l189d4 {stroke: #A1CAF1; fill: #A1CAF1; fill-opacity: 0.5;}
</style>
</defs>
<rect x="-80" y="-1280" width="1760" height="1360" fill="#222222" stroke="none"/>
<g id="my_logo" transform="scale(1 -1)">
<polygon id="0x119e140" class="l126d0" points="80,20 240,20 240,60 80,60"/>
<polygon id="0x1050420" class="l126d0" points="320,20 480,20 480,60 320,60"/>
<polygon id="0x1061b80" class="l126d0" points="560,20 640,20 640,60 560,60"/>
<polygon id="0x10b4050" class="l126d0" points="800,20 880,20 880,60 800,60"/>
<polygon id="0x112fdc0" class="l126d0" points="960,20 1200,20 1200,60 960,60"/>
<polygon id="0xf10770" class="l126d0" points="1280,20 1360,20 1360,60 1280,60"/>
<polygon id="0x1186720" class="l126d0" points="1520,20 1600,20 1600,60 1520,60"/>
<polygon id="0x120f7d0" class="l126d0" points="0,100 320,100 320,140 0,140"/>
<polygon id="0x11ca4e0" class="l126d0" points="400,100 560,100 560,140 400,140"/>
<polygon id="0x118e370" class="l126d0" points="640,100 720,100 720,140 640,140"/>
<polygon id="0x1120b60" class="l126d0" points="960,100 1040,100 1040,140 960,140"/>
<polygon id="0x11b18b0" class="l126d0" points="1120,100 1440,100 1440,140 1120,140"/>
<polygon id="0x11bb2c0" class="l126d0" points="80,180 160,180 160,220 80,220"/>
<polygon id="0x1213450" class="l126d0" points="240,180 560,180 560,220 240,220"/>
<polygon id="0x11988c0" class="l126d0" points="800,180 960,180 960,220 800,220"/>
<polygon id="0x11d4a40" class="l126d0" points="1040,180 1360,180 1360,220 1040,220"/>
<polygon id="0x11fbe70" class="l126d0" points="160,260 240,260 240,300 160,300"/>
<polygon id="0x115f7d0" class="l126d0" points="480,260 800,260 800,300 480,300"/>
<polygon id="0x1179300" class="l126d0" points="880,260 960,260 960,300 880,300"/>
<polygon id="0x118cd10" class="l126d0" points="1040,260 1120,260 1120,300 1040,300"/>
<polygon id="0x11cef90" class="l126d0" points="1280,260 1360,260 1360,300 1280,300"/>
<polygon id="0x11df700" class="l126d0" points="0,340 320,340 320,380 0,380"/>
<polygon id="0x11d2dd0" class="l126d0" points="400,340 560,340 560,380 400,380"/>
<polygon id="0xf71610" class="l126d0" points="880,340 1120,340 1120,380 880,380"/>
<polygon id="0x1013060" class="l126d0" points="1360,340 1440,340 1440,380 1360,380"/>
<polygon id="0xf9c120" class="l126d0" points="1520,340 1600,340 1600,380 1520,380"/>
<polygon id="0x113e910" class="l126d0" points="880,420 1040,420 1040,460 880,460"/>
<polygon id="0x111cff0" class="l126d0" points="1360,420 1520,420 1520,460 1360,460"/>
<polygon id="0x11cd490" class="l126d0" points="0,500 80,500 80,540 0,540"/>
<polygon id="0x12145a0" class="l126d0" points="160,500 240,500 240,540 160,540"/>
<polygon id="0xfe3e40" class="l126d0" points="320,500 400,500 400,540 320,540"/>
<polygon id="0x1058d30" class="l126d0" points="480,500 880,500 880,540 480,540"/>
<polygon id="0x104cec0" class="l126d0" points="960,500 1040,500 1040,540 960,540"/>
<polygon id="0x1114480" class="l126d0" points="1120,500 1200,500 1200,540 1120,540"/>
<polygon id="0x11a1d10" class="l126d0" points="1280,500 1600,500 1600,540 1280,540"/>
<polygon id="0x11e27d0" class="l126d0" points="0,580 80,580 80,620 0,620"/>
<polygon id="0x1002ed0" class="l126d0" points="160,580 320,580 320,620 160,620"/>
<polygon id="0x115d310" class="l126d0" points="400,580 480,580 480,620 400,620"/>
<polygon id="0x1163c20" class="l126d0" points="640,580 1040,580 1040,620 640,620"/>
<polygon id="0x11780f0" class="l126d0" points="1120,580 1280,580 1280,620 1120,620"/>
<polygon id="0x1188460" class="l126d0" points="1440,580 1520,580 1520,620 1440,620"/>
<polygon id="0x107ebc0" class="l126d0" points="0,660 160,660 160,700 0,700"/>
<polygon id="0x110aeb0" class="l126d0" points="400,660 640,660 640,700 400,700"/>
<polygon id="0x110af20" class="l126d0" points="880,660 960,660 960,700 880,700"/>
<polygon id="0x113aa50" class="l126d0" points="1360,660 1440,660 1440,700 1360,700"/>
<polygon id="0x115fd70" class="l126d0" points="1520,660 1600,660 1600,700 1520,700"/>
<polygon id="0x1149560" class="l126d0" points="80,740 160,740 160,780 80,780"/>
<polygon id="0x11495d0" class="l126d0" points="480,740 720,740 720,780 480,780"/>
<polygon id="0x1177220" class="l126d0" points="880,740 960,740 960,780 880,780"/>
<polygon id="0x119ed40" class="l126d0" points="1120,740 1440,740 1440,780 1120,780"/>
<polygon id="0x1192bd0" class="l126d0" points="0,820 80,820 80,860 0,860"/>
<polygon id="0x1192c40" class="l126d0" points="400,820 560,820 560,860 400,860"/>
<polygon id="0x11ded70" class="l126d0" points="640,820 880,820 880,860 640,860"/>
<polygon id="0x11d5090" class="l126d0" points="1040,820 1120,820 1120,860 1040,860"/>
<polygon id="0x1213cb0" class="l126d0" points="1440,820 1600,820 1600,860 1440,860"/>
<polygon id="0x1213d20" class="l126d0" points="80,900 160,900 160,940 80,940"/>
<polygon id="0x123ad10" class="l126d0" points="320,900 480,900 480,940 320,940"/>
<polygon id="0xfa1d40" class="l126d0" points="640,900 720,900 720,940 640,940"/>
<polygon id="0xffa060" class="l126d0" points="800,900 1120,900 1120,940 800,940"/>
<polygon id="0xffa0d0" class="l126d0" points="1200,900 1360,900 1360,940 1200,940"/>
<polygon id="0x1014dd0" class="l126d0" points="1520,900 1600,900 1600,940 1520,940"/>
<polygon id="0x103d4e0" class="l126d0" points="0,980 240,980 240,1020 0,1020"/>
<polygon id="0x107ce40" class="l126d0" points="320,980 480,980 480,1020 320,1020"/>
<polygon id="0x1180370" class="l126d0" points="720,980 880,980 880,1020 720,1020"/>
<polygon id="0x117fbc0" class="l126d0" points="960,980 1120,980 1120,1020 960,1020"/>
<polygon id="0x11daec0" class="l126d0" points="1200,980 1360,980 1360,1020 1200,1020"/>
<polygon id="0x11ed270" class="l126d0" points="1440,980 1520,980 1520,1020 1440,1020"/>
<polygon id="0x12035a0" class="l126d0" points="0,1060 80,1060 80,1100 0,1100"/>
<polygon id="0xfc5f50" class="l126d0" points="160,1060 320,1060 320,1100 160,1100"/>
<polygon id="0xfc6010" class="l126d0" points="800,1060 960,1060 960,1100 800,1100"/>
<polygon id="0xfe6db0" class="l126d0" points="1040,1060 1280,1060 1280,1100 1040,1100"/>
<polygon id="0xfe6e70" class="l126d0" points="1440,1060 1520,1060 1520,1100 1440,1100"/>
<polygon id="0xffee90" class="l126d0" points="0,1140 80,1140 80,1180 0,1180"/>
<polygon id="0xffef50" class="l126d0" points="720,1140 960,1140 960,1180 720,1180"/>
<polygon id="0x100c810" class="l126d0" points="1040,1140 1280,1140 1280,1180 1040,1180"/>
<polygon id="0x100c8d0" class="l126d0" points="1360,1140 1440,1140 1440,1180 1360,1180"/>
<polygon id="0x109b410" class="l126d0" points="1520,1140 1600,1140 1600,1180 1520,1180"/>
<polygon id="0x109b4d0" class="l126d0" points="20,0 60,0 60,80 20,80"/>
<polygon id="0x1091f60" class="l126d0" points="20,160 60,160 60,320 20,320"/>
<polygon id="0x1092020" class="l126d0" points="20,400 60,400 60,480 20,480"/>
<polygon id="0x1093ef0" class="l126d0" points="20,720 60,720 60,800 20,800"/>
<polygon id="0x1093fb0" class="l126d0" points="20,880 60,880 60,960 20,960"/>
<polygon id="0x10a2820" class="l126d0" points="100,240 140,240 140,320 100,320"/>
<polygon id="0x10a28e0" class="l126d0" points="100,400 140,400 140,640 100,640"/>
<polygon id="0x110d9d0" class="l126d0" points="100,800 140,800 140,880 100,880"/>
<polygon id="0x110b400" class="l126d0" points="100,1040 140,1040 140,1200 100,1200"/>
<polygon id="0x110b4c0" class="l126d0" points="180,160 220,160 220,240 180,240"/>
<polygon id="0x1056cd0" class="l126d0" points="180,400 220,400 220,480 180,480"/>
<polygon id="0x115bea0" class="l126d0" points="180,640 220,640 220,960 180,960"/>
<polygon id="0x115bf60" class="l126d0" points="180,1120 220,1120 220,1200 180,1200"/>
<polygon id="0x11bfe30" class="l126d0" points="260,0 300,0 300,80 260,80"/>
<polygon id="0xf10050" class="l126d0" points="260,240 300,240 300,320 260,320"/>
<polygon id="0xf10110" class="l126d0" points="260,400 300,400 300,560 260,560"/>
<polygon id="0x11a0ea0" class="l126d0" points="260,640 300,640 300,1040 260,1040"/>
<polygon id="0x11a4d60" class="l126d0" points="260,1120 300,1120 300,1200 260,1200"/>
<polygon id="0x11a4e20" class="l126d0" points="340,80 380,80 380,160 340,160"/>
<polygon id="0xfd12c0" class="l126d0" points="340,240 380,240 380,480 340,480"/>
<polygon id="0xfdb600" class="l126d0" points="340,560 380,560 380,880 340,880"/>
<polygon id="0xfdb670" class="l126d0" points="340,1040 380,1040 380,1200 340,1200"/>
<polygon id="0x107e520" class="l126d0" points="420,240 460,240 460,320 420,320"/>
<polygon id="0x107e5e0" class="l126d0" points="420,400 460,400 460,560 420,560"/>
<polygon id="0x11164e0" class="l126d0" points="420,720 460,720 460,800 420,800"/>
<polygon id="0x112bb60" class="l126d0" points="420,1040 460,1040 460,1200 420,1200"/>
<polygon id="0x112bbd0" class="l126d0" points="500,0 540,0 540,80 500,80"/>
<polygon id="0x11dd8f0" class="l126d0" points="500,400 540,400 540,480 500,480"/>
<polygon id="0x11dd9b0" class="l126d0" points="500,560 540,560 540,640 500,640"/>
<polygon id="0x11d5fc0" class="l126d0" points="500,880 540,880 540,1200 500,1200"/>
<polygon id="0x121c570" class="l126d0" points="580,80 620,80 620,240 580,240"/>
<polygon id="0x121c5e0" class="l126d0" points="580,320 620,320 620,480 580,480"/>
<polygon id="0xfdf3b0" class="l126d0" points="580,560 620,560 620,640 580,640"/>
<polygon id="0xfdf470" class="l126d0" points="580,800 620,800 620,1200 580,1200"/>
<polygon id="0xfc1c50" class="l126d0" points="660,0 700,0 700,80 660,80"/>
<polygon id="0x109dcf0" class="l126d0" points="660,160 700,160 700,240 660,240"/>
<polygon id="0x109ddb0" class="l126d0" points="660,320 700,320 700,480 660,480"/>
<polygon id="0x110ba10" class="l126d0" points="660,640 700,640 700,720 660,720"/>
<polygon id="0x110bad0" class="l126d0" points="660,960 700,960 700,1200 660,1200"/>
<polygon id="0x111a030" class="l126d0" points="740,0 780,0 780,240 740,240"/>
<polygon id="0x116ac80" class="l126d0" points="740,320 780,320 780,480 740,480"/>
<polygon id="0x116ad40" class="l126d0" points="740,640 780,640 780,800 740,800"/>
<polygon id="0x118fa30" class="l126d0" points="740,880 780,880 780,960 740,960"/>
<polygon id="0x118faf0" class="l126d0" points="740,1040 780,1040 780,1120 740,1120"/>
<polygon id="0x1009a00" class="l126d0" points="820,80 860,80 860,160 820,160"/>
<polygon id="0x1009ac0" class="l126d0" points="820,240 860,240 860,480 820,480"/>
<polygon id="0x1055c60" class="l126d0" points="820,640 860,640 860,800 820,800"/>
<polygon id="0x1055d20" class="l126d0" points="900,0 940,0 940,160 900,160"/>
<polygon id="0x10a5330" class="l126d0" points="900,480 940,480 940,560 900,560"/>
<polygon id="0x10a53f0" class="l126d0" points="900,800 940,800 940,880 900,880"/>
<polygon id="0x10e9610" class="l126d0" points="900,960 940,960 940,1040 900,1040"/>
<polygon id="0x10e96d0" class="l126d0" points="980,160 1020,160 1020,320 980,320"/>
<polygon id="0x120ab50" class="l126d0" points="980,640 1020,640 1020,880 980,880"/>
<polygon id="0x120ac10" class="l126d0" points="980,1040 1020,1040 1020,1200 980,1200"/>
<polygon id="0x1210a10" class="l126d0" points="1060,80 1100,80 1100,160 1060,160"/>
<polygon id="0x1210ad0" class="l126d0" points="1060,400 1100,400 1100,800 1060,800"/>
<polygon id="0x11ff310" class="l126d0" points="1140,240 1180,240 1180,480 1140,480"/>
<polygon id="0x11ff3d0" class="l126d0" points="1140,640 1180,640 1180,720 1140,720"/>
<polygon id="0x100f4a0" class="l126d0" points="1140,800 1180,800 1180,1040 1140,1040"/>
<polygon id="0x100f560" class="l126d0" points="1220,0 1260,0 1260,80 1220,80"/>
<polygon id="0x104d8a0" class="l126d0" points="1220,240 1260,240 1260,560 1220,560"/>
<polygon id="0x104d960" class="l126d0" points="1220,640 1260,640 1260,720 1220,720"/>
<polygon id="0x10a04c0" class="l126d0" points="1220,800 1260,800 1260,880 1220,880"/>
<polygon id="0x10a0580" class="l126d0" points="1300,320 1340,320 1340,480 1300,480"/>
<polygon id="0x100d300" class="l126d0" points="1300,560 1340,560 1340,720 1300,720"/>
<polygon id="0x100d3c0" class="l126d0" points="1300,800 1340,800 1340,880 1300,880"/>
<polygon id="0x1067290" class="l126d0" points="1300,1040 1340,1040 1340,1200 1300,1200"/>
<polygon id="0x1067350" class="l126d0" points="1380,0 1420,0 1420,80 1380,80"/>
<polygon id="0x105e4e0" class="l126d0" points="1380,160 1420,160 1420,320 1380,320"/>
<polygon id="0x105e5a0" class="l126d0" points="1380,560 1420,560 1420,640 1380,640"/>
<polygon id="0x116c1a0" class="l126d0" points="1380,800 1420,800 1420,1120 1380,1120"/>
<polygon id="0x116c260" class="l126d0" points="1460,0 1500,0 1500,400 1460,400"/>
<polygon id="0x11f92b0" class="l126d0" points="1460,640 1500,640 1500,800 1460,800"/>
<polygon id="0x11f9370" class="l126d0" points="1460,880 1500,880 1500,960 1460,960"/>
<polygon id="0x1201650" class="l126d0" points="1460,1120 1500,1120 1500,1200 1460,1200"/>
<polygon id="0x1201710" class="l126d0" points="1540,80 1580,80 1580,320 1540,320"/>
<polygon id="0xf70d90" class="l126d0" points="1540,400 1580,400 1580,480 1540,480"/>
<polygon id="0xf70e50" class="l126d0" points="1540,560 1580,560 1580,640 1540,640"/>
<polygon id="0x10e3dd0" class="l126d0" points="1540,720 1580,720 1580,800 1540,800"/>
<polygon id="0x10e3e90" class="l126d0" points="1540,960 1580,960 1580,1120 1540,1120"/>
<polygon id="0x1155510" class="l189d4" points="0,0 300,0 300,300 0,300"/>
<polygon id="0x11555d0" class="l1d2" points="10,10 70,10 70,70 10,70"/>
<polygon id="0x1007230" class="l1d2" points="10,90 70,90 70,150 10,150"/>
<polygon id="0x10072f0" class="l1d2" points="10,170 70,170 70,230 10,230"/>
<polygon id="0x109bf90" class="l1d2" points="10,250 70,250 70,310 10,310"/>
<polygon id="0x109c050" class="l1d2" points="10,330 70,330 70,390 10,390"/>
<polygon id="0x10a8f80" class="l1d2" points="10,410 70,410 70,470 10,470"/>
<polygon id="0x10a9040" class="l1d2" points="10,490 70,490 70,550 10,550"/>
<polygon id="0x1091410" class="l1d2" points="10,570 70,570 70,630 10,630"/>
<polygon id="0x10914d0" class="l1d2" points="10,650 70,650 70,710 10,710"/>
<polygon id="0x10ebd60" class="l1d2" points="10,730 70,730 70,790 10,790"/>
<polygon id="0x10ebe20" class="l1d2" points="10,810 70,810 70,870 10,870"/>
<polygon id="0x11eee00" class="l1d2" points="10,890 70,890 70,950 10,950"/>
<polygon id="0x11eeec0" class="l1d2" points="10,970 70,970 70,1030 10,1030"/>
<polygon id="0x1095c20" class="l1d2" points="10,1050 70,1050 70,1110 10,1110"/>
<polygon id="0x1095ce0" class="l1d2" points="10,1130 70,1130 70,1190 10,1190"/>
<polygon id="0x116eaa0" class="l1d2" points="90,10 150,10 150,70 90,70"/>
<polygon id="0x116eb60" class="l1d2" points="90,90 150,90 150,150 90,150"/>
<polygon id="0x11ca8b0" class="l1d2" points="90,170 150,170 150,230 90,230"/>
<polygon id="0x11ca920" class="l1d2" points="90,250 150,250 150,310 90,310"/>
<polygon id="0x11ca9e0" class="l1d2" points="90,330 150,330 150,390 90,390"/>
<polygon id="0x10b1890" class="l1d2" points="90,410 150,410 150,470 90,470"/>
<polygon id="0x10b1950" class="l1d2" points="90,490 150,490 150,550 90,550"/>
<polygon id="0x1117d60" class="l1d2" points="90,570 150,570 150,630 90,630"/>
<polygon id="0x1117e20" class="l1d2" points="90,650 150,650 150,710 90,710"/>
<polygon id="0x1187940" class="l1d2" points="90,730 150,730 150,790 90,790"/>
<polygon id="0x1187a00" class="l1d2" points="90,810 150,810 150,870 90,870"/>
<polygon id="0x11ef240" class="l1d2" points="90,890 150,890 150,950 90,950"/>
<polygon id="0x11ef300" class="l1d2" points="90,970 150,970 150,1030 90,1030"/>
<polygon id="0xf71f40" class="l1d2" points="90,1050 150,1050 150,1110 90,1110"/>
<polygon id="0xf72000" class="l1d2" points="90,1130 150,1130 150,1190 90,1190"/>
<polygon id="0xfcf8f0" class="l1d2" points="170,10 230,10 230,70 170,70"/>
<polygon id="0xfcf9b0" class="l1d2" points="170,90 230,90 230,150 170,150"/>
<polygon id="0xfcfa70" class="l1d2" points="170,170 230,170 230,230 170,230"/>
<polygon id="0x102e650" class="l1d2" points="170,250 230,250 230,310 170,310"/>
<polygon id="0x102e710" class="l1d2" points="170,330 230,330 230,390 170,390"/>
<polygon id="0x102e7d0" class="l1d2" points="170,410 230,410 230,470 170,470"/>
<polygon id="0x1031290" class="l1d2" points="170,490 230,490 230,550 170,550"/>
<polygon id="0x1031350" class="l1d2" points="170,570 230,570 230,630 170,630"/>
<polygon id="0x1031410" class="l1d2" points="170,650 230,650 230,710 170,710"/>
<polygon id="0x1039cf0" class="l1d2" points="170,730 230,730 230,790 170,790"/>
<polygon id="0x1039db0" class="l1d2" points="170,810 230,810 230,870 170,870"/>
<polygon id="0x1039e70" class="l1d2" points="170,890 230,890 230,950 170,950"/>
<polygon id="0x1066140" class="l1d2" points="170,970 230,970 230,1030 170,1030"/>
<polygon id="0x1066200" class="l1d2" points="170,1050 230,1050 230,1110 170,1110"/>
<polygon id="0x10662c0" class="l1d2" points="170,1130 230,1130 230,1190 170,1190"/>
<polygon id="0x1074e10" class="l1d2" points="250,10 310,10 310,70 250,70"/>
<polygon id="0x1074ed0" class="l1d2" points="250,90 310,90 310,150 250,150"/>
<polygon id="0x112c500" class="l1d2" points="250,170 310,170 310,230 250,230"/>
<polygon id="0x112c5c0" class="l1d2" points="250,250 310,250 310,310 250,310"/>
<polygon id="0x112c680" class="l1d2" points="250,330 310,330 310,390 250,390"/>
<polygon id="0x119bc90" class="l1d2" points="250,410 310,410 310,470 250,470"/>
<polygon id="0x119bd50" class="l1d2" points="250,490 310,490 310,550 250,550"/>
<polygon id="0xffae70" class="l1d2" points="250,570 310,570 310,630 250,630"/>
<polygon id="0xffaf30" class="l1d2" points="250,650 310,650 310,710 250,710"/>
<polygon id="0xffaff0" class="l1d2" points="250,730 310,730 310,790 250,790"/>
<polygon id="0x10822a0" class="l1d2" points="250,810 310,810 310,870 250,870"/>
<polygon id="0x1082360" class="l1d2" points="250,890 310,890 310,950 250,950"/>
<polygon id="0x117d100" class="l1d2" points="250,970 310,970 310,1030 250,1030"/>
<polygon id="0x117d1c0" class="l1d2" points="250,1050 310,1050 310,1110 250,1110"/>
<polygon id="0x117d280" class="l1d2" points="250,1130 310,1130 310,1190 250,1190"/>
<polygon id="0x11a00b0" class="l1d2" points="330,10 390,10 390,70 330,70"/>
<polygon id="0x11a0170" class="l1d2" points="330,90 390,90 390,150 330,150"/>
<polygon id="0x11e1a20" class="l1d2" points="330,170 390,170 390,230 330,230"/>
<polygon id="0x11e1ae0" class="l1d2" points="330,250 390,250 390,310 330,310"/>
<polygon id="0x11e1ba0" class="l1d2" points="330,330 390,330 390,390 330,390"/>
<polygon id="0x123bfc0" class="l1d2" points="330,410 390,410 390,470 330,470"/>
<polygon id="0x123c080" class="l1d2" points="330,490 390,490 390,550 330,550"/>
<polygon id="0x123c140" class="l1d2" points="330,570 390,570 390,630 330,630"/>
<polygon id="0x1232bd0" class="l1d2" points="330,650 390,650 390,710 330,710"/>
<polygon id="0x1232c90" class="l1d2" points="330,730 390,730 390,790 330,790"/>
<polygon id="0x1232d50" class="l1d2" points="330,810 390,810 390,870 330,870"/>
<polygon id="0x1232e10" class="l1d2" points="330,890 390,890 390,950 330,950"/>
<polygon id="0x1232ed0" class="l1d2" points="330,970 390,970 390,1030 330,1030"/>
<polygon id="0x1232f90" class="l1d2" points="330,1050 390,1050 390,1110 330,1110"/>
<polygon id="0x1233050" class="l1d2" points="330,1130 390,1130 390,1190 330,1190"/>
<polygon id="0x1233110" class="l1d2" points="410,10 470,10 470,70 410,70"/>
<polygon id="0x12331d0" class="l1d2" points="410,90 470,90 470,150 410,150"/>
<polygon id="0x1233290" class="l1d2" points="410,170 470,170 470,230 410,230"/>
<polygon id="0x1233350" class="l1d2" points="410,250 470,250 470,310 410,310"/>
<polygon id="0x1233410" class="l1d2" points="410,330 470,330 470,390 410,390"/>
<polygon id="0x12334d0" class="l1d2" points="410,410 470,410 470,470 410,470"/>
<polygon id="0x1233590" class="l1d2" points="410,490 470,490 470,550 410,550"/>
<polygon id="0x1233650" class="l1d2" points="410,570 470,570 470,630 410,630"/>
<polygon id="0x1233710" class="l1d2" points="410,650 470,650 470,710 410,710"/>
<polygon id="0x12337d0" class="l1d2" points="410,730 470,730 470,790 410,790"/>
<polygon id="0x1233890" class="l1d2" points="410,810 470,810 470,870 410,870"/>
<polygon id="0x1233950" class="l1d2" points="410,890 470,890 470,950 410,950"/>
<polygon id="0x1233a10" class="l1d2" points="410,970 470,970 470,1030 410,1030"/>
<polygon id="0x1233ad0" class="l1d2" points="410,1050 470,1050 470,1110 410,1110"/>
<polygon id="0x1233b90" class="l1d2" points="410,1130 470,1130 470,1190 410,1190"/>
<polygon id="0x1233c50" class="l1d2" points="490,10 550,10 550,70 490,70"/>
<polygon id="0x1233d10" class="l1d2" points="490,90 550,90 550,150 490,150"/>
<polygon id="0x1233dd0" class="l1d2" points="490,170 550,170 550,230 490,230"/>
<polygon id="0x1233e90" class="l1d2" points="490,250 550,250 550,310 490,310"/>
<polygon id="0x1233f50" class="l1d2" points="490,330 550,330 550,390 490,390"/>
<polygon id="0x1234010" class="l1d2" points="490,410 550,410 550,470 490,470"/>
<polygon id="0x12340d0" class="l1d2" points="490,490 550,490 550,550 490,550"/>
<polygon id="0x1234190" class="l1d2" points="490,570 550,570 550,630 490,630"/>
<polygon id="0x1234250" class="l1d2" points="490,650 550,650 550,710 490,710"/>
<polygon id="0x12323c0" class="l1d2" points="490,730 550,730 550,790 490,790"/>
<polygon id="0x1232480" class="l1d2" points="490,810 550,810 550,870 490,870"/>
<polygon id="0x1232540" class="l1d2" points="490,890 550,890 550,950 490,950"/>
<polygon id="0x1232600" class="l1d2" points="490,970 550,970 550,1030 490,1030"/>
<polygon id="0x12326c0" class="l1d2" points="490,1050 550,1050 550,1110 490,1110"/>
<polygon id="0x1232780" class="l1d2" points="490,1130 550,1130 550,1190 490,1190"/>
<polygon id="0x1232840" class="l1d2" points="570,10 630,10 630,70 570,70"/>
<polygon id="0x1232900" class="l1d2" points="570,90 630,90 630,150 570,150"/>
<polygon id="0x12329c0" class="l1d2" points="570,170 630,170 630,230 570,230"/>
<polygon id="0x1232a80" class="l1d2" points="570,250 630,250 630,310 570,310"/>
<polygon id="0x1232b40" class="l1d2" points="570,330 630,330 630,390 570,390"/>
<polygon id="0x1235370" class="l1d2" points="570,410 630,410 630,470 570,470"/>
<polygon id="0x1235430" class="l1d2" points="570,490 630,490 630,550 570,550"/>
<polygon id="0x12354f0" class="l1d2" points="570,570 630,570 630,630 570,630"/>
<polygon id="0x12355b0" class="l1d2" points="570,650 630,650 630,710 570,710"/>
<polygon id="0x1235670" class="l1d2" points="570,730 630,730 630,790 570,790"/>
<polygon id="0x1235730" class="l1d2" points="570,810 630,810 630,870 570,870"/>
<polygon id="0x12357f0" class="l1d2" points="570,890 630,890 630,950 570,950"/>
<polygon id="0x12358b0" class="l1d2" points="570,970 630,970 630,1030 570,1030"/>
<polygon id="0x1235970" class="l1d2" points="570,1050 630,1050 630,1110 570,1110"/>
<polygon id="0x1235a30" class="l1d2" points="570,1130 630,1130 630,1190 570,1190"/>
<polygon id="0x1235af0" class="l1d2" points="650,10 710,10 710,70 650,70"/>
<polygon id="0x1235bb0" class="l1d2" points="650,90 710,90 710,150 650,150"/>
<polygon id="0x1235c70" class="l1d2" points="650,170 710,170 710,230 650,230"/>
<polygon id="0x1235d30" class="l1d2" points="650,250 710,250 710,310 650,310"/>
<polygon id="0x1235df0" class="l1d2" points="650,330 710,330 710,390 650,390"/>
<polygon id="0x1235eb0" class="l1d2" points="650,410 710,410 710,470 650,470"/>
<polygon id="0x1235f70" class="l1d2" points="650,490 710,490 710,550 650,550"/>
<polygon id="0x1236030" class="l1d2" points="650,570 710,570 710,630 650,630"/>
<polygon id="0x12360f0" class="l1d2" points="650,650 710,650 710,710 650,710"/>
<polygon id="0x12361b0" class="l1d2" points="650,730 710,730 710,790 650,790"/>
<polygon id="0x1236270" class="l1d2" points="650,810 710,810 710,870 650,870"/>
<polygon id="0x1236330" class="l1d2" points="650,890 710,890 710,950 650,950"/>
<polygon id="0x12363f0" class="l1d2" points="650,970 710,970 710,1030 650,1030"/>
<polygon id="0x12364b0" class="l1d2" points="650,1050 710,1050 710,1110 650,1110"/>
<polygon id="0x1236570" class="l1d2" points="650,1130 710,1130 710,1190 650,1190"/>
<polygon id="0x1236630" class="l1d2" points="730,10 790,10 790,70 730,70"/>
<polygon id="0x12366f0" class="l1d2" points="730,90 790,90 790,150 730,150"/>
<polygon id="0x12367b0" class="l1d2" points="730,170 790,170 790,230 730,230"/>
<polygon id="0x1236870" class="l1d2" points="730,250 790,250 790,310 730,310"/>
<polygon id="0x1236930" class="l1d2" points="730,330 790,330 790,390 730,390"/>
<polygon id="0x12369f0" class="l1d2" points="730,410 790,410 790,470 730,470"/>
<polygon id="0x1236ab0" class="l1d2" points="730,490 790,490 790,550 730,550"/>
<polygon id="0x1236b70" class="l1d2" points="730,570 790,570 790,630 730,630"/>
<polygon id="0x1236c30" class="l1d2" points="730,650 790,650 790,710 730,710"/>
<polygon id="0x1236cf0" class="l1d2" points="730,730 790,730 790,790 730,790"/>
<polygon id="0x1236db0" class="l1d2" points="730,810 790,810 790,870 730,870"/>
<polygon id="0x1236e70" class="l1d2" points="730,890 790,890 790,950 730,950"/>
<polygon id="0x1236f30" class="l1d2" points="730,970 790,970 790,1030 730,1030"/>
<polygon id="0x1236ff0" class="l1d2" points="730,1050 790,1050 790,1110 730,1110"/>
<polygon id="0x12370b0" class="l1d2" points="730,1130 790,1130 790,1190 730,1190"/>
<polygon id="0x1237170" class="l1d2" points="810,10 870,10 870,70 810,70"/>
<polygon id="0x1237230" class="l1d2" points="810,90 870,90 870,150 810,150"/>
<polygon id="0x12372f0" class="l1d2" points="810,170 870,170 870,230 810,230"/>
<polygon id="0x12373b0" class="l1d2" points="810,250 870,250 870,310 810,310"/>
<polygon id="0x1237470" class="l1d2" points="810,330 870,330 870,390 810,390"/>
<polygon id="0x1237530" class="l1d2" points="810,410 870,410 870,470 810,470"/>
<polygon id="0x12375f0" class="l1d2" points="810,490 870,490 870,550 810,550"/>
<polygon id="0x12376b0" class="l1d2" points="810,570 870,570 870,630 810,630"/>
<polygon id="0x1237770" class="l1d2" points="810,650 870,650 870,710 810,710"/>
<polygon id="0x1237830" class="l1d2" points="810,730 870,730 870,790 810,790"/>
<polygon id="0x12378f0" class="l1d2" points="810,810 870,810 870,870 810,870"/>
<polygon id="0x12379b0" class="l1d2" points="810,890 870,890 870,950 810,950"/>
<polygon id="0x1237a70" class="l1d2" points="810,970 870,970 870,1030 810,1030"/>
<polygon id="0x1237b30" class="l1d2" points="810,1050 870,1050 870,1110 810,1110"/>
<polygon id="0x1237bf0" class="l1d2" points="810,1130 870,1130 870,1190 810,1190"/>
<polygon id="0x1237cb0" class="l1d2" points="890,10 950,10 950,70 890,70"/>
<polygon id="0x1237d70" class="l1d2" points="890,90 950,90 950,150 890,150"/>
<polygon id="0x1237e30" class="l1d2" points="890,170 950,170 950,230 890,230"/>
<polygon id="0x1237ef0" class="l1d2" points="890,250 950,250 950,310 890,310"/>
<polygon id="0x1237fb0" class="l1d2" points="890,330 950,330 950,390 890,390"/>
<polygon id="0x1238070" class="l1d2" points="890,410 950,410 950,470 890,470"/>
<polygon id="0x1238130" class="l1d2" points="890,490 950,490 950,550 890,550"/>
<polygon id="0x12381f0" class="l1d2" points="890,570 950,570 950,630 890,630"/>
<polygon id="0x12382b0" class="l1d2" points="890,650 950,650 950,710 890,710"/>
<polygon id="0x1238370" class="l1d2" points="890,730 950,730 950,790 890,790"/>
<polygon id="0x1238430" class="l1d2" points="890,810 950,810 950,870 890,870"/>
<polygon id="0x12384f0" class="l1d2" points="890,890 950,890 950,950 890,950"/>
<polygon id="0x12385b0" class="l1d2" points="890,970 950,970 950,1030 890,1030"/>
<polygon id="0x1238670" class="l1d2" points="890,1050 950,1050 950,1110 890,1110"/>
<polygon id="0x1238730" class="l1d2" points="890,1130 950,1130 950,1190 890,1190"/>
<polygon id="0x12387f0" class="l1d2" points="970,10 1030,10 1030,70 970,70"/>
<polygon id="0x12388b0" class="l1d2" points="970,90 1030,90 1030,150 970,150"/>
<polygon id="0x1238970" class="l1d2" points="970,170 1030,170 1030,230 970,230"/>
<polygon id="0x1238a30" class="l1d2" points="970,250 1030,250 1030,310 970,310"/>
<polygon id="0x1238af0" class="l1d2" points="970,330 1030,330 1030,390 970,390"/>
<polygon id="0x1238bb0" class="l1d2" points="970,410 1030,410 1030,470 970,470"/>
<polygon id="0x1238c70" class="l1d2" points="970,490 1030,490 1030,550 970,550"/>
<polygon id="0x1238d30" class="l1d2" points="970,570 1030,570 1030,630 970,630"/>
<polygon id="0x1238df0" class="l1d2" points="970,650 1030,650 1030,710 970,710"/>
<polygon id="0x1238eb0" class="l1d2" points="970,730 1030,730 1030,790 970,790"/>
<polygon id="0x1238f70" class="l1d2" points="970,810 1030,810 1030,870 970,870"/>
<polygon id="0x1239030" class="l1d2" points="970,890 1030,890 1030,950 970,950"/>
<polygon id="0x12390f0" class="l1d2" points="970,970 1030,970 1030,1030 970,1030"/>
<polygon id="0x12391b0" class="l1d2" points="970,1050 1030,1050 1030,1110 970,1110"/>
<polygon id="0x1239270" class="l1d2" points="970,1130 1030,1130 1030,1190 970,1190"/>
<polygon id="0x1239330" class="l1d2" points="1050,10 1110,10 1110,70 1050,70"/>
<polygon id="0x12393f0" class="l1d2" points="1050,90 1110,90 1110,150 1050,150"/>
<polygon id="0x12394b0" class="l1d2" points="1050,170 1110,170 1110,230 1050,230"/>
<polygon id="0x1239570" class="l1d2" points="1050,250 1110,250 1110,310 1050,310"/>
<polygon id="0x1239630" class="l1d2" points="1050,330 1110,330 1110,390 1050,390"/>
<polygon id="0x123c580" class="l1d2" points="1050,410 1110,410 1110,470 1050,470"/>
<polygon id="0x123c640" class="l1d2" points="1050,490 1110,490 1110,550 1050,550"/>
<polygon id="0x123c700" class="l1d2" points="1050,570 1110,570 1110,630 1050,630"/>
<polygon id="0x123c7c0" class="l1d2" points="1050,650 1110,650 1110,710 1050,710"/>
<polygon id="0x123c880" class="l1d2" points="1050,730 1110,730 1110,790 1050,790"/>
<polygon id="0x123c940" class="l1d2" points="1050,810 1110,810 1110,870 1050,870"/>
<polygon id="0x123ca00" class="l1d2" points="1050,890 1110,890 1110,950 1050,950"/>
<polygon id="0x123cac0" class="l1d2" points="1050,970 1110,970 1110,1030 1050,1030"/>
<polygon id="0x123cb80" class="l1d2" points="1050,1050 1110,1050 1110,1110 1050,1110"/>
<polygon id="0x123cc40" class="l1d2" points="1050,1130 1110,1130 1110,1190 1050,1190"/>
<polygon id="0x123cd00" class="l1d2" points="1130,10 1190,10 1190,70 1130,70"/>
<polygon id="0x123cdc0" class="l1d2" points="1130,90 1190,90 1190,150 1130,150"/>
<polygon id="0x123ce80" class="l1d2" points="1130,170 1190,170 1190,230 1130,230"/>
<polygon id="0x123cf40" class="l1d2" points="1130,250 1190,250 1190,310 1130,310"/>
<polygon id="0x123d000" class="l1d2" points="1130,330 1190,330 1190,390 1130,390"/>
<polygon id="0x123d0c0" class="l1d2" points="1130,410 1190,410 1190,470 1130,470"/>
<polygon id="0x123d180" class="l1d2" points="1130,490 1190,490 1190,550 1130,550"/>
<polygon id="0x123d240" class="l1d2" points="1130,570 1190,570 1190,630 1130,630"/>
<polygon id="0x123d300" class="l1d2" points="1130,650 1190,650 1190,710 1130,710"/>
<polygon id="0x123d3c0" class="l1d2" points="1130,730 1190,730 1190,790 1130,790"/>
<polygon id="0x123d480" class="l1d2" points="1130,810 1190,810 1190,870 1130,870"/>
<polygon id="0x123d540" class="l1d2" points="1130,890 1190,890 1190,950 1130,950"/>
<polygon id="0x123d600" class="l1d2" points="1130,970 1190,970 1190,1030 1130,1030"/>
<polygon id="0x123d6c0" class="l1d2" points="1130,1050 1190,1050 1190,1110 1130,1110"/>
<polygon id="0x123d780" class="l1d2" points="1130,1130 1190,1130 1190,1190 1130,1190"/>
<polygon id="0x123d840" class="l1d2" points="1210,10 1270,10 1270,70 1210,70"/>
<polygon id="0x123d900" class="l1d2" points="1210,90 1270,90 1270,150 1210,150"/>
<polygon id="0x123d9c0" class="l1d2" points="1210,170 1270,170 1270,230 1210,230"/>
<polygon id="0x123da80" class="l1d2" points="1210,250 1270,250 1270,310 1210,310"/>
<polygon id="0x123db40" class="l1d2" points="1210,330 1270,330 1270,390 1210,390"/>
<polygon id="0x123dc00" class="l1d2" points="1210,410 1270,410 1270,470 1210,470"/>
<polygon id="0x123dcc0" class="l1d2" points="1210,490 1270,490 1270,550 1210,550"/>
<polygon id="0x123dd80" class="l1d2" points="1210,570 1270,570 1270,630 1210,630"/>
<polygon id="0x123de40" class="l1d2" points="1210,650 1270,650 1270,710 1210,710"/>
<polygon id="0x123df00" class="l1d2" points="1210,730 1270,730 1270,790 1210,790"/>
<polygon id="0x123dfc0" class="l1d2" points="1210,810 1270,810 1270,870 1210,870"/>
<polygon id="0x123e080" class="l1d2" points="1210,890 1270,890 1270,950 1210,950"/>
<polygon id="0x123e140" class="l1d2" points="1210,970 1270,970 1270,1030 1210,1030"/>
<polygon id="0x123e200" class="l1d2" points="1210,1050 1270,1050 1270,1110 1210,1110"/>
<polygon id="0x123e2c0" class="l1d2" points="1210,1130 1270,1130 1270,1190 1210,1190"/>
<polygon id="0x123e380" class="l1d2" points="1290,10 1350,10 1350,70 1290,70"/>
<polygon id="0x123e440" class="l1d2" points="1290,90 1350,90 1350,150 1290,150"/>
<polygon id="0x123e500" class="l1d2" points="1290,170 1350,170 1350,230 1290,230"/>
<polygon id="0x123e5c0" class="l1d2" points="1290,250 1350,250 1350,310 1290,310"/>
<polygon id="0x123e680" class="l1d2" points="1290,330 1350,330 1350,390 1290,390"/>
<polygon id="0x123e740" class="l1d2" points="1290,410 1350,410 1350,470 1290,470"/>
<polygon id="0x123e800" class="l1d2" points="1290,490 1350,490 1350,550 1290,550"/>
<polygon id="0x123e8c0" class="l1d2" points="1290,570 1350,570 1350,630 1290,630"/>
<polygon id="0x123e980" class="l1d2" points="1290,650 1350,650 1350,710 1290,710"/>
<polygon id="0x123ea40" class="l1d2" points="1290,730 1350,730 1350,790 1290,790"/>
<polygon id="0x123eb00" class="l1d2" points="1290,810 1350,810 1350,870 1290,870"/>
<polygon id="0x123ebc0" class="l1d2" points="1290,890 1350,890 1350,950 1290,950"/>
<polygon id="0x123ec80" class="l1d2" points="1290,970 1350,970 1350,1030 1290,1030"/>
<polygon id="0x123ed40" class="l1d2" points="1290,1050 1350,1050 1350,1110 1290,1110"/>
<polygon id="0x123ee00" class="l1d2" points="1290,1130 1350,1130 1350,1190 1290,1190"/>
<polygon id="0x123eec0" class="l1d2" points="1370,10 1430,10 1430,70 1370,70"/>
<polygon id="0x123ef80" class="l1d2" points="1370,90 1430,90 1430,150 1370,150"/>
<polygon id="0x123f040" class="l1d2" points="1370,170 1430,170 1430,230 1370,230"/>
<polygon id="0x123f100" class="l1d2" points="1370,250 1430,250 1430,310 1370,310"/>
<polygon id="0x123f1c0" class="l1d2" points="1370,330 1430,330 1430,390 1370,390"/>
<polygon id="0x123f280" class="l1d2" points="1370,410 1430,410 1430,470 1370,470"/>
<polygon id="0x123f340" class="l1d2" points="1370,490 1430,490 1430,550 1370,550"/>
<polygon id="0x123f400" class="l1d2" points="1370,570 1430,570 1430,630 1370,630"/>
<polygon id="0x123f4c0" class="l1d2" points="1370,650 1430,650 1430,710 1370,710"/>
<polygon id="0x123f580" class="l1d2" points="1370,730 1430,730 1430,790 1370,790"/>
<polygon id="0x123f640" class="l1d2" points="1370,810 1430,810 1430,870 1370,870"/>
<polygon id="0x123f700" class="l1d2" points="1370,890 1430,890 1430,950 1370,950"/>
<polygon id="0x123f7c0" class="l1d2" points="1370,970 1430,970 1430,1030 1370,1030"/>
<polygon id="0x123f880" class="l1d2" points="1370,1050 1430,1050 1430,1110 1370,1110"/>
<polygon id="0x123f940" class="l1d2" points="1370,1130 1430,1130 1430,1190 1370,1190"/>
<polygon id="0x123fa00" class="l1d2" points="1450,10 1510,10 1510,70 1450,70"/>
<polygon id="0x123fac0" class="l1d2" points="1450,90 1510,90 1510,150 1450,150"/>
<polygon id="0x123fb80" class="l1d2" points="1450,170 1510,170 1510,230 1450,230"/>
<polygon id="0x123fc40" class="l1d2" points="1450,250 1510,250 1510,310 1450,310"/>
<polygon id="0x123fd00" class="l1d2" points="1450,330 1510,330 1510,390 1450,390"/>
<polygon id="0x123fdc0" class="l1d2" points="1450,410 1510,410 1510,470 1450,470"/>
<polygon id="0x123fe80" class="l1d2" points="1450,490 1510,490 1510,550 1450,550"/>
<polygon id="0x123ff40" class="l1d2" points="1450,570 1510,570 1510,630 1450,630"/>
<polygon id="0x1240000" class="l1d2" points="1450,650 1510,650 1510,710 1450,710"/>
<polygon id="0x12400c0" class="l1d2" points="1450,730 1510,730 1510,790 1450,790"/>
<polygon id="0x1240180" class="l1d2" points="1450,810 1510,810 1510,870 1450,870"/>
<polygon id="0x1240240" class="l1d2" points="1450,890 1510,890 1510,950 1450,950"/>
<polygon id="0x1240300" class="l1d2" points="1450,970 1510,970 1510,1030 1450,1030"/>
<polygon id="0x12403c0" class="l1d2" points="1450,1050 1510,1050 1510,1110 1450,1110"/>
<polygon id="0x1240480" class="l1d2" points="1450,1130 1510,1130 1510,1190 1450,1190"/>
<polygon id="0x1240540" class="l1d2" points="1530,10 1590,10 1590,70 1530,70"/>
<polygon id="0x1240600" class="l1d2" points="1530,90 1590,90 1590,150 1530,150"/>
<polygon id="0x12406c0" class="l1d2" points="1530,170 1590,170 1590,230 1530,230"/>
<polygon id="0x1240780" class="l1d2" points="1530,250 1590,250 1590,310 1530,310"/>
<polygon id="0x1240840" class="l1d2" points="1530,330 1590,330 1590,390 1530,390"/>
<polygon id="0x1240900" class="l1d2" points="1530,410 1590,410 1590,470 1530,470"/>
<polygon id="0x12409c0" class="l1d2" points="1530,490 1590,490 1590,550 1530,550"/>
<polygon id="0x1240a80" class="l1d2" points="1530,570 1590,570 1590,630 1530,630"/>
<polygon id="0x1240b40" class="l1d2" points="1530,650 1590,650 1590,710 1530,710"/>
<polygon id="0x1240c00" class="l1d2" points="1530,730 1590,730 1590,790 1530,790"/>
<polygon id="0x1240cc0" class="l1d2" points="1530,810 1590,810 1590,870 1530,870"/>
<polygon id="0x1240d80" class="l1d2" points="1530,890 1590,890 1590,950 1530,950"/>
<polygon id="0x1240e40" class="l1d2" points="1530,970 1590,970 1590,1030 1530,1030"/>
<polygon id="0x1240f00" class="l1d2" points="1530,1050 1590,1050 1590,1110 1530,1110"/>
<polygon id="0x1240fc0" class="l1d2" points="1530,1130 1590,1130 1590,1190 1530,1190"/>
<polygon id="0x1241080" class="l5d2" points="10,10 70,10 70,70 10,70"/>
<polygon id="0x1241140" class="l5d2" points="10,90 70,90 70,150 10,150"/>
<polygon id="0x1241200" class="l5d2" points="10,170 70,170 70,230 10,230"/>
<polygon id="0x12412c0" class="l5d2" points="10,250 70,250 70,310 10,310"/>
<polygon id="0x1241380" class="l5d2" points="10,330 70,330 70,390 10,390"/>
<polygon id="0x1241440" class="l5d2" points="10,410 70,410 70,470 10,470"/>
<polygon id="0x1241500" class="l5d2" points="10,490 70,490 70,550 10,550"/>
<polygon id="0x12415c0" class="l5d2" points="10,570 70,570 70,630 10,630"/>
<polygon id="0x1241680" class="l5d2" points="10,650 70,650 70,710 10,710"/>
<polygon id="0x1241740" class="l5d2" points="10,730 70,730 70,790 10,790"/>
<polygon id="0x1241800" class="l5d2" points="10,810 70,810 70,870 10,870"/>
<polygon id="0x12418c0" class="l5d2" points="10,890 70,890 70,950 10,950"/>
<polygon id="0x1241980" class="l5d2" points="10,970 70,970 70,1030 10,1030"/>
<polygon id="0x1241a40" class="l5d2" points="10,1050 70,1050 70,1110 10,1110"/>
<polygon id="0x1241b00" class="l5d2" points="10,1130 70,1130 70,1190 10,1190"/>
<polygon id="0x1241bc0" class="l5d2" points="90,10 150,10 150,70 90,70"/>
<polygon id="0x1241c80" class="l5d2" points="90,90 150,90 150,150 90,150"/>
<polygon id="0x1241d40" class="l5d2" points="90,170 150,170 150,230 90,230"/>
<polygon id="0x1241e00" class="l5d2" points="90,250 150,250 150,310 90,310"/>
<polygon id="0x1241ec0" class="l5d2" points="90,330 150,330 150,390 90,390"/>
<polygon id="0x1241f80" class="l5d2" points="90,410 150,410 150,470 90,470"/>
<polygon id="0x1242040" class="l5d2" points="90,490 150,490 150,550 90,550"/>
<polygon id="0x1242100" class="l5d2" points="90,570 150,570 150,630 90,630"/>
<polygon id="0x12421c0" class="l5d2" points="90,650 150,650 150,710 90,710"/>
<polygon id="0x1242280" class="l5d2" points="90,730 150,730 150,790 90,790"/>
<polygon id="0x1242340" class="l5d2" points="90,810 150,810 150,870 90,870"/>
<polygon id="0x1242400" class="l5d2" points="90,890 150,890 150,950 90,950"/>
<polygon id="0x12424c0" class="l5d2" points="90,970 150,970 150,1030 90,1030"/>
<polygon id="0x1242580" class="l5d2" points="90,1050 150,1050 150,1110 90,1110"/>
<polygon id="0x1242640" class="l5d2" points="90,1130 150,1130 150,1190 90,1190"/>
<polygon id="0x1242700" class="l5d2" points="170,10 230,10 230,70 170,70"/>
<polygon id="0x12427c0" class="l5d2" points="170,90 230,90 230,150 170,150"/>
<polygon id="0x1242880" class="l5d2" points="170,170 230,170 230,230 170,230"/>
<polygon id="0x1242940" class="l5d2" points="170,250 230,250 230,310 170,310"/>
<polygon id="0x1242a00" class="l5d2" points="170,330 230,330 230,390 170,390"/>
<polygon id="0x1242ac0" class="l5d2" points="170,410 230,410 230,470 170,470"/>
<polygon id="0x1242b80" class="l5d2" points="170,490 230,490 230,550 170,550"/>
<polygon id="0x1242c40" class="l5d2" points="170,570 230,570 230,630 170,630"/>
<polygon id="0x1242d00" class="l5d2" points="170,650 230,650 230,710 170,710"/>
<polygon id="0x1242dc0" class="l5d2" points="170,730 230,730 230,790 170,790"/>
<polygon id="0x1242e80" class="l5d2" points="170,810 230,810 230,870 170,870"/>
<polygon id="0x1242f40" class="l5d2" points="170,890 230,890 230,950 170,950"/>
<polygon id="0x1243000" class="l5d2" points="170,970 230,970 230,1030 170,1030"/>
<polygon id="0x12430c0" class="l5d2" points="170,1050 230,1050 230,1110 170,1110"/>
<polygon id="0x1243180" class="l5d2" points="170,1130 230,1130 230,1190 170,1190"/>
<polygon id="0x1243240" class="l5d2" points="250,10 310,10 310,70 250,70"/>
<polygon id="0x1243300" class="l5d2" points="250,90 310,90 310,150 250,150"/>
<polygon id="0x12433c0" class="l5d2" points="250,170 310,170 310,230 250,230"/>
<polygon id="0x1243480" class="l5d2" points="250,250 310,250 310,310 250,310"/>
<polygon id="0x1243540" class="l5d2" points="250,330 310,330 310,390 250,390"/>
<polygon id="0x1243600" class="l5d2" points="250,410 310,410 310,470 250,470"/>
<polygon id="0x12436c0" class="l5d2" points="250,490 310,490 310,550 250,550"/>
<polygon id="0x1243780" class="l5d2" points="250,570 310,570 310,630 250,630"/>
<polygon id="0x1243840" class="l5d2" points="250,650 310,650 310,710 250,710"/>
<polygon id="0x1243900" class="l5d2" points="250,730 310,730 310,790 250,790"/>
<polygon id="0x1234310" class="l5d2" points="250,810 310,810 310,870 250,870"/>
<polygon id="0x12343d0" class="l5d2" points="250,890 310,890 310,950 250,950"/>
<polygon id="0x1234490" class="l5d2" points="250,970 310,970 310,1030 250,1030"/>
<polygon id="0x1234550" class="l5d2" points="250,1050 310,1050 310,1110 250,1110"/>
<polygon id="0x1234610" class="l5d2" points="250,1130 310,1130 310,1190 250,1190"/>
<polygon id="0x12346d0" class="l5d2" points="330,10 390,10 390,70 330,70"/>
<polygon id="0x1234790" class="l5d2" points="330,90 390,90 390,150 330,150"/>
<polygon id="0x1234850" class="l5d2" points="330,170 390,170 390,230 330,230"/>
<polygon id="0x1234910" class="l5d2" points="330,250 390,250 390,310 330,310"/>
<polygon id="0x12349d0" class="l5d2" points="330,330 390,330 390,390 330,390"/>
<polygon id="0x1234a90" class="l5d2" points="330,410 390,410 390,470 330,470"/>
<polygon id="0x1234b50" class="l5d2" points="330,490 390,490 390,550 330,550"/>
<polygon id="0x1234c10" class="l5d2" points="330,570 390,570 390,630 330,630"/>
<polygon id="0x1234cd0" class="l5d2" points="330,650 390,650 390,710 330,710"/>
<polygon id="0x1234d90" class="l5d2" points="330,730 390,730 390,790 330,790"/>
<polygon id="0x1234e50" class="l5d2" points="330,810 390,810 390,870 330,870"/>
<polygon id="0x1234f10" class="l5d2" points="330,890 390,890 390,950 330,950"/>
<polygon id="0x1234fd0" class="l5d2" points="330,970 390,970 390,1030 330,1030"/>
<polygon id="0x1235090" class="l5d2" points="330,1050 390,1050 390,1110 330,1110"/>
<polygon id="0x1235150" class="l5d2" points="330,1130 390,1130 390,1190 330,1190"/>
<polygon id="0x1235210" class="l5d2" points="410,10 470,10 470,70 410,70"/>
<polygon id="0x12459d0" class="l5d2" points="410,90 470,90 470,150 410,150"/>
<polygon id="0x1245a40" class="l5d2" points="410,170 470,170 470,230 410,230"/>
<polygon id="0x1245b00" class="l5d2" points="410,250 470,250 470,310 410,310"/>
<polygon id="0x1245bc0" class="l5d2" points="410,330 470,330 470,390 410,390"/>
<polygon id="0x1245c80" class="l5d2" points="410,410 470,410 470,470 410,470"/>
<polygon id="0x1245d40" class="l5d2" points="410,490 470,490 470,550 410,550"/>
<polygon id="0x1245e00" class="l5d2" points="410,570 470,570 470,630 410,630"/>
<polygon id="0x1245ec0" class="l5d2" points="410,650 470,650 470,710 410,710"/>
<polygon id="0x1245f80" class="l5d2" points="410,730 470,730 470,790 410,790"/>
<polygon id="0x1246040" class="l5d2" points="410,810 470,810 470,870 410,870"/>
<polygon id="0x1246100" class="l5d2" points="410,890 470,890 470,950 410,950"/>
<polygon id="0x12461c0" class="l5d2" points="410,970 470,970 470,1030 410,1030"/>
<polygon id="0x1246280" class="l5d2" points="410,1050 470,1050 470,1110 410,1110"/>
<polygon id="0x1246340" class="l5d2" points="410,1130 470,1130 470,1190 410,1190"/>
<polygon id="0x1246400" class="l5d2" points="490,10 550,10 550,70 490,70"/>
<polygon id="0x12464c0" class="l5d2" points="490,90 550,90 550,150 490,150"/>
<polygon id="0x1246580" class="l5d2" points="490,170 550,170 550,230 490,230"/>
<polygon id="0x1246640" class="l5d2" points="490,250 550,250 550,310 490,310"/>
<polygon id="0x1246700" class="l5d2" points="490,330 550,330 550,390 490,390"/>
<polygon id="0x12467c0" class="l5d2" points="490,410 550,410 550,470 490,470"/>
<polygon id="0x1246880" class="l5d2" points="490,490 550,490 550,550 490,550"/>
<polygon id="0x1246940" class="l5d2" points="490,570 550,570 550,630 490,630"/>
<polygon id="0x1246a00" class="l5d2" points="490,650 550,650 550,710 490,710"/>
<polygon id="0x1246ac0" class="l5d2" points="490,730 550,730 550,790 490,790"/>
<polygon id="0x1246b80" class="l5d2" points="490,810 550,810 550,870 490,870"/>
<polygon id="0x1246c40" class="l5d2" points="490,890 550,890 550,950 490,950"/>
<polygon id="0x1246d00" class="l5d2" points="490,970 550,970 550,1030 490,1030"/>
<polygon id="0x1246dc0" class="l5d2" points="490,1050 550,1050 550,1110 490,1110"/>
<polygon id="0x1246e80" class="l5d2" points="490,1130 550,1130 550,1190 490,1190"/>
<polygon id="0x1246f40" class="l5d2" points="570,10 630,10 630,70 570,70"/>
<polygon id="0x1247000" class="l5d2" points="570,90 630,90 630,150 570,150"/>
<polygon id="0x12470c0" class="l5d2" points="570,170 630,170 630,230 570,230"/>
<polygon id="0x1247180" class="l5d2" points="570,250 630,250 630,310 570,310"/>
<polygon id="0x1247240" class="l5d2" points="570,330 630,330 630,390 570,390"/>
<polygon id="0x1247300" class="l5d2" points="570,410 630,410 630,470 570,470"/>
<polygon id="0x12473c0" class="l5d2" points="570,490 630,490 630,550 570,550"/>
<polygon id="0x1247480" class="l5d2" points="570,570 630,570 630,630 570,630"/>
<polygon id="0x1247540" class="l5d2" points="570,650 630,650 630,710 570,710"/>
<polygon id="0x1247600" class="l5d2" points="570,730 630,730 630,790 570,790"/>
<polygon id="0x12476c0" class="l5d2" points="570,810 630,810 630,870 570,870"/>
<polygon id="0x1247780" class="l5d2" points="570,890 630,890 630,950 570,950"/>
<polygon id="0x1247840" class="l5d2" points="570,970 630,970 630,1030 570,1030"/>
<polygon id="0x1247900" class="l5d2" points="570,1050 630,1050 630,1110 570,1110"/>
<polygon id="0x12479c0" class="l5d2" points="570,1130 630,1130 630,1190 570,1190"/>
<polygon id="0x1247a80" class="l5d2" points="650,10 710,10 710,70 650,70"/>
<polygon id="0x1247b40" class="l5d2" points="650,90 710,90 710,150 650,150"/>
<polygon id="0x1247c00" class="l5d2" points="650,170 710,170 710,230 650,230"/>
<polygon id="0x1247cc0" class="l5d2" points="650,250 710,250 710,310 650,310"/>
<polygon id="0x1247d80" class="l5d2" points="650,330 710,330 710,390 650,390"/>
<polygon id="0x1247e40" class="l5d2" points="650,410 710,410 710,470 650,470"/>
<polygon id="0x1247f00" class="l5d2" points="650,490 710,490 710,550 650,550"/>
<polygon id="0x1247fc0" class="l5d2" points="650,570 710,570 710,630 650,630"/>
<polygon id="0x1248080" class="l5d2" points="650,650 710,650 710,710 650,710"/>
<polygon id="0x1248140" class="l5d2" points="650,730 710,730 710,790 650,790"/>
<polygon id="0x1248200" class="l5d2" points="650,810 710,810 710,870 650,870"/>
<polygon id="0x12482c0" class="l5d2" points="650,890 710,890 710,950 650,950"/>
<polygon id="0x1248380" class="l5d2" points="650,970 710,970 710,1030 650,1030"/>
<polygon id="0x1248440" class="l5d2" points="650,1050 710,1050 710,1110 650,1110"/>
<polygon id="0x1248500" class="l5d2" points="650,1130 710,1130 710,1190 650,1190"/>
<polygon id="0x12485c0" class="l5d2" points="730,10 790,10 790,70 730,70"/>
<polygon id="0x1248680" class="l5d2" points="730,90 790,90 790,150 730,150"/>
<polygon id="0x1248740" class="l5d2" points="730,170 790,170 790,230 730,230"/>
<polygon id="0x1248800" class="l5d2" points="730,250 790,250 790,310 730,310"/>
<polygon id="0x12488c0" class="l5d2" points="730,330 790,330 790,390 730,390"/>
<polygon id="0x1248980" class="l5d2" points="730,410 790,410 790,470 730,470"/>
<polygon id="0x1248a40" class="l5d2" points="730,490 790,490 790,550 730,550"/>
<polygon id="0x1248b00" class="l5d2" points="730,570 790,570 790,630 730,630"/>
<polygon id="0x1248bc0" class="l5d2" points="730,650 790,650 790,710 730,710"/>
<polygon id="0x1248c80" class="l5d2" points="730,730 790,730 790,790 730,790"/>
<polygon id="0x1248d40" class="l5d2" points="730,810 790,810 790,870 730,870"/>
<polygon id="0x1248e00" class="l5d2" points="730,890 790,890 790,950 730,950"/>
<polygon id="0x1248ec0" class="l5d2" points="730,970 790,970 790,1030 730,1030"/>
<polygon id="0x1248f80" class="l5d2" points="730,1050 790,1050 790,1110 730,1110"/>
<polygon id="0x1249040" class="l5d2" points="730,1130 790,1130 790,1190 730,1190"/>
<polygon id="0x1249100" class="l5d2" points="810,10 870,10 870,70 810,70"/>
<polygon id="0x12491c0" class="l5d2" points="810,90 870,90 870,150 810,150"/>
<polygon id="0x1249280" class="l5d2" points="810,170 870,170 870,230 810,230"/>
<polygon id="0x1249340" class="l5d2" points="810,250 870,250 870,310 810,310"/>
<polygon id="0x1249400" class="l5d2" points="810,330 870,330 870,390 810,390"/>
<polygon id="0x12494c0" class="l5d2" points="810,410 870,410 870,470 810,470"/>
<polygon id="0x1249580" class="l5d2" points="810,490 870,490 870,550 810,550"/>
<polygon id="0x1249640" class="l5d2" points="810,570 870,570 870,630 810,630"/>
<polygon id="0x1249700" class="l5d2" points="810,650 870,650 870,710 810,710"/>
<polygon id="0x12497c0" class="l5d2" points="810,730 870,730 870,790 810,790"/>
<polygon id="0x1249880" class="l5d2" points="810,810 870,810 870,870 810,870"/>
<polygon id="0x1249940" class="l5d2" points="810,890 870,890 870,950 810,950"/>
<polygon id="0x1249a00" class="l5d2" points="810,970 870,970 870,1030 810,1030"/>
<polygon id="0x1249ac0" class="l5d2" points="810,1050 870,1050 870,1110 810,1110"/>
<polygon id="0x1249b80" class="l5d2" points="810,1130 870,1130 870,1190 810,1190"/>
<polygon id="0x1249c40" class="l5d2" points="890,10 950,10 950,70 890,70"/>
<polygon id="0x1249d00" class="l5d2" points="890,90 950,90 950,150 890,150"/>
<polygon id="0x1249dc0" class="l5d2" points="890,170 950,170 950,230 890,230"/>
<polygon id="0x1249e80" class="l5d2" points="890,250 950,250 950,310 890,310"/>
<polygon id="0x1249f40" class="l5d2" points="890,330 950,330 950,390 890,390"/>
<polygon id="0x124a000" class="l5d2" points="890,410 950,410 950,470 890,470"/>
<polygon id="0x124a0c0" class="l5d2" points="890,490 950,490 950,550 890,550"/>
<polygon id="0x124a180" class="l5d2" points="890,570 950,570 950,630 890,630"/>
<polygon id="0x124a240" class="l5d2" points="890,650 950,650 950,710 890,710"/>
<polygon id="0x124a300" class="l5d2" points="890,730 950,730 950,790 890,790"/>
<polygon id="0x124a3c0" class="l5d2" points="890,810 950,810 950,870 890,870"/>
<polygon id="0x124a480" class="l5d2" points="890,890 950,890 950,950 890,950"/>
<polygon id="0x124a540" class="l5d2" points="890,970 950,970 950,1030 890,1030"/>
<polygon id="0x124a600" class="l5d2" points="890,1050 950,1050 950,1110 890,1110"/>
<polygon id="0x124a6c0" class="l5d2" points="890,1130 950,1130 950,1190 890,1190"/>
<polygon id="0x124a780" class="l5d2" points="970,10 1030,10 1030,70 970,70"/>
<polygon id="0x124a840" class="l5d2" points="970,90 1030,90 1030,150 970,150"/>
<polygon id="0x124a900" class="l5d2" points="970,170 1030,170 1030,230 970,230"/>
<polygon id="0x124a9c0" class="l5d2" points="970,250 1030,250 1030,310 970,310"/>
<polygon id="0x124aa80" class="l5d2" points="970,330 1030,330 1030,390 970,390"/>
<polygon id="0x124ab40" class="l5d2" points="970,410 1030,410 1030,470 970,470"/>
<polygon id="0x124ac00" class="l5d2" points="970,490 1030,490 1030,550 970,550"/>
<polygon id="0x124acc0" class="l5d2" points="970,570 1030,570 1030,630 970,630"/>
<polygon id="0x124ad80" class="l5d2" points="970,650 1030,650 1030,710 970,710"/>
<polygon id="0x124ae40" class="l5d2" points="970,730 1030,730 1030,790 970,790"/>
<polygon id="0x124af00" class="l5d2" points="970,810 1030,810 1030,870 970,870"/>
<polygon id="0x124afc0" class="l5d2" points="970,890 1030,890 1030,950 970,950"/>
<polygon id="0x124b080" class="l5d2" points="970,970 1030,970 1030,1030 970,1030"/>
<polygon id="0x124b140" class="l5d2" points="970,1050 1030,1050 1030,1110 970,1110"/>
<polygon id="0x124b200" class="l5d2" points="970,1130 1030,1130 1030,1190 970,1190"/>
<polygon id="0x124b2c0" class="l5d2" points="1050,10 1110,10 1110,70 1050,70"/>
<polygon id="0x124b380" class="l5d2" points="1050,90 1110,90 1110,150 1050,150"/>
<polygon id="0x124b440" class="l5d2" points="1050,170 1110,170 1110,230 1050,230"/>
<polygon id="0x124b500" class="l5d2" points="1050,250 1110,250 1110,310 1050,310"/>
<polygon id="0x124b5c0" class="l5d2" points="1050,330 1110,330 1110,390 1050,390"/>
<polygon id="0x124b680" class="l5d2" points="1050,410 1110,410 1110,470 1050,470"/>
<polygon id="0x124b740" class="l5d2" points="1050,490 1110,490 1110,550 1050,550"/>
<polygon id="0x124b800" class="l5d2" points="1050,570 1110,570 1110,630 1050,630"/>
<polygon id="0x124b8c0" class="l5d2" points="1050,650 1110,650 1110,710 1050,710"/>
<polygon id="0x124b980" class="l5d2" points="1050,730 1110,730 1110,790 1050,790"/>
<polygon id="0x124ba40" class="l5d2" points="1050,810 1110,810 1110,870 1050,870"/>
<polygon id="0x124bb00" class="l5d2" points="1050,890 1110,890 1110,950 1050,950"/>
<polygon id="0x124bbc0" class="l5d2" points="1050,970 1110,970 1110,1030 1050,1030"/>
<polygon id="0x124bc80" class="l5d2" points="1050,1050 1110,1050 1110,1110 1050,1110"/>
<polygon id="0x124bd40" class="l5d2" points="1050,1130 1110,1130 1110,1190 1050,1190"/>
<polygon id="0x124be00" class="l5d2" points="1130,10 1190,10 1190,70 1130,70"/>
<polygon id="0x124bec0" class="l5d2" points="1130,90 1190,90 1190,150 1130,150"/>
<polygon id="0x124bf80" class="l5d2" points="1130,170 1190,170 1190,230 1130,230"/>
<polygon id="0x124c040" class="l5d2" points="1130,250 1190,250 1190,310 1130,310"/>
<polygon id="0x124c100" class="l5d2" points="1130,330 1190,330 1190,390 1130,390"/>
<polygon id="0x124c1c0" class="l5d2" points="1130,410 1190,410 1190,470 1130,470"/>
<polygon id="0x124c280" class="l5d2" points="1130,490 1190,490 1190,550 1130,550"/>
<polygon id="0x124c340" class="l5d2" points="1130,570 1190,570 1190,630 1130,630"/>
<polygon id="0x124c400" class="l5d2" points="1130,650 1190,650 1190,710 1130,710"/>
<polygon id="0x124c4c0" class="l5d2" points="1130,730 1190,730 1190,790 1130,790"/>
<polygon id="0x124c580" class="l5d2" points="1130,810 1190,810 1190,870 1130,870"/>
<polygon id="0x124c640" class="l5d2" points="1130,890 1190,890 1190,950 1130,950"/>
<polygon id="0x124c700" class="l5d2" points="1130,970 1190,970 1190,1030 1130,1030"/>
<polygon id="0x124c7c0" class="l5d2" points="1130,1050 1190,1050 1190,1110 1130,1110"/>
<polygon id="0x124c880" class="l5d2" points="1130,1130 1190,1130 1190,1190 1130,1190"/>
<polygon id="0x124c940" class="l5d2" points="1210,10 1270,10 1270,70 1210,70"/>
<polygon id="0x124ca00" class="l5d2" points="1210,90 1270,90 1270,150 1210,150"/>
<polygon id="0x124cac0" class="l5d2" points="1210,170 1270,170 1270,230 1210,230"/>
<polygon id="0x124cb80" class="l5d2" points="1210,250 1270,250 1270,310 1210,310"/>
<polygon id="0x124cc40" class="l5d2" points="1210,330 1270,330 1270,390 1210,390"/>
<polygon id="0x124cd00" class="l5d2" points="1210,410 1270,410 1270,470 1210,470"/>
<polygon id="0x124cdc0" class="l5d2" points="1210,490 1270,490 1270,550 1210,550"/>
<polygon id="0x124ce80" class="l5d2" points="1210,570 1270,570 1270,630 1210,630"/>
<polygon id="0x124cf40" class="l5d2" points="1210,650 1270,650 1270,710 1210,710"/>
<polygon id="0x124d000" class="l5d2" points="1210,730 1270,730 1270,790 1210,790"/>
<polygon id="0x124d0c0" class="l5d2" points="1210,810 1270,810 1270,870 1210,870"/>
<polygon id="0x124d180" class="l5d2" points="1210,890 1270,890 1270,950 1210,950"/>
<polygon id="0x124d240" class="l5d2" points="1210,970 1270,970 1270,1030 1210,1030"/>
<polygon id="0x124d300" class="l5d2" points="1210,1050 1270,1050 1270,1110 1210,1110"/>
<polygon id="0x124d3c0" class="l5d2" points="1210,1130 1270,1130 1270,1190 1210,1190"/>
<polygon id="0x124d480" class="l5d2" points="1290,10 1350,10 1350,70 1290,70"/>
<polygon id="0x124d540" class="l5d2" points="1290,90 1350,90 1350,150 1290,150"/>
<polygon id="0x124d600" class="l5d2" points="1290,170 1350,170 1350,230 1290,230"/>
<polygon id="0x124d6c0" class="l5d2" points="1290,250 1350,250 1350,310 1290,310"/>
<polygon id="0x124d780" class="l5d2" points="1290,330 1350,330 1350,390 1290,390"/>
<polygon id="0x124d840" class="l5d2" points="1290,410 1350,410 1350,470 1290,470"/>
<polygon id="0x124d900" class="l5d2" points="1290,490 1350,490 1350,550 1290,550"/>
<polygon id="0x124d9c0" class="l5d2" points="1290,570 1350,570 1350,630 1290,630"/>
<polygon id="0x124da80" class="l5d2" points="1290,650 1350,650 1350,710 1290,710"/>
<polygon id="0x124db40" class="l5d2" points="1290,730 1350,730 1350,790 1290,790"/>
<polygon id="0x124dc00" class="l5d2" points="1290,810 1350,810 1350,870 1290,870"/>
<polygon id="0x124dcc0" class="l5d2" points="1290,890 1350,890 1350,950 1290,950"/>
<polygon id="0x124dd80" class="l5d2" points="1290,970 1350,970 1350,1030 1290,1030"/>
<polygon id="0x124de40" class="l5d2" points="1290,1050 1350,1050 1350,1110 1290,1110"/>
<polygon id="0x124df00" class="l5d2" points="1290,1130 1350,1130 1350,1190 1290,1190"/>
<polygon id="0x124dfc0" class="l5d2" points="1370,10 1430,10 1430,70 1370,70"/>
<polygon id="0x124e080" class="l5d2" points="1370,90 1430,90 1430,150 1370,150"/>
<polygon id="0x124e140" class="l5d2" points="1370,170 1430,170 1430,230 1370,230"/>
<polygon id="0x124e200" class="l5d2" points="1370,250 1430,250 1430,310 1370,310"/>
<polygon id="0x124e2c0" class="l5d2" points="1370,330 1430,330 1430,390 1370,390"/>
<polygon id="0x124e380" class="l5d2" points="1370,410 1430,410 1430,470 1370,470"/>
<polygon id="0x124e440" class="l5d2" points="1370,490 1430,490 1430,550 1370,550"/>
<polygon id="0x124e500" class="l5d2" points="1370,570 1430,570 1430,630 1370,630"/>
<polygon id="0x124e5c0" class="l5d2" points="1370,650 1430,650 1430,710 1370,710"/>
<polygon id="0x124e680" class="l5d2" points="1370,730 1430,730 1430,790 1370,790"/>
<polygon id="0x124e740" class="l5d2" points="1370,810 1430,810 1430,870 1370,870"/>
<polygon id="0x124e800" class="l5d2" points="1370,890 1430,890 1430,950 1370,950"/>
<polygon id="0x124e8c0" class="l5d2" points="1370,970 1430,970 1430,1030 1370,1030"/>
<polygon id="0x124e980" class="l5d2" points="1370,1050 1430,1050 1430,1110 1370,1110"/>
<polygon id="0x124ea40" class="l5d2" points="1370,1130 1430,1130 1430,1190 1370,1190"/>
<polygon id="0x124eb00" class="l5d2" points="1450,10 1510,10 1510,70 1450,70"/>
<polygon id="0x124ebc0" class="l5d2" points="1450,90 1510,90 1510,150 1450,150"/>
<polygon id="0x124ec80" class="l5d2" points="1450,170 1510,170 1510,230 1450,230"/>
<polygon id="0x124ed40" class="l5d2" points="1450,250 1510,250 1510,310 1450,310"/>
<polygon id="0x124ee00" class="l5d2" points="1450,330 1510,330 1510,390 1450,390"/>
<polygon id="0x124eec0" class="l5d2" points="1450,410 1510,410 1510,470 1450,470"/>
<polygon id="0x124ef80" class="l5d2" points="1450,490 1510,490 1510,550 1450,550"/>
<polygon id="0x124f040" class="l5d2" points="1450,570 1510,570 1510,630 1450,630"/>
<polygon id="0x124f100" class="l5d2" points="1450,650 1510,650 1510,710 1450,710"/>
<polygon id="0x124f1c0" class="l5d2" points="1450,730 1510,730 1510,790 1450,790"/>
<polygon id="0x124f280" class="l5d2" points="1450,810 1510,810 1510,870 1450,870"/>
<polygon id="0x124f340" class="l5d2" points="1450,890 1510,890 1510,950 1450,950"/>
<polygon id="0x124f400" class="l5d2" points="1450,970 1510,970 1510,1030 1450,1030"/>
<polygon id="0x124f4c0" class="l5d2" points="1450,1050 1510,1050 1510,1110 1450,1110"/>
<polygon id="0x124f580" class="l5d2" points="1450,1130 1510,1130 1510,1190 1450,1190"/>
<polygon id="0x124f640" class="l5d2" points="1530,10 1590,10 1590,70 1530,70"/>
<polygon id="0x124f700" class="l5d2" points="1530,90 1590,90 1590,150 1530,150"/>
<polygon id="0x124f7c0" class="l5d2" points="1530,170 1590,170 1590,230 1530,230"/>
<polygon id="0x124f880" class="l5d2" points="1530,250 1590,250 1590,310 1530,310"/>
<polygon id="0x124f940" class="l5d2" points="1530,330 1590,330 1590,390 1530,390"/>
<polygon id="0x124fa00" class="l5d2" points="1530,410 1590,410 1590,470 1530,470"/>
<polygon id="0x124fac0" class="l5d2" points="1530,490 1590,490 1590,550 1530,550"/>
<polygon id="0x124fb80" class="l5d2" points="1530,570 1590,570 1590,630 1530,630"/>
<polygon id="0x124fc40" class="l5d2" points="1530,650 1590,650 1590,710 1530,710"/>
<polygon id="0x124fd00" class="l5d2" points="1530,730 1590,730 1590,790 1530,790"/>
<polygon id="0x124fdc0" class="l5d2" points="1530,810 1590,810 1590,870 1530,870"/>
<polygon id="0x124fe80" class="l5d2" points="1530,890 1590,890 1590,950 1530,950"/>
<polygon id="0x124ff40" class="l5d2" points="1530,970 1590,970 1590,1030 1530,1030"/>
<polygon id="0x1250000" class="l5d2" points="1530,1050 1590,1050 1590,1110 1530,1110"/>
<polygon id="0x12500c0" class="l5d2" points="1530,1130 1590,1130 1590,1190 1530,1190"/>
</g>
</svg>