<?xml version="1.0" encoding="UTF-8"?>
<svg xmlns="http://www.w3.org/2000/svg" xmlns:xlink="http://www.w3.org/1999/xlink" width="1760" height="1360" viewBox="-80 -1280 1760 1360">
<defs>
<style type="text/css">
.l1d22 {stroke: #0067A5; fill: #0067A5; fill-opacity: 0.5;}
.l5d22 {stroke: #B3446C; fill: #B3446C; fill-opacity: 0.5;}
.l126d0 {stroke: #E68FAC; fill: #E68FAC; fill-opacity: 0.5;}
.l189d4 {stroke: #A1CAF1; fill: #A1CAF1; fill-opacity: 0.5;}
</style>
</defs>
<rect x="-80" y="-1280" width="1760" height="1360" fill="#222222" stroke="none"/>
<g id="my_logo" transform="scale(1 -1)">
<polygon id="0xcc4350" class="l126d0" points="0,20 80,20 80,60 0,60"/>
<polygon id="0xd54680" class="l126d0" points="480,20 800,20 800,60 480,60"/>
<polygon id="0xd4a550" class="l126d0" points="1040,20 1280,20 1280,60 1040,60"/>
<polygon id="0xdadf90" class="l126d0" points="1440,20 1600,20 1600,60 1440,60"/>
<polygon id="0xe64ae0" class="l126d0" points="240,100 320,100 320,140 240,140"/>
<polygon id="0xf094b0" class="l126d0" points="480,100 560,100 560,140 480,140"/>
<polygon id="0xe5f120" class="l126d0" points="640,100 1120,100 1120,140 640,140"/>
<polygon id="0xe611e0" class="l126d0" points="1200,100 1440,100 1440,140 1200,140"/>
<polygon id="0xeb49b0" class="l126d0" points="1520,100 1600,100 1600,140 1520,140"/>
<polygon id="0xefba20" class="l126d0" points="80,180 480,180 480,220 80,220"/>
<polygon id="0xf34090" class="l126d0" points="560,180 640,180 640,220 560,220"/>
<polygon id="0xef2d80" class="l126d0" points="800,180 1200,180 1200,220 800,220"/>
<polygon id="0xece940" class="l126d0" points="1360,180 1440,180 1440,220 1360,220"/>
<polygon id="0xef5b50" class="l126d0" points="1520,180 1600,180 1600,220 1520,220"/>
<polygon id="0xf14f60" class="l126d0" points="160,260 400,260 400,300 160,300"/>
<polygon id="0xd8a930" class="l126d0" points="560,260 640,260 640,300 560,300"/>
<polygon id="0xe76110" class="l126d0" points="720,260 960,260 960,300 720,300"/>
<polygon id="0xe9f130" class="l126d0" points="1440,260 1600,260 1600,300 1440,300"/>
<polygon id="0xe86ac0" class="l126d0" points="80,340 240,340 240,380 80,380"/>
<polygon id="0xec8ee0" class="l126d0" points="320,340 800,340 800,380 320,380"/>
<polygon id="0xed9650" class="l126d0" points="880,340 1120,340 1120,380 880,380"/>
<polygon id="0xeccd20" class="l126d0" points="1280,340 1360,340 1360,380 1280,380"/>
<polygon id="0xc67eb0" class="l126d0" points="320,420 400,420 400,460 320,460"/>
<polygon id="0xd0c510" class="l126d0" points="560,420 960,420 960,460 560,460"/>
<polygon id="0xd05a90" class="l126d0" points="1040,420 1280,420 1280,460 1040,460"/>
<polygon id="0xc95b10" class="l126d0" points="1360,420 1520,420 1520,460 1360,460"/>
<polygon id="0xe38c10" class="l126d0" points="160,500 320,500 320,540 160,540"/>
<polygon id="0xe65fd0" class="l126d0" points="400,500 480,500 480,540 400,540"/>
<polygon id="0xe97fd0" class="l126d0" points="560,500 800,500 800,540 560,540"/>
<polygon id="0xe17590" class="l126d0" points="960,500 1120,500 1120,540 960,540"/>
<polygon id="0xe2b5c0" class="l126d0" points="1360,500 1600,500 1600,540 1360,540"/>
<polygon id="0xe543f0" class="l126d0" points="0,580 160,580 160,620 0,620"/>
<polygon id="0xea0500" class="l126d0" points="240,580 320,580 320,620 240,620"/>
<polygon id="0xf2b920" class="l126d0" points="640,580 1040,580 1040,620 640,620"/>
<polygon id="0xf2b9e0" class="l126d0" points="1120,580 1440,580 1440,620 1120,620"/>
<polygon id="0xf2baa0" class="l126d0" points="1520,580 1600,580 1600,620 1520,620"/>
<polygon id="0xf2bb60" class="l126d0" points="160,660 240,660 240,700 160,700"/>
<polygon id="0xf2bc20" class="l126d0" points="400,660 560,660 560,700 400,700"/>
<polygon id="0xf2bce0" class="l126d0" points="800,660 880,660 880,700 800,700"/>
<polygon id="0xf2bda0" class="l126d0" points="1040,660 1200,660 1200,700 1040,700"/>
<polygon id="0xf2be60" class="l126d0" points="1280,660 1520,660 1520,700 1280,700"/>
<polygon id="0xf2bf20" class="l126d0" points="160,740 320,740 320,780 160,780"/>
<polygon id="0xf2bfe0" class="l126d0" points="480,740 560,740 560,780 480,780"/>
<polygon id="0xf2c0a0" class="l126d0" points="640,740 960,740 960,780 640,780"/>
<polygon id="0xf2c160" class="l126d0" points="1040,740 1120,740 1120,780 1040,780"/>
<polygon id="0xf2c220" class="l126d0" points="1280,740 1360,740 1360,780 1280,780"/>
<polygon id="0xf2c2e0" class="l126d0" points="1520,740 1600,740 1600,780 1520,780"/>
<polygon id="0xf2c3a0" class="l126d0" points="160,820 240,820 240,860 160,860"/>
<polygon id="0xf2c460" class="l126d0" points="640,820 800,820 800,860 640,860"/>
<polygon id="0xf2c520" class="l126d0" points="880,820 960,820 960,860 880,860"/>
<polygon id="0xf2c5e0" class="l126d0" points="1120,820 1280,820 1280,860 1120,860"/>
<polygon id="0xf2c6a0" class="l126d0" points="1520,820 1600,820 1600,860 1520,860"/>
<polygon id="0xf2c760" class="l126d0" points="80,900 160,900 160,940 80,940"/>
<polygon id="0xf2c820" class="l126d0" points="240,900 480,900 480,940 240,940"/>
<polygon id="0xf2c8e0" class="l126d0" points="880,900 1040,900 1040,940 880,940"/>
<polygon id="0xf2c9a0" class="l126d0" points="1200,900 1440,900 1440,940 1200,940"/>
<polygon id="0xf2ca60" class="l126d0" points="1520,900 1600,900 1600,940 1520,940"/>
<polygon id="0xf2cb20" class="l126d0" points="0,980 80,980 80,1020 0,1020"/>
<polygon id="0xf2cbe0" class="l126d0" points="240,980 480,980 480,1020 240,1020"/>
<polygon id="0xf2cca0" class="l126d0" points="640,980 720,980 720,1020 640,1020"/>
<polygon id="0xf2cd60" class="l126d0" points="800,980 880,980 880,1020 800,1020"/>
<polygon id="0xf2ce20" class="l126d0" points="960,980 1040,980 1040,1020 960,1020"/>
<polygon id="0xf2cee0" class="l126d0" points="1120,980 1200,980 1200,1020 1120,1020"/>
<polygon id="0xf2cfa0" class="l126d0" points="1280,980 1600,980 1600,1020 1280,1020"/>
<polygon id="0xf2d060" class="l126d0" points="240,1060 320,1060 320,1100 240,1100"/>
<polygon id="0xe85c10" class="l126d0" points="480,1060 800,1060 800,1100 480,1100"/>
<polygon id="0xec7170" class="l126d0" points="880,1060 1120,1060 1120,1100 880,1100"/>
<polygon id="0xf0de10" class="l126d0" points="1200,1060 1280,1060 1280,1100 1200,1100"/>
<polygon id="0xcb1d80" class="l126d0" points="1440,1060 1600,1060 1600,1100 1440,1100"/>
<polygon id="0xcdd060" class="l126d0" points="0,1140 320,1140 320,1180 0,1180"/>
<polygon id="0xd52eb0" class="l126d0" points="400,1140 560,1140 560,1180 400,1180"/>
<polygon id="0xd47040" class="l126d0" points="640,1140 800,1140 800,1180 640,1180"/>
<polygon id="0xe09660" class="l126d0" points="1280,1140 1600,1140 1600,1180 1280,1180"/>
<polygon id="0xe0e780" class="l126d0" points="20,80 60,80 60,560 20,560"/>
<polygon id="0xe1aff0" class="l126d0" points="20,640 60,640 60,960 20,960"/>
<polygon id="0xedc720" class="l126d0" points="20,1040 60,1040 60,1120 20,1120"/>
<polygon id="0xe911c0" class="l126d0" points="100,0 140,0 140,160 100,160"/>
<polygon id="0xcb0690" class="l126d0" points="100,240 140,240 140,320 100,320"/>
<polygon id="0xd57f60" class="l126d0" points="100,400 140,400 140,560 100,560"/>
<polygon id="0xe570c0" class="l126d0" points="100,640 140,640 140,880 100,880"/>
<polygon id="0xe59b30" class="l126d0" points="100,960 140,960 140,1120 100,1120"/>
<polygon id="0xea81b0" class="l126d0" points="180,0 220,0 220,160 180,160"/>
<polygon id="0xe88240" class="l126d0" points="180,400 220,400 220,480 180,480"/>
<polygon id="0xf042a0" class="l126d0" points="180,560 220,560 220,640 180,640"/>
<polygon id="0xe71050" class="l126d0" points="180,880 220,880 220,1120 180,1120"/>
<polygon id="0xe8b320" class="l126d0" points="260,0 300,0 300,80 260,80"/>
<polygon id="0xed8c20" class="l126d0" points="260,320 300,320 300,480 260,480"/>
<polygon id="0xed8c90" class="l126d0" points="260,640 300,640 300,720 260,720"/>
<polygon id="0xecefe0" class="l126d0" points="260,800 300,800 300,880 260,880"/>
<polygon id="0xf0d4d0" class="l126d0" points="340,0 380,0 380,160 340,160"/>
<polygon id="0xcd85e0" class="l126d0" points="340,480 380,480 380,880 340,880"/>
<polygon id="0xcd8650" class="l126d0" points="340,1040 380,1040 380,1200 340,1200"/>
<polygon id="0xbce210" class="l126d0" points="420,0 460,0 460,160 420,160"/>
<polygon id="0xcf3440" class="l126d0" points="420,240 460,240 460,320 420,320"/>
<polygon id="0xd0e1e0" class="l126d0" points="420,400 460,400 460,480 420,480"/>
<polygon id="0xd37610" class="l126d0" points="420,560 460,560 460,640 420,640"/>
<polygon id="0xd5b4f0" class="l126d0" points="420,720 460,720 460,880 420,880"/>
<polygon id="0xd9e9d0" class="l126d0" points="420,1040 460,1040 460,1120 420,1120"/>
<polygon id="0xd76ae0" class="l126d0" points="500,160 540,160 540,320 500,320"/>
<polygon id="0xe406c0" class="l126d0" points="500,400 540,400 540,640 500,640"/>
<polygon id="0xe46ea0" class="l126d0" points="500,800 540,800 540,1040 500,1040"/>
<polygon id="0xeb9b10" class="l126d0" points="580,80 620,80 620,160 580,160"/>
<polygon id="0xe78a90" class="l126d0" points="580,560 620,560 620,1040 580,1040"/>
<polygon id="0xee6f00" class="l126d0" points="580,1120 620,1120 620,1200 580,1200"/>
<polygon id="0xefd280" class="l126d0" points="660,160 700,160 700,320 660,320"/>
<polygon id="0xcdff80" class="l126d0" points="660,640 700,640 700,720 660,720"/>
<polygon id="0xce0040" class="l126d0" points="660,880 700,880 700,960 660,960"/>
<polygon id="0xcf8270" class="l126d0" points="740,160 780,160 780,240 740,240"/>
<polygon id="0xcf8330" class="l126d0" points="740,640 780,640 780,720 740,720"/>
<polygon id="0xd8dd20" class="l126d0" points="740,880 780,880 780,1040 740,1040"/>
<polygon id="0xd8dde0" class="l126d0" points="820,0 860,0 860,80 820,80"/>
<polygon id="0xe05950" class="l126d0" points="820,320 860,320 860,400 820,400"/>
<polygon id="0xe05a10" class="l126d0" points="820,480 860,480 860,560 820,560"/>
<polygon id="0xd50db0" class="l126d0" points="820,800 860,800 860,960 820,960"/>
<polygon id="0xd50e70" class="l126d0" points="820,1040 860,1040 860,1200 820,1200"/>
<polygon id="0xe55c00" class="l126d0" points="900,0 940,0 940,80 900,80"/>
<polygon id="0xe55cc0" class="l126d0" points="900,480 940,480 940,560 900,560"/>
<polygon id="0xc07d90" class="l126d0" points="900,640 940,640 940,720 900,720"/>
<polygon id="0xc07e50" class="l126d0" points="900,960 940,960 940,1040 900,1040"/>
<polygon id="0xe9a150" class="l126d0" points="900,1120 940,1120 940,1200 900,1200"/>
<polygon id="0xe9a210" class="l126d0" points="980,0 1020,0 1020,80 980,80"/>
<polygon id="0xe9e060" class="l126d0" points="980,240 1020,240 1020,320 980,320"/>
<polygon id="0xe9e120" class="l126d0" points="980,400 1020,400 1020,480 980,480"/>
<polygon id="0xca94d0" class="l126d0" points="980,640 1020,640 1020,880 980,880"/>
<polygon id="0xca9590" class="l126d0" points="980,1120 1020,1120 1020,1200 980,1200"/>
<polygon id="0xcca440" class="l126d0" points="1060,240 1100,240 1100,320 1060,320"/>
<polygon id="0xcca500" class="l126d0" points="1060,560 1100,560 1100,640 1060,640"/>
<polygon id="0xcd47d0" class="l126d0" points="1060,800 1100,800 1100,1040 1060,1040"/>
<polygon id="0xcd4890" class="l126d0" points="1060,1120 1100,1120 1100,1200 1060,1200"/>
<polygon id="0xcf4660" class="l126d0" points="1140,80 1180,80 1180,160 1140,160"/>
<polygon id="0xcf4720" class="l126d0" points="1140,240 1180,240 1180,400 1140,400"/>
<polygon id="0xe10a30" class="l126d0" points="1140,480 1180,480 1180,560 1140,560"/>
<polygon id="0xe25cb0" class="l126d0" points="1140,720 1180,720 1180,800 1140,800"/>
<polygon id="0xe25d20" class="l126d0" points="1140,880 1180,880 1180,960 1140,960"/>
<polygon id="0xed77f0" class="l126d0" points="1140,1040 1180,1040 1180,1200 1140,1200"/>
<polygon id="0xed78b0" class="l126d0" points="1220,160 1260,160 1260,400 1220,400"/>
<polygon id="0xecfec0" class="l126d0" points="1220,480 1260,480 1260,560 1220,560"/>
<polygon id="0xd09610" class="l126d0" points="1220,640 1260,640 1260,800 1220,800"/>
<polygon id="0xd09680" class="l126d0" points="1220,960 1260,960 1260,1040 1220,1040"/>
<polygon id="0xcba970" class="l126d0" points="1220,1120 1260,1120 1260,1200 1220,1200"/>
<polygon id="0xcbaa30" class="l126d0" points="1300,0 1340,0 1340,80 1300,80"/>
<polygon id="0xd9f280" class="l126d0" points="1300,160 1340,160 1340,320 1300,320"/>
<polygon id="0xd97c30" class="l126d0" points="1300,400 1340,400 1340,560 1300,560"/>
<polygon id="0xd97cf0" class="l126d0" points="1300,800 1340,800 1340,880 1300,880"/>
<polygon id="0xe05f60" class="l126d0" points="1300,1040 1340,1040 1340,1120 1300,1120"/>
<polygon id="0xe06020" class="l126d0" points="1380,0 1420,0 1420,80 1380,80"/>
<polygon id="0xe14580" class="l126d0" points="1380,240 1420,240 1420,400 1380,400"/>
<polygon id="0xebbeb0" class="l126d0" points="1380,720 1420,720 1420,880 1380,880"/>
<polygon id="0xebbf70" class="l126d0" points="1380,1040 1420,1040 1420,1120 1380,1120"/>
<polygon id="0xe6e840" class="l126d0" points="1460,80 1500,80 1500,240 1460,240"/>
<polygon id="0xe6e900" class="l126d0" points="1460,320 1500,320 1500,400 1460,400"/>
<polygon id="0xd030a0" class="l126d0" points="1460,560 1500,560 1500,640 1460,640"/>
<polygon id="0xd03160" class="l126d0" points="1460,720 1500,720 1500,960 1460,960"/>
<polygon id="0xd4fd90" class="l126d0" points="1540,320 1580,320 1580,480 1540,480"/>
<polygon id="0xd4fe50" class="l126d0" points="1540,640 1580,640 1580,720 1540,720"/>
<polygon id="0xde3920" class="l189d4" points="0,0 300,0 300,300 0,300"/>
<polygon id="0xde39e0" class="l1d22" points="10,10 70,10 70,70 10,70"/>
<polygon id="0xed4db0" class="l1d22" points="10,90 70,90 70,150 10,150"/>
<polygon id="0xed4e70" class="l1d22" points="10,170 70,170 70,230 10,230"/>
<polygon id="0xf04830" class="l1d22" points="10,250 70,250 70,310 10,310"/>
<polygon id="0xf048f0" class="l1d22" points="10,330 70,330 70,390 10,390"/>
<polygon id="0xf0a6f0" class="l1d22" points="10,410 70,410 70,470 10,470"/>
<polygon id="0xf0a7b0" class="l1d22" points="10,490 70,490 70,550 10,550"/>
<polygon id="0xd08670" class="l1d22" points="10,570 70,570 70,630 10,630"/>
<polygon id="0xd08730" class="l1d22" points="10,650 70,650 70,710 10,710"/>
<polygon id="0xd05040" class="l1d22" points="10,730 70,730 70,790 10,790"/>
<polygon id="0xd05100" class="l1d22" points="10,810 70,810 70,870 10,870"/>
<polygon id="0xd479d0" class="l1d22" points="10,890 70,890 70,950 10,950"/>
<polygon id="0xd47a90" class="l1d22" points="10,970 70,970 70,1030 10,1030"/>
<polygon id="0xd41810" class="l1d22" points="10,1050 70,1050 70,1110 10,1110"/>
<polygon id="0xd418d0" class="l1d22" points="10,1130 70,1130 70,1190 10,1190"/>
<polygon id="0xd77a30" class="l1d22" points="90,10 150,10 150,70 90,70"/>
<polygon id="0xd77af0" class="l1d22" points="90,90 150,90 150,150 90,150"/>
<polygon id="0xeaa4a0" class="l1d22" points="90,170 150,170 150,230 90,230"/>
<polygon id="0xeaa560" class="l1d22" points="90,250 150,250 150,310 90,310"/>
<polygon id="0xcc56d0" class="l1d22" points="90,330 150,330 150,390 90,390"/>
<polygon id="0xcc5790" class="l1d22" points="90,410 150,410 150,470 90,470"/>
<polygon id="0xd01200" class="l1d22" points="90,490 150,490 150,550 90,550"/>
<polygon id="0xd012c0" class="l1d22" points="90,570 150,570 150,630 90,630"/>
<polygon id="0xd60940" class="l1d22" points="90,650 150,650 150,710 90,710"/>
<polygon id="0xd60a00" class="l1d22" points="90,730 150,730 150,790 90,790"/>
<polygon id="0xd57b50" class="l1d22" points="90,810 150,810 150,870 90,870"/>
<polygon id="0xd57c10" class="l1d22" points="90,890 150,890 150,950 90,950"/>
<polygon id="0xee58f0" class="l1d22" points="90,970 150,970 150,1030 90,1030"/>
<polygon id="0xee59b0" class="l1d22" points="90,1050 150,1050 150,1110 90,1110"/>
<polygon id="0xefb0b0" class="l1d22" points="90,1130 150,1130 150,1190 90,1190"/>
<polygon id="0xefb170" class="l1d22" points="170,10 230,10 230,70 170,70"/>
<polygon id="0xc675e0" class="l1d22" points="170,90 230,90 230,150 170,150"/>
<polygon id="0xc676a0" class="l1d22" points="170,170 230,170 230,230 170,230"/>
<polygon id="0xdde0e0" class="l1d22" points="170,250 230,250 230,310 170,310"/>
<polygon id="0xdde1a0" class="l1d22" points="170,330 230,330 230,390 170,390"/>
<polygon id="0xe4f5a0" class="l1d22" points="170,410 230,410 230,470 170,470"/>
<polygon id="0xe4f660" class="l1d22" points="170,490 230,490 230,550 170,550"/>
<polygon id="0xcfd940" class="l1d22" points="170,570 230,570 230,630 170,630"/>
<polygon id="0xcfda00" class="l1d22" points="170,650 230,650 230,710 170,710"/>
<polygon id="0xd8bd50" class="l1d22" points="170,730 230,730 230,790 170,790"/>
<polygon id="0xd8be10" class="l1d22" points="170,810 230,810 230,870 170,870"/>
<polygon id="0xda2ec0" class="l1d22" points="170,890 230,890 230,950 170,950"/>
<polygon id="0xda2f80" class="l1d22" points="170,970 230,970 230,1030 170,1030"/>
<polygon id="0xde6070" class="l1d22" points="170,1050 230,1050 230,1110 170,1110"/>
<polygon id="0xde6130" class="l1d22" points="170,1130 230,1130 230,1190 170,1190"/>
<polygon id="0xe3ffc0" class="l1d22" points="250,10 310,10 310,70 250,70"/>
<polygon id="0xe40080" class="l1d22" points="250,90 310,90 310,150 250,150"/>
<polygon id="0xe1d590" class="l1d22" points="250,170 310,170 310,230 250,230"/>
<polygon id="0xe1d650" class="l1d22" points="250,250 310,250 310,310 250,310"/>
<polygon id="0xee8a90" class="l1d22" points="250,330 310,330 310,390 250,390"/>
<polygon id="0xee8b50" class="l1d22" points="250,410 310,410 310,470 250,470"/>
<polygon id="0xd8fe20" class="l1d22" points="250,490 310,490 310,550 250,550"/>
<polygon id="0xd8fee0" class="l1d22" points="250,570 310,570 310,630 250,630"/>
<polygon id="0xe68800" class="l1d22" points="250,650 310,650 310,710 250,710"/>
<polygon id="0xe688c0" class="l1d22" points="250,730 310,730 310,790 250,790"/>
<polygon id="0xe5f530" class="l1d22" points="250,810 310,810 310,870 250,870"/>
<polygon id="0xe5f5a0" class="l1d22" points="250,890 310,890 310,950 250,950"/>
<polygon id="0xe5f660" class="l1d22" points="250,970 310,970 310,1030 250,1030"/>
<polygon id="0xec4800" class="l1d22" points="250,1050 310,1050 310,1110 250,1110"/>
<polygon id="0xec48c0" class="l1d22" points="250,1130 310,1130 310,1190 250,1190"/>
<polygon id="0xd1ec70" class="l1d22" points="330,10 390,10 390,70 330,70"/>
<polygon id="0xd1ed30" class="l1d22" points="330,90 390,90 390,150 330,150"/>
<polygon id="0xdab780" class="l1d22" points="330,170 390,170 390,230 330,230"/>
<polygon id="0xdab840" class="l1d22" points="330,250 390,250 390,310 330,310"/>
<polygon id="0xd9d7b0" class="l1d22" points="330,330 390,330 390,390 330,390"/>
<polygon id="0xd9d870" class="l1d22" points="330,410 390,410 390,470 330,470"/>
<polygon id="0xe122b0" class="l1d22" points="330,490 390,490 390,550 330,550"/>
<polygon id="0xe12370" class="l1d22" points="330,570 390,570 390,630 330,630"/>
<polygon id="0xe79180" class="l1d22" points="330,650 390,650 390,710 330,710"/>
<polygon id="0xe79240" class="l1d22" points="330,730 390,730 390,790 330,790"/>
<polygon id="0xe808a0" class="l1d22" points="330,810 390,810 390,870 330,870"/>
<polygon id="0xe80960" class="l1d22" points="330,890 390,890 390,950 330,950"/>
<polygon id="0xee9140" class="l1d22" points="330,970 390,970 390,1030 330,1030"/>
<polygon id="0xee9200" class="l1d22" points="330,1050 390,1050 390,1110 330,1110"/>
<polygon id="0xc68790" class="l1d22" points="330,1130 390,1130 390,1190 330,1190"/>
<polygon id="0xc68850" class="l1d22" points="410,10 470,10 470,70 410,70"/>
<polygon id="0xcc8ac0" class="l1d22" points="410,90 470,90 470,150 410,150"/>
<polygon id="0xcc8b80" class="l1d22" points="410,170 470,170 470,230 410,230"/>
<polygon id="0xcc8c40" class="l1d22" points="410,250 470,250 470,310 410,310"/>
<polygon id="0xd28780" class="l1d22" points="410,330 470,330 470,390 410,390"/>
<polygon id="0xd28840" class="l1d22" points="410,410 470,410 470,470 410,470"/>
<polygon id="0xd28900" class="l1d22" points="410,490 470,490 470,550 410,550"/>
<polygon id="0xd2b3c0" class="l1d22" points="410,570 470,570 470,630 410,630"/>
<polygon id="0xd2b480" class="l1d22" points="410,650 470,650 470,710 410,710"/>
<polygon id="0xd2b540" class="l1d22" points="410,730 470,730 470,790 410,790"/>
<polygon id="0xd5f7f0" class="l1d22" points="410,810 470,810 470,870 410,870"/>
<polygon id="0xd5f8b0" class="l1d22" points="410,890 470,890 470,950 410,950"/>
<polygon id="0xd5f970" class="l1d22" points="410,970 470,970 470,1030 410,1030"/>
<polygon id="0xd6eaf0" class="l1d22" points="410,1050 470,1050 470,1110 410,1110"/>
<polygon id="0xd6ebb0" class="l1d22" points="410,1130 470,1130 470,1190 410,1190"/>
<polygon id="0xd6ec70" class="l1d22" points="490,10 550,10 550,70 490,70"/>
<polygon id="0xd9c6a0" class="l1d22" points="490,90 550,90 550,150 490,150"/>
<polygon id="0xd9c760" class="l1d22" points="490,170 550,170 550,230 490,230"/>
<polygon id="0xd9c820" class="l1d22" points="490,250 550,250 550,310 490,310"/>
<polygon id="0xd781c0" class="l1d22" points="490,330 550,330 550,390 490,390"/>
<polygon id="0xd78280" class="l1d22" points="490,410 550,410 550,470 490,470"/>
<polygon id="0xd78340" class="l1d22" points="490,490 550,490 550,550 490,550"/>
<polygon id="0xe26650" class="l1d22" points="490,570 550,570 550,630 490,630"/>
<polygon id="0xe26710" class="l1d22" points="490,650 550,650 550,710 490,710"/>
<polygon id="0xe267d0" class="l1d22" points="490,730 550,730 550,790 490,790"/>
<polygon id="0xe94a80" class="l1d22" points="490,810 550,810 550,870 490,870"/>
<polygon id="0xe94b40" class="l1d22" points="490,890 550,890 550,950 490,950"/>
<polygon id="0xe94c00" class="l1d22" points="490,970 550,970 550,1030 490,1030"/>
<polygon id="0xcf42a0" class="l1d22" points="490,1050 550,1050 550,1110 490,1110"/>
<polygon id="0xcf4360" class="l1d22" points="490,1130 550,1130 550,1190 490,1190"/>
<polygon id="0xd7bf80" class="l1d22" points="570,10 630,10 630,70 570,70"/>
<polygon id="0xd7c040" class="l1d22" points="570,90 630,90 630,150 570,150"/>
<polygon id="0xd7c100" class="l1d22" points="570,170 630,170 630,230 570,230"/>
<polygon id="0xc96140" class="l1d22" points="570,250 630,250 630,310 570,310"/>
<polygon id="0xc96200" class="l1d22" points="570,330 630,330 630,390 570,390"/>
<polygon id="0xedb920" class="l1d22" points="570,410 630,410 630,470 570,470"/>
<polygon id="0xedb9e0" class="l1d22" points="570,490 630,490 630,550 570,550"/>
<polygon id="0xedbaa0" class="l1d22" points="570,570 630,570 630,630 570,630"/>
<polygon id="0xf2e180" class="l1d22" points="570,650 630,650 630,710 570,710"/>
<polygon id="0xf2e240" class="l1d22" points="570,730 630,730 630,790 570,790"/>
<polygon id="0xf2e300" class="l1d22" points="570,810 630,810 630,870 570,870"/>
<polygon id="0xf2e3c0" class="l1d22" points="570,890 630,890 630,950 570,950"/>
<polygon id="0xf2e480" class="l1d22" points="570,970 630,970 630,1030 570,1030"/>
<polygon id="0xf2e540" class="l1d22" points="570,1050 630,1050 630,1110 570,1110"/>
<polygon id="0xf2e600" class="l1d22" points="570,1130 630,1130 630,1190 570,1190"/>
<polygon id="0xf2e6c0" class="l1d22" points="650,10 710,10 710,70 650,70"/>
<polygon id="0xf2e780" class="l1d22" points="650,90 710,90 710,150 650,150"/>
<polygon id="0xf2e840" class="l1d22" points="650,170 710,170 710,230 650,230"/>
<polygon id="0xf2e900" class="l1d22" points="650,250 710,250 710,310 650,310"/>
<polygon id="0xf2e9c0" class="l1d22" points="650,330 710,330 710,390 650,390"/>
<polygon id="0xf2ea80" class="l1d22" points="650,410 710,410 710,470 650,470"/>
<polygon id="0xf2eb40" class="l1d22" points="650,490 710,490 710,550 650,550"/>
<polygon id="0xf2ec00" class="l1d22" points="650,570 710,570 710,630 650,630"/>
<polygon id="0xf2ecc0" class="l1d22" points="650,650 710,650 710,710 650,710"/>
<polygon id="0xf2ed80" class="l1d22" points="650,730 710,730 710,790 650,790"/>
<polygon id="0xf2ee40" class="l1d22" points="650,810 710,810 710,870 650,870"/>
<polygon id="0xf2ef00" class="l1d22" points="650,890 710,890 710,950 650,950"/>
<polygon id="0xf2efc0" class="l1d22" points="650,970 710,970 710,1030 650,1030"/>
<polygon id="0xf2f080" class="l1d22" points="650,1050 710,1050 710,1110 650,1110"/>
<polygon id="0xf2f140" class="l1d22" points="650,1130 710,1130 710,1190 650,1190"/>
<polygon id="0xf2f200" class="l1d22" points="730,10 790,10 790,70 730,70"/>
<polygon id="0xf2f2c0" class="l1d22" points="730,90 790,90 790,150 730,150"/>
<polygon id="0xf2f380" class="l1d22" points="730,170 790,170 790,230 730,230"/>
<polygon id="0xf2f440" class="l1d22" points="730,250 790,250 790,310 730,310"/>
<polygon id="0xf2f500" class="l1d22" points="730,330 790,330 790,390 730,390"/>
<polygon id="0xf2f5c0" class="l1d22" points="730,410 790,410 790,470 730,470"/>
<polygon id="0xf2f680" class="l1d22" points="730,490 790,490 790,550 730,550"/>
<polygon id="0xf2f740" class="l1d22" points="730,570 790,570 790,630 730,630"/>
<polygon id="0xf2f800" class="l1d22" points="730,650 790,650 790,710 730,710"/>
<polygon id="0xf2f8c0" class="l1d22" points="730,730 790,730 790,790 730,790"/>
<polygon id="0xf2f980" class="l1d22" points="730,810 790,810 790,870 730,870"/>
<polygon id="0xf2fa40" class="l1d22" points="730,890 790,890 790,950 730,950"/>
<polygon id="0xf2fb00" class="l1d22" points="730,970 790,970 790,1030 730,1030"/>
<polygon id="0xf2fbc0" class="l1d22" points="730,1050 790,1050 790,1110 730,1110"/>
<polygon id="0xf2fc80" class="l1d22" points="730,1130 790,1130 790,1190 730,1190"/>
<polygon id="0xf2fd40" class="l1d22" points="810,10 870,10 870,70 810,70"/>
<polygon id="0xf2fe00" class="l1d22" points="810,90 870,90 870,150 810,150"/>
<polygon id="0xf2fec0" class="l1d22" points="810,170 870,170 870,230 810,230"/>
<polygon id="0xf2ff80" class="l1d22" points="810,250 870,250 870,310 810,310"/>
<polygon id="0xf30040" class="l1d22" points="810,330 870,330 870,390 810,390"/>
<polygon id="0xf30100" class="l1d22" points="810,410 870,410 870,470 810,470"/>
<polygon id="0xf301c0" class="l1d22" points="810,490 870,490 870,550 810,550"/>
<polygon id="0xf30280" class="l1d22" points="810,570 870,570 870,630 810,630"/>
<polygon id="0xf30340" class="l1d22" points="810,650 870,650 870,710 810,710"/>
<polygon id="0xf30400" class="l1d22" points="810,730 870,730 870,790 810,790"/>
<polygon id="0xf304c0" class="l1d22" points="810,810 870,810 870,870 810,870"/>
<polygon id="0xf30580" class="l1d22" points="810,890 870,890 870,950 810,950"/>
<polygon id="0xf30640" class="l1d22" points="810,970 870,970 870,1030 810,1030"/>
<polygon id="0xf30700" class="l1d22" points="810,1050 870,1050 870,1110 810,1110"/>
<polygon id="0xf307c0" class="l1d22" points="810,1130 870,1130 870,1190 810,1190"/>
<polygon id="0xf30880" class="l1d22" points="890,10 950,10 950,70 890,70"/>
<polygon id="0xf30940" class="l1d22" points="890,90 950,90 950,150 890,150"/>
<polygon id="0xf30a00" class="l1d22" points="890,170 950,170 950,230 890,230"/>
<polygon id="0xf30ac0" class="l1d22" points="890,250 950,250 950,310 890,310"/>
<polygon id="0xf30b80" class="l1d22" points="890,330 950,330 950,390 890,390"/>
<polygon id="0xf30c40" class="l1d22" points="890,410 950,410 950,470 890,470"/>
<polygon id="0xf30d00" class="l1d22" points="890,490 950,490 950,550 890,550"/>
<polygon id="0xf30dc0" class="l1d22" points="890,570 950,570 950,630 890,630"/>
<polygon id="0xf30e80" class="l1d22" points="890,650 950,650 950,710 890,710"/>
<polygon id="0xf30f40" class="l1d22" points="890,730 950,730 950,790 890,790"/>
<polygon id="0xf31000" class="l1d22" points="890,810 950,810 950,870 890,870"/>
<polygon id="0xf310c0" class="l1d22" points="890,890 950,890 950,950 890,950"/>
<polygon id="0xf31180" class="l1d22" points="890,970 950,970 950,1030 890,1030"/>
<polygon id="0xf31240" class="l1d22" points="890,1050 950,1050 950,1110 890,1110"/>
<polygon id="0xf31300" class="l1d22" points="890,1130 950,1130 950,1190 890,1190"/>
<polygon id="0xf313c0" class="l1d22" points="970,10 1030,10 1030,70 970,70"/>
<polygon id="0xf31480" class="l1d22" points="970,90 1030,90 1030,150 970,150"/>
<polygon id="0xf31540" class="l1d22" points="970,170 1030,170 1030,230 970,230"/>
<polygon id="0xf31600" class="l1d22" points="970,250 1030,250 1030,310 970,310"/>
<polygon id="0xf316c0" class="l1d22" points="970,330 1030,330 1030,390 970,390"/>
<polygon id="0xf31780" class="l1d22" points="970,410 1030,410 1030,470 970,470"/>
<polygon id="0xf31840" class="l1d22" points="970,490 1030,490 1030,550 970,550"/>
<polygon id="0xf31900" class="l1d22" points="970,570 1030,570 1030,630 970,630"/>
<polygon id="0xf319c0" class="l1d22" points="970,650 1030,650 1030,710 970,710"/>
<polygon id="0xf31a80" class="l1d22" points="970,730 1030,730 1030,790 970,790"/>
<polygon id="0xf31b40" class="l1d22" points="970,810 1030,810 1030,870 970,870"/>
<polygon id="0xf31c00" class="l1d22" points="970,890 1030,890 1030,950 970,950"/>
<polygon id="0xf31cc0" class="l1d22" points="970,970 1030,970 1030,1030 970,1030"/>
<polygon id="0xf31d80" class="l1d22" points="970,1050 1030,1050 1030,1110 970,1110"/>
<polygon id="0xf31e40" class="l1d22" points="970,1130 1030,1130 1030,1190 970,1190"/>
<polygon id="0xf31f00" class="l1d22" points="1050,10 1110,10 1110,70 1050,70"/>
<polygon id="0xf31fc0" class="l1d22" points="1050,90 1110,90 1110,150 1050,150"/>
<polygon id="0xf32080" class="l1d22" points="1050,170 1110,170 1110,230 1050,230"/>
<polygon id="0xf32140" class="l1d22" points="1050,250 1110,250 1110,310 1050,310"/>
<polygon id="0xf32200" class="l1d22" points="1050,330 1110,330 1110,390 1050,390"/>
<polygon id="0xf322c0" class="l1d22" points="1050,410 1110,410 1110,470 1050,470"/>
<polygon id="0xf32380" class="l1d22" points="1050,490 1110,490 1110,550 1050,550"/>
<polygon id="0xf32440" class="l1d22" points="1050,570 1110,570 1110,630 1050,630"/>
<polygon id="0xf32500" class="l1d22" points="1050,650 1110,650 1110,710 1050,710"/>
<polygon id="0xf325c0" class="l1d22" points="1050,730 1110,730 1110,790 1050,790"/>
<polygon id="0xf32680" class="l1d22" points="1050,810 1110,810 1110,870 1050,870"/>
<polygon id="0xf32740" class="l1d22" points="1050,890 1110,890 1110,950 1050,950"/>
<polygon id="0xf32800" class="l1d22" points="1050,970 1110,970 1110,1030 1050,1030"/>
<polygon id="0xf328c0" class="l1d22" points="1050,1050 1110,1050 1110,1110 1050,1110"/>
<polygon id="0xf32980" class="l1d22" points="1050,1130 1110,1130 1110,1190 1050,1190"/>
<polygon id="0xf35310" class="l1d22" points="1130,10 1190,10 1190,70 1130,70"/>
<polygon id="0xf353d0" class="l1d22" points="1130,90 1190,90 1190,150 1130,150"/>
<polygon id="0xf35490" class="l1d22" points="1130,170 1190,170 1190,230 1130,230"/>
<polygon id="0xf35550" class="l1d22" points="1130,250 1190,250 1190,310 1130,310"/>
<polygon id="0xf35610" class="l1d22" points="1130,330 1190,330 1190,390 1130,390"/>
<polygon id="0xf356d0" class="l1d22" points="1130,410 1190,410 1190,470 1130,470"/>
<polygon id="0xf35790" class="l1d22" points="1130,490 1190,490 1190,550 1130,550"/>
<polygon id="0xf35850" class="l1d22" points="1130,570 1190,570 1190,630 1130,630"/>
<polygon id="0xf35910" class="l1d22" points="1130,650 1190,650 1190,710 1130,710"/>
<polygon id="0xf359d0" class="l1d22" points="1130,730 1190,730 1190,790 1130,790"/>
<polygon id="0xf35a90" class="l1d22" points="1130,810 1190,810 1190,870 1130,870"/>
<polygon id="0xf35b50" class="l1d22" points="1130,890 1190,890 1190,950 1130,950"/>
<polygon id="0xf35c10" class="l1d22" points="1130,970 1190,970 1190,1030 1130,1030"/>
<polygon id="0xf35cd0" class="l1d22" points="1130,1050 1190,1050 1190,1110 1130,1110"/>
<polygon id="0xf35d90" class="l1d22" points="1130,1130 1190,1130 1190,1190 1130,1190"/>
<polygon id="0xf35e50" class="l1d22" points="1210,10 1270,10 1270,70 1210,70"/>
<polygon id="0xf35f10" class="l1d22" points="1210,90 1270,90 1270,150 1210,150"/>
<polygon id="0xf35fd0" class="l1d22" points="1210,170 1270,170 1270,230 1210,230"/>
<polygon id="0xf36090" class="l1d22" points="1210,250 1270,250 1270,310 1210,310"/>
<polygon id="0xf36150" class="l1d22" points="1210,330 1270,330 1270,390 1210,390"/>
<polygon id="0xf36210" class="l1d22" points="1210,410 1270,410 1270,470 1210,470"/>
<polygon id="0xf362d0" class="l1d22" points="1210,490 1270,490 1270,550 1210,550"/>
<polygon id="0xf36390" class="l1d22" points="1210,570 1270,570 1270,630 1210,630"/>
<polygon id="0xf36450" class="l1d22" points="1210,650 1270,650 1270,710 1210,710"/>
<polygon id="0xf36510" class="l1d22" points="1210,730 1270,730 1270,790 1210,790"/>
<polygon id="0xf365d0" class="l1d22" points="1210,810 1270,810 1270,870 1210,870"/>
<polygon id="0xf36690" class="l1d22" points="1210,890 1270,890 1270,950 1210,950"/>
<polygon id="0xf36750" class="l1d22" points="1210,970 1270,970 1270,1030 1210,1030"/>
<polygon id="0xf36810" class="l1d22" points="1210,1050 1270,1050 1270,1110 1210,1110"/>
<polygon id="0xf368d0" class="l1d22" points="1210,1130 1270,1130 1270,1190 1210,1190"/>
<polygon id="0xf36990" class="l1d22" points="1290,10 1350,10 1350,70 1290,70"/>
<polygon id="0xf36a50" class="l1d22" points="1290,90 1350,90 1350,150 1290,150"/>
<polygon id="0xf36b10" class="l1d22" points="1290,170 1350,170 1350,230 1290,230"/>
<polygon id="0xf36bd0" class="l1d22" points="1290,250 1350,250 1350,310 1290,310"/>
<polygon id="0xf36c90" class="l1d22" points="1290,330 1350,330 1350,390 1290,390"/>
<polygon id="0xf36d50" class="l1d22" points="1290,410 1350,410 1350,470 1290,470"/>
<polygon id="0xf36e10" class="l1d22" points="1290,490 1350,490 1350,550 1290,550"/>
<polygon id="0xf36ed0" class="l1d22" points="1290,570 1350,570 1350,630 1290,630"/>
<polygon id="0xf36f90" class="l1d22" points="1290,650 1350,650 1350,710 1290,710"/>
<polygon id="0xf37050" class="l1d22" points="1290,730 1350,730 1350,790 1290,790"/>
<polygon id="0xf37110" class="l1d22" points="1290,810 1350,810 1350,870 1290,870"/>
<polygon id="0xf371d0" class="l1d22" points="1290,890 1350,890 1350,950 1290,950"/>
<polygon id="0xf37290" class="l1d22" points="1290,970 1350,970 1350,1030 1290,1030"/>
<polygon id="0xf37350" class="l1d22" points="1290,1050 1350,1050 1350,1110 1290,1110"/>
<polygon id="0xf37410" class="l1d22" points="1290,1130 1350,1130 1350,1190 1290,1190"/>
<polygon id="0xf374d0" class="l1d22" points="1370,10 1430,10 1430,70 1370,70"/>
<polygon id="0xf37590" class="l1d22" points="1370,90 1430,90 1430,150 1370,150"/>
<polygon id="0xf37650" class="l1d22" points="1370,170 1430,170 1430,230 1370,230"/>
<polygon id="0xf37710" class="l1d22" points="1370,250 1430,250 1430,310 1370,310"/>
<polygon id="0xf377d0" class="l1d22" points="1370,330 1430,330 1430,390 1370,390"/>
<polygon id="0xf37890" class="l1d22" points="1370,410 1430,410 1430,470 1370,470"/>
<polygon id="0xf37950" class="l1d22" points="1370,490 1430,490 1430,550 1370,550"/>
<polygon id="0xf37a10" class="l1d22" points="1370,570 1430,570 1430,630 1370,630"/>
<polygon id="0xf37ad0" class="l1d22" points="1370,650 1430,650 1430,710 1370,710"/>
<polygon id="0xf37b90" class="l1d22" points="1370,730 1430,730 1430,790 1370,790"/>
<polygon id="0xf37c50" class="l1d22" points="1370,810 1430,810 1430,870 1370,870"/>
<polygon id="0xf37d10" class="l1d22" points="1370,890 1430,890 1430,950 1370,950"/>
<polygon id="0xf37dd0" class="l1d22" points="1370,970 1430,970 1430,1030 1370,1030"/>
<polygon id="0xf37e90" class="l1d22" points="1370,1050 1430,1050 1430,1110 1370,1110"/>
<polygon id="0xf37f50" class="l1d22" points="1370,1130 1430,1130 1430,1190 1370,1190"/>
<polygon id="0xf38010" class="l1d22" points="1450,10 1510,10 1510,70 1450,70"/>
<polygon id="0xf380d0" class="l1d22" points="1450,90 1510,90 1510,150 1450,150"/>
<polygon id="0xf38190" class="l1d22" points="1450,170 1510,170 1510,230 1450,230"/>
<polygon id="0xf38250" class="l1d22" points="1450,250 1510,250 1510,310 1450,310"/>
<polygon id="0xf38310" class="l1d22" points="1450,330 1510,330 1510,390 1450,390"/>
<polygon id="0xf383d0" class="l1d22" points="1450,410 1510,410 1510,470 1450,470"/>
<polygon id="0xf38490" class="l1d22" points="1450,490 1510,490 1510,550 1450,550"/>
<polygon id="0xf38550" class="l1d22" points="1450,570 1510,570 1510,630 1450,630"/>
<polygon id="0xf38610" class="l1d22" points="1450,650 1510,650 1510,710 1450,710"/>
<polygon id="0xf386d0" class="l1d22" points="1450,730 1510,730 1510,790 1450,790"/>
<polygon id="0xf38790" class="l1d22" points="1450,810 1510,810 1510,870 1450,870"/>
<polygon id="0xf38850" class="l1d22" points="1450,890 1510,890 1510,950 1450,950"/>
<polygon id="0xf38910" class="l1d22" points="1450,970 1510,970 1510,1030 1450,1030"/>
<polygon id="0xf389d0" class="l1d22" points="1450,1050 1510,1050 1510,1110 1450,1110"/>
<polygon id="0xf38a90" class="l1d22" points="1450,1130 1510,1130 1510,1190 1450,1190"/>
<polygon id="0xf38b50" class="l1d22" points="1530,10 1590,10 1590,70 1530,70"/>
<polygon id="0xf38c10" class="l1d22" points="1530,90 1590,90 1590,150 1530,150"/>
<polygon id="0xf38cd0" class="l1d22" points="1530,170 1590,170 1590,230 1530,230"/>
<polygon id="0xf38d90" class="l1d22" points="1530,250 1590,250 1590,310 1530,310"/>
<polygon id="0xf38e50" class="l1d22" points="1530,330 1590,330 1590,390 1530,390"/>
<polygon id="0xf38f10" class="l1d22" points="1530,410 1590,410 1590,470 1530,470"/>
<polygon id="0xf38fd0" class="l1d22" points="1530,490 1590,490 1590,550 1530,550"/>
<polygon id="0xf39090" class="l1d22" points="1530,570 1590,570 1590,630 1530,630"/>
<polygon id="0xf39150" class="l1d22" points="1530,650 1590,650 1590,710 1530,710"/>
<polygon id="0xf39210" class="l1d22" points="1530,730 1590,730 1590,790 1530,790"/>
<polygon id="0xf392d0" class="l1d22" points="1530,810 1590,810 1590,870 1530,870"/>
<polygon id="0xf39390" class="l1d22" points="1530,890 1590,890 1590,950 1530,950"/>
<polygon id="0xf39450" class="l1d22" points="1530,970 1590,970 1590,1030 1530,1030"/>
<polygon id="0xf39510" class="l1d22" points="1530,1050 1590,1050 1590,1110 1530,1110"/>
<polygon id="0xf395d0" class="l1d22" points="1530,1130 1590,1130 1590,1190 1530,1190"/>
<polygon id="0xf39690" class="l5d22" points="8.2,8.2 71.8,8.2 71.8,71.8 8.2,71.8"/>
<polygon id="0xf39750" class="l5d22" points="8.2,88.2 71.8,88.2 71.8,151.8 8.2,151.8"/>
<polygon id="0xf39810" class="l5d22" points="8.2,168.2 71.8,168.2 71.8,231.8 8.2,231.8"/>
<polygon id="0xf398d0" class="l5d22" points="8.2,248.2 71.8,248.2 71.8,311.8 8.2,311.8"/>
<polygon id="0xf39990" class="l5d22" points="8.2,328.2 71.8,328.2 71.8,391.8 8.2,391.8"/>
<polygon id="0xf39a50" class="l5d22" points="8.2,408.2 71.8,408.2 71.8,471.8 8.2,471.8"/>
<polygon id="0xf39b10" class="l5d22" points="8.2,488.2 71.8,488.2 71.8,551.8 8.2,551.8"/>
<polygon id="0xf39bd0" class="l5d22" points="8.2,568.2 71.8,568.2 71.8,631.8 8.2,631.8"/>
<polygon id="0xf39c90" class="l5d22" points="8.2,648.2 71.8,648.2 71.8,711.8 8.2,711.8"/>
<polygon id="0xf39d50" class="l5d22" points="8.2,728.2 71.8,728.2 71.8,791.8 8.2,791.8"/>
<polygon id="0xf39e10" class="l5d22" points="8.2,808.2 71.8,808.2 71.8,871.8 8.2,871.8"/>
<polygon id="0xf39ed0" class="l5d22" points="8.2,888.2 71.8,888.2 71.8,951.8 8.2,951.8"/>
<polygon id="0xf39f90" class="l5d22" points="8.2,968.2 71.8,968.2 71.8,1031.8 8.2,1031.8"/>
<polygon id="0xf3a050" class="l5d22" points="8.2,1048.2 71.8,1048.2 71.8,1111.8 8.2,1111.8"/>
<polygon id="0xf3a110" class="l5d22" points="8.2,1128.2 71.8,1128.2 71.8,1191.8 8.2,1191.8"/>
<polygon id="0xf3a1d0" class="l5d22" points="88.2,8.2 151.8,8.2 151.8,71.8 88.2,71.8"/>
<polygon id="0xf3a290" class="l5d22" points="88.2,88.2 151.8,88.2 151.8,151.8 88.2,151.8"/>
<polygon id="0xf3a350" class="l5d22" points="88.2,168.2 151.8,168.2 151.8,231.8 88.2,231.8"/>
<polygon id="0xf3a410" class="l5d22" points="88.2,248.2 151.8,248.2 151.8,311.8 88.2,311.8"/>
<polygon id="0xf3a4d0" class="l5d22" points="88.2,328.2 151.8,328.2 151.8,391.8 88.2,391.8"/>
<polygon id="0xf3a590" class="l5d22" points="88.2,408.2 151.8,408.2 151.8,471.8 88.2,471.8"/>
<polygon id="0xf3a650" class="l5d22" points="88.2,488.2 151.8,488.2 151.8,551.8 88.2,551.8"/>
<polygon id="0xf3a710" class="l5d22" points="88.2,568.2 151.8,568.2 151.8,631.8 88.2,631.8"/>
<polygon id="0xf3a7d0" class="l5d22" points="88.2,648.2 151.8,648.2 151.8,711.8 88.2,711.8"/>
<polygon id="0xf3a890" class="l5d22" points="88.2,728.2 151.8,728.2 151.8,791.8 88.2,791.8"/>
<polygon id="0xf3a950" class="l5d22" points="88.2,808.2 151.8,808.2 151.8,871.8 88.2,871.8"/>
<polygon id="0xf3aa10" class="l5d22" points="88.2,888.2 151.8,888.2 151.8,951.8 88.2,951.8"/>
<polygon id="0xf3aad0" class="l5d22" points="88.2,968.2 151.8,968.2 151.8,1031.8 88.2,1031.8"/>
<polygon id="0xf3ab90" class="l5d22" points="88.2,1048.2 151.8,1048.2 151.8,1111.8 88.2,1111.8"/>
<polygon id="0xf3ac50" class="l5d22" points="88.2,1128.2 151.8,1128.2 151.8,1191.8 88.2,1191.8"/>
<polygon id="0xf3ad10" class="l5d22" points="168.2,8.2 231.8,8.2 231.8,71.8 168.2,71.8"/>
<polygon id="0xf3add0" class="l5d22" points="168.2,88.2 231.8,88.2 231.8,151.8 168.2,151.8"/>
<polygon id="0xf3ae90" class="l5d22" points="168.2,168.2 231.8,168.2 231.8,231.8 168.2,231.8"/>
<polygon id="0xf3af50" class="l5d22" points="168.2,248.2 231.8,248.2 231.8,311.8 168.2,311.8"/>
<polygon id="0xf3b010" class="l5d22" points="168.2,328.2 231.8,328.2 231.8,391.8 168.2,391.8"/>
<polygon id="0xf3b0d0" class="l5d22" points="168.2,408.2 231.8,408.2 231.8,471.8 168.2,471.8"/>
<polygon id="0xf3b190" class="l5d22" points="168.2,488.2 231.8,488.2 231.8,551.8 168.2,551.8"/>
<polygon id="0xf3b250" class="l5d22" points="168.2,568.2 231.8,568.2 231.8,631.8 168.2,631.8"/>
<polygon id="0xf3b310" class="l5d22" points="168.2,648.2 231.8,648.2 231.8,711.8 168.2,711.8"/>
<polygon id="0xf3b3d0" class="l5d22" points="168.2,728.2 231.8,728.2 231.8,791.8 168.2,791.8"/>
<polygon id="0xf3b490" class="l5d22" points="168.2,808.2 231.8,808.2 231.8,871.8 168.2,871.8"/>
<polygon id="0xf3b550" class="l5d22" points="168.2,888.2 231.8,888.2 231.8,951.8 168.2,951.8"/>
<polygon id="0xf3b610" class="l5d22" points="168.2,968.2 231.8,968.2 231.8,1031.8 168.2,1031.8"/>
<polygon id="0xf3b6d0" class="l5d22" points="168.2,1048.2 231.8,1048.2 231.8,1111.8 168.2,1111.8"/>
<polygon id="0xf3b790" class="l5d22" points="168.2,1128.2 231.8,1128.2 231.8,1191.8 168.2,1191.8"/>
<polygon id="0xf3b850" class="l5d22" points="248.2,8.2 311.8,8.2 311.8,71.8 248.2,71.8"/>
<polygon id="0xf3b910" class="l5d22" points="248.2,88.2 311.8,88.2 311.8,151.8 248.2,151.8"/>
<polygon id="0xf3b9d0" class="l5d22" points="248.2,168.2 311.8,168.2 311.8,231.8 248.2,231.8"/>
<polygon id="0xf3ba90" class="l5d22" points="248.2,248.2 311.8,248.2 311.8,311.8 248.2,311.8"/>
<polygon id="0xf3bb50" class="l5d22" points="248.2,328.2 311.8,328.2 311.8,391.8 248.2,391.8"/>
<polygon id="0xf3bc10" class="l5d22" points="248.2,408.2 311.8,408.2 311.8,471.8 248.2,471.8"/>
<polygon id="0xf3bcd0" class="l5d22" points="248.2,488.2 311.8,488.2 311.8,551.8 248.2,551.8"/>
<polygon id="0xf3bd90" class="l5d22" points="248.2,568.2 311.8,568.2 311.8,631.8 248.2,631.8"/>
<polygon id="0xf3be50" class="l5d22" points="248.2,648.2 311.8,648.2 311.8,711.8 248.2,711.8"/>
<polygon id="0xf3bf10" class="l5d22" points="248.2,728.2 311.8,728.2 311.8,791.8 248.2,791.8"/>
<polygon id="0xf3bfd0" class="l5d22" points="248.2,808.2 311.8,808.2 311.8,871.8 248.2,871.8"/>
<polygon id="0xf3c090" class="l5d22" points="248.2,888.2 311.8,888.2 311.8,951.8 248.2,951.8"/>
<polygon id="0xf2d120" class="l5d22" points="248.2,968.2 311.8,968.2 311.8,1031.8 248.2,1031.8"/>
<polygon id="0xf2d1e0" class="l5d22" points="248.2,1048.2 311.8,1048.2 311.8,1111.8 248.2,1111.8"/>
<polygon id="0xf2d2a0" class="l5d22" points="248.2,1128.2 311.8,1128.2 311.8,1191.8 248.2,1191.8"/>
<polygon id="0xf2d360" class="l5d22" points="328.2,8.2 391.8,8.2 391.8,71.8 328.2,71.8"/>
<polygon id="0xf2d420" class="l5d22" points="328.2,88.2 391.8,88.2 391.8,151.8 328.2,151.8"/>
<polygon id="0xf2d4e0" class="l5d22" points="328.2,168.2 391.8,168.2 391.8,231.8 328.2,231.8"/>
<polygon id="0xf2d5a0" class="l5d22" points="328.2,248.2 391.8,248.2 391.8,311.8 328.2,311.8"/>
<polygon id="0xf2d660" class="l5d22" points="328.2,328.2 391.8,328.2 391.8,391.8 328.2,391.8"/>
<polygon id="0xf2d720" class="l5d22" points="328.2,408.2 391.8,408.2 391.8,471.8 328.2,471.8"/>
<polygon id="0xf2d7e0" class="l5d22" points="328.2,488.2 391.8,488.2 391.8,551.8 328.2,551.8"/>
<polygon id="0xf2d8a0" class="l5d22" points="328.2,568.2 391.8,568.2 391.8,631.8 328.2,631.8"/>
<polygon id="0xf2d960" class="l5d22" points="328.2,648.2 391.8,648.2 391.8,711.8 328.2,711.8"/>
<polygon id="0xf2da20" class="l5d22" points="328.2,728.2 391.8,728.2 391.8,791.8 328.2,791.8"/>
<polygon id="0xf2dae0" class="l5d22" points="328.2,808.2 391.8,808.2 391.8,871.8 328.2,871.8"/>
<polygon id="0xf2dba0" class="l5d22" points="328.2,888.2 391.8,888.2 391.8,951.8 328.2,951.8"/>
<polygon id="0xf2dc60" class="l5d22" points="328.2,968.2 391.8,968.2 391.8,1031.8 328.2,1031.8"/>
<polygon id="0xf2dd20" class="l5d22" points="328.2,1048.2 391.8,1048.2 391.8,1111.8 328.2,1111.8"/>
<polygon id="0xf2dde0" class="l5d22" points="328.2,1128.2 391.8,1128.2 391.8,1191.8 328.2,1191.8"/>
<polygon id="0xf2dea0" class="l5d22" points="408.2,8.2 471.8,8.2 471.8,71.8 408.2,71.8"/>
<polygon id="0xf2df60" class="l5d22" points="408.2,88.2 471.8,88.2 471.8,151.8 408.2,151.8"/>
<polygon id="0xf2e020" class="l5d22" points="408.2,168.2 471.8,168.2 471.8,231.8 408.2,231.8"/>
<polygon id="0xf3e160" class="l5d22" points="408.2,248.2 471.8,248.2 471.8,311.8 408.2,311.8"/>
<polygon id="0xf3e1d0" class="l5d22" points="408.2,328.2 471.8,328.2 471.8,391.8 408.2,391.8"/>
<polygon id="0xf3e290" class="l5d22" points="408.2,408.2 471.8,408.2 471.8,471.8 408.2,471.8"/>
<polygon id="0xf3e350" class="l5d22" points="408.2,488.2 471.8,488.2 471.8,551.8 408.2,551.8"/>
<polygon id="0xf3e410" class="l5d22" points="408.2,568.2 471.8,568.2 471.8,631.8 408.2,631.8"/>
<polygon id="0xf3e4d0" class="l5d22" points="408.2,648.2 471.8,648.2 471.8,711.8 408.2,711.8"/>
<polygon id="0xf3e590" class="l5d22" points="408.2,728.2 471.8,728.2 471.8,791.8 408.2,791.8"/>
<polygon id="0xf3e650" class="l5d22" points="408.2,808.2 471.8,808.2 471.8,871.8 408.2,871.8"/>
<polygon id="0xf3e710" class="l5d22" points="408.2,888.2 471.8,888.2 471.8,951.8 408.2,951.8"/>
<polygon id="0xf3e7d0" class="l5d22" points="408.2,968.2 471.8,968.2 471.8,1031.8 408.2,1031.8"/>
<polygon id="0xf3e890" class="l5d22" points="408.2,1048.2 471.8,1048.2 471.8,1111.8 408.2,1111.8"/>
<polygon id="0xf3e950" class="l5d22" points="408.2,1128.2 471.8,1128.2 471.8,1191.8 408.2,1191.8"/>
<polygon id="0xf3ea10" class="l5d22" points="488.2,8.2 551.8,8.2 551.8,71.8 488.2,71.8"/>
<polygon id="0xf3ead0" class="l5d22" points="488.2,88.2 551.8,88.2 551.8,151.8 488.2,151.8"/>
<polygon id="0xf3eb90" class="l5d22" points="488.2,168.2 551.8,168.2 551.8,231.8 488.2,231.8"/>
<polygon id="0xf3ec50" class="l5d22" points="488.2,248.2 551.8,248.2 551.8,311.8 488.2,311.8"/>
<polygon id="0xf3ed10" class="l5d22" points="488.2,328.2 551.8,328.2 551.8,391.8 488.2,391.8"/>
<polygon id="0xf3edd0" class="l5d22" points="488.2,408.2 551.8,408.2 551.8,471.8 488.2,471.8"/>
<polygon id="0xf3ee90" class="l5d22" points="488.2,488.2 551.8,488.2 551.8,551.8 488.2,551.8"/>
<polygon id="0xf3ef50" class="l5d22" points="488.2,568.2 551.8,568.2 551.8,631.8 488.2,631.8"/>
<polygon id="0xf3f010" class="l5d22" points="488.2,648.2 551.8,648.2 551.8,711.8 488.2,711.8"/>
<polygon id="0xf3f0d0" class="l5d22" points="488.2,728.2 551.8,728.2 551.8,791.8 488.2,791.8"/>
<polygon id="0xf3f190" class="l5d22" points="488.2,808.2 551.8,808.2 551.8,871.8 488.2,871.8"/>
<polygon id="0xf3f250" class="l5d22" points="488.2,888.2 551.8,888.2 551.8,951.8 488.2,951.8"/>
<polygon id="0xf3f310" class="l5d22" points="488.2,968.2 551.8,968.2 551.8,1031.8 488.2,1031.8"/>
<polygon id="0xf3f3d0" class="l5d22" points="488.2,1048.2 551.8,1048.2 551.8,1111.8 488.2,1111.8"/>
<polygon id="0xf3f490" class="l5d22" points="488.2,1128.2 551.8,1128.2 551.8,1191.8 488.2,1191.8"/>
<polygon id="0xf3f550" class="l5d22" points="568.2,8.2 631.8,8.2 631.8,71.8 568.2,71.8"/>
<polygon id="0xf3f610" class="l5d22" points="568.2,88.2 631.8,88.2 631.8,151.8 568.2,151.8"/>
<polygon id="0xf3f6d0" class="l5d22" points="568.2,168.2 631.8,168.2 631.8,231.8 568.2,231.8"/>
<polygon id="0xf3f790" class="l5d22" points="568.2,248.2 631.8,248.2 631.8,311.8 568.2,311.8"/>
<polygon id="0xf3f850" class="l5d22" points="568.2,328.2 631.8,328.2 631.8,391.8 568.2,391.8"/>
<polygon id="0xf3f910" class="l5d22" points="568.2,408.2 631.8,408.2 631.8,471.8 568.2,471.8"/>
<polygon id="0xf3f9d0" class="l5d22" points="568.2,488.2 631.8,488.2 631.8,551.8 568.2,551.8"/>
<polygon id="0xf3fa90" class="l5d22" points="568.2,568.2 631.8,568.2 631.8,631.8 568.2,631.8"/>
<polygon id="0xf3fb50" class="l5d22" points="568.2,648.2 631.8,648.2 631.8,711.8 568.2,711.8"/>
<polygon id="0xf3fc10" class="l5d22" points="568.2,728.2 631.8,728.2 631.8,791.8 568.2,791.8"/>
<polygon id="0xf3fcd0" class="l5d22" points="568.2,808.2 631.8,808.2 631.8,871.8 568.2,871.8"/>
<polygon id="0xf3fd90" class="l5d22" points="568.2,888.2 631.8,888.2 631.8,951.8 568.2,951.8"/>
<polygon id="0xf3fe50" class="l5d22" points="568.2,968.2 631.8,968.2 631.8,1031.8 568.2,1031.8"/>
<polygon id="0xf3ff10" class="l5d22" points="568.2,1048.2 631.8,1048.2 631.8,1111.8 568.2,1111.8"/>
<polygon id="0xf3ffd0" class="l5d22" points="568.2,1128.2 631.8,1128.2 631.8,1191.8 568.2,1191.8"/>
<polygon id="0xf40090" class="l5d22" points="648.2,8.2 711.8,8.2 711.8,71.8 648.2,71.8"/>
<polygon id="0xf40150" class="l5d22" points="648.2,88.2 711.8,88.2 711.8,151.8 648.2,151.8"/>
<polygon id="0xf40210" class="l5d22" points="648.2,168.2 711.8,168.2 711.8,231.8 648.2,231.8"/>
<polygon id="0xf402d0" class="l5d22" points="648.2,248.2 711.8,248.2 711.8,311.8 648.2,311.8"/>
<polygon id="0xf40390" class="l5d22" points="648.2,328.2 711.8,328.2 711.8,391.8 648.2,391.8"/>
<polygon id="0xf40450" class="l5d22" points="648.2,408.2 711.8,408.2 711.8,471.8 648.2,471.8"/>
<polygon id="0xf40510" class="l5d22" points="648.2,488.2 711.8,488.2 711.8,551.8 648.2,551.8"/>
<polygon id="0xf405d0" class="l5d22" points="648.2,568.2 711.8,568.2 711.8,631.8 648.2,631.8"/>
<polygon id="0xf40690" class="l5d22" points="648.2,648.2 711.8,648.2 711.8,711.8 648.2,711.8"/>
<polygon id="0xf40750" class="l5d22" points="648.2,728.2 711.8,728.2 711.8,791.8 648.2,791.8"/>
<polygon id="0xf40810" class="l5d22" points="648.2,808.2 711.8,808.2 711.8,871.8 648.2,871.8"/>
<polygon id="0xf408d0" class="l5d22" points="648.2,888.2 711.8,888.2 711.8,951.8 648.2,951.8"/>
<polygon id="0xf40990" class="l5d22" points="648.2,968.2 711.8,968.2 711.8,1031.8 648.2,1031.8"/>
<polygon id="0xf40a50" class="l5d22" points="648.2,1048.2 711.8,1048.2 711.8,1111.8 648.2,1111.8"/>
<polygon id="0xf40b10" class="l5d22" points="648.2,1128.2 711.8,1128.2 711.8,1191.8 648.2,1191.8"/>
<polygon id="0xf40bd0" class="l5d22" points="728.2,8.2 791.8,8.2 791.8,71.8 728.2,71.8"/>
<polygon id="0xf40c90" class="l5d22" points="728.2,88.2 791.8,88.2 791.8,151.8 728.2,151.8"/>
<polygon id="0xf40d50" class="l5d22" points="728.2,168.2 791.8,168.2 791.8,231.8 728.2,231.8"/>
<polygon id="0xf40e10" class="l5d22" points="728.2,248.2 791.8,248.2 791.8,311.8 728.2,311.8"/>
<polygon id="0xf40ed0" class="l5d22" points="728.2,328.2 791.8,328.2 791.8,391.8 728.2,391.8"/>
<polygon id="0xf40f90" class="l5d22" points="728.2,408.2 791.8,408.2 791.8,471.8 728.2,471.8"/>
<polygon id="0xf41050" class="l5d22" points="728.2,488.2 791.8,488.2 791.8,551.8 728.2,551.8"/>
<polygon id="0xf41110" class="l5d22" points="728.2,568.2 791.8,568.2 791.8,631.8 728.2,631.8"/>
<polygon id="0xf411d0" class="l5d22" points="728.2,648.2 791.8,648.2 791.8,711.8 728.2,711.8"/>
<polygon id="0xf41290" class="l5d22" points="728.2,728.2 791.8,728.2 791.8,791.8 728.2,791.8"/>
<polygon id="0xf41350" class="l5d22" points="728.2,808.2 791.8,808.2 791.8,871.8 728.2,871.8"/>
<polygon id="0xf41410" class="l5d22" points="728.2,888.2 791.8,888.2 791.8,951.8 728.2,951.8"/>
<polygon id="0xf414d0" class="l5d22" points="728.2,968.2 791.8,968.2 791.8,1031.8 728.2,1031.8"/>
<polygon id="0xf41590" class="l5d22" points="728.2,1048.2 791.8,1048.2 791.8,1111.8 728.2,1111.8"/>
<polygon id="0xf41650" class="l5d22" points="728.2,1128.2 791.8,1128.2 791.8,1191.8 728.2,1191.8"/>
<polygon id="0xf41710" class="l5d22" points="808.2,8.2 871.8,8.2 871.8,71.8 808.2,71.8"/>
<polygon id="0xf417d0" class="l5d22" points="808.2,88.2 871.8,88.2 871.8,151.8 808.2,151.8"/>
<polygon id="0xf41890" class="l5d22" points="808.2,168.2 871.8,168.2 871.8,231.8 808.2,231.8"/>
<polygon id="0xf41950" class="l5d22" points="808.2,248.2 871.8,248.2 871.8,311.8 808.2,311.8"/>
<polygon id="0xf41a10" class="l5d22" points="808.2,328.2 871.8,328.2 871.8,391.8 808.2,391.8"/>
<polygon id="0xf41ad0" class="l5d22" points="808.2,408.2 871.8,408.2 871.8,471.8 808.2,471.8"/>
<polygon id="0xf41b90" class="l5d22" points="808.2,488.2 871.8,488.2 871.8,551.8 808.2,551.8"/>
<polygon id="0xf41c50" class="l5d22" points="808.2,568.2 871.8,568.2 871.8,631.8 808.2,631.8"/>
<polygon id="0xf41d10" class="l5d22" points="808.2,648.2 871.8,648.2 871.8,711.8 808.2,711.8"/>
<polygon id="0xf41dd0" class="l5d22" points="808.2,728.2 871.8,728.2 871.8,791.8 808.2,791.8"/>
<polygon id="0xf41e90" class="l5d22" points="808.2,808.2 871.8,808.2 871.8,871.8 808.2,871.8"/>
<polygon id="0xf41f50" class="l5d22" points="808.2,888.2 871.8,888.2 871.8,951.8 808.2,951.8"/>
<polygon id="0xf42010" class="l5d22" points="808.2,968.2 871.8,968.2 871.8,1031.8 808.2,1031.8"/>
<polygon id="0xf420d0" class="l5d22" points="808.2,1048.2 871.8,1048.2 871.8,1111.8 808.2,1111.8"/>
<polygon id="0xf42190" class="l5d22" points="808.2,1128.2 871.8,1128.2 871.8,1191.8 808.2,1191.8"/>
<polygon id="0xf42250" class="l5d22" points="888.2,8.2 951.8,8.2 951.8,71.8 888.2,71.8"/>
<polygon id="0xf42310" class="l5d22" points="888.2,88.2 951.8,88.2 951.8,151.8 888.2,151.8"/>
<polygon id="0xf423d0" class="l5d22" points="888.2,168.2 951.8,168.2 951.8,231.8 888.2,231.8"/>
<polygon id="0xf42490" class="l5d22" points="888.2,248.2 951.8,248.2 951.8,311.8 888.2,311.8"/>
<polygon id="0xf42550" class="l5d22" points="888.2,328.2 951.8,328.2 951.8,391.8 888.2,391.8"/>
<polygon id="0xf42610" class="l5d22" points="888.2,408.2 951.8,408.2 951.8,471.8 888.2,471.8"/>
<polygon id="0xf426d0" class="l5d22" points="888.2,488.2 951.8,488.2 951.8,551.8 888.2,551.8"/>
<polygon id="0xf42790" class="l5d22" points="888.2,568.2 951.8,568.2 951.8,631.8 888.2,631.8"/>
<polygon id="0xf42850" class="l5d22" points="888.2,648.2 951.8,648.2 951.8,711.8 888.2,711.8"/>
<polygon id="0xf42910" class="l5d22" points="888.2,728.2 951.8,728.2 951.8,791.8 888.2,791.8"/>
<polygon id="0xf429d0" class="l5d22" points="888.2,808.2 951.8,808.2 951.8,871.8 888.2,871.8"/>
<polygon id="0xf42a90" class="l5d22" points="888.2,888.2 951.8,888.2 951.8,951.8 888.2,951.8"/>
<polygon id="0xf42b50" class="l5d22" points="888.2,968.2 951.8,968.2 951.8,1031.8 888.2,1031.8"/>
<polygon id="0xf42c10" class="l5d22" points="888.2,1048.2 951.8,1048.2 951.8,1111.8 888.2,1111.8"/>
<polygon id="0xf42cd0" class="l5d22" points="888.2,1128.2 951.8,1128.2 951.8,1191.8 888.2,1191.8"/>
<polygon id="0xf42d90" class="l5d22" points="968.2,8.2 1031.8,8.2 1031.8,71.8 968.2,71.8"/>
<polygon id="0xf42e50" class="l5d22" points="968.2,88.2 1031.8,88.2 1031.8,151.8 968.2,151.8"/>
<polygon id="0xf42f10" class="l5d22" points="968.2,168.2 1031.8,168.2 1031.8,231.8 968.2,231.8"/>
<polygon id="0xf42fd0" class="l5d22" points="968.2,248.2 1031.8,248.2 1031.8,311.8 968.2,311.8"/>
<polygon id="0xf43090" class="l5d22" points="968.2,328.2 1031.8,328.2 1031.8,391.8 968.2,391.8"/>
<polygon id="0xf43150" class="l5d22" points="968.2,408.2 1031.8,408.2 1031.8,471.8 968.2,471.8"/>
<polygon id="0xf43210" class="l5d22" points="968.2,488.2 1031.8,488.2 1031.8,551.8 968.2,551.8"/>
<polygon id="0xf432d0" class="l5d22" points="968.2,568.2 1031.8,568.2 1031.8,631.8 968.2,631.8"/>
<polygon id="0xf43390" class="l5d22" points="968.2,648.2 1031.8,648.2 1031.8,711.8 968.2,711.8"/>
<polygon id="0xf43450" class="l5d22" points="968.2,728.2 1031.8,728.2 1031.8,791.8 968.2,791.8"/>
<polygon id="0xf43510" class="l5d22" points="968.2,808.2 1031.8,808.2 1031.8,871.8 968.2,871.8"/>
<polygon id="0xf435d0" class="l5d22" points="968.2,888.2 1031.8,888.2 1031.8,951.8 968.2,951.8"/>
<polygon id="0xf43690" class="l5d22" points="968.2,968.2 1031.8,968.2 1031.8,1031.8 968.2,1031.8"/>
<polygon id="0xf43750" class="l5d22" points="968.2,1048.2 1031.8,1048.2 1031.8,1111.8 968.2,1111.8"/>
<polygon id="0xf43810" class="l5d22" points="968.2,1128.2 1031.8,1128.2 1031.8,1191.8 968.2,1191.8"/>
<polygon id="0xf438d0" class="l5d22" points="1048.2,8.2 1111.8,8.2 1111.8,71.8 1048.2,71.8"/>
<polygon id="0xf43990" class="l5d22" points="1048.2,88.2 1111.8,88.2 1111.8,151.8 1048.2,151.8"/>
<polygon id="0xf43a50" class="l5d22" points="1048.2,168.2 1111.8,168.2 1111.8,231.8 1048.2,231.8"/>
<polygon id="0xf43b10" class="l5d22" points="1048.2,248.2 1111.8,248.2 1111.8,311.8 1048.2,311.8"/>
<polygon id="0xf43bd0" class="l5d22" points="1048.2,328.2 1111.8,328.2 1111.8,391.8 1048.2,391.8"/>
<polygon id="0xf43c90" class="l5d22" points="1048.2,408.2 1111.8,408.2 1111.8,471.8 1048.2,471.8"/>
<polygon id="0xf43d50" class="l5d22" points="1048.2,488.2 1111.8,488.2 1111.8,551.8 1048.2,551.8"/>
<polygon id="0xf43e10" class="l5d22" points="1048.2,568.2 1111.8,568.2 1111.8,631.8 1048.2,631.8"/>
<polygon id="0xf43ed0" class="l5d22" points="1048.2,648.2 1111.8,648.2 1111.8,711.8 1048.2,711.8"/>
<polygon id="0xf43f90" class="l5d22" points="1048.2,728.2 1111.8,728.2 1111.8,791.8 1048.2,791.8"/>
<polygon id="0xf44050" class="l5d22" points="1048.2,808.2 1111.8,808.2 1111.8,871.8 1048.2,871.8"/>
<polygon id="0xf44110" class="l5d22" points="1048.2,888.2 1111.8,888.2 1111.8,951.8 1048.2,951.8"/>
<polygon id="0xf441d0" class="l5d22" points="1048.2,968.2 1111.8,968.2 1111.8,1031.8 1048.2,1031.8"/>
<polygon id="0xf44290" class="l5d22" points="1048.2,1048.2 1111.8,1048.2 1111.8,1111.8 1048.2,1111.8"/>
<polygon id="0xf44350" class="l5d22" points="1048.2,1128.2 1111.8,1128.2 1111.8,1191.8 1048.2,1191.8"/>
<polygon id="0xf44410" class="l5d22" points="1128.2,8.2 1191.8,8.2 1191.8,71.8 1128.2,71.8"/>
<polygon id="0xf444d0" class="l5d22" points="1128.2,88.2 1191.8,88.2 1191.8,151.8 1128.2,151.8"/>
<polygon id="0xf44590" class="l5d22" points="1128.2,168.2 1191.8,168.2 1191.8,231.8 1128.2,231.8"/>
<polygon id="0xf44650" class="l5d22" points="1128.2,248.2 1191.8,248.2 1191.8,311.8 1128.2,311.8"/>
<polygon id="0xf44710" class="l5d22" points="1128.2,328.2 1191.8,328.2 1191.8,391.8 1128.2,391.8"/>
<polygon id="0xf447d0" class="l5d22" points="1128.2,408.2 1191.8,408.2 1191.8,471.8 1128.2,471.8"/>
<polygon id="0xf44890" class="l5d22" points="1128.2,488.2 1191.8,488.2 1191.8,551.8 1128.2,551.8"/>
<polygon id="0xf44950" class="l5d22" points="1128.2,568.2 1191.8,568.2 1191.8,631.8 1128.2,631.8"/>
<polygon id="0xf44a10" class="l5d22" points="1128.2,648.2 1191.8,648.2 1191.8,711.8 1128.2,711.8"/>
<polygon id="0xf44ad0" class="l5d22" points="1128.2,728.2 1191.8,728.2 1191.8,791.8 1128.2,791.8"/>
<polygon id="0xf44b90" class="l5d22" points="1128.2,808.2 1191.8,808.2 1191.8,871.8 1128.2,871.8"/>
<polygon id="0xf44c50" class="l5d22" points="1128.2,888.2 1191.8,888.2 1191.8,951.8 1128.2,951.8"/>
<polygon id="0xf44d10" class="l5d22" points="1128.2,968.2 1191.8,968.2 1191.8,1031.8 1128.2,1031.8"/>
<polygon id="0xf44dd0" class="l5d22" points="1128.2,1048.2 1191.8,1048.2 1191.8,1111.8 1128.2,1111.8"/>
<polygon id="0xf44e90" class="l5d22" points="1128.2,1128.2 1191.8,1128.2 1191.8,1191.8 1128.2,1191.8"/>
<polygon id="0xf44f50" class="l5d22" points="1208.2,8.2 1271.8,8.2 1271.8,71.8 1208.2,71.8"/>
<polygon id="0xf45010" class="l5d22" points="1208.2,88.2 1271.8,88.2 1271.8,151.8 1208.2,151.8"/>
<polygon id="0xf450d0" class="l5d22" points="1208.2,168.2 1271.8,168.2 1271.8,231.8 1208.2,231.8"/>
<polygon id="0xf45190" class="l5d22" points="1208.2,248.2 1271.8,248.2 1271.8,311.8 1208.2,311.8"/>
<polygon id="0xf45250" class="l5d22" points="1208.2,328.2 1271.8,328.2 1271.8,391.8 1208.2,391.8"/>
<polygon id="0xf45310" class="l5d22" points="1208.2,408.2 1271.8,408.2 1271.8,471.8 1208.2,471.8"/>
<polygon id="0xf453d0" class="l5d22" points="1208.2,488.2 1271.8,488.2 1271.8,551.8 1208.2,551.8"/>
<polygon id="0xf45490" class="l5d22" points="1208.2,568.2 1271.8,568.2 1271.8,631.8 1208.2,631.8"/>
<polygon id="0xf45550" class="l5d22" points="1208.2,648.2 1271.8,648.2 1271.8,711.8 1208.2,711.8"/>
<polygon id="0xf45610" class="l5d22" points="1208.2,728.2 1271.8,728.2 1271.8,791.8 1208.2,791.8"/>
<polygon id="0xf456d0" class="l5d22" points="1208.2,808.2 1271.8,808.2 1271.8,871.8 1208.2,871.8"/>
<polygon id="0xf45790" class="l5d22" points="1208.2,888.2 1271.8,888.2 1271.8,951.8 1208.2,951.8"/>
<polygon id="0xf45850" class="l5d22" points="1208.2,968.2 1271.8,968.2 1271.8,1031.8 1208.2,1031.8"/>
<polygon id="0xf45910" class="l5d22" points="1208.2,1048.2 1271.8,1048.2 1271.8,1111.8 1208.2,1111.8"/>
<polygon id="0xf459d0" class="l5d22" points="1208.2,1128.2 1271.8,1128.2 1271.8,1191.8 1208.2,1191.8"/>
<polygon id="0xf45a90" class="l5d22" points="1288.2,8.2 1351.8,8.2 1351.8,71.8 1288.2,71.8"/>
<polygon id="0xf45b50" class="l5d22" points="1288.2,88.2 1351.8,88.2 1351.8,151.8 1288.2,151.8"/>
<polygon id="0xf45c10" class="l5d22" points="1288.2,168.2 1351.8,168.2 1351.8,231.8 1288.2,231.8"/>
<polygon id="0xf45cd0" class="l5d22" points="1288.2,248.2 1351.8,248.2 1351.8,311.8 1288.2,311.8"/>
<polygon id="0xf45d90" class="l5d22" points="1288.2,328.2 1351.8,328.2 1351.8,391.8 1288.2,391.8"/>
<polygon id="0xf45e50" class="l5d22" points="1288.2,408.2 1351.8,408.2 1351.8,471.8 1288.2,471.8"/>
<polygon id="0xf45f10" class="l5d22" points="1288.2,488.2 1351.8,488.2 1351.8,551.8 1288.2,551.8"/>
<polygon id="0xf45fd0" class="l5d22" points="1288.2,568.2 1351.8,568.2 1351.8,631.8 1288.2,631.8"/>
<polygon id="0xf46090" class="l5d22" points="1288.2,648.2 1351.8,648.2 1351.8,711.8 1288.2,711.8"/>
<polygon id="0xf46150" class="l5d22" points="1288.2,728.2 1351.8,728.2 1351.8,791.8 1288.2,791.8"/>
<polygon id="0xf46210" class="l5d22" points="1288.2,808.2 1351.8,808.2 1351.8,871.8 1288.2,871.8"/>
<polygon id="0xf462d0" class="l5d22" points="1288.2,888.2 1351.8,888.2 1351.8,951.8 1288.2,951.8"/>
<polygon id="0xf46390" class="l5d22" points="1288.2,968.2 1351.8,968.2 1351.8,1031.8 1288.2,1031.8"/>
<polygon id="0xf46450" class="l5d22" points="1288.2,1048.2 1351.8,1048.2 1351.8,1111.8 1288.2,1111.8"/>
<polygon id="0xf46510" class="l5d22" points="1288.2,1128.2 1351.8,1128.2 1351.8,1191.8 1288.2,1191.8"/>
<polygon id="0xf465d0" class="l5d22" points="1368.2,8.2 1431.8,8.2 1431.8,71.8 1368.2,71.8"/>
<polygon id="0xf46690" class="l5d22" points="1368.2,88.2 1431.8,88.2 1431.8,151.8 1368.2,151.8"/>
<polygon id="0xf46750" class="l5d22" points="1368.2,168.2 1431.8,168.2 1431.8,231.8 1368.2,231.8"/>
<polygon id="0xf46810" class="l5d22" points="1368.2,248.2 1431.8,248.2 1431.8,311.8 1368.2,311.8"/>
<polygon id="0xf468d0" class="l5d22" points="1368.2,328.2 1431.8,328.2 1431.8,391.8 1368.2,391.8"/>
<polygon id="0xf46990" class="l5d22" points="1368.2,408.2 1431.8,408.2 1431.8,471.8 1368.2,471.8"/>
<polygon id="0xf46a50" class="l5d22" points="1368.2,488.2 1431.8,488.2 1431.8,551.8 1368.2,551.8"/>
<polygon id="0xf46b10" class="l5d22" points="1368.2,568.2 1431.8,568.2 1431.8,631.8 1368.2,631.8"/>
<polygon id="0xf46bd0" class="l5d22" points="1368.2,648.2 1431.8,648.2 1431.8,711.8 1368.2,711.8"/>
<polygon id="0xf46c90" class="l5d22" points="1368.2,728.2 1431.8,728.2 1431.8,791.8 1368.2,791.8"/>
<polygon id="0xf46d50" class="l5d22" points="1368.2,808.2 1431.8,808.2 1431.8,871.8 1368.2,871.8"/>
<polygon id="0xf46e10" class="l5d22" points="1368.2,888.2 1431.8,888.2 1431.8,951.8 1368.2,951.8"/>
<polygon id="0xf46ed0" class="l5d22" points="1368.2,968.2 1431.8,968.2 1431.8,1031.8 1368.2,1031.8"/>
<polygon id="0xf46f90" class="l5d22" points="1368.2,1048.2 1431.8,1048.2 1431.8,1111.8 1368.2,1111.8"/>
<polygon id="0xf47050" class="l5d22" points="1368.2,1128.2 1431.8,1128.2 1431.8,1191.8 1368.2,1191.8"/>
<polygon id="0xf47110" class="l5d22" points="1448.2,8.2 1511.8,8.2 1511.8,71.8 1448.2,71.8"/>
<polygon id="0xf471d0" class="l5d22" points="1448.2,88.2 1511.8,88.2 1511.8,151.8 1448.2,151.8"/>
<polygon id="0xf47290" class="l5d22" points="1448.2,168.2 1511.8,168.2 1511.8,231.8 1448.2,231.8"/>
<polygon id="0xf47350" class="l5d22" points="1448.2,248.2 1511.8,248.2 1511.8,311.8 1448.2,311.8"/>
<polygon id="0xf47410" class="l5d22" points="1448.2,328.2 1511.8,328.2 1511.8,391.8 1448.2,391.8"/>
<polygon id="0xf474d0" class="l5d22" points="1448.2,408.2 1511.8,408.2 1511.8,471.8 1448.2,471.8"/>
<polygon id="0xf47590" class="l5d22" points="1448.2,488.2 1511.8,488.2 1511.8,551.8 1448.2,551.8"/>
<polygon id="0xf47650" class="l5d22" points="1448.2,568.2 1511.8,568.2 1511.8,631.8 1448.2,631.8"/>
<polygon id="0xf47710" class="l5d22" points="1448.2,648.2 1511.8,648.2 1511.8,711.8 1448.2,711.8"/>
<polygon id="0xf477d0" class="l5d22" points="1448.2,728.2 1511.8,728.2 1511.8,791.8 1448.2,791.8"/>
<polygon id="0xf47890" class="l5d22" points="1448.2,808.2 1511.8,808.2 1511.8,871.8 1448.2,871.8"/>
<polygon id="0xf47950" class="l5d22" points="1448.2,888.2 1511.8,888.2 1511.8,951.8 1448.2,951.8"/>
<polygon id="0xf47a10" class="l5d22" points="1448.2,968.2 1511.8,968.2 1511.8,1031.8 1448.2,1031.8"/>
<polygon id="0xf47ad0" class="l5d22" points="1448.2,1048.2 1511.8,1048.2 1511.8,1111.8 1448.2,1111.8"/>
<polygon id="0xf47b90" class="l5d22" points="1448.2,1128.2 1511.8,1128.2 1511.8,1191.8 1448.2,1191.8"/>
<polygon id="0xf47c50" class="l5d22" points="1528.2,8.2 1591.8,8.2 1591.8,71.8 1528.2,71.8"/>
<polygon id="0xf47d10" class="l5d22" points="1528.2,88.2 1591.8,88.2 1591.8,151.8 1528.2,151.8"/>
<polygon id="0xf47dd0" class="l5d22" points="1528.2,168.2 1591.8,168.2 1591.8,231.8 1528.2,231.8"/>
<polygon id="0xf47e90" class="l5d22" points="1528.2,248.2 1591.8,248.2 1591.8,311.8 1528.2,311.8"/>
<polygon id="0xf47f50" class="l5d22" points="1528.2,328.2 1591.8,328.2 1591.8,391.8 1528.2,391.8"/>
<polygon id="0xf48010" class="l5d22" points="1528.2,408.2 1591.8,408.2 1591.8,471.8 1528.2,471.8"/>
<polygon id="0xf480d0" class="l5d22" points="1528.2,488.2 1591.8,488.2 1591.8,551.8 1528.2,551.8"/>
<polygon id="0xf48190" class="l5d22" points="1528.2,568.2 1591.8,568.2 1591.8,631.8 1528.2,631.8"/>
<polygon id="0xf48250" class="l5d22" points="1528.2,648.2 1591.8,648.2 1591.8,711.8 1528.2,711.8"/>
<polygon id="0xf48310" class="l5d22" points="1528.2,728.2 1591.8,728.2 1591.8,791.8 1528.2,791.8"/>
<polygon id="0xf483d0" class="l5d22" points="1528.2,808.2 1591.8,808.2 1591.8,871.8 1528.2,871.8"/>
<polygon id="0xf48490" class="l5d22" points="1528.2,888.2 1591.8,888.2 1591.8,951.8 1528.2,951.8"/>
<polygon id="0xf48550" class="l5d22" points="1528.2,968.2 1591.8,968.2 1591.8,1031.8 1528.2,1031.8"/>
<polygon id="0xf48610" class="l5d22" points="1528.2,1048.2 1591.8,1048.2 1591.8,1111.8 1528.2,1111.8"/>
<polygon id="0xf486d0" class="l5d22" points="1528.2,1128.2 1591.8,1128.2 1591.8,1191.8 1528.2,1191.8"/>
</g>
</svg>