<?xml version="1.0" encoding="UTF-8"?>
<svg xmlns="http://www.w3.org/2000/svg" xmlns:xlink="http://www.w3.org/1999/xlink" width="1760" height="1360" viewBox="-80 -1280 1760 1360">
<defs>
<style type="text/css">
.l126d0 {stroke: #E68FAC; fill: #E68FAC; fill-opacity: 0.5;}
.l189d4 {stroke: #A1CAF1; fill: #A1CAF1; fill-opacity: 0.5;}
.l1d0 {stroke: #A1CAF1; fill: #A1CAF1; fill-opacity: 0.5;}
</style>
</defs>
<rect x="-80" y="-1280" width="1760" height="1360" fill="#222222" stroke="none"/>
<g id="my_logo" transform="scale(1 -1)">
<polygon id="0x22a15b0" class="l126d0" points="160,20 320,20 320,60 160,60"/>
<polygon id="0x22a83a0" class="l126d0" points="400,20 560,20 560,60 400,60"/>
<polygon id="0x22b3160" class="l126d0" points="640,20 720,20 720,60 640,60"/>
<polygon id="0x23054f0" class="l126d0" points="960,20 1120,20 1120,60 960,60"/>
<polygon id="0x23dea60" class="l126d0" points="1440,20 1600,20 1600,60 1440,60"/>
<polygon id="0x245d9d0" class="l126d0" points="0,100 80,100 80,140 0,140"/>
<polygon id="0x245f0c0" class="l126d0" points="400,100 560,100 560,140 400,140"/>
<polygon id="0x240b4c0" class="l126d0" points="640,100 720,100 720,140 640,140"/>
<polygon id="0x243e500" class="l126d0" points="1040,100 1200,100 1200,140 1040,140"/>
<polygon id="0x2426c80" class="l126d0" points="1280,100 1440,100 1440,140 1280,140"/>
<polygon id="0x2450440" class="l126d0" points="1520,100 1600,100 1600,140 1520,140"/>
<polygon id="0x2488e00" class="l126d0" points="80,180 240,180 240,220 80,220"/>
<polygon id="0x22f0770" class="l126d0" points="400,180 720,180 720,220 400,220"/>
<polygon id="0x22fa4e0" class="l126d0" points="800,180 880,180 880,220 800,220"/>
<polygon id="0x229b8c0" class="l126d0" points="960,180 1120,180 1120,220 960,220"/>
<polygon id="0x236d990" class="l126d0" points="1200,180 1440,180 1440,220 1200,220"/>
<polygon id="0x23d8b90" class="l126d0" points="1520,180 1600,180 1600,220 1520,220"/>
<polygon id="0x2370370" class="l126d0" points="0,260 80,260 80,300 0,300"/>
<polygon id="0x23dd400" class="l126d0" points="160,260 320,260 320,300 160,300"/>
<polygon id="0x242f460" class="l126d0" points="480,260 560,260 560,300 480,300"/>
<polygon id="0x21bbb90" class="l126d0" points="720,260 800,260 800,300 720,300"/>
<polygon id="0x223b9d0" class="l126d0" points="960,260 1040,260 1040,300 960,300"/>
<polygon id="0x224ea70" class="l126d0" points="1200,260 1360,260 1360,300 1200,300"/>
<polygon id="0x225d120" class="l126d0" points="0,340 160,340 160,380 0,380"/>
<polygon id="0x21ec6d0" class="l126d0" points="240,340 400,340 400,380 240,380"/>
<polygon id="0x23bce80" class="l126d0" points="720,340 1200,340 1200,380 720,380"/>
<polygon id="0x23c8b30" class="l126d0" points="1280,340 1360,340 1360,380 1280,380"/>
<polygon id="0x23ef7a0" class="l126d0" points="1520,340 1600,340 1600,380 1520,380"/>
<polygon id="0x2421170" class="l126d0" points="80,420 160,420 160,460 80,460"/>
<polygon id="0x22675d0" class="l126d0" points="320,420 400,420 400,460 320,460"/>
<polygon id="0x22a1190" class="l126d0" points="480,420 560,420 560,460 480,460"/>
<polygon id="0x22c5700" class="l126d0" points="640,420 720,420 720,460 640,460"/>
<polygon id="0x22f0250" class="l126d0" points="960,420 1120,420 1120,460 960,460"/>
<polygon id="0x248b200" class="l126d0" points="1360,420 1440,420 1440,460 1360,460"/>
<polygon id="0x23ab2f0" class="l126d0" points="1520,420 1600,420 1600,460 1520,460"/>
<polygon id="0x24146b0" class="l126d0" points="80,500 240,500 240,540 80,540"/>
<polygon id="0x23f7400" class="l126d0" points="320,500 400,500 400,540 320,540"/>
<polygon id="0x2463ee0" class="l126d0" points="480,500 640,500 640,540 480,540"/>
<polygon id="0x2223880" class="l126d0" points="1040,500 1120,500 1120,540 1040,540"/>
<polygon id="0x2234500" class="l126d0" points="1200,500 1280,500 1280,540 1200,540"/>
<polygon id="0x229e0a0" class="l126d0" points="1360,500 1600,500 1600,540 1360,540"/>
<polygon id="0x2364e70" class="l126d0" points="0,580 240,580 240,620 0,620"/>
<polygon id="0x236ba10" class="l126d0" points="320,580 400,580 400,620 320,620"/>
<polygon id="0x222fae0" class="l126d0" points="480,580 640,580 640,620 480,620"/>
<polygon id="0x23adfc0" class="l126d0" points="800,580 960,580 960,620 800,620"/>
<polygon id="0x23b0a30" class="l126d0" points="1040,580 1200,580 1200,620 1040,620"/>
<polygon id="0x23c9a60" class="l126d0" points="1280,580 1360,580 1360,620 1280,620"/>
<polygon id="0x235e020" class="l126d0" points="1440,580 1600,580 1600,620 1440,620"/>
<polygon id="0x23e32c0" class="l126d0" points="0,660 160,660 160,700 0,700"/>
<polygon id="0x242ea80" class="l126d0" points="240,660 720,660 720,700 240,700"/>
<polygon id="0x242eaf0" class="l126d0" points="800,660 960,660 960,700 800,700"/>
<polygon id="0x24635f0" class="l126d0" points="1040,660 1280,660 1280,700 1040,700"/>
<polygon id="0x2489d40" class="l126d0" points="1520,660 1600,660 1600,700 1520,700"/>
<polygon id="0x224e6c0" class="l126d0" points="0,740 160,740 160,780 0,780"/>
<polygon id="0x224e730" class="l126d0" points="800,740 880,740 880,780 800,780"/>
<polygon id="0x2250c70" class="l126d0" points="960,740 1040,740 1040,780 960,780"/>
<polygon id="0x228c300" class="l126d0" points="1200,740 1360,740 1360,780 1200,780"/>
<polygon id="0x22f4e20" class="l126d0" points="1440,740 1520,740 1520,780 1440,780"/>
<polygon id="0x22ce140" class="l126d0" points="240,820 320,820 320,860 240,860"/>
<polygon id="0x239d850" class="l126d0" points="560,820 800,820 800,860 560,860"/>
<polygon id="0x23f0a30" class="l126d0" points="880,820 1120,820 1120,860 880,860"/>
<polygon id="0x23cf990" class="l126d0" points="1200,820 1280,820 1280,860 1200,860"/>
<polygon id="0x242b450" class="l126d0" points="1360,820 1440,820 1440,860 1360,860"/>
<polygon id="0x243c960" class="l126d0" points="1520,820 1600,820 1600,860 1520,860"/>
<polygon id="0x244c5f0" class="l126d0" points="80,900 160,900 160,940 80,940"/>
<polygon id="0x2215f80" class="l126d0" points="240,900 560,900 560,940 240,940"/>
<polygon id="0x2216040" class="l126d0" points="640,900 800,900 800,940 640,940"/>
<polygon id="0x2237420" class="l126d0" points="880,900 1040,900 1040,940 880,940"/>
<polygon id="0x22374e0" class="l126d0" points="1200,900 1280,900 1280,940 1200,940"/>
<polygon id="0x225b7e0" class="l126d0" points="400,980 560,980 560,1020 400,1020"/>
<polygon id="0x225b8a0" class="l126d0" points="720,980 880,980 880,1020 720,1020"/>
<polygon id="0x228cc90" class="l126d0" points="960,980 1040,980 1040,1020 960,1020"/>
<polygon id="0x228cd50" class="l126d0" points="1120,980 1200,980 1200,1020 1120,1020"/>
<polygon id="0x22ec8b0" class="l126d0" points="1440,980 1520,980 1520,1020 1440,1020"/>
<polygon id="0x22ec970" class="l126d0" points="240,1060 320,1060 320,1100 240,1100"/>
<polygon id="0x24602d0" class="l126d0" points="480,1060 720,1060 720,1100 480,1100"/>
<polygon id="0x2460390" class="l126d0" points="880,1060 1120,1060 1120,1100 880,1100"/>
<polygon id="0x2252360" class="l126d0" points="1200,1060 1360,1060 1360,1100 1200,1100"/>
<polygon id="0x2252420" class="l126d0" points="1520,1060 1600,1060 1600,1100 1520,1100"/>
<polygon id="0x23acb00" class="l126d0" points="0,1140 80,1140 80,1180 0,1180"/>
<polygon id="0x23acbc0" class="l126d0" points="160,1140 240,1140 240,1180 160,1180"/>
<polygon id="0x2163e70" class="l126d0" points="320,1140 400,1140 400,1180 320,1180"/>
<polygon id="0x2163f30" class="l126d0" points="480,1140 800,1140 800,1180 480,1180"/>
<polygon id="0x23f1050" class="l126d0" points="880,1140 960,1140 960,1180 880,1180"/>
<polygon id="0x23f1110" class="l126d0" points="1040,1140 1200,1140 1200,1180 1040,1180"/>
<polygon id="0x23f4fb0" class="l126d0" points="1280,1140 1360,1140 1360,1180 1280,1180"/>
<polygon id="0x22000e0" class="l126d0" points="20,0 60,0 60,80 20,80"/>
<polygon id="0x22001a0" class="l126d0" points="20,160 60,160 60,240 20,240"/>
<polygon id="0x2221c60" class="l126d0" points="20,400 60,400 60,560 20,560"/>
<polygon id="0x222bc70" class="l126d0" points="20,800 60,800 60,1120 20,1120"/>
<polygon id="0x222bce0" class="l126d0" points="100,0 140,0 140,160 100,160"/>
<polygon id="0x22646c0" class="l126d0" points="100,240 140,240 140,320 100,320"/>
<polygon id="0x2264780" class="l126d0" points="100,800 140,800 140,880 100,880"/>
<polygon id="0x2366e80" class="l126d0" points="100,960 140,960 140,1200 100,1200"/>
<polygon id="0x237c7e0" class="l126d0" points="180,80 220,80 220,160 180,160"/>
<polygon id="0x237c850" class="l126d0" points="180,320 220,320 220,480 180,480"/>
<polygon id="0x23face0" class="l126d0" points="180,640 220,640 220,1120 180,1120"/>
<polygon id="0x23fada0" class="l126d0" points="260,80 300,80 300,240 260,240"/>
<polygon id="0x242d930" class="l126d0" points="260,400 300,400 300,640 260,640"/>
<polygon id="0x246ba30" class="l126d0" points="260,720 300,720 300,800 260,800"/>
<polygon id="0x246baa0" class="l126d0" points="260,960 300,960 300,1040 260,1040"/>
<polygon id="0x221fe70" class="l126d0" points="260,1120 300,1120 300,1200 260,1200"/>
<polygon id="0x221ff30" class="l126d0" points="340,0 380,0 380,320 340,320"/>
<polygon id="0x2211cd0" class="l126d0" points="340,720 380,720 380,880 340,880"/>
<polygon id="0x22f6790" class="l126d0" points="340,960 380,960 380,1120 340,1120"/>
<polygon id="0x22f6850" class="l126d0" points="420,240 460,240 460,640 420,640"/>
<polygon id="0x22ef220" class="l126d0" points="420,720 460,720 460,880 420,880"/>
<polygon id="0x22ef2e0" class="l126d0" points="420,1040 460,1040 460,1200 420,1200"/>
<polygon id="0x235c450" class="l126d0" points="500,320 540,320 540,400 500,400"/>
<polygon id="0x236a980" class="l126d0" points="500,720 540,720 540,880 500,880"/>
<polygon id="0x236aa40" class="l126d0" points="580,0 620,0 620,160 580,160"/>
<polygon id="0x23e0120" class="l126d0" points="580,240 620,240 620,480 580,480"/>
<polygon id="0x23e01e0" class="l126d0" points="580,720 620,720 620,800 580,800"/>
<polygon id="0x221e0f0" class="l126d0" points="580,880 620,880 620,1040 580,1040"/>
<polygon id="0x221e1b0" class="l126d0" points="660,240 700,240 700,400 660,400"/>
<polygon id="0x225d660" class="l126d0" points="660,480 700,480 700,640 660,640"/>
<polygon id="0x225d720" class="l126d0" points="660,720 700,720 700,800 660,800"/>
<polygon id="0x22a7320" class="l126d0" points="660,960 700,960 700,1040 660,1040"/>
<polygon id="0x22a73e0" class="l126d0" points="740,0 780,0 780,240 740,240"/>
<polygon id="0x22e4bc0" class="l126d0" points="740,400 780,400 780,800 740,800"/>
<polygon id="0x22e4c80" class="l126d0" points="740,1040 780,1040 780,1120 740,1120"/>
<polygon id="0x22f3cc0" class="l126d0" points="820,0 860,0 860,160 820,160"/>
<polygon id="0x22f3d80" class="l126d0" points="820,240 860,240 860,320 820,320"/>
<polygon id="0x22cce10" class="l126d0" points="820,400 860,400 860,560 820,560"/>
<polygon id="0x22cced0" class="l126d0" points="820,800 860,800 860,960 820,960"/>
<polygon id="0x2339dc0" class="l126d0" points="820,1040 860,1040 860,1200 820,1200"/>
<polygon id="0x2339e80" class="l126d0" points="900,0 940,0 940,320 900,320"/>
<polygon id="0x245a710" class="l126d0" points="900,400 940,400 940,560 900,560"/>
<polygon id="0x245a7d0" class="l126d0" points="900,720 940,720 940,800 900,800"/>
<polygon id="0x224d440" class="l126d0" points="900,960 940,960 940,1040 900,1040"/>
<polygon id="0x224d500" class="l126d0" points="980,80 1020,80 1020,160 980,160"/>
<polygon id="0x238b3c0" class="l126d0" points="980,480 1020,480 1020,720 980,720"/>
<polygon id="0x238b480" class="l126d0" points="980,1120 1020,1120 1020,1200 980,1200"/>
<polygon id="0x224ac60" class="l126d0" points="1060,240 1100,240 1100,320 1060,320"/>
<polygon id="0x224ad20" class="l126d0" points="1060,720 1100,720 1100,800 1060,800"/>
<polygon id="0x2260a20" class="l126d0" points="1060,880 1100,880 1100,1040 1060,1040"/>
<polygon id="0x2260ae0" class="l126d0" points="1140,0 1180,0 1180,80 1140,80"/>
<polygon id="0x225ee00" class="l126d0" points="1140,160 1180,160 1180,320 1140,320"/>
<polygon id="0x225eec0" class="l126d0" points="1140,400 1180,400 1180,560 1140,560"/>
<polygon id="0x22b8870" class="l126d0" points="1140,720 1180,720 1180,960 1140,960"/>
<polygon id="0x22b8930" class="l126d0" points="1140,1040 1180,1040 1180,1120 1140,1120"/>
<polygon id="0x22af3d0" class="l126d0" points="1220,0 1260,0 1260,160 1220,160"/>
<polygon id="0x22af490" class="l126d0" points="1220,320 1260,320 1260,480 1220,480"/>
<polygon id="0x2451020" class="l126d0" points="1220,560 1260,560 1260,640 1220,640"/>
<polygon id="0x24510e0" class="l126d0" points="1220,960 1260,960 1260,1040 1220,1040"/>
<polygon id="0x21bb310" class="l126d0" points="1220,1120 1260,1120 1260,1200 1220,1200"/>
<polygon id="0x21bb3d0" class="l126d0" points="1300,0 1340,0 1340,80 1300,80"/>
<polygon id="0x2208c90" class="l126d0" points="1300,400 1340,400 1340,560 1300,560"/>
<polygon id="0x2208d50" class="l126d0" points="1300,640 1340,640 1340,720 1300,720"/>
<polygon id="0x224b750" class="l126d0" points="1300,800 1340,800 1340,1040 1300,1040"/>
<polygon id="0x224b810" class="l126d0" points="1380,0 1420,0 1420,80 1380,80"/>
<polygon id="0x225af40" class="l126d0" points="1380,240 1420,240 1420,400 1380,400"/>
<polygon id="0x225b000" class="l126d0" points="1380,560 1420,560 1420,800 1380,800"/>
<polygon id="0x2276230" class="l126d0" points="1380,880 1420,880 1420,1200 1380,1200"/>
<polygon id="0x22762f0" class="l126d0" points="1460,80 1500,80 1500,480 1460,480"/>
<polygon id="0x228b0e0" class="l126d0" points="1460,640 1500,640 1500,720 1460,720"/>
<polygon id="0x228b1a0" class="l126d0" points="1460,800 1500,800 1500,960 1460,960"/>
<polygon id="0x2334580" class="l126d0" points="1460,1040 1500,1040 1500,1200 1460,1200"/>
<polygon id="0x2334640" class="l126d0" points="1540,240 1580,240 1580,320 1540,320"/>
<polygon id="0x23a64a0" class="l126d0" points="1540,720 1580,720 1580,800 1540,800"/>
<polygon id="0x23a6560" class="l126d0" points="1540,880 1580,880 1580,1040 1540,1040"/>
<polygon id="0x24013a0" class="l126d0" points="1540,1120 1580,1120 1580,1200 1540,1200"/>
<polygon id="0x2401460" class="l189d4" points="0,0 300,0 300,300 0,300"/>
<polygon id="0x221f9f0" class="l1d0" points="25,25 55,25 55,55 25,55"/>
<polygon id="0x221fab0" class="l1d0" points="25,105 55,105 55,135 25,135"/>
<polygon id="0x233c510" class="l1d0" points="25,185 55,185 55,215 25,215"/>
<polygon id="0x233c5d0" class="l1d0" points="25,265 55,265 55,295 25,295"/>
<polygon id="0x238f260" class="l1d0" points="25,345 55,345 55,375 25,375"/>
<polygon id="0x238f320" class="l1d0" points="25,425 55,425 55,455 25,455"/>
<polygon id="0x2220630" class="l1d0" points="25,505 55,505 55,535 25,535"/>
<polygon id="0x22206f0" class="l1d0" points="25,585 55,585 55,615 25,615"/>
<polygon id="0x229dac0" class="l1d0" points="25,665 55,665 55,695 25,695"/>
<polygon id="0x229db80" class="l1d0" points="25,745 55,745 55,775 25,775"/>
<polygon id="0x22e7070" class="l1d0" points="25,825 55,825 55,855 25,855"/>
<polygon id="0x22e70e0" class="l1d0" points="25,905 55,905 55,935 25,935"/>
<polygon id="0x22e71a0" class="l1d0" points="25,985 55,985 55,1015 25,1015"/>
<polygon id="0x23bf750" class="l1d0" points="25,1065 55,1065 55,1095 25,1095"/>
<polygon id="0x23bf810" class="l1d0" points="25,1145 55,1145 55,1175 25,1175"/>
<polygon id="0x23d8120" class="l1d0" points="105,25 135,25 135,55 105,55"/>
<polygon id="0x23d81e0" class="l1d0" points="105,105 135,105 135,135 105,135"/>
<polygon id="0x2302ce0" class="l1d0" points="105,185 135,185 135,215 105,215"/>
<polygon id="0x2302d50" class="l1d0" points="105,265 135,265 135,295 105,295"/>
<polygon id="0x2302e10" class="l1d0" points="105,345 135,345 135,375 105,375"/>
<polygon id="0x2368750" class="l1d0" points="105,425 135,425 135,455 105,455"/>
<polygon id="0x2368810" class="l1d0" points="105,505 135,505 135,535 105,535"/>
<polygon id="0x24243a0" class="l1d0" points="105,585 135,585 135,615 105,615"/>
<polygon id="0x2424460" class="l1d0" points="105,665 135,665 135,695 105,695"/>
<polygon id="0x21bc4c0" class="l1d0" points="105,745 135,745 135,775 105,775"/>
<polygon id="0x21bc580" class="l1d0" points="105,825 135,825 135,855 105,855"/>
<polygon id="0x22634f0" class="l1d0" points="105,905 135,905 135,935 105,935"/>
<polygon id="0x22635b0" class="l1d0" points="105,985 135,985 135,1015 105,1015"/>
<polygon id="0x2263670" class="l1d0" points="105,1065 135,1065 135,1095 105,1095"/>
<polygon id="0x2265fc0" class="l1d0" points="105,1145 135,1145 135,1175 105,1175"/>
<polygon id="0x2266080" class="l1d0" points="185,25 215,25 215,55 185,55"/>
<polygon id="0x2266140" class="l1d0" points="185,105 215,105 215,135 185,135"/>
<polygon id="0x22b7720" class="l1d0" points="185,185 215,185 215,215 185,215"/>
<polygon id="0x22b77e0" class="l1d0" points="185,265 215,265 215,295 185,295"/>
<polygon id="0x22b78a0" class="l1d0" points="185,345 215,345 215,375 185,375"/>
<polygon id="0x22c63f0" class="l1d0" points="185,425 215,425 215,455 185,455"/>
<polygon id="0x22c64b0" class="l1d0" points="185,505 215,505 215,535 185,535"/>
<polygon id="0x22ed3b0" class="l1d0" points="185,585 215,585 215,615 185,615"/>
<polygon id="0x22ed470" class="l1d0" points="185,665 215,665 215,695 185,695"/>
<polygon id="0x22ed530" class="l1d0" points="185,745 215,745 215,775 185,775"/>
<polygon id="0x237d1d0" class="l1d0" points="185,825 215,825 215,855 185,855"/>
<polygon id="0x237d290" class="l1d0" points="185,905 215,905 215,935 185,935"/>
<polygon id="0x2410550" class="l1d0" points="185,985 215,985 215,1015 185,1015"/>
<polygon id="0x2410610" class="l1d0" points="185,1065 215,1065 215,1095 185,1095"/>
<polygon id="0x24106d0" class="l1d0" points="185,1145 215,1145 215,1175 185,1175"/>
<polygon id="0x2434900" class="l1d0" points="265,25 295,25 295,55 265,55"/>
<polygon id="0x24349c0" class="l1d0" points="265,105 295,105 295,135 265,135"/>
<polygon id="0x227f270" class="l1d0" points="265,185 295,185 295,215 265,215"/>
<polygon id="0x227f330" class="l1d0" points="265,265 295,265 295,295 265,295"/>
<polygon id="0x227f3f0" class="l1d0" points="265,345 295,345 295,375 265,375"/>
<polygon id="0x22d3880" class="l1d0" points="265,425 295,425 295,455 265,455"/>
<polygon id="0x22d3940" class="l1d0" points="265,505 295,505 295,535 265,535"/>
<polygon id="0x21ecd00" class="l1d0" points="265,585 295,585 295,615 265,615"/>
<polygon id="0x21ecdc0" class="l1d0" points="265,665 295,665 295,695 265,695"/>
<polygon id="0x21ece80" class="l1d0" points="265,745 295,745 295,775 265,775"/>
<polygon id="0x2373850" class="l1d0" points="265,825 295,825 295,855 265,855"/>
<polygon id="0x2373910" class="l1d0" points="265,905 295,905 295,935 265,935"/>
<polygon id="0x23cced0" class="l1d0" points="265,985 295,985 295,1015 265,1015"/>
<polygon id="0x23ccf90" class="l1d0" points="265,1065 295,1065 295,1095 265,1095"/>
<polygon id="0x23cd050" class="l1d0" points="265,1145 295,1145 295,1175 265,1175"/>
<polygon id="0x23d00b0" class="l1d0" points="345,25 375,25 375,55 345,55"/>
<polygon id="0x23d0170" class="l1d0" points="345,105 375,105 375,135 345,135"/>
<polygon id="0x23d2d60" class="l1d0" points="345,185 375,185 375,215 345,215"/>
<polygon id="0x23d2e20" class="l1d0" points="345,265 375,265 375,295 345,295"/>
<polygon id="0x23d2ee0" class="l1d0" points="345,345 375,345 375,375 345,375"/>
<polygon id="0x246aa70" class="l1d0" points="345,425 375,425 375,455 345,455"/>
<polygon id="0x246ab30" class="l1d0" points="345,505 375,505 375,535 345,535"/>
<polygon id="0x2481c50" class="l1d0" points="345,585 375,585 375,615 345,615"/>
<polygon id="0x2481d10" class="l1d0" points="345,665 375,665 375,695 345,695"/>
<polygon id="0x2481dd0" class="l1d0" points="345,745 375,745 375,775 345,775"/>
<polygon id="0x2481e90" class="l1d0" points="345,825 375,825 375,855 345,855"/>
<polygon id="0x2481f50" class="l1d0" points="345,905 375,905 375,935 345,935"/>
<polygon id="0x2482010" class="l1d0" points="345,985 375,985 375,1015 345,1015"/>
<polygon id="0x24820d0" class="l1d0" points="345,1065 375,1065 375,1095 345,1095"/>
<polygon id="0x2482190" class="l1d0" points="345,1145 375,1145 375,1175 345,1175"/>
<polygon id="0x2482250" class="l1d0" points="425,25 455,25 455,55 425,55"/>
<polygon id="0x2482310" class="l1d0" points="425,105 455,105 455,135 425,135"/>
<polygon id="0x24823d0" class="l1d0" points="425,185 455,185 455,215 425,215"/>
<polygon id="0x2482490" class="l1d0" points="425,265 455,265 455,295 425,295"/>
<polygon id="0x2482550" class="l1d0" points="425,345 455,345 455,375 425,375"/>
<polygon id="0x2482610" class="l1d0" points="425,425 455,425 455,455 425,455"/>
<polygon id="0x24826d0" class="l1d0" points="425,505 455,505 455,535 425,535"/>
<polygon id="0x2482790" class="l1d0" points="425,585 455,585 455,615 425,615"/>
<polygon id="0x2482850" class="l1d0" points="425,665 455,665 455,695 425,695"/>
<polygon id="0x2482910" class="l1d0" points="425,745 455,745 455,775 425,775"/>
<polygon id="0x24829d0" class="l1d0" points="425,825 455,825 455,855 425,855"/>
<polygon id="0x2482a90" class="l1d0" points="425,905 455,905 455,935 425,935"/>
<polygon id="0x2482b50" class="l1d0" points="425,985 455,985 455,1015 425,1015"/>
<polygon id="0x2482c10" class="l1d0" points="425,1065 455,1065 455,1095 425,1095"/>
<polygon id="0x2482cd0" class="l1d0" points="425,1145 455,1145 455,1175 425,1175"/>
<polygon id="0x2482d90" class="l1d0" points="505,25 535,25 535,55 505,55"/>
<polygon id="0x2482e50" class="l1d0" points="505,105 535,105 535,135 505,135"/>
<polygon id="0x2482f10" class="l1d0" points="505,185 535,185 535,215 505,215"/>
<polygon id="0x2482fd0" class="l1d0" points="505,265 535,265 535,295 505,295"/>
<polygon id="0x2481440" class="l1d0" points="505,345 535,345 535,375 505,375"/>
<polygon id="0x2481500" class="l1d0" points="505,425 535,425 535,455 505,455"/>
<polygon id="0x24815c0" class="l1d0" points="505,505 535,505 535,535 505,535"/>
<polygon id="0x2481680" class="l1d0" points="505,585 535,585 535,615 505,615"/>
<polygon id="0x2481740" class="l1d0" points="505,665 535,665 535,695 505,695"/>
<polygon id="0x2481800" class="l1d0" points="505,745 535,745 535,775 505,775"/>
<polygon id="0x24818c0" class="l1d0" points="505,825 535,825 535,855 505,855"/>
<polygon id="0x2481980" class="l1d0" points="505,905 535,905 535,935 505,935"/>
<polygon id="0x2481a40" class="l1d0" points="505,985 535,985 535,1015 505,1015"/>
<polygon id="0x2481b00" class="l1d0" points="505,1065 535,1065 535,1095 505,1095"/>
<polygon id="0x2481bc0" class="l1d0" points="505,1145 535,1145 535,1175 505,1175"/>
<polygon id="0x24840f0" class="l1d0" points="585,25 615,25 615,55 585,55"/>
<polygon id="0x24841b0" class="l1d0" points="585,105 615,105 615,135 585,135"/>
<polygon id="0x2484270" class="l1d0" points="585,185 615,185 615,215 585,215"/>
<polygon id="0x2484330" class="l1d0" points="585,265 615,265 615,295 585,295"/>
<polygon id="0x24843f0" class="l1d0" points="585,345 615,345 615,375 585,375"/>
<polygon id="0x24844b0" class="l1d0" points="585,425 615,425 615,455 585,455"/>
<polygon id="0x2484570" class="l1d0" points="585,505 615,505 615,535 585,535"/>
<polygon id="0x2484630" class="l1d0" points="585,585 615,585 615,615 585,615"/>
<polygon id="0x24846f0" class="l1d0" points="585,665 615,665 615,695 585,695"/>
<polygon id="0x24847b0" class="l1d0" points="585,745 615,745 615,775 585,775"/>
<polygon id="0x2484870" class="l1d0" points="585,825 615,825 615,855 585,855"/>
<polygon id="0x2484930" class="l1d0" points="585,905 615,905 615,935 585,935"/>
<polygon id="0x24849f0" class="l1d0" points="585,985 615,985 615,1015 585,1015"/>
<polygon id="0x2484ab0" class="l1d0" points="585,1065 615,1065 615,1095 585,1095"/>
<polygon id="0x2484b70" class="l1d0" points="585,1145 615,1145 615,1175 585,1175"/>
<polygon id="0x2484c30" class="l1d0" points="665,25 695,25 695,55 665,55"/>
<polygon id="0x2484cf0" class="l1d0" points="665,105 695,105 695,135 665,135"/>
<polygon id="0x2484db0" class="l1d0" points="665,185 695,185 695,215 665,215"/>
<polygon id="0x2484e70" class="l1d0" points="665,265 695,265 695,295 665,295"/>
<polygon id="0x2484f30" class="l1d0" points="665,345 695,345 695,375 665,375"/>
<polygon id="0x2484ff0" class="l1d0" points="665,425 695,425 695,455 665,455"/>
<polygon id="0x24850b0" class="l1d0" points="665,505 695,505 695,535 665,535"/>
<polygon id="0x2485170" class="l1d0" points="665,585 695,585 695,615 665,615"/>
<polygon id="0x2485230" class="l1d0" points="665,665 695,665 695,695 665,695"/>
<polygon id="0x24852f0" class="l1d0" points="665,745 695,745 695,775 665,775"/>
<polygon id="0x24853b0" class="l1d0" points="665,825 695,825 695,855 665,855"/>
<polygon id="0x2485470" class="l1d0" points="665,905 695,905 695,935 665,935"/>
<polygon id="0x2485530" class="l1d0" points="665,985 695,985 695,1015 665,1015"/>
<polygon id="0x24855f0" class="l1d0" points="665,1065 695,1065 695,1095 665,1095"/>
<polygon id="0x24856b0" class="l1d0" points="665,1145 695,1145 695,1175 665,1175"/>
<polygon id="0x2485770" class="l1d0" points="745,25 775,25 775,55 745,55"/>
<polygon id="0x2485830" class="l1d0" points="745,105 775,105 775,135 745,135"/>
<polygon id="0x24858f0" class="l1d0" points="745,185 775,185 775,215 745,215"/>
<polygon id="0x24859b0" class="l1d0" points="745,265 775,265 775,295 745,295"/>
<polygon id="0x2485a70" class="l1d0" points="745,345 775,345 775,375 745,375"/>
<polygon id="0x2485b30" class="l1d0" points="745,425 775,425 775,455 745,455"/>
<polygon id="0x2485bf0" class="l1d0" points="745,505 775,505 775,535 745,535"/>
<polygon id="0x2485cb0" class="l1d0" points="745,585 775,585 775,615 745,615"/>
<polygon id="0x2485d70" class="l1d0" points="745,665 775,665 775,695 745,695"/>
<polygon id="0x2485e30" class="l1d0" points="745,745 775,745 775,775 745,775"/>
<polygon id="0x2485ef0" class="l1d0" points="745,825 775,825 775,855 745,855"/>
<polygon id="0x2485fb0" class="l1d0" points="745,905 775,905 775,935 745,935"/>
<polygon id="0x2486070" class="l1d0" points="745,985 775,985 775,1015 745,1015"/>
<polygon id="0x2486130" class="l1d0" points="745,1065 775,1065 775,1095 745,1095"/>
<polygon id="0x24861f0" class="l1d0" points="745,1145 775,1145 775,1175 745,1175"/>
<polygon id="0x24862b0" class="l1d0" points="825,25 855,25 855,55 825,55"/>
<polygon id="0x2486370" class="l1d0" points="825,105 855,105 855,135 825,135"/>
<polygon id="0x2486430" class="l1d0" points="825,185 855,185 855,215 825,215"/>
<polygon id="0x24864f0" class="l1d0" points="825,265 855,265 855,295 825,295"/>
<polygon id="0x24865b0" class="l1d0" points="825,345 855,345 855,375 825,375"/>
<polygon id="0x2486670" class="l1d0" points="825,425 855,425 855,455 825,455"/>
<polygon id="0x2486730" class="l1d0" points="825,505 855,505 855,535 825,535"/>
<polygon id="0x24867f0" class="l1d0" points="825,585 855,585 855,615 825,615"/>
<polygon id="0x24868b0" class="l1d0" points="825,665 855,665 855,695 825,695"/>
<polygon id="0x2486970" class="l1d0" points="825,745 855,745 855,775 825,775"/>
<polygon id="0x2486a30" class="l1d0" points="825,825 855,825 855,855 825,855"/>
<polygon id="0x2486af0" class="l1d0" points="825,905 855,905 855,935 825,935"/>
<polygon id="0x2486bb0" class="l1d0" points="825,985 855,985 855,1015 825,1015"/>
<polygon id="0x2486c70" class="l1d0" points="825,1065 855,1065 855,1095 825,1095"/>
<polygon id="0x2486d30" class="l1d0" points="825,1145 855,1145 855,1175 825,1175"/>
<polygon id="0x2486df0" class="l1d0" points="905,25 935,25 935,55 905,55"/>
<polygon id="0x2486eb0" class="l1d0" points="905,105 935,105 935,135 905,135"/>
<polygon id="0x2486f70" class="l1d0" points="905,185 935,185 935,215 905,215"/>
<polygon id="0x2487030" class="l1d0" points="905,265 935,265 935,295 905,295"/>
<polygon id="0x24870f0" class="l1d0" points="905,345 935,345 935,375 905,375"/>
<polygon id="0x24871b0" class="l1d0" points="905,425 935,425 935,455 905,455"/>
<polygon id="0x2487270" class="l1d0" points="905,505 935,505 935,535 905,535"/>
<polygon id="0x2487330" class="l1d0" points="905,585 935,585 935,615 905,615"/>
<polygon id="0x24873f0" class="l1d0" points="905,665 935,665 935,695 905,695"/>
<polygon id="0x24874b0" class="l1d0" points="905,745 935,745 935,775 905,775"/>
<polygon id="0x2487570" class="l1d0" points="905,825 935,825 935,855 905,855"/>
<polygon id="0x2487630" class="l1d0" points="905,905 935,905 935,935 905,935"/>
<polygon id="0x24876f0" class="l1d0" points="905,985 935,985 935,1015 905,1015"/>
<polygon id="0x24877b0" class="l1d0" points="905,1065 935,1065 935,1095 905,1095"/>
<polygon id="0x2487870" class="l1d0" points="905,1145 935,1145 935,1175 905,1175"/>
<polygon id="0x2487930" class="l1d0" points="985,25 1015,25 1015,55 985,55"/>
<polygon id="0x24879f0" class="l1d0" points="985,105 1015,105 1015,135 985,135"/>
<polygon id="0x2487ab0" class="l1d0" points="985,185 1015,185 1015,215 985,215"/>
<polygon id="0x2487b70" class="l1d0" points="985,265 1015,265 1015,295 985,295"/>
<polygon id="0x2487c30" class="l1d0" points="985,345 1015,345 1015,375 985,375"/>
<polygon id="0x2487cf0" class="l1d0" points="985,425 1015,425 1015,455 985,455"/>
<polygon id="0x2487db0" class="l1d0" points="985,505 1015,505 1015,535 985,535"/>
<polygon id="0x2487e70" class="l1d0" points="985,585 1015,585 1015,615 985,615"/>
<polygon id="0x2487f30" class="l1d0" points="985,665 1015,665 1015,695 985,695"/>
<polygon id="0x2487ff0" class="l1d0" points="985,745 1015,745 1015,775 985,775"/>
<polygon id="0x24880b0" class="l1d0" points="985,825 1015,825 1015,855 985,855"/>
<polygon id="0x2488170" class="l1d0" points="985,905 1015,905 1015,935 985,935"/>
<polygon id="0x2488230" class="l1d0" points="985,985 1015,985 1015,1015 985,1015"/>
<polygon id="0x24882f0" class="l1d0" points="985,1065 1015,1065 1015,1095 985,1095"/>
<polygon id="0x24883b0" class="l1d0" points="985,1145 1015,1145 1015,1175 985,1175"/>
<polygon id="0x2488470" class="l1d0" points="1065,25 1095,25 1095,55 1065,55"/>
<polygon id="0x2488530" class="l1d0" points="1065,105 1095,105 1095,135 1065,135"/>
<polygon id="0x24885f0" class="l1d0" points="1065,185 1095,185 1095,215 1065,215"/>
<polygon id="0x24886b0" class="l1d0" points="1065,265 1095,265 1095,295 1065,295"/>
<polygon id="0x248b600" class="l1d0" points="1065,345 1095,345 1095,375 1065,375"/>
<polygon id="0x248b6c0" class="l1d0" points="1065,425 1095,425 1095,455 1065,455"/>
<polygon id="0x248b780" class="l1d0" points="1065,505 1095,505 1095,535 1065,535"/>
<polygon id="0x248b840" class="l1d0" points="1065,585 1095,585 1095,615 1065,615"/>
<polygon id="0x248b900" class="l1d0" points="1065,665 1095,665 1095,695 1065,695"/>
<polygon id="0x248b9c0" class="l1d0" points="1065,745 1095,745 1095,775 1065,775"/>
<polygon id="0x248ba80" class="l1d0" points="1065,825 1095,825 1095,855 1065,855"/>
<polygon id="0x248bb40" class="l1d0" points="1065,905 1095,905 1095,935 1065,935"/>
<polygon id="0x248bc00" class="l1d0" points="1065,985 1095,985 1095,1015 1065,1015"/>
<polygon id="0x248bcc0" class="l1d0" points="1065,1065 1095,1065 1095,1095 1065,1095"/>
<polygon id="0x248bd80" class="l1d0" points="1065,1145 1095,1145 1095,1175 1065,1175"/>
<polygon id="0x248be40" class="l1d0" points="1145,25 1175,25 1175,55 1145,55"/>
<polygon id="0x248bf00" class="l1d0" points="1145,105 1175,105 1175,135 1145,135"/>
<polygon id="0x248bfc0" class="l1d0" points="1145,185 1175,185 1175,215 1145,215"/>
<polygon id="0x248c080" class="l1d0" points="1145,265 1175,265 1175,295 1145,295"/>
<polygon id="0x248c140" class="l1d0" points="1145,345 1175,345 1175,375 1145,375"/>
<polygon id="0x248c200" class="l1d0" points="1145,425 1175,425 1175,455 1145,455"/>
<polygon id="0x248c2c0" class="l1d0" points="1145,505 1175,505 1175,535 1145,535"/>
<polygon id="0x248c380" class="l1d0" points="1145,585 1175,585 1175,615 1145,615"/>
<polygon id="0x248c440" class="l1d0" points="1145,665 1175,665 1175,695 1145,695"/>
<polygon id="0x248c500" class="l1d0" points="1145,745 1175,745 1175,775 1145,775"/>
<polygon id="0x248c5c0" class="l1d0" points="1145,825 1175,825 1175,855 1145,855"/>
<polygon id="0x248c680" class="l1d0" points="1145,905 1175,905 1175,935 1145,935"/>
<polygon id="0x248c740" class="l1d0" points="1145,985 1175,985 1175,1015 1145,1015"/>
<polygon id="0x248c800" class="l1d0" points="1145,1065 1175,1065 1175,1095 1145,1095"/>
<polygon id="0x248c8c0" class="l1d0" points="1145,1145 1175,1145 1175,1175 1145,1175"/>
<polygon id="0x248c980" class="l1d0" points="1225,25 1255,25 1255,55 1225,55"/>
<polygon id="0x248ca40" class="l1d0" points="1225,105 1255,105 1255,135 1225,135"/>
<polygon id="0x248cb00" class="l1d0" points="1225,185 1255,185 1255,215 1225,215"/>
<polygon id="0x248cbc0" class="l1d0" points="1225,265 1255,265 1255,295 1225,295"/>
<polygon id="0x248cc80" class="l1d0" points="1225,345 1255,345 1255,375 1225,375"/>
<polygon id="0x248cd40" class="l1d0" points="1225,425 1255,425 1255,455 1225,455"/>
<polygon id="0x248ce00" class="l1d0" points="1225,505 1255,505 1255,535 1225,535"/>
<polygon id="0x248cec0" class="l1d0" points="1225,585 1255,585 1255,615 1225,615"/>
<polygon id="0x248cf80" class="l1d0" points="1225,665 1255,665 1255,695 1225,695"/>
<polygon id="0x248d040" class="l1d0" points="1225,745 1255,745 1255,775 1225,775"/>
<polygon id="0x248d100" class="l1d0" points="1225,825 1255,825 1255,855 1225,855"/>
<polygon id="0x248d1c0" class="l1d0" points="1225,905 1255,905 1255,935 1225,935"/>
<polygon id="0x248d280" class="l1d0" points="1225,985 1255,985 1255,1015 1225,1015"/>
<polygon id="0x248d340" class="l1d0" points="1225,1065 1255,1065 1255,1095 1225,1095"/>
<polygon id="0x248d400" class="l1d0" points="1225,1145 1255,1145 1255,1175 1225,1175"/>
<polygon id="0x248d4c0" class="l1d0" points="1305,25 1335,25 1335,55 1305,55"/>
<polygon id="0x248d580" class="l1d0" points="1305,105 1335,105 1335,135 1305,135"/>
<polygon id="0x248d640" class="l1d0" points="1305,185 1335,185 1335,215 1305,215"/>
<polygon id="0x248d700" class="l1d0" points="1305,265 1335,265 1335,295 1305,295"/>
<polygon id="0x248d7c0" class="l1d0" points="1305,345 1335,345 1335,375 1305,375"/>
<polygon id="0x248d880" class="l1d0" points="1305,425 1335,425 1335,455 1305,455"/>
<polygon id="0x248d940" class="l1d0" points="1305,505 1335,505 1335,535 1305,535"/>
<polygon id="0x248da00" class="l1d0" points="1305,585 1335,585 1335,615 1305,615"/>
<polygon id="0x248dac0" class="l1d0" points="1305,665 1335,665 1335,695 1305,695"/>
<polygon id="0x248db80" class="l1d0" points="1305,745 1335,745 1335,775 1305,775"/>
<polygon id="0x248dc40" class="l1d0" points="1305,825 1335,825 1335,855 1305,855"/>
<polygon id="0x248dd00" class="l1d0" points="1305,905 1335,905 1335,935 1305,935"/>
<polygon id="0x248ddc0" class="l1d0" points="1305,985 1335,985 1335,1015 1305,1015"/>
<polygon id="0x248de80" class="l1d0" points="1305,1065 1335,1065 1335,1095 1305,1095"/>
<polygon id="0x248df40" class="l1d0" points="1305,1145 1335,1145 1335,1175 1305,1175"/>
<polygon id="0x248e000" class="l1d0" points="1385,25 1415,25 1415,55 1385,55"/>
<polygon id="0x248e0c0" class="l1d0" points="1385,105 1415,105 1415,135 1385,135"/>
<polygon id="0x248e180" class="l1d0" points="1385,185 1415,185 1415,215 1385,215"/>
<polygon id="0x248e240" class="l1d0" points="1385,265 1415,265 1415,295 1385,295"/>
<polygon id="0x248e300" class="l1d0" points="1385,345 1415,345 1415,375 1385,375"/>
<polygon id="0x248e3c0" class="l1d0" points="1385,425 1415,425 1415,455 1385,455"/>
<polygon id="0x248e480" class="l1d0" points="1385,505 1415,505 1415,535 1385,535"/>
<polygon id="0x248e540" class="l1d0" points="1385,585 1415,585 1415,615 1385,615"/>
<polygon id="0x248e600" class="l1d0" points="1385,665 1415,665 1415,695 1385,695"/>
<polygon id="0x248e6c0" class="l1d0" points="1385,745 1415,745 1415,775 1385,775"/>
<polygon id="0x248e780" class="l1d0" points="1385,825 1415,825 1415,855 1385,855"/>
<polygon id="0x248e840" class="l1d0" points="1385,905 1415,905 1415,935 1385,935"/>
<polygon id="0x248e900" class="l1d0" points="1385,985 1415,985 1415,1015 1385,1015"/>
<polygon id="0x248e9c0" class="l1d0" points="1385,1065 1415,1065 1415,1095 1385,1095"/>
<polygon id="0x248ea80" class="l1d0" points="1385,1145 1415,1145 1415,1175 1385,1175"/>
<polygon id="0x248eb40" class="l1d0" points="1465,25 1495,25 1495,55 1465,55"/>
<polygon id="0x248ec00" class="l1d0" points="1465,105 1495,105 1495,135 1465,135"/>
<polygon id="0x248ecc0" class="l1d0" points="1465,185 1495,185 1495,215 1465,215"/>
<polygon id="0x248ed80" class="l1d0" points="1465,265 1495,265 1495,295 1465,295"/>
<polygon id="0x248ee40" class="l1d0" points="1465,345 1495,345 1495,375 1465,375"/>
<polygon id="0x248ef00" class="l1d0" points="1465,425 1495,425 1495,455 1465,455"/>
<polygon id="0x248efc0" class="l1d0" points="1465,505 1495,505 1495,535 1465,535"/>
<polygon id="0x248f080" class="l1d0" points="1465,585 1495,585 1495,615 1465,615"/>
<polygon id="0x248f140" class="l1d0" points="1465,665 1495,665 1495,695 1465,695"/>
<polygon id="0x248f200" class="l1d0" points="1465,745 1495,745 1495,775 1465,775"/>
<polygon id="0x248f2c0" class="l1d0" points="1465,825 1495,825 1495,855 1465,855"/>
<polygon id="0x248f380" class="l1d0" points="1465,905 1495,905 1495,935 1465,935"/>
<polygon id="0x248f440" class="l1d0" points="1465,985 1495,985 1495,1015 1465,1015"/>
<polygon id="0x248f500" class="l1d0" points="1465,1065 1495,1065 1495,1095 1465,1095"/>
<polygon id="0x248f5c0" class="l1d0" points="1465,1145 1495,1145 1495,1175 1465,1175"/>
<polygon id="0x248f680" class="l1d0" points="1545,25 1575,25 1575,55 1545,55"/>
<polygon id="0x248f740" class="l1d0" points="1545,105 1575,105 1575,135 1545,135"/>
<polygon id="0x248f800" class="l1d0" points="1545,185 1575,185 1575,215 1545,215"/>
<polygon id="0x248f8c0" class="l1d0" points="1545,265 1575,265 1575,295 1545,295"/>
<polygon id="0x248f980" class="l1d0" points="1545,345 1575,345 1575,375 1545,375"/>
<polygon id="0x248fa40" class="l1d0" points="1545,425 1575,425 1575,455 1545,455"/>
<polygon id="0x248fb00" class="l1d0" points="1545,505 1575,505 1575,535 1545,535"/>
<polygon id="0x248fbc0" class="l1d0" points="1545,585 1575,585 1575,615 1545,615"/>
<polygon id="0x248fc80" class="l1d0" points="1545,665 1575,665 1575,695 1545,695"/>
<polygon id="0x248fd40" class="l1d0" points="1545,745 1575,745 1575,775 1545,775"/>
<polygon id="0x248fe00" class="l1d0" points="1545,825 1575,825 1575,855 1545,855"/>
<polygon id="0x248fec0" class="l1d0" points="1545,905 1575,905 1575,935 1545,935"/>
<polygon id="0x248ff80" class="l1d0" points="1545,985 1575,985 1575,1015 1545,1015"/>
<polygon id="0x2490040" class="l1d0" points="1545,1065 1575,1065 1575,1095 1545,1095"/>
<polygon id="0x2490100" class="l1d0" points="1545,1145 1575,1145 1575,1175 1545,1175"/>
</g>
</svg>