<?xml version="1.0" encoding="UTF-8"?>
<svg xmlns="http://www.w3.org/2000/svg" xmlns:xlink="http://www.w3.org/1999/xlink" width="1320" height="1320" viewBox="-60 -1260 1320 1320">
<defs>
<style type="text/css">
.l126d0 {stroke: #E68FAC; fill: #E68FAC; fill-opacity: 0.5;}
.l189d4 {stroke: #A1CAF1; fill: #A1CAF1; fill-opacity: 0.5;}
</style>
</defs>
<rect x="-60" y="-1260" width="1320" height="1320" fill="#222222" stroke="none"/>
<g id="my_logo" transform="scale(1 -1)">
<polygon id="0x15556e0" class="l126d0" points="0,20 240,20 240,60 0,60"/>
<polygon id="0x15b06b0" class="l126d0" points="320,20 480,20 480,60 320,60"/>
<polygon id="0x13d4a10" class="l126d0" points="640,20 720,20 720,60 640,60"/>
<polygon id="0x1499340" class="l126d0" points="800,20 880,20 880,60 800,60"/>
<polygon id="0x15a1570" class="l126d0" points="960,20 1120,20 1120,60 960,60"/>
<polygon id="0x151e690" class="l126d0" points="0,100 80,100 80,140 0,140"/>
<polygon id="0x1508ef0" class="l126d0" points="320,100 400,100 400,140 320,140"/>
<polygon id="0x154d3f0" class="l126d0" points="480,100 880,100 880,140 480,140"/>
<polygon id="0x170b350" class="l126d0" points="1120,100 1200,100 1200,140 1120,140"/>
<polygon id="0x16dbdf0" class="l126d0" points="0,180 80,180 80,220 0,220"/>
<polygon id="0x16896b0" class="l126d0" points="160,180 240,180 240,220 160,220"/>
<polygon id="0x1681c60" class="l126d0" points="400,180 640,180 640,220 400,220"/>
<polygon id="0x1661990" class="l126d0" points="960,180 1200,180 1200,220 960,220"/>
<polygon id="0x1667350" class="l126d0" points="0,260 160,260 160,300 0,300"/>
<polygon id="0x15543f0" class="l126d0" points="560,260 880,260 880,300 560,300"/>
<polygon id="0x16b6e30" class="l126d0" points="960,260 1040,260 1040,300 960,300"/>
<polygon id="0x16fc280" class="l126d0" points="0,340 160,340 160,380 0,380"/>
<polygon id="0x1735850" class="l126d0" points="240,340 400,340 400,380 240,380"/>
<polygon id="0x1704cb0" class="l126d0" points="880,340 960,340 960,380 880,380"/>
<polygon id="0x1675820" class="l126d0" points="1120,340 1200,340 1200,380 1120,380"/>
<polygon id="0x16f7680" class="l126d0" points="80,420 160,420 160,460 80,460"/>
<polygon id="0x16789d0" class="l126d0" points="240,420 400,420 400,460 240,460"/>
<polygon id="0x16880a0" class="l126d0" points="480,420 560,420 560,460 480,460"/>
<polygon id="0x16d9bc0" class="l126d0" points="640,420 720,420 720,460 640,460"/>
<polygon id="0x1417a30" class="l126d0" points="800,420 880,420 880,460 800,460"/>
<polygon id="0x1467b80" class="l126d0" points="960,420 1040,420 1040,460 960,460"/>
<polygon id="0x14f7f00" class="l126d0" points="1120,420 1200,420 1200,460 1120,460"/>
<polygon id="0x1497d80" class="l126d0" points="160,500 240,500 240,540 160,540"/>
<polygon id="0x163acc0" class="l126d0" points="480,500 640,500 640,540 480,540"/>
<polygon id="0x1668840" class="l126d0" points="720,500 800,500 800,540 720,540"/>
<polygon id="0x16cc710" class="l126d0" points="880,500 960,500 960,540 880,540"/>
<polygon id="0x14e79c0" class="l126d0" points="1040,500 1200,500 1200,540 1040,540"/>
<polygon id="0x14d5700" class="l126d0" points="0,580 80,580 80,620 0,620"/>
<polygon id="0x154d020" class="l126d0" points="320,580 560,580 560,620 320,620"/>
<polygon id="0x1571260" class="l126d0" points="640,580 960,580 960,620 640,620"/>
<polygon id="0x159b680" class="l126d0" points="1040,580 1200,580 1200,620 1040,620"/>
<polygon id="0x162da50" class="l126d0" points="160,660 480,660 480,700 160,700"/>
<polygon id="0x1656c60" class="l126d0" points="800,660 880,660 880,700 800,700"/>
<polygon id="0x16a2d70" class="l126d0" points="960,660 1200,660 1200,700 960,700"/>
<polygon id="0x16c8c30" class="l126d0" points="80,740 560,740 560,780 80,780"/>
<polygon id="0x16ca3d0" class="l126d0" points="640,740 1040,740 1040,780 640,780"/>
<polygon id="0x16df5a0" class="l126d0" points="0,820 320,820 320,860 0,860"/>
<polygon id="0x16cb420" class="l126d0" points="480,820 720,820 720,860 480,860"/>
<polygon id="0x1710170" class="l126d0" points="800,820 880,820 880,860 800,860"/>
<polygon id="0x14e04b0" class="l126d0" points="960,820 1200,820 1200,860 960,860"/>
<polygon id="0x1549ee0" class="l126d0" points="0,900 320,900 320,940 0,940"/>
<polygon id="0x1610830" class="l126d0" points="560,900 1200,900 1200,940 560,940"/>
<polygon id="0x169c420" class="l126d0" points="160,980 320,980 320,1020 160,1020"/>
<polygon id="0x16e7f50" class="l126d0" points="400,980 480,980 480,1020 400,1020"/>
<polygon id="0x1693db0" class="l126d0" points="800,980 880,980 880,1020 800,1020"/>
<polygon id="0x1659930" class="l126d0" points="960,980 1200,980 1200,1020 960,1020"/>
<polygon id="0x165c3a0" class="l126d0" points="80,1060 160,1060 160,1100 80,1100"/>
<polygon id="0x16e8b10" class="l126d0" points="240,1060 560,1060 560,1100 240,1100"/>
<polygon id="0x151aa70" class="l126d0" points="960,1060 1120,1060 1120,1100 960,1100"/>
<polygon id="0x1538c90" class="l126d0" points="0,1140 80,1140 80,1180 0,1180"/>
<polygon id="0x1530530" class="l126d0" points="160,1140 320,1140 320,1180 160,1180"/>
<polygon id="0x15305a0" class="l126d0" points="400,1140 720,1140 720,1180 400,1180"/>
<polygon id="0x157bd00" class="l126d0" points="800,1140 960,1140 960,1180 800,1180"/>
<polygon id="0x1607210" class="l126d0" points="1120,1140 1200,1140 1200,1180 1120,1180"/>
<polygon id="0x16734c0" class="l126d0" points="20,400 60,400 60,560 20,560"/>
<polygon id="0x1673530" class="l126d0" points="20,640 60,640 60,800 20,800"/>
<polygon id="0x16997a0" class="l126d0" points="20,960 60,960 60,1120 20,1120"/>
<polygon id="0x168df10" class="l126d0" points="100,80 140,80 140,240 100,240"/>
<polygon id="0x16d9190" class="l126d0" points="100,480 140,480 140,720 100,720"/>
<polygon id="0x16d9200" class="l126d0" points="100,960 140,960 140,1040 100,1040"/>
<polygon id="0x170f880" class="l126d0" points="100,1120 140,1120 140,1200 100,1200"/>
<polygon id="0x1736790" class="l126d0" points="180,80 220,80 220,160 180,160"/>
<polygon id="0x1399290" class="l126d0" points="180,240 220,240 220,480 180,480"/>
<polygon id="0x1399300" class="l126d0" points="180,560 220,560 220,640 180,640"/>
<polygon id="0x14fa0b0" class="l126d0" points="180,1040 220,1040 220,1120 180,1120"/>
<polygon id="0x1579f10" class="l126d0" points="260,0 300,0 300,320 260,320"/>
<polygon id="0x16429e0" class="l126d0" points="260,480 300,480 300,640 260,640"/>
<polygon id="0x16bbf90" class="l126d0" points="340,160 380,160 380,320 340,320"/>
<polygon id="0x167bcb0" class="l126d0" points="340,480 380,480 380,560 340,560"/>
<polygon id="0x16d6050" class="l126d0" points="340,800 380,800 380,1040 340,1040"/>
<polygon id="0x16fedb0" class="l126d0" points="340,1120 380,1120 380,1200 340,1200"/>
<polygon id="0x14e33d0" class="l126d0" points="420,80 460,80 460,160 420,160"/>
<polygon id="0x14e3490" class="l126d0" points="420,240 460,240 460,560 420,560"/>
<polygon id="0x1504ee0" class="l126d0" points="420,800 460,800 460,960 420,960"/>
<polygon id="0x1504fa0" class="l126d0" points="500,0 540,0 540,80 500,80"/>
<polygon id="0x1609ce0" class="l126d0" points="500,240 540,240 540,400 500,400"/>
<polygon id="0x1609da0" class="l126d0" points="500,640 540,640 540,720 500,720"/>
<polygon id="0x1607760" class="l126d0" points="500,880 540,880 540,1040 500,1040"/>
<polygon id="0x1607820" class="l126d0" points="580,0 620,0 620,80 580,80"/>
<polygon id="0x14fb7a0" class="l126d0" points="580,320 620,320 620,480 580,480"/>
<polygon id="0x14fb860" class="l126d0" points="580,560 620,560 620,800 580,800"/>
<polygon id="0x1658470" class="l126d0" points="580,960 620,960 620,1120 580,1120"/>
<polygon id="0x1658530" class="l126d0" points="660,160 700,160 700,240 660,240"/>
<polygon id="0x1413e70" class="l126d0" points="660,320 700,320 700,400 660,400"/>
<polygon id="0x1413f30" class="l126d0" points="660,480 700,480 700,560 660,560"/>
<polygon id="0x169ca10" class="l126d0" points="660,640 700,640 700,720 660,720"/>
<polygon id="0x16a08d0" class="l126d0" points="660,960 700,960 700,1120 660,1120"/>
<polygon id="0x16a0990" class="l126d0" points="740,0 780,0 780,80 740,80"/>
<polygon id="0x16d4620" class="l126d0" points="740,160 780,160 780,240 740,240"/>
<polygon id="0x16cee40" class="l126d0" points="740,320 780,320 780,480 740,480"/>
<polygon id="0x16cef00" class="l126d0" points="740,640 780,640 780,720 740,720"/>
<polygon id="0x14ab790" class="l126d0" points="740,800 780,800 780,880 740,880"/>
<polygon id="0x14cd890" class="l126d0" points="740,960 780,960 780,1200 740,1200"/>
<polygon id="0x14cd900" class="l126d0" points="820,160 860,160 860,240 820,240"/>
<polygon id="0x14d7c20" class="l126d0" points="820,320 860,320 860,400 820,400"/>
<polygon id="0x14d7ce0" class="l126d0" points="820,480 860,480 860,560 820,560"/>
<polygon id="0x1612840" class="l126d0" points="820,1040 860,1040 860,1120 820,1120"/>
<polygon id="0x1628140" class="l126d0" points="900,0 940,0 940,320 900,320"/>
<polygon id="0x16281b0" class="l126d0" points="900,400 940,400 940,480 900,480"/>
<polygon id="0x16d7a70" class="l126d0" points="900,640 940,640 940,720 900,720"/>
<polygon id="0x16d7b30" class="l126d0" points="900,800 940,800 940,880 900,880"/>
<polygon id="0x1718140" class="l126d0" points="900,960 940,960 940,1120 900,1120"/>
<polygon id="0x150ca60" class="l126d0" points="980,80 1020,80 1020,160 980,160"/>
<polygon id="0x150cad0" class="l126d0" points="980,320 1020,320 1020,400 980,400"/>
<polygon id="0x14bddc0" class="l126d0" points="980,480 1020,480 1020,640 980,640"/>
<polygon id="0x14bde80" class="l126d0" points="980,1120 1020,1120 1020,1200 980,1200"/>
<polygon id="0x159a6b0" class="l126d0" points="1060,80 1100,80 1100,160 1060,160"/>
<polygon id="0x1607d70" class="l126d0" points="1060,240 1100,240 1100,480 1060,480"/>
<polygon id="0x1607e30" class="l126d0" points="1060,720 1100,720 1100,800 1060,800"/>
<polygon id="0x1616340" class="l126d0" points="1060,1120 1100,1120 1100,1200 1060,1200"/>
<polygon id="0x1616400" class="l126d0" points="1140,0 1180,0 1180,80 1140,80"/>
<polygon id="0x16be380" class="l126d0" points="1140,240 1180,240 1180,320 1140,320"/>
<polygon id="0x1670d00" class="l126d0" points="1140,720 1180,720 1180,800 1140,800"/>
<polygon id="0x1670dc0" class="l126d0" points="1140,1040 1180,1040 1180,1120 1140,1120"/>
<polygon id="0x168ad70" class="l189d4" points="0,0 1200,0 1200,1200 0,1200"/>
</g>
</svg>