<?xml version="1.0" encoding="UTF-8"?>
<svg xmlns="http://www.w3.org/2000/svg" xmlns:xlink="http://www.w3.org/1999/xlink" width="1936" height="1536" viewBox="-88 -1448 1936 1536">
<defs>
<style type="text/css">
.l126d0 {stroke: #E68FAC; fill: #E68FAC; fill-opacity: 0.5;}
.l189d4 {stroke: #A1CAF1; fill: #A1CAF1; fill-opacity: 0.5;}
</style>
</defs>
<rect x="-88" y="-1448" width="1936" height="1536" fill="#222222" stroke="none"/>
<g id="my_logo" transform="scale(1 -1)">
<polygon id="0x2a5d6e0" class="l126d0" points="0,20 80,20 80,60 0,60"/>
<polygon id="0x2ab86b0" class="l126d0" points="160,20 240,20 240,60 160,60"/>
<polygon id="0x28dca10" class="l126d0" points="480,20 560,20 560,60 480,60"/>
<polygon id="0x29a1340" class="l126d0" points="640,20 800,20 800,60 640,60"/>
<polygon id="0x2aa9570" class="l126d0" points="880,20 960,20 960,60 880,60"/>
<polygon id="0x2a26690" class="l126d0" points="1200,20 1360,20 1360,60 1200,60"/>
<polygon id="0x2a10ef0" class="l126d0" points="1680,20 1760,20 1760,60 1680,60"/>
<polygon id="0x2a553f0" class="l126d0" points="80,100 160,100 160,140 80,140"/>
<polygon id="0x2c13350" class="l126d0" points="240,100 400,100 400,140 240,140"/>
<polygon id="0x2be3df0" class="l126d0" points="640,100 720,100 720,140 640,140"/>
<polygon id="0x2b916b0" class="l126d0" points="880,100 1360,100 1360,140 880,140"/>
<polygon id="0x2b89c60" class="l126d0" points="1440,100 1520,100 1520,140 1440,140"/>
<polygon id="0x2b69990" class="l126d0" points="1680,100 1760,100 1760,140 1680,140"/>
<polygon id="0x2b6f350" class="l126d0" points="160,180 400,180 400,220 160,220"/>
<polygon id="0x2a5c3f0" class="l126d0" points="480,180 560,180 560,220 480,220"/>
<polygon id="0x2bbee30" class="l126d0" points="640,180 960,180 960,220 640,220"/>
<polygon id="0x2c04280" class="l126d0" points="1040,180 1120,180 1120,220 1040,220"/>
<polygon id="0x2c3d850" class="l126d0" points="1280,180 1360,180 1360,220 1280,220"/>
<polygon id="0x2c0ccb0" class="l126d0" points="80,260 160,260 160,300 80,300"/>
<polygon id="0x2b7d820" class="l126d0" points="240,260 320,260 320,300 240,300"/>
<polygon id="0x2bff680" class="l126d0" points="400,260 480,260 480,300 400,300"/>
<polygon id="0x2b809d0" class="l126d0" points="640,260 720,260 720,300 640,300"/>
<polygon id="0x2b900a0" class="l126d0" points="880,260 960,260 960,300 880,300"/>
<polygon id="0x2be1bc0" class="l126d0" points="1120,260 1200,260 1200,300 1120,300"/>
<polygon id="0x291fa30" class="l126d0" points="1360,260 1520,260 1520,300 1360,300"/>
<polygon id="0x296fb80" class="l126d0" points="1600,260 1680,260 1680,300 1600,300"/>
<polygon id="0x29fff00" class="l126d0" points="320,340 400,340 400,380 320,380"/>
<polygon id="0x299fd80" class="l126d0" points="480,340 800,340 800,380 480,380"/>
<polygon id="0x2b42cc0" class="l126d0" points="1280,340 1600,340 1600,380 1280,380"/>
<polygon id="0x2b70840" class="l126d0" points="1680,340 1760,340 1760,380 1680,380"/>
<polygon id="0x2bd4710" class="l126d0" points="0,420 240,420 240,460 0,460"/>
<polygon id="0x29ef9c0" class="l126d0" points="320,420 480,420 480,460 320,460"/>
<polygon id="0x29dd700" class="l126d0" points="560,420 640,420 640,460 560,460"/>
<polygon id="0x2a55020" class="l126d0" points="960,420 1040,420 1040,460 960,460"/>
<polygon id="0x2a79260" class="l126d0" points="1120,420 1280,420 1280,460 1120,460"/>
<polygon id="0x2aa3680" class="l126d0" points="1360,420 1440,420 1440,460 1360,460"/>
<polygon id="0x2b35a50" class="l126d0" points="1600,420 1760,420 1760,460 1600,460"/>
<polygon id="0x2b5ec60" class="l126d0" points="80,500 320,500 320,540 80,540"/>
<polygon id="0x2baad70" class="l126d0" points="480,500 560,500 560,540 480,540"/>
<polygon id="0x2bd0c30" class="l126d0" points="640,500 800,500 800,540 640,540"/>
<polygon id="0x2bd23d0" class="l126d0" points="1200,500 1360,500 1360,540 1200,540"/>
<polygon id="0x2be75a0" class="l126d0" points="1680,500 1760,500 1760,540 1680,540"/>
<polygon id="0x2bd3420" class="l126d0" points="0,580 80,580 80,620 0,620"/>
<polygon id="0x2c18170" class="l126d0" points="320,580 720,580 720,620 320,620"/>
<polygon id="0x29e84b0" class="l126d0" points="880,580 1200,580 1200,620 880,620"/>
<polygon id="0x2a51ee0" class="l126d0" points="1280,580 1440,580 1440,620 1280,620"/>
<polygon id="0x2b18830" class="l126d0" points="0,660 160,660 160,700 0,700"/>
<polygon id="0x2ba4420" class="l126d0" points="240,660 560,660 560,700 240,700"/>
<polygon id="0x2beff50" class="l126d0" points="720,660 800,660 800,700 720,700"/>
<polygon id="0x2b9bdb0" class="l126d0" points="1040,660 1120,660 1120,700 1040,700"/>
<polygon id="0x2b61930" class="l126d0" points="1520,660 1600,660 1600,700 1520,700"/>
<polygon id="0x2b643a0" class="l126d0" points="80,740 480,740 480,780 80,780"/>
<polygon id="0x2bf0b10" class="l126d0" points="640,740 1040,740 1040,780 640,780"/>
<polygon id="0x2a22a70" class="l126d0" points="1200,740 1280,740 1280,780 1200,780"/>
<polygon id="0x2a40c90" class="l126d0" points="1360,740 1440,740 1440,780 1360,780"/>
<polygon id="0x2a38530" class="l126d0" points="1680,740 1760,740 1760,780 1680,780"/>
<polygon id="0x2a385a0" class="l126d0" points="0,820 80,820 80,860 0,860"/>
<polygon id="0x2a83d00" class="l126d0" points="160,820 320,820 320,860 160,860"/>
<polygon id="0x2b0f210" class="l126d0" points="480,820 800,820 800,860 480,860"/>
<polygon id="0x2b7b4c0" class="l126d0" points="880,820 1040,820 1040,860 880,860"/>
<polygon id="0x2b7b530" class="l126d0" points="1120,820 1200,820 1200,860 1120,860"/>
<polygon id="0x2ba17a0" class="l126d0" points="1280,820 1440,820 1440,860 1280,860"/>
<polygon id="0x2b95f10" class="l126d0" points="1520,820 1600,820 1600,860 1520,860"/>
<polygon id="0x2be1190" class="l126d0" points="1680,820 1760,820 1760,860 1680,860"/>
<polygon id="0x2be1200" class="l126d0" points="80,900 480,900 480,940 80,940"/>
<polygon id="0x2c17880" class="l126d0" points="1120,900 1200,900 1200,940 1120,940"/>
<polygon id="0x2c3e790" class="l126d0" points="1360,900 1520,900 1520,940 1360,940"/>
<polygon id="0x28a1290" class="l126d0" points="1600,900 1680,900 1680,940 1600,940"/>
<polygon id="0x28a1300" class="l126d0" points="0,980 240,980 240,1020 0,1020"/>
<polygon id="0x2a020b0" class="l126d0" points="400,980 480,980 480,1020 400,1020"/>
<polygon id="0x2a81f10" class="l126d0" points="960,980 1040,980 1040,1020 960,1020"/>
<polygon id="0x2b4a9e0" class="l126d0" points="1120,980 1200,980 1200,1020 1120,1020"/>
<polygon id="0x2bc3f90" class="l126d0" points="1280,980 1440,980 1440,1020 1280,1020"/>
<polygon id="0x2b83cb0" class="l126d0" points="1520,980 1680,980 1680,1020 1520,1020"/>
<polygon id="0x2bde050" class="l126d0" points="320,1060 480,1060 480,1100 320,1100"/>
<polygon id="0x2c06db0" class="l126d0" points="720,1060 800,1060 800,1100 720,1100"/>
<polygon id="0x29eb3d0" class="l126d0" points="880,1060 1040,1060 1040,1100 880,1100"/>
<polygon id="0x29eb490" class="l126d0" points="1120,1060 1360,1060 1360,1100 1120,1100"/>
<polygon id="0x2a0cee0" class="l126d0" points="1520,1060 1600,1060 1600,1100 1520,1100"/>
<polygon id="0x2a0cfa0" class="l126d0" points="1680,1060 1760,1060 1760,1100 1680,1100"/>
<polygon id="0x2b11ce0" class="l126d0" points="0,1140 240,1140 240,1180 0,1180"/>
<polygon id="0x2b11da0" class="l126d0" points="480,1140 640,1140 640,1180 480,1180"/>
<polygon id="0x2b0f760" class="l126d0" points="960,1140 1120,1140 1120,1180 960,1180"/>
<polygon id="0x2b0f820" class="l126d0" points="1200,1140 1280,1140 1280,1180 1200,1180"/>
<polygon id="0x2a037a0" class="l126d0" points="1520,1140 1760,1140 1760,1180 1520,1180"/>
<polygon id="0x2a03860" class="l126d0" points="160,1220 320,1220 320,1260 160,1260"/>
<polygon id="0x2b60470" class="l126d0" points="400,1220 480,1220 480,1260 400,1260"/>
<polygon id="0x2b60530" class="l126d0" points="560,1220 640,1220 640,1260 560,1260"/>
<polygon id="0x291be70" class="l126d0" points="720,1220 800,1220 800,1260 720,1260"/>
<polygon id="0x291bf30" class="l126d0" points="880,1220 960,1220 960,1260 880,1260"/>
<polygon id="0x2ba4a10" class="l126d0" points="1040,1220 1120,1220 1120,1260 1040,1260"/>
<polygon id="0x2ba88d0" class="l126d0" points="1520,1220 1680,1220 1680,1260 1520,1260"/>
<polygon id="0x2ba8990" class="l126d0" points="80,1300 240,1300 240,1340 80,1340"/>
<polygon id="0x2bdc620" class="l126d0" points="320,1300 400,1300 400,1340 320,1340"/>
<polygon id="0x2bd6e40" class="l126d0" points="480,1300 560,1300 560,1340 480,1340"/>
<polygon id="0x2bd6f00" class="l126d0" points="640,1300 880,1300 880,1340 640,1340"/>
<polygon id="0x29b3790" class="l126d0" points="960,1300 1040,1300 1040,1340 960,1340"/>
<polygon id="0x29d5890" class="l126d0" points="1120,1300 1440,1300 1440,1340 1120,1340"/>
<polygon id="0x29d5900" class="l126d0" points="1520,1300 1600,1300 1600,1340 1520,1340"/>
<polygon id="0x29dfc20" class="l126d0" points="20,80 60,80 60,400 20,400"/>
<polygon id="0x29dfce0" class="l126d0" points="20,480 60,480 60,560 20,560"/>
<polygon id="0x2b1a840" class="l126d0" points="20,720 60,720 60,800 20,800"/>
<polygon id="0x2b30140" class="l126d0" points="20,880 60,880 60,960 20,960"/>
<polygon id="0x2b301b0" class="l126d0" points="20,1040 60,1040 60,1120 20,1120"/>
<polygon id="0x2bdfa70" class="l126d0" points="20,1200 60,1200 60,1360 20,1360"/>
<polygon id="0x2bdfb30" class="l126d0" points="100,0 140,0 140,80 100,80"/>
<polygon id="0x2c20140" class="l126d0" points="100,160 140,160 140,240 100,240"/>
<polygon id="0x2a14a60" class="l126d0" points="100,320 140,320 140,400 100,400"/>
<polygon id="0x2a14ad0" class="l126d0" points="100,560 140,560 140,640 100,640"/>
<polygon id="0x29c5dc0" class="l126d0" points="100,800 140,800 140,880 100,880"/>
<polygon id="0x29c5e80" class="l126d0" points="100,1040 140,1040 140,1120 100,1120"/>
<polygon id="0x2aa26b0" class="l126d0" points="100,1200 140,1200 140,1280 100,1280"/>
<polygon id="0x2b0fd70" class="l126d0" points="180,80 220,80 220,160 180,160"/>
<polygon id="0x2b0fe30" class="l126d0" points="180,240 220,240 220,400 180,400"/>
<polygon id="0x2b1e340" class="l126d0" points="180,560 220,560 220,720 180,720"/>
<polygon id="0x2b1e400" class="l126d0" points="180,1040 220,1040 220,1120 180,1120"/>
<polygon id="0x2bc6380" class="l126d0" points="260,0 300,0 300,80 260,80"/>
<polygon id="0x2b78d00" class="l126d0" points="260,320 300,320 300,480 260,480"/>
<polygon id="0x2b78dc0" class="l126d0" points="260,560 300,560 300,640 260,640"/>
<polygon id="0x2b92d70" class="l126d0" points="260,960 300,960 300,1200 260,1200"/>
<polygon id="0x2b92e30" class="l126d0" points="260,1280 300,1280 300,1360 260,1360"/>
<polygon id="0x2a5b160" class="l126d0" points="340,0 380,0 380,80 340,80"/>
<polygon id="0x2a5b220" class="l126d0" points="340,240 380,240 380,320 340,320"/>
<polygon id="0x2a83640" class="l126d0" points="340,480 380,480 380,560 340,560"/>
<polygon id="0x2a83700" class="l126d0" points="340,800 380,800 380,880 340,880"/>
<polygon id="0x2aed970" class="l126d0" points="340,960 380,960 380,1040 340,1040"/>
<polygon id="0x2aeda30" class="l126d0" points="340,1120 380,1120 380,1280 340,1280"/>
<polygon id="0x2b7dbc0" class="l126d0" points="420,0 460,0 460,240 420,240"/>
<polygon id="0x2b7dc80" class="l126d0" points="420,320 460,320 460,400 420,400"/>
<polygon id="0x2ba13c0" class="l126d0" points="420,480 460,480 460,560 420,560"/>
<polygon id="0x2ba1480" class="l126d0" points="420,800 460,800 460,880 420,880"/>
<polygon id="0x2c0e6d0" class="l126d0" points="420,1120 460,1120 460,1200 420,1200"/>
<polygon id="0x2c0e790" class="l126d0" points="420,1280 460,1280 460,1360 420,1360"/>
<polygon id="0x2c14590" class="l126d0" points="500,80 540,80 540,160 500,160"/>
<polygon id="0x2c14650" class="l126d0" points="500,240 540,240 540,320 500,320"/>
<polygon id="0x2c02b20" class="l126d0" points="500,400 540,400 540,480 500,480"/>
<polygon id="0x2c02be0" class="l126d0" points="500,720 540,720 540,800 500,800"/>
<polygon id="0x2a13ac0" class="l126d0" points="500,880 540,880 540,1120 500,1120"/>
<polygon id="0x2a13b80" class="l126d0" points="500,1200 540,1200 540,1280 500,1280"/>
<polygon id="0x29fe880" class="l126d0" points="580,0 620,0 620,320 580,320"/>
<polygon id="0x29fe940" class="l126d0" points="580,480 620,480 620,560 580,560"/>
<polygon id="0x2aa15b0" class="l126d0" points="580,640 620,640 620,800 580,800"/>
<polygon id="0x2aa1670" class="l126d0" points="580,880 620,880 620,1120 580,1120"/>
<polygon id="0x2b25000" class="l126d0" points="580,1280 620,1280 620,1360 580,1360"/>
<polygon id="0x2b250c0" class="l126d0" points="660,400 700,400 700,480 660,480"/>
<polygon id="0x2bb4d10" class="l126d0" points="660,640 700,640 700,720 660,720"/>
<polygon id="0x2bb4dd0" class="l126d0" points="660,880 700,880 700,1280 660,1280"/>
<polygon id="0x2bf2060" class="l126d0" points="740,80 780,80 780,160 740,160"/>
<polygon id="0x2bf2120" class="l126d0" points="740,240 780,240 780,320 740,320"/>
<polygon id="0x2a10500" class="l126d0" points="740,400 780,400 780,480 740,480"/>
<polygon id="0x2a105c0" class="l126d0" points="740,560 780,560 780,640 740,640"/>
<polygon id="0x2a24780" class="l126d0" points="740,880 780,880 780,1040 740,1040"/>
<polygon id="0x2a24840" class="l126d0" points="740,1120 780,1120 780,1200 740,1200"/>
<polygon id="0x2a61150" class="l126d0" points="820,0 860,0 860,160 820,160"/>
<polygon id="0x2a61210" class="l126d0" points="820,240 860,240 860,720 820,720"/>
<polygon id="0x2a6c380" class="l126d0" points="820,800 860,800 860,1280 820,1280"/>
<polygon id="0x2a6c440" class="l126d0" points="900,320 940,320 940,560 900,560"/>
<polygon id="0x2a62ee0" class="l126d0" points="900,640 940,640 940,720 900,720"/>
<polygon id="0x2a62fa0" class="l126d0" points="900,880 940,880 940,1040 900,1040"/>
<polygon id="0x2b3ed20" class="l126d0" points="900,1120 940,1120 940,1200 900,1200"/>
<polygon id="0x2b3ede0" class="l126d0" points="900,1280 940,1280 940,1360 900,1360"/>
<polygon id="0x2c04e60" class="l126d0" points="980,0 1020,0 1020,80 980,80"/>
<polygon id="0x2c04f20" class="l126d0" points="980,160 1020,160 1020,400 980,400"/>
<polygon id="0x296f2b0" class="l126d0" points="980,480 1020,480 1020,560 980,560"/>
<polygon id="0x296f370" class="l126d0" points="980,640 1020,640 1020,720 980,720"/>
<polygon id="0x2a0c640" class="l126d0" points="980,880 1020,880 1020,960 980,960"/>
<polygon id="0x2a0c700" class="l126d0" points="980,1200 1020,1200 1020,1280 980,1280"/>
<polygon id="0x2ae8130" class="l126d0" points="1060,0 1100,0 1100,80 1060,80"/>
<polygon id="0x2ae81f0" class="l126d0" points="1060,240 1100,240 1100,560 1060,560"/>
<polygon id="0x2b59e10" class="l126d0" points="1060,720 1100,720 1100,1120 1060,1120"/>
<polygon id="0x2b59ed0" class="l126d0" points="1060,1280 1100,1280 1100,1360 1060,1360"/>
<polygon id="0x2aad5e0" class="l126d0" points="1140,0 1180,0 1180,80 1140,80"/>
<polygon id="0x2aad6a0" class="l126d0" points="1140,160 1180,160 1180,240 1140,240"/>
<polygon id="0x2af00c0" class="l126d0" points="1140,320 1180,320 1180,400 1140,400"/>
<polygon id="0x2af0180" class="l126d0" points="1140,480 1180,480 1180,560 1140,560"/>
<polygon id="0x2b4a2e0" class="l126d0" points="1140,640 1180,640 1180,800 1140,800"/>
<polygon id="0x2b4a3a0" class="l126d0" points="1140,1120 1180,1120 1180,1280 1140,1280"/>
<polygon id="0x2b27640" class="l126d0" points="1220,160 1260,160 1260,400 1220,400"/>
<polygon id="0x2b27700" class="l126d0" points="1220,560 1260,560 1260,720 1220,720"/>
<polygon id="0x2b8bb30" class="l126d0" points="1220,800 1260,800 1260,1040 1220,1040"/>
<polygon id="0x2b8bbf0" class="l126d0" points="1220,1200 1260,1200 1260,1280 1220,1280"/>
<polygon id="0x2b730c0" class="l126d0" points="1300,240 1340,240 1340,320 1300,320"/>
<polygon id="0x2b73180" class="l126d0" points="1300,400 1340,400 1340,480 1300,480"/>
<polygon id="0x2b69da0" class="l126d0" points="1300,640 1340,640 1340,800 1300,800"/>
<polygon id="0x2b69e60" class="l126d0" points="1300,880 1340,880 1340,960 1300,960"/>
<polygon id="0x2bce590" class="l126d0" points="1300,1120 1340,1120 1340,1280 1300,1280"/>
<polygon id="0x2bce600" class="l126d0" points="1380,0 1420,0 1420,240 1380,240"/>
<polygon id="0x2bce6c0" class="l126d0" points="1380,480 1420,480 1420,560 1380,560"/>
<polygon id="0x28ef340" class="l126d0" points="1380,640 1420,640 1420,720 1380,720"/>
<polygon id="0x28ef400" class="l126d0" points="1380,1040 1420,1040 1420,1280 1380,1280"/>
<polygon id="0x2a3eea0" class="l126d0" points="1460,0 1500,0 1500,80 1460,80"/>
<polygon id="0x2a3ef60" class="l126d0" points="1460,160 1500,160 1500,240 1460,240"/>
<polygon id="0x2ab5ea0" class="l126d0" points="1460,400 1500,400 1500,880 1460,880"/>
<polygon id="0x2ab5f60" class="l126d0" points="1460,960 1500,960 1500,1360 1460,1360"/>
<polygon id="0x2aa7ed0" class="l126d0" points="1540,0 1580,0 1580,320 1540,320"/>
<polygon id="0x2aa7f90" class="l126d0" points="1540,400 1580,400 1580,640 1540,640"/>
<polygon id="0x2aa6dd0" class="l126d0" points="1540,720 1580,720 1580,800 1540,800"/>
<polygon id="0x2aa6e90" class="l126d0" points="1540,880 1580,880 1580,960 1540,960"/>
<polygon id="0x2b1c0c0" class="l126d0" points="1620,0 1660,0 1660,240 1620,240"/>
<polygon id="0x2b1c180" class="l126d0" points="1620,320 1660,320 1660,400 1620,400"/>
<polygon id="0x2bcb000" class="l126d0" points="1620,480 1660,480 1660,880 1620,880"/>
<polygon id="0x2bcb0c0" class="l126d0" points="1620,1040 1660,1040 1660,1120 1620,1120"/>
<polygon id="0x2bf2a70" class="l126d0" points="1620,1280 1660,1280 1660,1360 1620,1360"/>
<polygon id="0x2bf2b30" class="l126d0" points="1700,160 1740,160 1740,320 1700,320"/>
<polygon id="0x2970460" class="l126d0" points="1700,560 1740,560 1740,720 1700,720"/>
<polygon id="0x2970520" class="l126d0" points="1700,880 1740,880 1740,1040 1700,1040"/>
<polygon id="0x29d3f10" class="l126d0" points="1700,1200 1740,1200 1740,1360 1700,1360"/>
<polygon id="0x29d3fd0" class="l189d4" points="0,0 1760,0 1760,1360 0,1360"/>
</g>
</svg>