<?xml version="1.0" encoding="UTF-8"?>
<svg xmlns="http://www.w3.org/2000/svg" xmlns:xlink="http://www.w3.org/1999/xlink" width="1760" height="1360" viewBox="-80 -1280 1760 1360">
<defs>
<style type="text/css">
.l126d0 {stroke: #E68FAC; fill: #E68FAC; fill-opacity: 0.5;}
.l189d4 {stroke: #A1CAF1; fill: #A1CAF1; fill-opacity: 0.5;}
</style>
</defs>
<rect x="-80" y="-1280" width="1760" height="1360" fill="#222222" stroke="none"/>
<g id="my_logo" transform="scale(1 -1)">
<polygon id="0x1de2710" class="l126d0" points="0,20 80,20 80,60 0,60"/>
<polygon id="0x1e349a0" class="l126d0" points="160,20 240,20 240,60 160,60"/>
<polygon id="0x1eb0850" class="l126d0" points="400,20 480,20 480,60 400,60"/>
<polygon id="0x1d1d250" class="l126d0" points="560,20 800,20 800,60 560,60"/>
<polygon id="0x1e1b5f0" class="l126d0" points="1040,20 1120,20 1120,60 1040,60"/>
<polygon id="0x1e30490" class="l126d0" points="1200,20 1440,20 1440,60 1200,60"/>
<polygon id="0x1db82b0" class="l126d0" points="1520,20 1600,20 1600,60 1520,60"/>
<polygon id="0x1dd7a50" class="l126d0" points="80,100 240,100 240,140 80,140"/>
<polygon id="0x1f8e3d0" class="l126d0" points="480,100 720,100 720,140 480,140"/>
<polygon id="0x1f8fac0" class="l126d0" points="1040,100 1120,100 1120,140 1040,140"/>
<polygon id="0x1f05800" class="l126d0" points="1360,100 1520,100 1520,140 1360,140"/>
<polygon id="0x1f07810" class="l126d0" points="80,180 400,180 400,220 80,220"/>
<polygon id="0x1ee52b0" class="l126d0" points="560,180 720,180 720,220 560,220"/>
<polygon id="0x1ea01a0" class="l126d0" points="800,180 960,180 960,220 800,220"/>
<polygon id="0x1f93740" class="l126d0" points="1040,180 1120,180 1120,220 1040,220"/>
<polygon id="0x1f3c4a0" class="l126d0" points="1280,180 1360,180 1360,220 1280,220"/>
<polygon id="0x1f4a520" class="l126d0" points="1440,180 1600,180 1600,220 1440,220"/>
<polygon id="0x1f261a0" class="l126d0" points="240,260 560,260 560,300 240,300"/>
<polygon id="0x1f0e390" class="l126d0" points="1280,260 1360,260 1360,300 1280,300"/>
<polygon id="0x1f5cd80" class="l126d0" points="1440,260 1520,260 1520,300 1440,300"/>
<polygon id="0x1f50870" class="l126d0" points="160,340 240,340 240,380 160,380"/>
<polygon id="0x1ceb730" class="l126d0" points="320,340 480,340 480,380 320,380"/>
<polygon id="0x1d8c9e0" class="l126d0" points="640,340 720,340 720,380 640,380"/>
<polygon id="0x1d1bc40" class="l126d0" points="960,340 1040,340 1040,380 960,380"/>
<polygon id="0x1ebf110" class="l126d0" points="1200,340 1360,340 1360,380 1200,380"/>
<polygon id="0x1f1f8a0" class="l126d0" points="0,420 320,420 320,460 0,460"/>
<polygon id="0x1f13690" class="l126d0" points="480,420 720,420 720,460 480,460"/>
<polygon id="0x1d96e90" class="l126d0" points="960,420 1200,420 1200,460 960,460"/>
<polygon id="0x1d96f00" class="l126d0" points="1440,420 1600,420 1600,460 1440,460"/>
<polygon id="0x1dcf980" class="l126d0" points="80,500 160,500 160,540 80,540"/>
<polygon id="0x1df4d00" class="l126d0" points="240,500 400,500 400,540 240,540"/>
<polygon id="0x1e1f970" class="l126d0" points="480,500 720,500 720,540 480,540"/>
<polygon id="0x1e9d840" class="l126d0" points="880,500 1280,500 1280,540 880,540"/>
<polygon id="0x1edb100" class="l126d0" points="1440,500 1600,500 1600,540 1440,540"/>
<polygon id="0x1f4dc90" class="l126d0" points="320,580 400,580 400,620 320,620"/>
<polygon id="0x1f948e0" class="l126d0" points="800,580 1040,580 1040,620 800,620"/>
<polygon id="0x1d52e10" class="l126d0" points="1120,580 1280,580 1280,620 1120,620"/>
<polygon id="0x1d63dc0" class="l126d0" points="1440,580 1600,580 1600,620 1440,620"/>
<polygon id="0x1dcd960" class="l126d0" points="320,660 640,660 640,700 320,700"/>
<polygon id="0x1e94cd0" class="l126d0" points="720,660 800,660 800,700 720,700"/>
<polygon id="0x1f18cf0" class="l126d0" points="880,660 1040,660 1040,700 880,700"/>
<polygon id="0x1d5f3a0" class="l126d0" points="1200,660 1360,660 1360,700 1200,700"/>
<polygon id="0x1edddd0" class="l126d0" points="80,740 240,740 240,780 80,780"/>
<polygon id="0x1f31f30" class="l126d0" points="320,740 400,740 400,780 320,780"/>
<polygon id="0x1f0fd70" class="l126d0" points="480,740 720,740 720,780 480,780"/>
<polygon id="0x1d56a70" class="l126d0" points="880,740 1280,740 1280,780 880,780"/>
<polygon id="0x1db38d0" class="l126d0" points="1520,740 1600,740 1600,780 1520,780"/>
<polygon id="0x1dff750" class="l126d0" points="0,820 240,820 240,860 0,860"/>
<polygon id="0x1dff7c0" class="l126d0" points="320,820 480,820 480,860 320,860"/>
<polygon id="0x1e231e0" class="l126d0" points="720,820 880,820 880,860 720,860"/>
<polygon id="0x1e229f0" class="l126d0" points="1040,820 1520,820 1520,860 1040,860"/>
<polygon id="0x1e8b6b0" class="l126d0" points="0,900 80,900 80,940 0,940"/>
<polygon id="0x1e8b720" class="l126d0" points="160,900 240,900 240,940 160,940"/>
<polygon id="0x1eeb7a0" class="l126d0" points="400,900 480,900 480,940 400,940"/>
<polygon id="0x1ef8200" class="l126d0" points="880,900 960,900 960,940 880,940"/>
<polygon id="0x1f4fe90" class="l126d0" points="1040,900 1120,900 1120,940 1040,940"/>
<polygon id="0x1f4ff00" class="l126d0" points="1360,900 1520,900 1520,940 1360,940"/>
<polygon id="0x1f62ce0" class="l126d0" points="160,980 880,980 880,1020 160,1020"/>
<polygon id="0x1f93fa0" class="l126d0" points="960,980 1120,980 1120,1020 960,1020"/>
<polygon id="0x1fba8c0" class="l126d0" points="1440,980 1520,980 1520,1020 1440,1020"/>
<polygon id="0x1fba930" class="l126d0" points="0,1060 80,1060 80,1100 0,1100"/>
<polygon id="0x1d228d0" class="l126d0" points="320,1060 480,1060 480,1100 320,1100"/>
<polygon id="0x1d804e0" class="l126d0" points="640,1060 800,1060 800,1100 640,1100"/>
<polygon id="0x1dbbbc0" class="l126d0" points="880,1060 1040,1060 1040,1100 880,1100"/>
<polygon id="0x1e11db0" class="l126d0" points="1200,1060 1280,1060 1280,1100 1200,1100"/>
<polygon id="0x1dfd6c0" class="l126d0" points="1520,1060 1600,1060 1600,1100 1520,1100"/>
<polygon id="0x1ecd660" class="l126d0" points="0,1140 80,1140 80,1180 0,1180"/>
<polygon id="0x1ee5bb0" class="l126d0" points="160,1140 240,1140 240,1180 160,1180"/>
<polygon id="0x1f007d0" class="l126d0" points="400,1140 480,1140 480,1180 400,1180"/>
<polygon id="0x1f5b0b0" class="l126d0" points="560,1140 640,1140 640,1180 560,1180"/>
<polygon id="0x1f6d0a0" class="l126d0" points="880,1140 1120,1140 1120,1180 880,1180"/>
<polygon id="0x1f7cc80" class="l126d0" points="1360,1140 1440,1140 1440,1180 1360,1180"/>
<polygon id="0x1d66ce0" class="l126d0" points="1520,1140 1600,1140 1600,1180 1520,1180"/>
<polygon id="0x1d66da0" class="l126d0" points="20,80 60,80 60,400 20,400"/>
<polygon id="0x1d8b0a0" class="l126d0" points="20,480 60,480 60,800 20,800"/>
<polygon id="0x1d8b160" class="l126d0" points="20,960 60,960 60,1040 20,1040"/>
<polygon id="0x1dbc550" class="l126d0" points="100,0 140,0 140,80 100,80"/>
<polygon id="0x1dbc610" class="l126d0" points="100,240 140,240 140,400 100,400"/>
<polygon id="0x1e1bd60" class="l126d0" points="100,560 140,560 140,720 100,720"/>
<polygon id="0x1e1be20" class="l126d0" points="100,880 140,880 140,1200 100,1200"/>
<polygon id="0x1e128b0" class="l126d0" points="180,240 220,240 220,320 180,320"/>
<polygon id="0x1e12970" class="l126d0" points="180,480 220,480 220,720 180,720"/>
<polygon id="0x1e14840" class="l126d0" points="180,1040 220,1040 220,1120 180,1120"/>
<polygon id="0x1e14900" class="l126d0" points="260,0 300,0 300,160 260,160"/>
<polygon id="0x1e8e180" class="l126d0" points="260,320 300,320 300,400 260,400"/>
<polygon id="0x1e8e240" class="l126d0" points="260,560 300,560 300,960 260,960"/>
<polygon id="0x1e8bc00" class="l126d0" points="260,1040 300,1040 300,1200 260,1200"/>
<polygon id="0x1e8bcc0" class="l126d0" points="340,0 380,0 380,160 340,160"/>
<polygon id="0x1f90cd0" class="l126d0" points="340,400 380,400 380,480 340,480"/>
<polygon id="0x1f90d90" class="l126d0" points="340,880 380,880 380,960 340,960"/>
<polygon id="0x1d81c20" class="l126d0" points="340,1120 380,1120 380,1200 340,1200"/>
<polygon id="0x1d81ce0" class="l126d0" points="420,80 460,80 460,240 420,240"/>
<polygon id="0x1edc910" class="l126d0" points="420,400 460,400 460,640 420,640"/>
<polygon id="0x1edc9d0" class="l126d0" points="420,720 460,720 460,800 420,800"/>
<polygon id="0x1c97dd0" class="l126d0" points="500,0 540,0 540,80 500,80"/>
<polygon id="0x1eecc10" class="l126d0" points="500,160 540,160 540,240 500,240"/>
<polygon id="0x1eeccd0" class="l126d0" points="500,320 540,320 540,400 500,400"/>
<polygon id="0x1f221e0" class="l126d0" points="500,560 540,560 540,640 500,640"/>
<polygon id="0x1efa800" class="l126d0" points="500,800 540,800 540,960 500,960"/>
<polygon id="0x1efa8c0" class="l126d0" points="500,1040 540,1040 540,1200 500,1200"/>
<polygon id="0x1f59680" class="l126d0" points="580,240 620,240 620,400 580,400"/>
<polygon id="0x1d2f650" class="l126d0" points="580,560 620,560 620,640 580,640"/>
<polygon id="0x1d2f710" class="l126d0" points="580,800 620,800 620,960 580,960"/>
<polygon id="0x1d5b580" class="l126d0" points="580,1040 620,1040 620,1120 580,1120"/>
<polygon id="0x1d93f80" class="l126d0" points="660,240 700,240 700,320 660,320"/>
<polygon id="0x1d93ff0" class="l126d0" points="660,560 700,560 700,720 660,720"/>
<polygon id="0x1e96c90" class="l126d0" points="660,800 700,800 700,960 660,960"/>
<polygon id="0x1e96d50" class="l126d0" points="660,1120 700,1120 700,1200 660,1200"/>
<polygon id="0x1ee70e0" class="l126d0" points="740,80 780,80 780,640 740,640"/>
<polygon id="0x1f2ae50" class="l126d0" points="740,720 780,720 780,800 740,800"/>
<polygon id="0x1f2aec0" class="l126d0" points="740,880 780,880 780,960 740,960"/>
<polygon id="0x1f4ea60" class="l126d0" points="740,1120 780,1120 780,1200 740,1200"/>
<polygon id="0x1f4eb20" class="l126d0" points="820,0 860,0 860,160 820,160"/>
<polygon id="0x1f9c8b0" class="l126d0" points="820,240 860,240 860,560 820,560"/>
<polygon id="0x1d41cd0" class="l126d0" points="820,640 860,640 860,800 820,800"/>
<polygon id="0x1d41d40" class="l126d0" points="820,880 860,880 860,960 820,960"/>
<polygon id="0x1e1ee00" class="l126d0" points="820,1040 860,1040 860,1200 820,1200"/>
<polygon id="0x1e1eec0" class="l126d0" points="900,0 940,0 940,160 900,160"/>
<polygon id="0x1e1e9a0" class="l126d0" points="900,240 940,240 940,480 900,480"/>
<polygon id="0x1e8c210" class="l126d0" points="900,800 940,800 940,880 900,880"/>
<polygon id="0x1e8c2d0" class="l126d0" points="900,960 940,960 940,1040 900,1040"/>
<polygon id="0x1e9a7e0" class="l126d0" points="980,0 1020,0 1020,320 980,320"/>
<polygon id="0x1e9a8a0" class="l126d0" points="980,800 1020,800 1020,960 980,960"/>
<polygon id="0x1f43050" class="l126d0" points="1060,240 1100,240 1100,400 1060,400"/>
<polygon id="0x1ef5820" class="l126d0" points="1060,560 1100,560 1100,720 1060,720"/>
<polygon id="0x1ef58e0" class="l126d0" points="1060,1040 1100,1040 1100,1120 1060,1120"/>
<polygon id="0x1d8ced0" class="l126d0" points="1140,0 1180,0 1180,400 1140,400"/>
<polygon id="0x1d8cf90" class="l126d0" points="1140,640 1180,640 1180,720 1140,720"/>
<polygon id="0x1dcd3d0" class="l126d0" points="1140,880 1180,880 1180,1200 1140,1200"/>
<polygon id="0x1dcd490" class="l126d0" points="1220,80 1260,80 1260,320 1220,320"/>
<polygon id="0x1dd6660" class="l126d0" points="1220,400 1260,400 1260,480 1220,480"/>
<polygon id="0x1dd6720" class="l126d0" points="1220,880 1260,880 1260,1040 1220,1040"/>
<polygon id="0x1e25c30" class="l126d0" points="1220,1120 1260,1120 1260,1200 1220,1200"/>
<polygon id="0x1e25cf0" class="l126d0" points="1300,80 1340,80 1340,160 1300,160"/>
<polygon id="0x1dfc370" class="l126d0" points="1300,400 1340,400 1340,640 1300,640"/>
<polygon id="0x1dfc430" class="l126d0" points="1300,720 1340,720 1340,800 1300,800"/>
<polygon id="0x1e69b80" class="l126d0" points="1300,880 1340,880 1340,1200 1300,1200"/>
<polygon id="0x1e69c40" class="l126d0" points="1380,160 1420,160 1420,800 1380,800"/>
<polygon id="0x1f190c0" class="l126d0" points="1380,960 1420,960 1420,1120 1380,1120"/>
<polygon id="0x1f19180" class="l126d0" points="1460,0 1500,0 1500,80 1460,80"/>
<polygon id="0x1f8b0c0" class="l126d0" points="1460,320 1500,320 1500,400 1460,400"/>
<polygon id="0x1f8b180" class="l126d0" points="1460,640 1500,640 1500,800 1460,800"/>
<polygon id="0x1d902a0" class="l126d0" points="1460,1040 1500,1040 1500,1200 1460,1200"/>
<polygon id="0x1d90360" class="l126d0" points="1540,80 1580,80 1580,160 1540,160"/>
<polygon id="0x1d7ccb0" class="l126d0" points="1540,240 1580,240 1580,400 1540,400"/>
<polygon id="0x1d7cd70" class="l126d0" points="1540,640 1580,640 1580,720 1540,720"/>
<polygon id="0x1dd9040" class="l126d0" points="1540,800 1580,800 1580,1040 1540,1040"/>
<polygon id="0x1dd9100" class="l189d4" points="0,0 1600,0 1600,1200 0,1200"/>
</g>
</svg>