<?xml version="1.0" encoding="UTF-8"?>
<svg xmlns="http://www.w3.org/2000/svg" xmlns:xlink="http://www.w3.org/1999/xlink" width="1760" height="1360" viewBox="-80 -1280 1760 1360">
<defs>
<style type="text/css">
.l126d0 {stroke: #E68FAC; fill: #E68FAC; fill-opacity: 0.5;}
.l189d4 {stroke: #A1CAF1; fill: #A1CAF1; fill-opacity: 0.5;}
.l1d0 {stroke: #A1CAF1; fill: #A1CAF1; fill-opacity: 0.5;}
</style>
</defs>
<rect x="-80" y="-1280" width="1760" height="1360" fill="#222222" stroke="none"/>
<g id="my_logo" transform="scale(1 -1)">
<polygon id="0x1e72680" class="l126d0" points="0,20 80,20 80,60 0,60"/>
<polygon id="0x1e7d440" class="l126d0" points="240,20 320,20 320,60 240,60"/>
<polygon id="0x1ecf7d0" class="l126d0" points="480,20 640,20 640,60 480,60"/>
<polygon id="0x1f71950" class="l126d0" points="720,20 880,20 880,60 720,60"/>
<polygon id="0x1db7d70" class="l126d0" points="960,20 1120,20 1120,60 960,60"/>
<polygon id="0x1ecb2c0" class="l126d0" points="1280,20 1600,20 1600,60 1280,60"/>
<polygon id="0x1e52cd0" class="l126d0" points="0,100 80,100 80,140 0,140"/>
<polygon id="0x1e6b890" class="l126d0" points="160,100 400,100 400,140 160,140"/>
<polygon id="0x20287f0" class="l126d0" points="640,100 960,100 960,140 640,140"/>
<polygon id="0x2029ee0" class="l126d0" points="1120,100 1280,100 1280,140 1120,140"/>
<polygon id="0x1ffb370" class="l126d0" points="1360,100 1600,100 1600,140 1360,140"/>
<polygon id="0x1fa8bc0" class="l126d0" points="0,180 240,180 240,220 0,220"/>
<polygon id="0x1fa1170" class="l126d0" points="320,180 480,180 480,220 320,220"/>
<polygon id="0x1f7fb60" class="l126d0" points="560,180 720,180 720,220 560,220"/>
<polygon id="0x1fd6d50" class="l126d0" points="1040,180 1120,180 1120,220 1040,220"/>
<polygon id="0x2023b10" class="l126d0" points="1280,180 1360,180 1360,220 1280,220"/>
<polygon id="0x1ec47c0" class="l126d0" points="1520,180 1600,180 1600,220 1520,220"/>
<polygon id="0x1f4b0e0" class="l126d0" points="80,260 160,260 160,300 80,300"/>
<polygon id="0x1fa7560" class="l126d0" points="240,260 320,260 320,300 240,300"/>
<polygon id="0x1ff90f0" class="l126d0" points="400,260 480,260 480,300 400,300"/>
<polygon id="0x2035980" class="l126d0" points="640,260 800,260 800,300 640,300"/>
<polygon id="0x1d31a70" class="l126d0" points="960,260 1040,260 1040,300 960,300"/>
<polygon id="0x1d85c20" class="l126d0" points="1120,260 1200,260 1200,300 1120,300"/>
<polygon id="0x1e05720" class="l126d0" points="1280,260 1360,260 1360,300 1280,300"/>
<polygon id="0x1e187c0" class="l126d0" points="1440,260 1520,260 1520,300 1440,300"/>
<polygon id="0x1db6760" class="l126d0" points="160,340 240,340 240,380 160,380"/>
<polygon id="0x1f599c0" class="l126d0" points="400,340 560,340 560,380 400,380"/>
<polygon id="0x1fb8ca0" class="l126d0" points="640,340 720,340 720,380 640,380"/>
<polygon id="0x1febc40" class="l126d0" points="880,340 960,340 960,380 880,380"/>
<polygon id="0x1cf4370" class="l126d0" points="1040,340 1120,340 1120,380 1040,380"/>
<polygon id="0x1e65b80" class="l126d0" points="1520,340 1600,340 1600,380 1520,380"/>
<polygon id="0x1e6b470" class="l126d0" points="0,420 160,420 160,460 0,460"/>
<polygon id="0x1e8f9e0" class="l126d0" points="320,420 400,420 400,460 320,460"/>
<polygon id="0x1eaed00" class="l126d0" points="560,420 640,420 640,460 560,460"/>
<polygon id="0x1f380a0" class="l126d0" points="800,420 880,420 880,460 800,460"/>
<polygon id="0x1f4c760" class="l126d0" points="1040,420 1120,420 1120,460 1040,460"/>
<polygon id="0x1f75960" class="l126d0" points="1200,420 1440,420 1440,460 1200,460"/>
<polygon id="0x1fc1dd0" class="l126d0" points="0,500 240,500 240,540 0,540"/>
<polygon id="0x1fe8160" class="l126d0" points="480,500 720,500 720,540 480,540"/>
<polygon id="0x1fe9900" class="l126d0" points="1120,500 1200,500 1200,540 1120,540"/>
<polygon id="0x1ffead0" class="l126d0" points="1360,500 1440,500 1440,540 1360,540"/>
<polygon id="0x1fea950" class="l126d0" points="1520,500 1600,500 1600,540 1520,540"/>
<polygon id="0x202ecb0" class="l126d0" points="0,580 160,580 160,620 0,620"/>
<polygon id="0x1dd2d90" class="l126d0" points="320,580 400,580 400,620 320,620"/>
<polygon id="0x1ded580" class="l126d0" points="480,580 640,580 640,620 480,620"/>
<polygon id="0x1dfe200" class="l126d0" points="800,580 880,580 880,620 800,620"/>
<polygon id="0x1e68330" class="l126d0" points="960,580 1200,580 1200,620 960,620"/>
<polygon id="0x1f2f530" class="l126d0" points="1360,580 1440,580 1440,620 1360,620"/>
<polygon id="0x1fc5770" class="l126d0" points="0,660 80,660 80,700 0,700"/>
<polygon id="0x1fbb8e0" class="l126d0" points="320,660 400,660 400,700 320,700"/>
<polygon id="0x1fb3270" class="l126d0" points="560,660 640,660 640,700 560,700"/>
<polygon id="0x201e6b0" class="l126d0" points="800,660 880,660 880,700 800,700"/>
<polygon id="0x1df97e0" class="l126d0" points="1440,660 1600,660 1600,700 1440,700"/>
<polygon id="0x1ebaa00" class="l126d0" points="0,740 160,740 160,780 0,780"/>
<polygon id="0x1f78630" class="l126d0" points="320,740 640,740 640,780 320,780"/>
<polygon id="0x1ebd7b0" class="l126d0" points="800,740 960,740 960,780 800,780"/>
<polygon id="0x1f25f60" class="l126d0" points="1120,740 1200,740 1200,780 1120,780"/>
<polygon id="0x1f25fd0" class="l126d0" points="1360,740 1520,740 1520,780 1360,780"/>
<polygon id="0x1f86050" class="l126d0" points="0,820 80,820 80,860 0,860"/>
<polygon id="0x1f929d0" class="l126d0" points="400,820 480,820 480,860 400,860"/>
<polygon id="0x1fad420" class="l126d0" points="640,820 720,820 720,860 640,860"/>
<polygon id="0x1fad490" class="l126d0" points="880,820 960,820 960,860 880,860"/>
<polygon id="0x1ff8760" class="l126d0" points="1040,820 1360,820 1360,860 1040,860"/>
<polygon id="0x2013960" class="l126d0" points="1440,820 1520,820 1520,860 1440,860"/>
<polygon id="0x202e3c0" class="l126d0" points="80,900 240,900 240,940 80,940"/>
<polygon id="0x202e430" class="l126d0" points="320,900 640,900 640,940 320,940"/>
<polygon id="0x2054d00" class="l126d0" points="720,900 880,900 880,940 720,940"/>
<polygon id="0x1e391d0" class="l126d0" points="1040,900 1120,900 1120,940 1040,940"/>
<polygon id="0x1e1a970" class="l126d0" points="1200,900 1280,900 1280,940 1200,940"/>
<polygon id="0x1e1a9e0" class="l126d0" points="1360,900 1440,900 1440,940 1360,940"/>
<polygon id="0x1e56630" class="l126d0" points="0,980 160,980 160,1020 0,1020"/>
<polygon id="0x1e98670" class="l126d0" points="240,980 320,980 320,1020 240,1020"/>
<polygon id="0x1f67f10" class="l126d0" points="400,980 560,980 560,1020 400,1020"/>
<polygon id="0x1fdbcb0" class="l126d0" points="720,980 1200,980 1200,1020 720,1020"/>
<polygon id="0x1f9b1c0" class="l126d0" points="1280,980 1360,980 1360,1020 1280,1020"/>
<polygon id="0x1ff55d0" class="l126d0" points="1440,980 1600,980 1600,1020 1440,1020"/>
<polygon id="0x20080d0" class="l126d0" points="240,1060 320,1060 320,1100 240,1100"/>
<polygon id="0x1ddfcd0" class="l126d0" points="560,1060 960,1060 960,1100 560,1100"/>
<polygon id="0x1ddfd90" class="l126d0" points="1120,1060 1200,1060 1200,1100 1120,1100"/>
<polygon id="0x1e01170" class="l126d0" points="1360,1060 1440,1060 1440,1100 1360,1100"/>
<polygon id="0x1e01230" class="l126d0" points="1520,1060 1600,1060 1600,1100 1520,1100"/>
<polygon id="0x1e25530" class="l126d0" points="80,1140 240,1140 240,1180 80,1180"/>
<polygon id="0x1e255f0" class="l126d0" points="400,1140 560,1140 560,1180 400,1180"/>
<polygon id="0x1e56f70" class="l126d0" points="640,1140 720,1140 720,1180 640,1180"/>
<polygon id="0x1e57030" class="l126d0" points="960,1140 1040,1140 1040,1180 960,1180"/>
<polygon id="0x1eb6b90" class="l126d0" points="1360,1140 1440,1140 1440,1180 1360,1180"/>
<polygon id="0x1eb6c50" class="l126d0" points="20,240 60,240 60,400 20,400"/>
<polygon id="0x1f28a30" class="l126d0" points="20,880 60,880 60,960 20,960"/>
<polygon id="0x1f28af0" class="l126d0" points="20,1040 60,1040 60,1200 20,1200"/>
<polygon id="0x1f264b0" class="l126d0" points="100,0 140,0 140,160 100,160"/>
<polygon id="0x1f26570" class="l126d0" points="100,320 140,320 140,400 100,400"/>
<polygon id="0x202b140" class="l126d0" points="100,640 140,640 140,720 100,720"/>
<polygon id="0x1e1c0b0" class="l126d0" points="100,800 140,800 140,880 100,880"/>
<polygon id="0x1e1c170" class="l126d0" points="100,1040 140,1040 140,1120 100,1120"/>
<polygon id="0x1f77210" class="l126d0" points="180,0 220,0 220,80 180,80"/>
<polygon id="0x1fcd920" class="l126d0" points="180,240 220,240 220,320 180,320"/>
<polygon id="0x1fcd9e0" class="l126d0" points="180,400 220,400 220,480 180,480"/>
<polygon id="0x1d2df50" class="l126d0" points="180,560 220,560 220,880 180,880"/>
<polygon id="0x1fbca40" class="l126d0" points="180,960 220,960 220,1120 180,1120"/>
<polygon id="0x1fbcb00" class="l126d0" points="260,160 300,160 300,240 260,240"/>
<polygon id="0x1ff3ba0" class="l126d0" points="260,320 300,320 300,960 260,960"/>
<polygon id="0x1dca170" class="l126d0" points="260,1120 300,1120 300,1200 260,1200"/>
<polygon id="0x1dca230" class="l126d0" points="340,0 380,0 380,80 340,80"/>
<polygon id="0x1deb9b0" class="l126d0" points="340,240 380,240 380,400 340,400"/>
<polygon id="0x1df59c0" class="l126d0" points="340,480 380,480 380,560 340,560"/>
<polygon id="0x1df5a30" class="l126d0" points="340,800 380,800 380,880 340,880"/>
<polygon id="0x1e2e410" class="l126d0" points="340,960 380,960 380,1200 340,1200"/>
<polygon id="0x1e2e4d0" class="l126d0" points="420,0 460,0 460,160 420,160"/>
<polygon id="0x1e18410" class="l126d0" points="420,400 460,400 460,720 420,720"/>
<polygon id="0x1f31540" class="l126d0" points="420,1040 460,1040 460,1120 420,1120"/>
<polygon id="0x1f315b0" class="l126d0" points="500,80 540,80 540,320 500,320"/>
<polygon id="0x1f81940" class="l126d0" points="500,400 540,400 540,480 500,480"/>
<polygon id="0x1f81a00" class="l126d0" points="500,640 540,640 540,720 500,720"/>
<polygon id="0x1ff7040" class="l126d0" points="500,800 540,800 540,880 500,880"/>
<polygon id="0x2036610" class="l126d0" points="500,1040 540,1040 540,1120 500,1120"/>
<polygon id="0x2036680" class="l126d0" points="580,80 620,80 620,160 580,160"/>
<polygon id="0x1de9bc0" class="l126d0" points="580,240 620,240 620,400 580,400"/>
<polygon id="0x1de9c80" class="l126d0" points="580,800 620,800 620,880 580,880"/>
<polygon id="0x1ddba20" class="l126d0" points="580,960 620,960 620,1040 580,1040"/>
<polygon id="0x1e67e00" class="l126d0" points="580,1120 620,1120 620,1200 580,1200"/>
<polygon id="0x1e67ec0" class="l126d0" points="660,0 700,0 700,80 660,80"/>
<polygon id="0x1ec0a70" class="l126d0" points="660,400 700,400 700,480 660,480"/>
<polygon id="0x1ec0b30" class="l126d0" points="660,560 700,560 700,800 660,800"/>
<polygon id="0x1eb97d0" class="l126d0" points="660,880 700,880 700,1040 660,1040"/>
<polygon id="0x1eb6320" class="l126d0" points="740,160 780,160 780,240 740,240"/>
<polygon id="0x1eb63e0" class="l126d0" points="740,320 780,320 780,880 740,880"/>
<polygon id="0x1f26ac0" class="l126d0" points="740,1120 780,1120 780,1200 740,1200"/>
<polygon id="0x1f26b80" class="l126d0" points="820,160 860,160 860,400 820,400"/>
<polygon id="0x1f350e0" class="l126d0" points="820,480 860,480 860,560 820,560"/>
<polygon id="0x1f90210" class="l126d0" points="820,800 860,800 860,880 820,880"/>
<polygon id="0x1f902d0" class="l126d0" points="820,1120 860,1120 860,1200 820,1200"/>
<polygon id="0x1faa280" class="l126d0" points="900,0 940,0 940,80 900,80"/>
<polygon id="0x1faa340" class="l126d0" points="900,160 940,160 940,320 900,320"/>
<polygon id="0x1de7e40" class="l126d0" points="900,400 940,400 940,720 900,720"/>
<polygon id="0x1de7f00" class="l126d0" points="900,880 940,880 940,960 900,960"/>
<polygon id="0x1e273b0" class="l126d0" points="900,1120 940,1120 940,1200 900,1200"/>
<polygon id="0x1e27470" class="l126d0" points="980,80 1020,80 1020,240 980,240"/>
<polygon id="0x1e71600" class="l126d0" points="980,320 1020,320 1020,560 980,560"/>
<polygon id="0x1e716c0" class="l126d0" points="980,640 1020,640 1020,960 980,960"/>
<polygon id="0x1eae400" class="l126d0" points="980,1040 1020,1040 1020,1120 980,1120"/>
<polygon id="0x1eae4c0" class="l126d0" points="1060,80 1100,80 1100,160 1060,160"/>
<polygon id="0x1ebdfa0" class="l126d0" points="1060,240 1100,240 1100,320 1060,320"/>
<polygon id="0x1ebe060" class="l126d0" points="1060,480 1100,480 1100,560 1060,560"/>
<polygon id="0x1f04480" class="l126d0" points="1060,640 1100,640 1100,800 1060,800"/>
<polygon id="0x1f04540" class="l126d0" points="1060,1040 1100,1040 1100,1200 1060,1200"/>
<polygon id="0x1f874e0" class="l126d0" points="1140,0 1180,0 1180,80 1140,80"/>
<polygon id="0x1f875a0" class="l126d0" points="1140,160 1180,160 1180,240 1140,240"/>
<polygon id="0x1f950d0" class="l126d0" points="1140,320 1180,320 1180,480 1140,480"/>
<polygon id="0x1f95190" class="l126d0" points="1140,640 1180,640 1180,720 1140,720"/>
<polygon id="0x1fb88d0" class="l126d0" points="1140,880 1180,880 1180,960 1140,960"/>
<polygon id="0x1fb8990" class="l126d0" points="1140,1120 1180,1120 1180,1200 1140,1200"/>
<polygon id="0x2025530" class="l126d0" points="1220,0 1260,0 1260,80 1220,80"/>
<polygon id="0x20255f0" class="l126d0" points="1220,160 1260,160 1260,400 1220,400"/>
<polygon id="0x1e17190" class="l126d0" points="1220,480 1260,480 1260,800 1220,800"/>
<polygon id="0x1e17250" class="l126d0" points="1220,960 1260,960 1260,1200 1220,1200"/>
<polygon id="0x1eb86d0" class="l126d0" points="1300,80 1340,80 1340,160 1300,160"/>
<polygon id="0x1eb8790" class="l126d0" points="1300,320 1340,320 1340,400 1300,400"/>
<polygon id="0x1f55a80" class="l126d0" points="1300,480 1340,480 1340,800 1300,800"/>
<polygon id="0x1f55b40" class="l126d0" points="1300,880 1340,880 1340,960 1300,960"/>
<polygon id="0x1f46ec0" class="l126d0" points="1300,1040 1340,1040 1340,1200 1300,1200"/>
<polygon id="0x1f46f80" class="l126d0" points="1380,160 1420,160 1420,400 1380,400"/>
<polygon id="0x1e149b0" class="l126d0" points="1380,640 1420,640 1420,720 1380,720"/>
<polygon id="0x1e14a70" class="l126d0" points="1380,800 1420,800 1420,880 1380,880"/>
<polygon id="0x1e2a770" class="l126d0" points="1380,960 1420,960 1420,1040 1380,1040"/>
<polygon id="0x1e2a830" class="l126d0" points="1460,160 1500,160 1500,240 1460,240"/>
<polygon id="0x1e28b50" class="l126d0" points="1460,320 1500,320 1500,640 1460,640"/>
<polygon id="0x1e28c10" class="l126d0" points="1460,880 1500,880 1500,960 1460,960"/>
<polygon id="0x1e3af30" class="l126d0" points="1460,1040 1500,1040 1500,1200 1460,1200"/>
<polygon id="0x1e3aff0" class="l126d0" points="1540,240 1580,240 1580,320 1540,320"/>
<polygon id="0x1e82b50" class="l126d0" points="1540,400 1580,400 1580,480 1540,480"/>
<polygon id="0x1e82c10" class="l126d0" points="1540,560 1580,560 1580,640 1540,640"/>
<polygon id="0x1e796b0" class="l126d0" points="1540,720 1580,720 1580,960 1540,960"/>
<polygon id="0x1e79770" class="l126d0" points="1540,1120 1580,1120 1580,1200 1540,1200"/>
<polygon id="0x201b670" class="l189d4" points="0,0 300,0 300,300 0,300"/>
<polygon id="0x201b730" class="l1d0" points="35,35 45,35 45,45 35,45"/>
<polygon id="0x1d853a0" class="l1d0" points="35,115 45,115 45,125 35,125"/>
<polygon id="0x1d85460" class="l1d0" points="35,195 45,195 45,205 35,205"/>
<polygon id="0x1e154a0" class="l1d0" points="35,275 45,275 45,285 35,285"/>
<polygon id="0x1e15560" class="l1d0" points="35,355 45,355 45,365 35,365"/>
<polygon id="0x1e24c90" class="l1d0" points="35,435 45,435 45,445 35,445"/>
<polygon id="0x1e24d50" class="l1d0" points="35,515 45,515 45,525 35,525"/>
<polygon id="0x1e553c0" class="l1d0" points="35,595 45,595 45,605 35,605"/>
<polygon id="0x1e55480" class="l1d0" points="35,675 45,675 45,685 35,685"/>
<polygon id="0x1eaf270" class="l1d0" points="35,755 45,755 45,765 35,765"/>
<polygon id="0x1eaf330" class="l1d0" points="35,835 45,835 45,845 35,845"/>
<polygon id="0x1efec40" class="l1d0" points="35,915 45,915 45,925 35,925"/>
<polygon id="0x1efed00" class="l1d0" points="35,995 45,995 45,1005 35,1005"/>
<polygon id="0x1f70b60" class="l1d0" points="35,1075 45,1075 45,1085 35,1085"/>
<polygon id="0x1f70c20" class="l1d0" points="35,1155 45,1155 45,1165 35,1165"/>
<polygon id="0x1de9740" class="l1d0" points="115,35 125,35 125,45 115,45"/>
<polygon id="0x1de9800" class="l1d0" points="115,115 125,115 125,125 115,125"/>
<polygon id="0x1f06bd0" class="l1d0" points="115,195 125,195 125,205 115,205"/>
<polygon id="0x1f06c90" class="l1d0" points="115,275 125,275 125,285 115,285"/>
<polygon id="0x1fa3040" class="l1d0" points="115,355 125,355 125,365 115,365"/>
<polygon id="0x1fa3100" class="l1d0" points="115,435 125,435 125,445 115,445"/>
<polygon id="0x1dea380" class="l1d0" points="115,515 125,515 125,525 115,525"/>
<polygon id="0x1dea440" class="l1d0" points="115,595 125,595 125,605 115,605"/>
<polygon id="0x1eb1350" class="l1d0" points="115,675 125,675 125,685 115,685"/>
<polygon id="0x1eb1410" class="l1d0" points="115,755 125,755 125,765 115,765"/>
<polygon id="0x1f89dc0" class="l1d0" points="115,835 125,835 125,845 115,845"/>
<polygon id="0x1f89e30" class="l1d0" points="115,915 125,915 125,925 115,925"/>
<polygon id="0x1f89ef0" class="l1d0" points="115,995 125,995 125,1005 115,1005"/>
<polygon id="0x1fcc500" class="l1d0" points="115,1075 125,1075 125,1085 115,1085"/>
<polygon id="0x1fcc5c0" class="l1d0" points="115,1155 125,1155 125,1165 115,1165"/>
<polygon id="0x1fe5b10" class="l1d0" points="195,35 205,35 205,45 195,45"/>
<polygon id="0x1fe5bd0" class="l1d0" points="195,115 205,115 205,125 195,125"/>
<polygon id="0x1eccfc0" class="l1d0" points="195,195 205,195 205,205 195,205"/>
<polygon id="0x1ecd030" class="l1d0" points="195,275 205,275 205,285 195,285"/>
<polygon id="0x1ecd0f0" class="l1d0" points="195,355 205,355 205,365 195,365"/>
<polygon id="0x1f32e60" class="l1d0" points="195,435 205,435 205,445 195,445"/>
<polygon id="0x1f32f20" class="l1d0" points="195,515 205,515 205,525 195,525"/>
<polygon id="0x1fe2580" class="l1d0" points="195,595 205,595 205,605 195,605"/>
<polygon id="0x1fe2640" class="l1d0" points="195,675 205,675 205,685 195,685"/>
<polygon id="0x20036d0" class="l1d0" points="195,755 205,755 205,765 195,765"/>
<polygon id="0x2003790" class="l1d0" points="195,835 205,835 205,845 195,845"/>
<polygon id="0x1d86550" class="l1d0" points="195,915 205,915 205,925 195,925"/>
<polygon id="0x1d86610" class="l1d0" points="195,995 205,995 205,1005 195,1005"/>
<polygon id="0x1e2d240" class="l1d0" points="195,1075 205,1075 205,1085 195,1085"/>
<polygon id="0x1e2d300" class="l1d0" points="195,1155 205,1155 205,1165 195,1165"/>
<polygon id="0x1e2d3c0" class="l1d0" points="275,35 285,35 285,45 275,45"/>
<polygon id="0x1e2fd10" class="l1d0" points="275,115 285,115 285,125 275,125"/>
<polygon id="0x1e2fdd0" class="l1d0" points="275,195 285,195 285,205 275,205"/>
<polygon id="0x1e2fe90" class="l1d0" points="275,275 285,275 285,285 275,285"/>
<polygon id="0x1e81a00" class="l1d0" points="275,355 285,355 285,365 275,365"/>
<polygon id="0x1e81ac0" class="l1d0" points="275,435 285,435 285,445 275,445"/>
<polygon id="0x1e81b80" class="l1d0" points="275,515 285,515 285,525 275,525"/>
<polygon id="0x1e90680" class="l1d0" points="275,595 285,595 285,605 275,605"/>
<polygon id="0x1e90740" class="l1d0" points="275,675 285,675 285,685 275,685"/>
<polygon id="0x1e90800" class="l1d0" points="275,755 285,755 285,765 275,765"/>
<polygon id="0x1eb76e0" class="l1d0" points="275,835 285,835 285,845 275,845"/>
<polygon id="0x1eb77a0" class="l1d0" points="275,915 285,915 285,925 275,925"/>
<polygon id="0x1e99d50" class="l1d0" points="275,995 285,995 285,1005 275,1005"/>
<polygon id="0x1e99e10" class="l1d0" points="275,1075 285,1075 285,1085 275,1085"/>
<polygon id="0x1e99ed0" class="l1d0" points="275,1155 285,1155 285,1165 275,1165"/>
<polygon id="0x1f47890" class="l1d0" points="355,35 365,35 365,45 355,45"/>
<polygon id="0x1f47950" class="l1d0" points="355,115 365,115 365,125 355,125"/>
<polygon id="0x1fb6490" class="l1d0" points="355,195 365,195 365,205 355,205"/>
<polygon id="0x1fb6550" class="l1d0" points="355,275 365,275 365,285 355,285"/>
<polygon id="0x1fb6610" class="l1d0" points="355,355 365,355 365,365 355,365"/>
<polygon id="0x1e495a0" class="l1d0" points="355,435 365,435 365,445 355,445"/>
<polygon id="0x1e49660" class="l1d0" points="355,515 365,515 365,525 355,525"/>
<polygon id="0x1e9db10" class="l1d0" points="355,595 365,595 365,605 355,605"/>
<polygon id="0x1e9dbd0" class="l1d0" points="355,675 365,675 365,685 355,685"/>
<polygon id="0x1e9dc90" class="l1d0" points="355,755 365,755 365,765 355,765"/>
<polygon id="0x1f3df10" class="l1d0" points="355,835 365,835 365,845 355,845"/>
<polygon id="0x1f3dfd0" class="l1d0" points="355,915 365,915 365,925 355,925"/>
<polygon id="0x1f9d120" class="l1d0" points="355,995 365,995 365,1005 355,1005"/>
<polygon id="0x1f9d1e0" class="l1d0" points="355,1075 365,1075 365,1085 355,1085"/>
<polygon id="0x1f9d2a0" class="l1d0" points="355,1155 365,1155 365,1165 355,1165"/>
<polygon id="0x20399e0" class="l1d0" points="435,35 445,35 445,45 435,45"/>
<polygon id="0x2039aa0" class="l1d0" points="435,115 445,115 445,125 435,125"/>
<polygon id="0x2055f60" class="l1d0" points="435,195 445,195 445,205 435,205"/>
<polygon id="0x2055fd0" class="l1d0" points="435,275 445,275 445,285 435,285"/>
<polygon id="0x2056090" class="l1d0" points="435,355 445,355 445,365 435,365"/>
<polygon id="0x2056150" class="l1d0" points="435,435 445,435 445,445 435,445"/>
<polygon id="0x204cc10" class="l1d0" points="435,515 445,515 445,525 435,525"/>
<polygon id="0x204ccd0" class="l1d0" points="435,595 445,595 445,605 435,605"/>
<polygon id="0x204c3b0" class="l1d0" points="435,675 445,675 445,685 435,685"/>
<polygon id="0x204c470" class="l1d0" points="435,755 445,755 445,765 435,765"/>
<polygon id="0x204c530" class="l1d0" points="435,835 445,835 445,845 435,845"/>
<polygon id="0x204c5f0" class="l1d0" points="435,915 445,915 445,925 435,925"/>
<polygon id="0x204c6b0" class="l1d0" points="435,995 445,995 445,1005 435,1005"/>
<polygon id="0x204c770" class="l1d0" points="435,1075 445,1075 445,1085 435,1085"/>
<polygon id="0x204c830" class="l1d0" points="435,1155 445,1155 445,1165 435,1165"/>
<polygon id="0x204c8f0" class="l1d0" points="515,35 525,35 525,45 515,45"/>
<polygon id="0x204c9b0" class="l1d0" points="515,115 525,115 525,125 515,125"/>
<polygon id="0x204ca70" class="l1d0" points="515,195 525,195 525,205 515,205"/>
<polygon id="0x204cb30" class="l1d0" points="515,275 525,275 525,285 515,285"/>
<polygon id="0x204ddf0" class="l1d0" points="515,355 525,355 525,365 515,365"/>
<polygon id="0x204deb0" class="l1d0" points="515,435 525,435 525,445 515,445"/>
<polygon id="0x204df70" class="l1d0" points="515,515 525,515 525,525 515,525"/>
<polygon id="0x204e030" class="l1d0" points="515,595 525,595 525,605 515,605"/>
<polygon id="0x204e0f0" class="l1d0" points="515,675 525,675 525,685 515,685"/>
<polygon id="0x204e1b0" class="l1d0" points="515,755 525,755 525,765 515,765"/>
<polygon id="0x204e270" class="l1d0" points="515,835 525,835 525,845 515,845"/>
<polygon id="0x204e330" class="l1d0" points="515,915 525,915 525,925 515,925"/>
<polygon id="0x204e3f0" class="l1d0" points="515,995 525,995 525,1005 515,1005"/>
<polygon id="0x204e4b0" class="l1d0" points="515,1075 525,1075 525,1085 515,1085"/>
<polygon id="0x204e570" class="l1d0" points="515,1155 525,1155 525,1165 515,1165"/>
<polygon id="0x204e630" class="l1d0" points="595,35 605,35 605,45 595,45"/>
<polygon id="0x204e6f0" class="l1d0" points="595,115 605,115 605,125 595,125"/>
<polygon id="0x204e7b0" class="l1d0" points="595,195 605,195 605,205 595,205"/>
<polygon id="0x204e870" class="l1d0" points="595,275 605,275 605,285 595,285"/>
<polygon id="0x204e930" class="l1d0" points="595,355 605,355 605,365 595,365"/>
<polygon id="0x204e9f0" class="l1d0" points="595,435 605,435 605,445 595,445"/>
<polygon id="0x204eab0" class="l1d0" points="595,515 605,515 605,525 595,525"/>
<polygon id="0x204eb70" class="l1d0" points="595,595 605,595 605,605 595,605"/>
<polygon id="0x204ec30" class="l1d0" points="595,675 605,675 605,685 595,685"/>
<polygon id="0x204ecf0" class="l1d0" points="595,755 605,755 605,765 595,765"/>
<polygon id="0x204edb0" class="l1d0" points="595,835 605,835 605,845 595,845"/>
<polygon id="0x204ee70" class="l1d0" points="595,915 605,915 605,925 595,925"/>
<polygon id="0x204ef30" class="l1d0" points="595,995 605,995 605,1005 595,1005"/>
<polygon id="0x204eff0" class="l1d0" points="595,1075 605,1075 605,1085 595,1085"/>
<polygon id="0x204f0b0" class="l1d0" points="595,1155 605,1155 605,1165 595,1165"/>
<polygon id="0x204f170" class="l1d0" points="675,35 685,35 685,45 675,45"/>
<polygon id="0x204f230" class="l1d0" points="675,115 685,115 685,125 675,125"/>
<polygon id="0x204f2f0" class="l1d0" points="675,195 685,195 685,205 675,205"/>
<polygon id="0x204f3b0" class="l1d0" points="675,275 685,275 685,285 675,285"/>
<polygon id="0x204f470" class="l1d0" points="675,355 685,355 685,365 675,365"/>
<polygon id="0x204f530" class="l1d0" points="675,435 685,435 685,445 675,445"/>
<polygon id="0x204f5f0" class="l1d0" points="675,515 685,515 685,525 675,525"/>
<polygon id="0x204f6b0" class="l1d0" points="675,595 685,595 685,605 675,605"/>
<polygon id="0x204f770" class="l1d0" points="675,675 685,675 685,685 675,685"/>
<polygon id="0x204f830" class="l1d0" points="675,755 685,755 685,765 675,765"/>
<polygon id="0x204f8f0" class="l1d0" points="675,835 685,835 685,845 675,845"/>
<polygon id="0x204f9b0" class="l1d0" points="675,915 685,915 685,925 675,925"/>
<polygon id="0x204fa70" class="l1d0" points="675,995 685,995 685,1005 675,1005"/>
<polygon id="0x204fb30" class="l1d0" points="675,1075 685,1075 685,1085 675,1085"/>
<polygon id="0x204fbf0" class="l1d0" points="675,1155 685,1155 685,1165 675,1165"/>
<polygon id="0x204fcb0" class="l1d0" points="755,35 765,35 765,45 755,45"/>
<polygon id="0x204fd70" class="l1d0" points="755,115 765,115 765,125 755,125"/>
<polygon id="0x204fe30" class="l1d0" points="755,195 765,195 765,205 755,205"/>
<polygon id="0x204fef0" class="l1d0" points="755,275 765,275 765,285 755,285"/>
<polygon id="0x204ffb0" class="l1d0" points="755,355 765,355 765,365 755,365"/>
<polygon id="0x2050070" class="l1d0" points="755,435 765,435 765,445 755,445"/>
<polygon id="0x2050130" class="l1d0" points="755,515 765,515 765,525 755,525"/>
<polygon id="0x20501f0" class="l1d0" points="755,595 765,595 765,605 755,605"/>
<polygon id="0x20502b0" class="l1d0" points="755,675 765,675 765,685 755,685"/>
<polygon id="0x2050370" class="l1d0" points="755,755 765,755 765,765 755,765"/>
<polygon id="0x2050430" class="l1d0" points="755,835 765,835 765,845 755,845"/>
<polygon id="0x20504f0" class="l1d0" points="755,915 765,915 765,925 755,925"/>
<polygon id="0x20505b0" class="l1d0" points="755,995 765,995 765,1005 755,1005"/>
<polygon id="0x2050670" class="l1d0" points="755,1075 765,1075 765,1085 755,1085"/>
<polygon id="0x2050730" class="l1d0" points="755,1155 765,1155 765,1165 755,1165"/>
<polygon id="0x20507f0" class="l1d0" points="835,35 845,35 845,45 835,45"/>
<polygon id="0x20508b0" class="l1d0" points="835,115 845,115 845,125 835,125"/>
<polygon id="0x2050970" class="l1d0" points="835,195 845,195 845,205 835,205"/>
<polygon id="0x2050a30" class="l1d0" points="835,275 845,275 845,285 835,285"/>
<polygon id="0x2050af0" class="l1d0" points="835,355 845,355 845,365 835,365"/>
<polygon id="0x2050bb0" class="l1d0" points="835,435 845,435 845,445 835,445"/>
<polygon id="0x2050c70" class="l1d0" points="835,515 845,515 845,525 835,525"/>
<polygon id="0x2050d30" class="l1d0" points="835,595 845,595 845,605 835,605"/>
<polygon id="0x2050df0" class="l1d0" points="835,675 845,675 845,685 835,685"/>
<polygon id="0x2050eb0" class="l1d0" points="835,755 845,755 845,765 835,765"/>
<polygon id="0x2050f70" class="l1d0" points="835,835 845,835 845,845 835,845"/>
<polygon id="0x2051030" class="l1d0" points="835,915 845,915 845,925 835,925"/>
<polygon id="0x20510f0" class="l1d0" points="835,995 845,995 845,1005 835,1005"/>
<polygon id="0x20511b0" class="l1d0" points="835,1075 845,1075 845,1085 835,1085"/>
<polygon id="0x2051270" class="l1d0" points="835,1155 845,1155 845,1165 835,1165"/>
<polygon id="0x2051330" class="l1d0" points="915,35 925,35 925,45 915,45"/>
<polygon id="0x20513f0" class="l1d0" points="915,115 925,115 925,125 915,125"/>
<polygon id="0x20514b0" class="l1d0" points="915,195 925,195 925,205 915,205"/>
<polygon id="0x2051570" class="l1d0" points="915,275 925,275 925,285 915,285"/>
<polygon id="0x2051630" class="l1d0" points="915,355 925,355 925,365 915,365"/>
<polygon id="0x20516f0" class="l1d0" points="915,435 925,435 925,445 915,445"/>
<polygon id="0x20517b0" class="l1d0" points="915,515 925,515 925,525 915,525"/>
<polygon id="0x2051870" class="l1d0" points="915,595 925,595 925,605 915,605"/>
<polygon id="0x2051930" class="l1d0" points="915,675 925,675 925,685 915,685"/>
<polygon id="0x20519f0" class="l1d0" points="915,755 925,755 925,765 915,765"/>
<polygon id="0x2051ab0" class="l1d0" points="915,835 925,835 925,845 915,845"/>
<polygon id="0x2051b70" class="l1d0" points="915,915 925,915 925,925 915,925"/>
<polygon id="0x2051c30" class="l1d0" points="915,995 925,995 925,1005 915,1005"/>
<polygon id="0x2051cf0" class="l1d0" points="915,1075 925,1075 925,1085 915,1085"/>
<polygon id="0x2051db0" class="l1d0" points="915,1155 925,1155 925,1165 915,1165"/>
<polygon id="0x2051e70" class="l1d0" points="995,35 1005,35 1005,45 995,45"/>
<polygon id="0x2051f30" class="l1d0" points="995,115 1005,115 1005,125 995,125"/>
<polygon id="0x2051ff0" class="l1d0" points="995,195 1005,195 1005,205 995,205"/>
<polygon id="0x20520b0" class="l1d0" points="995,275 1005,275 1005,285 995,285"/>
<polygon id="0x2052170" class="l1d0" points="995,355 1005,355 1005,365 995,365"/>
<polygon id="0x2052230" class="l1d0" points="995,435 1005,435 1005,445 995,445"/>
<polygon id="0x20522f0" class="l1d0" points="995,515 1005,515 1005,525 995,525"/>
<polygon id="0x20523b0" class="l1d0" points="995,595 1005,595 1005,605 995,605"/>
<polygon id="0x2052470" class="l1d0" points="995,675 1005,675 1005,685 995,685"/>
<polygon id="0x2052530" class="l1d0" points="995,755 1005,755 1005,765 995,765"/>
<polygon id="0x20525f0" class="l1d0" points="995,835 1005,835 1005,845 995,845"/>
<polygon id="0x20526b0" class="l1d0" points="995,915 1005,915 1005,925 995,925"/>
<polygon id="0x2052770" class="l1d0" points="995,995 1005,995 1005,1005 995,1005"/>
<polygon id="0x2052830" class="l1d0" points="995,1075 1005,1075 1005,1085 995,1085"/>
<polygon id="0x20528f0" class="l1d0" points="995,1155 1005,1155 1005,1165 995,1165"/>
<polygon id="0x20529b0" class="l1d0" points="1075,35 1085,35 1085,45 1075,45"/>
<polygon id="0x2052a70" class="l1d0" points="1075,115 1085,115 1085,125 1075,125"/>
<polygon id="0x2052b30" class="l1d0" points="1075,195 1085,195 1085,205 1075,205"/>
<polygon id="0x2052bf0" class="l1d0" points="1075,275 1085,275 1085,285 1075,285"/>
<polygon id="0x2052cb0" class="l1d0" points="1075,355 1085,355 1085,365 1075,365"/>
<polygon id="0x2052d70" class="l1d0" points="1075,435 1085,435 1085,445 1075,445"/>
<polygon id="0x2052e30" class="l1d0" points="1075,515 1085,515 1085,525 1075,525"/>
<polygon id="0x2052ef0" class="l1d0" points="1075,595 1085,595 1085,605 1075,605"/>
<polygon id="0x2052fb0" class="l1d0" points="1075,675 1085,675 1085,685 1075,685"/>
<polygon id="0x2053070" class="l1d0" points="1075,755 1085,755 1085,765 1075,765"/>
<polygon id="0x2053130" class="l1d0" points="1075,835 1085,835 1085,845 1075,845"/>
<polygon id="0x20531f0" class="l1d0" points="1075,915 1085,915 1085,925 1075,925"/>
<polygon id="0x20532b0" class="l1d0" points="1075,995 1085,995 1085,1005 1075,1005"/>
<polygon id="0x2053370" class="l1d0" points="1075,1075 1085,1075 1085,1085 1075,1085"/>
<polygon id="0x2053430" class="l1d0" points="1075,1155 1085,1155 1085,1165 1075,1165"/>
<polygon id="0x20534f0" class="l1d0" points="1155,35 1165,35 1165,45 1155,45"/>
<polygon id="0x20535b0" class="l1d0" points="1155,115 1165,115 1165,125 1155,125"/>
<polygon id="0x2056520" class="l1d0" points="1155,195 1165,195 1165,205 1155,205"/>
<polygon id="0x20565e0" class="l1d0" points="1155,275 1165,275 1165,285 1155,285"/>
<polygon id="0x20566a0" class="l1d0" points="1155,355 1165,355 1165,365 1155,365"/>
<polygon id="0x2056760" class="l1d0" points="1155,435 1165,435 1165,445 1155,445"/>
<polygon id="0x2056820" class="l1d0" points="1155,515 1165,515 1165,525 1155,525"/>
<polygon id="0x20568e0" class="l1d0" points="1155,595 1165,595 1165,605 1155,605"/>
<polygon id="0x20569a0" class="l1d0" points="1155,675 1165,675 1165,685 1155,685"/>
<polygon id="0x2056a60" class="l1d0" points="1155,755 1165,755 1165,765 1155,765"/>
<polygon id="0x2056b20" class="l1d0" points="1155,835 1165,835 1165,845 1155,845"/>
<polygon id="0x2056be0" class="l1d0" points="1155,915 1165,915 1165,925 1155,925"/>
<polygon id="0x2056ca0" class="l1d0" points="1155,995 1165,995 1165,1005 1155,1005"/>
<polygon id="0x2056d60" class="l1d0" points="1155,1075 1165,1075 1165,1085 1155,1085"/>
<polygon id="0x2056e20" class="l1d0" points="1155,1155 1165,1155 1165,1165 1155,1165"/>
<polygon id="0x2056ee0" class="l1d0" points="1235,35 1245,35 1245,45 1235,45"/>
<polygon id="0x2056fa0" class="l1d0" points="1235,115 1245,115 1245,125 1235,125"/>
<polygon id="0x2057060" class="l1d0" points="1235,195 1245,195 1245,205 1235,205"/>
<polygon id="0x2057120" class="l1d0" points="1235,275 1245,275 1245,285 1235,285"/>
<polygon id="0x20571e0" class="l1d0" points="1235,355 1245,355 1245,365 1235,365"/>
<polygon id="0x20572a0" class="l1d0" points="1235,435 1245,435 1245,445 1235,445"/>
<polygon id="0x2057360" class="l1d0" points="1235,515 1245,515 1245,525 1235,525"/>
<polygon id="0x2057420" class="l1d0" points="1235,595 1245,595 1245,605 1235,605"/>
<polygon id="0x20574e0" class="l1d0" points="1235,675 1245,675 1245,685 1235,685"/>
<polygon id="0x20575a0" class="l1d0" points="1235,755 1245,755 1245,765 1235,765"/>
<polygon id="0x2057660" class="l1d0" points="1235,835 1245,835 1245,845 1235,845"/>
<polygon id="0x2057720" class="l1d0" points="1235,915 1245,915 1245,925 1235,925"/>
<polygon id="0x20577e0" class="l1d0" points="1235,995 1245,995 1245,1005 1235,1005"/>
<polygon id="0x20578a0" class="l1d0" points="1235,1075 1245,1075 1245,1085 1235,1085"/>
<polygon id="0x2057960" class="l1d0" points="1235,1155 1245,1155 1245,1165 1235,1165"/>
<polygon id="0x2057a20" class="l1d0" points="1315,35 1325,35 1325,45 1315,45"/>
<polygon id="0x2057ae0" class="l1d0" points="1315,115 1325,115 1325,125 1315,125"/>
<polygon id="0x2057ba0" class="l1d0" points="1315,195 1325,195 1325,205 1315,205"/>
<polygon id="0x2057c60" class="l1d0" points="1315,275 1325,275 1325,285 1315,285"/>
<polygon id="0x2057d20" class="l1d0" points="1315,355 1325,355 1325,365 1315,365"/>
<polygon id="0x2057de0" class="l1d0" points="1315,435 1325,435 1325,445 1315,445"/>
<polygon id="0x2057ea0" class="l1d0" points="1315,515 1325,515 1325,525 1315,525"/>
<polygon id="0x2057f60" class="l1d0" points="1315,595 1325,595 1325,605 1315,605"/>
<polygon id="0x2058020" class="l1d0" points="1315,675 1325,675 1325,685 1315,685"/>
<polygon id="0x20580e0" class="l1d0" points="1315,755 1325,755 1325,765 1315,765"/>
<polygon id="0x20581a0" class="l1d0" points="1315,835 1325,835 1325,845 1315,845"/>
<polygon id="0x2058260" class="l1d0" points="1315,915 1325,915 1325,925 1315,925"/>
<polygon id="0x2058320" class="l1d0" points="1315,995 1325,995 1325,1005 1315,1005"/>
<polygon id="0x20583e0" class="l1d0" points="1315,1075 1325,1075 1325,1085 1315,1085"/>
<polygon id="0x20584a0" class="l1d0" points="1315,1155 1325,1155 1325,1165 1315,1165"/>
<polygon id="0x2058560" class="l1d0" points="1395,35 1405,35 1405,45 1395,45"/>
<polygon id="0x2058620" class="l1d0" points="1395,115 1405,115 1405,125 1395,125"/>
<polygon id="0x20586e0" class="l1d0" points="1395,195 1405,195 1405,205 1395,205"/>
<polygon id="0x20587a0" class="l1d0" points="1395,275 1405,275 1405,285 1395,285"/>
<polygon id="0x2058860" class="l1d0" points="1395,355 1405,355 1405,365 1395,365"/>
<polygon id="0x2058920" class="l1d0" points="1395,435 1405,435 1405,445 1395,445"/>
<polygon id="0x20589e0" class="l1d0" points="1395,515 1405,515 1405,525 1395,525"/>
<polygon id="0x2058aa0" class="l1d0" points="1395,595 1405,595 1405,605 1395,605"/>
<polygon id="0x2058b60" class="l1d0" points="1395,675 1405,675 1405,685 1395,685"/>
<polygon id="0x2058c20" class="l1d0" points="1395,755 1405,755 1405,765 1395,765"/>
<polygon id="0x2058ce0" class="l1d0" points="1395,835 1405,835 1405,845 1395,845"/>
<polygon id="0x2058da0" class="l1d0" points="1395,915 1405,915 1405,925 1395,925"/>
<polygon id="0x2058e60" class="l1d0" points="1395,995 1405,995 1405,1005 1395,1005"/>
<polygon id="0x2058f20" class="l1d0" points="1395,1075 1405,1075 1405,1085 1395,1085"/>
<polygon id="0x2058fe0" class="l1d0" points="1395,1155 1405,1155 1405,1165 1395,1165"/>
<polygon id="0x20590a0" class="l1d0" points="1475,35 1485,35 1485,45 1475,45"/>
<polygon id="0x2059160" class="l1d0" points="1475,115 1485,115 1485,125 1475,125"/>
<polygon id="0x2059220" class="l1d0" points="1475,195 1485,195 1485,205 1475,205"/>
<polygon id="0x20592e0" class="l1d0" points="1475,275 1485,275 1485,285 1475,285"/>
<polygon id="0x20593a0" class="l1d0" points="1475,355 1485,355 1485,365 1475,365"/>
<polygon id="0x2059460" class="l1d0" points="1475,435 1485,435 1485,445 1475,445"/>
<polygon id="0x2059520" class="l1d0" points="1475,515 1485,515 1485,525 1475,525"/>
<polygon id="0x20595e0" class="l1d0" points="1475,595 1485,595 1485,605 1475,605"/>
<polygon id="0x20596a0" class="l1d0" points="1475,675 1485,675 1485,685 1475,685"/>
<polygon id="0x2059760" class="l1d0" points="1475,755 1485,755 1485,765 1475,765"/>
<polygon id="0x2059820" class="l1d0" points="1475,835 1485,835 1485,845 1475,845"/>
<polygon id="0x20598e0" class="l1d0" points="1475,915 1485,915 1485,925 1475,925"/>
<polygon id="0x20599a0" class="l1d0" points="1475,995 1485,995 1485,1005 1475,1005"/>
<polygon id="0x2059a60" class="l1d0" points="1475,1075 1485,1075 1485,1085 1475,1085"/>
<polygon id="0x2059b20" class="l1d0" points="1475,1155 1485,1155 1485,1165 1475,1165"/>
<polygon id="0x2059be0" class="l1d0" points="1555,35 1565,35 1565,45 1555,45"/>
<polygon id="0x2059ca0" class="l1d0" points="1555,115 1565,115 1565,125 1555,125"/>
<polygon id="0x2059d60" class="l1d0" points="1555,195 1565,195 1565,205 1555,205"/>
<polygon id="0x2059e20" class="l1d0" points="1555,275 1565,275 1565,285 1555,285"/>
<polygon id="0x2059ee0" class="l1d0" points="1555,355 1565,355 1565,365 1555,365"/>
<polygon id="0x2059fa0" class="l1d0" points="1555,435 1565,435 1565,445 1555,445"/>
<polygon id="0x205a060" class="l1d0" points="1555,515 1565,515 1565,525 1555,525"/>
<polygon id="0x205a120" class="l1d0" points="1555,595 1565,595 1565,605 1555,605"/>
<polygon id="0x205a1e0" class="l1d0" points="1555,675 1565,675 1565,685 1555,685"/>
<polygon id="0x205a2a0" class="l1d0" points="1555,755 1565,755 1565,765 1555,765"/>
<polygon id="0x205a360" class="l1d0" points="1555,835 1565,835 1565,845 1555,845"/>
<polygon id="0x205a420" class="l1d0" points="1555,915 1565,915 1565,925 1555,925"/>
<polygon id="0x205a4e0" class="l1d0" points="1555,995 1565,995 1565,1005 1555,1005"/>
<polygon id="0x205a5a0" class="l1d0" points="1555,1075 1565,1075 1565,1085 1555,1085"/>
<polygon id="0x205a660" class="l1d0" points="1555,1155 1565,1155 1565,1165 1555,1165"/>
</g>
</svg>