<?xml version="1.0" encoding="UTF-8"?>
<svg xmlns="http://www.w3.org/2000/svg" xmlns:xlink="http://www.w3.org/1999/xlink" width="1760" height="1520" viewBox="-80 -1440 1760 1520">
<defs>
<style type="text/css">
.l126d0 {stroke: #E68FAC; fill: #E68FAC; fill-opacity: 0.5;}
.l189d4 {stroke: #A1CAF1; fill: #A1CAF1; fill-opacity: 0.5;}
</style>
</defs>
<rect x="-80" y="-1440" width="1760" height="1520" fill="#222222" stroke="none"/>
<g id="my_logo" transform="scale(1 -1)">
<polygon id="0x2390140" class="l126d0" points="0,20 320,20 320,60 0,60"/>
<polygon id="0x2396f30" class="l126d0" points="400,20 560,20 560,60 400,60"/>
<polygon id="0x23a1cf0" class="l126d0" points="640,20 720,20 720,60 640,60"/>
<polygon id="0x23f3cb0" class="l126d0" points="800,20 960,20 960,60 800,60"/>
<polygon id="0x24cd440" class="l126d0" points="1200,20 1280,20 1280,60 1200,60"/>
<polygon id="0x254c3b0" class="l126d0" points="1440,20 1520,20 1520,60 1440,60"/>
<polygon id="0x254daa0" class="l126d0" points="160,100 400,100 400,140 160,140"/>
<polygon id="0x24a6ac0" class="l126d0" points="480,100 640,100 640,140 480,140"/>
<polygon id="0x24b4e00" class="l126d0" points="800,100 880,100 880,140 800,140"/>
<polygon id="0x253e5e0" class="l126d0" points="1040,100 1120,100 1120,140 1040,140"/>
<polygon id="0x2551720" class="l126d0" points="1280,100 1360,100 1360,140 1280,140"/>
<polygon id="0x2537670" class="l126d0" points="1440,100 1520,100 1520,140 1440,140"/>
<polygon id="0x23e8ca0" class="l126d0" points="0,180 80,180 80,220 0,220"/>
<polygon id="0x25184e0" class="l126d0" points="160,180 320,180 320,220 160,220"/>
<polygon id="0x238a4a0" class="l126d0" points="480,180 560,180 560,220 480,220"/>
<polygon id="0x245c580" class="l126d0" points="720,180 880,180 880,220 720,220"/>
<polygon id="0x24c75c0" class="l126d0" points="960,180 1040,180 1040,220 960,220"/>
<polygon id="0x24cbe30" class="l126d0" points="1200,180 1280,180 1280,220 1200,220"/>
<polygon id="0x251de40" class="l126d0" points="1360,180 1440,180 1440,220 1360,220"/>
<polygon id="0x22aa8e0" class="l126d0" points="1520,180 1600,180 1600,220 1520,220"/>
<polygon id="0x232a560" class="l126d0" points="80,260 320,260 320,300 80,300"/>
<polygon id="0x233d600" class="l126d0" points="400,260 720,260 720,300 400,300"/>
<polygon id="0x234bcb0" class="l126d0" points="800,260 880,260 880,300 800,300"/>
<polygon id="0x22daae0" class="l126d0" points="960,260 1040,260 1040,300 960,300"/>
<polygon id="0x24ab860" class="l126d0" points="1120,260 1520,260 1520,300 1120,300"/>
<polygon id="0x24b7510" class="l126d0" points="0,340 80,340 80,380 0,380"/>
<polygon id="0x24de180" class="l126d0" points="560,340 720,340 720,380 560,380"/>
<polygon id="0x250fb50" class="l126d0" points="800,340 1040,340 1040,380 800,380"/>
<polygon id="0x2356160" class="l126d0" points="1120,340 1280,340 1280,380 1120,380"/>
<polygon id="0x238fd20" class="l126d0" points="1440,340 1520,340 1520,380 1440,380"/>
<polygon id="0x23b4290" class="l126d0" points="0,420 160,420 160,460 0,460"/>
<polygon id="0x23dea10" class="l126d0" points="240,420 320,420 320,460 240,460"/>
<polygon id="0x2499c80" class="l126d0" points="800,420 880,420 880,460 800,460"/>
<polygon id="0x2579be0" class="l126d0" points="1120,420 1600,420 1600,460 1120,460"/>
<polygon id="0x2503090" class="l126d0" points="0,500 400,500 400,540 0,540"/>
<polygon id="0x24e5de0" class="l126d0" points="720,500 800,500 800,540 720,540"/>
<polygon id="0x25528c0" class="l126d0" points="1040,500 1200,500 1200,540 1040,540"/>
<polygon id="0x2312410" class="l126d0" points="0,580 80,580 80,620 0,620"/>
<polygon id="0x2323090" class="l126d0" points="400,580 480,580 480,620 400,620"/>
<polygon id="0x238cc30" class="l126d0" points="560,580 640,580 640,620 560,620"/>
<polygon id="0x2453a10" class="l126d0" points="720,580 960,580 960,620 720,620"/>
<polygon id="0x245a5b0" class="l126d0" points="1040,580 1120,580 1120,620 1040,620"/>
<polygon id="0x231e670" class="l126d0" points="1280,580 1360,580 1360,620 1280,620"/>
<polygon id="0x249c9a0" class="l126d0" points="0,660 80,660 80,700 0,700"/>
<polygon id="0x249f410" class="l126d0" points="400,660 480,660 480,700 400,700"/>
<polygon id="0x24b8440" class="l126d0" points="560,660 640,660 640,700 560,700"/>
<polygon id="0x244cbc0" class="l126d0" points="960,660 1200,660 1200,700 960,700"/>
<polygon id="0x24d1ca0" class="l126d0" points="1360,660 1520,660 1520,700 1360,700"/>
<polygon id="0x251d460" class="l126d0" points="0,740 160,740 160,780 0,780"/>
<polygon id="0x251d4d0" class="l126d0" points="320,740 400,740 400,780 320,780"/>
<polygon id="0x2551fd0" class="l126d0" points="560,740 640,740 640,780 560,780"/>
<polygon id="0x2578720" class="l126d0" points="720,740 800,740 800,780 720,780"/>
<polygon id="0x233d250" class="l126d0" points="1200,740 1520,740 1520,780 1200,780"/>
<polygon id="0x233d2c0" class="l126d0" points="800,820 880,820 880,860 800,860"/>
<polygon id="0x233f800" class="l126d0" points="1040,820 1600,820 1600,860 1040,860"/>
<polygon id="0x237ae90" class="l126d0" points="0,900 80,900 80,940 0,940"/>
<polygon id="0x23e35e0" class="l126d0" points="240,900 480,900 480,940 240,940"/>
<polygon id="0x23bccd0" class="l126d0" points="1040,900 1280,900 1280,940 1040,940"/>
<polygon id="0x248c160" class="l126d0" points="1520,900 1600,900 1600,940 1520,940"/>
<polygon id="0x24df410" class="l126d0" points="80,980 160,980 160,1020 80,1020"/>
<polygon id="0x24be370" class="l126d0" points="240,980 400,980 400,1020 240,1020"/>
<polygon id="0x2519e30" class="l126d0" points="480,980 800,980 800,1020 480,1020"/>
<polygon id="0x252b340" class="l126d0" points="1040,980 1120,980 1120,1020 1040,1020"/>
<polygon id="0x253afd0" class="l126d0" points="1200,980 1440,980 1440,1020 1200,1020"/>
<polygon id="0x2304b10" class="l126d0" points="1520,980 1600,980 1600,1020 1520,1020"/>
<polygon id="0x2304bd0" class="l126d0" points="80,1060 240,1060 240,1100 80,1100"/>
<polygon id="0x2325fb0" class="l126d0" points="320,1060 480,1060 480,1100 320,1100"/>
<polygon id="0x2326070" class="l126d0" points="640,1060 720,1060 720,1100 640,1100"/>
<polygon id="0x234a370" class="l126d0" points="880,1060 1040,1060 1040,1100 880,1100"/>
<polygon id="0x234a430" class="l126d0" points="1280,1060 1440,1060 1440,1100 1280,1100"/>
<polygon id="0x237b820" class="l126d0" points="0,1140 400,1140 400,1180 0,1180"/>
<polygon id="0x237b8e0" class="l126d0" points="480,1140 560,1140 560,1180 480,1180"/>
<polygon id="0x23db070" class="l126d0" points="720,1140 800,1140 800,1180 720,1180"/>
<polygon id="0x23db130" class="l126d0" points="880,1140 1040,1140 1040,1180 880,1180"/>
<polygon id="0x254ecb0" class="l126d0" points="1120,1140 1280,1140 1280,1180 1120,1180"/>
<polygon id="0x254ed70" class="l126d0" points="1360,1140 1440,1140 1440,1180 1360,1180"/>
<polygon id="0x2340ef0" class="l126d0" points="1520,1140 1600,1140 1600,1180 1520,1180"/>
<polygon id="0x2340fb0" class="l126d0" points="0,1220 320,1220 320,1260 0,1260"/>
<polygon id="0x249b4e0" class="l126d0" points="400,1220 640,1220 640,1260 400,1260"/>
<polygon id="0x249b5a0" class="l126d0" points="720,1220 800,1220 800,1260 720,1260"/>
<polygon id="0x2256c20" class="l126d0" points="1280,1220 1440,1220 1440,1260 1280,1260"/>
<polygon id="0x2256ce0" class="l126d0" points="1520,1220 1600,1220 1600,1260 1520,1260"/>
<polygon id="0x24dfa30" class="l126d0" points="80,1300 240,1300 240,1340 80,1340"/>
<polygon id="0x24dfaf0" class="l126d0" points="480,1300 640,1300 640,1340 480,1340"/>
<polygon id="0x24e3990" class="l126d0" points="720,1300 800,1300 800,1340 720,1340"/>
<polygon id="0x22ee4f0" class="l126d0" points="880,1300 1040,1300 1040,1340 880,1340"/>
<polygon id="0x22ee5b0" class="l126d0" points="1360,1300 1600,1300 1600,1340 1360,1340"/>
<polygon id="0x23107f0" class="l126d0" points="20,80 60,80 60,160 20,160"/>
<polygon id="0x231a800" class="l126d0" points="20,240 60,240 60,320 20,320"/>
<polygon id="0x231a870" class="l126d0" points="20,800 60,800 60,880 20,880"/>
<polygon id="0x2353250" class="l126d0" points="20,960 60,960 60,1120 20,1120"/>
<polygon id="0x2353310" class="l126d0" points="20,1280 60,1280 60,1360 20,1360"/>
<polygon id="0x2455a20" class="l126d0" points="100,80 140,80 140,240 100,240"/>
<polygon id="0x246b540" class="l126d0" points="100,320 140,320 140,400 100,400"/>
<polygon id="0x246b5b0" class="l126d0" points="100,560 140,560 140,720 100,720"/>
<polygon id="0x24e96c0" class="l126d0" points="100,800 140,800 140,960 100,960"/>
<polygon id="0x24e9780" class="l126d0" points="180,320 220,320 220,480 180,480"/>
<polygon id="0x251c310" class="l126d0" points="180,560 220,560 220,1040 180,1040"/>
<polygon id="0x255a410" class="l126d0" points="260,320 300,320 300,400 260,400"/>
<polygon id="0x255a480" class="l126d0" points="260,560 300,560 300,880 260,880"/>
<polygon id="0x230ea00" class="l126d0" points="260,1040 300,1040 300,1120 260,1120"/>
<polygon id="0x230eac0" class="l126d0" points="260,1280 300,1280 300,1360 260,1360"/>
<polygon id="0x2300860" class="l126d0" points="340,0 380,0 380,80 340,80"/>
<polygon id="0x23e4f50" class="l126d0" points="340,160 380,160 380,480 340,480"/>
<polygon id="0x23e5010" class="l126d0" points="340,560 380,560 380,720 340,720"/>
<polygon id="0x23dd9e0" class="l126d0" points="340,800 380,800 380,880 340,880"/>
<polygon id="0x23ddaa0" class="l126d0" points="340,1200 380,1200 380,1360 340,1360"/>
<polygon id="0x244aff0" class="l126d0" points="420,80 460,80 460,240 420,240"/>
<polygon id="0x2459520" class="l126d0" points="420,320 460,320 460,560 420,560"/>
<polygon id="0x24595e0" class="l126d0" points="420,720 460,720 460,880 420,880"/>
<polygon id="0x24ceb00" class="l126d0" points="420,960 460,960 460,1040 420,1040"/>
<polygon id="0x24cebc0" class="l126d0" points="420,1120 460,1120 460,1200 420,1200"/>
<polygon id="0x230cc80" class="l126d0" points="420,1280 460,1280 460,1360 420,1360"/>
<polygon id="0x230cd40" class="l126d0" points="500,320 540,320 540,960 500,960"/>
<polygon id="0x234c1f0" class="l126d0" points="500,1040 540,1040 540,1120 500,1120"/>
<polygon id="0x234c2b0" class="l126d0" points="580,0 620,0 620,80 580,80"/>
<polygon id="0x2395eb0" class="l126d0" points="580,160 620,160 620,240 580,240"/>
<polygon id="0x2395f70" class="l126d0" points="580,400 620,400 620,560 580,560"/>
<polygon id="0x23d3750" class="l126d0" points="580,800 620,800 620,960 580,960"/>
<polygon id="0x23d3810" class="l126d0" points="580,1040 620,1040 620,1200 580,1200"/>
<polygon id="0x23e2480" class="l126d0" points="660,80 700,80 700,240 660,240"/>
<polygon id="0x23e2540" class="l126d0" points="660,400 700,400 700,960 660,960"/>
<polygon id="0x23bb9a0" class="l126d0" points="660,1120 700,1120 700,1360 660,1360"/>
<polygon id="0x23bba60" class="l126d0" points="740,0 780,0 780,160 740,160"/>
<polygon id="0x2428960" class="l126d0" points="740,240 780,240 780,480 740,480"/>
<polygon id="0x2428a20" class="l126d0" points="740,640 780,640 780,720 740,720"/>
<polygon id="0x25490f0" class="l126d0" points="740,800 780,800 780,960 740,960"/>
<polygon id="0x25491b0" class="l126d0" points="740,1040 780,1040 780,1120 740,1120"/>
<polygon id="0x234f5c0" class="l126d0" points="820,480 860,480 860,560 820,560"/>
<polygon id="0x234f680" class="l126d0" points="820,640 860,640 860,800 820,800"/>
<polygon id="0x233bfd0" class="l126d0" points="820,880 860,880 860,1360 820,1360"/>
<polygon id="0x233c090" class="l126d0" points="900,80 940,80 940,320 900,320"/>
<polygon id="0x234d990" class="l126d0" points="900,400 940,400 940,560 900,560"/>
<polygon id="0x234da50" class="l126d0" points="900,640 940,640 940,1040 900,1040"/>
<polygon id="0x23a7400" class="l126d0" points="900,1200 940,1200 940,1280 900,1280"/>
<polygon id="0x23a74c0" class="l126d0" points="980,0 1020,0 1020,160 980,160"/>
<polygon id="0x239df60" class="l126d0" points="980,400 1020,400 1020,640 980,640"/>
<polygon id="0x239e020" class="l126d0" points="980,720 1020,720 1020,1040 980,1040"/>
<polygon id="0x2462450" class="l126d0" points="980,1200 1020,1200 1020,1280 980,1280"/>
<polygon id="0x2462510" class="l126d0" points="1060,0 1100,0 1100,80 1060,80"/>
<polygon id="0x253fa00" class="l126d0" points="1060,160 1100,160 1100,480 1060,480"/>
<polygon id="0x253fac0" class="l126d0" points="1060,720 1100,720 1100,800 1060,800"/>
<polygon id="0x22aa060" class="l126d0" points="1060,1040 1100,1040 1100,1360 1060,1360"/>
<polygon id="0x22aa120" class="l126d0" points="1140,0 1180,0 1180,240 1140,240"/>
<polygon id="0x233a2e0" class="l126d0" points="1140,560 1180,560 1180,640 1140,640"/>
<polygon id="0x233a3a0" class="l126d0" points="1140,720 1180,720 1180,800 1140,800"/>
<polygon id="0x2349ad0" class="l126d0" points="1140,960 1180,960 1180,1120 1140,1120"/>
<polygon id="0x2349b90" class="l126d0" points="1140,1200 1180,1200 1180,1360 1140,1360"/>
<polygon id="0x2364dc0" class="l126d0" points="1220,80 1260,80 1260,160 1220,160"/>
<polygon id="0x2364e80" class="l126d0" points="1220,480 1260,480 1260,720 1220,720"/>
<polygon id="0x2379c70" class="l126d0" points="1220,1040 1260,1040 1260,1120 1220,1120"/>
<polygon id="0x2379d30" class="l126d0" points="1220,1200 1260,1200 1260,1360 1220,1360"/>
<polygon id="0x2423120" class="l126d0" points="1300,0 1340,0 1340,80 1300,80"/>
<polygon id="0x24231e0" class="l126d0" points="1300,160 1340,160 1340,240 1300,240"/>
<polygon id="0x2494e80" class="l126d0" points="1300,320 1340,320 1340,400 1300,400"/>
<polygon id="0x2494f40" class="l126d0" points="1300,480 1340,480 1340,560 1300,560"/>
<polygon id="0x24efd80" class="l126d0" points="1300,640 1340,640 1340,720 1300,720"/>
<polygon id="0x24efe40" class="l126d0" points="1300,880 1340,880 1340,960 1300,960"/>
<polygon id="0x230e580" class="l126d0" points="1300,1120 1340,1120 1340,1200 1300,1200"/>
<polygon id="0x230e640" class="l126d0" points="1300,1280 1340,1280 1340,1360 1300,1360"/>
<polygon id="0x242b0b0" class="l126d0" points="1380,0 1420,0 1420,160 1380,160"/>
<polygon id="0x242b170" class="l126d0" points="1380,320 1420,320 1420,400 1380,400"/>
<polygon id="0x247de00" class="l126d0" points="1380,480 1420,480 1420,640 1380,640"/>
<polygon id="0x247dec0" class="l126d0" points="1380,880 1420,880 1420,960 1380,960"/>
<polygon id="0x230f1c0" class="l126d0" points="1460,160 1500,160 1500,240 1460,240"/>
<polygon id="0x230f280" class="l126d0" points="1460,480 1500,480 1500,640 1460,640"/>
<polygon id="0x238c650" class="l126d0" points="1460,880 1500,880 1500,1280 1460,1280"/>
<polygon id="0x238c710" class="l126d0" points="1540,0 1580,0 1580,160 1540,160"/>
<polygon id="0x23d5830" class="l126d0" points="1540,240 1580,240 1580,400 1540,400"/>
<polygon id="0x23d58a0" class="l126d0" points="1540,480 1580,480 1580,800 1540,800"/>
<polygon id="0x23d5960" class="l126d0" points="1540,1040 1580,1040 1580,1120 1540,1120"/>
<polygon id="0x24ae130" class="l189d4" points="0,0 1600,0 1600,1360 0,1360"/>
</g>
</svg>